<?xml version="1.0" encoding="UTF-8"?>
<svg width="111px" height="84px" viewBox="0 0 111 84" version="1.1" xmlns="http://www.w3.org/2000/svg" xmlns:xlink="http://www.w3.org/1999/xlink">
    <!-- Generator: Sketch 51.1 (57501) - http://www.bohemiancoding.com/sketch -->
    <title>book</title>
    <desc>Created with Sketch.</desc>
    <defs></defs>
    <g id="CONVERSATIONS" stroke="none" stroke-width="1" fill="none" fill-rule="evenodd">
        <g id="Conversation-empty-(≥1200px)" transform="translate(-482.000000, -278.000000)">
            <g id="Illustrations" transform="translate(323.000000, 246.000000)">
                <g id="book" transform="translate(158.000000, 32.000000)">
                    <g id="books" transform="translate(11.737947, 0.000000)" fill-rule="nonzero">
                        <rect id="Rectangle-path" fill="#8EC54A" x="0" y="5.74132414" width="13.4136656" height="77.8750536"></rect>
                        <rect id="Rectangle-path" fill="#F17265" transform="translate(48.704057, 44.673931) rotate(-4.520000) translate(-48.704057, -44.673931) " x="45.3506408" y="5.73640431" width="6.7068328" height="77.8750536"></rect>
                        <rect id="Rectangle-path" fill="#FAAF4C" x="12.9784468" y="0" width="13.4136656" height="83.6163778"></rect>
                        <rect id="Rectangle-path" fill="#2DABDF" x="26.3921124" y="9.16831607" width="16.3039646" height="74.4369351"></rect>
                        <rect id="Rectangle-path" fill="#FFDE88" x="13.1458387" y="10.4367482" width="13.2574332" height="11.8275728"></rect>
                        <rect id="Rectangle-path" fill="#C39A6F" x="55.6856833" y="12.1279909" width="28.9476278" height="71.4883868"></rect>
                        <rect id="Rectangle-path" fill="#FFDE88" x="55.6856833" y="70.5203729" width="28.9476278" height="1.39082465"></rect>
                        <rect id="Rectangle-path" fill="#FFDE88" x="55.6856833" y="74.0029978" width="28.9476278" height="1.39082465"></rect>
                        <rect id="Rectangle-path" fill="#FFDE88" x="55.6856833" y="24.6231595" width="28.9476278" height="1.39082465"></rect>
                        <rect id="Rectangle-path" fill="#FFDE88" x="55.6856833" y="28.1057845" width="28.9476278" height="1.39082465"></rect>
                        <rect id="Rectangle-path" fill="#215265" x="86.2179537" y="8.36720108" width="13.692652" height="75.0377713" rx="4.52554745"></rect>
                        <rect id="Rectangle-path" fill="#387283" x="88.2601341" y="15.3213243" width="9.59713179" height="2.43672478"></rect>
                        <rect id="Rectangle-path" fill="#387283" x="88.2601341" y="19.9499887" width="9.59713179" height="2.43672478"></rect>
                        <rect id="Rectangle-path" fill="#387283" x="88.2601341" y="67.8611162" width="9.59713179" height="2.43672478"></rect>
                        <rect id="Rectangle-path" fill="#387283" x="88.2601341" y="72.4897806" width="9.59713179" height="2.43672478"></rect>
                    </g>
                    <g id="cactus" transform="translate(0.635848, 22.138820)">
                        <path d="M9.97329008,8.99115355 C7.24455258,10.066288 12.4316121,10.5553906 13.718879,8.99338181 C15.6911237,6.59800458 12.2774083,5.25993572 13.2573849,6.91887372 C13.8473822,7.91824738 15.4117689,7.01134642 14.8184194,6.00863037 C13.7781022,4.24830664 12.5321799,2.38325479 10.3811481,1.93314669 C8.63685681,1.5677124 7.02553843,2.49243942 6.15953861,3.98314395 C4.45770929,6.91553133 6.39084437,12.330198 10.4537803,10.7303088 C11.5242678,10.3091681 11.058304,8.56444217 9.97329008,8.99115355" id="Fill-267" fill="#63873B"></path>
                        <path d="M25.0257078,17.7350603 C25.5106677,17.066583 22.5383329,19.3572321 23.1406218,19.6803295 C24.0557881,20.1705462 22.0477859,19.7605467 22.0310246,20.7989149 C21.9952672,23.0160315 26.2682779,24.0321171 24.367548,22.7586677 C23.3987456,22.1091306 22.4925187,23.6711393 23.4546166,24.3151059 C26.7521204,26.5255377 31.1268163,23.3112757 30.6664396,19.5600035 C30.2887519,16.4850077 25.6369361,13.8311525 23.4646733,16.8259311 C22.7808128,17.7673701 24.3496693,18.6675863 25.0257078,17.7350603" id="Fill-268" fill="#63873B"></path>
                        <path d="M13.9185618,33.0733849 C16.713227,33.0121078 20.4655204,32.9051514 20.4655204,32.9051514 C20.1180031,34.015938 21.8634117,34.4905569 22.2098117,33.3842269 C24.1239506,27.2776861 29.8093791,1.84100823 15.4293124,5.90423649 C3.89754708,9.16194952 7.19952059,27.4247512 12.6402343,34.3490626 C13.3576174,35.26042 14.6292403,33.9769435 13.9185618,33.0733849" id="Fill-269" fill="#6DA041"></path>
                        <path d="M4.93339461,4.10057314 C5.42282419,4.45040963 5.91337118,4.80136025 6.40391818,5.15231086 C6.80060196,5.43641374 7.41071281,5.22138686 7.64090114,4.82921347 C7.90796431,4.37576299 7.71465081,3.87997561 7.3168496,3.59587273 C6.8263026,3.24492211 6.33575561,2.8939715 5.84632603,2.54413501 C5.44852483,2.26003213 4.8395314,2.47505901 4.60822565,2.8672324 C4.34339731,3.32068288 4.5355934,3.81535613 4.93339461,4.10057314" id="Fill-270" fill="#35332D"></path>
                        <path d="M18.9878454,5.40020455 C19.0627124,5.69099221 19.0515383,5.94947012 18.9677318,6.23802952 C18.6447977,7.35550085 20.3890889,7.83234804 20.7109057,6.71821909 C20.8829882,6.12327424 20.885223,5.51830222 20.7321366,4.92112911 C20.4438425,3.79808713 18.6984338,4.27382019 18.9878454,5.40020455" id="Fill-271" fill="#35332D"></path>
                        <path d="M5.71804632,19.451376 C6.27899072,19.7989842 6.90809768,19.9705601 7.56625755,19.978359 C8.73060827,19.9895002 8.73172569,18.1868396 7.56625755,18.1745842 C7.21650536,18.1712418 6.92709381,18.077655 6.62986032,17.8949378 C5.63870956,17.2821669 4.7291304,18.8408333 5.71804632,19.451376" id="Fill-272" fill="#35332D"></path>
                        <path d="M16.1643507,15.8544107 C16.0950707,16.2209591 16.0257908,16.5886216 15.9576282,16.9551701 C15.8671172,17.4331314 16.0906011,17.9278046 16.58897,18.0637284 C17.0292331,18.1851684 17.6102911,17.9155492 17.700802,17.4342455 C17.770082,17.0676971 17.839362,16.7011487 17.908642,16.3334861 C17.9980355,15.8555248 17.7756691,15.3619657 17.2773002,15.2249278 C16.8359196,15.1046019 16.2548617,15.373107 16.1643507,15.8544107" id="Fill-273" fill="#35332D"></path>
                        <path d="M12.9397026,23.4357239 C13.1955916,24.1443099 13.6079193,24.6768635 14.2224998,25.1136021 C14.620301,25.3965908 15.228177,25.1837922 15.4594827,24.7905047 C15.7243111,24.3381683 15.5332324,23.8401527 15.1343138,23.557164 C14.9320609,23.4123272 14.7666829,23.1872731 14.6839939,22.9566484 C14.5174984,22.4987415 14.0682959,22.1901277 13.5710444,22.3271656 C13.127429,22.4486057 12.7732072,22.9755886 12.9397026,23.4357239" id="Fill-274" fill="#35332D"></path>
                        <path d="M29.1925638,16.3369399 C28.9981328,16.6410971 28.8037019,16.9452543 28.609271,17.2505257 C27.9823988,18.2320733 29.5456682,19.1378601 30.1703055,18.160769 C30.3647364,17.8554977 30.5591673,17.5513405 30.7535983,17.2460691 C31.3804704,16.2656357 29.817201,15.3598488 29.1925638,16.3369399" id="Fill-275" fill="#35332D"></path>
                        <path d="M28.439088,23.7261773 C28.6379886,23.9178075 28.7664918,24.1072094 28.8882905,24.3578884 C29.1017176,24.7957411 29.7274723,24.9127246 30.1252735,24.6809858 C30.574476,24.4191655 30.6638695,23.887726 30.4504425,23.4476451 C30.2694206,23.075526 30.0157664,22.7390591 29.7185329,22.4504997 C28.881586,21.6427562 27.6010237,22.9162056 28.439088,23.7261773" id="Fill-276" fill="#35332D"></path>
                        <path d="M26.570875,21.312417 C26.7775975,21.1174444 26.9832027,20.923586 27.1899252,20.7286134 C28.0369289,19.9286688 26.7563666,18.6552194 25.9115977,19.4540499 C25.7048752,19.6479083 25.4992701,19.8428809 25.2914301,20.0378534 C24.4455438,20.837798 25.7261062,22.1112474 26.570875,21.312417" id="Fill-277" fill="#35332D"></path>
                        <path d="M24.48443,12.4342576 C24.8185383,12.2326003 25.1526467,12.030943 25.4856376,11.8292856 C26.4801406,11.2287701 25.5727963,9.6689896 24.5738236,10.2728475 C24.2397152,10.4733907 23.9056069,10.6761622 23.5714986,10.8778195 C22.5769956,11.478335 23.4854573,13.0381155 24.48443,12.4342576" id="Fill-278" fill="#35332D"></path>
                        <path d="M11.3858196,16.5926325 C11.6227124,16.8600235 11.8260827,17.1396698 12.0149266,17.4427129 C12.6283897,18.4264888 14.1938938,17.521816 13.5759611,16.5335837 C13.3077805,16.1024158 13.0004902,15.697987 12.6652645,15.3169549 C12.3412129,14.9526347 11.7154582,14.989401 11.3858196,15.3169549 C11.021541,15.681275 11.061768,16.2260841 11.3858196,16.5926325" id="Fill-279" fill="#35332D"></path>
                        <path d="M16.7476435,9.34043298 C16.5912048,9.84847578 16.5006939,10.3576327 16.4302965,10.8835016 C16.3666036,11.3670335 16.8917906,11.7848319 17.3342885,11.7848319 C17.8762368,11.7848319 18.1745877,11.3681477 18.239398,10.8835016 C18.2863296,10.5236379 18.3846625,10.1660025 18.4919348,9.81950842 C18.833865,8.70760774 17.0884563,8.23187468 16.7476435,9.34043298" id="Fill-280" fill="#35332D"></path>
                        <path d="M19.5285645,24.0047095 C19.8325025,23.7440034 20.1587889,23.5211776 20.5040714,23.317292 C21.5052789,22.7279178 20.5968172,21.1692514 19.5911399,21.7608539 C19.114002,22.0416143 18.6692692,22.3691683 18.250237,22.7290319 C17.8792539,23.0476728 17.9228332,23.6793839 18.250237,24.0047095 C18.6178679,24.371258 19.1575813,24.3233504 19.5285645,24.0047095" id="Fill-281" fill="#35332D"></path>
                        <path d="M16.0078003,29.5024902 C16.4972299,29.5570826 16.9788375,29.5125174 17.4593277,29.4089034 C17.9375831,29.3064035 18.2147031,28.7504532 18.0906696,28.3003451 C17.9554618,27.8079001 17.4570929,27.5672483 16.9788375,27.6708622 C16.6536686,27.7410524 16.3374389,27.7365959 16.0078003,27.6998296 C15.521723,27.6452373 15.1026908,28.1532801 15.1026908,28.6011599 C15.1026908,29.1337136 15.5194881,29.4478979 16.0078003,29.5024902" id="Fill-282" fill="#35332D"></path>
                        <path d="M7.56703974,27.3084361 L8.97387042,27.3084361 C10.1371037,27.3084361 10.1393386,25.5046613 8.97387042,25.5046613 L7.56703974,25.5046613 C6.40268902,25.5046613 6.4015716,27.3084361 7.56703974,27.3084361" id="Fill-283" fill="#35332D"></path>
                        <path d="M22.9195963,28.3236304 C23.4727188,28.6177604 24.0236064,28.769282 24.6426566,28.8428145 C25.1287339,28.9018633 25.5477661,28.3871357 25.5477661,27.9414842 C25.5477661,27.4067023 25.1309687,27.0980886 24.6426566,27.0401539 C24.3588321,27.00673 24.0828296,26.8997736 23.8325277,26.7671923 C22.8045021,26.2223832 21.8904533,27.7777072 22.9195963,28.3236304" id="Fill-284" fill="#35332D"></path>
                        <path d="M10.5903289,1.21999276 C10.4808218,1.80156807 10.4327728,2.3764586 10.4886438,2.96583281 C10.534458,3.4504789 10.8708011,3.86716313 11.3926358,3.86716313 C11.846308,3.86716313 12.3424421,3.45382129 12.2966279,2.96583281 C12.2575182,2.54246381 12.2552834,2.11909481 12.3335027,1.6990682 C12.4240137,1.22110689 12.2005299,0.727547764 11.7021609,0.590509904 C11.2618978,0.470183978 10.6808399,0.738689053 10.5903289,1.21999276" id="Fill-285" fill="#35332D"></path>
                        <path d="M6.0339407,10.3316735 C6.18590971,10.1244455 6.43844643,10.1043912 6.65969541,10.1177607 C7.14689015,10.145614 7.56368748,9.68325045 7.56368748,9.21643043 C7.56368748,8.70504524 7.14912499,8.3418392 6.65969541,8.31398598 C5.75682076,8.26273605 4.99250608,8.7150724 4.47290619,9.42143015 C4.18237722,9.81360354 4.40586104,10.4263745 4.79695774,10.6547709 C5.25509958,10.9221618 5.74341173,10.724961 6.0339407,10.3316735" id="Fill-286" fill="#35332D"></path>
                        <path d="M9.27490313,6.67320829 C10.4392539,6.67320829 10.4403713,4.87054765 9.27490313,4.87054765 C8.11166982,4.87054765 8.10943498,6.67320829 9.27490313,6.67320829" id="Fill-287" fill="#35332D"></path>
                        <path d="M28.9230423,35.9527398 C28.8213571,35.0402681 2.95310444,31.2722841 3.05702442,32.1947828 C4.10516356,41.5434388 5.15442011,50.8909806 6.20255925,60.2385225 C6.22602505,60.4490928 6.32659277,60.6072991 6.45844823,60.7209403 C6.5735424,60.882489 6.75232946,60.9994725 7.01268811,60.9994725 L27.3877084,60.9994725 C27.8894296,60.9994725 28.1095611,60.8947444 28.242534,60.5426797 C28.3475714,60.2463214 28.4123817,59.9042838 28.4391998,59.6335505 C29.2381545,51.7522023 29.8817879,43.8597129 30.3701,35.9527398 C30.4270884,35.0257845 28.9800306,35.0291269 28.9230423,35.9527398" id="Fill-288" fill="#9F7958"></path>
                        <path d="M33.3086888,31.1421538 C32.7455096,30.5405242 31.5833937,30.4346819 29.347438,30.4346819 L5.00111021,30.4346819 C2.72827972,30.4346819 1.67343606,30.4948449 1.1203136,31.0708495 C0.633118861,31.5766641 0.664406596,32.3220164 0.715807876,33.5564712 C0.734804001,34.0244054 0.757152384,34.5736709 0.757152384,35.2187516 L0.753800126,36.1089406 C0.741508516,37.831384 0.734804001,38.7795077 1.31474453,39.3621971 C1.92373795,39.9727398 3.05344868,40.0028213 5.00111021,40.0028213 L29.347438,40.0028213 C31.5398144,40.0028213 32.6203587,39.9771963 33.1868902,39.3945069 C33.6819068,38.88535 33.6595584,38.1355412 33.6182139,36.7763039 C33.6059223,36.3306523 33.589161,35.8159247 33.589161,35.2187516 C33.589161,34.531334 33.6293881,33.9586718 33.6651455,33.4528572 C33.7400126,32.371038 33.7891791,31.6557672 33.3086888,31.1421538" id="Fill-289" fill="#B08F76"></path>
                    </g>
                </g>
            </g>
        </g>
    </g>
</svg>