<?xml version="1.0" encoding="UTF-8"?>
<svg width="105px" height="100px" viewBox="0 0 105 100" version="1.1" xmlns="http://www.w3.org/2000/svg" xmlns:xlink="http://www.w3.org/1999/xlink">
    <!-- Generator: Sketch 51.1 (57501) - http://www.bohemiancoding.com/sketch -->
    <title>Group 2</title>
    <desc>Created with Sketch.</desc>
    <defs>
        <filter x="-34.0%" y="-26.0%" width="168.0%" height="168.0%" filterUnits="objectBoundingBox" id="filter-1">
            <feOffset dx="0" dy="2" in="SourceAlpha" result="shadowOffsetOuter1"></feOffset>
            <feGaussianBlur stdDeviation="2.5" in="shadowOffsetOuter1" result="shadowBlurOuter1"></feGaussianBlur>
            <feColorMatrix values="0 0 0 0 0.180392157   0 0 0 0 0.231372549   0 0 0 0 0.31372549  0 0 0 0.2 0" type="matrix" in="shadowBlurOuter1" result="shadowMatrixOuter1"></feColorMatrix>
            <feMerge>
                <feMergeNode in="shadowMatrixOuter1"></feMergeNode>
                <feMergeNode in="SourceGraphic"></feMergeNode>
            </feMerge>
        </filter>
    </defs>
    <g id="CONVERSATIONS" stroke="none" stroke-width="1" fill="none" fill-rule="evenodd">
        <g id="Conversation-empty-(≥1200px)" transform="translate(-670.000000, -307.000000)">
            <g id="Group-2" transform="translate(670.000000, 307.000000)">
                <circle id="Oval-4" stroke="#FFFFFF" stroke-width="5" fill="#1F9AFF" cx="50" cy="50" r="47.5"></circle>
                <g id="icon" transform="translate(30.000000, 30.000000)">
                    <g id="SVGCleanerId_0" fill="#000000" fill-rule="nonzero">
                        <path d="M20.311875,0.0025 C14.85375,-0.081953125 9.724375,1.99585937 5.86609375,5.84992187 C2.00757813,9.70398437 -0.075,14.8317969 0.0021875,20.2888281 C0.156015625,31.1801562 9.11671875,40.0000781 20.0004688,40 C20.0364063,40 20.0727344,39.9999219 20.1086719,39.9997656 C23.1190625,39.9836719 26.0095313,39.3127344 28.7059375,38.0049219 L33.3654688,38.0049219 C35.6200781,38.0049219 37.4545313,36.170625 37.4545313,33.9158594 L37.4545313,29.7605469 C39.0884375,26.8433594 39.9671875,23.5432031 39.9989844,20.1929687 C40.103125,9.22710937 31.2716406,0.169765625 20.311875,0.0025 Z M35.0560938,28.7697656 C34.9410938,28.9666406 34.8805469,29.190625 34.8805469,29.4186719 L34.8805469,33.9158594 C34.8805469,34.7513281 34.2008594,35.4309375 33.3654687,35.4309375 L28.4053125,35.4309375 C28.2042188,35.4309375 28.0059375,35.4780469 27.82625,35.5685937 C25.4089844,36.7864062 22.8078906,37.4113281 20.0949219,37.4257812 C20.0628906,37.4259375 20.0325781,37.4260156 20.0005469,37.4260156 C10.5182031,37.4260156 2.70992187,29.7410156 2.57585937,20.2525 C2.50867187,15.4973437 4.32320312,11.0291406 7.68507812,7.67101562 C10.9820312,4.3778125 15.3448437,2.5740625 19.9974219,2.5740625 C20.0889063,2.5740625 20.1808594,2.57476562 20.2726563,2.57609375 C29.82125,2.721875 37.5159375,10.6138281 37.4251562,20.1685156 C37.3964063,23.1899219 36.5771875,26.1642187 35.0560938,28.7697656 Z" id="Shape"></path>
                    </g>
                    <path d="M20.311875,0.0025 C14.85375,-0.081953125 9.724375,1.99585938 5.86609375,5.84992187 C2.00757812,9.70398438 -0.075,14.8317969 0.0021875,20.2888281 C0.156015625,31.1801562 9.11671875,40.0000781 20.0004688,40 C23.1190625,39.9836719 26.0095313,39.3127344 28.7059375,38.0049219 L33.3654688,38.0049219 C35.6200781,38.0049219 37.4545313,36.170625 37.4545313,33.9158594 L37.4545313,29.7605469 C39.0884375,26.8433594 39.9671875,23.5432031 39.9989844,20.1929687 C40.103125,9.22710937 31.2716406,0.169765625 20.311875,0.0025 Z" id="Shape" stroke="#FFFFFF" fill="#FFFFFF" fill-rule="nonzero"></path>
                    <g id="More-icon" transform="translate(10.000000, 18.000000)" fill="#1F9AFF" stroke="#1F9AFF" stroke-width="0.3">
                        <path d="M17.5,5 C16.1192881,5 15,3.88071187 15,2.5 C15,1.11928813 16.1192881,0 17.5,0 C18.8807119,0 20,1.11928813 20,2.5 C20,3.88071187 18.8807119,5 17.5,5 Z M10,5 C8.61928813,5 7.5,3.88071187 7.5,2.5 C7.5,1.11928813 8.61928813,0 10,0 C11.3807119,0 12.5,1.11928813 12.5,2.5 C12.5,3.88071187 11.3807119,5 10,5 Z M2.5,5 C1.11928813,5 0,3.88071187 0,2.5 C0,1.11928813 1.11928813,0 2.5,0 C3.88071187,0 5,1.11928813 5,2.5 C5,3.88071187 3.88071187,5 2.5,5 Z" id="Oval-3-Copy-2"></path>
                    </g>
                </g>
                <g id="Group" filter="url(#filter-1)" transform="translate(75.000000, 14.000000)">
                    <circle id="Oval-5" fill="#F15B5B" cx="12.5" cy="12.5" r="12.5"></circle>
                    <path d="M12.1933592,6.39648438 L13.7226561,6.39648438 L13.7226561,19 L11.745117,19 L11.745117,9.46386719 L9.495117,9.46386719 L9.495117,8.11035156 C10.2509764,8.02832317 10.82666,7.84814739 11.2221678,7.56982422 C11.6176756,7.29150105 11.9414032,6.90038776 12.1933592,6.39648438 Z" id="1" fill="#FFFFFF"></path>
                </g>
            </g>
        </g>
    </g>
</svg>