<?xml version="1.0" encoding="UTF-8"?>
<svg width="189px" height="227px" viewBox="0 0 189 227" version="1.1" xmlns="http://www.w3.org/2000/svg" xmlns:xlink="http://www.w3.org/1999/xlink">
    <!-- Generator: Sketch 51.1 (57501) - http://www.bohemiancoding.com/sketch -->
    <title>unicorn 2</title>
    <desc>Created with Sketch.</desc>
    <defs>
        <rect id="path-1" x="0" y="0" width="35.1367393" height="56.1924095"></rect>
        <rect id="path-3" x="0" y="0" width="31.0030053" height="21.505737" rx="1.27272727"></rect>
        <filter x="-22.6%" y="-23.2%" width="145.2%" height="165.1%" filterUnits="objectBoundingBox" id="filter-4">
            <feOffset dx="0" dy="2" in="SourceAlpha" result="shadowOffsetOuter1"></feOffset>
            <feGaussianBlur stdDeviation="2" in="shadowOffsetOuter1" result="shadowBlurOuter1"></feGaussianBlur>
            <feColorMatrix values="0 0 0 0 0   0 0 0 0 0   0 0 0 0 0  0 0 0 0.13 0" type="matrix" in="shadowBlurOuter1"></feColorMatrix>
        </filter>
        <rect id="path-5" x="0" y="23.5869373" width="31.0030053" height="24.9744042" rx="1.27272727"></rect>
        <filter x="-22.6%" y="-20.0%" width="145.2%" height="156.1%" filterUnits="objectBoundingBox" id="filter-6">
            <feOffset dx="0" dy="2" in="SourceAlpha" result="shadowOffsetOuter1"></feOffset>
            <feGaussianBlur stdDeviation="2" in="shadowOffsetOuter1" result="shadowBlurOuter1"></feGaussianBlur>
            <feColorMatrix values="0 0 0 0 0   0 0 0 0 0   0 0 0 0 0  0 0 0 0.13 0" type="matrix" in="shadowBlurOuter1"></feColorMatrix>
        </filter>
    </defs>
    <g id="CONVERSATIONS" stroke="none" stroke-width="1" fill="none" fill-rule="evenodd">
        <g id="Conversation-empty-(≥1200px)" transform="translate(-914.000000, -470.000000)">
            <g id="Illustrations" transform="translate(323.000000, 246.000000)">
                <g id="unicorn-2" transform="translate(549.000000, 182.000000)">
                    <g id="parents-mom" transform="translate(131.345453, 143.261637) rotate(8.000000) translate(-131.345453, -143.261637) translate(17.667767, 15.509571)">
                        <g transform="translate(113.621583, 127.811992) rotate(27.000000) translate(-113.621583, -127.811992) translate(41.084392, 21.712818)">
                            <path d="M63.5700123,183.986168 C63.5700123,183.986168 58.2884237,162.555107 44.259712,161.856312 C34.236882,161.360656 27.573955,167.71075 28.5530802,176.632572 C29.5118917,185.351256 26.3795034,186.769159 20.3097393,186.789473 C20.3097393,186.789473 24.9859766,194.602161 34.7731664,192.960806 C44.7919336,191.274761 43.1708922,183.42957 50.0653966,183.657085 C54.5344331,183.803344 57.707449,187.264816 59.4097456,189.694347 C59.942776,190.457441 60.8638491,190.850369 61.7835687,190.707013 C62.7032882,190.563658 63.4610832,189.909048 63.7365855,189.019928 C64.0941084,187.82954 64.1550498,186.204436 63.5700123,183.986168 Z" id="Shape" fill="#B77EB4" fill-rule="nonzero"></path>
                            <path d="M40.4204034,186.407574 C41.8464323,177.063225 50.7154383,180.54501 53.5674961,178.806149 C55.9198344,177.367932 57.6302565,167.702625 44.6578625,161.884752 C58.38593,162.965446 63.5700123,183.986168 63.5700123,183.986168 C64.1550498,186.204436 64.0941084,187.82954 63.7325227,189.00774 C63.4570205,189.89686 62.6992255,190.55147 61.7795059,190.694825 C60.8597864,190.83818 59.9387133,190.445253 59.4056828,189.682158 C57.707449,187.244502 54.5303703,183.791156 50.0613339,183.644896 C43.6218586,183.433633 44.6091094,190.263133 36.5973459,192.538279 C38.6776723,191.12378 40.0655938,188.898091 40.4204034,186.407574 Z" id="Shape" fill="#D1D3D4" fill-rule="nonzero" style="mix-blend-mode: multiply;"></path>
                            <path d="M44.8569378,165.114646 C44.8569378,165.114646 38.0477513,164.200525 33.7696646,168.413608 C29.4915779,172.62669 32.5020834,182.129487 30.4422638,184.506202 C30.4422638,184.506202 32.745849,184.961231 32.660531,177.502003 C32.575213,170.042775 34.8787982,167.422294 44.8569378,165.114646 Z" id="Shape" fill="#FFFFFF" fill-rule="nonzero"></path>
                            <path d="M94.1747865,171.887268 C94.1747865,171.887268 102.544073,171.907582 105.249871,162.230086 L95.7105099,161.929442 L94.1747865,171.887268 Z" id="Shape" fill="#1F77B9" fill-rule="nonzero"></path>
                            <path d="M96.3239868,153.942055 C96.3239868,153.942055 105.668336,168.624871 118.197889,170.956896 C130.727442,173.28892 124.580485,189.678096 110.511146,182.470759 C96.4418068,175.263422 89.9454529,160.982819 89.9454529,160.982819" id="Shape" fill="#FAC8CA" fill-rule="nonzero"></path>
                            <path d="M98.0506599,155.063377 C103.12911,163.136082 103.714148,161.360656 105.538327,162.457601 C105.538327,162.457601 94.6907571,162.920756 94.4632425,172.114782 C94.4632425,172.114782 91.8793269,170.059026 88.722562,161.640986 C88.1903404,160.21902 88.6006792,158.618292 89.3482271,157.301958 C89.7620345,156.559836 90.2536919,155.863889 90.8148836,155.225887 C92.7203183,153.08075 96.523062,152.637909 98.0506599,155.063377 Z" id="Shape" fill="#00AFEC" fill-rule="nonzero"></path>
                            <path d="M112.042807,183.173616 C125.007075,188.475519 130.260225,173.199539 118.197889,170.956896 L117.791613,170.87564 C114.805484,172.943586 111.368389,176.754455 112.042807,183.173616 Z" id="Shape" fill="#5F2B70" fill-rule="nonzero"></path>
                            <path d="M90.4736118,149.915859 C90.4736118,149.915859 96.5677524,155.197448 99.1069777,168.628934 C101.491818,181.333186 98.964781,198.262708 92.7975107,208.248974 C92.0996279,209.368969 90.9839337,210.164431 89.6976245,210.459115 C87.3875412,211.013363 85.0070833,211.216071 82.6365469,211.060404 C79.9909315,210.851018 77.9805956,208.593421 78.0781297,205.941326 C78.1878243,203.280218 77.9928118,199.920315 76.5667829,198.295211 C76.5667829,198.295211 74.3525784,202.272653 67.7952831,206.3151 C66.3254533,207.224596 64.5460941,207.489076 62.8752802,207.046396 C60.7951469,206.485736 57.9430891,205.323786 55.8345164,202.951134 C54.2700684,201.200992 53.8010916,198.729484 54.6156883,196.52791 C56.8339555,190.547526 61.4655024,174.723075 56.3423615,157.21664 C56.3423615,157.21664 54.7172573,148.814851 67.6083961,144.317376 C80.4995349,139.8199 90.4736118,149.915859 90.4736118,149.915859 Z" id="Shape" fill="#FAC8CA" fill-rule="nonzero"></path>
                            <path d="M94.845142,204.673744 C94.2760277,205.903845 93.6343353,207.099048 92.9234563,208.253036 C92.2277136,209.375831 91.1113194,210.173255 89.8235701,210.467241 C87.5148301,211.021264 85.1357449,211.223973 82.7665553,211.068529 C80.1213213,210.857178 78.1108846,208.601478 78.2040753,205.949451 C78.2040753,205.766627 78.2040753,205.57974 78.2040753,205.392853 C83.599672,207.538176 89.6547243,207.27652 94.845142,204.673744 Z" id="Shape" fill="#5F2B70" fill-rule="nonzero"></path>
                            <path d="M55.078843,195.646291 C59.3650552,202.333594 66.0482961,204.109021 70.6676547,204.462481 C69.8551026,205.067832 68.9369188,205.681309 67.9212287,206.319162 C66.4529912,207.228908 64.6747579,207.493439 63.0052886,207.050459 C60.9210925,206.489798 58.0730974,205.331912 55.960462,202.959259 C54.3953017,201.207848 53.9263293,198.7348 54.7416339,196.531973 C54.8472657,196.259768 54.9691485,195.959123 55.078843,195.646291 Z" id="Shape" fill="#5F2B70" fill-rule="nonzero"></path>
                            <path d="M99.9926594,188.158623 C99.9926594,188.158623 98.8713376,196.438529 97.014656,201.037574 C97.014656,201.037574 73.7919175,210.524119 55.3713617,194.415274 L57.8415201,183.636771 L99.9926594,188.158623 Z" id="Shape" fill="#0082B0" fill-rule="nonzero"></path>
                            <path d="M83.1362665,197.417654 C82.0596349,199.115888 82.2708985,202.138582 82.7299904,204.657493 C83.4749352,204.217405 84.1963811,203.738701 84.891379,203.223339 C86.6294772,203.198796 88.3591432,202.976624 90.0470219,202.561109 C85.1392073,199.973131 83.1362665,197.417654 83.1362665,197.417654 Z" id="Shape"></path>
                            <path d="M56.3586125,157.228828 C56.3586125,157.228828 55.0341526,150.322135 64.4191292,145.666212 C69.0384878,163.302655 81.7955555,170.12403 90.2339089,165.573738 C93.8903933,163.599237 93.7319456,157.919497 92.216536,151.857859 C94.2194769,154.4499 104.811093,169.754319 102.426253,187.317632 C83.3922204,194.309643 64.8091542,187.650778 57.2199177,182.113236 C58.4306203,174.698698 59.3163021,167.35729 56.3586125,157.228828 Z" id="Shape" fill="#00AFEC" fill-rule="nonzero"></path>
                            <path d="M72.8818592,31.2588787 C72.8818592,31.2588787 50.8291956,19.8181453 29.3453185,39.3559602 C7.86144141,58.893775 -0.536284375,79.1303847 7.40641224,95.336736 C15.3491089,111.543087 9.38497657,117.811927 6.59386016,119.526412 C0.0690669271,123.528231 1.71854766,145.454949 21.435124,146.434074 C41.1517003,147.413199 29.3615695,154.965871 29.3615695,154.965871 C29.3615695,154.965871 44.4303479,154.559595 38.7059185,144.845534 C38.7059185,144.845534 40.1238219,140.754335 41.9154992,144.593643 C43.7071766,148.432952 43.191206,151.451583 41.9154992,152.369767 C41.9154992,152.369767 51.974894,153.292013 53.4699899,144.337689 L53.4699899,156.749422 C53.4699899,156.749422 67.9740446,151.585654 67.9943584,147.961672 C68.0146722,144.337689 101.552759,159.459284 111.262757,154.965871 C111.262757,154.965871 107.069988,155.120256 110.186125,141.030602 C113.302263,126.940949 111.262757,140.348059 111.262757,140.348059 C111.262757,140.348059 110.53146,153.060436 118.693546,151.768478 C118.693546,151.768478 114.066062,146.454388 129.41517,134.90396 C144.764279,123.353532 149.594901,100.147044 139.352682,88.7306875 C129.110463,77.3143308 133.77045,59.4016201 124.003574,53.8884542 C114.236697,48.3752883 102.600952,17.4373677 72.8818592,31.2588787 Z" id="Shape" fill="#A975A8" fill-rule="nonzero"></path>
                            <path d="M94.9101461,29.1746826 C94.9101461,29.1746826 82.5024758,18.0183425 65.983292,20.7850823 C49.4641081,23.5518221 47.091456,30.8769792 47.091456,30.8769792 L94.9101461,29.1746826 Z" id="Shape" fill="#A975A8" fill-rule="nonzero"></path>
                            <path d="M117.584412,64.9350998 C117.584412,64.9350998 133.790763,45.2916531 136.845959,28.7399672 C137.285871,26.3207427 136.546901,23.8366662 134.856187,22.0512657 C133.165473,20.2658651 130.725308,19.3927636 128.285723,19.7003253 C120.139888,20.7850823 101.536508,29.9100422 89.8560722,44.0240719" id="Shape" fill="#FAC8CA" fill-rule="nonzero"></path>
                            <path d="M113.635409,60.7829586 C108.760096,52.2267852 101.33337,51.3573545 101.33337,51.3573545 C101.33337,51.3573545 120.143951,31.7464099 127.079083,29.743469 C139.064226,26.2819971 118.872307,57.9715284 113.635409,60.7829586 Z" id="Shape" fill="#FFFFFF" fill-rule="nonzero"></path>
                            <path d="M13.2852266,80.1663886 C15.3166068,65.8776602 24.8681565,55.7898261 35.1916307,48.5174849 C55.9563992,33.8915474 90.0388964,27.0376706 114.537342,48.9684513 C128.050083,61.0673519 136.537189,82.1205763 138.45075,99.1963584 C140.945284,121.472474 127.07502,134.136098 112.274384,143.886723 C110.966175,144.752091 109.649841,145.597145 108.333507,146.454388 C108.536316,146.845501 108.443836,147.324714 108.110055,147.612274 C95.3123594,157.265393 73.6537836,158.512661 57.0086542,152.186943 C43.4715365,147.071927 31.6042133,135.639319 23.3608724,122.6588 C15.1175315,109.67828 11.2985367,94.1747865 13.2852266,80.1663886 Z" id="Shape" fill="#FAC8CA" fill-rule="nonzero"></path>
                            <path d="M22.4751906,58.2518589 C9.62467943,100.833651 45.4094732,112.587217 52.9458938,105.42457 C59.2919256,99.4076219 72.4471438,92.7528204 88.1537756,87.9547003 C103.738525,83.1768941 115.902429,82.2668357 115.902429,82.2668357 C115.902429,82.2668357 127.932263,80.1704513 134.794265,90.9205154 C134.745512,88.6981855 135.77339,90.4086076 136.216231,93.504431 C137.071866,95.3412691 137.737554,97.260737 138.202921,99.2329232 C142.671958,117.616914 128.492924,136.659072 104.075734,146.580333 C103.413504,147.051613 102.747211,147.526956 102.089044,148.010425 C101.949539,148.110334 101.860528,148.266103 101.845278,148.437015 C87.824692,156.253766 65.7232753,156.562536 49.8785097,147.624463 C37.2801512,140.39282 27.0369427,129.678433 20.3788063,116.767797 C8.84056667,94.1747865 11.1116497,73.2109427 22.4751906,58.2518589 Z" id="Shape" fill="#FAC8CA" fill-rule="nonzero" opacity="0.77" style="mix-blend-mode: multiply;"></path>
                            <circle id="Oval" fill="#FFFFFF" fill-rule="nonzero" cx="119.855495" cy="79.9916899" r="16.279481"></circle>
                            <circle id="Oval" fill="#5F2B70" fill-rule="nonzero" cx="120.058633" cy="80.6457943" r="12.5376787"></circle>
                            <circle id="Oval" fill="#793683" fill-rule="nonzero" cx="120.058633" cy="80.6457943" r="7.01232448"></circle>
                            <circle id="Oval" fill="#FFFFFF" fill-rule="nonzero" cx="123.536356" cy="75.3642058" r="4.30246328"></circle>
                            <circle id="Oval" fill="#FFFFFF" fill-rule="nonzero" cx="117.24314" cy="86.0452029" r="1.86074427"></circle>
                            <circle id="Oval" fill="#FFFFFF" fill-rule="nonzero" cx="65.2316813" cy="88.5234868" r="16.279481"></circle>
                            <circle id="Oval" fill="#5F2B70" fill-rule="nonzero" cx="66.0198568" cy="88.8606959" r="12.5376787"></circle>
                            <circle id="Oval" fill="#793683" fill-rule="nonzero" cx="66.0198568" cy="88.8606959" r="7.01232448"></circle>
                            <circle id="Oval" fill="#FFFFFF" fill-rule="nonzero" cx="69.493517" cy="83.5791073" r="4.30246328"></circle>
                            <circle id="Oval" fill="#FFFFFF" fill-rule="nonzero" cx="63.2043638" cy="94.2601045" r="1.86074427"></circle>
                            <path d="M91.1927204,154.16957 C121.545603,149.944299 142.968539,132.486617 142.054418,112.323137 C141.140297,92.1596573 123.032574,92.3709209 123.032574,92.3709209 C123.032574,92.3709209 110.645217,91.3308542 94.0529037,93.5166193 C80.1216982,95.3489243 67.7424672,98.6925761 59.6169464,102.552198 C67.4093209,98.0425344 81.023631,94.1504099 96.6286938,92.2856029 C113.139752,90.3111014 125.51492,91.6071219 125.51492,91.6071219 C125.51492,91.6071219 143.569828,91.7086909 144.837409,112.676597 C146.10499,133.644504 125.047703,151.40283 94.8654558,155.254327 C85.7079938,156.420339 78.480343,155.93687 72.6990349,154.466151 C77.7815482,155.197448 83.8635006,155.197448 91.1927204,154.16957 Z" id="Shape" fill="#FAC8CA" fill-rule="nonzero"></path>
                            <path d="M47.6277404,53.4131112 C47.6277404,53.4131112 27.9274151,34.4887732 10.4697336,29.8775401 C7.91611936,29.2006272 5.19277719,29.7860792 3.14294821,31.4526199 C1.09311922,33.1191606 -0.0358413639,35.6656866 0.105631771,38.3037052 C0.609414063,47.1036443 8.86088047,67.74653 23.011475,81.3689657" id="Shape" fill="#FAC8CA" fill-rule="nonzero"></path>
                            <path d="M42.8661852,57.2849219 C33.3146354,61.8148998 31.7870375,69.696655 31.7870375,69.696655 C31.7870375,69.696655 12.3304779,47.9893261 10.7541268,40.4082151 C8.01988907,27.3058128 40.2822696,51.4711117 42.8661852,57.2849219 Z" id="Shape" fill="#FFFFFF" fill-rule="nonzero"></path>
                            <path d="M125.51492,91.6111847 C125.51492,91.6111847 143.569828,91.7086909 144.837409,112.676597 C146.10499,133.644504 125.047703,151.40283 94.8654558,155.254327 C64.6832086,159.105824 55.3388597,145.077112 50.1750912,136.34624 C43.0449466,124.271716 46.6201758,111.023054 58.1177878,103.474445 C65.5770159,98.5788188 79.9713761,94.2763555 96.6286938,92.2856029 C113.139752,90.3111014 125.51492,91.6111847 125.51492,91.6111847 Z" id="Shape" fill="#FAC8CA" fill-rule="nonzero"></path>
                            <path d="M129.906764,107.947544 C129.906764,107.947544 128.728564,103.007228 125.779,102.25968 C122.829436,101.512132 124.125456,104.981729 125.421477,105.245809 C126.717497,105.509888 128.675748,106.115239 129.906764,107.947544 Z" id="Shape" fill="#000000" fill-rule="nonzero"></path>
                            <path d="M80.4873467,112.095623 C80.4873467,112.095623 80.5239115,107.017172 83.2337727,105.631771 C85.9436339,104.24637 85.4561027,107.915042 84.2494628,108.475703 C83.042823,109.036364 81.2755222,110.035803 80.4873467,112.095623 Z" id="Shape" fill="#000000" fill-rule="nonzero"></path>
                            <path d="M78.9150584,32.6970959 C79.1669495,28.8821638 81.8483714,25.6685203 85.6958055,24.4009391 C90.36798,22.8611529 97.9937813,22.4548768 107.967858,29.1137412 C125.291469,40.6722946 123.861377,60.6692013 123.861377,60.6692013 C113.891363,29.3696951 89.8195073,30.4178873 78.9150584,32.6970959 Z" id="Shape" fill="#B77EB4" fill-rule="nonzero"></path>
                            <path d="M78.9150584,32.6970959 C89.8195073,30.4178873 113.891363,29.3696951 123.861377,60.6692013 C123.861377,60.6692013 112.87161,41.0826334 92.7000045,41.5539136 C81.7752417,41.8058047 79.0816316,37.6008477 78.8866191,33.6884094 C78.8906818,33.355263 78.8947446,33.0221167 78.9150584,32.6970959 Z" id="Shape" fill="#B77EB4" fill-rule="nonzero"></path>
                            <path d="M78.9150584,32.6970959 C89.8195073,30.4178873 113.891363,29.3696951 123.861377,60.6692013 C123.861377,60.6692013 112.87161,41.0826334 92.7000045,41.5539136 C81.7752417,41.8058047 79.0816316,37.6008477 78.8866191,33.6884094 C78.8906818,33.355263 78.8947446,33.0221167 78.9150584,32.6970959 Z" id="Shape" fill="#A86CA5" fill-rule="nonzero"></path>
                            <path d="M69.5503956,34.882861 C69.5788349,30.5763349 72.7599763,27.1879927 77.2696404,26.2779344 C82.3237144,25.2581815 90.453298,25.725399 100.703643,33.5909031 C109.148805,39.9666852 114.603067,49.5325759 115.788672,60.047599 C115.878777,60.9480651 115.362358,61.7995439 114.522186,62.1358012 C113.682014,62.4720584 112.720729,62.2119924 112.16469,61.4980045 C107.354381,55.1194706 97.9450282,45.6247995 83.822873,44.4140969 C72.1708761,43.4146578 69.5300818,38.8562406 69.5503956,34.882861 Z" id="Shape" fill="#B77EB4" fill-rule="nonzero"></path>
                            <path d="M54.8472657,36.2479485 C52.3283542,33.4040162 48.2412172,32.9977401 44.6903646,34.9925555 C40.7291732,37.2473875 35.5816557,42.2811477 33.3146354,53.4781154 C31.3949655,62.628519 33.3176891,72.1657573 38.6327888,79.8576188 C39.0916088,80.5155757 39.9325254,80.7873491 40.6896287,80.522363 C41.446732,80.2573768 41.9346277,79.5205191 41.8829972,78.7200459 C41.3873404,71.6752193 42.1592649,59.8688375 50.8576349,50.873886 C58.0609091,43.4715365 57.1711646,38.8806172 54.8472657,36.2479485 Z" id="Shape" fill="#B77EB4" fill-rule="nonzero"></path>
                            <path d="M55.4404287,37.0076847 L50.1588401,50.8616977 L49.6306813,50.9835805 L49.6834972,52.1739693 C49.6834972,52.1739693 40.8551188,61.3476823 41.9114365,78.7200459 C41.9114365,78.7200459 42.00488,79.8657443 41.2167044,78.5859748 C34.8706727,45.5029167 55.4404287,37.0076847 55.4404287,37.0076847 Z" id="Shape" fill="#A86CA5" fill-rule="nonzero"></path>
                            <path d="M64.2728698,32.067368 C61.4858162,29.4712641 57.3661771,29.4631386 54.0509646,31.8154768 C50.3335388,34.4481456 45.701992,39.9409977 44.5522308,51.3167269 C43.5369382,60.6102137 46.3869444,69.912399 52.433986,77.0421258 C52.952703,77.6616362 53.822495,77.8561751 54.5557062,77.5166726 C55.2889173,77.1771702 55.7032373,76.3880426 55.5663742,75.5917204 C54.3800482,68.6322118 53.9859604,56.8055162 61.7620839,46.9980125 C68.1731198,38.9212448 66.8405344,34.4603339 64.2728698,32.067368 Z" id="Shape" fill="#B77EB4" fill-rule="nonzero"></path>
                            <path d="M64.9350998,32.7661628 L61.0511008,47.0670795 L60.539193,47.2458409 L60.7098289,48.4199787 C60.7098289,48.4199787 52.8158854,58.3981183 55.5663742,75.6039086 C55.5663742,75.6039086 55.7695123,76.7374188 54.8594539,75.5389045 C45.2957159,43.2440219 64.9350998,32.7661628 64.9350998,32.7661628 Z" id="Shape" fill="#A86CA5" fill-rule="nonzero"></path>
                            <path d="M70.9886128,29.8044104 C67.9415425,28.6262099 64.6669576,29.9262932 62.7655857,32.8596063 C60.640762,36.1382539 58.7028253,42.00488 61.4086237,51.4223586 C63.5598856,59.1480986 68.7886966,65.6517993 75.8720508,69.4122618 C76.4825322,69.7427077 77.2389218,69.621268 77.7152804,69.1163279 C78.191639,68.6113877 78.2688487,67.8492122 77.903431,67.2589987 C74.7547917,62.0911675 70.6920313,52.8158854 73.7431644,42.5086623 C76.2783269,34.0256185 73.7959802,30.8769792 70.9886128,29.8044104 Z" id="Shape" fill="#B77EB4" fill-rule="nonzero"></path>
                            <path d="M71.7361607,30.1538078 L73.1946917,42.7808672 L72.8452943,43.0855742 L73.3531394,43.9671933 C73.3531394,43.9671933 70.2329394,54.4328641 77.903431,67.2589987 C77.903431,67.2589987 78.4275271,68.0959274 77.3224563,67.4296347 C59.4300594,44.7472433 71.7361607,30.1538078 71.7361607,30.1538078 Z" id="Shape" fill="#A86CA5" fill-rule="nonzero"></path>
                            <path d="M96.9171498,50.211656 C96.9171498,50.211656 93.3378579,1.3447737 85.0863915,0.329083594 C77.9318704,-0.552535417 73.4059552,39.5712865 72.3171355,50.2279071 C72.1000808,52.3199636 72.9138306,54.3869185 74.4988378,55.7695123 C76.2864524,57.3133612 79.175075,58.9019006 83.5587935,58.9831558 C92.2246615,59.1456662 97.5062501,56.8786459 96.9171498,50.211656 Z" id="Shape" fill="#FBB35A" fill-rule="nonzero"></path>
                            <path d="M96.9902795,47.871506 C96.9902795,47.871506 81.6614844,54.0347136 73.5359636,39.7012948" id="Shape"></path>
                            <path d="M75.8192349,24.283119 C75.8192349,24.283119 80.5117232,38.0721279 95.5561251,36.3982706" id="Shape"></path>
                            <path d="M93.9269581,24.5797005 C93.9269581,24.5797005 83.7700571,27.1595534 77.9521842,13.8865151" id="Shape"></path>
                            <path d="M91.4730508,12.3020385 C91.4730508,12.3020385 83.262212,17.5836271 80.0566941,6.70761745" id="Shape"></path>
                            <path d="M84.5501071,0.962874219 C84.5501071,0.962874219 82.3034006,11.6113693 89.4254196,12.0582729 C89.4254196,12.0582729 83.7781826,15.9300836 80.3573383,7.58923646 C80.3410873,7.5851737 81.9377521,-0.77192448 84.5501071,0.962874219 Z" id="Shape" fill="#CD944A" fill-rule="nonzero"></path>
                            <path d="M80.2110789,9.4946711 C80.2110789,9.4946711 80.6620454,22.3451823 93.3297323,24.6853323 C93.3297323,24.6853323 82.9981326,25.436943 78.2528284,14.8575149 L80.2110789,9.4946711 Z" id="Shape" fill="#CD944A" fill-rule="nonzero"></path>
                            <path d="M78.0375021,16.7426357 C78.0375021,16.7426357 81.2430201,35.4638357 94.0041506,36.0448104 C94.0041506,36.0448104 83.8675633,38.5434081 76.4002097,26.1560516 L78.0375021,16.7426357 Z" id="Shape" fill="#CD944A" fill-rule="nonzero"></path>
                            <path d="M76.1280047,27.6795867 C76.1280047,27.6795867 77.6718537,50.126338 95.0198407,48.4768573 C95.0198407,48.4768573 80.2395183,52.4949274 73.8284823,40.6682318 L76.1280047,27.6795867 Z" id="Shape" fill="#CD944A" fill-rule="nonzero"></path>
                            <path d="M72.4065162,52.0480237 C72.4065162,52.0480237 74.3119508,62.0627282 92.8543894,57.6952607 C92.8543894,57.6952607 76.9121175,58.6987625 73.9178631,42.2852104 L72.4065162,52.0480237 Z" id="Shape" fill="#CD944A" fill-rule="nonzero"></path>
                            <path d="M84.9116928,2.07200781 C84.9116928,2.07200781 87.6906209,2.20201615 89.2060305,11.3513526 C89.2060305,11.3513526 88.2025287,12.2329716 87.8206292,8.57648724 C87.4387297,4.92000287 85.992387,3.16082761 85.1635839,2.88862266 C84.3347808,2.61641771 84.9116928,2.07200781 84.9116928,2.07200781 Z" id="Shape" fill="#FFFFFF" fill-rule="nonzero"></path>
                            <path d="M90.2217206,14.6787534 C90.2217206,14.6787534 91.8833896,21.8332745 91.3796073,22.9464708 C90.875825,24.0596672 89.5798045,14.8778287 89.5798045,14.8778287 C89.5798045,14.8778287 90.0429592,13.8662013 90.2217206,14.6787534 Z" id="Shape" fill="#FFFFFF" fill-rule="nonzero"></path>
                            <path d="M92.3384188,26.7167125 C92.3384188,26.7167125 93.7522594,33.9484261 92.8747032,35.1753797 C91.9971469,36.4023334 91.3836701,27.013294 91.3836701,27.013294 C91.3836701,27.013294 92.1880967,25.8960349 92.3384188,26.7167125 Z" id="Shape" fill="#FFFFFF" fill-rule="nonzero"></path>
                            <path d="M93.2403516,38.5515336 C93.2403516,38.5515336 94.369799,46.9289456 92.6146865,46.8070628 C91.3958584,46.7217448 91.741193,41.1191982 91.8549503,39.1284456 C91.8869355,38.6540077 92.2425823,38.2646502 92.7121928,38.1899479 C92.9762722,38.1371321 93.2119123,38.1899479 93.2403516,38.5515336 Z" id="Shape" fill="#FFFFFF" fill-rule="nonzero"></path>
                            <path d="M92.8462639,50.6748107 C93.1023023,50.6211192 93.3688207,50.6878608 93.5693376,50.8558829 C93.7698546,51.023905 93.8822027,51.2746326 93.8741422,51.5361159 C93.9188326,53.0434 93.8741422,55.9645248 92.4968665,55.9767131 C91.1195907,55.9889013 92.0052724,52.6168102 92.3059167,51.2720365 C92.3599832,50.9965291 92.5565254,50.7705828 92.8218873,50.6788735 L92.8462639,50.6748107 Z" id="Shape" fill="#FFFFFF" fill-rule="nonzero"></path>
                            <path d="M115.703354,123.548544 L91.2455362,125.795251 C91.2455362,125.795251 94.2722928,139.868653 104.973604,138.885465 C115.674915,137.902277 115.703354,123.548544 115.703354,123.548544 Z" id="Shape" fill="#4E1E5D" fill-rule="nonzero"></path>
                            <path d="M112.258133,134.018278 C110.7671,136.362491 108.455389,138.296365 104.863909,138.625448 C98.8997769,139.173921 95.4667443,134.753638 93.6588159,131.052463 C103.08442,129.79707 108.922607,131.893454 112.258133,134.018278 Z" id="Shape" fill="#BD2232" fill-rule="nonzero"></path>
                            <path d="M110.572088,124.239214 C110.433954,125.583987 109.154184,126.729686 107.504703,126.880008 L99.9114042,127.570677 C98.2619235,127.720999 96.795267,126.831255 96.4133675,125.539297 L110.572088,124.239214 Z" id="Shape" fill="#FFFFFF" fill-rule="nonzero"></path>
                            <path d="M57.2199177,182.13355 C57.2199177,182.13355 59.0603482,173.386426 58.2315451,166.353788 C58.2315451,166.353788 63.0865438,164.919634 64.7644638,162.575421 C64.7644638,162.575421 61.9205315,182.807968 68.1446805,187.516707 C68.1446805,187.516707 60.8723394,185.46095 57.2199177,182.13355 Z" id="Shape" fill="#0097CA" fill-rule="nonzero"></path>
                            <path d="M69.3188183,151.99193 C69.3188183,151.99193 75.1610677,167.982955 68.1446805,178.887404 L66.6820868,178.887404 C66.6820868,178.887404 74.1169383,169.445549 67.8237224,151.99193 L69.3188183,151.99193 Z" id="Shape" fill="#515254" fill-rule="nonzero"></path>
                            <path d="M57.1020977,162.67699 C57.7724532,163.420475 55.5501232,171.911644 58.4753107,178.887404 L59.6169464,177.883902 C59.6169464,177.883902 58.0649719,173.894271 58.2681099,163.843002 L57.1020977,162.67699 Z" id="Shape" fill="#515254" fill-rule="nonzero"></path>
                            <path d="M71.1511232,178.887404 C71.1511232,178.887404 61.2867409,174.755577 54.2337888,178.143919 C54.2337888,178.143919 51.5158021,184.672775 51.9220782,190.3322 L66.6820868,193.71648 C66.6820868,193.71648 71.9758636,191.148815 71.1511232,178.887404 Z" id="Shape" fill="#515254" fill-rule="nonzero"></path>
                            <path d="M71.1511232,178.887404 L66.6820868,186.468515 L53.6284375,184.855599 C53.6284375,184.855599 53.3034167,181.255993 54.2500399,178.156107 C54.2337888,178.143919 60.2060466,175.023719 71.1511232,178.887404 Z" id="Shape" fill="#7E8083" fill-rule="nonzero"></path>
                            <path d="M58.097474,153.816109 C64.1916146,152.686662 65.4632586,149.753349 66.9867938,148.258253 C66.9867938,148.258253 66.9867938,148.408575 66.96648,148.664529 L67.1249276,148.13637 C67.6815258,148.461391 68.1934336,148.790475 68.6769021,149.127684 C72.5730894,146.45845 76.4367745,142.883221 78.5737865,138.345118 L78.5737865,138.320741 C78.6509789,138.154168 78.7322342,137.987595 78.8175521,137.829147 C78.8459914,137.772269 78.8784935,137.719453 78.9069329,137.666637 C78.9353722,137.613821 79.0247529,137.447248 79.0856943,137.345679 L79.1953888,137.162855 L79.361962,136.886587 L79.4879076,136.703763 L79.6544808,136.459997 L79.7844891,136.285298 C79.8413678,136.212169 79.8941836,136.134976 79.9510623,136.065909 L80.0891961,135.899336 L80.2598321,135.696198 C80.3085852,135.643382 80.3532756,135.590566 80.4020287,135.541813 C80.4507818,135.49306 80.515786,135.411805 80.5767274,135.354926 L80.7229868,135.212729 C80.7798654,135.151788 80.8408068,135.094909 80.9017482,135.038031 L81.0480076,134.908022 L81.2308318,134.753638 L81.381154,134.635818 C81.4420954,134.587064 81.5030368,134.538311 81.5680409,134.493621 L81.7183631,134.383926 L81.9093128,134.257981 L82.0636977,134.164537 L82.2546474,134.05078 L82.4130951,133.965462 L82.6040448,133.867956 L82.7624925,133.794826 L82.957505,133.709508 L83.1159526,133.648567 L83.3109651,133.5795 L83.4734756,133.526684 L83.6684881,133.469805 L83.8309985,133.429178 L84.026011,133.384487 L84.1885214,133.351985 L84.3835339,133.323546 L84.5460443,133.299169 L84.7369941,133.299169 L84.9035672,133.299169 L85.4398516,133.299169 L85.6145503,133.299169 L85.7811235,133.299169 L85.9639477,133.299169 L86.1142698,133.323546 L86.3092823,133.356048 L86.4311652,133.384487 L86.6505542,133.437303 L86.7114956,133.437303 C87.3514444,133.608984 87.959283,133.883403 88.5112985,134.249855 L88.7753779,134.440805 L88.7956917,134.440805 C88.8810097,134.505809 88.9663277,134.570813 89.0475829,134.63988 L89.0719594,134.660194 L89.3116623,134.87552 L89.3319761,134.87552 C89.4132313,134.94865 89.486361,135.025843 89.5635534,135.107098 L89.5838672,135.127412 C89.6610597,135.204604 89.7341894,135.289922 89.8032563,135.371177 L89.8032563,135.391491 C89.876386,135.476809 89.9454529,135.56619 90.0145198,135.65557 C90.0835868,135.749014 90.1526537,135.838395 90.2176579,135.935901 C90.2867248,136.033407 90.3476662,136.130913 90.4086076,136.22842 C90.469549,136.334051 90.5304904,136.43562 90.5873691,136.541252 C91.9930842,139.169858 91.911829,143.041669 88.7591269,147.250689 C88.434106,147.681341 88.0806459,148.116057 87.6906209,148.554835 C84.0411462,152.560258 79.690188,155.864783 74.852298,158.30546 C74.9196765,158.796818 74.9332995,159.294057 74.8929256,159.788367 C74.8929256,159.788367 66.6292709,164.541797 62.0952302,164.505232 C60.572326,164.481996 59.1170697,163.872244 58.0324698,162.802936 C57.4253604,162.211792 56.8807829,161.55966 56.4073657,160.856873 C54.8228891,158.472033 55.2738555,154.336143 58.097474,153.816109 Z" id="Shape" fill="#FAC8CA" fill-rule="nonzero" opacity="0.39" style="mix-blend-mode: multiply;"></path>
                            <path d="M74.2510094,162.335718 C74.2510094,162.335718 76.0670633,155.814988 68.254375,149.509583 L64.1916146,158.171389 L74.2510094,162.335718 Z" id="Shape" fill="#1F77B9" fill-rule="nonzero"></path>
                            <path d="M56.7608258,154.941494 C56.7608258,154.941494 73.9341141,152.121938 81.0033172,141.534385 C88.0725204,130.946831 100.728019,143.009167 88.5681771,153.12544 C76.4083352,163.241714 60.7220172,163.578923 60.7220172,163.578923" id="Shape" fill="#FAC8CA" fill-rule="nonzero"></path>
                            <path d="M58.4671852,153.795796 C64.6750831,153.580469 66.3530032,150.85842 68.0796763,149.615215 C68.0796763,149.615215 65.8898485,158.508598 74.2510094,162.335718 C74.2510094,162.335718 65.3129365,165.671244 60.8439,164.956199 C59.3501413,164.705382 58.0102398,163.88922 57.1020977,162.67699 C56.5821304,162.003186 56.1354153,161.275911 55.7695123,160.507476 C54.5466214,157.915435 55.6029391,153.893302 58.4671852,153.795796 Z" id="Shape" fill="#00AFEC" fill-rule="nonzero"></path>
                            <path d="M89.8154446,151.99193 C99.7895214,142.155987 87.8125037,131.320605 81.0033172,141.526259 C80.9301875,141.635954 80.8529951,141.749711 80.7717399,141.859406 C81.4949112,145.446823 83.652237,150.082433 89.8154446,151.99193 Z" id="Shape" fill="#5F2B70" fill-rule="nonzero"></path>
                            <path d="M35.4191453,42.1430138 C35.2478609,41.7977396 35.0946239,41.4438028 34.9600534,41.0826334 C34.0294254,39.8272028 33.3405704,38.4095392 32.9286732,36.9020529 C32.5223972,35.0941245 33.1480623,32.7499117 35.3663294,32.7377235 C37.6861656,32.7377235 38.8765544,35.8010448 39.4859685,37.613036 L39.9938136,39.1243828 C40.6601063,36.3129526 42.9108755,31.405138 46.5795482,32.083619 C47.3814618,32.1785002 48.1052331,32.6098088 48.5703008,33.2699451 C49.6723206,33.8365392 50.290204,35.042883 50.1060242,36.2682623 C49.9313255,37.9543078 48.448418,39.579412 47.5464852,40.8916836 C46.8680042,41.8829972 46.193586,42.8743107 45.515105,43.8574987 C46.6789565,42.7862181 48.0136796,41.9170003 49.4641081,41.2857714 C52.3283542,40.0466294 56.7770769,39.4047133 59.4625615,41.427968 C61.4411258,42.9271266 61.4695651,45.515105 59.0928503,46.6486151 C57.3133612,47.4977321 55.0910313,47.0142636 53.2099732,47.2742802 C51.4231264,47.4881639 49.7121891,48.1215866 48.2168407,49.1228362 C54.0834667,47.7171211 61.5589459,50.3416644 62.1358578,56.6755078 C62.473067,60.3319922 58.962842,62.0667909 55.875144,60.4579378 C53.9047052,59.4300594 52.8687013,57.4149302 51.2029696,56.0417172 C48.940012,54.1809729 46.0351383,54.4166131 43.3699675,53.7137555 L43.2074571,53.7665714 C48.0827696,54.5791235 57.1345998,61.7173935 53.6812534,67.2305594 C50.3944802,72.4796459 46.5957992,65.6704594 44.3125279,60.539193 C45.12508,65.9670409 44.751306,72.1058719 40.5422862,71.0008011 C37.426149,70.188249 36.8289232,66.5073881 37.1498813,63.8015896 C37.3083289,62.4608787 37.5074042,61.1120422 37.7877347,59.7875823 C37.2108227,60.7017034 36.6339107,61.5833224 36.1098146,62.3999373 C34.8909865,64.2769326 32.5467737,66.1945555 30.2553768,64.7035224 C25.9488508,61.8920922 30.3081927,56.9842776 34.3628276,53.4984292 C33.4777441,53.8005601 32.5755963,54.0501769 31.6610919,54.2459771 C29.7109669,54.6522532 24.9697255,55.7938888 23.8605919,53.3562326 C22.332994,50.0125808 27.1108003,48.6881209 31.7098451,48.074644 C28.4149464,47.4246024 25.5466375,45.7629334 25.5791396,42.4883485 C25.5953906,38.1574459 31.2832552,40.0588177 35.4191453,42.1430138 Z" id="Shape" fill="#99D8E2" fill-rule="nonzero"></path>
                            <path d="M42.6874237,42.496474 C42.9166818,42.5242818 43.1054354,42.689818 43.1629244,42.9134864 C43.2204135,43.1371548 43.1348755,43.3731917 42.9474404,43.5081013 C42.9474404,43.5081013 42.9799425,43.5081013 42.9961935,43.5081013 C43.2106101,43.6489856 43.3563027,43.8731538 43.3979801,44.1263057 C43.4396576,44.3794576 43.3735181,44.6385006 43.2155826,44.8406867 C42.8093065,45.3404063 42.0901979,45.2469628 41.6392315,44.8894399 C41.169311,44.5038443 41.0131583,43.8527795 41.2570531,43.295981 C41.5009478,42.7391825 42.0853771,42.4125152 42.6874237,42.496474 Z" id="Shape" fill="#FCBA6B" fill-rule="nonzero"></path>
                            <path d="M37.5195925,44.2840886 C37.7080379,44.3521932 37.8448441,44.5169825 37.8771154,44.7147412 C37.8765634,44.7870501 37.8627944,44.8586486 37.8364878,44.9260047 C38.3350817,45.127139 38.634279,45.6402876 38.5637219,46.1732722 C38.4959872,46.5139555 38.2861123,46.809554 37.9868099,46.9858242 C38.200605,46.9527934 38.417755,47.0194734 38.5761685,47.166798 C38.734582,47.3141226 38.816818,47.5258715 38.799362,47.7414977 C38.8960409,47.7419672 38.9915442,47.7627288 39.0796925,47.8024391 C38.8924564,47.5240454 38.7689898,47.2077489 38.7181068,46.8761297 C38.6965213,46.6428994 38.8636007,46.4344993 39.0959435,46.4048495 C39.0350021,46.2382763 38.9699979,46.0676404 38.9253076,45.8929417 C38.8806172,45.718243 39.0309393,45.6085485 39.189387,45.616674 C39.477843,44.8041219 40.3228972,44.6619253 41.0623196,45.0722641 C41.235078,45.1767675 41.3406325,45.3639824 41.3406325,45.5658895 C41.3406325,45.7677965 41.235078,45.9550115 41.0623196,46.0595149 C41.1930475,46.1970449 41.2781723,46.3715507 41.3060852,46.5592344 C41.3856125,46.9818985 41.1220128,47.3933278 40.7047966,47.4977321 C40.8916836,47.8390039 41.0745078,48.1843386 41.2573321,48.533736 C41.4401563,48.8831334 41.6636081,49.2772211 41.8464323,49.6550578 C42.0727752,49.1968671 42.2367427,48.7104301 42.3339636,48.2087151 C42.3921992,47.8049711 42.4234164,47.3977898 42.4274071,46.989887 C42.3727192,46.5699662 42.3919693,46.1437132 42.4842857,45.7304313 C42.5256592,45.6284958 42.6169398,45.5553113 42.7254324,45.5370912 C42.833925,45.518871 42.9441048,45.5582225 43.0165073,45.6410505 C43.5568545,46.1773349 43.5040386,47.2255271 43.3537164,48.0137026 C43.4901775,48.6309172 43.5258493,49.2661487 43.4593482,49.8947607 C43.4593482,50.0125808 43.4309089,50.126338 43.4146578,50.2441581 C43.7564803,49.8115612 44.0673753,49.3554009 44.34503,48.8790706 C44.6332594,48.3122971 44.884326,47.7273796 45.0966406,47.1280209 C44.5806701,46.7217448 44.3287789,45.8807534 44.8041219,45.3647828 C44.9238734,45.2113398 45.1262067,45.1482118 45.311967,45.2063352 C45.632925,45.3038414 45.5679209,45.6126112 45.5597953,45.8726279 C45.5543436,45.9745045 45.5681264,46.0764966 45.6004229,46.1732722 C45.6247995,46.1407701 45.6369878,46.1042052 45.6613643,46.0757659 C45.746614,45.9602552 45.8921256,45.9061193 46.0321441,45.9378216 C46.1721627,45.9695239 46.2801639,46.0810589 46.3073433,46.2220253 C46.3093633,46.2436463 46.3093633,46.2654085 46.3073433,46.2870295 C46.4856545,46.1421374 46.5813486,45.9188512 46.5632972,45.6898037 C46.5613158,45.668722 46.5731691,45.6487717 46.5926316,45.6404306 C46.6120941,45.6320895 46.6347155,45.637265 46.6486151,45.6532388 C46.851036,45.9075922 46.9261358,46.2404986 46.8525207,46.5571225 C46.7789057,46.8737463 46.5646461,47.1393767 46.2707784,47.278343 C45.9736368,48.4773456 45.3621817,49.5754404 44.4994149,50.4594844 C44.6131722,50.4594844 44.7228667,50.4188568 44.8447495,50.4066685 C45.6369878,50.3172878 46.7908117,50.4066685 47.4896065,50.8779487 C47.9405729,50.3254133 48.838443,50.0653966 48.9725141,50.8251328 C48.9944562,50.966373 48.8982802,51.0988417 48.7571878,51.1217144 C48.6718698,51.1217144 48.5540498,51.1217144 48.4768573,51.1217144 C48.2493427,51.0485847 48.1477737,51.1217144 48.1721503,51.3492289 C48.1210435,51.4123592 48.1060524,51.4973598 48.1324798,51.5741644 C48.1589072,51.6509689 48.2230269,51.7087486 48.3021586,51.7270657 C48.635305,52.0561492 49.4397315,51.8083209 49.7972545,51.6458104 C49.906949,51.5929946 49.9882042,51.7230029 49.9353883,51.8123836 C49.602242,52.4136722 49.1228362,52.824011 48.4118532,52.7346302 C47.89222,52.6716956 47.4571389,52.3112451 47.2986568,51.8123836 C46.5939848,52.0236951 45.8645273,52.1411732 45.1291427,52.161781 L44.1906451,52.2552245 C45.0252011,52.7122702 45.6702599,53.4509202 46.0107617,54.3394206 C46.1345252,54.4536624 46.1989361,54.6184345 46.1854604,54.7863242 C46.2382763,54.9407091 46.2829667,55.0910313 46.3195315,55.2454162 C46.7594041,55.4776259 46.977681,55.9852465 46.8436276,56.4642443 C46.6648662,57.2036667 45.7913727,57.4474323 45.141331,57.1833529 C44.5039697,56.915043 44.1062175,56.2727711 44.1500175,55.5826253 C44.1697501,55.4660461 44.2010526,55.3517238 44.243461,55.2413534 C44.0130584,54.655602 43.6831861,54.1140615 43.2683985,53.6406258 C43.2683985,53.7421948 43.2683985,53.8437638 43.2683985,53.9453328 C43.2683985,54.9894623 42.8621224,55.6395039 42.1430138,56.3382987 C42.0437279,56.4394167 41.8862399,56.4548232 41.7692399,56.3748636 C41.7937755,56.7053974 41.7437934,57.0372229 41.6229805,57.3458633 C41.5122795,57.6131936 41.2408379,57.7777037 40.952625,57.7521394 C39.5062823,57.6018172 39.0471904,55.6070019 40.4935331,55.0382154 C40.6537927,54.96221 40.8401068,54.9641478 40.9987509,55.0434698 C41.1573951,55.1227919 41.2707337,55.2706805 41.3060852,55.4444914 C41.3923737,55.4209401 41.4847248,55.4406214 41.5539136,55.4973073 C41.5307076,55.3072609 41.5198508,55.1159097 41.5214115,54.9244581 C41.5214115,54.5466214 41.5945412,54.1687847 41.6270433,53.7868852 C41.6676709,53.2871657 41.6270433,52.7833834 41.6798591,52.2877266 C41.6368601,52.3183889 41.5862685,52.336658 41.5335998,52.3405425 C41.054194,52.3161659 40.5260352,52.3405425 39.9938136,52.3161659 C39.9252517,52.5805906 39.6817369,52.7615356 39.4087761,52.7508813 C39.5268903,53.33586 39.2627656,53.9316574 38.7499821,54.2369509 C38.2371986,54.5422445 37.5875395,54.4904825 37.1295675,54.1078433 C36.4109746,53.5069838 36.2384148,52.4716247 36.7232914,51.670187 C37.4098979,50.6910617 38.8765544,50.8129446 39.7256714,51.4792373 C40.3675875,51.5564297 41.0135664,51.6823753 41.5945412,51.7433167 C41.6654555,51.7520543 41.7306034,51.7867998 41.7773654,51.8408229 C41.7773654,51.8042581 41.7773654,51.7676933 41.8017419,51.7270657 C41.8228104,51.6672737 41.8627331,51.6159445 41.9154992,51.5808063 C41.7709685,51.4049057 41.6353721,51.2218504 41.5092232,51.0323336 C41.4449141,51.0338906 41.3843245,51.0022643 41.3488324,50.9486136 C41.3133404,50.8949629 41.3079354,50.8268298 41.3345245,50.7682542 C41.3332823,50.7574558 41.3332823,50.7465505 41.3345245,50.7357521 C40.5379685,50.7797533 39.7391807,50.7607346 38.9456214,50.6788735 C38.4300331,50.647168 37.9170468,50.5820268 37.4098979,50.483861 C37.3993582,50.6126318 37.3605144,50.7374869 37.2961406,50.8495094 C36.7070404,51.873325 35.000681,51.6986263 34.7000367,50.5326141 C34.4684594,49.634744 35.3013253,48.5012339 36.2520112,49.041581 C36.3855314,49.1344628 36.4669665,49.2852686 36.4714003,49.4478571 C36.4906925,49.4291065 36.5110394,49.4114725 36.5323417,49.3950412 C36.7473497,49.2738061 36.9854166,49.1990641 37.2311365,49.1756521 C36.7843148,48.5394932 36.9167375,47.6644299 37.5317807,47.1889623 C37.2744312,47.2641235 37.0009548,47.2641235 36.7436052,47.1889623 C35.9943668,46.9442336 35.5531823,46.1708423 35.7238524,45.4013477 C35.9391787,44.6131722 36.7761073,43.9590677 37.5195925,44.2840886 Z" id="Shape" fill="#FCBA6B" fill-rule="nonzero"></path>
                            <path d="M38.596224,48.753125 C39.8150521,48.7246857 40.9932526,49.9719532 41.6026667,51.162342 C42.1958297,51.3857938 43.0936998,51.6945636 43.3252771,52.3039776 C43.337504,52.3327303 43.3345514,52.3656914 43.3174089,52.3918133 C43.3002665,52.4179351 43.2712028,52.4337608 43.2399591,52.433986 C43.6462352,52.9621448 43.6868628,53.6934417 43.768118,54.3353578 C43.8615615,55.0991568 44.072825,56.0173407 43.4146578,56.5820644 C43.4146578,56.5820644 43.3821558,56.5820644 43.3699675,56.5820644 C44.0059346,56.6642884 44.4946359,57.1853428 44.5359797,57.825269 C44.5565222,58.1588075 44.4364038,58.4856995 44.2047874,58.7265805 C43.9731709,58.9674616 43.6512389,59.1003021 43.3171516,59.0928503 C42.7469348,59.0768168 42.2841742,58.6264201 42.2527084,58.0568464 C42.3493447,57.6239217 42.610011,57.2453002 42.9799425,57.0005287 C42.9520491,56.8936992 42.9744937,56.7799798 43.0408839,56.6917589 C42.951572,56.6875374 42.8642419,56.6639722 42.78493,56.622692 C42.0617586,56.2164159 42.1186373,55.2251024 42.0739469,54.4978683 C41.9957104,53.9589917 41.9957104,53.4116406 42.0739469,52.8727641 C41.890089,53.2850011 41.6640801,53.6771129 41.3995287,54.0428391 C41.0307761,54.524987 40.6231361,54.9761086 40.1807005,55.3916756 C40.2074736,55.4864518 40.1792829,55.5882516 40.1075709,55.655755 C39.985834,55.7621548 39.8489006,55.8497921 39.7012948,55.9157716 C39.7646333,56.3325244 39.6524724,56.7568937 39.3914933,57.0879292 C39.1305142,57.4189647 38.7440445,57.6270766 38.324019,57.6627586 C38.0260065,57.7046736 37.7480579,57.5038333 37.6942912,57.2077295 C37.6059788,56.5003821 37.8904051,55.7977724 38.4459018,55.3510479 C38.7870954,55.0452893 39.241501,54.8977551 39.6972321,54.9447719 C39.9716745,54.4417511 40.2869184,53.9620912 40.6397925,53.5106175 C41.0861838,52.9805425 41.5919189,52.503434 42.1470766,52.0886513 L41.9154992,51.9627058 C41.9144015,51.9816494 41.9144015,52.0006407 41.9154992,52.0195844 C41.9480013,52.1536555 41.7651771,52.2105341 41.6839219,52.1211534 L41.2532693,51.6579987 C40.5951021,51.4223586 39.9084956,51.2517227 39.2218891,51.0729612 C39.327283,51.2258105 39.3903588,51.4038244 39.4047133,51.5889318 C39.5464364,51.7000278 39.6360896,51.864637 39.6525417,52.043961 C39.6720548,52.5004354 39.469142,52.9380607 39.1081318,53.2180987 C38.734415,53.4872631 38.26404,53.5852155 37.8139448,53.4876045 C37.3638495,53.3899934 36.976309,53.105987 36.747668,52.7061909 C36.5422923,52.3200052 36.5137979,51.8639148 36.6695102,51.4551701 C36.8252225,51.0464253 37.1499527,50.7248967 37.5602201,50.5732417 C38.05879,50.4290978 38.5962209,50.5317532 39.0065628,50.8495094 C39.0163915,50.7867144 39.0656506,50.7374553 39.1284456,50.7276266 C39.5357826,50.6934516 39.9458825,50.7153236 40.3472737,50.7926308 C40.2010143,50.6544969 40.0628805,50.5082375 39.9125584,50.3863547 C39.3803367,49.9800787 38.6937302,49.7159992 38.2874542,49.1878404 C38.2205571,49.0895647 38.2218479,48.9600476 38.2906903,48.8631247 C38.3595328,48.7662018 38.4813988,48.722327 38.596224,48.753125 Z" id="Shape" fill="#FCBA6B" fill-rule="nonzero" style="mix-blend-mode: multiply;"></path>
                            <path d="M47.4286651,48.753125 C47.6304334,48.133816 48.1169403,47.6488199 48.736874,47.4489789 C49.0313069,47.3298823 49.3685708,47.4440088 49.5301814,47.7174255 C49.6917921,47.9908423 49.6291574,48.3413401 49.3828529,48.5418615 C49.48255,48.7552574 49.4847441,49.0014139 49.3888669,49.2165531 C49.2929896,49.4316923 49.1084763,49.5946422 48.8831334,49.6631834 C48.9461598,49.8202767 48.874603,49.9991686 48.7206229,50.0694594 C47.871506,50.3944802 46.9126946,50.2441581 46.0310755,50.5204258 C45.0722641,50.8170073 44.1622058,51.3532917 43.1587039,51.4792373 C43.1015375,51.4861004 43.0454732,51.4597072 43.014338,51.4112747 C42.9832028,51.3628422 42.9824675,51.3008804 43.0124446,51.2517227 C43.6259214,50.1019615 45.8076237,48.6231167 47.4286651,48.753125 Z" id="Shape" fill="#FCBA6B" fill-rule="nonzero" style="mix-blend-mode: multiply;"></path>
                            <path d="M40.8429305,44.9910089 C40.9175892,45.0254587 40.9707347,45.0941789 40.9853008,45.1751019 C40.999867,45.2560249 40.9740201,45.3389638 40.9160602,45.3972849 C40.8796094,45.4413072 40.8355803,45.4784567 40.7860518,45.5069795 C40.664169,45.5638581 40.733236,45.632925 40.9851271,45.7060547 C41.1110727,45.3241552 41.6839219,45.5394815 41.5661018,45.9173183 C41.5177552,46.0605155 41.4338862,46.1891146 41.3223362,46.2910922 C42.5411643,47.294594 43.0855742,49.80538 41.9601896,50.906388 C41.9286009,50.9314793 41.8873932,50.9410129 41.8479941,50.9323451 C41.808595,50.9236773 41.7751932,50.8977296 41.7570516,50.8616977 C41.5051604,50.1304008 41.5986039,49.3666018 41.427968,48.6109284 C41.2573321,47.855255 40.8794953,47.2499037 40.6519808,46.5470461 C40.4114981,46.5403246 40.1897044,46.4157556 40.0588177,46.2138998 C39.7256714,45.718243 40.1644495,44.6903646 40.8429305,44.9910089 Z" id="Shape" fill="#FCBA6B" fill-rule="nonzero" style="mix-blend-mode: multiply;"></path>
                            <path d="M38.510906,47.9040081 C38.6181056,48.0669449 38.6329256,48.2738842 38.5500383,48.450434 C38.4671511,48.6269839 38.2984686,48.7477718 38.10463,48.7693761 C37.8811781,49.3584763 37.036124,49.6388068 36.7029776,48.7978154 C36.2357602,47.6561797 37.8608643,46.9126946 38.510906,47.9040081 Z" id="Shape" fill="#FCBA6B" fill-rule="nonzero" style="mix-blend-mode: multiply;"></path>
                        </g>
                    </g>
                    <g id="Group-10" transform="translate(152.142155, 231.272130) rotate(-316.000000) translate(-152.142155, -231.272130) translate(133.195874, 195.544857)">
                        <rect id="Rectangle-2" fill="#2E3B50" x="0" y="0" width="37.892562" height="71.4545455" rx="3.18181818"></rect>
                        <g id="Group-3" transform="translate(1.377911, 7.631068)">
                            <mask id="mask-2" fill="white">
                                <use xlink:href="#path-1"></use>
                            </mask>
                            <use id="Rectangle-6" fill="#FFFFFF" xlink:href="#path-1"></use>
                            <path d="M17.7150071,7.92521094 C11.6647131,7.92521094 5.74374159,7.33979908 0,6.21962701 L0,0 L35.1367393,0 L35.1367393,6.27632845 C29.4847913,7.35954662 23.6623792,7.92521094 17.7150071,7.92521094 Z" id="bg" fill="#1F9AFF" mask="url(#mask-2)"></path>
                            <g id="Group-13" mask="url(#mask-2)">
                                <g transform="translate(2.066867, 11.099735)">
                                    <g id="Rectangle-7" fill="none">
                                        <use fill="black" fill-opacity="1" filter="url(#filter-4)" xlink:href="#path-3"></use>
                                        <use fill="#FFFFFF" fill-rule="evenodd" xlink:href="#path-3"></use>
                                    </g>
                                    <g id="Rectangle-7-Copy" fill="none">
                                        <use fill="black" fill-opacity="1" filter="url(#filter-6)" xlink:href="#path-5"></use>
                                        <use fill="#FFFFFF" fill-rule="evenodd" xlink:href="#path-5"></use>
                                    </g>
                                    <rect id="Rectangle-14" fill="#F15B5B" fill-rule="evenodd" x="1.37791134" y="31.9117387" width="28.2471826" height="13.1809356"></rect>
                                    <ellipse id="Oval-6" fill="#D8D8D8" fill-rule="evenodd" cx="3.44477836" cy="27.749338" rx="2.06686702" ry="2.08120035"></ellipse>
                                    <ellipse id="Oval-6-Copy" fill="#D8D8D8" fill-rule="evenodd" cx="3.44477836" cy="4.16240071" rx="2.06686702" ry="2.08120035"></ellipse>
                                    <rect id="Rectangle-13" fill="#2E3B50" fill-rule="evenodd" opacity="0.200000018" x="2.06686702" y="15.9558694" width="26.1803156" height="1.3874669"></rect>
                                    <rect id="Rectangle-13-Copy" fill="#2E3B50" fill-rule="evenodd" opacity="0.200000018" x="2.06686702" y="12.4872021" width="26.1803156" height="1.3874669"></rect>
                                    <rect id="Rectangle-13-Copy-2" fill="#2E3B50" fill-rule="evenodd" opacity="0.200000018" x="2.06686702" y="9.01853486" width="26.1803156" height="1.3874669"></rect>
                                    <rect id="Rectangle-15" fill="#2E3B50" fill-rule="evenodd" opacity="0.200000018" x="6.88955672" y="3.46866726" width="13.0901578" height="1.3874669"></rect>
                                    <rect id="Rectangle-15-Copy" fill="#2E3B50" fill-rule="evenodd" opacity="0.200000018" x="6.88955672" y="27.0556046" width="13.0901578" height="1.3874669"></rect>
                                </g>
                            </g>
                        </g>
                    </g>
                </g>
            </g>
        </g>
    </g>
</svg>