<?xml version="1.0" encoding="UTF-8"?>
<svg width="179px" height="232px" viewBox="0 0 179 232" version="1.1" xmlns="http://www.w3.org/2000/svg" xmlns:xlink="http://www.w3.org/1999/xlink">
    <!-- Generator: Sketch 51.1 (57501) - http://www.bohemiancoding.com/sketch -->
    <title>unicorn 1</title>
    <desc>Created with Sketch.</desc>
    <defs>
        <rect id="path-1" x="0" y="0" width="43.5574163" height="69.7764435"></rect>
        <rect id="path-3" x="0" y="0" width="38.4330144" height="26.7045648" rx="1.63636364"></rect>
        <filter x="-22.1%" y="-24.3%" width="144.2%" height="163.7%" filterUnits="objectBoundingBox" id="filter-4">
            <feOffset dx="0" dy="2" in="SourceAlpha" result="shadowOffsetOuter1"></feOffset>
            <feGaussianBlur stdDeviation="2.5" in="shadowOffsetOuter1" result="shadowBlurOuter1"></feGaussianBlur>
            <feColorMatrix values="0 0 0 0 0   0 0 0 0 0   0 0 0 0 0  0 0 0 0.13 0" type="matrix" in="shadowBlurOuter1"></feColorMatrix>
        </filter>
        <rect id="path-5" x="0" y="29.2888775" width="38.4330144" height="31.0117527" rx="1.63636364"></rect>
        <filter x="-22.1%" y="-21.0%" width="144.2%" height="154.8%" filterUnits="objectBoundingBox" id="filter-6">
            <feOffset dx="0" dy="2" in="SourceAlpha" result="shadowOffsetOuter1"></feOffset>
            <feGaussianBlur stdDeviation="2.5" in="shadowOffsetOuter1" result="shadowBlurOuter1"></feGaussianBlur>
            <feColorMatrix values="0 0 0 0 0   0 0 0 0 0   0 0 0 0 0  0 0 0 0.13 0" type="matrix" in="shadowBlurOuter1"></feColorMatrix>
        </filter>
    </defs>
    <g id="CONVERSATIONS" stroke="none" stroke-width="1" fill="none" fill-rule="evenodd">
        <g id="Conversation-empty-(≥1200px)" transform="translate(-342.000000, -392.000000)">
            <g id="Illustrations" transform="translate(323.000000, 246.000000)">
                <g id="unicorn-1" transform="translate(0.000000, 112.000000)">
                    <g id="parents-dad" transform="translate(118.621807, 129.843691) rotate(-28.000000) translate(-118.621807, -129.843691) translate(40.332333, 24.413867)">
                        <path d="M48.758522,169.393271 C48.758522,169.393271 40.4793087,168.245296 39.1569062,158.298882 L48.632772,159.333277 L48.758522,169.393271 Z" id="Shape" fill="#1F77B9" fill-rule="nonzero"></path>
                        <path d="M49.1357717,151.354241 C49.1357717,151.354241 37.846673,164.56204 25.1499864,165.117773 C12.4532997,165.673507 16.2257977,182.734933 31.1413621,177.57513 C46.0569266,172.415326 54.4740592,159.207527 54.4740592,159.207527" id="Shape" fill="#FAC8CA" fill-rule="nonzero"></path>
                        <path d="M47.2738615,152.222321 C41.1242842,159.491478 40.7835424,157.653906 38.8405031,158.485479 C38.8405031,158.485479 49.4967957,160.460969 48.4421189,169.579868 C48.4421189,169.579868 51.2816335,167.904554 55.5774134,160.022873 C56.2994614,158.696414 56.1209776,157.057608 55.5774134,155.65002 C55.2670104,154.859324 54.8769332,154.102276 54.4132124,153.390578 C52.8230843,151.001329 49.1236024,150.035894 47.2738615,152.222321 Z" id="Shape" fill="#00AFEC" fill-rule="nonzero"></path>
                        <path d="M29.5147259,178.078129 C15.958072,181.505829 12.8832833,165.669451 25.137817,165.138056 L25.543462,165.113717 C28.2126057,167.555699 31.076459,171.806858 29.5147259,178.078129 Z" id="Shape" fill="#5F2B70" fill-rule="nonzero"></path>
                        <path d="M81.3318107,183.696312 C81.3318107,183.696312 86.605195,162.298541 100.612115,161.604888 C110.619376,161.105945 117.267896,167.446175 116.290292,176.354138 C115.337026,185.063335 118.460492,186.47498 124.520828,186.495262 C124.520828,186.495262 119.855911,194.29987 110.083924,192.657008 C100.076663,190.977638 101.699243,183.144635 94.8113921,183.371796 C90.3492978,183.517828 87.1852672,186.969866 85.4815585,189.39968 C84.9499551,190.164015 84.0288949,190.558114 83.1089554,190.414859 C82.189016,190.271604 81.4314028,189.616098 81.1573834,188.726309 C80.8085288,187.533713 80.747682,185.91519 81.3318107,183.696312 Z" id="Shape" fill="#B77EB4" fill-rule="nonzero"></path>
                        <path d="M104.441403,186.113956 C103.017589,176.784122 94.1623602,180.264555 91.3147328,178.524339 C88.970105,177.092412 87.2582833,167.438062 100.214583,161.633283 C86.5037837,162.708242 81.3318107,183.696312 81.3318107,183.696312 C80.747682,185.91519 80.8085288,187.533713 81.1654963,188.71414 C81.4395157,189.603928 82.1971289,190.259435 83.1170683,190.40269 C84.0370078,190.545945 84.958068,190.151846 85.4896714,189.38751 C87.1852672,186.953641 90.3574107,183.505659 94.819505,183.359626 C101.253034,183.144635 100.26326,189.967582 108.262578,192.235138 C106.185803,190.821857 104.799053,188.600408 104.441403,186.113956 Z" id="Shape" fill="#D1D3D4" fill-rule="nonzero" style="mix-blend-mode: multiply;"></path>
                        <path d="M100.01176,164.858161 C100.01176,164.858161 106.814426,163.941403 111.081811,168.151998 C115.349196,172.362592 112.363649,181.846571 114.391873,184.219594 C114.391873,184.219594 112.091867,184.673916 112.177052,177.222218 C112.262238,169.770521 109.9744,167.162224 100.01176,164.858161 Z" id="Shape" fill="#FFFFFF" fill-rule="nonzero"></path>
                        <path d="M54.4659463,149.682983 C54.4659463,149.682983 48.3812722,154.956368 45.8500477,168.366989 C43.4689119,181.051507 45.987967,197.97907 52.1456572,207.925484 C52.8429416,209.045834 53.9584819,209.841605 55.2447846,210.136249 C57.5499382,210.689412 59.9253278,210.891805 62.2908372,210.736603 C64.9319621,210.52558 66.9392759,208.273385 66.8462299,205.625477 C66.7367058,202.964446 66.9273589,199.609763 68.3511726,197.991239 C68.3511726,197.991239 70.5619376,201.962503 77.1131034,205.994614 C78.5790601,206.902947 80.3545312,207.167066 82.0214071,206.724775 C84.1023657,206.164985 86.9459367,205.008897 89.0552904,202.63993 C90.6155001,200.889997 91.0834641,198.422267 90.2722253,196.222627 C88.0574039,190.25559 83.4330515,174.451663 88.5522907,156.972423 C88.5522907,156.972423 90.1545882,148.587742 77.2997,144.093196 C64.4448118,139.59865 54.4659463,149.682983 54.4659463,149.682983 Z" id="Shape" fill="#FAC8CA" fill-rule="nonzero"></path>
                        <path d="M50.1012067,204.351752 C50.6734947,205.579225 51.3140642,206.773691 52.0199073,207.92954 C52.7157015,209.04874 53.8301027,209.84328 55.1149782,210.136249 C57.4214731,210.689635 59.7982332,210.892029 62.1650873,210.736603 C64.8075934,210.529557 66.8159226,208.274214 66.7164235,205.625477 C66.7164235,205.442937 66.7164235,205.260397 66.7164235,205.069744 C61.3289428,207.210165 55.2839615,206.948944 50.1012067,204.351752 Z" id="Shape" fill="#5F2B70" fill-rule="nonzero"></path>
                        <path d="M89.8057336,195.338322 C85.5261794,202.015237 78.8533202,203.787906 74.2451936,204.140817 C75.0564835,204.749284 75.9691846,205.357752 76.983297,205.998671 C78.4494226,206.906542 80.2246974,207.170633 81.8916008,206.728831 C83.9725593,206.169041 86.8201868,205.008897 88.925484,202.643987 C90.4865322,200.894467 90.9545892,198.426246 90.1424189,196.226684 C90.0247818,195.954902 89.9152577,195.650668 89.8057336,195.338322 Z" id="Shape" fill="#5F2B70" fill-rule="nonzero"></path>
                        <path d="M61.7959504,197.106933 C62.8709095,198.806586 62.6559176,201.820528 62.2015953,204.335526 C61.4527039,203.900122 60.7294627,203.422024 60.0354513,202.9036 C58.2998773,202.881581 56.5726155,202.659719 54.887817,202.242398 C59.7920644,199.662497 61.7959504,197.106933 61.7959504,197.106933 Z" id="Shape"></path>
                        <path d="M44.9616853,187.862285 C44.9616853,187.862285 45.6350559,197.212401 49.2858604,204.351752 C49.2858604,204.351752 59.6257499,209.393919 67.8076084,205.069744 L67.8076084,198.818755 L72.9592992,204.335526 C72.9592992,204.335526 84.7230025,205.609251 90.5237251,195.67095 L86.7390578,181.404418 L44.9616853,187.862285 Z" id="Shape" fill="#DAE2D7" fill-rule="nonzero"></path>
                        <path d="M88.5320085,156.984592 C88.5320085,156.984592 89.8503545,150.088628 80.4799564,145.439937 C75.8677734,163.053041 63.1305222,169.863819 54.7093332,165.316539 C51.0382465,163.341049 51.2167303,157.674189 52.7297859,151.621966 C50.7299564,154.205924 40.1547927,169.490626 42.5359286,187.0226 C61.5403941,194.007806 80.0945937,187.359286 87.6679847,181.826289 C86.4632193,174.427325 85.5910826,167.093264 88.5320085,156.984592 Z" id="Shape" fill="#00AFEC" fill-rule="nonzero"></path>
                        <path d="M71.5030338,57.1472593 C132.808154,86.8810335 82.0173507,132.909565 105.248636,156.16519 C105.248636,156.16519 79.9323357,169.78269 81.2831334,129.891567 C82.2242296,102.088662 48.7260704,59.743387 71.5030338,57.1472593 Z" id="Shape" fill="#A975A8" fill-rule="nonzero"></path>
                        <path d="M50.04036,29.1253068 C50.04036,29.1253068 62.4247,17.9862967 78.9222798,20.7527952 C95.4198596,23.5192937 97.7847696,30.8290155 97.7847696,30.8290155 L50.04036,29.1253068 Z" id="Shape" fill="#A975A8" fill-rule="nonzero"></path>
                        <path d="M72.6753477,27.4702754 C72.6753477,27.4702754 95.6916417,16.8383215 115.268067,38.207697 C134.844491,59.5770725 130.276929,75.5513703 156.388294,79.4333924 C156.388294,79.4333924 135.091935,108.303143 108.465401,85.1935506 C91.3106763,70.322607 72.6753477,27.4702754 72.6753477,27.4702754 Z" id="Shape" fill="#A975A8" fill-rule="nonzero"></path>
                        <path d="M82.8894873,36.0293837 C82.8894873,36.0293837 103.346162,29.7216049 118.647089,54.3158576 C133.948016,78.9101104 124.800723,96.0080447 149.760056,104.61583 C149.760056,104.61583 129.392623,126.926302 107.459401,99.3424461 C93.3470139,81.5751977 82.8894873,36.0293837 82.8894873,36.0293837 Z" id="Shape" fill="#A975A8" fill-rule="nonzero"></path>
                        <path d="M85.2260022,31.9202004 C150.181927,52.486399 109.402441,111.292746 135.525975,131.708856 C135.525975,131.708856 107.787974,148.916314 104.129056,106.729241 C101.573493,77.3078129 62.8019498,38.6295678 85.2260022,31.9202004 Z" id="Shape" fill="#A975A8" fill-rule="nonzero"></path>
                        <path d="M86.5078402,37.9886488 C147.800791,67.7467617 95.026384,117.900702 117.920984,141.874318 C117.920984,141.874318 91.8826357,157.004875 94.3935779,114.732615 C96.1053995,85.2665667 63.345514,41.375784 86.5078402,37.9886488 Z" id="Shape" fill="#A975A8" fill-rule="nonzero"></path>
                        <path d="M27.3972593,64.834231 C27.3972593,64.834231 11.2201391,45.2212981 8.16563267,28.6912667 C7.72756816,26.2756358 8.46653967,23.795816 10.1554179,22.0140014 C11.8442962,20.2321867 14.2810151,19.3615627 16.716628,19.6697232 C24.8295269,20.7527952 43.424291,29.8635806 55.0825266,43.9516294" id="Shape" fill="#FAC8CA" fill-rule="nonzero"></path>
                        <path d="M31.3441846,60.6844832 C36.2119239,52.1659395 43.6271134,51.277577 43.6271134,51.277577 C43.6271134,51.277577 24.8416962,31.6930393 17.9173371,29.6972662 C5.95081129,26.2411713 26.1113649,57.8774202 31.3441846,60.6844832 Z" id="Shape" fill="#FFFFFF" fill-rule="nonzero"></path>
                        <path d="M131.534429,80.0378034 C129.506204,65.7753272 119.969491,55.6991069 109.66611,48.4421189 C88.9295405,33.838901 54.9040428,26.9916144 30.4436528,48.8883283 C16.9478457,60.9724911 8.47392283,81.9889555 6.56333515,99.0422689 C4.07267521,121.279725 17.9213935,133.927734 32.6990387,143.663212 C34.0052154,144.52318 35.3235615,145.370978 36.6337947,146.222832 C36.4306779,146.61402 36.524925,147.09367 36.8609558,147.37892 C49.6387715,157.017044 71.2637033,158.262374 87.8829765,151.946482 C101.411235,146.843469 113.247955,135.42862 121.474434,122.464208 C129.700914,109.499795 133.518032,94.0284974 131.534429,80.0378034 Z" id="Shape" fill="#FAC8CA" fill-rule="nonzero"></path>
                        <path d="M122.35874,58.1613717 C135.18929,100.677018 99.4600832,112.40827 91.9353695,105.260806 C85.5991955,99.2491478 72.4644123,92.6087401 56.7821789,87.7977911 C41.2216389,83.031463 29.0766294,82.1187619 29.0766294,82.1187619 C29.0766294,82.1187619 17.0695391,80.025634 10.2141396,90.7630556 C10.262817,88.5441778 9.24059176,90.251943 8.79438233,93.3429575 C7.94184653,95.1762546 7.27725146,97.0912126 6.81077857,99.0584947 C2.34868421,117.413928 16.5056927,136.430563 40.8849536,146.336413 C41.5502113,146.806961 42.2127647,147.281565 42.8726139,147.760226 C43.0091611,147.862428 43.0972739,148.016626 43.1160008,148.186154 C57.1107513,155.990762 79.1778361,156.299052 94.9979888,147.374864 C107.579506,140.157939 117.807678,129.45928 124.451868,116.56613 C135.972184,94.024441 133.704629,73.0972184 122.35874,58.1613717 Z" id="Shape" fill="#F6BABC" fill-rule="nonzero"></path>
                        <circle id="Oval" fill="#FFFFFF" fill-rule="nonzero" cx="25.1297041" cy="79.8674325" r="16.2541928"></circle>
                        <circle id="Oval" fill="#5F2B70" fill-rule="nonzero" cx="24.9268816" cy="80.5164644" r="12.5182029"></circle>
                        <circle id="Oval" fill="#793683" fill-rule="nonzero" cx="24.9268816" cy="80.5164644" r="7.00143169"></circle>
                        <circle id="Oval" fill="#FFFFFF" fill-rule="nonzero" cx="21.4545609" cy="75.2430802" r="4.29577993"></circle>
                        <circle id="Oval" fill="#FFFFFF" fill-rule="nonzero" cx="27.7380011" cy="85.9074857" r="1.85785383"></circle>
                        <circle id="Oval" fill="#FFFFFF" fill-rule="nonzero" cx="79.6686665" cy="88.3859763" r="16.2541928"></circle>
                        <circle id="Oval" fill="#5F2B70" fill-rule="nonzero" cx="78.8857717" cy="88.7226616" r="12.5182029"></circle>
                        <circle id="Oval" fill="#793683" fill-rule="nonzero" cx="78.8857717" cy="88.7226616" r="7.00143169"></circle>
                        <circle id="Oval" fill="#FFFFFF" fill-rule="nonzero" cx="75.413451" cy="83.4492773" r="4.29577993"></circle>
                        <circle id="Oval" fill="#FFFFFF" fill-rule="nonzero" cx="81.6968912" cy="94.1136828" r="1.85785383"></circle>
                        <path d="M53.7479547,153.926029 C23.4462776,149.711379 2.05661985,132.276759 2.96526452,112.1446 C3.87390919,92.0124421 21.9575607,92.2274339 21.9575607,92.2274339 C21.9575607,92.2274339 34.3297314,91.1889828 50.8962708,93.3672962 C64.8017794,95.1967548 77.1617807,98.5392692 85.2746796,102.392896 C77.4944096,97.8902373 63.9012476,94.0041587 48.3204254,92.138192 C31.8390714,90.1667576 19.4709572,91.4648214 19.4709572,91.4648214 C19.4709572,91.4648214 1.44003954,91.5621762 0.178483774,112.497512 C-1.08307199,133.432847 19.9374489,151.167644 50.0728116,155.009101 C59.2160485,156.177359 66.432472,155.694641 72.208856,154.22215 C67.1423507,154.932029 61.0698459,154.956368 53.7479547,153.926029 Z" id="Shape" fill="#FAC8CA" fill-rule="nonzero"></path>
                        <path d="M97.2452618,53.326084 C97.2452618,53.326084 116.914985,34.4311426 134.349605,29.831129 C136.898878,29.1549301 139.6178,29.7394773 141.663913,31.4036486 C143.710025,33.0678199 144.836222,35.610636 144.693551,38.2442051 C144.190551,47.0304745 135.951902,67.6372375 121.823289,81.2425689" id="Shape" fill="#FAC8CA" fill-rule="nonzero"></path>
                        <path d="M101.999421,57.1959367 C111.532077,61.6985956 113.061358,69.5721639 113.061358,69.5721639 C113.061358,69.5721639 132.487694,47.8944982 134.065653,40.3251636 C136.791587,27.2593401 104.583379,51.3911576 101.999421,57.1959367 Z" id="Shape" fill="#FFFFFF" fill-rule="nonzero"></path>
                        <path d="M19.4709572,91.4648214 C19.4709572,91.4648214 1.44003954,91.5621762 0.178483774,112.497512 C-1.08307199,133.432847 19.9333924,151.167644 50.0728116,155.009101 C80.2122307,158.850559 89.5380079,144.867978 94.6937551,136.134442 C101.812824,124.074618 98.2431484,110.846537 86.7593401,103.31371 C79.3116989,98.4256886 64.9437551,94.1299086 48.3082561,92.138192 C31.8390714,90.1667576 19.4709572,91.4648214 19.4709572,91.4648214 Z" id="Shape" fill="#FAC8CA" fill-rule="nonzero"></path>
                        <path d="M15.0940483,107.775804 C15.0940483,107.775804 16.274475,102.843162 19.2194573,102.096775 C22.1644396,101.350389 20.8663758,104.818653 19.5723684,105.078266 C18.2783611,105.337878 16.3231524,105.950402 15.0940483,107.775804 Z" id="Shape" fill="#000000" fill-rule="nonzero"></path>
                        <path d="M64.4407554,111.921496 C64.4407554,111.921496 64.4001909,106.850934 61.6945391,105.463628 C58.9888874,104.076323 59.4756613,107.743353 60.6804268,108.303143 C61.8851923,108.862933 63.6538042,109.864876 64.4407554,111.921496 Z" id="Shape" fill="#000000" fill-rule="nonzero"></path>
                        <path d="M108.343707,39.3759545 C108.343707,39.3759545 96.949141,17.4427325 61.4552086,17.158781 C25.9612762,16.8748296 26.6508726,54.0156804 10.027543,53.6911644 C10.027543,53.6911644 27.3242433,73.5434279 45.1969594,59.581129 C63.0696755,45.6188301 89.9882738,65.7672143 108.343707,39.3759545 Z" id="Shape" fill="#B77EB4" fill-rule="nonzero"></path>
                        <g id="Group" opacity="0.28" style="mix-blend-mode: multiply;" transform="translate(9.735479, 24.338696)" fill="#B77EB4" fill-rule="nonzero">
                            <path d="M68.038826,20.7122307 C44.9900804,14.9358467 44.5114194,30.8736365 26.8253,27.2512272 C14.6032179,24.7443414 22.5376329,9.45152713 28.5979684,0.247443414 C15.1670644,10.9929779 12.0719935,29.5796291 0.292064358,29.352468 C0.292064358,29.352468 17.5887647,49.2047314 35.4614808,35.2424325 C53.3341969,21.2801336 80.2527952,41.4285179 98.6082288,15.037258 C97.6834552,13.411626 96.5961703,11.8839907 95.3630693,10.4778088 C91.6757567,16.3150395 83.5628579,24.6023657 68.038826,20.7122307 Z" id="Shape"></path>
                        </g>
                        <path d="M48.0324175,50.1296019 C48.0324175,50.1296019 51.6102059,1.34268476 59.8447982,0.328572403 C66.9922621,-0.55167712 71.5070903,39.5098173 72.5779929,50.1458277 C72.7954087,52.2347298 71.9828005,54.2987848 70.3996796,55.6788247 C68.6188983,57.2243319 65.7307063,58.8063472 61.3537974,58.8915326 C52.7338424,59.0497341 47.4604581,56.7902918 48.0324175,50.1296019 Z" id="Shape" fill="#FBB35A" fill-rule="nonzero"></path>
                        <path d="M47.9594014,47.7971434 C47.9594014,47.7971434 63.2806109,53.9507772 71.3935097,39.6396237" id="Shape"></path>
                        <path d="M69.0975593,24.2453981 C69.0975593,24.2453981 64.4164167,38.0129875 49.3953845,36.3376738" id="Shape"></path>
                        <path d="M51.0220207,24.541519 C51.0220207,24.541519 61.1631443,27.1133079 66.9719798,13.8608876" id="Shape"></path>
                        <path d="M53.4680597,12.2788724 C53.4680597,12.2788724 61.666144,17.5522566 64.8666826,6.69719798" id="Shape"></path>
                        <path d="M60.3802495,0.957322062 C60.3802495,0.957322062 62.623466,11.589276 55.5125102,12.0354854 C55.5125102,12.0354854 61.1509749,15.9053382 64.5705618,7.57339106 C64.5867876,7.57339106 62.9885465,-0.770725389 60.3802495,0.957322062 Z" id="Shape" fill="#CD944A" fill-rule="nonzero"></path>
                        <path d="M64.7165939,9.47992228 C64.7165939,9.47992228 64.2622716,22.3104718 51.6142623,24.6469866 C51.6142623,24.6469866 61.9298132,25.3933733 66.6718026,14.8344355 L64.7165939,9.47992228 Z" id="Shape" fill="#CD944A" fill-rule="nonzero"></path>
                        <path d="M66.8827379,16.716628 C66.8827379,16.716628 63.6862558,35.4046905 50.9408917,35.9888192 C50.9408917,35.9888192 61.061733,38.4835356 68.517487,26.1154213 L66.8827379,16.716628 Z" id="Shape" fill="#CD944A" fill-rule="nonzero"></path>
                        <path d="M68.7933256,27.6365899 C68.7933256,27.6365899 67.2518748,50.0444164 49.9267794,48.4015544 C49.9267794,48.4015544 64.6841424,52.4133829 71.0852195,40.6010022 L68.7933256,27.6365899 Z" id="Shape" fill="#CD944A" fill-rule="nonzero"></path>
                        <path d="M72.5049768,51.9671734 C72.5049768,51.9671734 70.6065585,61.9663212 52.0888669,57.6015817 C52.0888669,57.6015817 68.0063744,58.6075811 70.9959776,42.215469 L72.5049768,51.9671734 Z" id="Shape" fill="#CD944A" fill-rule="nonzero"></path>
                        <path d="M60.0354513,2.06473275 C60.0354513,2.06473275 57.2608399,2.19859558 55.7477843,11.3337197 C55.7477843,11.3337197 56.7537837,12.2099127 57.13509,8.55910826 C57.5163962,4.90830379 58.9564358,3.15591764 59.7880079,2.88007908 C60.61958,2.60424052 60.0354513,2.06473275 60.0354513,2.06473275 Z" id="Shape" fill="#FFFFFF" fill-rule="nonzero"></path>
                        <path d="M54.7174461,14.6559517 C54.7174461,14.6559517 53.0624148,21.7993591 53.5654145,22.9067698 C54.0684142,24.0141805 55.3624216,14.8547178 55.3624216,14.8547178 C55.3624216,14.8547178 54.8999864,13.8446618 54.7174461,14.6559517 Z" id="Shape" fill="#FFFFFF" fill-rule="nonzero"></path>
                        <path d="M52.6080924,26.6752113 C52.6080924,26.6752113 51.1923916,33.8956913 52.0685847,35.1166826 C52.9447777,36.3376738 53.5451323,26.9713322 53.5451323,26.9713322 C53.5451323,26.9713322 52.7581811,25.8558086 52.6080924,26.6752113 Z" id="Shape" fill="#FFFFFF" fill-rule="nonzero"></path>
                        <path d="M51.7035042,38.4916485 C51.7035042,38.4916485 50.5798677,46.8560472 52.3281974,46.7302972 C53.5451323,46.6451118 53.2003341,41.0512681 53.0867535,39.0636079 C53.0544727,38.5908358 52.6990864,38.2034479 52.2308427,38.1306245 C51.9671734,38.0778906 51.7359558,38.1306245 51.7035042,38.4916485 Z" id="Shape" fill="#FFFFFF" fill-rule="nonzero"></path>
                        <path d="M52.1010363,50.5920371 C51.8447961,50.536991 51.5774808,50.6029612 51.3762707,50.7709003 C51.1750605,50.9388395 51.0623562,51.1900511 51.0706981,51.4520044 C51.0301336,52.9610035 51.0706981,55.8735342 52.4458345,55.8857036 C53.8209708,55.8978729 52.9366648,52.5310199 52.6364876,51.1883352 C52.5835428,50.9136468 52.3866346,50.6888304 52.1213185,50.60015 L52.1010363,50.5920371 Z" id="Shape" fill="#FFFFFF" fill-rule="nonzero"></path>
                        <path d="M28.1193073,125.165803 L52.5391328,127.40902 C52.5391328,127.40902 49.517078,141.46056 38.8323902,140.4789 C28.1477025,139.497239 28.1193073,125.165803 28.1193073,125.165803 Z" id="Shape" fill="#4E1E5D" fill-rule="nonzero"></path>
                        <path d="M31.5591764,135.619273 C33.0478934,137.963901 35.3560131,139.890714 38.9419144,140.223343 C44.8967821,140.770964 48.3244819,136.353491 50.1296019,132.662122 C40.7186392,131.404622 34.885465,133.49775 31.5591764,135.619273 Z" id="Shape" fill="#BD2232" fill-rule="nonzero"></path>
                        <path d="M33.2628852,125.859456 C33.4008045,127.202141 34.678586,128.342003 36.3255045,128.492092 L43.9070085,129.189801 C45.5539269,129.343946 47.0183052,128.451527 47.3996114,127.161576 L33.2628852,125.859456 Z" id="Shape" fill="#FFFFFF" fill-rule="nonzero"></path>
                        <path d="M40.8443891,108.538417 C40.8443891,108.538417 54.2306722,100.384954 58.5305086,116.245671 C61.1996523,126.074448 72.1074448,122.099127 72.1074448,122.099127 C72.1074448,122.099127 63.0007158,135.785588 47.2089583,128.995091 C31.4172007,122.204595 36.2119239,110.566642 40.8443891,108.538417 Z" id="Shape" fill="#9B6B9A" fill-rule="nonzero"></path>
                        <path d="M36.645964,106.315483 C36.645964,106.315483 23.4462776,99.711583 20.651384,114.923268 C18.9152236,124.366683 8.36845514,121.466321 8.36845514,121.466321 C8.36845514,121.466321 17.9862967,133.603218 32.2731115,125.985206 C46.5599264,118.367194 41.1526793,107.852877 36.645964,106.315483 Z" id="Shape" fill="#9B6B9A" fill-rule="nonzero"></path>
                        <path d="M38.1995841,117.827686 C38.1995841,117.827686 37.4248023,121.214821 38.1995841,122.241103 C38.974366,123.267385 40.8849536,126.524714 47.7890305,129.206027 C47.7890305,129.206027 39.010874,124.857513 38.1995841,117.827686 Z" id="Shape" fill="#9B6B9A" fill-rule="nonzero" style="mix-blend-mode: multiply;"></path>
                        <path d="M72.6712912,65.1222389 C77.7215708,63.6578606 93.5092719,60.303177 101.196244,72.7970412 C101.71643,73.6434524 101.77885,74.6939342 101.362558,75.5959913 L101.204356,75.9448459 C100.807798,76.7963252 100.029821,77.408368 99.1089207,77.5933489 C98.1880201,77.7783298 97.234044,77.5141835 96.5394396,76.8818857 C92.5844014,73.291928 84.6297041,67.9009067 73.5272021,69.2314221 C72.9443008,69.3044017 72.357371,69.1309951 71.907723,68.752952 C71.458075,68.3749089 71.1864466,67.8264798 71.1582356,67.2397055 C71.1121942,66.2689022 71.7379332,65.3932031 72.6712912,65.1222389 Z" id="Shape" fill="#9B6B9A" fill-rule="nonzero"></path>
                        <path d="M64.2947232,195.062483 C64.4975457,195.265305 67.8076084,198.818755 67.8076084,198.818755 L67.8076084,205.069744 C66.6999905,205.657638 65.5184829,206.094222 64.2947232,206.367807 L64.2947232,195.062483 Z" id="Shape" fill="#BCBEC0" fill-rule="nonzero" style="mix-blend-mode: multiply;"></path>
                        <path d="M87.6679847,181.846571 C87.6679847,181.846571 85.8304131,173.117092 86.6579288,166.091321 C86.6579288,166.091321 81.8145282,164.659395 80.1392146,162.318823 C80.1392146,162.318823 82.9787292,182.523998 76.7601923,187.225423 C76.7601923,187.225423 84.0212367,185.172859 87.6679847,181.846571 Z" id="Shape" fill="#0097CA" fill-rule="nonzero"></path>
                        <path d="M48.758522,154.830618 C48.758522,154.830618 39.2502045,174.751841 42.1870739,191.521203 L44.9657418,194.113274 C44.9657418,194.113274 44.3694437,162.355331 51.9103831,154.830618 L48.758522,154.830618 Z" id="Shape" fill="#0082B0" fill-rule="nonzero"></path>
                        <path d="M81.234456,153.889521 C81.234456,153.889521 79.7132874,153.078232 76.7723616,153.435199 C76.7723616,153.435199 67.9171325,171.859592 72.6834606,192.235138 C72.6834606,192.235138 84.5282929,191.107445 87.6923234,181.846571 C87.6923234,181.846571 86.8810335,174.228559 86.560574,170.435779 C86.5362353,170.435779 76.9183938,168.176336 81.234456,153.889521 Z" id="Shape" fill="#0082B0" fill-rule="nonzero"></path>
                        <path d="M93.4038042,168.922723 C93.4038042,168.922723 87.9032588,172.849366 79.3238683,167.644941 L86.0697437,160.911235 L93.4038042,168.922723 Z" id="Shape" fill="#1F77B9" fill-rule="nonzero"></path>
                        <path d="M80.5002386,155.025327 C80.5002386,155.025327 83.7129466,172.102979 76.1760635,182.353627 C68.6391805,192.604275 84.2889624,200.348037 89.6394191,185.497375 C94.9898759,170.646714 89.9558222,155.800109 89.9558222,155.800109" id="Shape" fill="#FAC8CA" fill-rule="nonzero"></path>
                        <path d="M80.0094082,157.0211 C81.9240524,162.919178 79.9404486,165.422007 79.3603763,167.466458 C79.3603763,167.466458 86.9621625,162.37967 93.4038042,168.922723 C93.4038042,168.922723 93.4889896,159.402236 91.2944505,155.443142 C90.5495159,154.126797 89.3264273,153.147745 87.8789201,152.709095 C87.0702072,152.453035 86.2367196,152.283074 85.3923166,152.202038 C82.5365762,151.934313 79.1251023,154.295166 80.0094082,157.0211 Z" id="Shape" fill="#00AFEC" fill-rule="nonzero"></path>
                        <path d="M89.0025566,187.055052 C83.1693823,199.767964 68.9190755,192.218912 76.1760635,182.353627 C76.2571925,182.244103 76.3342651,182.130522 76.4113376,182.020998 C80.0053518,181.48149 85.1083651,181.919587 89.0025566,187.055052 Z" id="Shape" fill="#5F2B70" fill-rule="nonzero"></path>
                    </g>
                    <g id="Group-10" transform="translate(75.049182, 217.480684) rotate(-38.000000) translate(-75.049182, -217.480684) translate(51.562340, 173.116649)">
                        <rect id="Rectangle-2" fill="#2E3B50" x="0" y="0" width="46.9736842" height="88.7280702" rx="4.09090909"></rect>
                        <g id="Group-3" transform="translate(1.708134, 9.475813)">
                            <mask id="mask-2" fill="white">
                                <use xlink:href="#path-1"></use>
                            </mask>
                            <use id="Rectangle-6" fill="#FFFFFF" xlink:href="#path-1"></use>
                            <path d="M21.9604879,9.84106285 C14.4602139,9.84106285 7.12025499,9.11413267 0,7.72316861 L0,0 L43.5574163,0 L43.5574163,7.79357713 C36.5509536,9.13865402 29.3331744,9.84106285 21.9604879,9.84106285 Z" id="bg" fill="#1F9AFF" mask="url(#mask-2)"></path>
                            <g id="Group-13" mask="url(#mask-2)">
                                <g transform="translate(2.562201, 13.783001)">
                                    <g id="Rectangle-7" fill="none">
                                        <use fill="black" fill-opacity="1" filter="url(#filter-4)" xlink:href="#path-3"></use>
                                        <use fill="#FFFFFF" fill-rule="evenodd" xlink:href="#path-3"></use>
                                    </g>
                                    <g id="Rectangle-7-Copy" fill="none">
                                        <use fill="black" fill-opacity="1" filter="url(#filter-6)" xlink:href="#path-5"></use>
                                        <use fill="#FFFFFF" fill-rule="evenodd" xlink:href="#path-5"></use>
                                    </g>
                                    <rect id="Rectangle-14" fill="#8F63DE" fill-rule="evenodd" x="1.70813397" y="39.6261284" width="35.0167464" height="16.3673139"></rect>
                                    <ellipse id="Oval-6" fill="#D8D8D8" fill-rule="evenodd" cx="4.27033493" cy="34.457503" rx="2.56220096" ry="2.58431272"></ellipse>
                                    <ellipse id="Oval-6-Copy" fill="#D8D8D8" fill-rule="evenodd" cx="4.27033493" cy="5.16862545" rx="2.56220096" ry="2.58431272"></ellipse>
                                    <rect id="Rectangle-13" fill="#2E3B50" fill-rule="evenodd" opacity="0.200000018" x="2.56220096" y="19.8130642" width="32.4545455" height="1.72287515"></rect>
                                    <rect id="Rectangle-13-Copy" fill="#2E3B50" fill-rule="evenodd" opacity="0.200000018" x="2.56220096" y="15.5058763" width="32.4545455" height="1.72287515"></rect>
                                    <rect id="Rectangle-13-Copy-2" fill="#2E3B50" fill-rule="evenodd" opacity="0.200000018" x="2.56220096" y="11.1986885" width="32.4545455" height="1.72287515"></rect>
                                    <rect id="Rectangle-15" fill="#2E3B50" fill-rule="evenodd" opacity="0.200000018" x="8.54066986" y="4.30718787" width="16.2272727" height="1.72287515"></rect>
                                    <rect id="Rectangle-15-Copy" fill="#2E3B50" fill-rule="evenodd" opacity="0.200000018" x="8.54066986" y="33.5960654" width="16.2272727" height="1.72287515"></rect>
                                </g>
                            </g>
                        </g>
                    </g>
                </g>
            </g>
        </g>
    </g>
</svg>