<?xml version="1.0" encoding="UTF-8"?>
<svg width="152px" height="48px" viewBox="0 0 152 48" version="1.1" xmlns="http://www.w3.org/2000/svg" xmlns:xlink="http://www.w3.org/1999/xlink">
    <!-- Generator: Sketch 49.3 (51167) - http://www.bohemiancoding.com/sketch -->
    <title>Appstore</title>
    <desc>Created with Sketch.</desc>
    <defs>
        <rect id="path-1" x="0" y="0" width="148" height="44" rx="4.08352668"></rect>
    </defs>
    <g id="👉-Extra-Large-Devices:-Desktops-(≥1200px)" stroke="none" stroke-width="1" fill="none" fill-rule="evenodd">
        <g id="Landing-Page-(≥1200px)" transform="translate(-148.000000, -7707.000000)">
            <g id="Footer" transform="translate(-39.000000, 6920.000000)">
                <g transform="translate(39.000000, 615.000000)" id="Content">
                    <g transform="translate(150.000000, 94.000000)">
                        <g id="Badges-store" transform="translate(0.000000, 80.000000)">
                            <g id="Appstore">
                                <g>
                                    <g id="backfround-copy">
                                        <use fill="#000000" fill-rule="evenodd" xlink:href="#path-1"></use>
                                        <rect stroke="#A6A6A6" stroke-width="1.02088167" x="-0.510440835" y="-0.510440835" width="149.020882" height="45.0208817" rx="4.08352668"></rect>
                                        <rect stroke="#8F8F8F" stroke-width="0.510440835" x="-0.255220418" y="-0.255220418" width="148.510441" height="44.5104408" rx="4.08352668"></rect>
                                    </g>
                                    <path d="M56.8078485,33.7911833 L59.2953389,33.7911833 L53.8500344,18.6858233 L51.3311892,18.6858233 L45.8858848,33.7911833 L48.289762,33.7911833 L49.6798301,29.7819297 L55.4282321,29.7819297 L56.8078485,33.7911833 Z M52.470418,21.4284458 L52.6480958,21.4284458 L54.8324886,27.8139411 L50.2755736,27.8139411 L52.470418,21.4284458 Z M65.8909608,22.2030797 C64.3441181,22.2030797 63.0063081,22.9777135 62.3164999,24.2757486 L62.1492737,24.2757486 L62.1492737,22.3915041 L59.9857842,22.3915041 L59.9857842,37.4863961 L62.2328868,37.4863961 L62.2328868,32.0639592 L62.4105647,32.0639592 C63.0063081,33.267782 64.2918599,33.9796077 65.9118641,33.9796077 C68.7860651,33.9796077 70.6151021,31.7080463 70.6151021,28.0861097 C70.6151021,24.4641731 68.7860651,22.2030797 65.8909608,22.2030797 L65.8909608,22.2030797 Z M65.2534107,31.9592789 C63.3721155,31.9592789 62.1910802,30.4728194 62.1910802,28.0965777 C62.1910802,25.709868 63.3721155,24.2234085 65.2638624,24.2234085 C67.1660609,24.2234085 68.3052896,25.678464 68.3052896,28.0861097 C68.3052896,30.5042235 67.1660609,31.9592789 65.2534107,31.9592789 L65.2534107,31.9592789 Z M77.5451765,22.2030797 C75.9983337,22.2030797 74.6605238,22.9777135 73.9707156,24.2757486 L73.8034893,24.2757486 L73.8034893,22.3915041 L71.6399999,22.3915041 L71.6399999,37.4863961 L73.8871025,37.4863961 L73.8871025,32.0639592 L74.0647803,32.0639592 C74.6605238,33.267782 75.9460755,33.9796077 77.5660797,33.9796077 C80.4402807,33.9796077 82.2693177,31.7080463 82.2693177,28.0861097 C82.2693177,24.4641731 80.4402807,22.2030797 77.5451765,22.2030797 L77.5451765,22.2030797 Z M76.9076264,31.9592789 C75.0263312,31.9592789 73.8452959,30.4728194 73.8452959,28.0965777 C73.8452959,25.709868 75.0263312,24.2234085 76.9180781,24.2234085 C78.8202765,24.2234085 79.9595053,25.678464 79.9595053,28.0861097 C79.9595053,30.5042235 78.8202765,31.9592789 76.9076264,31.9592789 L76.9076264,31.9592789 Z M87.0260881,29.7295896 C87.1933143,32.4303401 89.4404169,34.1575642 92.7849417,34.1575642 C96.3594026,34.1575642 98.5960536,32.3465959 98.5960536,29.457421 C98.5960536,27.1858596 97.3209535,25.9296966 94.227268,25.2074028 L92.5654573,24.7991499 C90.600549,24.3385568 89.8062243,23.7209433 89.8062243,22.6427367 C89.8062243,21.2818935 91.0395178,20.3921114 92.8894581,20.3921114 C94.6453336,20.3921114 95.8577239,21.2609574 96.0772083,22.6532048 L98.3556658,22.6532048 C98.2197945,20.1094747 95.9831436,18.3194424 92.920813,18.3194424 C89.6285464,18.3194424 87.4337021,20.1094747 87.4337021,22.7997571 C87.4337021,25.0189784 88.6774472,26.3379495 91.4053252,26.9764991 L93.3493303,27.4475602 C95.3455935,27.9186213 96.2235313,28.6095109 96.2235313,29.7609937 C96.2235313,31.1009009 94.8439148,32.0744272 92.9626196,32.0744272 C90.9454531,32.0744272 89.5449333,31.163709 89.3463522,29.7295896 L87.0260881,29.7295896 Z M100.530244,19.6279455 L100.530244,22.4438443 L98.6594005,22.4438443 L98.6594005,24.3385568 L100.530244,24.3385568 L100.530244,30.7763921 C100.530244,32.9746773 101.52315,33.8539914 104.021092,33.8539914 C104.460061,33.8539914 104.867675,33.8016513 105.22303,33.7388432 L105.22303,31.8650667 C104.909481,31.8964708 104.731803,31.9174068 104.386899,31.9174068 C103.268574,31.9174068 102.777347,31.3940056 102.777347,30.2006507 L102.777347,24.3385568 L105.327547,24.3385568 L105.327547,22.4438443 L102.777347,22.4438443 L102.777347,19.6279455 L100.530244,19.6279455 Z M110.898908,32.0116191 C108.944451,32.0116191 107.847029,30.5774996 107.847029,28.0861097 C107.847029,25.6156558 108.944451,24.1710684 110.898908,24.1710684 C112.842913,24.1710684 113.950787,25.6156558 113.950787,28.0861097 C113.950787,30.5670316 112.842913,32.0116191 110.898908,32.0116191 L110.898908,32.0116191 Z M110.898908,34.0110118 C114.22253,34.0110118 116.260599,31.7813225 116.260599,28.0861097 C116.260599,24.4118329 114.212078,22.1716756 110.898908,22.1716756 C107.575286,22.1716756 105.526765,24.4118329 105.526765,28.0861097 C105.526765,31.7813225 107.564835,34.0110118 110.898908,34.0110118 L110.898908,34.0110118 Z M117.285497,33.7911833 L119.5326,33.7911833 L119.5326,27.0602433 C119.5326,25.4586354 120.734538,24.3804289 122.427704,24.3804289 C122.803963,24.3804289 123.493771,24.453705 123.671449,24.5165132 L123.671449,22.2972919 C123.431061,22.2344838 123.002544,22.2030797 122.678543,22.2030797 C121.19441,22.2030797 119.940214,23.0195856 119.616213,24.1396643 L119.448987,24.1396643 L119.448987,22.3915041 L117.285497,22.3915041 L117.285497,33.7911833 Z M128.73068,24.0873242 C130.392491,24.0873242 131.479461,25.2492749 131.531719,27.0393072 L125.783318,27.0393072 C125.908737,25.259743 127.068869,24.0873242 128.73068,24.0873242 L128.73068,24.0873242 Z M131.521268,30.713584 C131.103202,31.6033661 130.173006,32.0953633 128.814293,32.0953633 C127.016611,32.0953633 125.856479,30.8287322 125.783318,28.8293395 L125.783318,28.7037232 L133.820629,28.7037232 L133.820629,27.9186213 C133.820629,24.3385568 131.907979,22.1716756 128.741132,22.1716756 C125.532478,22.1716756 123.494408,24.4851091 123.494408,28.1279818 C123.494408,31.7708545 125.490672,34.0110118 128.751583,34.0110118 C131.354042,34.0110118 133.172627,32.7548488 133.684757,30.713584 L131.521268,30.713584 Z" id="App-Store" fill="#FFFFFF"></path>
                                    <path d="M47.9917409,6.89513849 L47.9917409,14.0881671 L50.584743,14.0881671 C52.7248407,14.0881671 53.9641066,12.767202 53.9641066,10.4692213 C53.9641066,8.20613399 52.7148868,6.89513849 50.584743,6.89513849 L47.9917409,6.89513849 Z M49.1065825,7.91203234 L50.4603187,7.91203234 C51.9484332,7.91203234 52.8293571,8.85913936 52.8293571,10.4841756 C52.8293571,12.1341357 51.9633641,13.0712732 50.4603187,13.0712732 L49.1065825,13.0712732 L49.1065825,7.91203234 Z M57.8869555,13.2407555 C56.9562618,13.2407555 56.4336798,12.5578415 56.4336798,11.3714653 C56.4336798,10.1950587 56.9562618,9.50715995 57.8869555,9.50715995 C58.8126722,9.50715995 59.3402311,10.1950587 59.3402311,11.3714653 C59.3402311,12.5528567 58.8126722,13.2407555 57.8869555,13.2407555 L57.8869555,13.2407555 Z M57.8869555,14.1928473 C59.4696324,14.1928473 60.4401418,13.1310905 60.4401418,11.3714653 C60.4401418,9.62180974 59.4646554,8.55506816 57.8869555,8.55506816 C56.3042786,8.55506816 55.3287922,9.62180974 55.3287922,11.3714653 C55.3287922,13.1310905 56.2993016,14.1928473 57.8869555,14.1928473 L57.8869555,14.1928473 Z M68.8273341,8.6597484 L67.7572852,8.6597484 L66.7917528,12.8020954 L66.7071442,12.8020954 L65.5923026,8.6597484 L64.5670465,8.6597484 L63.4522049,12.8020954 L63.3725734,12.8020954 L62.402064,8.6597484 L61.3170842,8.6597484 L62.8101756,14.0881671 L63.9100863,14.0881671 L65.0249279,10.0903785 L65.1095364,10.0903785 L66.229355,14.0881671 L67.3392196,14.0881671 L68.8273341,8.6597484 Z M70.1870427,14.0881671 L71.2570915,14.0881671 L71.2570915,10.9128662 C71.2570915,10.0654546 71.7846505,9.53706859 72.6456665,9.53706859 C73.441982,9.53706859 73.8301857,9.97074391 73.8301857,10.8430793 L73.8301857,14.0881671 L74.9002346,14.0881671 L74.9002346,10.5739015 C74.9002346,9.28284513 74.2183895,8.55506816 73.0089855,8.55506816 C72.1927621,8.55506816 71.5606868,8.91895664 71.2969073,9.52211427 L71.2172757,9.52211427 L71.2172757,8.6597484 L70.1870427,8.6597484 L70.1870427,14.0881671 Z M76.7078706,14.0881671 L77.7779195,14.0881671 L77.7779195,6.54121955 L76.7078706,6.54121955 L76.7078706,14.0881671 Z M81.9247321,13.2407555 C80.9940384,13.2407555 80.4714564,12.5578415 80.4714564,11.3714653 C80.4714564,10.1950587 80.9940384,9.50715995 81.9247321,9.50715995 C82.8504487,9.50715995 83.3780077,10.1950587 83.3780077,11.3714653 C83.3780077,12.5528567 82.8504487,13.2407555 81.9247321,13.2407555 L81.9247321,13.2407555 Z M81.9247321,14.1928473 C83.507409,14.1928473 84.4779184,13.1310905 84.4779184,11.3714653 C84.4779184,9.62180974 83.502432,8.55506816 81.9247321,8.55506816 C80.3420551,8.55506816 79.3665687,9.62180974 79.3665687,11.3714653 C79.3665687,13.1310905 80.3370782,14.1928473 81.9247321,14.1928473 L81.9247321,14.1928473 Z M87.7885998,13.2756489 C87.2062941,13.2756489 86.7832515,12.9915168 86.7832515,12.503009 C86.7832515,12.0244707 87.1216856,11.7702472 87.8682313,11.7203995 L89.1921057,11.6356584 L89.1921057,12.0892728 C89.1921057,12.7622172 88.5948691,13.2756489 87.7885998,13.2756489 L87.7885998,13.2756489 Z M87.5148663,14.177893 C88.2265733,14.177893 88.8188329,13.868837 89.142336,13.3254967 L89.2269445,13.3254967 L89.2269445,14.0881671 L90.2571776,14.0881671 L90.2571776,10.3794954 C90.2571776,9.23299739 89.490724,8.55506816 88.1320108,8.55506816 C86.9026989,8.55506816 86.0267519,9.15324101 85.9172585,10.0853937 L86.9524686,10.0853937 C87.0719159,9.70156613 87.4850045,9.48223608 88.0822411,9.48223608 C88.8138559,9.48223608 89.1921057,9.80624637 89.1921057,10.3794954 L89.1921057,10.8480641 L87.7238991,10.9328052 C86.4348636,11.0125616 85.7082257,11.5758411 85.7082257,12.5528567 C85.7082257,13.5448267 86.4697024,14.177893 87.5148663,14.177893 L87.5148663,14.177893 Z M94.0157864,14.177893 C94.7623321,14.177893 95.3944075,13.823974 95.7179106,13.230786 L95.8025192,13.230786 L95.8025192,14.0881671 L96.8277753,14.0881671 L96.8277753,6.54121955 L95.7577264,6.54121955 L95.7577264,9.52211427 L95.6780949,9.52211427 C95.3844536,8.92394142 94.7573552,8.57002248 94.0157864,8.57002248 C92.6471193,8.57002248 91.7661953,9.65670316 91.7661953,11.3714653 C91.7661953,13.0912123 92.6371653,14.177893 94.0157864,14.177893 L94.0157864,14.177893 Z M94.3193817,9.53208382 C95.2152365,9.53208382 95.7776343,10.2449065 95.7776343,11.3764501 C95.7776343,12.5129785 95.2202135,13.2158316 94.3193817,13.2158316 C93.4135729,13.2158316 92.871083,12.5229481 92.871083,11.3714653 C92.871083,10.2299521 93.4185498,9.53208382 94.3193817,9.53208382 L94.3193817,9.53208382 Z M104.016513,13.2407555 C103.085819,13.2407555 102.563237,12.5578415 102.563237,11.3714653 C102.563237,10.1950587 103.085819,9.50715995 104.016513,9.50715995 C104.942229,9.50715995 105.469788,10.1950587 105.469788,11.3714653 C105.469788,12.5528567 104.942229,13.2407555 104.016513,13.2407555 L104.016513,13.2407555 Z M104.016513,14.1928473 C105.59919,14.1928473 106.569699,13.1310905 106.569699,11.3714653 C106.569699,9.62180974 105.594213,8.55506816 104.016513,8.55506816 C102.433836,8.55506816 101.458349,9.62180974 101.458349,11.3714653 C101.458349,13.1310905 102.428859,14.1928473 104.016513,14.1928473 L104.016513,14.1928473 Z M108.108579,14.0881671 L109.178628,14.0881671 L109.178628,10.9128662 C109.178628,10.0654546 109.706187,9.53706859 110.567203,9.53706859 C111.363518,9.53706859 111.751722,9.97074391 111.751722,10.8430793 L111.751722,14.0881671 L112.821771,14.0881671 L112.821771,10.5739015 C112.821771,9.28284513 112.139926,8.55506816 110.930521,8.55506816 C110.114298,8.55506816 109.482223,8.91895664 109.218443,9.52211427 L109.138812,9.52211427 L109.138812,8.6597484 L108.108579,8.6597484 L108.108579,14.0881671 Z M117.999812,7.34376813 L117.999812,8.68467227 L117.108934,8.68467227 L117.108934,9.58691633 L117.999812,9.58691633 L117.999812,12.6525522 C117.999812,13.6993547 118.472624,14.1180757 119.66212,14.1180757 C119.871153,14.1180757 120.065255,14.0931518 120.234472,14.0632432 L120.234472,13.1709687 C120.085163,13.185923 120.000554,13.1958925 119.836314,13.1958925 C119.303778,13.1958925 119.069861,12.9466539 119.069861,12.3783896 L119.069861,9.58691633 L120.284242,9.58691633 L120.284242,8.68467227 L119.069861,8.68467227 L119.069861,7.34376813 L117.999812,7.34376813 Z M121.80819,14.0881671 L122.878239,14.0881671 L122.878239,10.9178509 C122.878239,10.0953633 123.420729,9.54205336 124.296676,9.54205336 C125.102945,9.54205336 125.50608,9.98071346 125.50608,10.8480641 L125.50608,14.0881671 L126.576129,14.0881671 L126.576129,10.5838711 C126.576129,9.29281468 125.879353,8.56005293 124.659995,8.56005293 C123.843772,8.56005293 123.216673,8.92394142 122.952894,9.53208382 L122.868285,9.53208382 L122.868285,6.54121955 L121.80819,6.54121955 L121.80819,14.0881671 Z M130.563678,9.46728176 C131.355017,9.46728176 131.872622,10.0205916 131.897507,10.872988 L129.160172,10.872988 C129.219896,10.0255764 129.77234,9.46728176 130.563678,9.46728176 L130.563678,9.46728176 Z M131.89253,12.6226436 C131.693451,13.0463493 131.2505,13.2806337 130.603494,13.2806337 C129.747455,13.2806337 129.195011,12.6774761 129.160172,11.7253843 L129.160172,11.665567 L132.987463,11.665567 L132.987463,11.291709 C132.987463,9.58691633 132.076678,8.55506816 130.568655,8.55506816 C129.040725,8.55506816 128.070216,9.65670316 128.070216,11.3914044 C128.070216,13.1261057 129.020817,14.1928473 130.573632,14.1928473 C131.812898,14.1928473 132.678891,13.5946744 132.922763,12.6226436 L131.89253,12.6226436 Z" id="Download-on-the" fill="#FFFFFF"></path>
                                    <g id="logo_apple" transform="translate(13.250689, 6.839907)" fill="#FFFFFF">
                                        <path d="M19.7069101,15.3698054 C19.6741084,11.7185841 22.6918592,9.94225307 22.8298523,9.85955399 C21.1207738,7.36385419 18.4717587,7.02286207 17.5408708,6.99567333 C15.3160149,6.76117045 13.1578933,8.32905448 12.0245401,8.32905448 C10.8685652,8.32905448 9.12329177,7.01833062 7.24228747,7.056848 C4.82175278,7.09423252 2.55730864,8.49785124 1.31537074,10.6774819 C-1.24768142,15.1217081 0.663862338,21.6526701 3.11946085,25.2449825 C4.34782566,27.0054534 5.78318011,28.968707 7.66192223,28.8996023 C9.49994507,28.8248333 10.1865173,27.725955 12.4045867,27.725955 C14.6022965,27.725955 15.2470183,28.8996023 17.1630865,28.8542877 C19.1357091,28.8248333 20.377647,27.0881525 21.5630304,25.3118214 C22.9825495,23.2975889 23.5526194,21.3094123 23.5752412,21.2074545 C23.5299976,21.1927273 19.7453672,19.7460597 19.7069101,15.3698054" id="Fill-2"></path>
                                        <path d="M16.0874189,4.63251865 C17.0759924,3.3942981 17.7523849,1.70972906 17.5646238,0.000237004084 C16.1337937,0.0636773983 14.3444077,0.991493164 13.3139839,2.20252498 C12.4023245,3.26968304 11.587939,5.01882533 11.7983219,6.66374413 C13.4056022,6.78382773 15.055864,5.85148051 16.0874189,4.63251865" id="Fill-3"></path>
                                    </g>
                                </g>
                            </g>
                        </g>
                    </g>
                </g>
            </g>
        </g>
    </g>
</svg>