<?xml version="1.0" encoding="UTF-8"?>
<svg width="242px" height="110px" viewBox="0 0 242 110" version="1.1" xmlns="http://www.w3.org/2000/svg" xmlns:xlink="http://www.w3.org/1999/xlink">
    <!-- Generator: Sketch 51.3 (57544) - http://www.bohemiancoding.com/sketch -->
    <title>Illustration</title>
    <desc>Created with Sketch.</desc>
    <defs>
        <polygon id="path-1" points="0.126932143 0.9075 7.43996786 0.9075 7.43996786 8.22018214 0.126932143 8.22018214"></polygon>
    </defs>
    <g id="klassboard" stroke="none" stroke-width="1" fill="none" fill-rule="evenodd">
        <g id="KLASSBOARD-TEST" transform="translate(-777.000000, -96.000000)">
            <g id="Klassboard">
                <g id="Illustration" transform="translate(777.000000, 95.000000)">
                    <polygon id="Fill-1" fill="#392F1D" points="195.420929 99.32175 204.924929 99.32175 204.924929 89.0835 195.420929 89.0835"></polygon>
                    <g id="Group-295" transform="translate(0.000000, 0.271071)">
                        <path d="M232.553471,68.0316214 C231.58115,69.2596929 230.528686,70.4512286 229.390186,71.5873714 C213.255543,87.7267286 187.091257,87.7267286 170.954257,71.5850143 C154.813721,55.4503714 154.813721,29.2849071 170.954257,13.1514429 C172.088043,12.0082286 173.284293,10.9640143 174.512364,9.98344286 L170.347293,5.81837143 C169.132186,6.81308571 167.9489,7.87497857 166.813936,9.01465714 C148.392864,27.4333714 148.392864,57.3019071 166.816293,75.7241571 C185.238543,94.1464071 215.102364,94.1464071 233.52815,75.7241571 C234.663114,74.5903714 235.726186,73.4118 236.723257,72.1966929 L232.553471,68.0316214 Z" id="Fill-2" fill="#6A5D47"></path>
                        <polygon id="Fill-4" fill="#392F1D" points="176.26985 17.1015429 179.113743 14.2611857 168.125921 3.26865 165.283207 6.11607857"></polygon>
                        <g id="Group-8" transform="translate(162.607143, 0.000000)">
                            <mask id="mask-2" fill="white">
                                <use xlink:href="#path-1"></use>
                            </mask>
                            <g id="Clip-7"></g>
                            <path d="M0.126932143,4.563075 C0.126932143,2.54653929 1.76750357,0.907146429 3.78639643,0.907146429 C5.80411071,0.907146429 7.43996786,2.54653929 7.43996786,4.563075 C7.43996786,6.58314643 5.80411071,8.22018214 3.78639643,8.22018214 C1.76750357,8.22018214 0.126932143,6.58314643 0.126932143,4.563075" id="Fill-6" fill="#392F1D" mask="url(#mask-2)"></path>
                        </g>
                        <path d="M223.589964,105.540482 C223.446179,101.932875 220.485607,99.0500893 216.841464,99.0500893 L183.961679,99.0500893 C180.316357,99.0500893 177.353429,101.932875 177.213179,105.540482 L223.589964,105.540482 Z" id="Fill-9" fill="#6A5D47"></path>
                        <polygon id="Fill-11" fill="#392F1D" points="228.145379 63.4726714 225.299129 66.3130286 236.28695 77.3067429 239.132021 74.4604929"></polygon>
                        <path d="M241.680564,76.0123179 C241.680564,78.0288536 240.041171,79.6682464 238.022279,79.6682464 C236.001029,79.6682464 234.367529,78.0288536 234.367529,76.0123179 C234.367529,73.9910679 236.001029,72.351675 238.022279,72.351675 C240.041171,72.351675 241.680564,73.9910679 241.680564,76.0123179" id="Fill-13" fill="#392F1D"></path>
                        <path d="M175.338071,17.2678393 C161.5205,31.090125 161.5205,53.579625 175.335714,67.3995536 C189.158,81.2206607 211.641607,81.2112321 225.462714,67.3948393 C239.281464,53.5760893 239.286179,31.0924821 225.462714,17.2690179 C211.643964,3.45144643 189.158,3.45144643 175.338071,17.2678393" id="Fill-15" fill="#009BDE"></path>
                        <path d="M232.026414,26.6872179 C232.058236,26.7602893 232.061771,26.8651821 232.027593,26.9193964 C231.994593,26.9771464 232.14545,27.1704321 232.185521,27.2116821 C232.223236,27.2576464 232.770093,28.4232536 233.318129,29.7951107 C233.860271,31.1598964 234.825521,34.9831821 234.786629,35.1234321 C234.743021,35.2648607 234.627521,35.8682893 234.458986,36.160575 C234.291629,36.4398964 233.876771,37.2095036 233.747129,37.2201107 C233.617486,37.2307179 233.064736,37.1635393 232.78895,36.746325 L232.296307,36.3444321 L232.047629,36.1417179 C231.776557,36.1228607 231.326343,35.871825 231.041129,35.5877893 C230.762986,35.3084679 230.080593,34.5836464 230.1737,34.4092179 C230.266807,34.2324321 230.150129,33.3378964 229.864914,32.8205036 L229.822486,32.365575 L229.797736,31.9990393 C230.046414,32.0697536 230.139521,32.0131821 229.994557,31.8658607 C229.85195,31.7244321 229.889664,31.2152893 229.956843,31.0255393 C230.022843,30.8275393 230.427093,30.5234679 230.326914,30.3007179 C230.227914,30.0815036 230.022843,29.3201464 230.104164,29.1115393 C230.184307,28.9041107 230.408236,28.2617893 230.295093,28.1356821 C230.186664,28.0142893 230.431807,27.4415036 230.741771,27.1173964 C231.0482,26.7944679 231.991057,26.615325 232.026414,26.6872179" id="Fill-17" fill="#A4CE4C"></path>
                        <path d="M166.322118,51.5160643 C165.611439,48.2903143 165.090511,45.6291 165.167118,45.6031714 C165.244904,45.5760643 165.424046,45.3226714 165.383975,45.1058143 C165.343904,44.8866 165.913154,44.4411 166.038082,44.5424571 C166.160654,44.6414571 166.320939,44.4057429 166.140618,44.0651357 C165.959118,43.7280643 165.356868,43.5171 165.317975,43.4181 C165.283796,43.3167429 165.118796,43.01385 165.283796,42.9820286 C165.445261,42.9537429 166.082868,42.6237429 166.372796,42.7015286 C166.660368,42.7781357 167.411118,42.9160286 167.425261,43.0928143 C167.439404,43.2731357 167.882546,43.2813857 167.864868,43.0810286 C167.844832,42.88185 167.560796,42.3986357 167.465332,42.4646357 C167.371046,42.5341714 166.765261,42.3232071 166.332725,41.8989214 C165.904904,41.4769929 165.815332,40.3561714 165.975618,40.3137429 C166.135904,40.2736714 166.659189,40.3443857 166.745225,39.9872786 C166.826546,39.6242786 167.523082,39.8387786 167.611475,39.66435 C167.697511,39.4911 168.291511,39.0243857 168.422332,38.9937429 C168.549618,38.9631 169.039904,39.1717071 169.180154,39.0326357 C169.319225,38.8959214 169.833082,38.5800643 170.021654,38.6460643 C170.206689,38.70735 170.692261,38.9737071 170.681654,39.0951 C170.671046,39.2094214 170.996332,39.4746 171.190796,39.4133143 C171.385261,39.35085 171.969832,39.1422429 172.074725,39.23535 C172.177261,39.3249214 172.464832,39.2035286 172.503725,39.3225643 C172.543796,39.4427786 172.899725,39.8729571 172.862011,39.9849214 C172.819582,40.0945286 172.912689,40.4186357 172.715868,40.4162786 C172.515511,40.4103857 172.137189,40.7250643 172.286868,40.7557071 C172.437725,40.78635 172.918582,41.2224214 173.001082,41.4498857 C173.088296,41.6820643 173.480761,42.2371714 173.042332,42.2913857 C172.596832,42.3444214 171.294511,42.8005286 171.110654,43.0032429 C170.926796,43.2036 170.656904,42.6190286 170.957439,41.8211357 L170.325725,41.0185286 L169.950939,40.5506357 C169.597368,40.6189929 169.125939,40.72035 168.900832,40.7792786 C168.680439,40.8382071 168.495404,41.3779929 168.313904,41.4286714 C168.137118,41.4852429 167.797689,41.8506 167.927332,41.8058143 C168.056975,41.75985 168.514261,41.9260286 168.653332,42.1169571 C168.791225,42.3078857 169.203725,43.04685 169.082332,43.3049571 C168.965654,43.5701357 168.502475,44.5035643 168.592046,44.5365643 C168.675725,44.5672071 168.874904,45.0091714 168.838368,45.2896714 C168.800654,45.5654571 168.965654,46.5259929 168.998654,46.7746714 C169.036368,47.0245286 169.030475,47.7469929 169.125939,47.8353857 C169.226118,47.9237786 169.209618,48.0887786 169.371082,48.0416357 C169.533725,47.9874214 170.251475,48.5012786 170.541404,48.4223143 C170.840761,48.3445286 171.636296,48.2302071 171.657511,48.1088143 C171.676368,47.9874214 172.027582,47.9944929 171.987511,47.8660286 C171.952154,47.7399214 172.517868,47.8236 172.799546,48.0251357 C173.081225,48.2254929 173.604511,48.2561357 173.375868,47.9567786 C173.149582,47.6550643 173.001082,46.9856357 172.955118,47.0787429 C172.909154,47.1694929 172.594475,46.97385 172.702904,46.8807429 C172.807796,46.79235 172.775975,46.2136714 172.478975,45.8035286 C172.185511,45.3969214 170.864332,44.1311357 170.886725,44.0321357 C170.906761,43.9366714 171.296868,43.7363143 171.447725,43.7811 C171.602118,43.8329571 171.864939,43.4275286 172.099475,43.4876357 C172.325761,43.5489214 172.872618,43.0680643 173.047046,43.2495643 C173.233261,43.4298857 173.803689,43.8141 173.929796,43.7127429 C174.052368,43.6090286 174.315189,43.3214571 174.229154,43.2130286 C174.144296,43.1104929 174.233868,42.9337071 174.539118,43.04685 C174.844368,43.16235 175.700011,43.2130286 175.775439,43.3026 C175.857939,43.3898143 176.126654,43.6208143 176.355296,43.6149214 C176.589832,43.6090286 177.248654,43.9838143 177.273404,43.8612429 C177.294618,43.7363143 177.808475,43.80585 178.000582,43.9802786 C178.189154,44.1558857 179.094296,45.0174214 179.298189,45.1176 C179.502082,45.2107071 180.107868,45.1341 180.222189,45.2672786 C180.340046,45.4051714 180.528618,45.7611 180.324725,45.83535 C180.120832,45.9096 180.038332,46.2525643 179.957011,46.2101357 C179.867439,46.16535 179.597546,46.09935 179.542154,46.2466714 C179.492654,46.3904571 179.003546,46.4317071 178.919868,46.0474929 C178.840904,45.6632786 178.413082,44.9349214 178.374189,45.3120643 C178.332939,45.6927429 177.652904,46.1193857 177.760154,46.1618143 C177.860332,46.1912786 178.073654,46.6238143 177.979368,46.7852786 C177.888618,46.9443857 178.198582,47.3792786 178.393046,47.3674929 C178.592225,47.3521714 179.073082,47.5148143 179.030654,47.79885 C178.987046,48.0722786 178.798475,48.7169571 178.829118,48.6226714 C178.859761,48.5283857 178.422511,48.4977429 178.263404,48.8183143 C178.111368,49.13535 178.076011,50.0122071 178.206832,50.0322429 C178.340011,50.0511 178.654689,50.5979571 178.573368,50.8254214 C178.487332,51.0481714 178.315261,51.8519571 178.361225,52.1029929 C178.404832,52.3504929 179.165011,52.9692429 179.135546,53.0611714 C179.108439,53.1625286 178.949332,53.4571714 179.049511,53.5149214 C179.154404,53.5750286 179.353582,54.3222429 179.236904,54.7253143 C179.123761,55.1295643 179.651761,56.2951714 179.780225,56.3470286 C179.921654,56.3941714 180.364796,56.6169214 180.466154,56.7736714 C180.573404,56.9339571 181.046011,57.5350286 180.786725,57.6210643 C180.530975,57.7082786 179.592832,57.2474571 179.354761,57.3346714 C179.114332,57.4289571 178.506189,57.9357429 178.527404,58.0041 C178.542725,58.0712786 178.506189,58.3058143 178.261046,58.3600286 C178.013546,58.4177786 177.374761,59.1390643 177.337046,59.3476714 C177.295796,59.5562786 177.513832,60.7761 178.076011,61.5916714 C178.641725,62.4048857 180.072511,61.7177786 179.965261,61.51035 C179.856832,61.3064571 179.826189,60.6912429 179.959368,60.5875286 C180.090189,60.4838143 180.701868,60.1632429 180.886904,60.4402071 C181.073118,60.71835 181.773189,61.2722786 182.015975,61.0554214 C182.264654,60.8350286 183.165082,61.1332071 183.410225,61.4879571 C183.656546,61.8379929 184.544011,62.2552071 184.565225,62.0772429 C184.588796,61.8957429 184.837475,61.3901357 184.983618,61.3406357 C185.130939,61.2876 185.557582,61.3571357 185.576439,61.08135 C185.596475,60.7984929 185.381975,59.9310643 185.442082,59.8049571 C185.504546,59.6776714 185.577618,59.3512071 185.728475,59.3759571 C185.881689,59.4066 186.198725,59.20035 186.111511,59.0789571 C186.025475,58.9587429 186.515761,58.6629214 186.757368,58.6464214 C187.006046,58.6346357 187.670761,58.7972786 187.667225,58.7147786 C187.664868,58.6346357 187.996046,58.3553143 188.316618,58.2728143 C188.643082,58.1926714 189.699082,57.9416357 189.957189,58.0712786 C190.214118,58.1926714 191.333761,58.1196 191.899475,58.0017429 C192.462832,57.8850643 193.252475,58.4684571 193.382118,58.4425286 C193.515296,58.4189571 194.026796,58.0866 194.248368,57.9758143 C194.471118,57.8662071 195.171189,57.83085 195.276082,57.7212429 C195.384511,57.6151714 195.863011,57.2474571 196.103439,57.1449214 C196.346225,57.0447429 197.001511,57.03885 196.997975,56.8891714 C196.996796,56.7371357 197.635582,56.8019571 198.015082,56.9940643 L198.378082,57.3617786 L198.610261,57.5892429 C198.756404,57.8379214 198.948511,58.1101714 199.029832,58.2150643 C199.113511,58.3128857 199.231368,59.01885 199.243154,59.2015286 C199.260832,59.3806714 199.566082,59.9393143 199.566082,60.0076714 C199.570796,60.07485 199.493011,60.3400286 199.588475,60.4614214 C199.689832,60.5851714 199.984475,61.1992071 200.280296,61.5716357 C200.584368,61.9476 201.376368,63.0318857 201.324511,63.1733143 C201.266761,63.3112071 200.999225,64.11735 201.042832,64.3012071 C201.080546,64.4827071 201.236118,65.0731714 201.359868,65.2004571 C201.484796,65.3230286 201.794761,65.8687071 201.764118,66.1268143 C201.739368,66.3884571 202.281511,67.2570643 202.270904,67.4043857 C202.263832,67.5481714 202.412332,67.9901357 202.366368,68.0384571 C202.318046,68.0879571 202.274439,68.3177786 202.151868,68.4415286 C202.032832,68.5617429 201.871368,68.9577429 202.077618,69.0378857 C202.288582,69.1203857 202.840154,69.9041357 202.826011,70.1504571 C202.811868,70.3956 202.490118,71.2264929 202.691654,71.4916714 C202.895546,71.7486 202.630368,72.5523857 202.987475,72.7833857 C203.346939,73.0155643 203.831332,73.7168143 203.978654,73.7026714 C204.123618,73.68735 204.609189,74.1858857 204.677546,74.3214214 C204.748261,74.4604929 204.642189,74.9625643 204.688154,75.1629214 C204.734118,75.3668143 205.336368,75.8877429 205.464832,75.8441357 C205.596832,75.8017071 206.103618,76.1776714 206.269796,76.1906357 C206.434796,76.2071357 206.754189,76.2201 206.628082,76.4239929 C206.494904,76.6349571 206.025832,77.1782786 205.884404,77.1936 C205.744154,77.2101 205.379975,77.3644929 205.379975,77.3644929 C205.364654,77.36685 205.270368,77.3421 205.186689,77.3091 C205.101832,77.2749214 204.646904,76.9578857 204.371118,76.8235286 C204.101225,76.6856357 203.172511,76.4086714 202.900261,76.1871 C202.630368,75.9608143 201.521332,75.0874929 201.349261,74.9566714 C201.178368,74.8293857 200.884904,74.3732786 200.785904,74.4322071 C200.692796,74.4852429 200.471225,73.9489929 200.547832,73.7545286 C200.622082,73.5647786 200.111761,73.10985 200.076404,73.2347786 C200.043404,73.3620643 199.227832,72.9413143 198.735189,72.4722429 C198.249618,72.0031714 197.681546,70.6454571 197.305582,70.4014929 C196.940225,70.1539929 196.335618,69.2252786 196.229546,69.1533857 C196.124654,69.0732429 195.805261,68.9624571 195.728654,68.8457786 C195.649689,68.7232071 195.273725,68.2541357 194.944904,68.0749929 C194.618439,67.8852429 193.487011,67.4574214 193.155832,67.4621357 C192.827011,67.46685 191.918332,67.4138143 191.882975,67.3101 C191.845261,67.2087429 191.259511,66.9930643 190.903582,67.0861714 C190.542939,67.1745643 189.595368,66.3153857 189.675511,66.2093143 C189.755654,66.0949929 189.604796,65.8427786 189.429189,65.9087786 C189.251225,65.9747786 188.584154,65.8639929 188.351975,65.7225643 C188.117439,65.5787786 187.379654,64.4261357 187.353725,64.1916 C187.319546,63.9582429 186.758546,63.2239929 186.747939,63.1226357 C186.739689,63.0189214 186.370796,62.6794929 186.165725,62.5934571 C185.959475,62.5097786 185.425582,62.2104214 185.451511,62.3318143 C185.478618,62.4496714 185.290046,62.73135 184.974189,62.7066 C184.652439,62.6747786 183.814475,63.0248143 183.760261,62.9741357 C183.708404,62.9222786 183.434975,62.8008857 183.268796,62.8244571 C183.104975,62.8480286 182.539261,62.7490286 182.391939,62.8008857 C182.254046,62.8515643 181.736654,63.2381357 181.557511,63.1851 C181.372475,63.1308857 180.528618,63.1462071 180.113761,63.40785 C179.693011,63.6706714 178.198582,64.28235 177.875654,64.1798143 C177.553904,64.0725643 176.442511,63.1968857 176.174975,63.1579929 C175.905082,63.1179214 175.130761,63.0424929 175.043546,62.9434929 C174.951618,62.84685 174.893868,63.0637071 175.068296,63.1391357 C175.240368,63.2169214 175.701189,63.7225286 175.586868,63.7425643 C175.469011,63.7673143 174.955154,63.9806357 174.660511,63.8191714 C174.370582,63.6577071 173.565618,63.6624214 173.487832,63.58935 C173.405332,63.5151 173.138975,63.1815643 172.797189,62.9823857 C172.450689,62.7843857 171.492511,62.4744214 171.418261,62.4744214 C171.338118,62.4791357 167.036332,54.7465286 166.322118,51.5160643" id="Fill-19" fill="#A4CE4C"></path>
                        <path d="M165.242546,39.2608071 C165.109368,39.3397714 165.155332,38.2543071 165.349796,36.8435571 C165.539546,35.4363429 166.524832,31.7474143 166.602618,31.6896643 C166.678046,31.6307357 166.813582,31.9536643 166.715761,32.2176643 C166.623832,32.4781286 166.461189,33.2630571 166.557832,33.3007714 C166.655654,33.3384857 166.792368,33.86295 166.705154,34.0373786 C166.619118,34.2106286 166.633261,34.9095214 166.580225,35.1711643 C166.524832,35.4269143 166.093475,36.3025929 166.131189,36.56895 C166.170082,36.8412 166.635618,37.6709143 166.527189,37.7781643 C166.421118,37.8854143 166.216046,38.0645571 166.303261,37.9349143 C166.390475,37.80645 166.711046,38.1246643 166.771154,38.2448786 C166.824189,38.3639143 166.438796,38.92845 166.203082,39.2655214 C165.966189,39.6061286 165.195404,40.5867 165.132939,40.5572357 C165.074011,40.5218786 164.923154,40.4440929 164.932582,40.3344857 C164.939654,40.2284143 165.109368,39.8677714 165.292046,39.7817357 C165.473546,39.6933429 165.375725,39.1747714 165.242546,39.2608071" id="Fill-21" fill="#A4CE4C"></path>
                        <path d="M207.221139,7.72824643 C209.209389,8.183175 210.825211,8.67110357 210.826389,8.81371071 C210.825211,8.95985357 211.122211,9.30988929 211.284854,9.25096071 C211.446318,9.19556786 211.884746,8.89503214 212.121639,8.98106786 C212.360889,9.06356786 213.247175,9.49610357 213.570104,9.742425 C213.890675,9.98403214 214.694461,11.0930679 214.785211,11.4489964 C214.883032,11.804925 215.152925,12.9009964 215.081032,13.0942821 C215.000889,13.2852107 215.412211,14.1608893 215.980282,14.5887107 C216.555425,15.0247821 216.772282,16.3624607 216.558961,16.4284607 C216.350354,16.4897464 215.566604,15.9476036 215.352104,15.9558536 C215.135246,15.9676393 214.680318,15.847425 214.824104,15.9534964 C214.966711,16.0595679 215.004425,16.5875679 215.044496,16.6700679 C215.085746,16.7561036 214.946675,17.0424964 214.982032,17.142675 C215.025639,17.2475679 215.444032,17.5704964 215.596068,17.6176393 C215.749282,17.6636036 216.272568,17.7802821 216.431675,17.8969607 C216.590782,18.0159964 217.177711,18.2682107 217.412246,18.5640321 C217.650318,18.8633893 218.104068,19.6966393 218.104068,19.7638179 C218.109961,19.8298179 218.065175,20.3224607 218.201889,20.731425 C218.344496,21.1392107 218.462354,22.3943893 218.219568,22.6230321 C217.973246,22.8528536 218.200711,23.4668893 218.272604,23.404425 C218.352746,23.338425 218.662711,23.4268179 218.785282,23.6059607 C218.899604,23.7780321 219.247282,24.6890679 219.779996,25.2724607 C220.307996,25.8593893 219.979175,27.2123893 219.889604,27.1310679 C219.798854,27.0532821 219.375746,26.9825679 219.127068,27.0037821 C218.880746,27.0273536 218.320925,27.1074964 218.438782,27.298425 C218.558996,27.4905321 219.129425,28.0279607 219.361604,28.0727464 C219.596139,28.1092821 220.467104,28.1611393 220.785318,28.2412821 C221.107068,28.3202464 221.637425,29.0686393 221.187211,29.096925 C220.740532,29.1193179 219.424068,29.0544964 219.249639,28.9625679 C219.079925,28.8671036 218.580211,28.4157107 218.527175,28.2978536 C218.487104,28.1788179 218.134711,27.7993179 217.950854,27.719175 C217.765818,27.6413893 217.197746,27.611925 217.085782,27.5164607 C216.972639,27.4186393 216.621425,27.1923536 216.428139,27.4021393 C216.227782,27.6142821 215.619639,27.4775679 215.586639,27.3773893 C215.552461,27.2748536 215.044496,26.9248179 214.794639,26.8434964 C214.535354,26.7598179 213.794032,26.7845679 213.699746,26.9908179 C213.607818,27.1970679 213.484068,27.9289607 213.451068,28.1434607 C213.426318,28.3520679 213.924854,29.0533179 213.986139,29.1723536 C214.052139,29.2984607 213.707996,29.6261036 213.779889,29.7015321 C213.851782,29.7687107 213.993211,30.0103179 213.935461,30.0716036 C213.868282,30.136425 213.935461,30.6255321 214.210068,31.0250679 C214.490568,31.4293179 215.129354,32.6043536 215.006782,32.7457821 C214.883032,32.8872107 214.456389,32.8872107 214.351496,32.7811393 C214.239532,32.6750679 213.794032,32.3332821 213.584246,32.264925 C213.381532,32.1965679 212.587175,31.9702821 212.254818,31.7746393 C211.925996,31.5837107 210.974889,31.2937821 210.833461,31.2242464 C210.701461,31.1570679 210.199389,30.8223536 210.060318,30.9048536 C209.917711,30.9908893 209.478104,30.9024964 209.420354,30.8329607 C209.367318,30.7610679 209.003139,30.5607107 208.399711,30.507675 L207.918854,31.1936036 L207.785675,31.3939607 C207.610068,31.316175 207.449782,31.4293179 207.427389,31.6367464 C207.400282,31.8512464 206.832211,32.3438893 206.713175,32.297925 C206.595318,32.2531393 205.903496,32.000925 205.456818,31.9384607 C205.004246,31.8759964 203.815068,32.0409964 203.799746,32.1364607 C203.780889,32.231925 203.820961,32.5466036 203.977711,32.6220321 C204.132104,32.693925 204.696639,32.5348179 204.939425,32.6302821 C205.177496,32.7233893 205.836318,32.9697107 205.864604,32.8047107 C205.894068,32.644425 206.505746,32.3026393 206.777996,32.3745321 C207.047889,32.4428893 207.779782,32.8648179 207.793925,33.0451393 C207.798639,33.2313536 208.285389,33.947925 208.268889,34.1966036 C208.254746,34.442925 208.015496,35.1571393 208.090925,35.2643893 C208.168711,35.3681036 208.053211,36.0009964 207.910604,36.4512107 C207.764461,36.9061393 206.979532,37.957425 206.607104,37.8030321 C206.237032,37.6451036 204.985389,37.2196393 204.564639,37.1100321 C204.143889,37.0016036 202.850996,36.7246393 202.618818,36.5608179 C202.388996,36.4040679 201.954104,36.3993536 202.114389,36.5101393 C202.268782,36.6244607 202.775568,37.0899964 202.971211,37.0947107 C203.172746,37.0947107 203.931746,37.2219964 204.213425,37.280925 C204.502175,37.3481036 205.601782,38.0870679 205.962425,38.0611393 C206.325425,38.0269607 207.445068,38.5137107 207.580604,38.378175 C207.719675,38.237925 208.070889,37.726425 208.062639,37.5508179 C208.052032,37.363425 208.643675,37.0452107 208.880568,37.1960679 C209.117461,37.3528179 209.750354,38.394675 209.918889,38.9816036 C210.082711,39.5767821 210.488139,41.2927821 210.475175,41.488425 C210.453961,41.6840679 210.548246,42.4595679 210.729746,42.7683536 C210.910068,43.0818536 211.713854,44.3087464 212.286639,44.8025679 C212.857068,45.308175 214.021496,47.1102107 214.054496,47.6912464 C214.083961,48.2711036 215.182389,49.9847464 215.114032,50.1120321 C215.049211,50.2404964 215.011496,50.7225321 215.118746,50.8957821 C215.220104,51.0690321 215.728068,51.8303893 215.732782,52.1792464 C215.743389,52.5257464 216.055711,53.8834607 215.947282,54.3855321 C215.836496,54.8899607 214.594282,55.9388893 214.093389,55.6442464 C213.588961,55.348425 212.167604,54.8416393 212.008496,54.6789964 C211.848211,54.5163536 211.069175,53.9141036 210.638996,53.7031393 C210.208818,53.4945321 208.858175,52.9783179 208.559996,52.6082464 C208.260639,52.2393536 207.512246,51.074925 207.196389,50.8203536 C206.882889,50.5681393 205.775032,50.0707821 205.410854,49.8515679 C205.047854,49.6264607 203.832746,48.9004607 203.628854,48.5574964 C203.422604,48.2098179 202.357175,47.3612464 202.287639,47.4897107 C202.222818,47.618175 201.948211,48.0047464 201.753746,48.047175 C201.560461,48.0990321 200.899282,48.4313893 200.687139,48.236925 L200.516246,48.3724607 L200.143818,48.6729964 C200.339461,49.0524964 200.319425,49.5522107 200.090782,49.7843893 C199.858604,50.0165679 199.134961,50.6977821 198.779032,50.769675 C198.423104,50.8415679 197.173818,50.8875321 196.797854,50.720175 C196.417175,50.5492821 195.058282,49.9399607 194.591568,49.4708893 C194.124854,49.0065321 192.829604,47.527425 192.750639,47.2268893 C192.669318,46.9157464 192.095354,45.5709964 192.154282,44.9345679 L192.021104,44.5479964 L191.807782,43.9516393 C191.299818,43.2904607 190.950961,42.5809607 191.022854,42.3699964 C191.092389,42.1602107 190.999282,41.5084607 191.140711,41.414175 C191.282139,41.3198893 191.780675,41.0723893 191.912675,40.7034964 C192.041139,40.333425 192.975746,39.153675 193.095961,38.8708179 C193.218532,38.5867821 193.939818,37.9020321 194.070639,37.9751036 C194.203818,38.0422821 194.253318,38.3274964 194.385318,38.3310321 C194.512604,38.3310321 195.264532,38.6044607 195.715925,38.4347464 C196.166139,38.2662107 197.301104,38.0587821 197.209175,37.8690321 C197.119604,37.6792821 197.592211,36.8837464 198.058925,36.4901036 C198.526818,36.0941036 199.655889,35.2290321 199.512104,34.9827107 C199.362425,34.7446393 199.228068,34.0363179 199.120818,33.9290679 C199.014746,33.824175 198.839139,33.6815679 198.968782,33.8583536 C199.106675,34.0327821 198.740139,34.352175 198.665889,34.2343179 C198.592818,34.1164607 197.904532,34.5902464 197.609889,35.1571393 L197.055961,35.210175 L196.806104,35.2337464 C196.590425,35.1429964 196.320532,34.9827107 196.210925,34.8766393 C196.097782,34.7717464 195.672318,34.2472821 195.628711,34.2897107 C195.586282,34.335675 195.664068,34.6362107 195.906854,34.8495321 C196.160246,35.0640321 196.663496,35.6108893 196.806104,35.490675 C196.942818,35.3645679 197.255139,35.7864964 197.116068,35.9126036 C196.984068,36.0375321 196.590425,35.8713536 196.612818,35.8407107 C196.635211,35.8088893 196.452532,35.8277464 196.334675,35.9679964 C196.213282,36.1117821 195.783104,36.1117821 195.675854,36.0080679 C195.566246,35.8972821 195.117211,35.540175 194.916854,35.4470679 L194.725925,35.3881393 C194.593925,35.3551393 194.295746,35.1960321 194.164925,35.1712821 L193.468389,35.0263179 C192.708211,35.0652107 192.457175,35.1135321 192.901496,35.1312107 C193.352889,35.1488893 194.329925,35.4553179 194.170818,35.4447107 C194.021139,35.4317464 194.109532,35.8513179 194.190854,35.812425 C194.269818,35.7770679 194.456032,36.167175 194.397104,36.3592821 C194.336996,36.554925 194.643425,37.1713179 194.481961,37.2491036 C194.327568,37.3245321 193.957496,36.950925 194.072996,36.8413179 C194.187318,36.7376036 193.878532,36.373425 193.628675,36.3050679 C193.370568,36.2473179 192.649282,36.5266393 192.521996,36.4464964 C192.404139,36.3663536 192.394711,36.6150321 192.754175,36.8224607 C193.112461,37.0228179 192.626889,37.5838179 192.262711,37.3481036 C191.903246,37.1135679 191.431818,36.497175 191.391746,36.7246393 C191.354032,36.9532821 190.785961,37.4753893 190.861389,37.7653179 C190.940354,38.0493536 190.920318,39.0440679 191.124211,39.3740679 C191.328104,39.7052464 191.579139,40.6009607 191.434175,40.6457464 C191.285675,40.6940679 190.888496,41.2479964 190.708175,41.2680321 C190.525496,41.290425 189.931496,41.6817107 189.740568,41.5508893 C189.543746,41.4153536 188.891996,40.886175 188.706961,40.6575321 C188.520746,40.4312464 188.270889,39.5862107 188.442961,39.285675 C188.617389,38.9863179 189.365782,38.4783536 189.342211,38.3663893 C189.316282,38.2449964 189.085282,37.9456393 188.886104,37.9562464 C188.692818,37.9621393 188.029282,37.6097464 187.906711,37.7488179 C187.786496,37.891425 187.419961,37.8525321 187.385782,37.6969607 C187.357496,37.5508179 187.439996,37.0063179 187.404639,36.8036036 C187.365746,36.6020679 187.754675,36.0669964 187.759389,36.0163179 C187.762925,35.9679964 187.437639,36.043425 187.190139,36.3027107 C186.944996,36.5690679 186.415818,37.157175 186.434675,37.0287107 C186.452354,36.8978893 186.371032,36.5018893 186.178925,36.4429607 C185.991532,36.3852107 185.569604,35.7287464 185.681568,35.5932107 C185.793532,35.449425 185.442318,35.0652107 185.362175,35.1135321 C185.291461,35.1536036 184.758746,35.0581393 184.596104,34.8129964 C184.432282,34.566675 183.734568,33.7652464 183.772282,33.6049607 C183.806461,33.4411393 184.216604,33.131175 184.263746,33.2525679 C184.310889,33.3692464 184.411068,33.6709607 184.525389,33.6638893 C184.638532,33.6568179 185.155925,33.6874607 185.417568,33.7558179 C185.676854,33.8206393 186.460604,34.5489964 186.583175,34.5431036 C186.693961,34.5348536 187.060496,34.7010321 187.141818,34.9284964 C187.223139,35.1512464 187.517782,35.6603893 187.368104,35.449425 C187.217246,35.2408179 187.660389,34.640925 187.571996,34.500675 C187.483604,34.3639607 187.377532,33.8559964 187.455318,33.6780321 C187.526032,33.5036036 187.800639,32.9720679 187.707532,32.8742464 C187.620318,32.776425 187.359854,32.801175 187.292675,32.6503179 C187.229032,32.5006393 186.922604,32.033925 186.755246,32.1847821 C186.587889,32.3368179 185.910211,32.0904964 185.679211,31.8571393 C185.444675,31.6237821 184.675068,31.0898893 184.446425,30.7398536 C184.222496,30.3945321 184.474711,29.4834964 184.403996,29.4163179 C184.333282,29.3456036 184.191854,29.096925 184.255496,29.0297464 C184.314425,28.9625679 184.440532,28.7681036 184.382782,28.4828893 C184.320318,28.1988536 183.939639,27.1310679 183.967925,26.7680679 C183.990318,26.4062464 183.958496,25.3620321 183.979711,25.2653893 C183.997389,25.1663893 184.198925,25.0084607 184.214246,24.7762821 C184.223675,24.5452821 184.389854,23.8239964 184.526568,23.6872821 C184.663282,23.5493893 185.177139,23.1969964 185.362175,23.2123179 C185.543675,23.2252821 186.189532,23.2700679 186.380461,23.1604607 C186.573746,23.0555679 187.455318,22.8823179 187.887854,22.6430679 C188.325104,22.4085321 189.098246,22.8410679 189.121818,22.5735321 C189.147746,22.3118893 188.688104,21.531675 188.800068,21.4809964 C188.910854,21.432675 189.284461,21.2570679 189.390532,21.3643179 C189.500139,21.4715679 189.811282,21.5010321 189.841925,21.1875321 C189.876104,20.8811036 190.283889,19.8416036 190.505461,19.5705321 C190.728211,19.2935679 191.227925,18.8940321 191.074711,18.9942107 C190.914425,19.0932107 190.610354,18.4921393 190.827211,18.4108179 C191.045246,18.3271393 191.702889,17.3842821 191.687568,17.0377821 C191.668711,16.688925 191.608604,15.7213179 191.773604,15.6788893 C191.935068,15.6352821 192.327532,15.5233179 192.270961,15.3701036 C192.214389,15.2168893 192.681104,14.9611393 192.809568,15.096675 C192.934496,15.2333893 193.212639,15.2463536 193.167854,15.1061036 C193.126604,14.9682107 193.015818,14.543925 193.239746,14.4791036 C193.466032,14.411925 193.907996,14.1997821 193.733568,14.2528179 C193.562675,14.3058536 193.097139,13.8851036 193.147818,13.7554607 C193.198496,13.6305321 193.308104,13.1814964 193.244461,13.0459607 C193.177282,12.9068893 193.163139,12.431925 193.212639,12.291675 C193.265675,12.1455321 193.481354,11.5515321 193.661675,11.3028536 C193.841996,11.0529964 194.041175,10.3823893 194.156675,10.4047821 C194.272175,10.4295321 194.504354,10.1808536 194.427746,10.0087821 C194.349961,9.83906786 194.741246,9.29928214 194.597461,9.11896071 C194.453675,8.93981786 194.559746,8.50728214 194.724746,8.51435357 C194.892104,8.51906786 195.495532,8.23621071 195.710032,8.04056786 C195.928068,7.84138929 196.400675,7.29688929 196.613996,7.300425 C196.828496,7.30396071 197.433104,7.60096071 197.469639,7.75063929 C197.499104,7.89678214 198.102532,8.10303214 198.527996,7.83785357 L198.774318,7.679925 C198.906318,7.59153214 198.977032,7.41003214 199.110211,7.34638929 L199.375389,7.217925 C199.685354,7.06824643 205.237604,7.28156786 207.221139,7.72824643" id="Fill-23" fill="#A4CE4C"></path>
                        <path d="M216.714179,10.9825179 C216.941643,11.1039107 217.140821,11.224125 217.157321,11.2559464 C217.164393,11.2889464 217.101929,11.3290179 216.997036,11.273625 C216.893321,11.224125 216.681179,11.488125 216.735393,11.694375 C216.788429,11.8947321 216.223893,11.8534821 216.097786,11.644875 C215.969321,11.4362679 215.426,10.8104464 215.523821,10.7479821 C215.621643,10.6843393 216.484357,10.8623036 216.714179,10.9825179" id="Fill-25" fill="#A4CE4C"></path>
                        <path d="M223.058193,22.85745 C223.006336,22.9340571 222.907336,22.84095 222.843693,22.6535571 C222.777693,22.4661643 223.0358,22.0854857 222.871979,21.9393429 C222.71405,21.7932 222.6893,21.3913071 222.834264,21.3418071 C222.975693,21.2875929 223.535514,21.5079857 223.713479,21.4089857 C223.882014,21.3111643 224.276836,21.9204857 224.134229,22.1255571 C223.988086,22.3259143 223.95155,22.8621643 223.850193,22.8209143 C223.750014,22.7796643 223.107693,22.77495 223.058193,22.85745" id="Fill-27" fill="#A4CE4C"></path>
                        <path d="M226.796504,26.64585 C227.032218,26.7047786 227.125325,26.8002429 227.005111,26.86035 C226.888432,26.9133857 226.455896,27.0713143 226.487718,27.2092071 C226.521896,27.3423857 226.440575,27.4684929 225.947932,27.1644214 C225.452932,26.86035 225.252575,25.6676357 225.470611,25.52385 C225.691004,25.39185 226.286182,25.7890286 226.235504,25.9092429 C226.182468,26.0318143 226.558432,26.5857429 226.796504,26.64585" id="Fill-29" fill="#A4CE4C"></path>
                        <path d="M224.766179,26.405775 C224.926464,26.6025964 225.189286,26.9655964 225.355464,27.2119179 C225.520464,27.4558821 225.562893,28.0593107 225.610036,28.0534179 C225.660714,28.0428107 225.737321,28.0758107 225.68075,28.171275 C225.623,28.2655607 225.624179,28.5472393 225.3755,28.5495964 C225.131536,28.5578464 224.320679,29.1919179 224.069643,29.1247393 C223.817429,29.0575607 223.251714,28.2384536 223.396679,27.6857036 C223.539286,27.1364893 222.879286,25.5159536 223.087893,25.424025 C223.298857,25.3297393 223.922321,25.3474179 224.003643,25.481775 C224.0885,25.6196679 224.609429,26.2089536 224.766179,26.405775" id="Fill-31" fill="#A4CE4C"></path>
                        <path d="M226.636454,29.6434286 C226.783775,29.6269286 226.523311,29.8166786 226.064846,30.0641786 C225.604025,30.3175714 224.350025,31.1991429 224.261632,31.0624286 C224.175596,30.9233571 224.320561,30.4283571 224.698882,30.2716071 C225.084275,30.1113214 226.487954,29.6622857 226.636454,29.6434286" id="Fill-33" fill="#A4CE4C"></path>
                        <path d="M219.294543,20.5164536 C219.33815,20.7368464 219.246221,20.8405607 219.087114,20.7533464 C218.930364,20.6590607 218.500186,20.3738464 218.470721,20.1369536 C218.434186,19.896525 219.252114,20.2995964 219.294543,20.5164536" id="Fill-35" fill="#A4CE4C"></path>
                        <path d="M220.558325,21.10515 C220.841182,20.9224714 221.153504,20.9601857 221.247789,21.1794 C221.340896,21.40215 221.459932,21.99615 221.264289,22.0008643 C221.066289,22.0079357 220.271932,21.2807571 220.558325,21.10515" id="Fill-37" fill="#A4CE4C"></path>
                        <path d="M227.774718,23.4668893 C228.158932,23.8888179 227.642718,24.6042107 227.146539,24.674925 C226.670396,24.2400321 227.304468,23.5423179 227.774718,23.4668893" id="Fill-39" fill="#A4CE4C"></path>
                        <path d="M219.037968,14.5792821 C218.923646,14.9163536 218.784575,15.2003893 218.716218,15.2098179 C218.649039,15.2168893 218.458111,15.5209607 218.427468,15.7331036 C218.395646,15.9405321 218.539432,16.5533893 218.375611,16.5840321 C218.209432,16.6087821 217.822861,16.202175 217.915968,16.1126036 C218.007896,16.020675 218.168182,15.896925 218.060932,16.0466036 C217.957218,16.1974607 217.667289,15.7861393 217.701468,15.5244964 C217.740361,15.261675 217.888861,14.3824607 217.897111,14.139675 C217.899468,13.8945321 218.016146,13.1944607 217.973718,13.141425 C217.930111,13.0848536 217.781611,12.7961036 217.589504,12.5922107 C217.399754,12.390675 216.735039,11.8178893 216.795146,11.7566036 C216.856432,11.6953179 217.334932,11.7860679 217.720325,12.0924964 C218.110432,12.3953893 219.151111,14.2351393 219.037968,14.5792821" id="Fill-41" fill="#A4CE4C"></path>
                        <path d="M214.070407,9.73665 C214.526514,9.92522143 214.97555,10.1244 215.423407,10.3353643 C214.997943,10.4426143 214.544193,10.1538643 214.070407,9.73665" id="Fill-43" fill="#A4CE4C"></path>
                        <path d="M220.033507,29.7619929 C219.460721,29.8374214 219.1649,29.8763143 219.375864,29.8515643 C219.582114,29.8244571 219.400614,29.4166714 219.501971,29.4614571 C219.605686,29.5086 220.143114,29.3542071 220.507293,29.4897429 L220.858507,29.5934571 L221.18615,29.68185 C221.7554,29.6417786 222.502614,29.7278143 222.846757,29.8763143 C223.195614,30.0201 223.443114,30.7225286 223.186186,30.7484571 C222.925721,30.7696714 220.603936,29.6936357 220.033507,29.7619929" id="Fill-45" fill="#A4CE4C"></path>
                        <path d="M215.164946,32.0765893 C215.060054,31.7937321 215.137839,31.5733393 215.337018,31.5780536 C215.537375,31.5863036 216.121946,31.9434107 216.170268,32.080125 C216.220946,32.2180179 215.268661,32.3547321 215.164946,32.0765893" id="Fill-47" fill="#A4CE4C"></path>
                        <path d="M216.370036,45.1760571 C216.560964,45.4471286 216.694143,45.7240929 216.68,45.7912714 C216.6635,45.85845 216.815536,46.1094857 216.903929,46.1978786 C216.9935,46.28745 217.336464,46.7023071 217.472,46.9191643 C217.602821,47.1383786 217.910429,48.0505929 217.831464,48.1955571 C217.758393,48.3381643 217.219786,48.5538429 216.999393,48.3723429 C216.776643,48.1896643 215.926893,47.6534143 215.872679,47.5025571 C215.812571,47.3493429 215.525,46.8932357 215.389464,46.8378429 C215.255107,46.7859857 214.828464,46.1189143 214.77425,45.8478429 C214.717679,45.5803071 214.82375,44.7069857 214.684679,44.4642 C214.544429,44.2214143 214.4525,43.7405571 214.649321,43.9220571 C214.841429,44.1035571 216.185,44.9026286 216.370036,45.1760571" id="Fill-49" fill="#A4CE4C"></path>
                        <path d="M206.753836,73.4301857 C206.416764,73.1261143 206.755014,72.6558643 207.089729,73.09665 C206.975407,73.21215 206.869336,73.3194 206.753836,73.4301857" id="Fill-51" fill="#A4CE4C"></path>
                        <path d="M177.885789,37.7927786 C177.978896,38.1145286 178.062575,38.4999214 178.073182,38.6472429 C178.086146,38.7992786 178.079075,39.1540286 177.932932,39.0974571 C177.776182,39.0444214 177.311825,39.3119571 177.201039,39.4203857 C177.092611,39.5252786 176.412575,39.4086 175.932896,38.9171357 C175.440254,38.4244929 173.990611,37.9778143 173.998861,37.7692071 C174.009468,37.5558857 173.672396,37.3343143 173.691254,37.1386714 C173.708932,36.9406714 173.543932,36.5187429 173.291718,36.6342429 C173.030075,36.7568143 172.456111,36.3749571 172.621111,36.2394214 C172.793182,36.1015286 172.532718,35.8057071 172.542146,35.9565643 C172.555111,36.1062429 171.948146,36.2535643 171.836182,36.1192071 C171.726575,35.9777786 171.288146,35.5629214 171.099575,35.5016357 C170.916896,35.4427071 170.190896,35.0384571 169.962254,35.2199571 C169.727718,35.3979214 169.108968,35.7008143 169.144325,35.8233857 C169.172611,35.9377071 168.689396,36.3018857 168.463111,36.4044214 C168.240361,36.5081357 167.765396,36.1215643 167.949254,35.9058857 C168.135468,35.68785 168.477254,35.1704571 168.327575,35.2293857 C168.182611,35.2883143 167.763039,35.63835 167.581539,35.6831357 C167.391789,35.7267429 167.407111,35.9931 167.290432,35.9565643 C167.169039,35.9223857 166.877932,36.0591 166.872039,35.8446 C166.860254,35.6277429 167.273932,35.1516 167.392968,34.8982071 C167.504932,34.6448143 167.510825,34.0402071 167.389432,34.1451 C167.264504,34.2464571 167.007575,33.4544571 167.143111,32.89935 C167.282182,32.3501357 168.295754,30.72135 168.537361,30.4703143 C168.782504,30.2216357 169.572146,29.43435 169.418932,29.3329929 C169.264539,29.2269214 169.022932,28.7378143 169.146682,28.5174214 C169.268075,28.29585 170.016468,27.4732071 170.355896,27.1703143 C170.691789,26.8662429 171.133754,25.9516714 171.245718,25.8715286 C171.352968,25.7913857 171.745432,25.6641 171.847968,25.5002786 C171.951682,25.3329214 172.605789,24.8626714 172.833254,24.6352071 C173.063075,24.4089214 173.573396,24.5538857 173.413111,24.8249571 C173.250468,25.0901357 173.627611,25.6770643 173.708932,25.4543143 C173.796146,25.2256714 174.390146,24.7530643 174.522146,24.7601357 C174.655325,24.7731 175.091396,24.4937786 175.211611,24.3382071 C175.328289,24.1849929 175.625289,24.6210643 175.531004,24.7766357 C175.437896,24.9345643 175.264646,25.4802429 175.303539,25.6299214 C175.344789,25.7831357 175.122039,26.1803143 175.239896,26.2215643 C175.361289,26.2604571 175.688932,26.7684214 175.693646,26.9027786 C175.690111,27.0312429 175.568718,27.23985 175.786754,27.1102071 C176.009504,26.9711357 176.521004,27.3989571 176.378396,27.5498143 C176.232254,27.70185 176.409039,28.3807071 176.926432,28.7036357 C177.441468,29.0242071 177.327146,30.0201 177.457968,30.0236357 C177.594682,30.0307071 177.890504,30.4514571 177.792682,30.4703143 C177.690146,30.4868143 177.625325,30.5504571 177.846896,30.5257071 C178.067289,30.5009571 178.001289,31.0737429 177.758504,31.16685 C177.516896,31.2646714 176.888718,31.6111714 176.896968,31.7089929 C176.908754,31.81035 176.977111,32.0201357 177.248182,31.97535 C177.522789,31.9282071 177.684254,31.6983857 177.678361,31.9458857 C177.665396,32.1933857 177.945896,33.0242786 177.911718,33.3177429 C177.875182,33.6123857 177.548718,34.4927786 177.539289,34.6412786 C177.535754,34.7944929 177.498039,35.3036357 177.453254,35.4521357 C177.413182,35.6041714 176.918182,35.9624571 176.994789,36.0991714 C177.065504,36.2394214 177.792682,37.4733857 177.885789,37.7927786" id="Fill-53" fill="#A4CE4C"></path>
                        <path d="M179.567257,21.7501821 C179.678043,21.6688607 179.912579,21.6028607 180.088186,21.6087536 C180.264971,21.6146464 180.466507,21.2987893 180.789436,21.2080393 C181.114721,21.1184679 181.831293,21.9752893 181.580257,22.1061107 C181.326864,22.2333964 180.750543,22.4973964 180.895507,22.7448964 C181.042829,22.9923964 181.359864,23.7301821 181.233757,23.8586464 C181.114721,23.9906464 180.632686,23.8409679 180.493614,23.9446821 C180.351007,24.0460393 179.957364,23.9517536 179.943221,23.7219321 C179.930257,23.488575 179.496543,23.0195036 179.484757,23.2375393 C179.470614,23.447325 179.082864,23.9364321 179.01215,23.8739679 C178.939079,23.8091464 178.519507,23.5404321 178.362757,23.5840393 C178.193043,23.6323607 177.830043,23.1350036 177.924329,22.7814321 C178.020971,22.4231464 178.61615,22.3642179 178.453507,22.2887893 C178.2944,22.2204321 178.437007,21.6688607 178.669186,21.5616107 C178.900186,21.4543607 179.452936,21.8267893 179.567257,21.7501821" id="Fill-55" fill="#A4CE4C"></path>
                        <path d="M178.965361,20.9520536 C178.879325,20.8719107 179.131539,20.5041964 179.533432,20.1270536 C179.931789,19.754625 181.177539,18.9614464 181.177539,19.1311607 C181.185789,19.2961607 181.109182,19.9785536 180.714361,20.2649464 C180.323075,20.5513393 179.052575,21.0274821 178.965361,20.9520536" id="Fill-57" fill="#A4CE4C"></path>
                        <path d="M185.379618,36.0990536 C185.509261,36.2098393 185.517511,36.4314107 185.409082,36.5905179 C185.299475,36.7449107 185.001296,37.0666607 184.844546,36.9511607 C184.684261,36.8297679 184.368404,36.4231607 184.498046,36.370125 C184.630046,36.3194464 184.374296,35.7820179 184.449725,35.7077679 C184.523975,35.6311607 185.253511,35.9835536 185.379618,36.0990536" id="Fill-59" fill="#A4CE4C"></path>
                        <path d="M181.492218,32.8775464 C181.359039,33.0672964 181.099754,33.142725 180.906468,33.0425464 C180.716718,32.9482607 180.244111,33.2841536 180.204039,33.1356536 C180.165146,32.9895107 179.940039,32.6571536 179.936504,32.7537964 C179.940039,32.8492607 179.670146,32.9459036 179.732611,32.7702964 C179.795075,32.5911536 179.406146,32.0820107 179.573504,32.1020464 C179.742039,32.1161893 180.279468,31.8627964 180.417361,31.7461179 C180.556432,31.6235464 181.072646,31.0778679 181.270646,31.1438679 C181.476896,31.203975 181.963646,31.9394036 181.865825,32.0678679 C181.766825,32.1904393 181.620682,32.6877964 181.492218,32.8775464" id="Fill-61" fill="#A4CE4C"></path>
                        <path d="M187.928986,17.7920679 C187.9172,17.5575321 188.012664,17.0377821 188.137593,16.6347107 C188.258986,16.2339964 188.89895,15.1532464 188.884807,15.1025679 C188.870664,15.0530679 188.862414,14.8527107 188.937843,14.7819964 C189.013271,14.7030321 189.316164,14.7348536 189.437557,15.0236036 C189.55895,15.311175 189.076914,16.3365321 189.095771,16.7113179 C189.115807,17.0955321 188.847093,18.1762821 189.155879,18.3165321 C189.467021,18.4614964 190.246057,18.9706393 190.2107,19.0507821 C190.168271,19.130925 190.013879,19.3984607 189.754593,19.4432464 C189.490593,19.4974607 188.76695,19.469175 188.728057,19.3053536 C188.68445,19.130925 187.940771,18.0242464 187.928986,17.7920679" id="Fill-63" fill="#A4CE4C"></path>
                        <path d="M185.7623,15.2163 C185.230764,14.7448714 185.788229,13.7595857 186.415229,14.3712643 C186.0593,14.6446929 186.343336,15.2398714 185.7623,15.2163" id="Fill-65" fill="#A4CE4C"></path>
                        <path d="M191.369118,9.83270357 C191.265404,9.71248929 191.433939,9.31413214 191.748618,8.95466786 C192.062118,8.59284643 192.735082,8.70481071 192.550046,8.98413214 C192.360296,9.26109643 191.478725,9.955275 191.369118,9.83270357" id="Fill-67" fill="#A4CE4C"></path>
                        <path d="M170.286596,43.9393821 C170.387954,43.9747393 170.205275,44.0572393 169.879989,44.118525 C169.558239,44.1798107 169.951882,45.0884893 169.780989,45.2310964 C169.608918,45.3748821 169.117454,45.0248464 169.119811,44.8598464 C169.118632,44.6913107 169.141025,44.234025 169.255346,44.209275 C169.373204,44.192775 170.185239,43.9016679 170.286596,43.9393821" id="Fill-69" fill="#A4CE4C"></path>
                        <path d="M185.509025,56.534775 C185.600954,56.4404893 185.722346,56.5076679 185.783632,56.6762036 C185.844918,56.8470964 185.509025,57.2006679 185.434775,57.1323107 C185.361704,57.0604179 185.415918,56.625525 185.509025,56.534775" id="Fill-71" fill="#A4CE4C"></path>
                        <path d="M183.286593,58.0505357 C183.154593,58.2520714 182.839914,58.3911429 182.588879,58.3605 C182.3402,58.3345714 181.664879,58.7258571 181.617736,58.9085357 C181.568236,59.0888571 181.109771,59.4282857 181.064986,59.3127857 C181.015486,59.1913929 181.014307,58.6846071 181.245307,58.4571429 C181.475129,58.2226071 182.215271,57.6156429 182.379093,57.6038571 C182.542914,57.5979643 183.050879,57.4895357 183.1487,57.4588929 C183.245343,57.4294286 183.73445,57.4966071 183.980771,57.21375 C184.230629,56.9308929 185.056807,57.3398571 184.874129,57.4753929 C184.697343,57.6109286 184.694986,58.0175357 184.546486,58.0305 C184.395629,58.0363929 183.914771,58.3498929 183.776879,58.28625 C183.628379,58.2214286 183.415057,57.8513571 183.286593,58.0505357" id="Fill-73" fill="#A4CE4C"></path>
                        <path d="M183.499561,58.8516107 C183.663382,58.8457179 183.729382,58.9046464 183.637454,58.9871464 C183.554954,59.0661107 183.249704,59.4562179 183.181346,59.3866821 C183.109454,59.318325 183.333382,58.8669321 183.499561,58.8516107" id="Fill-75" fill="#A4CE4C"></path>
                        <path d="M181.741957,57.5677929 C181.683029,57.6279 181.5746,57.6161143 181.497993,57.5477571 C181.427279,57.47115 181.345957,57.2460429 181.476779,57.1941857 C181.6076,57.1435071 181.804421,57.5065071 181.741957,57.5677929" id="Fill-77" fill="#A4CE4C"></path>
                        <path d="M182.118982,56.9595321 C181.959875,56.816925 181.866768,56.6625321 181.910375,56.6165679 C181.953982,56.5729607 182.164946,56.4833893 182.266304,56.5246393 C182.368839,56.5670679 182.276911,57.1080321 182.118982,56.9595321" id="Fill-79" fill="#A4CE4C"></path>
                        <path d="M183.197964,57.0186964 C183.16025,57.1035536 183.047107,57.0917679 182.954,57.0010179 C182.869143,56.9114464 182.737143,56.6368393 182.867964,56.5849821 C182.996429,56.5307679 183.426607,56.6533393 183.499679,56.557875 C183.57275,56.4647679 183.738929,56.6604107 183.672929,56.879625 C183.603393,57.0917679 183.247464,56.9432679 183.197964,57.0186964" id="Fill-81" fill="#A4CE4C"></path>
                        <path d="M230.69015,24.2264786 C230.925864,24.6354429 231.031936,24.8829429 230.931757,24.7804071 C230.824507,24.6743357 230.231686,24.4398 229.839221,24.4845857 C229.447936,24.5329071 228.361293,24.7356214 228.310614,24.9053357 C228.258757,25.0774071 228.020686,24.9194786 228.057221,24.8051571 C228.093757,24.6967286 227.938186,24.3938357 228.057221,24.4209429 C228.179793,24.4539429 228.485043,24.0567643 228.513329,23.9412643 C228.547507,23.8281214 228.588757,23.4321214 228.697186,23.3272286 C228.803257,23.2176214 229.191007,22.9005857 229.319471,22.8652286 C229.446757,22.8275143 230.456793,23.8245857 230.69015,24.2264786" id="Fill-83" fill="#A4CE4C"></path>
                        <path d="M166.172557,38.7779464 C166.123057,38.7779464 166.099486,38.9559107 166.187879,38.9559107 C166.238557,38.9724107 166.264486,38.7920893 166.172557,38.7779464" id="Fill-85" fill="#D0EAF9"></path>
                        <path d="M177.224493,44.2789286 C177.172636,44.2647857 177.146707,44.4521786 177.2351,44.4639643 C177.290493,44.4639643 177.316421,44.2789286 177.224493,44.2789286" id="Fill-87" fill="#D0EAF9"></path>
                        <path d="M97.5690929,90.031425 L31.9874857,90.031425 C29.9721286,90.031425 28.33745,88.3967464 28.33745,86.3813893 L28.33745,81.8262107 C28.33745,79.809675 29.9721286,78.1749964 31.9874857,78.1749964 L97.5690929,78.1749964 C99.58445,78.1749964 101.219129,79.809675 101.219129,81.8262107 L101.219129,86.3813893 C101.219129,88.3967464 99.58445,90.031425 97.5690929,90.031425" id="Fill-89" fill="#DF706B"></path>
                        <polygon id="Fill-91" fill="#BF5352" points="86.5963571 90.0310714 89.1314643 90.0310714 89.1314643 78.1746429 86.5963571 78.1746429"></polygon>
                        <path d="M52.4817821,84.1016786 C52.4817821,85.9284643 51.0003179,87.4111071 49.1735321,87.4111071 C47.3467464,87.4111071 45.8641036,85.9284643 45.8641036,84.1016786 C45.8641036,82.2737143 47.3467464,80.79225 49.1735321,80.79225 C51.0003179,80.79225 52.4817821,82.2737143 52.4817821,84.1016786" id="Fill-93" fill="#BF5352"></path>
                        <path d="M105.789157,103.290354 L39.6100143,103.290354 C37.7573,103.290354 36.2558,101.788854 36.2558,99.9373179 L36.2558,93.3832821 C36.2558,91.5305679 37.7573,90.0290679 39.6100143,90.0290679 L105.789157,90.0290679 C107.640693,90.0290679 109.143371,91.5305679 109.143371,93.3832821 L109.143371,99.9373179 C109.143371,101.788854 107.640693,103.290354 105.789157,103.290354" id="Fill-94" fill="#1F5166"></path>
                        <polygon id="Fill-95" fill="#367184" points="43.0163214 101.307643 45.3864286 101.307643 45.3864286 92.0098929 43.0163214 92.0098929"></polygon>
                        <polygon id="Fill-96" fill="#367184" points="47.5113929 101.307643 49.8791429 101.307643 49.8791429 92.0098929 47.5113929 92.0098929"></polygon>
                        <polygon id="Fill-97" fill="#367184" points="94.0508214 101.307643 96.4209286 101.307643 96.4209286 92.0098929 94.0508214 92.0098929"></polygon>
                        <polygon id="Fill-98" fill="#367184" points="98.5458929 101.307643 100.913643 101.307643 100.913643 92.0098929 98.5458929 92.0098929"></polygon>
                        <path d="M111.005279,78.2554929 L47.4849929,78.2554929 C45.8397071,78.2554929 44.5067429,76.8199929 44.5067429,75.0486 L44.5067429,68.4768857 C44.5067429,66.7054929 45.8397071,65.2699929 47.4849929,65.2699929 L111.005279,65.2699929 C111.461386,65.2699929 111.830279,65.6671714 111.830279,66.1586357 L111.830279,77.36685 C111.830279,77.8583143 111.461386,78.2554929 111.005279,78.2554929" id="Fill-99" fill="#E78045"></path>
                        <path d="M111.830514,76.3990071 L48.8818357,76.3990071 C47.8824071,76.3990071 47.0727286,75.5256857 47.0727286,74.44965 L47.0727286,69.0753643 C47.0727286,67.9993286 47.8824071,67.1260071 48.8818357,67.1260071 L111.830514,67.1260071 L111.830514,76.3990071 Z" id="Fill-100" fill="#FEFEFE"></path>
                        <path d="M49.9261679,70.9043893 C69.4338821,70.2879964 88.9439536,70.1383179 108.459918,70.4577107 C109.300239,70.470675 109.300239,69.1659964 108.459918,69.1518536 C88.9439536,68.8336393 69.4338821,68.9821393 49.9261679,69.5985321 C49.0882036,69.6256393 49.0846679,70.9303179 49.9261679,70.9043893" id="Fill-101" fill="#F5E9DD"></path>
                        <path d="M49.9261679,73.5192857 C69.4338821,72.9028929 88.9439536,72.7532143 108.459918,73.0726071 C109.300239,73.0855714 109.300239,71.7797143 108.459918,71.76675 C88.9439536,71.4473571 69.4338821,71.5970357 49.9261679,72.2134286 C49.0882036,72.2405357 49.0846679,73.5452143 49.9261679,73.5192857" id="Fill-102" fill="#F5E9DD"></path>
                        <path d="M49.9261679,76.1319429 C69.4338821,75.51555 88.9439536,75.36705 108.459918,75.6852643 C109.300239,75.6994071 109.300239,74.39355 108.459918,74.3794071 C88.9439536,74.0611929 69.4338821,74.2096929 49.9261679,74.8260857 C49.0882036,74.8531929 49.0846679,76.1578714 49.9261679,76.1319429" id="Fill-103" fill="#F5E9DD"></path>
                        <path d="M126.169604,97.6949679 C126.485461,97.6325036 126.769496,97.4792893 127.057068,97.3366821 L126.468961,99.4475036 L126.169604,97.6949679 Z" id="Fill-104" fill="#EC4A3F"></path>
                        <path d="M125.131989,92.3690036 C125.388918,92.9252893 125.889811,92.8734321 126.074846,91.8032893 C126.416632,93.1056107 127.175632,93.1739679 127.637632,91.8386464 C127.676525,93.1044321 128.394275,92.7697179 128.540418,92.4845036 L127.057775,97.3366821 C126.770204,97.4792893 126.484989,97.6325036 126.169132,97.6949679 L125.131989,92.3690036 Z" id="Fill-105" fill="#EC4A3F"></path>
                        <path d="M125.980325,92.1899786 C126.016861,92.0791929 126.048682,91.9507286 126.074611,91.8022286 C126.416396,93.10455 127.175396,93.1729071 127.637396,91.8387643 C127.676289,93.10455 128.394039,92.7698357 128.540182,92.4846214 L130.628611,50.1703714 L129.695182,50.13855 L128.133575,50.0855143 L127.220182,50.0548714 L125.131754,92.3691214 C125.353325,92.8476214 125.755218,92.8747286 125.980325,92.1899786" id="Fill-106" fill="#EC4A3F"></path>
                        <path d="M126.074611,91.8027 C126.244325,92.4473786 126.515396,92.7879857 126.801789,92.8080214 L126.567254,97.5682714 C126.438789,97.6213071 126.306789,97.66845 126.170075,97.6955571 L125.131754,92.3684143 C125.388682,92.9247 125.889575,92.8740214 126.074611,91.8027" id="Fill-107" fill="#EC4A3F"></path>
                        <polygon id="Fill-108" fill="#EC4A3F" points="127.270507 49.0391786 127.219829 50.0539286 130.629436 50.1694286 130.678936 49.1546786"></polygon>
                        <polygon id="Fill-109" fill="#EC4A3F" points="127.270507 49.0391786 127.219829 50.0539286 128.979436 50.1140357 129.028936 49.0981071"></polygon>
                        <path d="M126.84575,92.8063714 C127.125071,92.7934071 127.415,92.4799071 127.63775,91.8387643 C127.676643,93.10455 128.394393,92.7698357 128.540536,92.4846214 L130.628964,50.1703714 L129.695536,50.13855 L128.953036,50.1126214 L126.84575,92.8063714 Z" id="Fill-110" fill="#EC4A3F"></path>
                        <polygon id="Fill-111" fill="#EC4A3F" points="130.730204 49.2187929 130.980061 44.1509357 130.046632 44.1191143 128.485025 44.0660786 127.571632 44.0354357 127.321775 49.1032929"></polygon>
                        <polygon id="Fill-112" fill="#EC4A3F" points="130.730204 49.2187929 130.980061 44.1509357 130.046632 44.1191143 129.305311 44.0943643 129.054275 49.1622214"></polygon>
                        <path d="M121.652729,41.3842393 C121.341586,41.4643821 121.0658,41.6329179 120.786479,41.7932036 L121.253193,39.6517393 L121.652729,41.3842393 Z" id="Fill-113" fill="#B1D79A"></path>
                        <path d="M122.993,46.6423179 C122.70425,46.1025321 122.208071,46.1814964 122.084321,47.2610679 C121.668286,45.9811393 120.906929,45.9552107 120.521536,47.3152821 C120.41075,46.0530321 119.713036,46.4278179 119.583393,46.7212821 L120.786714,41.7924964 C121.066036,41.6333893 121.341821,41.4648536 121.652964,41.3847107 L122.993,46.6423179 Z" id="Fill-114" fill="#FEFEFE"></path>
                        <path d="M122.156214,46.869075 C122.12675,46.9810393 122.102,47.1118607 122.084321,47.2615393 C121.668286,45.9816107 120.906929,45.9556821 120.521536,47.314575 C120.41075,46.0535036 119.713036,46.4282893 119.583393,46.7217536 L119.919286,89.0866821 L120.852714,89.0642893 L122.4155,89.0277536 L123.328893,89.0065393 L122.993,46.6427893 C122.7455,46.1772536 122.342429,46.1725393 122.156214,46.869075" id="Fill-115" fill="#B1D79A"></path>
                        <path d="M122.084321,47.2610679 C121.87925,46.628175 121.588143,46.3028893 121.300571,46.2993536 L121.262857,41.5343893 C121.388964,41.4731036 121.517429,41.4188893 121.652964,41.3847107 L122.993,46.6423179 C122.70425,46.1025321 122.208071,46.1814964 122.084321,47.2610679" id="Fill-116" fill="#FEFEFE"></path>
                        <polygon id="Fill-117" fill="#B1D79A" points="123.335964 90.0234107 123.328893 89.0074821 119.919286 89.0864464 119.926357 90.102375"></polygon>
                        <polygon id="Fill-118" fill="#B1D79A" points="123.335964 90.0234107 123.328893 89.0074821 121.568107 89.0475536 121.576357 90.0646607"></polygon>
                        <path d="M121.256729,46.30395 C120.978586,46.3322357 120.706336,46.6622357 120.5213,47.3151643 C120.410514,46.0529143 119.7128,46.4277 119.583157,46.7211643 L119.91905,89.0860929 L120.852479,89.0648786 L121.594979,89.0472 L121.256729,46.30395 Z" id="Fill-119" fill="#B1D79A"></path>
                        <polygon id="Fill-120" fill="#B1D79A" points="119.871554 90.0417964 119.911625 95.1155464 120.845054 95.0943321 122.407839 95.0577964 123.321232 95.0365821 123.281161 89.9628321"></polygon>
                        <polygon id="Fill-121" fill="#B1D79A" points="119.871554 90.0417964 119.911625 95.1155464 120.845054 95.0943321 121.588732 95.0766536 121.547482 90.0029036"></polygon>
                        <path d="M121.523793,92.3292857 C121.503757,92.3245714 121.4849,92.3210357 121.466043,92.3127857 C121.4849,92.3198571 121.503757,92.3245714 121.523793,92.3292857 Z M121.669936,92.3351786 C121.651079,92.3387143 121.632221,92.3410714 121.612186,92.3410714 C121.632221,92.3410714 121.651079,92.3387143 121.669936,92.3351786 Z M121.7984,92.2774286 C121.7819,92.2903929 121.7654,92.2986429 121.747721,92.3068929 C121.7654,92.2986429 121.7819,92.2903929 121.7984,92.2774286 Z M121.904471,92.1536786 C121.892686,92.1737143 121.878543,92.1878571 121.865579,92.2055357 C121.878543,92.1878571 121.892686,92.1737143 121.904471,92.1536786 Z M121.983436,91.9603929 C121.977543,91.9780714 121.970471,91.9898571 121.965757,92.0063571 C121.970471,91.9898571 121.977543,91.9780714 121.983436,91.9603929 Z M121.364686,92.2562143 C121.347007,92.2444286 121.330507,92.2373571 121.312829,92.2232143 C121.330507,92.2361786 121.347007,92.2456071 121.364686,92.2562143 Z M122.022329,91.69875 C122.030579,91.5844286 122.031757,91.4559643 122.019971,91.3074643 C122.031757,91.4559643 122.030579,91.5844286 122.022329,91.69875 Z M115.811257,48.7857857 L115.914971,48.7692857 L114.969757,44.3048571 L114.780007,44.3378571 L114.420543,42.6383571 C114.375757,42.4250357 113.541329,42.4580357 112.711614,42.5971071 C112.7069,42.5971071 112.702186,42.5982857 112.696293,42.5994643 C112.618507,42.6124286 112.5419,42.62775 112.465293,42.6418929 C112.435829,42.6477857 112.406364,42.6525 112.375721,42.6583929 C112.300293,42.6737143 112.227221,42.6902143 112.15415,42.7067143 C112.125864,42.7137857 112.0964,42.7196786 112.069293,42.72675 C111.995043,42.7444286 111.925507,42.7632857 111.85715,42.7821429 C111.8324,42.7880357 111.806471,42.7951071 111.7829,42.8021786 C111.720436,42.8198571 111.662686,42.8375357 111.606114,42.8563929 C111.580186,42.8646429 111.5519,42.8740714 111.525971,42.8823214 C111.475293,42.9 111.431686,42.9188571 111.3869,42.9365357 C111.363329,42.9459643 111.336221,42.9553929 111.313829,42.966 C111.274936,42.9836786 111.245471,43.0013571 111.21365,43.0190357 C111.194793,43.0296429 111.171221,43.04025 111.154721,43.0508571 C111.125257,43.0708929 111.107579,43.08975 111.087543,43.1086071 C111.079293,43.1180357 111.06515,43.1262857 111.059257,43.1345357 C111.039221,43.1628214 111.029793,43.1899286 111.035686,43.2170357 L111.39515,44.9165357 L111.187721,44.9518929 L112.132936,49.4151429 L113.5484,49.1723571 L113.118221,49.2466071 L112.132936,49.4151429 L121.161971,92.07825 L123.690007,97.1649643 L124.477293,98.8467857 L124.544471,96.6122143 L124.840293,91.4488929 L115.811257,48.7857857 Z" id="Fill-122" fill="#3D9EB4"></path>
                        <path d="M136.323232,50.7771 L129.870554,94.6046357 C129.834018,94.8533143 130.498732,95.0772429 131.192911,95.1833143 L131.192911,95.1844929 C131.197625,95.1844929 131.202339,95.1856714 131.207054,95.1856714 C131.270696,95.1951 131.334339,95.20335 131.397982,95.2104214 C131.425089,95.2139571 131.451018,95.2174929 131.476946,95.21985 C131.540589,95.2269214 131.601875,95.2316357 131.663161,95.2351714 C131.689089,95.2375286 131.715018,95.2398857 131.740946,95.2410643 C131.799875,95.2446 131.855268,95.2457786 131.911839,95.2457786 C131.937768,95.2469571 131.966054,95.2481357 131.990804,95.2481357 C132.043839,95.2481357 132.093339,95.2446 132.142839,95.2422429 C132.167589,95.2410643 132.193518,95.2410643 132.217089,95.2398857 C132.261875,95.2351714 132.300768,95.2292786 132.342018,95.2233857 C132.364411,95.21985 132.390339,95.2174929 132.411554,95.2139571 C132.446911,95.2068857 132.475196,95.1962786 132.505839,95.18685 C132.524696,95.1809571 132.547089,95.1762429 132.564768,95.17035 C132.594232,95.1573857 132.614268,95.1420643 132.635482,95.1267429 C132.644911,95.1196714 132.660232,95.1149571 132.667304,95.1067071 C132.693232,95.0819571 132.709732,95.05485 132.713268,95.0230286 L139.165946,51.1954929 L136.323232,50.7771 Z" id="Fill-123" fill="#C5BD6B"></path>
                        <path d="M130.098961,94.4119393 L130.309925,92.9752607 L132.698889,93.326475 L132.486746,94.7631536 C132.433711,95.1226179 130.044746,94.7796536 130.098961,94.4119393" id="Fill-124" fill="#402E7F"></path>
                        <path d="M131.4674,93.1453286 L132.697829,93.3268286 L132.486864,94.7635071 C132.459757,94.9461857 131.824507,94.9461857 131.216364,94.8542571 L131.4674,93.1453286 Z" id="Fill-125" fill="#2D2669"></path>
                        <path d="M139.286396,51.8336893 L136.278682,51.391725 L138.869182,38.1198321 L140.320004,38.3331536 C140.320004,38.3331536 140.730146,44.9095821 139.286396,51.8336893" id="Fill-126" fill="#EC4A3F"></path>
                        <path d="M139.286396,51.8336893 L136.278682,51.391725 L138.869182,38.1198321 L140.320004,38.3331536 C140.320004,38.3331536 140.730146,44.9095821 139.286396,51.8336893" id="Fill-127" fill="#B13731"></path>
                        <path d="M135.876671,51.3319714 L137.822493,51.6183643 L139.784814,38.2545429 L138.602707,38.0801143 C138.602707,38.0801143 136.567314,44.2970786 135.876671,51.3319714" id="Fill-128" fill="#EC4A3F"></path>
                        <path d="M138.868593,38.1195964 C137.867986,37.3558821 133.329307,57.3892393 134.247414,58.0952036 C135.697057,53.9042036 139.9847,38.9728821 138.868593,38.1195964" id="Fill-129" fill="#EC4A3F"></path>
                        <path d="M137.875882,51.2519464 C137.851132,51.4228393 137.714418,51.5454107 137.571811,51.5230179 L134.835168,51.121125 C134.692561,51.0999107 134.595918,50.9443393 134.621846,50.7722679 C134.646596,50.601375 134.783311,50.4799821 134.925918,50.5011964 L137.662561,50.9042679 C137.805168,50.9254821 137.900632,51.0810536 137.875882,51.2519464" id="Fill-130" fill="#EC4A3F"></path>
                        <path d="M139.632779,51.5102893 C139.608029,51.6823607 139.471314,51.8037536 139.328707,51.7825393 L138.090029,51.5998607 C137.946243,51.5786464 137.850779,51.423075 137.875529,51.2521821 C137.901457,51.0812893 138.038171,50.9587179 138.180779,50.9799321 L139.419457,51.1626107 C139.562064,51.183825 139.657529,51.3393964 139.632779,51.5102893" id="Fill-131" fill="#B13731"></path>
                        <path d="M142.246614,55.9328786 L140.589543,55.7808429 L136.171079,99.9254143 C136.167543,99.9572357 136.17815,99.9867 136.199364,100.017343 C136.206436,100.02795 136.221757,100.037379 136.231186,100.046807 C136.251221,100.066843 136.267721,100.0857 136.296007,100.104557 C136.311329,100.113986 136.333721,100.123414 136.3514,100.132843 C136.383221,100.150521 136.412686,100.1682 136.451579,100.1847 C136.472793,100.19295 136.4999,100.2012 136.522293,100.20945 C136.564721,100.22595 136.60715,100.24245 136.65665,100.256593 C136.6814,100.264843 136.710864,100.271914 136.736793,100.278986 C136.791007,100.294307 136.844043,100.30845 136.902971,100.322593 C136.926543,100.327307 136.952471,100.332021 136.976043,100.336736 C137.042043,100.350879 137.108043,100.365021 137.177579,100.376807 C137.203507,100.381521 137.231793,100.385057 137.2589,100.389771 C137.328436,100.401557 137.397971,100.412164 137.471043,100.422771 C137.500507,100.425129 137.529971,100.428664 137.559436,100.4322 C137.63015,100.44045 137.702043,100.4487 137.773936,100.454593 C137.77865,100.455771 137.784543,100.45695 137.789257,100.45695 L137.789257,100.455771 C138.576543,100.525307 139.360293,100.472271 139.386221,100.221236 L143.804686,56.0766643 L142.246614,55.9328786 Z" id="Fill-132" fill="#F076AD"></path>
                        <path d="M139.187986,99.9773893 L139.33295,98.5301036 L136.631664,98.281425 L136.4867,99.7287107 C136.451343,100.090532 139.150271,100.348639 139.187986,99.9773893" id="Fill-133" fill="#402E7F"></path>
                        <path d="M138.023793,98.4097714 L136.6319,98.2813071 L136.486936,99.7285929 C136.469257,99.91245 137.162257,100.070379 137.851721,100.131664 L138.023793,98.4097714 Z" id="Fill-134" fill="#2D2669"></path>
                        <path d="M140.291129,56.3702464 L143.692486,56.6837464 L144.335986,43.1596393 L142.694236,43.0076036 C142.694236,43.0076036 140.525664,49.2917464 140.291129,56.3702464" id="Fill-135" fill="#402E7F"></path>
                        <path d="M140.291129,56.3702464 L143.692486,56.6837464 L144.335986,43.1596393 L142.694236,43.0076036 C142.694236,43.0076036 140.525664,49.2917464 140.291129,56.3702464" id="Fill-136" fill="#3A3862"></path>
                        <path d="M144.147414,56.7258214 L141.947021,56.5231071 L143.300021,43.0638214 L144.636521,43.1863929 C144.636521,43.1863929 145.232879,49.7251071 144.147414,56.7258214" id="Fill-137" fill="#524B7D"></path>
                        <path d="M144.336221,43.15905 C145.629114,42.6652286 145.345079,63.2360143 144.158257,63.6944786 C143.670329,59.2677643 142.892471,43.7106214 144.336221,43.15905" id="Fill-138" fill="#524B7D"></path>
                        <path d="M141.984264,56.1538607 C141.966586,56.3259321 142.083264,56.4779679 142.245907,56.4932893 L145.340836,56.7785036 C145.5023,56.7926464 145.647264,56.6665393 145.664943,56.4932893 C145.682621,56.3212179 145.564764,56.1691821 145.4033,56.1538607 L142.308371,55.8686464 C142.146907,55.8545036 142.000764,55.9817893 141.984264,56.1538607" id="Fill-139" fill="#524B7D"></path>
                        <path d="M139.996486,55.9708286 C139.979986,56.1429 140.096664,56.2949357 140.259307,56.3102571 L141.65945,56.4387214 C141.820914,56.4540429 141.967057,56.3267571 141.984736,56.1535071 C142.001236,55.9814357 141.883379,55.8294 141.721914,55.8152571 L140.320593,55.6856143 C140.159129,55.6702929 140.014164,55.7987571 139.996486,55.9708286" id="Fill-140" fill="#3A3862"></path>
                        <path d="M143.559307,75.1928571 L115.215843,75.1928571 L115.215843,102.833893 C115.215843,106.6725 118.09745,109.785107 121.652021,109.785107 L137.3117,109.785107 C140.341807,109.785107 142.875736,107.519893 143.559307,104.473286 L143.559307,75.1928571 Z" id="Fill-141" fill="#FEC54E"></path>
                        <path d="M143.559307,75.1928571 L115.215843,75.1928571 L115.215843,102.833893 C115.215843,106.6725 118.09745,109.785107 121.652021,109.785107 L137.3117,109.785107 C140.341807,109.785107 142.875736,107.519893 143.559307,104.473286 L143.559307,75.1928571 Z" id="Fill-142" fill="#524B7D"></path>
                        <path d="M136.979343,75.1928571 L136.979343,109.785107 L137.3117,109.785107 C140.341807,109.785107 142.875736,107.519893 143.559307,104.473286 L143.559307,75.1928571 L136.979343,75.1928571 Z" id="Fill-143" fill="#3A3862"></path>
                        <path d="M10.2932857,49.962825 C7.41521429,51.1001464 12.8861429,51.6175393 14.2438571,49.9651821 C16.3240357,47.4312536 12.7235,46.0157893 13.7571071,47.7706821 C14.3793929,48.8278607 16.0293929,47.8685036 15.4035714,46.8077893 C14.3063214,44.9456464 12.9922143,42.9727179 10.7234643,42.496575 C8.88371429,42.1100036 7.18421429,43.0882179 6.27082143,44.6651464 C4.47585714,47.7671464 6.51478571,53.4950036 10.8000714,51.802575 C11.9291429,51.357075 11.4376786,49.5114321 10.2932857,49.962825" id="Fill-267" fill="#63873B"></path>
                        <path d="M26.1694679,59.2124893 C26.6809679,58.5053464 23.5459679,60.9284893 24.1812179,61.270275 C25.1464679,61.7888464 23.028575,61.3551321 23.0108964,62.4535607 C22.9731821,64.7989179 27.4800393,65.873775 25.4752893,64.5266679 C24.4534679,63.8395607 23.4976464,65.4919179 24.5123964,66.1731321 C27.9903607,68.5114179 32.6044679,65.1112393 32.1188964,61.1429893 C31.7205393,57.8901321 26.8141464,55.082775 24.5230036,58.250775 C23.8017179,59.2466679 25.4564321,60.1989536 26.1694679,59.2124893" id="Fill-268" fill="#63873B"></path>
                        <path d="M14.4544679,75.438 C17.402075,75.3731786 21.3597179,75.2600357 21.3597179,75.2600357 C20.9931821,76.4350714 22.8341107,76.9371429 23.1994679,75.7668214 C25.2183607,69.3070714 31.2149321,42.3991071 16.0478964,46.6973571 C3.88503929,50.1435 7.36771786,69.4626429 13.1061821,76.7874643 C13.862825,77.7515357 15.2040393,76.3938214 14.4544679,75.438" id="Fill-269" fill="#6DA041"></path>
                        <path d="M4.977575,44.7893679 C5.49378929,45.1594393 6.01118214,45.5306893 6.528575,45.9019393 C6.94696786,46.202475 7.59046786,45.9750107 7.83325357,45.5601536 C8.11493214,45.080475 7.91103929,44.5560107 7.49146786,44.255475 C6.974075,43.884225 6.45668214,43.512975 5.94046786,43.1429036 C5.52089643,42.8423679 4.878575,43.0698321 4.63461071,43.4846893 C4.35528929,43.9643679 4.55800357,44.4876536 4.977575,44.7893679" id="Fill-270" fill="#35332D"></path>
                        <path d="M19.801175,46.1641714 C19.8801393,46.4717786 19.8683536,46.7452071 19.7799607,47.0504571 C19.4393536,48.2325643 21.2791036,48.7369929 21.6185321,47.5584214 C21.8000321,46.9290643 21.8023893,46.2891 21.640925,45.6573857 C21.3368536,44.4693857 19.495925,44.9726357 19.801175,46.1641714" id="Fill-271" fill="#35332D"></path>
                        <path d="M5.80516786,61.0280786 C6.39681071,61.3957929 7.06034643,61.5772929 7.754525,61.5855429 C8.98259643,61.5973286 8.983775,59.6904 7.754525,59.6774357 C7.38563214,59.6739 7.08038214,59.5749 6.76688214,59.3816143 C5.72148929,58.7334 4.76213214,60.3822214 5.80516786,61.0280786" id="Fill-272" fill="#35332D"></path>
                        <path d="M16.8231607,57.2230607 C16.7500893,57.6108107 16.6770179,57.9997393 16.605125,58.3874893 C16.5096607,58.8930964 16.745375,59.4163821 17.2710179,59.5601679 C17.735375,59.6886321 18.3482321,59.4034179 18.4436964,58.894275 C18.5167679,58.506525 18.5898393,58.118775 18.6629107,57.7298464 C18.7571964,57.2242393 18.5226607,56.7021321 17.9970179,56.5571679 C17.5314821,56.4298821 16.918625,56.7139179 16.8231607,57.2230607" id="Fill-273" fill="#35332D"></path>
                        <path d="M13.4220393,65.2428857 C13.6919321,65.9924571 14.126825,66.5558143 14.7750393,67.0178143 C15.1946107,67.3171714 15.8357536,67.0920643 16.0797179,66.6760286 C16.3590393,66.1975286 16.1575036,65.6707071 15.7367536,65.37135 C15.5234321,65.2181357 15.3490036,64.9800643 15.2617893,64.7361 C15.0861821,64.2517071 14.6123964,63.9252429 14.0879321,64.0702071 C13.6200393,64.1986714 13.2464321,64.7561357 13.4220393,65.2428857" id="Fill-274" fill="#35332D"></path>
                        <path d="M30.5643607,57.7335 C30.3592893,58.05525 30.1542179,58.377 29.9491464,58.6999286 C29.2879679,59.73825 30.9367893,60.6964286 31.5956107,59.6628214 C31.8006821,59.3398929 32.0057536,59.0181429 32.210825,58.6952143 C32.8720036,57.6580714 31.2231821,56.6998929 30.5643607,57.7335" id="Fill-275" fill="#35332D"></path>
                        <path d="M29.76965,65.5501393 C29.9794357,65.7528536 30.1149714,65.9532107 30.2434357,66.2183893 C30.4685429,66.6815679 31.1285429,66.8053179 31.5481143,66.560175 C32.0219,66.2832107 32.1161857,65.7210321 31.8910786,65.2554964 C31.70015,64.8618536 31.4326143,64.505925 31.1191143,64.200675 C30.2363643,63.3462107 28.8857214,64.6933179 29.76965,65.5501393" id="Fill-276" fill="#35332D"></path>
                        <path d="M27.7991964,62.9967643 C28.0172321,62.7905143 28.2340893,62.5854429 28.452125,62.3791929 C29.3454821,61.5329786 27.9948393,60.1858714 27.1038393,61.0309071 C26.8858036,61.2359786 26.6689464,61.4422286 26.4497321,61.6484786 C25.5575536,62.4946929 26.9081964,63.8418 27.7991964,62.9967643" id="Fill-277" fill="#35332D"></path>
                        <path d="M25.5985679,53.6050821 C25.9509607,53.3917607 26.3033536,53.1784393 26.6545679,52.9651179 C27.7034964,52.3298679 26.7464964,50.6798679 25.6928536,51.3186536 C25.3404607,51.5307964 24.9880679,51.7452964 24.635675,51.9586179 C23.5867464,52.5938679 24.544925,54.2438679 25.5985679,53.6050821" id="Fill-278" fill="#35332D"></path>
                        <path d="M11.7831179,58.0039821 C12.032975,58.2868393 12.247475,58.5826607 12.4466536,58.9032321 C13.0936893,59.9439107 14.7448679,58.9869107 14.0931179,57.9415179 C13.8102607,57.4854107 13.4861536,57.0575893 13.1325821,56.6545179 C12.7907964,56.269125 12.1307964,56.3080179 11.7831179,56.6545179 C11.3989036,57.0399107 11.4413321,57.6162321 11.7831179,58.0039821" id="Fill-279" fill="#35332D"></path>
                        <path d="M17.438375,50.3323071 C17.273375,50.8697357 17.1779107,51.4083429 17.1036607,51.9646286 C17.0364821,52.4761286 17.5904107,52.9180929 18.057125,52.9180929 C18.6287321,52.9180929 18.9434107,52.4773071 19.0117679,51.9646286 C19.0612679,51.58395 19.1649821,51.2056286 19.278125,50.8390929 C19.6387679,49.6628786 17.7978393,49.1596286 17.438375,50.3323071" id="Fill-280" fill="#35332D"></path>
                        <path d="M20.3714857,65.8447821 C20.6920571,65.5689964 21.0362,65.3332821 21.4003786,65.1176036 C22.4563786,64.4941393 21.4982,62.8453179 20.4374857,63.4711393 C19.9342357,63.7681393 19.4651643,64.1146393 19.0232,64.4953179 C18.6319143,64.8323893 18.6778786,65.5006393 19.0232,65.8447821 C19.41095,66.2325321 19.9802,66.1818536 20.3714857,65.8447821" id="Fill-281" fill="#35332D"></path>
                        <path d="M16.6580429,71.6605607 C17.1742571,71.7183107 17.6822214,71.6711679 18.1890071,71.5615607 C18.6934357,71.4531321 18.9857214,70.865025 18.8549,70.3888821 C18.7122929,69.8679536 18.18665,69.6133821 17.6822214,69.7229893 C17.3392571,69.7972393 17.0057214,69.792525 16.6580429,69.7536321 C16.1453643,69.6958821 15.7034,70.2333107 15.7034,70.7070964 C15.7034,71.2704536 16.1430071,71.6028107 16.6580429,71.6605607" id="Fill-282" fill="#35332D"></path>
                        <path d="M7.75535,69.3396 L9.23917143,69.3396 C10.4660643,69.3396 10.4684214,67.4314929 9.23917143,67.4314929 L7.75535,67.4314929 C6.52727857,67.4314929 6.5261,69.3396 7.75535,69.3396" id="Fill-283" fill="#35332D"></path>
                        <path d="M23.9480964,70.4135143 C24.5314893,70.7246571 25.112525,70.8849429 25.7654536,70.9627286 C26.2781321,71.0251929 26.7200964,70.4806929 26.7200964,70.0092643 C26.7200964,69.44355 26.2804893,69.1170857 25.7654536,69.0558 C25.4660964,69.0204429 25.1749893,68.9073 24.9109893,68.76705 C23.8267036,68.1907286 22.8626321,69.8360143 23.9480964,70.4135143" id="Fill-284" fill="#35332D"></path>
                        <path d="M10.9440929,41.7421714 C10.8285929,42.3573857 10.7779143,42.9655286 10.8368429,43.5889929 C10.8851643,44.1016714 11.2399143,44.5424571 11.7903071,44.5424571 C12.2688071,44.5424571 12.7920929,44.1052071 12.7437714,43.5889929 C12.7025214,43.1411357 12.7001643,42.6932786 12.7826643,42.2489571 C12.8781286,41.74335 12.6424143,41.2212429 12.1167714,41.0762786 C11.6524143,40.9489929 11.0395571,41.2330286 10.9440929,41.7421714" id="Fill-285" fill="#35332D"></path>
                        <path d="M6.13835,51.3808821 C6.29863571,51.1616679 6.56499286,51.1404536 6.79835,51.1545964 C7.31220714,51.1840607 7.75181429,50.6949536 7.75181429,50.2011321 C7.75181429,49.6601679 7.31456429,49.2759536 6.79835,49.2464893 C5.84606429,49.192275 5.03992143,49.670775 4.49188571,50.4179893 C4.18545714,50.8328464 4.42117143,51.4810607 4.83367143,51.7226679 C5.31688571,52.005525 5.83192143,51.7969179 6.13835,51.3808821" id="Fill-286" fill="#35332D"></path>
                        <path d="M9.55667857,47.5108071 C10.78475,47.5108071 10.7859286,45.6038786 9.55667857,45.6038786 C8.32978571,45.6038786 8.32742857,47.5108071 9.55667857,47.5108071" id="Fill-287" fill="#35332D"></path>
                        <path d="M30.2800893,78.4839 C30.1728393,77.51865 2.88891071,73.5327214 2.99851786,74.5085786 C4.10401786,84.3979714 5.21069643,94.2861857 6.31619643,104.1744 C6.34094643,104.39715 6.44701786,104.564507 6.58608929,104.684721 C6.70748214,104.855614 6.89605357,104.979364 7.17066071,104.979364 L28.6607321,104.979364 C29.1899107,104.979364 29.4220893,104.868579 29.5623393,104.49615 C29.673125,104.18265 29.7414821,103.820829 29.7697679,103.534436 C30.6124464,95.1972214 31.2913036,86.8482214 31.8063393,78.4839 C31.8664464,77.5033286 30.3401964,77.5068643 30.2800893,78.4839" id="Fill-288" fill="#9F7958"></path>
                        <path d="M34.9057464,73.3950643 C34.3117464,72.7586357 33.0860321,72.6466714 30.7277107,72.6466714 L5.04899643,72.6466714 C2.65178214,72.6466714 1.53921071,72.7103143 0.955817857,73.3196357 C0.441960714,73.8547071 0.474960714,74.6431714 0.529175,75.9490286 C0.549210714,76.4440286 0.572782143,77.0250643 0.572782143,77.7074571 L0.569246429,78.6491357 C0.556282143,80.4712071 0.549210714,81.4741714 1.16088929,82.0905643 C1.80321071,82.7364214 2.99474643,82.7682429 5.04899643,82.7682429 L30.7277107,82.7682429 C33.0400679,82.7682429 34.1797464,82.7411357 34.7772821,82.1247429 C35.2993893,81.5861357 35.2758179,80.7929571 35.2322107,79.3551 C35.2192464,78.8836714 35.2015679,78.3391714 35.2015679,77.7074571 C35.2015679,76.9802786 35.2439964,76.3744929 35.2817107,75.8394214 C35.360675,74.6950286 35.4125321,73.9383857 34.9057464,73.3950643" id="Fill-289" fill="#B08F76"></path>
                        <path d="M2.35855357,73.94805 C1.99319643,75.2633357 1.89183929,76.5974786 2.06744643,77.9516571 C2.14758929,78.5609786 3.11755357,78.5692286 3.03741071,77.9516571 C2.87123214,76.6799786 2.95019643,75.4424786 3.29316071,74.2061571 C3.46051786,73.6039071 2.52591071,73.3469786 2.35855357,73.94805" id="Fill-290" fill="#9F7958"></path>
                        <path d="M3.00146429,79.8944143 C3.62492857,79.8944143 3.62610714,78.9256286 3.00146429,78.9256286 C2.378,78.9256286 2.37682143,79.8944143 3.00146429,79.8944143" id="Fill-291" fill="#9F7958"></path>
                        <path d="M27.5580607,90.0326036 C27.3518107,90.9047464 27.1219893,92.2117821 28.2286679,92.572425 C29.204525,92.8906393 29.9104893,92.0008179 29.971775,91.1239607 C30.0330607,90.2588893 29.6688821,89.1286393 28.7319179,88.8988179 C28.222775,88.7738893 27.6912393,89.0261036 27.4107393,89.4527464 C27.3140964,89.5988893 27.2374893,89.7721393 27.1962393,89.9418536 C27.1243464,90.2353179 27.2374893,90.4969607 27.1974179,90.7774607 C27.1243464,91.2995679 27.3258821,91.8122464 27.8750964,91.970175 C28.3276679,92.0986393 28.9935607,91.8110679 29.0666321,91.2924964 C29.0949179,91.0909607 29.1267393,90.8953179 29.122025,90.6926036 C29.1149536,90.6148179 29.1078821,90.5370321 29.0996321,90.4592464 C29.0984536,90.1681393 28.9758821,90.270675 28.7319179,90.7680321 L28.2168821,90.7680321 C28.016525,90.6984964 27.8857036,90.4828179 28.0342036,90.8623179 C28.1673821,91.1993893 27.6523464,90.8576036 28.3441679,90.7267821 L28.8603821,90.7267821 C29.1526679,90.7845321 29.2528464,91.7049964 29.3341679,91.021425 C29.3518464,90.8611393 29.3895607,90.7055679 29.4260964,90.5476393 C29.7136679,89.3348893 27.8456321,88.8174964 27.5580607,90.0326036" id="Fill-292" fill="#896143"></path>
                        <path d="M29.4311643,88.5610393 C30.6780929,88.5610393 30.68045,86.6222893 29.4311643,86.6222893 C28.1842357,86.6222893 28.1818786,88.5610393 29.4311643,88.5610393" id="Fill-293" fill="#896143"></path>
                        <path d="M29.1083536,94.6973893 C30.3552821,94.6973893 30.3576393,92.7598179 29.1083536,92.7598179 C27.861425,92.7598179 27.8590679,94.6973893 29.1083536,94.6973893" id="Fill-294" fill="#896143"></path>
                    </g>
                </g>
            </g>
        </g>
    </g>
</svg>