<?xml version="1.0" standalone="no"?>
<!DOCTYPE svg PUBLIC "-//W3C//DTD SVG 1.1//EN" "http://www.w3.org/Graphics/SVG/1.1/DTD/svg11.dtd">
<svg xmlns="http://www.w3.org/2000/svg">
<metadata>Generated by Fontastic.me</metadata>
<defs>
<font id="klassicon" horiz-adv-x="512">
<font-face font-family="klassicon" units-per-em="512" ascent="480" descent="-32"/>
<missing-glyph horiz-adv-x="512" />

<glyph glyph-name="add" unicode="&#97;" d="M233 279l0 176c0 13 10 23 23 23 13 0 23-10 23-23l0-176 176 0c13 0 23-10 23-23 0-13-10-23-23-23l-176 0 0-176c0-13-10-23-23-23-13 0-23 10-23 23l0 176-176 0c-13 0-23 10-23 23 0 13 10 23 23 23z"/>
<glyph glyph-name="add-comment" unicode="&#98;" d="M175 334l160 0c11 0 20-9 20-20l0 0c0-11-9-20-20-20l-160 0c-11 0-20 9-20 20l0 0c0 11 9 20 20 20z m0-80l120 0c11 0 20-9 20-20l0 0c0-11-9-20-20-20l-120 0c-11 0-20 9-20 20l0 0c0 11 9 20 20 20z m236 138l0-34c0-13-10-23-23-23-12 0-23 10-23 23l0 34-34 0c-12 0-23 10-23 23 0 13 11 23 23 23l34 0 0 34c0 13 11 23 23 23 13 0 23-10 23-23l0-34 34 0c13 0 23-10 23-23 0-13-10-23-23-23z m-166 44c-3 0-7 0-9 0-90-9-161-76-161-158 0-52 29-98 73-127l0-64c0-3 2-6 6-6 1 0 2 1 3 1l66 40c10-2 21-3 32-3 100 0 180 71 180 159 0 2 0 4 0 8-1 11 8 20 19 21 0 0 1 0 1 0 12 0 22-10 23-22 0-3 0-5 0-6 0-112-100-200-222-200-9 0-19 0-28 2l-69-42c-22-13-48 2-48 27l0 62c-48 37-77 92-77 151 0 57 27 108 69 144 35 30 82 50 132 54 3 1 6 1 9 1 12 0 21-9 21-21 0 0 0 0 0 0 0-11-9-20-20-21z"/>
<glyph glyph-name="delay" unicode="&#99;" d="M273 273l51 0c10 0 17-8 17-17 0-9-7-17-17-17l-68 0c-5 0-9 2-12 5-3 3-5 7-5 12l0 119c0 10 8 18 17 18 9 0 17-8 17-18z m221 15c2-3 1-7-1-10l-47-56c-2-2-4-3-7-3-3 0-5 1-7 3l-47 56c-2 3-3 7-1 10 1 3 5 5 8 5l28 0c-17 75-84 131-164 131-92 0-168-76-168-168 0-92 76-168 168-168 60 0 116 33 146 84 5 9 16 12 25 7 9-5 12-17 7-25-37-64-105-103-178-103-113 0-205 92-205 205 0 113 92 205 205 205 101 0 184-73 202-168l28 0c3 0 7-2 8-5z"/>
<glyph glyph-name="dashboard" unicode="&#100;" d="M34 54l0 404c0 11 9 20 20 20l162 0c11 0 20-9 20-20l0-404c0-11-9-20-20-20l-162 0c-11 0-20 9-20 20z m444 242c0-11-9-20-20-20l-162 0c-11 0-20 9-20 20l0 162c0 11 9 20 20 20l162 0c11 0 20-9 20-20z m0-242c0-11-9-20-20-20l-162 0c-11 0-20 9-20 20l0 162c0 11 9 20 20 20l162 0c11 0 20-9 20-20z"/>
<glyph glyph-name="my-school" unicode="&#101;" d="M135 327l-7-6c-9-7-21-6-28 3-8 8-7 21 2 28l141 121c7 6 19 6 26 0l141-121c9-7 10-20 3-28-8-9-20-10-29-3l-7 6 0-71 101 0 0-222-141 0 0 323c0 1 0 3 0 5l-81 69-81-69c0-2 0-4 0-5l0-323-141 0 0 222 101 0z m0-253l0 142-61 0 0-142z m242 142l0-142 61 0 0 142z m-101 60l41 0 0-40-41 0z m-20 20c-22 0-40 18-40 41 0 22 18 40 40 40 22 0 40-18 40-40 0-23-18-41-40-41z m-61-20l41 0 0-40-41 0z m0-60l41 0 0-41-41 0z m81 0l41 0 0-41-41 0z m-60-61l80 0 0-121-80 0z"/>
<glyph glyph-name="options" unicode="&#102;" d="M256 205c-27 0-49 23-49 51 0 28 22 51 49 51 27 0 49-23 49-51 0-28-22-51-49-51z m173 0c-28 0-50 23-50 51 0 28 22 51 50 51 27 0 49-23 49-51 0-28-22-51-49-51z m-346 0c-27 0-49 23-49 51 0 28 22 51 49 51 28 0 50-23 50-51 0-28-22-51-50-51z"/>
<glyph glyph-name="views" unicode="&#103;" d="M256 362c-54 0-111-34-169-106 58-72 114-106 169-106 55 0 111 34 169 106-58 71-114 106-169 106z m217-121c-70-92-142-139-217-139-75 0-147 48-217 139-7 9-7 21 0 30 70 91 143 139 217 139 75 0 147-48 217-140 7-8 7-20 0-29z m-217-56c-38 0-69 32-69 71 0 39 31 71 69 71 38 0 69-32 69-71 0-39-31-71-69-71z m0 47c13 0 23 11 23 24 0 13-10 24-23 24-13 0-23-11-23-24 0-13 10-24 23-24z"/>
<glyph glyph-name="views-hide" unicode="&#104;" d="M216 357l-36 36c25 11 51 16 76 16 75 0 147-46 217-136 7-8 7-20 0-28-23-29-47-54-70-74l-33 33c18 15 37 33 55 55-58 70-114 104-169 104-13 0-26-2-40-6z m-76-43c-18-15-35-33-53-54 58-70 114-104 169-104 12 0 24 2 37 5l36-36c-24-10-49-15-73-15-75 0-147 46-217 135-7 9-7 21 0 29 23 29 45 53 68 72z m47-48l76-75c-3 0-5 0-7 0-38 0-69 31-69 69 0 2 0 4 0 6z m59 62c3 0 7 1 10 1 38 0 69-31 69-69 0-4 0-7-1-11z m-155 90l3 3c7 8 20 8 28 0l285-282c8-8 8-20 0-28l-2-3c-8-8-21-8-29 0l-285 282c-8 8-8 20 0 28z"/>
<glyph glyph-name="waiting" unicode="&#105;" d="M433 256c0 98-79 177-177 177-98 0-177-79-177-177 0-98 79-177 177-177 98 0 177 79 177 177m45 0c0-123-99-222-222-222-123 0-222 99-222 222 0 123 99 222 222 222 123 0 222-99 222-222m-200 0l89 0c12 0 22-10 22-22 0-12-10-22-22-22l-133 0 0 155c0 12 10 22 22 22 12 0 22-10 22-22z"/>
<glyph glyph-name="parents" unicode="&#106;" d="M256 337c0 55 45 101 101 101 56 0 101-46 101-101 0-32-15-60-38-79 35-21 58-59 58-103l0-121-40 0 0 121c0 45-37 81-81 81-45 0-81-36-81-81l0-121-40 0 0 121c0 44 23 82 57 103-22 19-37 47-37 79z m101-61c33 0 60 27 60 61 0 33-27 60-60 60-34 0-61-27-61-60 0-34 27-61 61-61z m-303 101c0 56 45 101 101 101 56 0 101-45 101-101 0-32-15-60-37-78 34-22 57-60 57-104l0-161-40 0 0 161c0 45-36 81-81 81-44 0-81-36-81-81l0-161-40 0 0 161c0 44 23 82 58 104-23 18-38 46-38 78z m101-60c34 0 61 27 61 60 0 33-27 61-61 61-33 0-60-28-60-61 0-33 27-60 60-60z"/>
<glyph glyph-name="demands" unicode="&#107;" d="M337 167l-179 0 0 133c0 60 45 89 89 89l0 0c45 0 90-29 90-89z m-67-66c0-13-10-22-23-22-12 0-22 9-22 22l0 22 45 0z m112 66l0 133c0 79-53 123-112 132l0 24c0 12-10 22-22 22l-1 0c-12 0-22-10-22-22l0-24c-59-9-112-53-112-132l0-133-22 0c-13 0-23-10-23-22 0-12 10-22 23-22l89 0 0-22c0-37 30-67 67-67 38 0 68 30 68 67l0 22 89 0c13 0 23 10 23 22 0 12-10 22-23 22z"/>
<glyph glyph-name="add-note" unicode="&#108;" d="M478 73l0-1c0-12-9-21-21-21l-204 0c-11 0-21 9-21 21l0 1c0 12 10 22 22 22l202 0c12 0 22-10 22-22z m-151 170l-170-177c-7-8-23-15-34-15l-68 0c-12 0-21 9-21 21l0 66c0 11 7 26 15 34l182 164c9 7 22 7 30-1l65-63c9-8 9-21 1-29z m-245-153l36 0c4 0 11 2 14 6l100 104-44 44-108-97c-3-3-6-9-6-13l0-36c0-4 4-8 8-8z m161 206l-31-28 47-42 29 28c3 3 3 8 0 11l-33 31c-4 3-9 3-12 0z"/>
<glyph glyph-name="add-reaction" unicode="&#109;" d="M256 477c11 0 20-9 20-20 0-11-9-20-20-20-100 0-182-82-182-182 0-100 82-181 182-181 100 0 182 81 182 181 0 13-2 25-4 36-2 11 5 22 16 24 11 2 21-5 24-16 2-14 4-29 4-44 0-122-99-221-222-221-123 0-222 99-222 221 0 123 99 222 222 222z m157-86l0-34c0-13-10-23-23-23-13 0-23 10-23 23l0 34-34 0c-13 0-24 11-24 23 0 13 11 24 24 24l34 0 0 34c0 13 10 23 23 23 13 0 23-10 23-23l0-34 35 0c12 0 23-11 23-24 0-12-11-23-23-23z m-262-218c-7 8-7 21 2 29 8 7 21 6 28-2 19-21 46-33 75-33 29 0 56 12 75 33 7 8 20 9 28 2 9-8 9-21 2-29-27-29-65-46-105-46-40 0-78 17-105 46z m-6 64c-17 0-30 14-30 31 0 16 13 30 30 30 17 0 30-14 30-30 0-17-13-31-30-31z m222 0c-17 0-30 14-30 31 0 16 13 30 30 30 17 0 30-14 30-30 0-17-13-31-30-31z"/>
<glyph glyph-name="demands-off" unicode="&#110;" d="M293 379c-12 7-27 10-46 10-44 0-89-29-89-89l0-133 179 0 0 27c0 12 10 22 22 22 13 0 23-10 23-22l0-27 22 0c13 0 23-10 23-22 0-12-10-22-23-22l-89 0 0-22c0-37-30-67-68-67-37 0-67 30-67 67l0 22-89 0c-13 0-23 10-23 22 0 12 10 22 23 22l22 0 0 133c0 79 53 123 112 132l0 24c0 12 10 22 22 22l1 0c12 0 22-10 22-22l0-24c19-2 35-7 47-15l0 0c11-6 14-20 7-31 0-1-1-2-2-3-8-8-20-10-29-4z m-23-278l0 22-45 0 0-22c0-13 10-22 22-22 13 0 23 9 23 22z m122 193l24-24c9-9 9-24 0-33-9-9-23-9-32 0l-24 25-24-25c-9-9-23-9-32 0-9 9-9 24 0 33l24 24-24 25c-9 9-9 23 0 32 9 9 23 9 32 0l24-24 24 24c9 9 23 9 32 0 9-9 9-23 0-32z"/>
<glyph glyph-name="personnal-informations" unicode="&#111;" d="M54 377c0 56 45 101 101 101 56 0 101-45 101-101 0-32-15-60-37-78 34-22 57-60 57-104l0-161-40 0 0 161c0 45-36 81-81 81-44 0-81-36-81-81l0-161-40 0 0 161c0 44 23 82 58 104-23 18-38 46-38 78z m101-60c34 0 61 27 61 60 0 33-27 61-61 61-33 0-60-28-60-61 0-33 27-60 60-60z m162-81l141 0c11 0 20-9 20-20 0-11-9-21-20-21l-141 0c-12 0-21 10-21 21 0 11 9 20 21 20z m0-81l141 0c11 0 20-9 20-20 0-11-9-20-20-20l-141 0c-12 0-21 9-21 20 0 11 9 20 21 20z m0-81l141 0c11 0 20-9 20-20 0-11-9-20-20-20l-141 0c-12 0-21 9-21 20 0 11 9 20 21 20z"/>
<glyph glyph-name="write-message" unicode="&#112;" d="M433 79l0 157c0 11 9 20 21 20l4 0c11 0 20-9 20-20l0-182c0-11-9-20-20-20l-404 0c-11 0-20 9-20 20l0 404c0 11 9 20 20 20l182 0c11 0 20-9 20-20l0-4c0-12-9-21-20-21l-157 0 0-354z m27 287l-167-181c-8-8-23-15-34-15l-67 0c-11 0-21 9-21 20l0 69c0 11 7 26 15 34l180 167c8 8 21 8 29 0l65-65c8-8 8-21 0-29z m-241-157l35 0c4 0 11 3 14 6l99 107-44 45-106-99c-3-3-6-9-6-14l0-37c0-4 3-8 8-8z m158 211l-30-29 46-43 29 29c3 3 3 8 0 11l-33 32c-3 3-9 3-12 0z"/>
<glyph glyph-name="play" unicode="&#113;" d="M256 34c-123 0-222 99-222 222 0 123 99 222 222 222 123 0 222-99 222-222 0-123-99-222-222-222z m60 237l-80 49c-14 8-30-2-30-19l0-98c0-17 16-27 30-19l80 49c14 9 14 29 0 38z"/>
<glyph glyph-name="empty" unicode="&#114;" d="M276 276l20 0c11 0 21-9 21-20 0-11-10-20-21-20l-20 0 0-20c0-11-9-21-20-21-11 0-20 10-20 21l0 20-20 0c-11 0-21 9-21 20 0 11 10 20 21 20l20 0 0 20c0 11 9 21 20 21 11 0 20-10 20-21z m-20 202c11 0 20-9 20-20 0-11-9-20-20-20-11 0-20 9-20 20 0 11 9 20 20 20z m0-81c11 0 20-9 20-20 0-11-9-20-20-20-11 0-20 9-20 20 0 11 9 20 20 20z m0-242c11 0 20-9 20-20 0-11-9-20-20-20-11 0-20 9-20 20 0 11 9 20 20 20z m0-81c11 0 20-9 20-20 0-11-9-20-20-20-11 0-20 9-20 20 0 11 9 20 20 20z m202 202c11 0 20-9 20-20 0-11-9-20-20-20-11 0-20 9-20 20 0 11 9 20 20 20z m-404 0c11 0 20-9 20-20 0-11-9-20-20-20-11 0-20 9-20 20 0 11 9 20 20 20z m81 0c11 0 20-9 20-20 0-11-9-20-20-20-11 0-20 9-20 20 0 11 9 20 20 20z m242 0c11 0 20-9 20-20 0-11-9-20-20-20-11 0-20 9-20 20 0 11 9 20 20 20z"/>
<glyph glyph-name="attendance" unicode="&#115;" d="M143 350c8-3 17-3 25 0l13-38c-16-5-34-5-51 0z m45 15c2 3 4 6 5 9 2 6 3 10 2 15l41 1c0 0 0 0 0 0l0-4c0-8-2-15-4-23-3-8-6-15-11-21z m-1 47c-5 6-11 11-18 13-2 1-3 1-4 1l10 39c2-1 3-1 5-2 16-5 29-14 39-26z m-47 12c-8-3-15-8-19-16l-35 21c9 15 23 26 39 32z m-25-40c1-8 4-16 10-23l-30-26c-11 12-18 28-20 45z m-41-333l-40 0 0 46 40 0z m-40 91l0 18c0 10 1 19 3 28l39-8c-1-6-2-13-2-20l0-18z m20 89c8 13 19 25 31 34l24-31c-8-6-15-14-21-23z m74 55c9 2 18 3 27 3 6 0 12 0 17-1l-6-39c-4 0-7 1-11 1-6 0-12-1-17-2z m85-12c11-7 20-14 29-23l-26-31c-7 8-13 13-22 18z m199 21c39-21 66-65 66-115l0-129-40 0 0 129c0 50-37 89-81 89-44 0-81-39-81-89l0-129-40 0 0 129c0 50 27 94 66 115-28 18-46 49-46 84 0 54 45 99 101 99 56 0 101-45 101-99 0-35-19-66-46-84 39-21 66-65 66-115l0-129-40 0 0 129c0 50-37 89-81 89-44 0-81-39-81-89l0-129-40 0 0 129c0 50 27 94 66 115z m-55 24c33 0 60 27 60 60 0 33-27 59-60 59-34 0-61-26-61-59 0-33 27-60 61-60z m-170-178l11-11c8-7 8-20 0-28-7-7-20-7-28 0l-11 11-10-10c-8-8-21-8-28 0-8 8-8 21 0 28l10 11-11 11c-8 7-8 20 0 28 8 7 20 7 28 0l11-11 10 10c8 8 21 8 29 0 8-8 8-21 0-28z m164 6l29 28c8 8 20 8 28 0 8-8 8-20 0-28l-43-42c-7-8-20-8-28 0l-21 21c-8 8-8 20 0 28 7 8 20 8 28 0z"/>
<glyph glyph-name="attendance-register" unicode="&#116;" d="M134 438l0-364 244 0 0 364z m-20 40l284 0c11 0 20-9 20-20l0-404c0-11-9-20-20-20l-284 0c-11 0-20 9-20 20l0 404c0 11 9 20 20 20z m129-231l57 57c8 8 21 8 29 0 8-8 8-21 0-29l-72-71c-8-8-20-8-28 0l-36 36c-8 7-8 20 0 28 8 8 21 8 28 0z"/>
<glyph glyph-name="image" unicode="&#117;" d="M475 100c4-8 4-19-1-27-5-8-14-13-24-13l-388 0c-10 0-19 5-24 14-5 9-5 20 0 28l83 140c4 7 11 12 18 13 7 2 15 1 21-4l62-42 96 121c5 7 15 11 24 10 10-1 18-7 22-15z m-274 240c-31 0-56 25-56 56 0 31 25 56 56 56 30 0 55-25 55-56 0-31-25-56-55-56z"/>
<glyph glyph-name="poll" unicode="&#118;" d="M167 350l45 0 0-265-45 0z m133 111l45 0 0-376-45 0z m133-221l45 0 0-155-45 0z m-399-66l45 0 0-89-45 0z"/>
<glyph glyph-name="profile-picture" unicode="&#119;" d="M256 256c61 0 111 50 111 111 0 61-50 111-111 111-61 0-111-50-111-111 0-61 50-111 111-111z m0-55c-74 0-222-38-222-111l0-56 444 0 0 56c0 73-148 111-222 111z"/>
<glyph glyph-name="link" unicode="&#120;" d="M250 439c52 52 137 52 189 0 52-52 52-137 0-189l-42-41c-8-9-22-9-31 0-9 9-9 23 0 31l41 42c35 34 35 91 0 125-34 35-91 35-125 0l-42-41c-8-9-22-9-31 0-9 9-9 23 0 31z m-20-334l42 41c8 9 22 9 31 0 9-9 9-23 0-31l-41-42c-26-26-60-39-94-39-35 0-69 13-95 39-52 52-52 137 0 189l42 41c8 9 22 9 31 0 9-9 9-23 0-31l-41-42c-35-34-35-91 0-125 16-17 39-26 63-26 23 0 46 9 62 26z m61 217c8 9 22 9 31 0 9-9 9-23 0-31l-101-101c-9-9-23-9-31 0-9 8-9 23 0 31z"/>
<glyph glyph-name="back" unicode="&#121;" d="M272 41c9 8 9 22 0 31l-153 153 337 0c12 0 22 10 22 22 0 13-10 23-22 23l-337 0 153 153c8 8 8 22 0 31-9 9-23 9-32 0l-190-191c-9-9-9-23 0-31l190-191c9-9 23-9 32 0z"/>
<glyph glyph-name="billings" unicode="&#122;" d="M283 98c47 0 85 32 103 99l66-15c-21-89-84-148-169-148-86 0-150 59-171 151l-69 0 0 49 62 0c0 7 0 14 0 22 0 7 0 14 0 20l-62 0 0 49 69 0c20 93 84 153 171 153 85 0 148-59 169-148l-67-14c-15 66-55 98-102 98-49 0-86-34-102-89l146 0-11-49-143 0c0-6 0-13 0-20 0-8 0-15 0-22l132 0-11-49-111 0c16-54 52-87 100-87z"/>
<glyph glyph-name="list" unicode="&#65;" d="M135 393l323 0c11 0 20-9 20-21l0-1c0-11-9-20-20-20l-323 0c-11 0-20 9-20 20l0 1c0 12 9 21 20 21z m-81 0c11 0 20-9 20-21l0-1c0-11-9-20-20-20-11 0-20 9-20 20l0 1c0 12 9 21 20 21z m81-125l323 0c11 0 20-9 20-20l0-1c0-11-9-20-20-20l-323 0c-11 0-20 9-20 20l0 1c0 11 9 20 20 20z m-81 0c11 0 20-9 20-20l0-1c0-11-9-20-20-20-11 0-20 9-20 20l0 1c0 11 9 20 20 20z m81-124l222 0c11 0 20-9 20-20l0-1c0-12-9-21-20-21l-222 0c-11 0-20 9-20 21l0 1c0 11 9 20 20 20z m-81 0c11 0 20-9 20-20l0-1c0-12-9-21-20-21-11 0-20 9-20 21l0 1c0 11 9 20 20 20z"/>
<glyph glyph-name="reorder" unicode="&#66;" d="M54 368l404 0c11 0 20-9 20-21 0-11-9-20-20-20l-404 0c-11 0-20 9-20 20 0 12 9 21 20 21z m0-92l404 0c11 0 20-9 20-20 0-11-9-20-20-20l-404 0c-11 0-20 9-20 20 0 11 9 20 20 20z m0-91l404 0c11 0 20-9 20-20 0-12-9-21-20-21l-404 0c-11 0-20 9-20 21 0 11 9 20 20 20z m206 292l62-48c3-2 3-5 1-8-1-2-3-3-4-3l-125 0c-4 0-7 3-7 7 0 1 1 3 3 4l62 48c3 1 6 1 8 0z m-8-442l-62 48c-3 2-3 5-1 8 1 2 3 3 5 3l125 0c3 0 6-3 6-7 0-1-1-3-3-4l-62-48c-2-1-5-1-8 0z"/>
<glyph glyph-name="school-informations" unicode="&#67;" d="M317 327l0-51-41 0 0 81c0 1 0 3 1 5l-82 69-81-69c1-2 1-4 1-5l0-323-41 0 0 293-7-6c-8-7-21-6-28 3-7 8-6 21 2 28l141 121c8 6 19 6 27 0l141-121c8-7 9-20 2-28-7-9-20-10-28-3z m-101-51l40 0 0-40-40 0z m-21 20c-22 0-40 18-40 41 0 22 18 40 40 40 23 0 41-18 41-40 0-23-18-41-41-41z m-60-20l40 0 0-40-40 0z m0-60l40 0 0-41-40 0z m81 0l40 0 0-41-40 0z m-61-61l81 0 0-121-81 0z m162 81l141 0c11 0 20-9 20-20 0-11-9-21-20-21l-141 0c-12 0-21 10-21 21 0 11 9 20 21 20z m0-81l141 0c11 0 20-9 20-20 0-11-9-20-20-20l-141 0c-12 0-21 9-21 20 0 11 9 20 21 20z m0-81l141 0c11 0 20-9 20-20 0-11-9-20-20-20l-141 0c-12 0-21 9-21 20 0 11 9 20 21 20z"/>
<glyph glyph-name="location-filled" unicode="&#68;" d="M95 317c0 89 72 161 161 161 89 0 161-72 161-161 0-89-140-271-140-271-12-16-30-16-41-1 0 0-141 183-141 272z m161 47c-34 0-61-27-61-60 0-34 27-61 61-61 34 0 61 27 61 61 0 33-27 60-61 60z"/>
<glyph glyph-name="campaign" unicode="&#69;" d="M364 477c30 5 58-14 64-43l49-270c5-29-15-56-44-62-27-4-52 11-61 34l-69 11 19-54c5-19-1-46-23-55-4-1-7-2-10-3-32-5-63 11-75 40l-36 93-29 5c-19 3-33 17-36 34l-12 66c-3 18 5 36 21 44l197 108c0 25 19 48 45 52z m-220-196l12-67 207-33-37 200z m85-121l25-69c2-5 7-8 12-6 5 1 8 7 7 12 0 0 0 0 0 0l-21 59z m143 275c-6-1-10-6-9-12l49-270c1-6 7-10 13-9 6 1 10 7 9 12l-50 271c-1 6-6 9-12 8z m-320-140c12 2 24-5 26-17l15-83c2-12-6-23-18-25-12-2-23 6-25 18l-16 83c-2 11 6 22 18 24z m215-60c17 0 31 14 31 32 0 17-14 31-31 31-18 0-32-14-32-31 0-18 14-32 32-32z"/>
<glyph glyph-name="close" unicode="&#70;" d="M256 300l169 169c12 12 32 12 44 0 12-12 12-32 0-44l-169-169 169-169c12-12 12-32 0-44-12-12-32-12-44 0l-169 169-169-169c-12-12-32-12-44 0-12 12-12 32 0 44l169 169-169 169c-12 12-12 32 0 44 12 12 32 12 44 0z"/>
<glyph glyph-name="location-stroke" unicode="&#71;" d="M256 364c34 0 61-27 61-60 0-34-27-61-61-61-34 0-61 27-61 61 0 33 27 60 61 60z m0-80c11 0 20 9 20 20 0 11-9 20-20 20-11 0-20-9-20-20 0-11 9-20 20-20z m-161 33c0 89 72 161 161 161 89 0 161-72 161-161 0-89-140-271-140-271-12-16-30-16-41-1 0 0-141 183-141 272z m46 0c0-69 115-230 115-230 0 0 115 161 115 230 0 63-51 115-115 115-64 0-115-52-115-115z"/>
<glyph glyph-name="search" unicode="&#72;" d="M336 140c-74-56-179-51-247 17-73 73-73 192 0 266 74 73 193 73 266 0 68-68 73-173 17-247l98-98c10-10 10-26 0-36-10-10-26-10-36 0z m-17 53c54 53 54 140 0 194-53 53-140 53-194 0-53-54-53-141 0-194 54-54 141-54 194 0z"/>
<glyph glyph-name="logout" unicode="&#74;" d="M385 437c56-41 93-106 93-181 0-123-99-222-222-222-123 0-222 99-222 222 0 75 37 141 95 182l23-33c-48-34-78-89-78-149 0-100 82-182 182-182 100 0 182 82 182 182 0 59-29 114-77 148z m93-181c0-123-99-222-222-222-123 0-222 99-222 222 0 75 37 141 95 182l23-33c-48-34-78-89-78-149 0-100 82-182 182-182 100 0 182 82 182 182 0 59-29 114-77 148l24 33c56-41 93-106 93-181z m-242 222l40 0 0-242-40 0z"/>
<glyph glyph-name="comments" unicode="&#75;" d="M159 39c-22-13-48 2-48 27l0 62c-48 37-77 91-77 150 0 112 100 200 222 200 122 0 222-88 222-200 0-111-100-199-222-199-9 0-19 0-28 1z m64 83c10-2 21-3 32-3 100 0 180 71 180 159 0 87-80 159-180 159-99 0-180-72-180-159 0-52 29-98 73-127l0-64c0-3 2-6 6-6 1 0 2 1 3 1z m-48 212l160 0c11 0 20-9 20-20 0-11-9-20-20-20l-160 0c-11 0-20 9-20 20 0 11 9 20 20 20z m0-80l120 0c11 0 20-9 20-20 0-11-9-20-20-20l-120 0c-11 0-20 9-20 20 0 11 9 20 20 20z"/>
<glyph glyph-name="conversations" unicode="&#76;" d="M184 258l133 0 0 162-243 0 0-162 61 0 0-29z m-89-65l0 25-21 0c-22 0-40 18-40 40l0 162c0 23 18 41 40 41l243 0c22 0 40-18 40-41l0-162c0-22-18-40-40-40l-122 0-70-42c-9-6-22-3-27 6-2 4-3 7-3 11z m100 126c-11 0-20 9-20 20 0 12 9 21 20 21 12 0 21-9 21-21 0-11-9-20-21-20z m61 0c-11 0-20 9-20 20 0 12 9 21 20 21 11 0 20-9 20-21 0-11-9-20-20-20z m-121 0c-11 0-20 9-20 20 0 12 9 21 20 21 11 0 20-9 20-21 0-11-9-20-20-20z m60-148l0-34 133 0 49-30 0 30 61 0 0 162-41 0 0 40 41 0c22 0 40-18 40-40l0-162c0-22-18-41-40-41l-21 0 0-25c0-3-1-7-3-10-5-10-18-13-27-7l-70 42-122 0c-22 0-40 19-40 41l0 9z"/>
<glyph glyph-name="menu" unicode="&#77;" d="M167 108c0-13 10-23 23-23l266 0c12 0 22 10 22 23 0 12-10 22-22 22l-266 0c-13 0-23-10-23-22z m-133 313c0-12 10-22 22-22l400 0c12 0 22 10 22 22 0 13-10 23-22 23l-400 0c-12 0-22-10-22-23z m0-156c0-13 10-23 22-23l400 0c12 0 22 10 22 23 0 12-10 22-22 22l-400 0c-12 0-22-10-22-22z"/>
<glyph glyph-name="students" unicode="&#79;" d="M191 319c4 3 8 6 12 9-11 13-18 29-18 47 0 38 32 69 71 69 39 0 71-31 71-69 0-18-7-34-18-47 23-16 38-42 38-72l0-188-41 0 0 188c0 27-22 49-50 49-28 0-50-22-50-49l0-188-41 0 0 139c-9 12-24 19-40 19-28 0-51-22-51-49l0-109-40 0 0 109c0 30 15 56 38 72-11 13-18 29-18 47 0 38 32 69 71 69 31 0 57-20 66-46z m-66-53c17 0 30 13 30 30 0 16-13 29-30 29-17 0-30-13-30-29 0-17 13-30 30-30z m196 53c9 26 35 46 66 46 39 0 71-31 71-69 0-18-7-34-18-47 23-16 38-42 38-72l0-109-40 0 0 109c0 27-23 49-51 49-16 0-31-7-40-19l0 49c0 24-10 46-26 63z m66-53c17 0 30 13 30 30 0 16-13 29-30 29-17 0-30-13-30-29 0-17 13-30 30-30z m-131 79c17 0 30 13 30 30 0 16-13 29-30 29-17 0-30-13-30-29 0-17 13-30 30-30z"/>
<glyph glyph-name="my-classes" unicode="&#80;" d="M438 438l-364 0 0-182c0-11-9-20-20-20-11 0-20 9-20 20l0 202c0 11 9 20 20 20l404 0c11 0 20-9 20-20l0-202c0-11-9-20-20-20-11 0-20 9-20 20z m-283-121c-22 0-40 18-40 40 0 22 18 40 40 40 22 0 40-18 40-40 0-22-18-40-40-40z m101 80l121 0c11 0 20-9 20-20 0-11-9-20-20-20l-121 0c-11 0-20 9-20 20 0 11 9 20 20 20z m0-60l81 0c11 0 20-9 20-20 0-12-9-21-20-21l-81 0c-11 0-20 9-20 21 0 11 9 20 20 20z m0-61c32 0 60-18 73-45 8 3 18 5 28 5 44 0 81-36 81-81 0-21-9-41-23-55 18-9 31-18 41-28 7-7 6-19-1-26-1-1-1-1-2-2l0 0c-9-5-20-4-26 3-18 18-36 27-56 26 1-4 2-10 4-18 1-10-6-19-15-21-1 0-2 0-3 0-11 0-21 8-23 19-10 41-36 62-78 62-42 0-68-21-78-62-2-11-12-19-23-19-9 0-16 7-16 16 0 2 0 3 0 4 3 9 4 16 6 20-16 0-33-9-49-26-6-8-18-9-26-4-9 6-11 18-6 26 0 1 1 1 1 1 9 13 19 22 32 29-14 14-23 34-23 55 0 45 37 81 81 81 10 0 20-2 28-5 13 27 41 45 73 45z m-101-81c-22 0-40-18-40-40 0-22 18-40 40-40 4 0 9 0 13 2 8 9 18 17 29 23-12 13-20 31-21 50-6 3-13 5-21 5z m160-55c11-6 21-14 29-23 4-2 9-2 13-2 22 0 40 18 40 40 0 22-18 40-40 40-8 0-15-2-21-5-1-19-9-37-21-50z m-59 15c22 0 40 18 40 40 0 23-18 41-40 41-22 0-40-18-40-41 0-22 18-40 40-40z"/>
<glyph glyph-name="customize" unicode="&#81;" d="M123 433l-67 0c-12 0-22-9-22-22 0-12 10-22 22-22l67 0 0-22c0-12 10-22 22-22 12 0 22 10 22 22l0 22 289 0c12 0 22 10 22 22 0 13-10 22-22 22l-289 0 0 23c0 12-10 22-22 22-12 0-22-10-22-22z m-67-155c-12 0-22-10-22-22 0-12 10-22 22-22l178 0 0-22c0-13 10-23 22-23 12 0 22 10 22 23l0 22 178 0c12 0 22 10 22 22 0 12-10 22-22 22l-178 0 0 22c0 13-10 23-22 23-12 0-22-10-22-23l0-22z m289-155l0 22c0 12 10 22 22 22 12 0 22-10 22-22l0-22 67 0c12 0 22-10 22-22 0-13-10-22-22-22l-67 0 0-23c0-12-10-22-22-22-12 0-22 10-22 22l0 23-289 0c-12 0-22 9-22 22 0 12 10 22 22 22z"/>
<glyph glyph-name="settings" unicode="&#73;" d="M396 238c-1-7-2-14-4-20-2-6-4-12-6-17 0 0 0-1 0-1-3-5-5-10-8-15-3-5-7-10-10-15-4-5-8-10-12-14l0 0c-4-4-9-8-14-12-5-3-10-7-15-10-5-3-10-5-15-8 0 0-1 0-1 0-5-2-11-4-17-6-6-2-13-3-20-4-6-1-12-1-18-1-5 0-11 0-16 1 0 0 0 0-1 0l11 39c28-1 56 8 77 30 22 21 31 49 30 77l39 11c0-1 0-1 0-1 1-5 1-11 1-16 0-6 0-12-1-18z m-183-25c-23 24-23 62 0 86 24 23 62 23 86 0 23-24 23-62 0-86-24-23-62-23-86 0z m-13-87c0 0 0 1-1 1-5 2-9 4-14 7-5 3-10 7-15 10-10 8-18 16-26 26-3 5-7 10-10 15-3 5-5 10-8 15 0 0 0 1 0 1-2 5-4 11-6 17-2 6-3 13-4 20-1 6-1 12-1 18 0 6 0 12 1 18 1 7 2 14 4 20 2 6 4 12 6 17 0 0 0 1 0 1 3 5 5 10 8 15 3 5 6 9 9 13l29-28c-26-40-22-93 13-127 8-8 16-15 26-19z m-15 252c5 3 10 5 15 8 0 0 1 0 1 0 5 2 11 4 17 6 6 2 13 3 20 4 6 1 12 1 18 1 6 0 12 0 18-1 7-1 14-2 20-4 6-2 12-4 17-6 0 0 1 0 1 0 5-3 10-5 15-8 5-3 10-7 15-10 5-4 10-8 14-12 0 0 0 0 0 0 4-4 8-9 12-14 3-5 7-10 10-15 3-5 5-9 7-14 0-1 1-1 1-1l-40-11c-4 10-11 18-19 26-34 35-87 39-127 13l-28 29c4 3 8 6 13 9z m273-142c11 0 20 9 20 20 0 11-9 20-20 20l-22 0c-1 11-3 22-6 32l20 8c10 5 15 16 10 27-4 10-16 15-26 10l-20-8c-5 9-10 17-16 24l15 15c8 8 8 21 0 29-8 8-21 8-29 0l-15-15c-7 6-15 11-24 16l8 20c5 10 0 22-10 26-11 5-22 0-27-10l-8-20c-10 3-21 5-32 6l0 22c0 11-9 20-20 20-11 0-20-9-20-20l0-22c-11-1-22-3-32-6l-8 20c-5 10-16 15-27 10-10-4-15-16-10-26l8-20c-9-5-17-10-24-16l-15 15c-8 8-21 8-29 0-8-8-8-21 0-29l15-15c-6-7-11-15-16-24l-20 8c-10 5-22 0-26-10-5-11 0-22 10-27l20-8c-3-10-5-21-6-32l-22 0c-11 0-20-9-20-20 0-11 9-20 20-20l22 0c1-11 3-22 6-32l-20-8c-10-5-15-16-10-27 4-10 16-15 26-10l20 8c5-9 10-17 16-24l-15-15c-8-8-8-21 0-29 8-8 21-8 29 0l15 15c7-6 15-11 24-16l-8-20c-5-10 0-22 10-26 11-5 22 0 27 10l8 20c10-3 21-5 32-6l0-22c0-11 9-20 20-20 11 0 20 9 20 20l0 22c11 1 22 3 32 6l8-20c5-10 16-15 27-10 10 4 15 16 10 26l-8 20c9 5 17 10 24 16l15-15c8-8 21-8 29 0 8 8 8 21 0 29l-15 15c6 7 11 15 16 24l20-8c10-5 22 0 26 10 5 11 0 22-10 27l-20 8c3 10 5 21 6 32z"/>
<glyph glyph-name="multimedia-campaign" unicode="&#78;" d="M218 367c0 20-16 37-37 37-21 0-38-17-38-37 0-20 17-37 38-37 21 0 37 17 37 37z m-75-56l226 0 0-129-226 0z m-37 130l0-370 300 0 0 370z m0 37l300 0c21 0 38-17 38-37l0-370c0-20-17-37-38-37l-300 0c-21 0-38 17-38 37l0 370c0 20 17 37 38 37z m131-93l132 0 0-37-132 0z m-94-240l226 0 0-37-226 0z"/>
<glyph glyph-name="sms-campaign" unicode="&#82;" d="M117 63l0 35-27 0c-31 0-56 26-56 58l0 230c0 32 25 58 56 58l332 0c31 0 56-26 56-58l0-230c0-32-25-58-56-58l-166 0-97-60c-13-8-30-4-38 10-2 5-4 10-4 15z m116 74l184 0c11 0 21 9 21 20l0 226c0 11-10 20-21 20l-322 0c-11 0-21-9-21-20l0-226c0-11 10-20 21-20l70 0 0-52z m-98 184l242 0 0-41-242 0z m0-62l141 0 0-41-141 0z"/>
<glyph glyph-name="check" unicode="&#84;" d="M184 151l233 251c10 10 26 10 36 0 10-11 10-28 0-39l-251-270c-10-10-26-10-36 0l-107 116c-10 11-10 28 0 38 10 11 26 11 36 0z"/>
<glyph glyph-name="optimized-campaign" unicode="&#85;" d="M304 395c0 15-12 27-27 27-16 0-28-12-28-27 0-16 12-28 28-28 15 0 27 12 27 28z m-55-56l0 14 165 0 0-97-41 0 0 28c0 31-25 55-55 55z m-150-285l0 24-18 0c-21 0-38 17-38 39l0 155c0 22 17 39 38 39l227 0c21 0 37-17 37-39l0-155c0-22-16-39-37-39l-114 0-66-41c-9-6-20-3-26 7-2 3-3 6-3 10z m79 49l126 0c8 0 14 7 14 14l0 153c0 8-6 14-14 14l-220 0c-8 0-14-6-14-14l0-153c0-7 6-14 14-14l48 0 0-34z m-67 125l166 0 0-27-166 0z m0-41l97 0 0-28-97 0z m83 152c0 25 0 62 0 111 0 15 12 28 28 28l220 0c15 0 27-13 27-28l0-277c0-16-12-28-27-28-31 0-54 0-69 0l0 28 55 0c8 0 14 6 14 13l0 250c0 8-6 14-14 14l-193 0c-7 0-13-6-13-14l0-97z m124 70l96 0 0-28-96 0z m55-181l41 0 0-27-41 0z"/>
<glyph glyph-name="send" unicode="&#86;" d="M469 239l-408-203c-9-4-20-1-25 9-2 3-2 7-1 11l27 140c1 7 6 13 13 15l114 27c10 2 16 12 14 22-2 7-8 12-14 14l-113 25c-7 2-13 7-14 15l-28 142c-2 10 5 19 15 21 4 1 8 1 12-1l408-203c9-5 12-16 8-25-2-4-5-7-8-9z"/>
<glyph glyph-name="import-manually" unicode="&#87;" d="M353 404l0 49 97 0c13 0 24-11 24-24l0-395c0-13-11-25-24-25l-388 0c-13 0-24 12-24 25l0 395c0 13 11 24 24 24l97 0 0-49-73 0 0-345 340 0 0 345z m-115-158l0 232c0 13 10 25 24 25 13 0 24-12 24-25l0-232 27 27c10 10 25 10 35 0 9-9 9-25 0-34l-69-70c-9-10-25-10-34 0l-69 70c-9 9-9 25 0 34 10 10 25 10 34 0z"/>
<glyph glyph-name="csv-file" unicode="&#88;" d="M108 74l316 0 0-20c0-11-9-20-20-20l-316 0c-11 0-20 9-20 20l0 294c0 6 2 11 6 15l107 109c4 4 9 6 14 6l209 0c11 0 20-9 20-20l0-182-40 0 0 162-158 0 0-101c0-11-8-20-19-20l-99 0z m79 347l-63-64 63 0z m158-185l79 0c11 0 20-9 20-20 0-11-9-21-20-21l-79 0c-11 0-20 10-20 21 0 11 9 20 20 20z m-79 0l20 0c11 0 19-9 19-20 0-11-8-21-19-21l-20 0c-11 0-20 10-20 21 0 11 9 20 20 20z m79-81l79 0c11 0 20-9 20-20 0-11-9-20-20-20l-79 0c-11 0-20 9-20 20 0 11 9 20 20 20z m-79 0l20 0c11 0 19-9 19-20 0-11-8-20-19-20l-20 0c-11 0-20 9-20 20 0 11 9 20 20 20z"/>
<glyph glyph-name="delete" unicode="&#89;" d="M367 389l111 0 0-44-67 0 0-311-310 0 0 311-67 0 0 44 111 0 0 89 222 0z m-222-310l222 0 0 266-222 0z m44 310l134 0 0 44-134 0z m0-266l0 177 45 0 0-177z m89 0l0 177 45 0 0-177z"/>
<glyph glyph-name="camera" unicode="&#90;" d="M256 309c-37 0-67-30-67-67 0-37 30-67 67-67 37 0 67 30 67 67 0 37-30 67-67 67z m177 68l-53 0c-7 0-15 5-17 12l-14 42c-2 7-10 13-18 13l-150 0c-8 0-16-6-18-13l-14-42c-2-7-10-12-17-12l-53 0c-25 0-45-21-45-45l0-202c0-25 20-45 45-45l354 0c25 0 45 20 45 45l0 202c0 24-20 45-45 45z m-177-247c-61 0-111 50-111 112 0 62 50 112 111 112 61 0 111-50 111-112 0-62-50-112-111-112z m162 170c-9 0-16 7-16 16 0 9 7 16 16 16 9 0 15-7 15-16 0-9-6-16-15-16z"/>
<glyph glyph-name="sms-credits-1" unicode="&#83;" d="M117 63l0 35-27 0c-31 0-56 26-56 58l0 230c0 32 25 58 56 58l332 0c31 0 56-26 56-58l0-230c0-32-25-58-56-58l-166 0-97-60c-13-8-30-4-38 10-2 5-4 10-4 15z m116 74l184 0c11 0 21 9 21 20l0 226c0 11-10 20-21 20l-322 0c-11 0-21-9-21-20l0-226c0-11 10-20 21-20l70 0 0-52z m-125 230l86 0 0-192-86 0z"/>
<glyph glyph-name="sms-credits-2" unicode="&#48;" d="M117 63l0 35-27 0c-31 0-56 26-56 58l0 230c0 32 25 58 56 58l332 0c31 0 56-26 56-58l0-230c0-32-25-58-56-58l-166 0-97-60c-13-8-30-4-38 10-2 5-4 10-4 15z m116 74l184 0c11 0 21 9 21 20l0 226c0 11-10 20-21 20l-322 0c-11 0-21-9-21-20l0-226c0-11 10-20 21-20l70 0 0-52z m-125 230l86 0 0-192-86 0z m105 0l86 0 0-192-86 0z"/>
<glyph glyph-name="sms-credits-3" unicode="&#49;" d="M117 63l0 35-27 0c-31 0-56 26-56 58l0 230c0 32 25 58 56 58l332 0c31 0 56-26 56-58l0-230c0-32-25-58-56-58l-166 0-97-60c-13-8-30-4-38 10-2 5-4 10-4 15z m116 74l184 0c11 0 21 9 21 20l0 226c0 11-10 20-21 20l-322 0c-11 0-21-9-21-20l0-226c0-11 10-20 21-20l70 0 0-52z m-125 230l86 0 0-192-86 0z m105 0l86 0 0-192-86 0z m105 0l86 0 0-192-86 0z"/>
<glyph glyph-name="audio" unicode="&#50;" d="M256 171c-23 0-44 8-60 25-17 16-25 37-25 60l0 137c0 23 8 43 25 60 16 17 37 25 60 25 23 0 44-8 60-25 17-17 25-37 25-60l0-137c0-23-8-44-25-60-16-17-37-25-60-25z m0 36c14 0 25 4 35 14 10 10 14 21 14 35l0 137c0 13-4 24-14 34-10 10-21 15-35 15-14 0-25-5-35-15-10-10-14-21-14-34l0-137c0-14 4-25 14-35 10-10 21-14 35-14z m149 95c3-3 5-7 5-12l0-34c0-39-14-73-40-103-26-29-58-45-97-50l0-35 68 0c5 0 9-1 12-5 4-3 5-7 5-12 0-4-1-8-5-12-3-3-7-5-12-5l-170 0c-5 0-9 2-12 5-4 4-5 8-5 12 0 5 1 9 5 12 3 4 7 5 12 5l68 0 0 35c-39 5-71 21-97 50-26 30-40 64-40 103l0 34c0 5 2 9 5 12 4 4 8 5 12 5 5 0 9-1 12-5 4-3 6-7 6-12l0-34c0-33 11-61 35-84 23-24 51-35 84-35 33 0 61 11 84 35 24 23 35 51 35 84l0 34c0 5 2 9 6 12 3 4 7 5 12 5 4 0 8-1 12-5z"/>
<glyph glyph-name="document" unicode="&#51;" d="M336 247l-107 0c-10 0-18 8-18 18l0 107-90 0 0-302 215 0z m0 36l-89 89 0 0 0-89z m17 36l14-15c3-3 5-7 5-12l0-152 36 0 0 179z m-70 70l0 53-90 0 0-34 64 0c5 0 9-2 13-6z m-125 19l0 34c0 20 16 36 35 36l127 0c10 0 19-4 25-11l88-87c7-6 11-15 11-25l0-215c0-20-16-36-36-36l-36 0 0-52c0-10-8-18-18-18l-251 0c-10 0-18 8-18 18l0 338c0 10 8 18 18 18z m250-54l0 1-88 87-2 0 0-88z m-233-142l108 0c10 0 17-8 17-18 0-10-7-18-17-18l-108 0c-10 0-18 8-18 18 0 10 8 18 18 18z m0-71l72 0c10 0 18-8 18-18 0-10-8-18-18-18l-72 0c-10 0-18 8-18 18 0 10 8 18 18 18z"/>
<glyph glyph-name="list-1" unicode="&#52;" d="M56 393c13 0 23-10 23-23l0-1c0-12-10-22-23-22-12 0-22 10-22 22l0 1c0 13 10 23 22 23z m89 0l311 0c12 0 22-10 22-23l0-1c0-12-10-22-22-22l-311 0c-12 0-22 10-22 22l0 1c0 13 10 23 22 23z m-89-114c13 0 23-10 23-22l0-2c0-12-10-22-23-22-12 0-22 10-22 22l0 2c0 12 10 22 22 22z m89 0l311 0c12 0 22-10 22-22l0-2c0-12-10-22-22-22l-311 0c-12 0-22 10-22 22l0 2c0 12 10 22 22 22z m-89-114c13 0 23-10 23-22l0-1c0-13-10-23-23-23-12 0-22 10-22 23l0 1c0 12 10 22 22 22z m89 0l311 0c12 0 22-10 22-22l0-1c0-13-10-23-22-23l-311 0c-12 0-22 10-22 23l0 1c0 12 10 22 22 22z"/>
<glyph glyph-name="location" unicode="&#53;" d="M265 478c108 0 196-83 196-186 0-42-15-82-43-115-14-17-41-45-76-80-21-21-41-41-55-54-12-12-33-12-45 0-13 13-33 33-55 54-35 35-62 63-76 80-28 33-43 73-43 115 0 103 89 186 197 186z m47-353c34 35 61 62 74 78 22 26 33 57 33 89 0 80-69 145-154 145-86 0-155-65-155-145 0-32 11-63 33-89 13-16 40-43 74-78 18-18 35-34 48-47 12 13 29 29 47 47z m-47 268c58 0 106-47 106-104 0-57-48-104-106-104-59 0-107 47-107 104 0 57 48 104 107 104z m0-41c-37 0-66-28-66-63 0-35 29-63 66-63 36 0 65 28 65 63 0 35-29 63-65 63z"/>
<glyph glyph-name="photo-camera" unicode="&#54;" d="M426 397l-64 0c-2 0-4 1-5 3l-17 38c0 0 0 0 0 0-7 14-21 23-36 23l-94 0c-16 0-29-9-36-23 0 0 0 0 0 0l-18-38c-1-2-3-3-5-3l-65 0c-29 0-52-24-52-53l0-240c0-29 23-53 52-53l340 0c29 0 52 24 52 53l0 240c0 29-23 53-52 53z m17-293c0-9-8-17-17-17l-340 0c-9 0-17 8-17 17l0 240c0 10 8 18 17 18l65 0c15 0 29 8 36 22 0 0 0 0 0 0l18 38c1 2 3 3 5 3l94 0c2 0 4-1 4-3l18-38c0 0 0 0 0 0 7-14 21-22 36-22l64 0c9 0 17-8 17-18z m-187 242c-60 0-108-49-108-109 0-60 48-108 108-108 60 0 108 48 108 108 0 60-48 109-108 109z m0-183c-41 0-74 34-74 74 0 41 33 74 74 74 41 0 74-33 74-74 0-40-33-74-74-74z m136 183l34 0 0-34-34 0z"/>
<glyph glyph-name="poll-1" unicode="&#55;" d="M358 188l69 0 0-137-69 0z m-136 256l68 0 0-393-68 0z m-137-171l69 0 0-222-69 0z"/>
<glyph glyph-name="video" unicode="&#56;" d="M238 126l-56 0 0-38 56 0z m36 0l0-38 56 0 0 38z m93 0l0-38 74 0 0 38z m74 37l0 186-370 0 0-186z m-370-37l0-38 74 0 0 38z m111 298l0-38 56 0 0 38z m-37 0l-74 0 0-38 74 0z m129 0l0-38 56 0 0 38z m93 0l0-38 74 0 0 38z m-296 37l370 0c20 0 37-17 37-37l0-336c0-20-17-37-37-37l-370 0c-20 0-37 17-37 37l0 336c0 20 17 37 37 37z m182-270c-13-8-31-4-39 9-3 4-4 9-4 15l0 85c0 16 12 28 28 28 5 0 10-1 15-4l66-43c12-8 16-26 8-39-2-3-5-6-8-8z m-6 92l0-51 40 26z"/>
<glyph glyph-name="event" unicode="&#57;" d="M79 212l88 0 0 88 45 0 0-88 88 0 0 88 45 0 0-88 88 0 0 88-354 0z m0-45l0-88 88 0 0 88z m133-88l221 0 0 88-88 0 0-88-45 0 0 88-88 0z m-133 266l354 0 0 88-22 0c-12 0-22 10-22 23 0 12 10 22 22 22l45 0c12 0 22-10 22-22l0-400c0-12-10-22-22-22l-400 0c-12 0-22 10-22 22l0 400c0 12 10 22 22 22l45 0c12 0 22-10 22-22 0-13-10-23-22-23l-22 0z m288 111l0-45c0-12-10-22-22-22-13 0-22 10-22 22l0 45c0 12 9 22 22 22 12 0 22-10 22-22z m-89 0l0-45c0-12-10-22-22-22-12 0-22 10-22 22l0 45c0 12 10 22 22 22 12 0 22-10 22-22z m-89 0l0-45c0-12-9-22-22-22-12 0-22 10-22 22l0 45c0 12 10 22 22 22 13 0 22-10 22-22z"/>
<glyph glyph-name="edit" unicode="&#33;" d="M472 375l-312-326c-8-8-24-15-35-15l-70 0c-11 0-21 9-21 21l0 70c0 12 7 28 15 36l326 311c8 8 22 8 30 0l67-67c8-8 8-22 0-30z m-389-300l37 0c4 0 11 2 14 6l241 249-45 46-249-241c-3-3-6-10-6-14l0-38c0-5 4-8 8-8z m303 356l-31-30 48-44 29 30c4 3 3 8 0 11l-34 33c-3 3-9 3-12 0z"/>
<glyph glyph-name="sport" unicode="&#34;" d="M439 127l-109 0c-15 0-31 6-41 18l-146 154c-1 0-1 0-1 0-7 8-6 20 2 26 8 8 20 7 28-1l144-153c4-3 9-6 14-6l108 0c-4 23-24 39-47 39l-42 0-25 64-43-14-12 37 42 14-10 26-84 0c-10 0-19 8-19 19l0 55-97-85 196-207c4-4 9-6 14-6l128 0z m-64 116l16 0c48 0 87-39 87-87l0-49c0-21-17-39-39-39l-128 0c-16 0-31 7-42 18l-196 207c-1 1-1 1-1 1-14 16-13 41 3 55l98 85c7 6 16 10 25 10 21 0 39-18 39-39l0-35 64 0c16 0 30-10 36-25z m-341-39l97 0 0-39-97 0z m58-77l96 0 0-39-96 0z"/>
<glyph glyph-name="gift" unicode="&#35;" d="M236 323l-162 0 0-41 162 0z m149 41l73 0c11 0 20-9 20-20l0-83c0-11-9-20-20-20l-20 0 0-186c0-12-10-21-21-21l-322 0c-11 0-21 9-21 21l0 186-20 0c-11 0-20 9-20 20l0 83c0 11 9 20 20 20l73 0c-1 2-1 3-2 4-23 34-18 71 19 96 46 31 83 8 112-58 29 66 66 89 112 58 37-25 42-62 19-96-1-1-1-2-2-4z m-68 0c8 0 27 13 37 28 10 15 9 26-8 38-22 14-42-2-63-66z m-88 0c-21 64-41 80-63 66-17-12-18-23-8-38 10-15 29-28 37-28z m47-41l0-41 162 0 0 41z m-40-82l-121 0 0-166 121 0z m40 0l0-166 121 0 0 166z"/>
<glyph glyph-name="appointment-active" unicode="&#36;" d="M125 461c10 0 19-8 19-19 0-10-9-18-19-18l-37 0 0-93 333 0 0 93-37 0c-10 0-18 8-18 18 0 11 8 19 18 19l55 0c11 0 19-8 19-19l0-218 0 0c23-22 37-53 37-87 0-66-54-120-120-120-34 0-65 14-87 37l0 0-218 0c-11 0-19 8-19 19l0 369c0 11 8 19 19 19z m250-241c-46 0-83-37-83-83 0-46 37-83 83-83 46 0 83 37 83 83 0 46-37 83-83 83z m-110-132l1-1 0-2z m-1 3l1-3 0 0z m157 203l-333 0 0-203 176 0 0 0c-6 14-9 30-9 46 0 67 53 120 120 120 16 0 32-3 46-9l0 0z m-46-90c10 0 18-8 18-19l0-29 15 0c10 0 19-9 19-19 0-10-9-18-19-18l-17 0c-19 0-35 15-35 35l0 31c0 11 9 19 19 19z m-176-21c10 0 19-8 19-18 0-10-9-19-19-19l-55 0c-11 0-19 9-19 19 0 10 8 18 19 18z m56 74c10 0 18-8 18-18 0-10-8-19-18-19l-111 0c-11 0-19 9-19 19 0 10 8 18 19 18z m190-22l1-1c-1 0-1 1-1 1z m-9 6l0-1c0 1 0 1 0 1z m-5 2c0 0 0 0 0 0z m-6 3l2 0c-1 0-1 0-2 0z m-232 215c10 0 18-8 18-19l0-55c0-10-8-19-18-19-10 0-19 9-19 19l0 55c0 11 9 19 19 19z m62 0c10 0 18-8 18-19l0-55c0-10-8-19-18-19-11 0-19 9-19 19l0 55c0 11 8 19 19 19z m61 0c10 0 19-8 19-19l0-55c0-10-9-19-19-19-10 0-18 9-18 19l0 55c0 11 8 19 18 19z m142-237l-2 2-2 1z"/>
</font>
</defs>
</svg>
