<?xml version="1.0" encoding="UTF-8"?>
<svg width="102px" height="71px" viewBox="0 0 102 71" version="1.1" xmlns="http://www.w3.org/2000/svg" xmlns:xlink="http://www.w3.org/1999/xlink">
    <!-- Generator: Sketch 53.2 (72643) - https://sketchapp.com -->
    <title>book</title>
    <desc>Created with Sketch.</desc>
    <g id="MY-CLASSES-✅-" stroke="none" stroke-width="1" fill="none" fill-rule="evenodd">
        <g id="MY-CLASSES---LINK-CLASSES" transform="translate(-1013.000000, -398.000000)">
            <g id="Center-Panel" transform="translate(325.000000, 142.000000)">
                <g id="Link-Class-Push" transform="translate(0.000000, 187.000000)">
                    <g id="Illustration" transform="translate(688.000000, 69.000000)">
                        <g id="book" transform="translate(0.000000, -0.000000)">
                            <g id="books" transform="translate(12.000000, 0.000000)" fill-rule="nonzero">
                                <rect id="Rectangle-path" fill="#8EC54A" x="0" y="6.46655288" width="15.2539148" height="87.7120225"></rect>
                                <polygon id="Rectangle-path" fill="#F17265" transform="translate(55.385870, 50.317023) rotate(-4.520000) translate(-55.385870, -50.317023) " points="51.5393516 6.45551684 58.3824272 6.52815319 59.2323882 94.1785288 52.3893127 94.1058925"></polygon>
                                <rect id="Rectangle-path" fill="#FAAF4C" x="14.7589874" y="0" width="15.2539148" height="94.1785754"></rect>
                                <rect id="Rectangle-path" fill="#2DABDF" x="30.0129022" y="10.3264333" width="18.54074" height="83.83961"></rect>
                                <polygon id="Rectangle-path" fill="#FFDE88" points="14.9493441 11.7550903 30.0255927 11.7550903 30.0255927 25.0766905 14.9493441 25.0766905"></polygon>
                                <polygon id="Rectangle-path" fill="#C39A6F" points="63.3253202 13.6599664 96.2443343 13.6599664 96.2443343 94.1785754 63.3253202 94.1785754"></polygon>
                                <polygon id="Rectangle-path" fill="#FFDE88" points="63.3253202 27.7334913 96.2443343 27.7334913 96.2443343 29.3000012 63.3253202 29.3000012"></polygon>
                                <polygon id="Rectangle-path" fill="#FFDE88" points="63.3253202 31.6560321 96.2443343 31.6560321 96.2443343 33.222542 63.3253202 33.222542"></polygon>
                            </g>
                            <g id="cactus" transform="translate(0.000000, 25.000000)">
                                <path d="M11.3347437,10.1065488 C8.2335063,11.3150587 14.1286513,11.8648368 15.5916429,10.1090535 C17.8331187,7.41651833 13.9533971,5.91245568 15.0671502,7.7771928 C15.737688,8.9005435 17.5156292,7.88113718 16.8412815,6.75402945 C15.6589506,4.77532922 14.2429475,2.67890884 11.7982784,2.1729627 C9.81587395,1.76219456 7.98459454,2.80163835 7.0003771,4.47727184 C5.06623109,7.77343577 7.2632584,13.8598175 11.8808256,12.0614545 C13.0974454,11.5880693 12.5678729,9.62690181 11.3347437,10.1065488" id="Fill-267" fill="#63873B"></path>
                                <path d="M28.4419667,19.9351786 C28.9931285,19.1837735 25.6150402,21.7585885 26.2995476,22.1217676 C27.3396432,22.6727981 25.0575287,22.2119362 25.0384793,23.3791189 C24.9978407,25.8712793 29.85416,27.0134152 27.6939614,25.5819883 C26.5929079,24.851873 25.562972,26.6076564 26.6564058,27.33151 C30.4040518,29.8161564 35.3759373,26.2031499 34.8527146,21.9865147 C34.4234688,18.530051 29.1366337,15.5469725 26.6678354,18.9132676 C25.8906211,19.9714965 27.6736421,20.9833888 28.4419667,19.9351786" id="Fill-268" fill="#63873B"></path>
                                <path d="M15.8185843,37.1762951 C18.9947493,37.1074163 23.2592682,36.9871915 23.2592682,36.9871915 C22.8643112,38.2357763 24.8479856,38.769274 25.2416726,37.5256985 C27.4171106,30.6616124 33.8786568,2.06939403 17.5355675,6.63668501 C4.42960116,10.2985328 8.182327,30.8269215 14.3657524,38.6102266 C15.1810654,39.6346423 16.6262776,38.1919444 15.8185843,37.1762951" id="Fill-269" fill="#6DA041"></path>
                                <path d="M5.60685221,4.60926868 C6.1630938,5.00250404 6.72060536,5.39699174 7.27811691,5.79147945 C7.728952,6.11082664 8.42234905,5.86912465 8.6839604,5.42830029 C8.98748036,4.91859713 8.76777763,4.36130498 8.31567258,4.04195779 C7.75816103,3.64747008 7.20064947,3.25298238 6.64440788,2.85974701 C6.19230284,2.54039982 5.50017574,2.78210181 5.23729443,3.22292617 C4.93631439,3.73262933 5.15474716,4.28866915 5.60685221,4.60926868" id="Fill-270" fill="#35332D"></path>
                                <path d="M21.5798757,6.07012553 C21.6649629,6.39698677 21.6522633,6.68753009 21.5570165,7.01188665 C21.1899986,8.2679856 23.172403,8.80398794 23.5381509,7.55164602 C23.7337245,6.88289543 23.7362644,6.20287377 23.5622801,5.5316185 C23.234631,4.26925785 21.2509566,4.80400785 21.5798757,6.07012553" id="Fill-271" fill="#35332D"></path>
                                <path d="M6.4986167,21.8644114 C7.13613561,22.255142 7.85112195,22.4480027 8.59912721,22.4567691 C9.92242342,22.4692925 9.92369338,20.4430033 8.59912721,20.4292275 C8.20163036,20.4254705 7.87271124,20.3202738 7.53490242,20.1148897 C6.40844968,19.4261016 5.37470389,21.178128 6.4986167,21.8644114" id="Fill-272" fill="#35332D"></path>
                                <path d="M18.3709459,17.8212255 C18.2922085,18.233246 18.2134711,18.6465188 18.1360037,19.0585393 C18.0331371,19.595794 18.2871287,20.1518338 18.8535299,20.3046195 C19.3538934,20.4411248 20.0142715,20.138058 20.1171381,19.5970463 C20.1958755,19.1850258 20.2746129,18.7730053 20.3533503,18.3597325 C20.454947,17.8224778 20.2022253,17.2676903 19.6358241,17.1136523 C19.1341907,16.9783994 18.4738125,17.2802138 18.3709459,17.8212255" id="Fill-273" fill="#35332D"></path>
                                <path d="M14.7061012,26.3430365 C14.9969215,27.139526 15.465536,27.7381454 16.1640129,28.2290635 C16.616118,28.5471583 17.3069751,28.307961 17.5698564,27.8658843 C17.8708364,27.3574335 17.6536736,26.7976367 17.2002986,26.4795418 C16.9704362,26.3167374 16.7824825,26.0637643 16.6885056,25.8045295 C16.4992818,25.289817 15.9887587,24.9429183 15.4236274,25.0969563 C14.9194541,25.2334616 14.5168774,25.8258193 14.7061012,26.3430365" id="Fill-274" fill="#35332D"></path>
                                <path d="M33.17764,18.3636148 C32.9566673,18.7055041 32.7356946,19.0473934 32.514722,19.3905351 C31.8022755,20.4938484 33.5789467,21.5120023 34.2888533,20.4136985 C34.5098259,20.0705568 34.7307986,19.7286674 34.9517713,19.3855258 C35.6642178,18.2834649 33.8875465,17.2653109 33.17764,18.3636148" id="Fill-275" fill="#35332D"></path>
                                <path d="M32.3213074,26.6695221 C32.5473599,26.8849249 32.693405,27.097823 32.8318305,27.3795999 C33.0743924,27.8717703 33.7855689,28.0032662 34.2376739,27.7427791 C34.7481971,27.4484787 34.8497937,26.8511117 34.6072317,26.3564366 C34.4014985,25.9381544 34.1132181,25.5599471 33.7754092,25.2355906 C32.8242107,24.3276427 31.3688389,25.7590695 32.3213074,26.6695221" id="Fill-276" fill="#35332D"></path>
                                <path d="M30.1980646,23.9563233 C30.4330068,23.7371635 30.6666791,23.519256 30.9016213,23.3000961 C31.8642495,22.4009146 30.4088776,20.9694878 29.4487894,21.867417 C29.2138472,22.0853245 28.9801749,22.3044843 28.7439627,22.5236441 C27.7826045,23.4228256 29.2379764,24.8542525 30.1980646,23.9563233" id="Fill-277" fill="#35332D"></path>
                                <path d="M27.8267991,13.9767862 C28.2065165,13.7501124 28.5862339,13.5234385 28.9646814,13.2967646 C30.094944,12.6217523 29.0637381,10.8684736 27.9283957,11.5472429 C27.5486783,11.7726645 27.1689608,12.0005907 26.7892434,12.2272646 C25.6589808,12.9022769 26.6914566,14.6555556 27.8267991,13.9767862" id="Fill-278" fill="#35332D"></path>
                                <path d="M12.9400976,18.6510272 C13.2093287,18.9515893 13.440461,19.2659271 13.6550839,19.6065641 C14.3522909,20.712382 16.131502,19.6954804 15.4292152,18.5846531 C15.1244253,18.0999968 14.7751869,17.6453967 14.3941995,17.2170957 C14.0259117,16.8075799 13.3147352,16.8489072 12.9400976,17.2170957 C12.5260913,17.6266115 12.5718098,18.2390067 12.9400976,18.6510272" id="Fill-279" fill="#35332D"></path>
                                <path d="M19.033864,10.499158 C18.8560699,11.0702259 18.7532033,11.6425461 18.6731959,12.2336515 C18.6008083,12.7771679 19.1976886,13.2467961 19.7005919,13.2467961 C20.3165215,13.2467961 20.6556003,12.7784203 20.7292579,12.2336515 C20.7825961,11.8291451 20.8943524,11.4271433 21.0162684,11.037665 C21.4048755,9.78782775 19.4212012,9.25307775 19.033864,10.499158" id="Fill-280" fill="#35332D"></path>
                                <path d="M22.1944084,26.9826076 C22.539837,26.6895595 22.9106647,26.4390912 23.3030817,26.2099126 C24.4409641,25.5474237 23.4084882,23.7953974 22.2655261,24.4603909 C21.723254,24.7759811 21.2178107,25.1441696 20.7415765,25.5486761 C20.3199504,25.9068458 20.3694788,26.6169237 20.7415765,26.9826076 C21.1593926,27.394628 21.7727824,27.3407773 22.1944084,26.9826076" id="Fill-281" fill="#35332D"></path>
                                <path d="M18.1930248,33.162414 C18.7492664,33.2237787 19.2966183,33.1736851 19.8427002,33.0572173 C20.3862422,32.9420018 20.7011918,32.3170832 20.5602265,31.8111371 C20.4065616,31.2576019 19.8401603,30.9870961 19.2966183,31.1035639 C18.9270605,31.1824614 18.5676624,31.177452 18.1930248,31.1361248 C17.6405931,31.07476 17.1643588,31.6458279 17.1643588,32.1492694 C17.1643588,32.7478888 17.6380532,33.1010492 18.1930248,33.162414" id="Fill-282" fill="#35332D"></path>
                                <path d="M8.60001618,30.696177 L10.1988933,30.696177 C11.5209195,30.696177 11.5234595,28.6686355 10.1988933,28.6686355 L8.60001618,28.6686355 C7.27671996,28.6686355 7.27545,30.696177 8.60001618,30.696177" id="Fill-283" fill="#35332D"></path>
                                <path d="M26.0483499,31.837311 C26.6769791,32.1679293 27.3030684,32.3382478 28.0066251,32.4209023 C28.5590568,32.4872765 29.0352911,31.9086945 29.0352911,31.4077577 C29.0352911,30.8066336 28.5615967,30.4597349 28.0066251,30.3946131 C27.6840558,30.3570429 27.3703762,30.236818 27.0859056,30.0877893 C25.9175442,29.4753941 24.8787186,31.2236635 26.0483499,31.837311" id="Fill-284" fill="#35332D"></path>
                                <path d="M12.0360145,1.37133864 C11.9115586,2.02506112 11.8569504,2.67126956 11.9204483,3.33375843 C11.9725166,3.87852717 12.3547739,4.34690304 12.9478443,4.34690304 C13.4634473,4.34690304 14.0273086,3.88228419 13.9752403,3.33375843 C13.9307918,2.8578685 13.9282519,2.38197857 14.0171489,1.90984567 C14.1200155,1.37259098 13.8660239,0.817803513 13.2996227,0.663765457 C12.7992592,0.528512529 12.1388811,0.830326932 12.0360145,1.37133864" id="Fill-285" fill="#35332D"></path>
                                <path d="M6.85763382,11.6133666 C7.03034811,11.380431 7.31735861,11.3578888 7.56881029,11.3729169 C8.12251197,11.4042255 8.5962063,10.8845036 8.5962063,10.3597723 C8.5962063,9.78494737 8.12505189,9.3766839 7.56881029,9.34537535 C6.54268424,9.28776762 5.67403298,9.79621844 5.08350252,10.5902032 C4.75331345,11.0310276 5.00730504,11.7198156 5.45179034,11.9765457 C5.97247311,12.2771078 6.52744475,12.0554433 6.85763382,11.6133666" id="Fill-286" fill="#35332D"></path>
                                <path d="M10.54102,7.50105141 C11.8643162,7.50105141 11.8655861,5.47476218 10.54102,5.47476218 C9.2189937,5.47476218 9.21645378,7.50105141 10.54102,7.50105141" id="Fill-287" fill="#35332D"></path>
                                <path d="M32.8713262,40.4128475 C32.75576,39.3871795 3.35623267,35.1517591 3.47433876,36.1886982 C4.66555935,46.6970993 5.85804989,57.204248 7.04927048,67.7113967 C7.0759396,67.9480893 7.19023582,68.1259219 7.34009086,68.2536608 C7.47089653,68.4352504 7.67408981,68.5667463 7.96999002,68.5667463 L31.1264039,68.5667463 C31.696615,68.5667463 31.9467967,68.4490261 32.0979217,68.0532861 C32.2172978,67.7201631 32.2909554,67.3356941 32.3214343,67.0313751 C33.2294543,58.1723083 33.9609501,49.3007181 34.5159217,40.4128475 C34.5806896,39.3708991 32.936094,39.3746561 32.8713262,40.4128475" id="Fill-288" fill="#9F7958"></path>
                                <path d="M37.8556572,35.0054856 C37.2155984,34.329221 35.8948421,34.2102485 33.3536562,34.2102485 L5.68381166,34.2102485 C3.10071712,34.2102485 1.90187679,34.2778749 1.27324758,34.9253357 C0.719545903,35.4938989 0.755104727,36.3317157 0.813522794,37.7193105 C0.83511208,38.2452941 0.860511239,38.8626987 0.860511239,39.5878047 L0.856701366,40.5884259 C0.842731828,42.5245465 0.83511208,43.5902895 1.49422027,44.2452643 C2.18634737,44.9315477 3.47027489,44.9653609 5.68381166,44.9653609 L33.3536562,44.9653609 C35.8453138,44.9653609 37.0733631,44.936557 37.7172318,44.2815822 C38.2798232,43.7092619 38.2544241,42.8664358 38.2074356,41.3385787 C38.1934661,40.8376419 38.1744167,40.25906 38.1744167,39.5878047 C38.1744167,38.8151097 38.2201352,38.171406 38.2607738,37.6028427 C38.345861,36.3868187 38.4017392,35.5828152 37.8556572,35.0054856" id="Fill-289" fill="#B08F76"></path>
                            </g>
                        </g>
                    </g>
                </g>
            </g>
        </g>
    </g>
</svg>