<?xml version="1.0" encoding="UTF-8"?>
<svg width="90px" height="90px" viewBox="0 0 90 90" version="1.1" xmlns="http://www.w3.org/2000/svg" xmlns:xlink="http://www.w3.org/1999/xlink">
    <!-- Generator: Sketch 53.2 (72643) - https://sketchapp.com -->
    <title>Icon</title>
    <desc>Created with Sketch.</desc>
    <defs>
        <path d="M39.9193548,9.97983871 L9.97983871,9.97983871 L9.97983871,24.9495968 C9.97983871,25.8682156 9.23515105,26.6129032 8.31653226,26.6129032 C7.39791347,26.6129032 6.65322581,25.8682156 6.65322581,24.9495968 L6.65322581,8.31653226 C6.65322581,7.39791347 7.39791347,6.65322581 8.31653226,6.65322581 L41.5826613,6.65322581 C42.5012801,6.65322581 43.2459677,7.39791347 43.2459677,8.31653226 L43.2459677,24.9495968 C43.2459677,25.8682156 42.5012801,26.6129032 41.5826613,26.6129032 C40.6640425,26.6129032 39.9193548,25.8682156 39.9193548,24.9495968 L39.9193548,9.97983871 Z M16.6330645,19.9596774 C14.7958269,19.9596774 13.3064516,18.4703021 13.3064516,16.6330645 C13.3064516,14.7958269 14.7958269,13.3064516 16.6330645,13.3064516 C18.4703021,13.3064516 19.9596774,14.7958269 19.9596774,16.6330645 C19.9596774,18.4703021 18.4703021,19.9596774 16.6330645,19.9596774 Z M24.9495968,13.3064516 L34.9294355,13.3064516 C35.8480543,13.3064516 36.5927419,14.0511393 36.5927419,14.9697581 C36.5927419,15.8883769 35.8480543,16.6330645 34.9294355,16.6330645 L24.9495968,16.6330645 C24.030978,16.6330645 23.2862903,15.8883769 23.2862903,14.9697581 C23.2862903,14.0511393 24.030978,13.3064516 24.9495968,13.3064516 Z M24.9495968,18.296371 L31.6028226,18.296371 C32.5214414,18.296371 33.266129,19.0410586 33.266129,19.9596774 C33.266129,20.8782962 32.5214414,21.6229839 31.6028226,21.6229839 L24.9495968,21.6229839 C24.030978,21.6229839 23.2862903,20.8782962 23.2862903,19.9596774 C23.2862903,19.0410586 24.030978,18.296371 24.9495968,18.296371 Z M24.9495968,23.2862903 C27.5816821,23.2862903 29.8567852,24.814713 30.9357846,27.0324367 C31.661022,26.7612013 32.4462571,26.6129032 33.266129,26.6129032 C36.9406042,26.6129032 39.9193548,29.5916539 39.9193548,33.266129 C39.9193548,35.0372219 39.2273228,36.6466821 38.0989106,37.8388576 C39.5506099,38.5671911 40.6569191,39.3278395 41.4178381,40.1208028 L41.4178395,40.1208015 C41.9931474,40.7203372 41.9735069,41.6727361 41.3739713,42.248044 C41.3099628,42.3094659 41.2406472,42.3651062 41.1668347,42.4143145 L41.1668347,42.4143145 C40.4877378,42.8670458 39.5814718,42.7660226 39.0187396,42.1748622 C37.5980844,40.682449 36.0567436,39.9623874 34.3947117,40.0146826 C34.5247729,40.3949507 34.6380951,40.9023976 34.7346783,41.5370235 L34.7346667,41.5370253 C34.8580998,42.3480762 34.3006754,43.1056252 33.4896244,43.2290583 C33.4156581,43.2403152 33.340947,43.2459677 33.266129,43.2459677 L33.266129,43.2459677 C32.3529481,43.2459677 31.5617031,42.6131047 31.3610661,41.7222376 C30.5908767,38.3025759 28.4537295,36.5927419 24.9495968,36.5927419 C21.445464,36.5927419 19.3083168,38.3025759 18.5381551,41.7222438 L18.5381274,41.7222376 C18.3374905,42.6131047 17.5462455,43.2459677 16.6330645,43.2459677 L16.6330645,43.2459677 C15.8964994,43.2459677 15.2993953,42.6488637 15.2993953,41.9122985 C15.2993953,41.8076119 15.3117213,41.7032894 15.3361186,41.6014854 C15.5077797,40.8850802 15.6628853,40.324372 15.8014113,39.9193548 C14.450515,39.9709701 13.1124661,40.7121077 11.7872645,42.1427676 L11.7872639,42.1427671 C11.219654,42.7555469 10.2931043,42.8702223 9.59322706,42.4143145 L9.59322706,42.4143145 C8.87271607,41.9449656 8.66910896,40.9803936 9.13845785,40.2598826 C9.15466123,40.2350083 9.17157269,40.2106026 9.1891715,40.1866952 C9.93538846,39.1729575 10.8057636,38.3903484 11.800283,37.8388576 C10.6718707,36.6466821 9.97983871,35.0372219 9.97983871,33.266129 C9.97983871,29.5916539 12.9585894,26.6129032 16.6330645,26.6129032 C17.4529365,26.6129032 18.2381715,26.7612013 18.9634089,27.0324367 C20.0424083,24.814713 22.3175114,23.2862903 24.9495968,23.2862903 Z M16.6330645,29.9395161 C14.7958269,29.9395161 13.3064516,31.4288915 13.3064516,33.266129 C13.3064516,35.1033666 14.7958269,36.5927419 16.6330645,36.5927419 C16.9907555,36.5927419 17.3352611,36.5362886 17.6581576,36.4318058 C18.3696474,35.6708014 19.1988807,35.021267 20.1168152,34.5122447 C19.0856017,33.4227603 18.4188287,31.9847829 18.3116116,30.393428 C17.8188826,30.1048997 17.2452873,29.9395161 16.6330645,29.9395161 Z M29.7823783,34.5122447 C30.7003128,35.021267 31.5295462,35.6708014 32.241036,36.4318058 C32.5639324,36.5362886 32.908438,36.5927419 33.266129,36.5927419 C35.1033666,36.5927419 36.5927419,35.1033666 36.5927419,33.266129 C36.5927419,31.4288915 35.1033666,29.9395161 33.266129,29.9395161 C32.6539063,29.9395161 32.080311,30.1048997 31.587582,30.393428 C31.4803648,31.9847829 30.8135918,33.4227603 29.7823783,34.5122447 Z M24.9495968,33.266129 C26.7868343,33.266129 28.2762097,31.7767537 28.2762097,29.9395161 C28.2762097,28.1022786 26.7868343,26.6129032 24.9495968,26.6129032 C23.1123592,26.6129032 21.6229839,28.1022786 21.6229839,29.9395161 C21.6229839,31.7767537 23.1123592,33.266129 24.9495968,33.266129 Z" id="path-1"></path>
    </defs>
    <g id="MY-CLASSES-✅-" stroke="none" stroke-width="1" fill="none" fill-rule="evenodd">
        <g id="MY-CLASSES---LINK-CLASSES" transform="translate(-470.000000, -673.000000)">
            <g id="Center-Panel" transform="translate(325.000000, 142.000000)">
                <g id="Content" transform="translate(0.000000, 377.000000)">
                    <g id="1" transform="translate(0.000000, 104.000000)">
                        <g id="Klassboard-Class">
                            <g id="Icon" transform="translate(145.000000, 50.000000)">
                                <circle id="Oval" fill="#1F9AFF" fill-rule="nonzero" opacity="0.1" cx="45" cy="45" r="45"></circle>
                                <g id="Icons-/-My-classes" transform="translate(20.250000, 20.250000)">
                                    <mask id="mask-2" fill="white">
                                        <use xlink:href="#path-1"></use>
                                    </mask>
                                    <use id="Icons" fill="#FFFFFF" fill-rule="nonzero" xlink:href="#path-1"></use>
                                    <g id="Colors-/-Primary-/-#1F9AFF" mask="url(#mask-2)" fill="#1F9AFF" fill-rule="nonzero">
                                        <rect id="Color" x="0" y="0" width="49.8991935" height="49.8991935"></rect>
                                    </g>
                                </g>
                            </g>
                        </g>
                    </g>
                </g>
            </g>
        </g>
    </g>
</svg>