<?xml version="1.0" encoding="UTF-8"?>
<svg width="28px" height="28px" viewBox="0 0 28 28" version="1.1" xmlns="http://www.w3.org/2000/svg" xmlns:xlink="http://www.w3.org/1999/xlink">
    <!-- Generator: Sketch 53.2 (72643) - https://sketchapp.com -->
    <title>Icon</title>
    <desc>Created with Sketch.</desc>
    <defs>
        <path d="M28.8,7.2 L7.2,7.2 L7.2,18 C7.2,18.6627417 6.6627417,19.2 6,19.2 C5.3372583,19.2 4.8,18.6627417 4.8,18 L4.8,6 C4.8,5.3372583 5.3372583,4.8 6,4.8 L30,4.8 C30.6627417,4.8 31.2,5.3372583 31.2,6 L31.2,18 C31.2,18.6627417 30.6627417,19.2 30,19.2 C29.3372583,19.2 28.8,18.6627417 28.8,18 L28.8,7.2 Z M12,14.4 C10.6745166,14.4 9.6,13.3254834 9.6,12 C9.6,10.6745166 10.6745166,9.6 12,9.6 C13.3254834,9.6 14.4,10.6745166 14.4,12 C14.4,13.3254834 13.3254834,14.4 12,14.4 Z M18,9.6 L25.2,9.6 C25.8627417,9.6 26.4,10.1372583 26.4,10.8 C26.4,11.4627417 25.8627417,12 25.2,12 L18,12 C17.3372583,12 16.8,11.4627417 16.8,10.8 C16.8,10.1372583 17.3372583,9.6 18,9.6 Z M18,13.2 L22.8,13.2 C23.4627417,13.2 24,13.7372583 24,14.4 C24,15.0627417 23.4627417,15.6 22.8,15.6 L18,15.6 C17.3372583,15.6 16.8,15.0627417 16.8,14.4 C16.8,13.7372583 17.3372583,13.2 18,13.2 Z M18,16.8 C19.8989299,16.8 21.5403134,17.9026875 22.3187624,19.5026743 C22.8419883,19.3069903 23.4084997,19.2 24,19.2 C26.6509668,19.2 28.8,21.3490332 28.8,24 C28.8,25.277763 28.3007303,26.4389153 27.4866322,27.2990158 C28.5916577,27.8534192 29.4192923,28.4337755 29.969536,29.0400846 L29.969543,29.0400782 C30.3407038,29.4490573 30.310046,30.0814857 29.9010669,30.4526465 C29.8642812,30.4860306 29.8250591,30.5166273 29.7837263,30.5441825 L29.5503514,30.6997443 C29.1395073,30.9736404 28.5902501,30.9066594 28.25727,30.5420551 C27.2028459,29.3874891 26.0551629,28.8297289 24.8142211,28.8687746 C24.908053,29.1431167 24.9898088,29.50921 25.0594884,29.9670543 L25.0595015,29.9670523 C25.1485554,30.5521988 24.7463929,31.0987463 24.1612463,31.1878001 C24.1078815,31.1959218 24.0539793,31.2 24,31.2 L24,31.2 C23.3411815,31.2 22.7703342,30.7434181 22.6255837,30.100698 C22.0699271,27.6335675 20.5280725,26.4 18,26.4 C15.4719275,26.4 13.9300729,27.6335675 13.3744362,30.1007024 L13.3744163,30.100698 C13.2296658,30.7434181 12.6588185,31.2 12,31.2 L12,31.2 C11.4686121,31.2 11.0378372,30.769225 11.0378372,30.2378372 C11.0378372,30.1623122 11.0467296,30.0870499 11.0643307,30.0136046 C11.1881555,29.4967366 11.3000586,29.0922049 11.4,28.8 C10.4253861,28.8372382 9.460041,29.3719392 8.50396478,30.4041029 L8.5039531,30.4040921 C8.09445469,30.8461797 7.42600008,30.9289123 6.92107727,30.6 L6.92107727,30.6 C6.40126134,30.2613861 6.25436806,29.5654912 6.59298195,29.0456753 C6.60467195,29.0277297 6.61687281,29.010122 6.62956955,28.992874 C7.16793117,28.2615083 7.79586729,27.6968914 8.51336777,27.2990158 C7.69926966,26.4389153 7.2,25.277763 7.2,24 C7.2,21.3490332 9.3490332,19.2 12,19.2 C12.5915003,19.2 13.1580117,19.3069903 13.6812376,19.5026743 C14.4596866,17.9026875 16.1010701,16.8 18,16.8 Z M12,21.6 C10.6745166,21.6 9.6,22.6745166 9.6,24 C9.6,25.3254834 10.6745166,26.4 12,26.4 C12.2580578,26.4 12.5066029,26.3592715 12.739558,26.2838919 C13.2528656,25.7348618 13.8511197,25.2662522 14.5133678,24.8990158 C13.7693941,24.1130023 13.2883477,23.075567 13.2109954,21.9274768 C12.8555138,21.7193167 12.4416909,21.6 12,21.6 Z M21.4866322,24.8990158 C22.1488803,25.2662522 22.7471344,25.7348618 23.260442,26.2838919 C23.4933971,26.3592715 23.7419422,26.4 24,26.4 C25.3254834,26.4 26.4,25.3254834 26.4,24 C26.4,22.6745166 25.3254834,21.6 24,21.6 C23.5583091,21.6 23.1444862,21.7193167 22.7890046,21.9274768 C22.7116523,23.075567 22.2306059,24.1130023 21.4866322,24.8990158 Z M18,24 C19.3254834,24 20.4,22.9254834 20.4,21.6 C20.4,20.2745166 19.3254834,19.2 18,19.2 C16.6745166,19.2 15.6,20.2745166 15.6,21.6 C15.6,22.9254834 16.6745166,24 18,24 Z" id="path-1"></path>
    </defs>
    <g id="MY-CLASSES-✅-" stroke="none" stroke-width="1" fill="none" fill-rule="evenodd">
        <g id="MY-CLASSES---LINK-CLASSES" transform="translate(-329.000000, -147.000000)">
            <g id="Center-Panel" transform="translate(325.000000, 142.000000)">
                <g id="Title" transform="translate(0.000000, 1.000000)">
                    <g id="Icons-/-My-classes">
                        <mask id="mask-2" fill="white">
                            <use xlink:href="#path-1"></use>
                        </mask>
                        <use id="Icons" fill="#FFFFFF" fill-rule="nonzero" xlink:href="#path-1"></use>
                        <g id="Colors-/-Primary-/-#1F9AFF" mask="url(#mask-2)" fill="#1F9AFF" fill-rule="nonzero">
                            <rect id="Color" x="0" y="0" width="36" height="36"></rect>
                        </g>
                    </g>
                </g>
            </g>
        </g>
    </g>
</svg>