<?xml version="1.0" encoding="utf-8" ?>
<svg xmlns="http://www.w3.org/2000/svg" xmlns:xlink="http://www.w3.org/1999/xlink" width="30" height="30">
	<defs>
		<clipPath id="clip_0">
			<path d="M45 -20L-735 -20Q-735.128 -20 -735.255 -19.9942Q-735.383 -19.9883 -735.509 -19.9767Q-735.635 -19.9651 -735.76 -19.9476Q-735.884 -19.9302 -736.007 -19.907Q-736.13 -19.8838 -736.252 -19.8549Q-736.373 -19.826 -736.492 -19.7914Q-736.611 -19.7569 -736.728 -19.7167Q-736.844 -19.6766 -736.958 -19.6309Q-737.073 -19.5853 -737.184 -19.5343Q-737.295 -19.4832 -737.403 -19.4269Q-737.511 -19.3705 -737.616 -19.309Q-737.721 -19.2475 -737.823 -19.1809Q-737.924 -19.1143 -738.022 -19.0428Q-738.119 -18.9712 -738.213 -18.8949Q-738.307 -18.8187 -738.397 -18.7377Q-738.486 -18.6568 -738.571 -18.5714Q-738.657 -18.4861 -738.738 -18.3964Q-738.819 -18.3067 -738.895 -18.213Q-738.971 -18.1192 -739.043 -18.0215Q-739.114 -17.9238 -739.181 -17.8225Q-739.248 -17.7211 -739.309 -17.6162Q-739.371 -17.5113 -739.427 -17.4031Q-739.483 -17.2949 -739.534 -17.1837Q-739.585 -17.0724 -739.631 -16.9583Q-739.677 -16.8442 -739.717 -16.7275Q-739.757 -16.6108 -739.792 -16.4918Q-739.826 -16.3727 -739.855 -16.2515Q-739.884 -16.1303 -739.907 -16.0072Q-739.93 -15.8841 -739.948 -15.7594Q-739.965 -15.6347 -739.977 -15.5086Q-739.988 -15.3825 -739.994 -15.2553Q-740 -15.1281 -740 -15L-740 115Q-740 115.128 -739.994 115.255Q-739.988 115.382 -739.977 115.509Q-739.965 115.635 -739.948 115.759Q-739.93 115.884 -739.907 116.007Q-739.884 116.13 -739.855 116.251Q-739.826 116.373 -739.792 116.492Q-739.757 116.611 -739.717 116.728Q-739.677 116.844 -739.631 116.958Q-739.585 117.072 -739.534 117.184Q-739.483 117.295 -739.427 117.403Q-739.371 117.511 -739.309 117.616Q-739.248 117.721 -739.181 117.822Q-739.114 117.924 -739.043 118.022Q-738.971 118.119 -738.895 118.213Q-738.819 118.307 -738.738 118.396Q-738.657 118.486 -738.571 118.571Q-738.486 118.657 -738.397 118.738Q-738.307 118.819 -738.213 118.895Q-738.119 118.971 -738.022 119.043Q-737.924 119.114 -737.823 119.181Q-737.721 119.247 -737.616 119.309Q-737.511 119.371 -737.403 119.427Q-737.295 119.483 -737.184 119.534Q-737.073 119.585 -736.958 119.631Q-736.844 119.677 -736.728 119.717Q-736.611 119.757 -736.492 119.791Q-736.373 119.826 -736.252 119.855Q-736.13 119.884 -736.007 119.907Q-735.884 119.93 -735.759 119.948Q-735.635 119.965 -735.509 119.977Q-735.383 119.988 -735.255 119.994Q-735.128 120 -735 120L45 120Q45.1281 120 45.2553 119.994Q45.3825 119.988 45.5086 119.977Q45.6347 119.965 45.7594 119.948Q45.8841 119.93 46.0072 119.907Q46.1303 119.884 46.2515 119.855Q46.3727 119.826 46.4918 119.791Q46.6108 119.757 46.7275 119.717Q46.8442 119.677 46.9583 119.631Q47.0724 119.585 47.1837 119.534Q47.2949 119.483 47.4031 119.427Q47.5113 119.371 47.6162 119.309Q47.7211 119.247 47.8225 119.181Q47.9238 119.114 48.0215 119.043Q48.1192 118.971 48.213 118.895Q48.3067 118.819 48.3964 118.738Q48.4861 118.657 48.5714 118.571Q48.6568 118.486 48.7377 118.396Q48.8187 118.307 48.895 118.213Q48.9713 118.119 49.0428 118.022Q49.1143 117.924 49.1809 117.822Q49.2475 117.721 49.309 117.616Q49.3705 117.511 49.4269 117.403Q49.4832 117.295 49.5343 117.184Q49.5853 117.072 49.6309 116.958Q49.6766 116.844 49.7167 116.728Q49.7569 116.611 49.7914 116.492Q49.826 116.373 49.8549 116.251Q49.8838 116.13 49.907 116.007Q49.9302 115.884 49.9476 115.759Q49.9651 115.635 49.9767 115.509Q49.9883 115.382 49.9942 115.255Q50 115.128 50 115L50 -15Q50 -15.1281 49.9942 -15.2553Q49.9883 -15.3825 49.9767 -15.5086Q49.9651 -15.6347 49.9476 -15.7594Q49.9302 -15.8841 49.907 -16.0072Q49.8838 -16.1303 49.8549 -16.2515Q49.826 -16.3727 49.7914 -16.4918Q49.7569 -16.6108 49.7167 -16.7275Q49.6766 -16.8442 49.6309 -16.9583Q49.5853 -17.0724 49.5343 -17.1837Q49.4832 -17.2949 49.4269 -17.4031Q49.3705 -17.5113 49.309 -17.6162Q49.2475 -17.7211 49.1809 -17.8225Q49.1143 -17.9238 49.0428 -18.0215Q48.9713 -18.1192 48.895 -18.213Q48.8187 -18.3067 48.7377 -18.3964Q48.6568 -18.4861 48.5714 -18.5714Q48.4861 -18.6568 48.3964 -18.7377Q48.3067 -18.8187 48.213 -18.8949Q48.1192 -18.9712 48.0215 -19.0428Q47.9238 -19.1143 47.8225 -19.1809Q47.7211 -19.2475 47.6162 -19.309Q47.5113 -19.3705 47.4031 -19.4269Q47.2949 -19.4832 47.1837 -19.5343Q47.0724 -19.5853 46.9583 -19.6309Q46.8442 -19.6766 46.7275 -19.7167Q46.6108 -19.7569 46.4918 -19.7914Q46.3727 -19.826 46.2515 -19.8549Q46.1303 -19.8838 46.0072 -19.907Q45.8841 -19.9302 45.7594 -19.9476Q45.6347 -19.9651 45.5086 -19.9767Q45.3825 -19.9883 45.2553 -19.9942Q45.1281 -20 45 -20Z" clip-rule="evenodd"/>
		</clipPath>
	</defs>
	<g clip-path="url(#clip_0)">
		<path fill="rgb(255,255,255)" stroke="none" transform="matrix(-1 8.74228e-08 -8.74228e-08 -1 23.1096 22.9846)" d="M8.10961 6.51862L14.2995 0.328768C14.7381 -0.109916 15.4484 -0.107905 15.8878 0.331435C16.3302 0.773837 16.3283 1.48189 15.8905 1.91976L9.7006 8.10961L15.8905 14.2995C16.3291 14.7381 16.3271 15.4484 15.8878 15.8878C15.4454 16.3302 14.7373 16.3283 14.2995 15.8905L8.10961 9.7006L1.91976 15.8905C1.48107 16.3291 0.770774 16.3271 0.331435 15.8878C-0.110968 15.4454 -0.109099 14.7373 0.328768 14.2995L6.51862 8.10961L0.328768 1.91976C-0.109916 1.48107 -0.107905 0.770774 0.331435 0.331435C0.773837 -0.110968 1.48189 -0.109099 1.91976 0.328768L8.10961 6.51862Z"/>
	</g>
	<defs>
		<clipPath id="clip_1">
			<path d="M8.81016 22.6559L15 16.466L21.1899 22.6559C21.6277 23.0937 22.3358 23.0956 22.7782 22.6532C23.2175 22.2138 23.2195 21.5035 22.7809 21.0649L16.591 14.875L22.7808 8.68516C23.2187 8.24729 23.2206 7.53924 22.7782 7.09683C22.3388 6.65749 21.6285 6.65548 21.1899 7.09417L15 13.284L8.81016 7.09417C8.37229 6.6563 7.66424 6.65443 7.22183 7.09684C6.78249 7.53618 6.78048 8.24648 7.21917 8.68516L13.409 14.875L7.21917 21.0649C6.7813 21.5027 6.77943 22.2108 7.22183 22.6532C7.66117 23.0925 8.37147 23.0945 8.81016 22.6559Z" clip-rule="evenodd"/>
		</clipPath>
	</defs>
	<g clip-path="url(#clip_1)">
		<path fill="rgb(192,196,202)" stroke="none" transform="matrix(-1 8.74228e-08 -8.74228e-08 -1 30 30)" d="M0 0L30 0L30 30L0 30L0 0Z"/>
	</g>

</svg>