<?xml version="1.0" encoding="UTF-8"?>
<svg width="34px" height="34px" viewBox="0 0 34 34" version="1.1" xmlns="http://www.w3.org/2000/svg" xmlns:xlink="http://www.w3.org/1999/xlink">
    <!-- Generator: Sketch 53.2 (72643) - https://sketchapp.com -->
    <title>Linked</title>
    <desc>Created with Sketch.</desc>
    <defs>
        <path d="M10.8052236,4.95827121 C12.5273414,3.23613182 15.3196272,3.23613182 17.041745,4.95827121 C18.7638628,6.68041061 18.7638628,9.47273137 17.041745,11.1948708 L15.6726878,12.5639451 C15.3889191,12.8477173 14.9252712,12.8460558 14.6382771,12.559058 C14.3492821,12.2700594 14.3490949,11.808933 14.63339,11.5246344 L16.0024472,10.15556 C17.1483208,9.00893711 17.1483208,7.14420487 16.0024472,5.99758197 C14.8528987,4.84875402 12.9933348,4.84875402 11.8445213,5.99758197 L10.4754641,7.36665632 C10.1916955,7.65042851 9.72804754,7.64876695 9.4410534,7.36176921 C9.15205838,7.07277058 9.15187125,6.61164423 9.43616635,6.32734556 L10.8052236,4.95827121 Z M10.1554787,16.0018668 L11.5245359,14.6327924 C11.8083045,14.3490202 12.272117,14.3508463 12.5593141,14.638047 C12.8485135,14.9272501 12.8488638,15.3885395 12.5645687,15.6728382 L11.1955115,17.0419125 C10.334085,17.9026147 9.20585165,18.3333333 8.07688324,18.3333333 C6.94791484,18.3333333 5.81968144,17.9026147 4.95825503,17.0419125 C3.23613721,15.3190381 3.23613721,12.5267174 4.95825503,10.804578 L6.32731223,9.43550362 C6.61108086,9.15173143 7.07489331,9.15355753 7.36209042,9.44075823 C7.65128982,9.72996125 7.65164007,10.1912507 7.36734497,10.4755494 L5.99828777,11.8446237 C4.85167924,12.9905116 4.85167924,14.8559789 5.99828777,16.0018668 C6.5532169,16.5575379 7.2918974,16.863304 8.07688324,16.863304 C8.86186909,16.863304 9.60054958,16.5575379 10.1554787,16.0018668 Z M12.1412318,8.81953499 C12.4275421,8.53322118 12.8902962,8.53177472 13.1792912,8.82077335 C13.4662854,9.10777109 13.464011,9.57536075 13.1805296,9.85884575 L9.84774309,13.191674 C9.56143286,13.4779878 9.09867871,13.4794343 8.8096837,13.1904356 C8.52268955,12.9034379 8.52496391,12.4358482 8.80844535,12.1523632 L12.1412318,8.81953499 Z" id="path-1"></path>
    </defs>
    <g id="MY-CLASSES-✅-" stroke="none" stroke-width="1" fill="none" fill-rule="evenodd">
        <g id="MY-CLASSES---LINK-CLASSES" transform="translate(-1051.000000, -663.000000)">
            <g id="Center-Panel" transform="translate(325.000000, 142.000000)">
                <g id="Content" transform="translate(0.000000, 377.000000)">
                    <g id="1" transform="translate(0.000000, 104.000000)">
                        <g id="Klassroom-Class" transform="translate(410.000000, 0.000000)">
                            <g id="Linked" transform="translate(316.000000, 40.000000)">
                                <circle id="Oval" fill="#1F9AFF" fill-rule="nonzero" cx="17" cy="17" r="17"></circle>
                                <g id="Icons-/-Link" transform="translate(6.000000, 6.000000)">
                                    <mask id="mask-2" fill="white">
                                        <use xlink:href="#path-1"></use>
                                    </mask>
                                    <use id="Shape" fill="#FFFFFF" fill-rule="evenodd" xlink:href="#path-1"></use>
                                    <g id="Colors-/-Text-/-#FFFFFF" mask="url(#mask-2)" fill="#FFFFFF" fill-rule="nonzero">
                                        <rect id="Color" x="0" y="0" width="21.8018018" height="21.8018018"></rect>
                                    </g>
                                </g>
                            </g>
                        </g>
                    </g>
                </g>
            </g>
        </g>
    </g>
</svg>