<?xml version="1.0" encoding="UTF-8"?>
<svg width="16px" height="16px" viewBox="0 0 16 16" version="1.1" xmlns="http://www.w3.org/2000/svg" xmlns:xlink="http://www.w3.org/1999/xlink">
    <!-- Generator: Sketch 53.2 (72643) - https://sketchapp.com -->
    <title>Icon</title>
    <desc>Created with Sketch.</desc>
    <defs>
        <path d="M10.8711091,4.98850457 C12.6037276,3.25586433 15.4130395,3.25586433 17.145658,4.98850457 C18.8782766,6.72114482 18.8782766,9.53049193 17.145658,11.2631322 L15.7682529,12.6405545 C15.482754,12.926057 15.016279,12.9243854 14.7275349,12.6356376 C14.4367777,12.3448768 14.4365894,11.8809387 14.722618,11.5949065 L16.1000231,10.2174842 C17.2528837,9.06386965 17.2528837,7.18776709 16.1000231,6.03415259 C14.9434651,4.8783196 13.0725625,4.8783196 11.916744,6.03415259 L10.5393389,7.41157495 C10.2538399,7.69707746 9.7873649,7.69540578 9.4986208,7.40665805 C9.20786362,7.11589723 9.20767534,6.65195913 9.49370395,6.36592694 L10.8711091,4.98850457 Z M10.2174024,16.0994391 L11.5948075,14.7220168 C11.8803064,14.4365143 12.346947,14.4383515 12.6358953,14.7273034 C12.9268581,15.0182699 12.9272105,15.4823721 12.6411819,15.7684043 L11.2637768,17.1458266 C10.3970978,18.011777 9.26198489,18.445122 8.12613253,18.445122 C6.99028017,18.445122 5.8551673,18.011777 4.98848829,17.1458266 C3.25586976,15.4124469 3.25586976,12.6030998 4.98848829,10.8704595 L6.3658934,9.49303718 C6.65139233,9.20753467 7.1180329,9.2093719 7.40698122,9.49832383 C7.69794403,9.78929029 7.69829642,10.2533925 7.4122678,10.5394247 L6.0348627,11.9168471 C4.88126265,13.0697221 4.88126265,14.9465641 6.0348627,16.0994391 C6.59317554,16.6584985 7.33636019,16.966129 8.12613253,16.966129 C8.91590487,16.966129 9.65908952,16.6584985 10.2174024,16.0994391 Z M12.2152637,8.87331264 C12.5033198,8.58525301 12.9688956,8.58379773 13.2596528,8.87455856 C13.5483969,9.16330628 13.5461086,9.6337471 13.2608986,9.91896066 L9.9077903,13.272111 C9.61973428,13.5601706 9.15415846,13.5616259 8.86340128,13.2708651 C8.57465717,12.9821174 8.5769454,12.5116766 8.86215538,12.226463 L12.2152637,8.87331264 Z" id="path-1"></path>
    </defs>
    <g id="MY-CLASSES-✅-" stroke="none" stroke-width="1" fill="none" fill-rule="evenodd">
        <g id="MY-CLASSES---LINK-CLASSES" transform="translate(-768.000000, -789.000000)">
            <g id="Center-Panel" transform="translate(325.000000, 142.000000)">
                <g id="Content" transform="translate(0.000000, 377.000000)">
                    <g id="1" transform="translate(0.000000, 104.000000)">
                        <g id="Klassroom-Class" transform="translate(410.000000, 0.000000)">
                            <g id="Phone" transform="translate(30.000000, 163.000000)">
                                <g id="Icons-/-Link">
                                    <mask id="mask-2" fill="white">
                                        <use xlink:href="#path-1"></use>
                                    </mask>
                                    <use id="Shape" fill="#FFFFFF" fill-rule="evenodd" xlink:href="#path-1"></use>
                                    <g id="Colors-/-Primary-/-#1F9AFF" mask="url(#mask-2)" fill="#1F9AFF" fill-rule="nonzero">
                                        <rect id="Color" x="0" y="0" width="21.9202899" height="21.9202899"></rect>
                                    </g>
                                </g>
                            </g>
                        </g>
                    </g>
                </g>
            </g>
        </g>
    </g>
</svg>