<?xml version="1.0" encoding="UTF-8"?>
<svg width="80px" height="80px" viewBox="0 0 80 80" version="1.1" xmlns="http://www.w3.org/2000/svg" xmlns:xlink="http://www.w3.org/1999/xlink">
    <!-- Generator: Sketch 53.2 (72643) - https://sketchapp.com -->
    <title>Icon</title>
    <desc>Created with Sketch.</desc>
    <defs>
        <path d="M21.4802637,9.85680422 C24.9037509,6.4332741 30.4546805,6.4332741 33.8781677,9.85680422 C37.3016549,13.2803343 37.3016549,18.8313335 33.8781677,22.2548636 L31.156548,24.9765174 C30.5924296,25.5406428 29.6707199,25.5373397 29.1001894,24.9668021 C28.5256812,24.3922867 28.5253092,23.4755898 29.0904742,22.9104177 L31.8120939,20.1887639 C34.0900353,17.9093328 34.0900353,14.202335 31.8120939,11.9229039 C29.5268468,9.63908933 25.8301235,9.63908933 23.5463375,11.9229039 L20.8247178,14.6445577 C20.2605994,15.2086832 19.3388897,15.2053801 18.7683592,14.6348424 C18.193851,14.0603271 18.193479,13.1436301 18.758644,12.578458 L21.4802637,9.85680422 Z M20.1886023,31.81094 L22.910222,29.0892861 C23.4743404,28.5251607 24.3963772,28.5287909 24.9673112,29.0997321 C25.5422256,29.6746537 25.5429219,30.591675 24.977757,31.156847 L22.2561372,33.8785008 C20.543663,35.5895353 18.3007894,36.4457831 16.0564546,36.4457831 C13.8121199,36.4457831 11.5692462,35.5895353 9.85677205,33.8785008 C6.43328482,30.4535095 6.43328482,24.9025104 9.85677205,21.4789803 L12.5783918,18.7573265 C13.1425101,18.193201 14.0645469,18.1968312 14.635481,18.7677724 C15.2103954,19.3426941 15.2110917,20.2597153 14.6459267,20.8248874 L11.924307,23.5465412 C9.64490451,25.8245111 9.64490451,29.5329701 11.924307,31.81094 C13.0274794,32.9155873 14.4959406,33.5234356 16.0564546,33.5234356 C17.6169687,33.5234356 19.0854299,32.9155873 20.1886023,31.81094 Z M24.1361838,17.5328105 C24.7053547,16.9636325 25.6252876,16.960757 26.1997958,17.5352723 C26.7703263,18.10581 26.765805,19.0353557 26.2022576,19.5989102 L19.5768387,26.2244121 C19.0076677,26.7935902 18.0877348,26.7964657 17.5132266,26.2219503 C16.9426961,25.6514127 16.9472174,24.7218669 17.5107649,24.1583124 L24.1361838,17.5328105 Z" id="path-1"></path>
    </defs>
    <g id="MY-CLASSES-✅-" stroke="none" stroke-width="1" fill="none" fill-rule="evenodd">
        <g id="MY-CLASSES---LINK-CLASSES" transform="translate(-355.000000, -359.000000)">
            <g id="Center-Panel" transform="translate(325.000000, 142.000000)">
                <g id="Link-Class-Push" transform="translate(0.000000, 187.000000)">
                    <g id="Icon" transform="translate(30.000000, 30.000000)">
                        <circle id="Oval" fill="#1F9AFF" fill-rule="nonzero" opacity="0.1" cx="40" cy="40" r="40"></circle>
                        <g id="Icons-/-Link" transform="translate(18.000000, 18.000000)">
                            <mask id="mask-2" fill="white">
                                <use xlink:href="#path-1"></use>
                            </mask>
                            <use id="Shape" fill="#FFFFFF" fill-rule="evenodd" xlink:href="#path-1"></use>
                            <g id="Colors-/-Primary-/-#1F9AFF" mask="url(#mask-2)" fill="#1F9AFF" fill-rule="nonzero">
                                <rect id="Color" x="0" y="0" width="43.8405797" height="43.8405797"></rect>
                            </g>
                        </g>
                    </g>
                </g>
            </g>
        </g>
    </g>
</svg>