<?xml version="1.0" encoding="utf-8" ?>
<svg xmlns="http://www.w3.org/2000/svg" xmlns:xlink="http://www.w3.org/1999/xlink" width="26" height="26">
	<defs>
		<clipPath id="clip_0">
			<rect x="-345" y="-693" width="1440" height="2013" clip-rule="evenodd"/>
		</clipPath>
	</defs>
	<g clip-path="url(#clip_0)">
		<path fill="rgb(31,154,255)" stroke="none" transform="translate(3.46667 3.53174)" d="M9.77333 0.115L12.76 2.355Q12.8097 2.39228 12.8319 2.4255Q12.854 2.45872 12.8457 2.48357Q12.8374 2.50843 12.7998 2.52171Q12.7621 2.535 12.7 2.535L6.36667 2.535Q6.30453 2.535 6.26688 2.52171Q6.22924 2.50843 6.22095 2.48357Q6.21267 2.45871 6.23481 2.4255Q6.25695 2.39228 6.30667 2.355L9.29333 0.115Q9.34305 0.0777157 9.40505 0.0577864Q9.46705 0.0378571 9.53333 0.0378571Q9.59962 0.0378571 9.66162 0.0577864Q9.72362 0.0777157 9.77333 0.115ZM1 4.70167L18.0667 4.70167Q18.1609 4.70167 18.2519 4.71735Q18.3429 4.73303 18.4281 4.76396Q18.5133 4.79489 18.5905 4.84022Q18.6676 4.88555 18.7346 4.94403Q18.8015 5.00252 18.8564 5.07256Q18.9113 5.1426 18.9527 5.22227Q18.994 5.30194 19.0207 5.38905Q19.0474 5.47617 19.0586 5.56833Q19.0474 5.6605 19.0207 5.74762Q18.994 5.83473 18.9527 5.9144Q18.9113 5.99407 18.8564 6.06411Q18.8015 6.13415 18.7346 6.19263Q18.6676 6.25112 18.5905 6.29645Q18.5133 6.34178 18.4281 6.37271Q18.3429 6.40364 18.2519 6.41932Q18.1609 6.435 18.0667 6.435L1 6.435Q0.905762 6.435 0.814777 6.41932Q0.723792 6.40364 0.638556 6.37271Q0.55332 6.34178 0.476173 6.29645Q0.399026 6.25112 0.332084 6.19263Q0.265142 6.13415 0.210242 6.06411Q0.155342 5.99407 0.11399 5.9144Q0.072639 5.83473 0.0459708 5.74762Q0.0193025 5.6605 0.00804929 5.56833Q0.0193025 5.47617 0.0459708 5.38905Q0.072639 5.30194 0.11399 5.22227Q0.155342 5.1426 0.210242 5.07256Q0.265142 5.00252 0.332084 4.94403Q0.399026 4.88555 0.476173 4.84022Q0.55332 4.79489 0.638556 4.76396Q0.723792 4.73303 0.814777 4.71735Q0.905762 4.70167 1 4.70167ZM0.00804929 5.56833Q0 5.63426 0 5.70167L0 5.435Q0 5.50241 0.00804929 5.56833ZM19.0586 5.56833Q19.0667 5.50241 19.0667 5.435L19.0667 5.70167Q19.0667 5.63426 19.0586 5.56833ZM1 8.60167L18.0667 8.60167Q18.1609 8.60167 18.2519 8.61735Q18.3429 8.63303 18.4281 8.66396Q18.5133 8.69488 18.5905 8.74022Q18.6676 8.78555 18.7346 8.84403Q18.8015 8.90252 18.8564 8.97256Q18.9113 9.0426 18.9527 9.12227Q18.994 9.20194 19.0207 9.28905Q19.0474 9.37617 19.0586 9.46833Q19.0474 9.5605 19.0207 9.64761Q18.994 9.73473 18.9527 9.8144Q18.9113 9.89407 18.8564 9.96411Q18.8015 10.0341 18.7346 10.0926Q18.6676 10.1511 18.5905 10.1965Q18.5133 10.2418 18.4281 10.2727Q18.3429 10.3036 18.2519 10.3193Q18.1609 10.335 18.0667 10.335L1 10.335Q0.905762 10.335 0.814777 10.3193Q0.723792 10.3036 0.638556 10.2727Q0.55332 10.2418 0.476173 10.1965Q0.399026 10.1511 0.332084 10.0926Q0.265142 10.0341 0.210242 9.96411Q0.155342 9.89407 0.11399 9.8144Q0.0726389 9.73473 0.0459707 9.64761Q0.0193025 9.5605 0.00804926 9.46833Q0.0193025 9.37617 0.0459707 9.28905Q0.0726389 9.20194 0.11399 9.12227Q0.155342 9.0426 0.210242 8.97256Q0.265142 8.90252 0.332084 8.84403Q0.399026 8.78555 0.476173 8.74022Q0.55332 8.69488 0.638556 8.66396Q0.723792 8.63303 0.814777 8.61735Q0.905762 8.60167 1 8.60167ZM0.00804926 9.46833Q0 9.53426 0 9.60167L0 9.335Q0 9.40241 0.00804926 9.46833ZM19.0586 9.46833Q19.0667 9.40241 19.0667 9.335L19.0667 9.60167Q19.0667 9.53426 19.0586 9.46833ZM18.0667 12.5017L1 12.5017Q0.905762 12.5017 0.814777 12.5173Q0.723792 12.533 0.638556 12.564Q0.55332 12.5949 0.476173 12.6402Q0.399026 12.6855 0.332084 12.744Q0.265142 12.8025 0.210242 12.8726Q0.155342 12.9426 0.11399 13.0223Q0.072639 13.1019 0.0459708 13.1891Q0.0193026 13.2762 0.00804932 13.3683Q0 13.3024 0 13.235L0 13.5017Q0 13.4343 0.00804932 13.3683Q0.0193026 13.4605 0.0459708 13.5476Q0.072639 13.6347 0.11399 13.7144Q0.155342 13.7941 0.210242 13.8641Q0.265142 13.9341 0.332084 13.9926Q0.399026 14.0511 0.476173 14.0965Q0.55332 14.1418 0.638556 14.1727Q0.723792 14.2036 0.814777 14.2193Q0.905762 14.235 1 14.235L18.0667 14.235Q18.1609 14.235 18.2519 14.2193Q18.3429 14.2036 18.4281 14.1727Q18.5133 14.1418 18.5905 14.0965Q18.6676 14.0511 18.7346 13.9926Q18.8015 13.9341 18.8564 13.8641Q18.9113 13.7941 18.9527 13.7144Q18.994 13.6347 19.0207 13.5476Q19.0474 13.4605 19.0586 13.3683Q19.0667 13.4343 19.0667 13.5017L19.0667 13.235Q19.0667 13.3024 19.0586 13.3683Q19.0474 13.2762 19.0207 13.1891Q18.994 13.1019 18.9527 13.0223Q18.9113 12.9426 18.8564 12.8726Q18.8015 12.8025 18.7346 12.744Q18.6676 12.6855 18.5905 12.6402Q18.5133 12.5949 18.4281 12.564Q18.3429 12.533 18.2519 12.5173Q18.1609 12.5017 18.0667 12.5017ZM6.30667 16.5817L9.29333 18.8217Q9.34305 18.859 9.40505 18.8789Q9.46705 18.8988 9.53333 18.8988Q9.59962 18.8988 9.66162 18.8789Q9.72362 18.859 9.77333 18.8217L12.76 16.5817Q12.8097 16.5444 12.8319 16.5112Q12.854 16.478 12.8457 16.4531Q12.8374 16.4282 12.7998 16.415Q12.7621 16.4017 12.7 16.4017L6.36667 16.4017Q6.30453 16.4017 6.26688 16.415Q6.22924 16.4282 6.22095 16.4531Q6.21267 16.478 6.23481 16.5112Q6.25695 16.5444 6.30667 16.5817Z" fill-rule="evenodd"/>
	</g>
	<defs>
		<clipPath id="clip_1">
			<path d="M16.2267 5.88674L13.24 3.64674Q13.1903 3.60945 13.1283 3.58952Q13.0663 3.5696 13 3.5696Q12.9337 3.5696 12.8717 3.58952Q12.8097 3.60945 12.76 3.64674L9.77334 5.88674Q9.72363 5.92402 9.70149 5.95724Q9.67934 5.99045 9.68763 6.01531Q9.69591 6.04017 9.73356 6.05345Q9.7712 6.06674 9.83334 6.06674L16.1667 6.06674Q16.2288 6.06674 16.2665 6.05345Q16.3041 6.04017 16.3124 6.01531Q16.3207 5.99045 16.2985 5.95724Q16.2764 5.92402 16.2267 5.88674ZM21.5333 8.23341L4.46667 8.23341Q4.37244 8.23341 4.28145 8.24909Q4.19047 8.26477 4.10523 8.2957Q4.02 8.32662 3.94285 8.37195Q3.8657 8.41728 3.79876 8.47577Q3.73182 8.53426 3.67692 8.6043Q3.62202 8.67434 3.58067 8.75401Q3.53931 8.83368 3.51265 8.92079Q3.48598 9.0079 3.47472 9.10007Q3.46667 9.03415 3.46667 8.96674L3.46667 9.23341Q3.46667 9.166 3.47472 9.10007Q3.48598 9.19224 3.51265 9.27935Q3.53931 9.36647 3.58067 9.44614Q3.62202 9.52581 3.67692 9.59585Q3.73182 9.66588 3.79876 9.72437Q3.8657 9.78286 3.94285 9.82819Q4.02 9.87352 4.10523 9.90445Q4.19047 9.93538 4.28145 9.95106Q4.37244 9.96674 4.46667 9.96674L21.5333 9.96674Q21.6276 9.96674 21.7186 9.95106Q21.8095 9.93538 21.8948 9.90445Q21.98 9.87352 22.0572 9.82819Q22.1343 9.78286 22.2013 9.72437Q22.2682 9.66588 22.3231 9.59585Q22.378 9.52581 22.4194 9.44614Q22.4607 9.36647 22.4874 9.27935Q22.514 9.19224 22.5253 9.10007Q22.5333 9.166 22.5333 9.23341L22.5333 8.96674Q22.5333 9.03415 22.5253 9.10007Q22.514 9.0079 22.4874 8.92079Q22.4607 8.83368 22.4194 8.75401Q22.378 8.67434 22.3231 8.6043Q22.2682 8.53426 22.2013 8.47577Q22.1343 8.41728 22.0572 8.37195Q21.98 8.32662 21.8948 8.2957Q21.8095 8.26477 21.7186 8.24909Q21.6276 8.23341 21.5333 8.23341ZM21.5333 12.1334L4.46667 12.1334Q4.37244 12.1334 4.28145 12.1491Q4.19047 12.1648 4.10523 12.1957Q4.01999 12.2266 3.94285 12.272Q3.8657 12.3173 3.79876 12.3758Q3.73182 12.4343 3.67692 12.5043Q3.62202 12.5743 3.58066 12.654Q3.53931 12.7337 3.51265 12.8208Q3.48598 12.9079 3.47472 13.0001Q3.46667 12.9341 3.46667 12.8667L3.46667 13.1334Q3.46667 13.066 3.47472 13.0001Q3.48598 13.0922 3.51265 13.1794Q3.53931 13.2665 3.58067 13.3461Q3.62202 13.4258 3.67692 13.4958Q3.73182 13.5659 3.79876 13.6244Q3.8657 13.6829 3.94285 13.7282Q4.01999 13.7735 4.10523 13.8045Q4.19047 13.8354 4.28145 13.8511Q4.37244 13.8667 4.46667 13.8667L21.5333 13.8667Q21.6276 13.8667 21.7186 13.8511Q21.8095 13.8354 21.8948 13.8045Q21.98 13.7735 22.0572 13.7282Q22.1343 13.6829 22.2013 13.6244Q22.2682 13.5659 22.3231 13.4958Q22.378 13.4258 22.4193 13.3461Q22.4607 13.2665 22.4874 13.1794Q22.514 13.0922 22.5253 13.0001Q22.5333 13.066 22.5333 13.1334L22.5333 12.8667Q22.5333 12.9341 22.5253 13.0001Q22.514 12.9079 22.4874 12.8208Q22.4607 12.7337 22.4193 12.654Q22.378 12.5743 22.3231 12.5043Q22.2682 12.4343 22.2013 12.3758Q22.1343 12.3173 22.0572 12.272Q21.98 12.2266 21.8948 12.1957Q21.8095 12.1648 21.7186 12.1491Q21.6276 12.1334 21.5333 12.1334ZM4.46667 16.0334L21.5333 16.0334Q21.6276 16.0334 21.7186 16.0491Q21.8095 16.0648 21.8948 16.0957Q21.98 16.1266 22.0572 16.172Q22.1343 16.2173 22.2013 16.2758Q22.2682 16.3343 22.3231 16.4043Q22.378 16.4743 22.4193 16.554Q22.4607 16.6337 22.4874 16.7208Q22.514 16.8079 22.5253 16.9001Q22.514 16.9922 22.4874 17.0794Q22.4607 17.1665 22.4193 17.2461Q22.378 17.3258 22.3231 17.3958Q22.2682 17.4659 22.2013 17.5244Q22.1343 17.5829 22.0572 17.6282Q21.98 17.6735 21.8948 17.7044Q21.8095 17.7354 21.7186 17.7511Q21.6276 17.7667 21.5333 17.7667L4.46667 17.7667Q4.37244 17.7667 4.28145 17.7511Q4.19047 17.7354 4.10523 17.7044Q4.01999 17.6735 3.94285 17.6282Q3.8657 17.5829 3.79876 17.5244Q3.73182 17.4659 3.67692 17.3958Q3.62202 17.3258 3.58066 17.2461Q3.53931 17.1665 3.51265 17.0794Q3.48598 16.9922 3.47472 16.9001Q3.48598 16.8079 3.51265 16.7208Q3.53931 16.6337 3.58066 16.554Q3.62202 16.4743 3.67692 16.4043Q3.73182 16.3343 3.79876 16.2758Q3.8657 16.2173 3.94285 16.172Q4.01999 16.1266 4.10523 16.0957Q4.19047 16.0648 4.28145 16.0491Q4.37244 16.0334 4.46667 16.0334ZM3.47472 16.9001Q3.46667 16.966 3.46667 17.0334L3.46667 16.7667Q3.46667 16.8341 3.47472 16.9001ZM22.5253 16.9001Q22.5333 16.8341 22.5333 16.7667L22.5333 17.0334Q22.5333 16.966 22.5253 16.9001ZM12.76 22.3534L9.77334 20.1134Q9.72363 20.0761 9.70148 20.0429Q9.67934 20.0097 9.68763 19.9848Q9.69591 19.96 9.73356 19.9467Q9.7712 19.9334 9.83334 19.9334L16.1667 19.9334Q16.2288 19.9334 16.2665 19.9467Q16.3041 19.96 16.3124 19.9848Q16.3207 20.0097 16.2985 20.0429Q16.2764 20.0761 16.2267 20.1134L13.24 22.3534Q13.1903 22.3907 13.1283 22.4106Q13.0663 22.4305 13 22.4305Q12.9337 22.4305 12.8717 22.4106Q12.8097 22.3907 12.76 22.3534Z" clip-rule="evenodd"/>
		</clipPath>
	</defs>
	<g clip-path="url(#clip_1)">
		<path fill="rgb(31,154,255)" stroke="none" d="M0 0L26 0L26 26L0 26L0 0Z"/>
	</g>

</svg>