<?xml version="1.0" encoding="utf-8" ?>
<svg xmlns="http://www.w3.org/2000/svg" xmlns:xlink="http://www.w3.org/1999/xlink" width="26" height="26">
	<defs>
		<clipPath id="clip_0">
			<rect x="-659" y="-643" width="1440" height="2013" clip-rule="evenodd"/>
		</clipPath>
	</defs>
	<g clip-path="url(#clip_0)">
		<path fill="rgb(255,255,255)" stroke="none" transform="translate(5.19995 11.2667)" d="M3.46667 1.73333C3.46667 2.69063 2.69063 3.46667 1.73333 3.46667C0.77604 3.46667 0 2.69063 0 1.73333C0 0.77604 0.77604 0 1.73333 0C2.69063 0 3.46667 0.77604 3.46667 1.73333ZM7.8 3.46667C8.75729 3.46667 9.53333 2.69063 9.53333 1.73333C9.53333 0.77604 8.75729 0 7.8 0C6.84271 0 6.06667 0.77604 6.06667 1.73333C6.06667 2.69063 6.84271 3.46667 7.8 3.46667ZM13.8667 3.46667C14.824 3.46667 15.6 2.69063 15.6 1.73333C15.6 0.77604 14.824 0 13.8667 0C12.9094 0 12.1333 0.77604 12.1333 1.73333C12.1333 2.69063 12.9094 3.46667 13.8667 3.46667Z" fill-rule="evenodd"/>
	</g>
	<defs>
		<clipPath id="clip_1">
			<path d="M6.93328 14.7333C7.89058 14.7333 8.66662 13.9573 8.66662 13C8.66662 12.0427 7.89058 11.2667 6.93328 11.2667C5.97599 11.2667 5.19995 12.0427 5.19995 13C5.19995 13.9573 5.97599 14.7333 6.93328 14.7333ZM14.7333 13C14.7333 13.9573 13.9572 14.7333 13 14.7333C12.0427 14.7333 11.2666 13.9573 11.2666 13C11.2666 12.0427 12.0427 11.2667 13 11.2667C13.9572 11.2667 14.7333 12.0427 14.7333 13ZM20.7999 13C20.7999 13.9573 20.0239 14.7333 19.0666 14.7333C18.1093 14.7333 17.3333 13.9573 17.3333 13C17.3333 12.0427 18.1093 11.2667 19.0666 11.2667C20.0239 11.2667 20.7999 12.0427 20.7999 13Z" clip-rule="evenodd"/>
		</clipPath>
	</defs>
	<g clip-path="url(#clip_1)">
		<path fill="rgb(192,196,202)" stroke="none" d="M0 0L26 0L26 26L0 26L0 0Z"/>
	</g>

</svg>