<?xml version="1.0" encoding="UTF-8"?>
<svg width="210px" height="187px" viewBox="0 0 210 187" version="1.1" xmlns="http://www.w3.org/2000/svg" xmlns:xlink="http://www.w3.org/1999/xlink">
    <!-- Generator: Sketch 50.2 (55047) - http://www.bohemiancoding.com/sketch -->
    <title>ambassador</title>
    <desc>Created with Sketch.</desc>
    <defs></defs>
    <g id="404-PAGE" stroke="none" stroke-width="1" fill="none" fill-rule="evenodd">
        <g id="404-(≥1200px)" transform="translate(-615.000000, -129.000000)">
            <g id="ambassador" transform="translate(615.000000, 129.000000)">
                <path d="M21.725,155.06 C19.0348553,154.963977 16.3412876,155.060892 13.665,155.35 L24.91,155.35 C25.41,154.92 25.91,154.505 26.38,154.1 C25.1867739,152.864293 23.910465,151.711605 22.56,150.65 C24.3222069,151.250089 25.986657,152.1059 27.5,153.19 C25.8261142,151.993789 23.9684184,151.078451 22,150.48 C12.87,147.65 4.74,149.745 0,155.35 L6.33,155.35 C13.395,151.705 21.725,155.06 21.725,155.06 Z" id="Shape" fill="#B77EB4" fill-rule="nonzero"></path>
                <path d="M21.725,155.06 C21.725,155.06 13.395,151.705 6.33,155.35 L13.665,155.35 C16.3412876,155.060892 19.0348553,154.963977 21.725,155.06 Z" id="Shape" fill="#FFFFFF" fill-rule="nonzero"></path>
                <path d="M34.625,147.965 L31.335,147.19 C31.2934927,148.196024 31.3740804,149.20337 31.575,150.19 C32.735,149.405 33.855,148.69 34.92,148.06 L34.625,147.965 Z" id="Shape" fill="#1F77B9" fill-rule="nonzero"></path>
                <path d="M37.55,154.88 L37.275,155.35 L41.415,155.35 L41.35,155.17 C40.9039827,153.95248 40.2933076,152.801787 39.535,151.75 C38.3695699,150.119703 36.7708684,148.848363 34.92,148.08 C33.855,148.715 32.735,149.425 31.575,150.21 C31.9176029,152.028523 32.5867352,153.769961 33.55,155.35 L37.275,155.35 C37.365,155.19 37.46,155.035 37.55,154.88 L37.765,154.515 L38.155,153.88 C38.025,154.09 37.895,154.295 37.765,154.515 L37.55,154.88 Z" id="Shape" fill="#FAC8CA" fill-rule="nonzero"></path>
                <path d="M58.5,155.35 C56.675,149.895 56.88,143.525 58.075,137.685 C54.753276,138.675328 51.5934592,140.14407 48.695,142.045 C48.3859614,142.237568 48.087219,142.446187 47.8,142.67 C47.495,142.895 47.125,143.17 46.695,143.555 C47.125,143.19 47.495,142.895 47.8,142.67 C47.2652415,142.345735 46.7089451,142.058398 46.135,141.81 C39.755,141.31 31.32,147.185 31.32,147.185 C32.4463974,147.294997 33.5529394,147.555657 34.61,147.96 L34.96,148.04 L34.905,148.075 C36.7558684,148.843363 38.3545699,150.114703 39.52,151.745 C40.2783076,152.796787 40.8889827,153.94748 41.335,155.165 L41.695,155.345 L50.695,155.345 L58.5,155.35 Z M44.25,145.885 C44.57,145.555 44.875,145.25 45.17,144.965 L45.325,144.815 L45.17,144.965 C44.875,145.25 44.57,145.555 44.25,145.885 Z" id="Shape" fill="#00AFEC" fill-rule="nonzero"></path>
                <path d="M158.72,36.53 C158.72,36.53 149.605,18.03 129.365,13.595 C109.125,9.16 103.035,16.5 103.035,16.5 L158.72,36.53 Z" id="Shape" fill="#A975A8" fill-rule="nonzero"></path>
                <path d="M133.455,24.2 C133.455,24.2 111.88,1.37 79.55,16.935 C47.22,32.5 45.1,52.965 13.28,45.4 C13.28,45.4 24.47,88.4 65.73,74.1 C92.285,64.89 133.455,24.2 133.455,24.2 Z" id="Shape" fill="#A975A8" fill-rule="nonzero"></path>
                <path d="M117.11,31 C117.11,31 96.5,14.295 67.57,35.525 C38.64,56.755 41.29,80.635 8.625,79.025 C8.625,79.025 21.76,114.08 59.695,92.44 C84.105,78.53 117.11,31 117.11,31 Z" id="Shape" fill="#AC77AA" fill-rule="nonzero"></path>
                <path d="M116.315,25.17 C32.15,18.9 51.955,105.305 12.5,116.73 C12.5,116.73 36.475,149.295 60.115,102.47 C76.61,69.835 139,43.21 116.315,25.17 Z" id="Shape" fill="#A572A4" fill-rule="nonzero"></path>
                <path d="M112.045,31.56 C27.86,37.56 65.435,119.53 28.07,136.56 C28.07,136.56 51.07,165.95 67.655,116.195 C79.23,81.5 137.115,46.125 112.045,31.56 Z" id="Shape" fill="#B77EB4" fill-rule="nonzero"></path>
                <path d="M166.71,82.265 C166.71,82.265 188.61,59.63 194,39.5 C194.807806,36.5557824 194.151387,33.4027337 192.235734,31.0255005 C190.32008,28.6482672 187.378648,27.3365585 184.33,27.5 C174.18,28.04 150.33,37.47 134.57,53.725" id="Shape" fill="#FAC8CA" fill-rule="nonzero"></path>
                <path d="M162.245,76.755 C157.085,65.755 148,63.93 148,63.93 C148,63.93 173.115,41.595 181.86,39.805 C197,36.71 169,73.8 162.245,76.755 Z" id="Shape" fill="#FFFFFF" fill-rule="nonzero"></path>
                <path d="M35,109.61 C29.425,67.84 52.445,40.11 85.385,34.535 C113.885,29.71 156.15,36.25 170.79,73.16 C178.82,93.41 180.365,121.035 172.89,140.66 C162.01,169.225 138.305,171.16 115.265,178.01 C115.067948,178.070099 114.904869,178.209622 114.815,178.395 C95.745,181.64 70.5,173.115 56.105,156.55 C44.6959106,143.26258 37.3672512,126.96278 35,109.61 Z" id="Shape" fill="#F9C2C7" fill-rule="nonzero"></path>
                <path d="M35,109.61 C30.965,79.305 42,56.4 60.91,44 C37.11,61.84 35.64,113.6 84.73,107.89 C98.3,123.5 101.855,167.225 119.835,164.17 C119.918061,163.995153 120.070279,163.862868 120.255,163.805 C141.98,157.33 164.325,155.525 174.58,128.595 C175.826978,125.257088 176.796923,121.822144 177.48,118.325 C176.93,126.29 175.48,133.94 172.9,140.65 C162.02,169.215 138.315,171.15 115.275,178 C115.077948,178.060099 114.914869,178.199622 114.825,178.385 C95.755,181.63 70.51,173.105 56.115,156.54 C44.7040396,143.256534 37.3719675,126.960339 35,109.61 Z" id="Shape" fill="#F7AAB1" fill-rule="nonzero"></path>
                <path d="M163.23,120.915 C163.23,120.915 183.59,130.1 174.485,154.415 C165.38,178.73 132.66,188.24 96.6,177.415 C60.54,166.59 57.045,146.055 55.6,133.6 C53.6,116.37 64.305,103.19 81.1,100.445 C91.99,98.66 110.415,101.03 130.245,107.15 C149.9,113.225 163.23,120.915 163.23,120.915 Z" id="Shape" fill="#F7AAB1" fill-rule="nonzero"></path>
                <circle id="Oval" fill="#FFFFFF" fill-rule="nonzero" cx="93.685" cy="91.635" r="21.585"></circle>
                <circle id="Oval" fill="#FFFFFF" fill-rule="nonzero" cx="163.335" cy="107.985" r="20.13"></circle>
                <circle id="Oval" fill="#5F2B70" fill-rule="nonzero" cx="163.335" cy="111.52" r="15.23"></circle>
                <circle id="Oval" fill="#793683" fill-rule="nonzero" cx="163.335" cy="111.52" r="8.515"></circle>
                <circle id="Oval" fill="#FFFFFF" fill-rule="nonzero" cx="168.875" cy="106.205" r="5.225"></circle>
                <circle id="Oval" fill="#FFFFFF" fill-rule="nonzero" cx="158.545" cy="117.155" r="2.26"></circle>
                <path d="M97.33,46.135 C97.33,46.135 83.415,15.345 65.5,2.025 C62.8807303,0.0727240105 59.485413,-0.508306955 56.3660223,0.461928411 C53.2466315,1.43216378 50.7798639,3.83650015 49.73,6.93 C46.26,17.265 46.23,44.76 56.23,66.93" id="Shape" fill="#F9C2C7" fill-rule="nonzero"></path>
                <path d="M90.075,48.41 C77.04,49.2 71.655,57.545 71.655,57.545 C71.655,57.545 59.3,23.67 61,14.24 C63.865,-2.055 89.79,40.525 90.075,48.41 Z" id="Shape" fill="#FFFFFF" fill-rule="nonzero"></path>
                <path d="M137.865,35.675 C139.595,30.96 144.34,28.235 149.525,28.64 C155.33,29.095 163.835,32.14 171.68,43.97 C185.3,64.51 174.595,85.68 174.595,85.68 C174.595,85.68 171.555,59.28 149.33,50.565 C137.29,45.845 136.27,40 137.865,35.675 Z" id="Shape" fill="#B77EB4" fill-rule="nonzero"></path>
                <path d="M138.335,34.595 C140.335,30.55 144.75,28.265 149.525,28.64 C155.33,29.095 163.835,32.14 171.68,43.97 C185.3,64.51 174.595,85.68 174.595,85.68 C178.025,46.96 151.275,37.095 138.335,34.595 Z" id="Shape" fill="#B77EB4" fill-rule="nonzero"></path>
                <path d="M138.335,34.595 C151.275,37.095 178.025,46.96 174.595,85.68 C174.595,85.68 171.555,59.28 149.33,50.565 C137.29,45.845 136.27,40 137.865,35.675 C138.001336,35.3064896 138.158249,34.9459225 138.335,34.595 Z" id="Shape" fill="#B77EB4" fill-rule="nonzero"></path>
                <path d="M138.335,34.595 C151.275,37.095 178.025,46.96 174.595,85.68 C174.595,85.68 171.555,59.28 149.33,50.565 C137.29,45.845 136.27,40 137.865,35.675 C138.001336,35.3064896 138.158249,34.9459225 138.335,34.595 Z" id="Shape" fill="#A1689E" fill-rule="nonzero"></path>
                <path d="M125.555,32.05 C127.555,27.36 132.555,25.115 137.92,26.19 C143.92,27.385 152.56,31.615 160.145,44.89 C166.441151,55.7059141 168.015804,68.6339784 164.5,80.645 C164.205367,81.6884435 163.245241,82.4028242 162.161141,82.3852251 C161.077041,82.3676261 160.140608,81.6224572 159.88,80.57 C157.55,71.415 151.6,56.735 136.76,48.965 C124.5,42.555 123.715,36.375 125.555,32.05 Z" id="Shape" fill="#B77EB4" fill-rule="nonzero"></path>
                <path d="M108.89,26.815 C107.45,22.545 103.175,20.225 98.39,20.815 C93.035,21.465 85.115,24.605 77.525,35.815 C71.2554159,44.9139591 68.9942909,56.1870499 71.27,67 C71.4569066,67.9410842 72.2552115,68.6375811 73.2129473,68.6951628 C74.1706831,68.7527444 75.0466863,68.1569115 75.345,67.245 C78.025,59.335 84.265,46.8 97.875,40.96 C109.095,36.145 110.22,30.75 108.89,26.815 Z" id="Shape" fill="#B77EB4" fill-rule="nonzero"></path>
                <path d="M109.185,27.9149971 L97.1,40.625 L96.47,40.5 L95.97,41.82 C95.97,41.82 82.13,47.765 75.33,67.23 C75.33,67.23 74.905,68.525 74.635,66.765 C82.845,27.785 109.185,27.9149971 109.185,27.9149971 Z" id="Shape" fill="#A1689E" fill-rule="nonzero"></path>
                <path d="M121.085,26.56 C119.23,22.45 114.75,20.56 110.045,21.61 C104.78,22.785 97.205,26.685 90.755,38.565 C85.398088,48.2452868 84.2537464,59.7013569 87.59,70.25 C87.8744876,71.1618232 88.7348203,71.769807 89.6893044,71.733546 C90.6437885,71.6972849 91.4555132,71.0257793 91.67,70.095 C93.56,61.955 98.54,48.87 111.51,41.72 C122.205,35.825 122.79,30.345 121.085,26.56 Z" id="Shape" fill="#B77EB4" fill-rule="nonzero"></path>
                <path d="M121.5,27.625 L110.71,41.46 L110.07,41.42 L109.715,42.78 C109.715,42.78 96.53,50.055 91.67,70.095 C91.67,70.095 91.375,71.425 90.935,69.7 C95.26,30.08 121.5,27.625 121.5,27.625 Z" id="Shape" fill="#A1689E" fill-rule="nonzero"></path>
                <path d="M129.445,27.165 C126.665,24.48 122.49,24.405 119.08,26.735 C115.26,29.345 110.465,34.86 109.105,46.375 C107.91865,55.7914916 110.651902,65.2819494 116.665,72.625 C117.181372,73.2650091 118.063527,73.4778705 118.814947,73.1437757 C119.566367,72.809681 119.999271,72.012121 119.87,71.2 C118.785,64.115 118.585,52.11 126.645,42.29 C133.29,34.19 132,29.635 129.445,27.165 Z" id="Shape" fill="#B77EB4" fill-rule="nonzero"></path>
                <path d="M130.105,27.885 L125.925,42.335 L125.425,42.505 L125.575,43.7 C125.575,43.7 117.385,53.7 119.895,71.2 C119.895,71.2 120.085,72.355 119.18,71.125 C110,38.185 130.105,27.885 130.105,27.885 Z" id="Shape" fill="#A1689E" fill-rule="nonzero"></path>
                <path d="M150.695,63.245 C150.695,63.245 169.055,5.5 160.05,0.535 C152.24,-3.77 128.595,40.215 122.46,51.955 C121.25018,54.2575222 121.235261,57.0044727 122.42,59.32 C123.755,61.92 126.345,65.07 131.34,67.18 C141.195,71.34 148.31,71.155 150.695,63.245 Z" id="Shape" fill="#FBB35A" fill-rule="nonzero"></path>
                <path d="M151.855,60.59 C151.855,60.59 131.415,60.59 128.675,40.42" id="Shape"></path>
                <path d="M138.395,23.775 C138.395,23.775 137.44,41.775 155.48,46.775" id="Shape"></path>
                <path d="M159.045,32.44 C159.045,32.44 146.185,30.725 145.625,12.815" id="Shape"></path>
                <path d="M161.88,17.215 C161.88,17.215 150,19.5 151.345,5.545" id="Shape"></path>
                <path d="M159.145,1 C159.145,1 151.645,12.195 159.62,16 C159.62,16 151.355,17.85 151.265,6.695 C151.265,6.68 156.945,-2.18 159.145,1 Z" id="Shape" fill="#D29B4F" fill-rule="nonzero"></path>
                <path d="M150.235,8.815 C150.235,8.815 144.845,23.775 158.315,32.315 C158.315,32.315 146.11,28.425 145.525,14.095 L150.235,8.815 Z" id="Shape" fill="#D29B4F" fill-rule="nonzero"></path>
                <path d="M144.41,16.14 C144.41,16.14 139.48,39.1 153.865,45.64 C153.865,45.64 141.075,43.85 138.2,26.19 L144.41,16.14 Z" id="Shape" fill="#D29B4F" fill-rule="nonzero"></path>
                <path d="M137.185,27.815 C137.185,27.815 128.635,54.315 149.31,60.38 C149.31,60.38 130.495,58.2 128.575,41.665 L137.185,27.815 Z" id="Shape" fill="#D29B4F" fill-rule="nonzero"></path>
                <path d="M121.71,54.08 C121.71,54.08 119.285,66.455 142.585,69.965 C142.585,69.965 123.825,63.79 127.93,43.565 L121.71,54.08 Z" id="Shape" fill="#D29B4F" fill-rule="nonzero"></path>
                <path d="M159.03,2.445 C159.03,2.445 162.16,3.875 159.69,15.075 C159.69,15.075 158.135,15.625 159.375,11.25 C160.615,6.875 159.77,4.195 158.95,3.5 C158.13,2.805 159.03,2.445 159.03,2.445 Z" id="Shape" fill="#FFFFFF" fill-rule="nonzero"></path>
                <path d="M159.35,19.37 C159.35,19.37 157.965,28.37 156.875,29.37 C155.785,30.37 158.5,19.305 158.5,19.305 C158.5,19.305 159.5,18.355 159.35,19.37 Z" id="Shape" fill="#FFFFFF" fill-rule="nonzero"></path>
                <path d="M156.24,34.165 C156.24,34.165 154.54,43.115 152.97,44.12 C151.4,45.125 155,34.065 155,34.065 C155,34.065 156.445,33.15 156.24,34.165 Z" id="Shape" fill="#FFFFFF" fill-rule="nonzero"></path>
                <path d="M151.835,48.165 C151.835,48.165 149.275,58.305 147.335,57.355 C145.96,56.69 148.95,50.42 149.995,48.19 C150.244955,47.6603347 150.828036,47.3739818 151.4,47.5 C151.72,47.57 151.96,47.755 151.835,48.165 Z" id="Shape" fill="#FFFFFF" fill-rule="nonzero"></path>
                <path d="M145.805,61.9 C146.124793,61.9554921 146.401244,62.1550956 146.554541,62.4411847 C146.707838,62.7272739 146.720916,63.0680017 146.59,63.365 C145.945,65.115 144.55,68.445 142.97,67.83 C141.39,67.215 143.97,63.745 144.91,62.33 C145.103072,62.0438757 145.430052,61.8775503 145.775,61.89 L145.805,61.9 Z" id="Shape" fill="#FFFFFF" fill-rule="nonzero"></path>
                <circle id="Oval" fill="#5F2B70" fill-rule="nonzero" cx="93.685" cy="95.32" r="15.23"></circle>
                <circle id="Oval" fill="#793683" fill-rule="nonzero" cx="93.685" cy="95.32" r="8.515"></circle>
                <circle id="Oval" fill="#FFFFFF" fill-rule="nonzero" cx="99.225" cy="90.005" r="5.225"></circle>
                <circle id="Oval" fill="#FFFFFF" fill-rule="nonzero" cx="88.9" cy="100.96" r="2.26"></circle>
                <path d="M164.5,123.925 C164.5,123.925 185.185,132.34 177,156.995 C168.815,181.65 136.45,192.36 100,182.895 C63.55,173.43 59.3,153.035 57.395,140.64 C54.78,123.5 65,109.93 81.65,106.555 C92.465,104.365 110.97,106.055 131.015,111.415 C150.875,116.74 164.5,123.925 164.5,123.925 Z" id="Shape" fill="#FAC8CA" fill-rule="nonzero"></path>
                <path d="M103.365,126.74 C103.365,126.74 105.75,120.925 109.495,120.575 C113.24,120.225 110.995,124.22 109.365,124.295 C107.735,124.37 105.22,124.735 103.365,126.74 Z" id="Shape" fill="#000000" fill-rule="nonzero"></path>
                <path d="M152.27,141.185 C152.27,141.185 153.01,134.945 149.905,132.825 C146.8,130.705 146.82,135.28 148.215,136.135 C149.61,136.99 151.62,138.535 152.27,141.185 Z" id="Shape" fill="#000000" fill-rule="nonzero"></path>
                <circle id="Oval" fill="#5F2B70" fill-rule="nonzero" cx="125.6" cy="158.015" r="7.65"></circle>
                <path d="M123.75,154.37 C121.563818,154.368774 119.482413,155.306589 118.035,156.945 C117.981267,157.299193 117.952861,157.656766 117.95,158.015 C117.945715,161.191557 119.907441,164.039351 122.87697,165.167373 C125.846499,166.295394 129.204201,165.468265 131.31,163.09 C131.642329,160.894589 130.995986,158.663805 129.541471,156.98611 C128.086956,155.308416 125.970351,154.352308 123.75,154.37 Z" id="Shape" fill="#DF2927" fill-rule="nonzero"></path>
                <path d="M127.6,164.83 C124.157183,164.834818 121.136452,162.536339 120.223077,159.216887 C119.309702,155.897436 120.729351,152.377149 123.69,150.62 C120.788807,151.360464 118.58757,153.727401 118.059244,156.674617 C117.530919,159.621833 118.772901,162.606011 121.23623,164.308133 C123.699559,166.010255 126.930123,166.116536 129.5,164.58 C128.879857,164.743699 128.241381,164.827709 127.6,164.83 Z" id="Shape" fill="#E6E7E8" fill-rule="nonzero" style="mix-blend-mode: multiply;"></path>
                <path d="M140.5,82.265 C125.26,94.395 122.85,116.72 135.115,132.135 C147.38,147.55 169.68,150.205 184.92,138.075 C200.16,125.945 202.575,103.62 190.305,88.21 C178.035,72.8 155.73,70.135 140.5,82.265 Z M181.085,133.265 C168.475,143.3 150.03,141.095 139.88,128.345 C129.73,115.595 131.73,97.125 144.335,87.09 C156.94,77.055 175.395,79.255 185.54,92.005 C195.685,104.755 193.68,123.225 181.07,133.26 L181.085,133.265 Z" id="Shape" fill="#00205F" fill-rule="nonzero"></path>
                <ellipse id="Oval" fill="#FFFFFF" fill-rule="nonzero" opacity="0.35" transform="translate(162.696240, 110.180730) rotate(-38.510000) translate(-162.696240, -110.180730) " cx="162.69624" cy="110.18073" rx="30.25" ry="30.59"></ellipse>
                <path d="M147.34,126.68 C137.965,114.905 139.81,97.85 151.455,88.585 C155.596717,85.2789706 160.632426,83.2869747 165.915,82.865 C159.145745,82.3102968 152.419474,84.3557126 147.105,88.585 C135.46,97.855 133.605,114.91 142.99,126.685 C148.648811,133.826903 157.497299,137.675376 166.58,136.945 C159.019528,136.343384 152.049737,132.624834 147.34,126.68 Z" id="Shape" fill="#FFFFFF" fill-rule="nonzero" opacity="0.35"></path>
                <rect id="Rectangle-path" fill="#00205F" fill-rule="nonzero" transform="translate(187.654837, 144.549950) rotate(-38.510000) translate(-187.654837, -144.549950) " x="184.379837" y="134.72995" width="6.55" height="19.64"></rect>
                <rect id="Rectangle-path" fill="#DF2927" fill-rule="nonzero" transform="translate(194.437343, 153.209821) rotate(-38.510000) translate(-194.437343, -153.209821) " x="188.092343" y="138.284821" width="12.69" height="29.85" rx="6.345"></rect>
                <path d="M183.885,145.555 C183.367522,146.515733 183.463499,147.690959 184.13,148.555 L196.78,164.445 C197.42,165.255 198.595,165.225 199.43,165.075 L183.885,145.555 Z" id="Shape" fill="#FFFFFF" fill-rule="nonzero" opacity="0.35"></path>
                <path d="M205.715,137.22 L206.065,137.465 C208.914631,139.490904 210.310218,143.000424 209.63,146.43 C209.157831,148.824569 208.531528,151.186149 207.755,153.5 C200.495,175.13 177.62,164.405 188.205,149.365 C189.862527,146.970558 191.18635,144.3616 192.14,141.61 C193.052461,138.956264 195.160538,136.886628 197.830616,136.023155 C200.500694,135.159683 203.421449,135.603051 205.715,137.22 Z" id="Shape" fill="#FAC8CA" fill-rule="nonzero"></path>
                <path d="M206.885,155.775 C198.84,174.325 178.015,163.845 188.205,149.365 L188.535,148.865 C193.715,148 201.105,148.47 206.885,155.775 Z" id="Shape" fill="#5F2B70" fill-rule="nonzero"></path>
                <path d="M21.315,145.035 L20.97,145.285 C18.1214118,147.30964 16.7242884,150.816146 17.4,154.245 C17.8751258,156.640525 18.5013774,159.003581 19.275,161.32 C26.54,182.945 49.415,172.22 38.83,157.18 C37.1724729,154.785558 35.8486498,152.1766 34.895,149.425 C33.9812482,146.771049 31.8722335,144.701565 29.2014693,143.838188 C26.5307051,142.974812 23.6093755,143.418138 21.315,145.035 Z" id="Shape" fill="#FAC8CA" fill-rule="nonzero"></path>
                <path d="M20.15,163.59 C28.195,182.14 49.02,171.66 38.83,157.18 C38.715,157.02 38.61,156.86 38.5,156.68 C33.32,155.81 25.93,156.285 20.15,163.59 Z" id="Shape" fill="#5F2B70" fill-rule="nonzero"></path>
            </g>
        </g>
    </g>
</svg>