<?xml version="1.0" encoding="UTF-8"?>
<svg width="460px" height="367px" viewBox="0 0 460 367" version="1.1" xmlns="http://www.w3.org/2000/svg" xmlns:xlink="http://www.w3.org/1999/xlink">
    <!-- Generator: Sketch 50.2 (55047) - http://www.bohemiancoding.com/sketch -->
    <title>fusée</title>
    <desc>Created with Sketch.</desc>
    <defs>
        <polygon id="path-1" points="0 0.096 32.9598 0.096 32.9598 52.419 0 52.419"></polygon>
        <polygon id="path-3" points="0.226083007 0.98336415 159.15 0.98336415 159.15 204 0.226083007 204"></polygon>
    </defs>
    <g id="404-PAGE" stroke="none" stroke-width="1" fill="none" fill-rule="evenodd">
        <g id="404-(≥1200px)" transform="translate(-219.000000, -535.000000)">
            <g id="fusée" transform="translate(448.017413, 721.182422) rotate(184.000000) translate(-448.017413, -721.182422) translate(207.017413, 551.182422)">
                <path d="M300.5339,98.0028 L274.5529,168.4618 L295.7699,176.2858 C304.0909,173.3268 311.4289,169.4688 315.4399,167.1968 C317.5109,166.0238 319.0899,164.1528 319.9139,161.9198 L330.8079,132.3768 C331.7209,129.8988 331.6309,127.1648 330.5469,124.7578 C328.6119,120.4608 325.1519,113.0768 321.0129,105.5548 L300.5339,98.0028 Z" id="Fill-1" fill="#2E3B50"></path>
                <path d="M64.5325,118.202 C85.9015,133.634 114.3955,148.154 152.4555,159.013 C209.9055,175.405 249.0025,175.405 271.7715,176.437 C289.4215,177.237 308.0345,159.635 314.1475,143.057 C320.2595,126.48 317.2435,101.786 303.2995,90.936 C285.3105,76.939 255.5735,51.557 201.2345,26.728 C165.2355,10.279 134.1365,2.824 107.8645,0.689 C110.4065,21.649 108.1815,43.502 100.3745,64.673 C92.5685,85.845 80.0735,103.911 64.5325,118.202" id="Fill-3" fill="#F0F0F1"></path>
                <g id="Group-9" transform="translate(0.000000, -0.000000)" fill="#1F9AFF">
                    <path d="M-0.0002,27.661 C1.7168,32.286 9.2728,78.297 64.5328,118.202 C80.0738,103.911 92.5678,85.845 100.3748,64.673 C108.1818,43.502 110.4068,21.649 107.8648,0.689 C39.9268,-4.833 4.3088,25.257 -0.0002,27.661" id="Fill-7"></path>
                </g>
                <g id="Group-12" transform="translate(0.000000, 10.000000)">
                    <mask id="mask-2" fill="white">
                        <use xlink:href="#path-1"></use>
                    </mask>
                    <g id="Clip-11"></g>
                    <path d="M-0.0002,17.661 C0.9028,20.094 3.4338,33.99 13.6668,52.419 C18.5308,44.617 22.6868,36.213 25.9928,27.246 C29.2988,18.279 31.5938,9.188 32.9598,0.096 C13.2128,7.47 2.2668,16.396 -0.0002,17.661" id="Fill-10" fill="#2E3B50" mask="url(#mask-2)"></path>
                </g>
                <path d="M215.2381,173.1678 L244.4651,205.0598 C246.3581,207.1248 248.9211,208.4518 251.7001,208.8058 L326.8351,229.5908 C329.5181,230.3338 332.3221,228.8958 333.2851,226.2828 C334.1031,224.0668 333.3711,221.5758 331.4841,220.1548 L279.3171,180.8548 L274.5901,169.9728 C273.9691,168.5428 272.5561,167.6198 270.9961,167.6268 L217.6661,167.8548 C214.8651,167.7748 213.3441,171.1028 215.2381,173.1678" id="Fill-16" fill="#1F9AFF"></path>
                <path d="M329.5398,227.2635 L254.4058,206.4785 C251.6258,206.1245 249.0628,204.7975 247.1698,202.7325 L217.9428,170.8405 C217.1368,169.9605 216.9538,168.8525 217.2218,167.8755 C214.7108,168.1385 213.4478,171.2145 215.2378,173.1675 L244.4648,205.0595 C246.3578,207.1245 248.9208,208.4515 251.6998,208.8055 L326.8348,229.5905 C329.2318,230.2535 331.7148,229.1705 332.9068,227.0715 C331.8638,227.4795 330.6948,227.5835 329.5398,227.2635" id="Fill-18" fill="#007DB7"></path>
                <path d="M258.0696,57.0106 L301.0046,51.7276 C303.7846,51.3856 306.5956,52.0406 308.9396,53.5766 L379.5816,86.5436 C382.1046,87.7216 383.3046,90.6356 382.3406,93.2476 C381.5236,95.4646 379.3506,96.8836 376.9916,96.7396 L311.7986,92.7646 L301.1396,97.9726 C299.7386,98.6576 298.0646,98.4416 296.8826,97.4246 L256.4676,62.6286 C254.2846,60.8706 255.2886,57.3526 258.0696,57.0106" id="Fill-20" fill="#1F9AFF"></path>
                <path d="M380.1287,90.0702 L309.4857,57.1022 C307.1427,55.5672 304.3317,54.9122 301.5507,55.2542 L258.6167,60.5372 C257.4317,60.6832 256.5727,61.4072 256.1427,62.3242 C254.4037,60.4942 255.4407,57.3342 258.0697,57.0102 L301.0037,51.7282 C303.7847,51.3862 306.5957,52.0412 308.9397,53.5762 L379.5817,86.5442 C381.8357,87.5952 383.0207,90.0322 382.5647,92.4032 C382.0347,91.4152 381.2147,90.5772 380.1287,90.0702" id="Fill-22" fill="#007DB7"></path>
                <g id="Group-26" transform="translate(322.000000, 136.000000)">
                    <mask id="mask-4" fill="white">
                        <use xlink:href="#path-3"></use>
                    </mask>
                    <g id="Clip-25"></g>
                    <path d="M98.2537,48.2714 C98.9597,48.8474 99.6517,49.4354 100.3527,50.0184 L98.2537,48.2714 Z M1.8937,14.0614 C-2.3583,25.5914 1.0247,41.0374 17.8197,46.0464 C17.8667,46.0654 17.9097,46.0934 17.9577,46.1094 C65.7537,62.3734 106.7717,99.9154 133.4547,151.8214 C141.4887,167.4484 147.5387,183.9834 151.4377,200.9664 C151.9167,203.0734 154.0147,204.3824 156.1177,203.9004 C158.2197,203.4174 159.5327,201.3224 159.0507,199.2194 C155.0077,181.6034 148.7327,164.4544 140.4017,148.2504 C134.8867,137.5194 128.7637,127.3914 122.1137,117.9014 C122.0667,117.7914 122.0407,117.7304 122.0407,117.7304 C117.1837,110.7734 116.2137,107.8574 120.0007,104.7094 C123.2507,102.0064 126.2787,103.2664 128.8687,106.5034 C135.8887,116.1494 142.2847,126.3224 148.0077,136.9764 C149.0277,138.8764 151.3967,139.5894 153.2967,138.5694 C155.1767,137.5604 155.8947,135.2334 154.9227,133.3434 C154.9117,133.3234 154.9007,133.3014 154.8897,133.2804 C141.8367,108.9764 125.3997,87.0784 106.0357,68.1934 C105.9877,68.1474 105.9337,68.1154 105.8837,68.0724 C102.3967,64.6674 96.6747,59.7864 99.5717,55.8984 C101.1597,53.7694 102.8847,52.9024 106.5187,55.3084 C109.7087,58.1354 112.8317,61.0254 115.8747,63.9934 C117.4187,65.4994 119.8917,65.4684 121.3987,63.9244 C122.6017,62.6904 122.8237,60.8654 122.0767,59.4124 C121.8897,59.0464 121.6387,58.7054 121.3287,58.4014 C39.3667,-22.1266 6.4227,1.7774 1.8937,14.0614 Z" id="Fill-24" fill="#F3DF06" mask="url(#mask-4)"></path>
                </g>
                <path d="M337.0344,154.9066 C334.3024,162.3166 336.9564,171.8486 348.9384,174.6016 C363.0174,177.8356 384.2254,190.7246 391.9994,196.2666 C392.8774,196.8926 394.0974,196.6876 394.7234,195.8096 C395.1614,195.1936 395.1934,194.4096 394.8684,193.7816 C394.7314,193.5126 394.5304,193.2726 394.2674,193.0846 C386.9364,187.8606 379.3154,183.1706 371.5874,179.1106 C369.1054,177.6206 366.8654,174.8476 367.8044,171.9896 C368.9244,168.5846 371.9924,167.6636 374.3924,168.7936 C375.4594,169.3276 376.5324,169.8616 377.5694,170.4016 C378.5254,170.9006 379.7034,170.5276 380.2014,169.5716 C380.5064,168.9866 380.4864,168.3196 380.2054,167.7746 C380.0284,167.4276 379.7434,167.1306 379.3714,166.9376 C376.8624,165.6306 374.2424,164.3426 371.5864,163.0806 C371.2894,162.8616 370.9804,162.6576 370.6444,162.4906 C367.0734,160.7276 365.1964,159.2206 365.8384,157.0916 C366.4104,155.1936 367.7944,154.1566 370.2614,155.0236 C372.2844,155.8646 374.4264,156.8026 376.7074,157.8836 C377.6824,158.3436 378.8474,157.9276 379.3094,156.9526 C379.5784,156.3816 379.5474,155.7446 379.2804,155.2236 C379.0904,154.8546 378.7824,154.5436 378.3794,154.3516 C346.0664,138.9556 339.3504,148.6256 337.0344,154.9066" id="Fill-27" fill="#EFA528"></path>
                <path d="M393.4382,175.2567 C393.2812,174.9497 393.0412,174.6807 392.7252,174.4867 C390.7642,173.2817 388.7312,172.0797 386.6782,170.9127 C385.7422,170.3797 384.5492,170.7067 384.0162,171.6447 C383.4812,172.5807 383.8102,173.7767 384.7482,174.3077 C386.7612,175.4527 388.7572,176.6337 390.6792,177.8147 C391.5982,178.3797 392.8012,178.0927 393.3662,177.1747 C393.7372,176.5697 393.7402,175.8447 393.4382,175.2567" id="Fill-29" fill="#EFA528"></path>
                <path d="M399.2068,180.9833 C398.5938,181.8713 398.8158,183.0863 399.7028,183.7013 C403.0148,185.9903 405.7238,188.0013 408.1128,189.7743 C409.4638,190.7773 410.6708,191.6713 411.7538,192.4453 C412.6328,193.0703 413.8528,192.8663 414.4778,191.9883 C414.9168,191.3723 414.9468,190.5883 414.6238,189.9603 C414.4848,189.6913 414.2838,189.4513 414.0208,189.2633 C412.9548,188.5043 411.7698,187.6253 410.4408,186.6373 C408.1458,184.9343 405.2898,182.8143 401.9238,180.4873 C401.0368,179.8743 399.8208,180.0963 399.2068,180.9833" id="Fill-31" fill="#EFA528"></path>
                <path d="M403.1599,204.8143 C407.2999,208.2173 411.3139,211.7893 415.0869,215.4303 C415.8629,216.1783 417.0989,216.1563 417.8489,215.3803 C418.4439,214.7633 418.5529,213.8543 418.1809,213.1313 C418.0859,212.9453 417.9579,212.7723 417.7999,212.6193 C413.9509,208.9073 409.8599,205.2653 405.6389,201.7953 C404.8059,201.1113 403.5759,201.2313 402.8899,202.0653 C402.2059,202.8983 402.3269,204.1283 403.1599,204.8143" id="Fill-33" fill="#EFA528"></path>
                <path d="M421.5193,221.9618 C424.4983,225.1528 426.0813,227.1298 426.0963,227.1488 C426.7703,227.9918 427.9983,228.1288 428.8413,227.4568 C429.5813,226.8668 429.7773,225.8498 429.3613,225.0398 C429.3023,224.9268 429.2323,224.8158 429.1503,224.7128 C429.0823,224.6288 427.4683,222.6118 424.3753,219.2968 C423.6393,218.5088 422.4033,218.4648 421.6153,219.2008 C420.8263,219.9378 420.7893,221.1688 421.5193,221.9618" id="Fill-35" fill="#EFA528"></path>
                <path d="M408.24,177.0585 C409.365,177.8955 410.501,178.7565 411.644,179.6435 C412.498,180.3035 413.723,180.1485 414.385,179.2955 C414.865,178.6755 414.914,177.8595 414.578,177.2055 C414.451,176.9595 414.27,176.7365 414.038,176.5555 C412.872,175.6525 411.716,174.7765 410.57,173.9235 C409.705,173.2805 408.482,173.4595 407.838,174.3265 C407.194,175.1925 407.371,176.4125 408.24,177.0585" id="Fill-37" fill="#EFA528"></path>
                <path d="M389.0857,164.4003 C393.4807,166.9443 397.9227,169.7673 402.2887,172.7883 C403.1757,173.4023 404.3917,173.1803 405.0057,172.2933 C405.4307,171.6803 405.4547,170.9083 405.1357,170.2873 C404.9937,170.0123 404.7837,169.7653 404.5107,169.5763 C400.0587,166.4953 395.5267,163.6173 391.0437,161.0203 C390.1097,160.4793 388.9157,160.7983 388.3747,161.7313 C387.8327,162.6643 388.1517,163.8593 389.0857,164.4003" id="Fill-39" fill="#EFA528"></path>
                <path d="M189.5388,50.9711 C212.4208,59.4091 224.1308,84.7981 215.6928,107.6801 C207.2548,130.5621 181.8658,142.2721 158.9838,133.8341 C136.1018,125.3971 124.3928,100.0071 132.8298,77.1251 C141.2678,54.2431 166.6568,42.5331 189.5388,50.9711" id="Fill-43" fill="#FEFEFE"></path>
                <path d="M187.4231,56.7079 C207.1371,63.9779 217.2251,85.8519 209.9561,105.5649 C202.6871,125.2789 180.8131,135.3669 161.0991,128.0979 C141.3851,120.8289 131.2971,98.9549 138.5661,79.2409 C145.8361,59.5269 167.7101,49.4379 187.4231,56.7079" id="Fill-45" fill="#391950"></path>
                <path d="M248.3137,133.181 L366.0447,166.093 C368.1467,166.681 370.3497,165.556 371.1047,163.507 C371.8647,161.446 370.9027,159.147 368.9017,158.24 L257.5577,107.782 C250.3887,104.534 241.9687,108.054 239.2457,115.438 C236.5067,122.866 240.6897,131.05 248.3137,133.181" id="Fill-47" fill="#1F9AFF"></path>
            </g>
        </g>
    </g>
</svg>