<?xml version="1.0" encoding="UTF-8"?>
<svg width="343px" height="124px" viewBox="0 0 343 124" version="1.1" xmlns="http://www.w3.org/2000/svg" xmlns:xlink="http://www.w3.org/1999/xlink">
    <!-- Generator: Sketch 51.1 (57501) - http://www.bohemiancoding.com/sketch -->
    <title>img</title>
    <desc>Created with Sketch.</desc>
    <defs>
        <path d="M5,0 L338,0 C340.761424,-5.07265313e-16 343,2.23857625 343,5 L343,124 L0,124 L0,5 C-3.38176876e-16,2.23857625 2.23857625,5.07265313e-16 5,0 Z" id="path-1"></path>
    </defs>
    <g id="CREATE/JOIN-CLASS" stroke="none" stroke-width="1" fill="none" fill-rule="evenodd">
        <g id="Create/Join-class-(≥1200px)" transform="translate(-549.000000, -281.000000)">
            <g id="Content" transform="translate(449.000000, 181.000000)">
                <g id="Join-class" transform="translate(100.000000, 100.000000)">
                    <g id="img">
                        <mask id="mask-2" fill="white">
                            <use xlink:href="#path-1"></use>
                        </mask>
                        <use id="Rectangle-5" fill="#00B7CE" xlink:href="#path-1"></use>
                        <circle id="Oval-3" fill="#FFFFFF" opacity="0.200000003" style="mix-blend-mode: soft-light;" mask="url(#mask-2)" cx="171.5" cy="382.5" r="267.5"></circle>
                        <circle id="Oval-3" fill="#FFFFFF" opacity="0.200000003" style="mix-blend-mode: soft-light;" mask="url(#mask-2)" cx="171.5" cy="315.5" r="267.5"></circle>
                        <g id="parents-dad" mask="url(#mask-2)">
                            <g transform="translate(317.504117, 59.988076) rotate(-4.000000) translate(-317.504117, -59.988076) translate(257.504117, -21.011924)">
                                <path d="M37.3678756,129.820725 C37.3678756,129.820725 31.0227979,128.940933 30.0093264,121.318135 L37.2715026,122.110881 L37.3678756,129.820725 Z" id="Shape" fill="#1F77B9" fill-rule="nonzero"></path>
                                <path d="M37.6569948,115.995855 C37.6569948,115.995855 29.0051813,126.118135 19.2746114,126.544041 C9.54404145,126.969948 12.4352332,140.045596 23.8663212,136.091192 C35.2974093,132.136788 41.7481865,122.014508 41.7481865,122.014508" id="Shape" fill="#FAC8CA" fill-rule="nonzero"></path>
                                <path d="M36.2300518,116.66114 C31.5170984,122.232124 31.2559585,120.823834 29.7668394,121.46114 C29.7668394,121.46114 37.9336788,122.97513 37.1253886,129.963731 C37.1253886,129.963731 39.3015544,128.679793 42.5937824,122.639378 C43.1471503,121.622798 43.0103627,120.366839 42.5937824,119.288083 C42.3558937,118.682104 42.0569438,118.101912 41.7015544,117.556477 C40.4829016,115.725389 37.6476684,114.985492 36.2300518,116.66114 Z" id="Shape" fill="#00AFEC" fill-rule="nonzero"></path>
                                <path d="M22.6196891,136.476684 C12.2300518,139.103627 9.87357513,126.966839 19.265285,126.559585 L19.5761658,126.540933 C21.6217617,128.412435 23.8165803,131.670466 22.6196891,136.476684 Z" id="Shape" fill="#5F2B70" fill-rule="nonzero"></path>
                                <path d="M62.3316062,140.782383 C62.3316062,140.782383 66.373057,124.38342 77.107772,123.851813 C84.7772021,123.46943 89.8725389,128.328497 89.1233161,135.15544 C88.3927461,141.830052 90.7865285,142.911917 95.4310881,142.927461 C95.4310881,142.927461 91.8559585,148.908808 84.3668394,147.649741 C76.6974093,146.362694 77.9409326,140.359585 72.6621762,140.533679 C69.242487,140.645596 66.8176166,143.291192 65.5119171,145.153368 C65.1045034,145.739144 64.3986152,146.041177 63.693586,145.931388 C62.9885568,145.821599 62.4079322,145.319228 62.1979275,144.637306 C61.9305699,143.723316 61.8839378,142.482902 62.3316062,140.782383 Z" id="Shape" fill="#B77EB4" fill-rule="nonzero"></path>
                                <path d="M80.042487,142.635233 C78.9512953,135.484974 72.1647668,138.152332 69.9823834,136.818653 C68.1854922,135.721244 66.8735751,128.32228 76.8031088,123.873575 C66.2953368,124.697409 62.3316062,140.782383 62.3316062,140.782383 C61.8839378,142.482902 61.9305699,143.723316 62.2041451,144.627979 C62.4141499,145.309901 62.9947744,145.812273 63.6998036,145.922061 C64.4048328,146.03185 65.110721,145.729818 65.5181347,145.144041 C66.8176166,143.278756 69.2487047,140.636269 72.6683938,140.524352 C77.5989637,140.359585 76.8404145,145.588601 82.9709845,147.326425 C81.3793714,146.243306 80.3165851,144.540817 80.042487,142.635233 Z" id="Shape" fill="#D1D3D4" fill-rule="nonzero" style="mix-blend-mode: multiply;"></path>
                                <path d="M76.6476684,126.345078 C76.6476684,126.345078 81.8611399,125.642487 85.1316062,128.86943 C88.4020725,132.096373 86.1139896,139.364767 87.6683938,141.18342 C87.6683938,141.18342 85.9056995,141.531606 85.9709845,135.820725 C86.0362694,130.109845 84.2829016,128.110881 76.6476684,126.345078 Z" id="Shape" fill="#FFFFFF" fill-rule="nonzero"></path>
                                <path d="M41.7419689,114.715026 C41.7419689,114.715026 37.0787565,118.756477 35.1388601,129.034197 C33.3139896,138.75544 35.2445596,151.728497 39.9637306,159.351295 C40.4981199,160.209916 41.3530551,160.819785 42.3388601,161.045596 C44.1054988,161.469532 45.9259655,161.624644 47.7388601,161.505699 C49.7629827,161.343974 51.301361,159.617922 51.2300518,157.588601 C51.146114,155.549223 51.292228,152.978238 52.3834197,151.737824 C52.3834197,151.737824 54.0777202,154.781347 59.0984456,157.871503 C60.2219351,158.567636 61.5826323,158.770054 62.8601036,158.431088 C64.4549223,158.002073 66.6341969,157.116062 68.2507772,155.300518 C69.4465009,153.959393 69.8051422,152.068157 69.1834197,150.382383 C67.4860104,145.809326 63.9419689,133.697409 67.865285,120.301554 C67.865285,120.301554 69.0932642,113.875648 59.2414508,110.431088 C49.3896373,106.986528 41.7419689,114.715026 41.7419689,114.715026 Z" id="Shape" fill="#FAC8CA" fill-rule="nonzero"></path>
                                <path d="M34.4580311,143.97513 C34.4580311,143.97513 34.9740933,151.140933 37.7720207,156.612435 C37.7720207,156.612435 45.6963731,160.476684 51.9668394,157.162694 L51.9668394,152.372021 L55.9150259,156.6 C55.9150259,156.6 64.9305699,157.576166 69.3761658,149.959585 L66.4756477,139.025907 L34.4580311,143.97513 Z" id="Shape" fill="#DAE2D7" fill-rule="nonzero"></path>
                                <path d="M67.8497409,120.310881 C67.8497409,120.310881 68.8601036,115.025907 61.6787565,111.463212 C58.1440415,124.961658 48.3823834,130.181347 41.9284974,126.696373 C39.1150259,125.182383 39.2518135,120.839378 40.411399,116.201036 C38.8787565,118.181347 30.7740933,129.895337 32.5989637,143.331606 C47.1637306,148.684974 61.3834197,143.589637 67.1875648,139.349223 C66.2642487,133.678756 65.5958549,128.058031 67.8497409,120.310881 Z" id="Shape" fill="#00AFEC" fill-rule="nonzero"></path>
                                <path d="M54.7989637,43.7968912 C101.782383,66.584456 62.8569948,101.860104 80.6611399,119.682902 C80.6611399,119.682902 61.2590674,130.119171 62.2943005,99.5471503 C63.015544,78.2393782 37.3430052,45.7865285 54.7989637,43.7968912 Z" id="Shape" fill="#A975A8" fill-rule="nonzero"></path>
                                <path d="M38.3502591,22.3212435 C38.3502591,22.3212435 47.8414508,13.784456 60.4849741,15.9046632 C73.1284974,18.0248705 74.9409326,23.626943 74.9409326,23.626943 L38.3502591,22.3212435 Z" id="Shape" fill="#A975A8" fill-rule="nonzero"></path>
                                <path d="M55.6974093,21.0528497 C55.6974093,21.0528497 73.3367876,12.9046632 88.3398964,29.2818653 C103.343005,45.6590674 99.842487,57.9015544 119.853886,60.8766839 C119.853886,60.8766839 103.532642,83.0020725 83.1264249,65.2911917 C69.9792746,53.8943005 55.6974093,21.0528497 55.6974093,21.0528497 Z" id="Shape" fill="#A975A8" fill-rule="nonzero"></path>
                                <path d="M63.5253886,27.6124352 C63.5253886,27.6124352 79.2031088,22.7782383 90.9295337,41.626943 C102.655959,60.4756477 95.6455959,73.5792746 114.774093,80.1761658 C114.774093,80.1761658 99.1647668,97.2746114 82.3554404,76.134715 C71.5398964,62.5181347 63.5253886,27.6124352 63.5253886,27.6124352 Z" id="Shape" fill="#A975A8" fill-rule="nonzero"></path>
                                <path d="M65.3160622,24.4632124 C115.097409,40.2248705 83.8445596,85.2932642 103.865285,100.939896 C103.865285,100.939896 82.6072539,114.127461 79.8031088,81.7958549 C77.8445596,59.2476684 48.1305699,29.6051813 65.3160622,24.4632124 Z" id="Shape" fill="#A975A8" fill-rule="nonzero"></path>
                                <path d="M66.2984456,29.1139896 C113.272539,51.9202073 72.826943,90.357513 90.373057,108.73057 C90.373057,108.73057 70.4176166,120.326425 72.3419689,87.9295337 C73.653886,65.3471503 48.5471503,31.7098446 66.2984456,29.1139896 Z" id="Shape" fill="#A975A8" fill-rule="nonzero"></path>
                                <path d="M20.9968912,49.6880829 C20.9968912,49.6880829 8.59896373,34.6569948 6.25803109,21.988601 C5.92230434,20.137294 6.48864216,18.2367934 7.78297577,16.8712347 C9.07730937,15.5056759 10.944778,14.8384414 12.811399,15.0746114 C19.0290155,15.9046632 33.2797927,22.8870466 42.2145078,33.6839378" id="Shape" fill="#FAC8CA" fill-rule="nonzero"></path>
                                <path d="M24.0217617,46.507772 C27.7523316,39.9792746 33.4352332,39.2984456 33.4352332,39.2984456 C33.4352332,39.2984456 19.038342,24.2891192 13.7316062,22.7595855 C4.56062176,20.1108808 20.011399,44.3564767 24.0217617,46.507772 Z" id="Shape" fill="#FFFFFF" fill-rule="nonzero"></path>
                                <path d="M100.806218,61.3398964 C99.2518135,50.4093264 91.9430052,42.6870466 84.0466321,37.1253886 C68.1544041,25.9336788 42.0777202,20.6860104 23.3316062,37.4673575 C12.988601,46.7284974 6.49430052,62.8352332 5.03005181,75.9046632 C3.12124352,92.9471503 13.734715,102.640415 25.0601036,110.101554 C26.0611399,110.760622 27.0715026,111.410363 28.0756477,112.063212 C27.9199817,112.363013 27.9922114,112.730611 28.2497409,112.949223 C38.042487,120.335751 54.615544,121.290155 67.3523316,116.449741 C77.7202073,112.53886 86.7917098,103.790674 93.0963731,93.8549223 C99.4010363,83.919171 102.326425,72.0621762 100.806218,61.3398964 Z" id="Shape" fill="#FAC8CA" fill-rule="nonzero"></path>
                                <path d="M93.7740933,44.5740933 C103.607254,77.157513 76.2248705,86.1481865 70.4580311,80.6704663 C65.6020725,76.0632124 55.5357513,70.9740933 43.5170984,67.2870466 C31.5917098,63.6341969 22.2839378,62.934715 22.2839378,62.934715 C22.2839378,62.934715 13.0818653,61.3305699 7.82797927,69.5595855 C7.86528497,67.8590674 7.08186528,69.1678756 6.73989637,71.5367876 C6.0865244,72.9418019 5.57718767,74.4093999 5.21968912,75.9170984 C1.8,89.984456 12.6497409,104.558549 31.3336788,112.150259 C31.8435233,112.510881 32.3512953,112.874611 32.8569948,113.241451 C32.9616428,113.319777 33.0291713,113.437952 33.0435233,113.567876 C43.7689119,119.549223 60.680829,119.785492 72.8051813,112.946114 C82.4474872,107.41516 90.2862203,99.2158518 95.3782383,89.334715 C104.207254,72.0590674 102.46943,56.0207254 93.7740933,44.5740933 Z" id="Shape" fill="#FAC8CA" fill-rule="nonzero" opacity="0.77" style="mix-blend-mode: multiply;"></path>
                                <circle id="Oval" fill="#FFFFFF" fill-rule="nonzero" cx="19.2590674" cy="61.2093264" r="12.4569948"></circle>
                                <circle id="Oval" fill="#5F2B70" fill-rule="nonzero" cx="19.1036269" cy="61.7067358" r="9.59378238"></circle>
                                <circle id="Oval" fill="#793683" fill-rule="nonzero" cx="19.1036269" cy="61.7067358" r="5.36580311"></circle>
                                <circle id="Oval" fill="#FFFFFF" fill-rule="nonzero" cx="16.442487" cy="57.665285" r="3.29222798"></circle>
                                <circle id="Oval" fill="#FFFFFF" fill-rule="nonzero" cx="21.2580311" cy="65.838342" r="1.4238342"></circle>
                                <circle id="Oval" fill="#FFFFFF" fill-rule="nonzero" cx="61.0569948" cy="67.7378238" r="12.4569948"></circle>
                                <circle id="Oval" fill="#5F2B70" fill-rule="nonzero" cx="60.4569948" cy="67.9958549" r="9.59378238"></circle>
                                <circle id="Oval" fill="#793683" fill-rule="nonzero" cx="60.4569948" cy="67.9958549" r="5.36580311"></circle>
                                <circle id="Oval" fill="#FFFFFF" fill-rule="nonzero" cx="57.7958549" cy="63.9544041" r="3.29222798"></circle>
                                <circle id="Oval" fill="#FFFFFF" fill-rule="nonzero" cx="62.611399" cy="72.1274611" r="1.4238342"></circle>
                                <path d="M41.1917098,117.966839 C17.9689119,114.736788 1.5761658,101.37513 2.27253886,85.946114 C2.96891192,70.5170984 16.8279793,70.6818653 16.8279793,70.6818653 C16.8279793,70.6818653 26.3098446,69.8860104 39.0062176,71.5554404 C49.6632124,72.957513 59.1357513,75.519171 65.3533679,78.4725389 C59.3906736,75.0217617 48.973057,72.0435233 37.0321244,70.6134715 C24.4010363,69.1025907 14.9222798,70.0974093 14.9222798,70.0974093 C14.9222798,70.0974093 1.10362694,70.1720207 0.136787565,86.2165803 C-0.830051813,102.26114 15.2797927,115.85285 38.3751295,118.796891 C45.3823834,119.692228 50.9129534,119.32228 55.3398964,118.193782 C51.4569948,118.737824 46.8031088,118.756477 41.1917098,117.966839 Z" id="Shape" fill="#FAC8CA" fill-rule="nonzero"></path>
                                <path d="M74.5274611,40.8683938 C74.5274611,40.8683938 89.6020725,26.3875648 102.963731,22.8621762 C104.91746,22.3439464 107.001205,22.7919355 108.569318,24.067334 C110.137431,25.3427325 111.000533,27.2915126 110.891192,29.3098446 C110.505699,36.0435233 104.19171,51.8362694 93.3637306,62.2632124" id="Shape" fill="#FAC8CA" fill-rule="nonzero"></path>
                                <path d="M78.1709845,43.8341969 C85.4766839,47.2849741 86.6487047,53.319171 86.6487047,53.319171 C86.6487047,53.319171 101.536788,36.7056995 102.746114,30.9046632 C104.835233,20.8911917 80.1512953,39.3854922 78.1709845,43.8341969 Z" id="Shape" fill="#FFFFFF" fill-rule="nonzero"></path>
                                <path d="M14.9222798,70.0974093 C14.9222798,70.0974093 1.10362694,70.1720207 0.136787565,86.2165803 C-0.830051813,102.26114 15.2766839,115.85285 38.3751295,118.796891 C61.4735751,121.740933 68.6207254,111.02487 72.5720207,104.331606 C78.0279793,95.0891192 75.292228,84.9512953 66.4911917,79.1782383 C60.7834197,75.4321244 49.7720207,72.1398964 37.0227979,70.6134715 C24.4010363,69.1025907 14.9222798,70.0974093 14.9222798,70.0974093 Z" id="Shape" fill="#FAC8CA" fill-rule="nonzero"></path>
                                <path d="M11.5678756,82.5979275 C11.5678756,82.5979275 12.4725389,78.8176166 14.7295337,78.2455959 C16.9865285,77.6735751 15.9917098,80.3316062 15,80.5305699 C14.0082902,80.7295337 12.5098446,81.1989637 11.5678756,82.5979275 Z" id="Shape" fill="#000000" fill-rule="nonzero"></path>
                                <path d="M49.3865285,85.7751295 C49.3865285,85.7751295 49.3554404,81.8891192 47.2818653,80.8259067 C45.2082902,79.7626943 45.5813472,82.573057 46.5046632,83.0020725 C47.4279793,83.4310881 48.7834197,84.1989637 49.3865285,85.7751295 Z" id="Shape" fill="#000000" fill-rule="nonzero"></path>
                                <path d="M83.0331606,30.1772021 C83.0331606,30.1772021 74.3005181,13.3678756 47.0984456,13.1502591 C19.8963731,12.9326425 20.4248705,41.3968912 7.68497409,41.1481865 C7.68497409,41.1481865 20.9409326,56.3626943 34.638342,45.6621762 C48.3357513,34.961658 68.9658031,50.4031088 83.0331606,30.1772021 Z" id="Shape" fill="#B77EB4" fill-rule="nonzero"></path>
                                <g id="Group" opacity="0.28" style="mix-blend-mode: multiply;" stroke-width="1" fill="none" fill-rule="evenodd" transform="translate(7.461140, 18.652850)">
                                    <path d="M52.1440415,15.8735751 C34.4797927,11.4466321 34.1129534,23.6611399 20.5585492,20.8849741 C11.1917098,18.9637306 17.2725389,7.24352332 21.9170984,0.189637306 C11.6238342,8.42487047 9.25181347,22.6694301 0.223834197,22.4953368 C0.223834197,22.4953368 13.4797927,37.7098446 27.1772021,27.0093264 C40.8746114,16.3088083 61.5046632,31.7502591 75.5720207,11.5243523 C74.8632866,10.2784898 74.0300061,9.10773071 73.0849741,8.03005181 C70.2590674,12.5036269 64.0414508,18.8549223 52.1440415,15.8735751 Z" id="Shape" fill="#B77EB4" fill-rule="nonzero"></path>
                                </g>
                                <path d="M36.811399,38.4186528 C36.811399,38.4186528 39.5533679,1.02901554 45.8642487,0.251813472 C51.3419689,-0.422797927 54.8020725,30.2797927 55.6227979,38.4310881 C55.7894225,40.0319946 55.1666505,41.6138586 53.9533679,42.6715026 C52.588601,43.8559585 50.3751295,45.0683938 47.0207254,45.1336788 C40.4145078,45.2549223 36.373057,43.5233161 36.811399,38.4186528 Z" id="Shape" fill="#FBB35A" fill-rule="nonzero"></path>
                                <path d="M36.7554404,36.6310881 C36.7554404,36.6310881 48.4974093,41.3471503 54.7150259,30.3792746" id="Shape" fill="none"></path>
                                <path d="M52.9554404,18.5813472 C52.9554404,18.5813472 49.3678756,29.1326425 37.8559585,27.8487047" id="Shape" fill="none"></path>
                                <path d="M51.2580311,12.811399 C51.2580311,12.811399 48.8082902,27.1336788 39.0404145,27.5813472 C39.0404145,27.5813472 46.7968912,29.4932642 52.5108808,20.0145078 L51.2580311,12.811399 Z" id="Shape" fill="#D1D3D4" fill-rule="nonzero" style="mix-blend-mode: multiply;"></path>
                                <path d="M52.7222798,21.1803109 C52.7222798,21.1803109 51.5409326,38.3533679 38.2632124,37.0943005 C38.2632124,37.0943005 49.573057,40.1689119 54.4787565,31.1160622 L52.7222798,21.1803109 Z" id="Shape" fill="#D1D3D4" fill-rule="nonzero" style="mix-blend-mode: multiply;"></path>
                                <path d="M55.5668394,39.826943 C55.5668394,39.826943 54.1119171,47.4901554 39.9202073,44.1450777 C39.9202073,44.1450777 52.119171,44.9160622 54.4103627,32.3533679 L55.5668394,39.826943 Z" id="Shape" fill="#D1D3D4" fill-rule="nonzero" style="mix-blend-mode: multiply;"></path>
                                <path d="M40.3181347,20.4435233 C40.3181347,20.4435233 39.2331606,25.9772021 39.9046632,26.9129534 C40.5761658,27.8487047 41.0362694,20.6704663 41.0362694,20.6704663 C41.0362694,20.6704663 40.4331606,19.815544 40.3181347,20.4435233 Z" id="Shape" fill="#FFFFFF" fill-rule="nonzero"></path>
                                <path d="M39.6248705,29.4994819 C39.6248705,29.4994819 38.7637306,35.9098446 40.1036269,35.8134715 C41.0362694,35.7481865 40.7720207,31.4611399 40.6849741,29.9378238 C40.6602346,29.5754977 40.3878712,29.2786088 40.0290155,29.2227979 C39.826943,29.1823834 39.6497409,29.2227979 39.6248705,29.4994819 Z" id="Shape" fill="#FFFFFF" fill-rule="nonzero"></path>
                                <path d="M39.9295337,38.773057 C39.7331547,38.7308704 39.5282878,38.7814291 39.3740831,38.9101354 C39.2198783,39.0388417 39.1335032,39.2313669 39.1398964,39.4321244 C39.1088083,40.588601 39.1398964,42.8207254 40.1937824,42.8300518 C41.2476684,42.8393782 40.5699482,40.2590674 40.3398964,39.2300518 C40.2993202,39.0195344 40.1484124,38.8472381 39.9450777,38.7792746 L39.9295337,38.773057 Z" id="Shape" fill="#FFFFFF" fill-rule="nonzero"></path>
                                <path d="M21.5502591,95.9253886 L40.265285,97.6445596 C40.265285,97.6445596 37.9492228,108.413472 29.7606218,107.66114 C21.5720207,106.908808 21.5502591,95.9253886 21.5502591,95.9253886 Z" id="Shape" fill="#4E1E5D" fill-rule="nonzero"></path>
                                <path d="M24.1865285,103.936788 C25.3274611,105.733679 27.0963731,107.210363 29.8445596,107.465285 C34.4082902,107.884974 37.0352332,104.499482 38.4186528,101.670466 C31.2062176,100.706736 26.7357513,102.310881 24.1865285,103.936788 Z" id="Shape" fill="#BD2232" fill-rule="nonzero"></path>
                                <path d="M25.492228,96.4569948 C25.5979275,97.4860104 26.5772021,98.3595855 27.8393782,98.4746114 L33.6497409,99.0093264 C34.9119171,99.1274611 36.0341969,98.4435233 36.3264249,97.4549223 L25.492228,96.4569948 Z" id="Shape" fill="#FFFFFF" fill-rule="nonzero"></path>
                                <path d="M31.3025907,83.1823834 C31.3025907,83.1823834 41.561658,76.9336788 44.8569948,89.0891192 C46.9025907,96.6217617 55.2621762,93.5751295 55.2621762,93.5751295 C55.2621762,93.5751295 48.2829016,104.064249 36.1803109,98.8601036 C24.0777202,93.6559585 27.7523316,84.7367876 31.3025907,83.1823834 Z" id="Shape" fill="#9B6B9A" fill-rule="nonzero"></path>
                                <path d="M28.0849741,81.4787565 C28.0849741,81.4787565 17.9689119,76.4176166 15.826943,88.0756477 C14.4963731,95.3129534 6.4134715,93.0901554 6.4134715,93.0901554 C6.4134715,93.0901554 13.784456,102.39171 24.7336788,96.5533679 C35.6829016,90.7150259 31.5388601,82.6569948 28.0849741,81.4787565 Z" id="Shape" fill="#9B6B9A" fill-rule="nonzero"></path>
                                <path d="M29.2756477,90.3015544 C29.2756477,90.3015544 28.6818653,92.8974093 29.2756477,93.6839378 C29.8694301,94.4704663 31.3336788,96.9668394 36.6248705,99.0217617 C36.6248705,99.0217617 29.8974093,95.6891192 29.2756477,90.3015544 Z" id="Shape" fill="#9B6B9A" fill-rule="nonzero" style="mix-blend-mode: multiply;"></path>
                                <path d="M55.6943005,49.9088083 C59.5647668,48.7865285 71.6642487,46.215544 77.5554404,55.7906736 C77.9541045,56.4393518 78.0019422,57.2444269 77.6829016,57.9357513 L77.561658,58.2031088 C77.2577407,58.8556711 76.6615101,59.3247324 75.9557443,59.4664993 C75.2499784,59.6082662 74.518864,59.405828 73.9865285,58.9212435 C70.9554404,56.1699482 64.8590674,52.038342 56.3502591,53.0580311 C55.9035314,53.1139616 55.4537162,52.9810651 55.1091121,52.691338 C54.7645079,52.4016108 54.5563355,51.9813021 54.534715,51.5316062 C54.4994295,50.7875957 54.9789875,50.1164716 55.6943005,49.9088083 Z" id="Shape" fill="#9B6B9A" fill-rule="nonzero"></path>
                                <path d="M67.1875648,139.364767 C67.1875648,139.364767 65.7792746,132.674611 66.4134715,127.290155 C66.4134715,127.290155 62.7015544,126.192746 61.4176166,124.398964 C61.4176166,124.398964 63.5937824,139.883938 58.8279793,143.487047 C58.8279793,143.487047 64.3927461,141.91399 67.1875648,139.364767 Z" id="Shape" fill="#0097CA" fill-rule="nonzero"></path>
                                <path d="M37.3678756,118.660104 C37.3678756,118.660104 30.080829,133.927461 32.3316062,146.779275 L34.4611399,148.765803 C34.4611399,148.765803 34.0041451,124.426943 39.7834197,118.660104 L37.3678756,118.660104 Z" id="Shape" fill="#0082B0" fill-rule="nonzero"></path>
                                <path d="M62.2569948,117.93886 C62.2569948,117.93886 61.0911917,117.317098 58.8373057,117.590674 C58.8373057,117.590674 52.0507772,131.710881 55.7036269,147.326425 C55.7036269,147.326425 64.7813472,146.462176 67.2062176,139.364767 C67.2062176,139.364767 66.584456,133.526425 66.3388601,130.619689 C66.3202073,130.619689 58.9492228,128.888083 62.2569948,117.93886 Z" id="Shape" fill="#0082B0" fill-rule="nonzero"></path>
                                <path d="M71.5834197,129.460104 C71.5834197,129.460104 67.3678756,132.46943 60.7927461,128.480829 L65.9626943,123.320207 L71.5834197,129.460104 Z" id="Shape" fill="#1F77B9" fill-rule="nonzero"></path>
                                <path d="M61.6943005,118.809326 C61.6943005,118.809326 64.1564767,131.897409 58.3803109,139.753368 C52.6041451,147.609326 64.5979275,153.544041 68.6984456,142.162694 C72.7989637,130.781347 68.9409326,119.403109 68.9409326,119.403109" id="Shape" fill="#FAC8CA" fill-rule="nonzero"></path>
                                <path d="M61.3181347,120.33886 C62.7854922,124.859067 61.265285,126.777202 60.8207254,128.344041 C60.8207254,128.344041 66.6466321,124.445596 71.5834197,129.460104 C71.5834197,129.460104 71.6487047,122.163731 69.9668394,119.129534 C69.3959315,118.120705 68.4585728,117.370373 67.3492228,117.034197 C66.7294361,116.837956 66.0906624,116.7077 65.4435233,116.645596 C63.2549223,116.440415 60.6404145,118.249741 61.3181347,120.33886 Z" id="Shape" fill="#00AFEC" fill-rule="nonzero"></path>
                                <path d="M68.2103627,143.356477 C63.7398964,153.099482 52.8186528,147.31399 58.3803109,139.753368 C58.442487,139.66943 58.5015544,139.582383 58.5606218,139.498446 C61.3150259,139.084974 65.2259067,139.420725 68.2103627,143.356477 Z" id="Shape" fill="#5F2B70" fill-rule="nonzero"></path>
                            </g>
                        </g>
                        <g id="parents-mom" mask="url(#mask-2)">
                            <g transform="translate(32.487820, 60.142591) rotate(-27.000000) translate(-32.487820, -60.142591) translate(-52.012180, -35.008669)">
                                <g transform="translate(84.201020, 95.144242) rotate(27.000000) translate(-84.201020, -95.144242) translate(30.036621, 16.249320)">
                                    <path d="M47.4795712,137.416748 C47.4795712,137.416748 43.5348251,121.410182 33.0569725,120.888262 C25.5710581,120.518063 20.5946092,125.260862 21.3259044,131.924448 C22.0420276,138.436314 19.7024897,139.495326 15.1690661,139.510498 C15.1690661,139.510498 18.6616836,145.345688 25.9716016,144.119782 C33.4544816,142.860498 32.2437479,137.001033 37.3931588,137.17096 C40.7310209,137.2802 43.100903,139.865525 44.3723251,141.680109 C44.7704382,142.250054 45.4583751,142.543526 46.145301,142.436455 C46.8322269,142.329385 47.3982136,141.840466 47.6039825,141.176395 C47.8710114,140.28731 47.9165277,139.073542 47.4795712,137.416748 Z" id="Shape" fill="#B77EB4" fill-rule="nonzero"></path>
                                    <path d="M30.1894455,139.225263 C31.254527,132.246097 37.8786661,134.846595 40.008829,133.547863 C41.7657582,132.473678 43.0432491,125.254793 33.3543457,120.909503 C43.6076512,121.716659 47.4795712,137.416748 47.4795712,137.416748 C47.9165277,139.073542 47.8710114,140.28731 47.600948,141.167292 C47.3951792,141.831363 46.8291925,142.320282 46.1422666,142.427352 C45.4553407,142.534422 44.7674038,142.24095 44.3692906,141.671005 C43.100903,139.850353 40.7279865,137.271096 37.3901244,137.161857 C32.5805686,137.004067 33.3179327,142.104928 27.3340562,143.804203 C28.8878236,142.747733 29.9244431,141.085396 30.1894455,139.225263 Z" id="Shape" fill="#D1D3D4" fill-rule="nonzero" style="mix-blend-mode: multiply;"></path>
                                    <path d="M33.5030323,123.321867 C33.5030323,123.321867 28.4173442,122.639123 25.2220998,125.785816 C22.0268555,128.93251 24.2753608,136.030018 22.7369098,137.805154 C22.7369098,137.805154 24.457426,138.145009 24.3937032,132.573814 C24.3299803,127.002619 26.0504965,125.045418 33.5030323,123.321867 Z" id="Shape" fill="#FFFFFF" fill-rule="nonzero"></path>
                                    <path d="M70.3378578,128.380246 C70.3378578,128.380246 76.5887632,128.395418 78.609687,121.167429 L71.4848686,120.942882 L70.3378578,128.380246 Z" id="Shape" fill="#1F77B9" fill-rule="nonzero"></path>
                                    <path d="M71.9430661,114.977212 C71.9430661,114.977212 78.9222323,125.943606 88.2803838,127.685363 C97.6385354,129.42712 93.0474578,141.667971 82.539261,136.28491 C72.0310642,130.901849 67.1790265,120.235862 67.1790265,120.235862" id="Shape" fill="#FAC8CA" fill-rule="nonzero"></path>
                                    <path d="M73.2326946,115.814712 C77.0257197,121.844105 77.4626762,120.518063 78.8251308,121.337356 C78.8251308,121.337356 70.7232292,121.68328 70.5533016,128.550173 C70.5533016,128.550173 68.6234105,127.014756 66.2656661,120.727438 C65.868157,119.665391 66.1746335,118.469829 66.7329667,117.486677 C67.0420338,116.932396 67.409246,116.412603 67.8283924,115.936089 C69.2515354,114.333915 72.0917526,114.003163 73.2326946,115.814712 Z" id="Shape" fill="#00AFEC" fill-rule="nonzero"></path>
                                    <path d="M83.6832374,136.809864 C93.3660719,140.769783 97.2895771,129.360363 88.2803838,127.685363 L87.9769418,127.624675 C85.7466431,129.169195 83.1795237,132.015481 83.6832374,136.809864 Z" id="Shape" fill="#5F2B70" fill-rule="nonzero"></path>
                                    <path d="M67.5735011,111.970102 C67.5735011,111.970102 72.1251313,115.914848 74.0216438,125.94664 C75.8028484,135.435272 73.9154391,148.079701 69.3091894,155.538305 C68.7879503,156.374814 67.9546536,156.968934 66.9939269,157.18903 C65.2685573,157.60299 63.4906259,157.75439 61.7201048,157.638124 C59.7441309,157.481736 58.2426385,155.795568 58.3154854,153.814755 C58.3974147,151.827209 58.2517626,149.317744 57.1866811,148.103976 C57.1866811,148.103976 55.5329222,151.074673 50.6353681,154.093921 C49.5375724,154.773212 48.2085934,154.970748 46.9606854,154.640117 C45.4070623,154.221367 43.2768994,153.353523 41.7020354,151.581421 C40.5335705,150.274264 40.1832982,148.428329 40.7917093,146.784003 C42.4485027,142.317337 45.9077416,130.498271 42.0813379,117.422954 C42.0813379,117.422954 40.8675699,111.147774 50.4957848,107.788671 C60.1239998,104.429568 67.5735011,111.970102 67.5735011,111.970102 Z" id="Shape" fill="#FAC8CA" fill-rule="nonzero"></path>
                                    <path d="M74.6831474,140.533098 C74.6831474,140.533098 73.8456475,146.717246 72.4589175,150.15221 C72.4589175,150.15221 55.1141722,157.237581 41.3561115,145.206105 L43.2010389,137.155788 L74.6831474,140.533098 Z" id="Shape" fill="#0082B0" fill-rule="nonzero"></path>
                                    <path d="M42.0934756,117.432058 C42.0934756,117.432058 41.1042546,112.273544 48.113765,108.796098 C51.5639007,121.968516 61.0919798,127.063307 67.3944703,123.664757 C70.1254484,122.190028 70.007106,117.947909 68.8752673,113.420554 C70.3712364,115.356514 78.2819696,126.787175 76.500765,139.904973 C62.2845069,145.12721 48.4050694,140.153795 42.7367726,136.017881 C43.6410298,130.480064 44.3025334,124.996867 42.0934756,117.432058 Z" id="Shape" fill="#00AFEC" fill-rule="nonzero"></path>
                                    <path d="M54.4344621,23.3468282 C54.4344621,23.3468282 37.9636298,14.8019012 21.9176164,29.3944275 C5.87160289,43.9869537 -0.400543453,59.1014002 5.53174783,71.205702 C11.4640391,83.3100037 7.00951042,87.9921139 4.92486382,89.2726392 C0.0515851416,92.261543 1.2835597,108.638308 16.0096004,109.369604 C30.7356412,110.100899 21.929754,115.741886 21.929754,115.741886 C21.929754,115.741886 33.1844182,115.438444 28.9089203,108.183145 C28.9089203,108.183145 29.9679329,105.127484 31.3061121,107.995011 C32.6442914,110.862538 32.25892,113.117112 31.3061121,113.802891 C31.3061121,113.802891 38.8193363,114.491705 39.9360029,107.803843 L39.9360029,117.073996 C39.9360029,117.073996 50.7688826,113.217248 50.7840547,110.510545 C50.7992268,107.803843 75.8483647,119.097954 83.1006287,115.741886 C83.1006287,115.741886 79.9691072,115.857194 82.2965074,105.333825 C84.6239076,94.8104559 83.1006287,104.824042 83.1006287,104.824042 C83.1006287,104.824042 82.5544331,114.318743 88.6505831,113.353797 C88.6505831,113.353797 85.1943786,109.384776 96.6584177,100.757919 C108.122457,92.131063 111.730382,74.7984554 104.080609,66.2717349 C96.4308362,57.7450144 99.9113161,44.3662562 92.6165702,40.2485482 C85.3218243,36.1308401 76.6312451,13.0237311 54.4344621,23.3468282 Z" id="Shape" fill="#A975A8" fill-rule="nonzero"></path>
                                    <path d="M70.8870879,21.7901707 C70.8870879,21.7901707 61.6199689,13.4576531 49.2820168,15.5240932 C36.9440647,17.5905333 35.1719633,23.0615927 35.1719633,23.0615927 L70.8870879,21.7901707 Z" id="Shape" fill="#A975A8" fill-rule="nonzero"></path>
                                    <path d="M87.8221864,48.4991364 C87.8221864,48.4991364 99.9264882,33.8277152 102.208372,21.4654878 C102.536936,19.6586021 101.98501,17.8032794 100.722239,16.4697882 C99.4594674,15.136297 97.6369416,14.4841894 95.8148489,14.713903 C89.7308367,15.5240932 75.836227,22.3394007 67.1122693,32.8809762" id="Shape" fill="#FAC8CA" fill-rule="nonzero"></path>
                                    <path d="M84.8727301,45.3979591 C81.231426,39.0074703 75.684506,38.3581044 75.684506,38.3581044 C75.684506,38.3581044 89.7338711,23.7109586 94.9136262,22.2149895 C103.865165,19.6296636 88.7840976,43.2981403 84.8727301,45.3979591 Z" id="Shape" fill="#FFFFFF" fill-rule="nonzero"></path>
                                    <path d="M9.92255371,59.8751773 C11.4397638,49.2031219 18.5736854,41.6686568 26.2841469,36.2370448 C41.793068,25.3131324 67.2488182,20.1940657 85.5463713,36.5738654 C95.6388526,45.6103685 101.977756,61.3347334 103.406968,74.0884011 C105.270102,90.7261264 94.9105918,100.184414 83.8561993,107.467022 C82.8791161,108.113354 81.895964,108.744513 80.9128119,109.384776 C81.0642873,109.676893 80.9952155,110.03481 80.7459188,110.249585 C71.1874954,117.459367 55.0110019,118.390934 42.5789828,113.666342 C32.468295,109.846007 23.6047539,101.307149 17.4479156,91.6121771 C11.2910772,81.9172049 8.43872229,70.3378578 9.92255371,59.8751773 Z" id="Shape" fill="#FAC8CA" fill-rule="nonzero"></path>
                                    <path d="M16.786412,43.5075153 C7.18854121,75.3112724 33.9157134,84.0898497 39.5445627,78.7401671 C44.2843269,74.2461909 54.1097791,69.2758108 65.8408472,65.6921607 C77.4808827,62.1236826 86.5659365,61.4439725 86.5659365,61.4439725 C86.5659365,61.4439725 95.5508544,59.8782118 100.67599,67.9072873 C100.639577,66.2474595 101.407285,67.5249504 101.738037,69.8371785 C102.377099,71.2090877 102.874292,72.642712 103.221868,74.1157108 C106.559731,87.8464618 95.9696044,102.068789 77.7327396,109.478843 C77.2381291,109.830835 76.7404842,110.185863 76.2489082,110.546959 C76.1447136,110.621579 76.0782327,110.737921 76.066843,110.865573 C65.5950592,116.703797 49.0878139,116.934413 37.2535755,110.258689 C27.8440341,104.857474 20.1935221,96.8550447 15.2206512,87.212268 C6.60289813,70.3378578 8.29913896,54.6802501 16.786412,43.5075153 Z" id="Shape" fill="#FAC8CA" fill-rule="nonzero" opacity="0.77" style="mix-blend-mode: multiply;"></path>
                                    <circle id="Oval" fill="#FFFFFF" fill-rule="nonzero" cx="89.5184272" cy="59.7446973" r="12.1589213"></circle>
                                    <circle id="Oval" fill="#5F2B70" fill-rule="nonzero" cx="89.6701483" cy="60.2332389" r="9.36422042"></circle>
                                    <circle id="Oval" fill="#793683" fill-rule="nonzero" cx="89.6701483" cy="60.2332389" r="5.23740909"></circle>
                                    <circle id="Oval" fill="#FFFFFF" fill-rule="nonzero" cx="92.2676119" cy="56.2884928" r="3.21345088"></circle>
                                    <circle id="Oval" fill="#FFFFFF" fill-rule="nonzero" cx="87.5672951" cy="64.2659832" r="1.3897644"></circle>
                                    <circle id="Oval" fill="#FFFFFF" fill-rule="nonzero" cx="48.7206491" cy="66.1169795" r="12.1589213"></circle>
                                    <circle id="Oval" fill="#5F2B70" fill-rule="nonzero" cx="49.3093266" cy="66.3688363" r="9.36422042"></circle>
                                    <circle id="Oval" fill="#793683" fill-rule="nonzero" cx="49.3093266" cy="66.3688363" r="5.23740909"></circle>
                                    <circle id="Oval" fill="#FFFFFF" fill-rule="nonzero" cx="51.9037557" cy="62.4240902" r="3.21345088"></circle>
                                    <circle id="Oval" fill="#FFFFFF" fill-rule="nonzero" cx="47.2064734" cy="70.4015806" r="1.3897644"></circle>
                                    <path d="M68.1105935,115.147139 C90.780746,111.991342 106.781243,98.9524393 106.098499,83.8926124 C105.415754,68.8327855 91.8913438,68.9905753 91.8913438,68.9905753 C91.8913438,68.9905753 82.6393969,68.2137638 70.2468252,69.8462818 C59.8417987,71.2148052 50.5959207,73.712133 44.5270805,76.5948321 C50.3470982,73.2266258 60.51544,70.3196513 72.1706476,68.9268525 C84.5025308,67.4521243 93.7453744,68.4201043 93.7453744,68.4201043 C93.7453744,68.4201043 107.230337,68.4959648 108.177076,84.1566069 C109.123815,99.8172491 93.3964161,113.080699 70.8537092,115.95733 C64.0141263,116.828208 58.615893,116.467112 54.2979132,115.368652 C58.0939727,115.914848 62.6364996,115.914848 68.1105935,115.147139 Z" id="Shape" fill="#FAC8CA" fill-rule="nonzero"></path>
                                    <path d="M35.5725068,39.893521 C35.5725068,39.893521 20.8586037,25.7591922 7.81970059,22.3151254 C5.91244109,21.8095484 3.87841414,22.2468145 2.34742496,23.4915309 C0.816435769,24.7362473 -0.0267694237,26.6382127 0.0788949225,28.6085127 C0.455163014,35.1810666 6.61807023,50.5989551 17.1869554,60.7733657" id="Shape" fill="#FAC8CA" fill-rule="nonzero"></path>
                                    <path d="M32.0161664,42.7853234 C24.8822448,46.1687018 23.7413028,52.0554767 23.7413028,52.0554767 C23.7413028,52.0554767 9.20946499,35.8425702 8.03210999,30.1803423 C5.98994527,20.3943375 30.0862753,38.4430682 32.0161664,42.7853234 Z" id="Shape" fill="#FFFFFF" fill-rule="nonzero"></path>
                                    <path d="M93.7453744,68.4231387 C93.7453744,68.4231387 107.230337,68.4959648 108.177076,84.1566069 C109.123815,99.8172491 93.3964161,113.080699 70.8537092,115.95733 C48.3110023,118.83396 41.3318361,108.356107 37.4750882,101.835138 C32.1496809,92.8168419 34.8199706,82.921598 43.4073795,77.2836454 C48.9785748,73.6271692 59.7295252,70.4137183 72.1706476,68.9268525 C84.5025308,67.4521243 93.7453744,68.4231387 93.7453744,68.4231387 Z" id="Shape" fill="#FAC8CA" fill-rule="nonzero"></path>
                                    <path d="M97.0255826,80.6245419 C97.0255826,80.6245419 96.1456007,76.9346871 93.9426117,76.3763538 C91.7396228,75.8180205 92.7076028,78.4094153 93.6755828,78.6066526 C94.6435628,78.8038899 96.1061533,79.2560185 97.0255826,80.6245419 Z" id="Shape" fill="#000000" fill-rule="nonzero"></path>
                                    <path d="M60.1148965,83.7226849 C60.1148965,83.7226849 60.1422063,79.9296597 62.1661645,78.8949225 C64.1901227,77.8601852 63.8259923,80.6002666 62.9247695,81.0190166 C62.0235468,81.4377665 60.703574,82.1842339 60.1148965,83.7226849 Z" id="Shape" fill="#000000" fill-rule="nonzero"></path>
                                    <path d="M58.9405759,24.4210129 C59.12871,21.5716925 61.1314273,19.1714662 64.0050231,18.2247271 C67.4946062,17.0746819 73.1902127,16.7712399 80.639714,21.7446544 C93.5784813,30.3775796 92.5103655,45.3129953 92.5103655,45.3129953 C85.0638985,21.9358229 67.0849595,22.7187033 58.9405759,24.4210129 Z" id="Shape" fill="#B77EB4" fill-rule="nonzero"></path>
                                    <path d="M58.9405759,24.4210129 C67.0849595,22.7187033 85.0638985,21.9358229 92.5103655,45.3129953 C92.5103655,45.3129953 84.3022591,30.684056 69.2363633,31.0360487 C61.0768077,31.2241828 59.0649872,28.083558 58.919335,25.1614114 C58.9223694,24.912589 58.9254038,24.6637665 58.9405759,24.4210129 Z" id="Shape" fill="#B77EB4" fill-rule="nonzero"></path>
                                    <path d="M58.9405759,24.4210129 C67.0849595,22.7187033 85.0638985,21.9358229 92.5103655,45.3129953 C92.5103655,45.3129953 84.3022591,30.684056 69.2363633,31.0360487 C61.0768077,31.2241828 59.0649872,28.083558 58.919335,25.1614114 C58.9223694,24.912589 58.9254038,24.6637665 58.9405759,24.4210129 Z" id="Shape" fill="#B77EB4" fill-rule="nonzero" opacity="0.58" style="mix-blend-mode: multiply;"></path>
                                    <path d="M51.9462376,26.0535309 C51.9674786,22.8370456 54.3434295,20.3063393 57.7116358,19.6266292 C61.4864544,18.8649897 67.558329,19.213948 75.2141709,25.0885854 C81.5217472,29.8505696 85.5954606,36.9952023 86.4809727,44.848729 C86.5482706,45.5212748 86.1625649,46.1572327 85.5350519,46.4083786 C84.9075388,46.6595245 84.1895679,46.4652848 83.77427,45.932017 C80.1815166,41.1679774 73.1537997,34.0765377 62.6061554,33.1722805 C53.9034386,32.4258131 51.9310655,29.0211938 51.9462376,26.0535309 Z" id="Shape" fill="#B77EB4" fill-rule="nonzero"></path>
                                    <path d="M40.9646713,27.0730961 C39.0833308,24.949002 36.0307042,24.64556 33.3786211,26.1354603 C30.4200615,27.8195634 26.5754512,31.5792099 24.8822448,39.9420717 C23.4484696,46.7763828 24.8845256,53.8996154 28.8543007,59.6445614 C29.1969871,60.1359804 29.8250561,60.3389643 30.3905262,60.1410497 C30.9559963,59.9431352 31.3203989,59.3927863 31.2818368,58.7949238 C30.9116375,53.5332393 31.4881773,44.7152145 37.9848708,37.9970084 C43.3648976,32.468295 42.7003596,29.0394003 40.9646713,27.0730961 Z" id="Shape" fill="#B77EB4" fill-rule="nonzero"></path>
                                    <path d="M41.4076966,27.6405327 L37.4629505,37.9879052 L37.0684759,38.0789378 L37.1079234,38.9680229 C37.1079234,38.9680229 30.5141285,45.8197434 31.3030777,58.7949238 C31.3030777,58.7949238 31.3728694,59.6506302 30.7841919,58.6947879 C26.0444277,33.9855051 41.4076966,27.6405327 41.4076966,27.6405327 Z" id="Shape" fill="#B77EB4" fill-rule="nonzero" opacity="0.58" style="mix-blend-mode: multiply;"></path>
                                    <path d="M48.0045259,23.9506778 C45.9229137,22.0116834 42.8460118,22.0056145 40.369925,23.7625438 C37.5934306,25.728848 34.1341917,29.831384 33.2754508,38.3277602 C32.5171427,45.2689382 34.6457733,52.216613 39.1622258,57.5417083 C39.5496484,58.0044121 40.1992841,58.1497105 40.7469095,57.8961408 C41.2945349,57.642571 41.6039848,57.0531824 41.5017637,56.4584203 C40.615713,51.2604587 40.3213742,42.4272618 46.1292543,35.1021717 C50.9175692,29.0697445 49.9222794,25.7379513 48.0045259,23.9506778 Z" id="Shape" fill="#B77EB4" fill-rule="nonzero"></path>
                                    <path d="M48.4991364,24.4725981 L45.5982308,35.1537568 L45.2158938,35.2872713 L45.3433395,36.1642187 C45.3433395,36.1642187 39.4474612,43.6167545 41.5017637,56.4675236 C41.5017637,56.4675236 41.6534847,57.3141268 40.9737746,56.4189728 C33.8307496,32.2983675 48.4991364,24.4725981 48.4991364,24.4725981 Z" id="Shape" fill="#B77EB4" fill-rule="nonzero" opacity="0.58" style="mix-blend-mode: multiply;"></path>
                                    <path d="M53.0204223,22.2605058 C50.7446073,21.380524 48.2988647,22.3515384 46.8787561,24.5423897 C45.2917544,26.9911668 43.844336,31.3728694 45.8652597,38.4066552 C47.4720078,44.1769045 51.377335,49.0344295 56.6677953,51.8430673 C57.1237555,52.0898729 57.6886925,51.9991713 58.0444782,51.6220384 C58.400264,51.2449055 58.4579308,50.6756471 58.1850053,50.2348247 C55.8333298,46.3750423 52.7989097,39.4474612 55.0777592,31.7491375 C56.9712373,25.4132683 55.1172066,23.0615927 53.0204223,22.2605058 Z" id="Shape" fill="#B77EB4" fill-rule="nonzero"></path>
                                    <path d="M53.5787556,22.521466 L54.6681124,31.9524436 L54.4071523,32.1800251 L54.7864548,32.8384943 C54.7864548,32.8384943 52.4560202,40.6551604 58.1850053,50.2348247 C58.1850053,50.2348247 58.5764455,50.8599152 57.7510833,50.3622703 C44.3874972,33.4211029 53.5787556,22.521466 53.5787556,22.521466 Z" id="Shape" fill="#B77EB4" fill-rule="nonzero" opacity="0.58" style="mix-blend-mode: multiply;"></path>
                                    <path d="M72.3860914,37.502398 C72.3860914,37.502398 69.7127673,1.00439305 63.5498601,0.245788028 C58.2062463,-0.412681133 54.8259023,29.5552517 54.0126777,37.5145356 C53.8505625,39.077064 54.4583411,40.6208443 55.6421613,41.6534847 C56.9773061,42.8065643 59.1347788,43.9930226 62.4089181,44.053711 C68.8813362,44.1750878 72.8260823,42.4818813 72.3860914,37.502398 Z" id="Shape" fill="#FBB35A" fill-rule="nonzero"></path>
                                    <path d="M72.4407109,35.754572 C72.4407109,35.754572 60.9918439,40.3577873 54.9230037,29.6523532" id="Shape"></path>
                                    <path d="M56.6283478,18.1367289 C56.6283478,18.1367289 60.133103,28.4355507 71.3695607,27.1853696" id="Shape"></path>
                                    <path d="M58.2851412,12.5048452 C58.2851412,12.5048452 60.6792987,26.487453 70.2104122,26.9213751 C70.2104122,26.9213751 62.639534,28.7875434 57.0622699,19.5355966 L58.2851412,12.5048452 Z" id="Shape" fill="#D1D3D4" fill-rule="nonzero" style="mix-blend-mode: multiply;"></path>
                                    <path d="M56.8589638,20.6735041 C56.8589638,20.6735041 58.0120434,37.4386751 70.9690172,36.2067006 C70.9690172,36.2067006 59.9297969,39.2077421 55.141482,30.3745452 L56.8589638,20.6735041 Z" id="Shape" fill="#D1D3D4" fill-rule="nonzero" style="mix-blend-mode: multiply;"></path>
                                    <path d="M54.0794349,38.8739558 C54.0794349,38.8739558 55.502578,46.3538014 69.3516713,43.0917998 C69.3516713,43.0917998 57.4446068,43.8413015 55.2082392,31.5822444 L54.0794349,38.8739558 Z" id="Shape" fill="#D1D3D4" fill-rule="nonzero" style="mix-blend-mode: multiply;"></path>
                                    <path d="M68.9662999,19.9543466 C68.9662999,19.9543466 70.0222781,25.3556143 69.3668434,26.2720092 C68.7114087,27.1884041 68.2532112,20.1758592 68.2532112,20.1758592 C68.2532112,20.1758592 68.8540264,19.3413937 68.9662999,19.9543466 Z" id="Shape" fill="#FFFFFF" fill-rule="nonzero"></path>
                                    <path d="M69.6399412,28.7936123 C69.6399412,28.7936123 70.48351,35.0505865 69.1726405,34.9595539 C68.2623145,34.8958311 68.5202402,30.7113658 68.6052039,29.2244999 C68.6290932,28.8701488 68.894721,28.579343 69.2454666,28.5235489 C69.4427039,28.4841014 69.6187003,28.5235489 69.6399412,28.7936123 Z" id="Shape" fill="#FFFFFF" fill-rule="nonzero"></path>
                                    <path d="M69.3456025,37.8483219 C69.5368341,37.8082204 69.735893,37.8580688 69.8856563,37.9835622 C70.0354197,38.1090556 70.119331,38.2963206 70.1133107,38.4916189 C70.1466894,39.6173888 70.1133107,41.7991368 69.0846423,41.8082401 C68.0559739,41.8173433 68.7174775,39.2987747 68.9420246,38.2943816 C68.9824061,38.0886089 69.1292008,37.9198527 69.3273959,37.8513563 L69.3456025,37.8483219 Z" id="Shape" fill="#FFFFFF" fill-rule="nonzero"></path>
                                    <path d="M86.4172499,92.2767151 L68.1500409,93.9547494 C68.1500409,93.9547494 70.4106839,104.465981 78.4033464,103.731651 C86.396009,102.997321 86.4172499,92.2767151 86.4172499,92.2767151 Z" id="Shape" fill="#4E1E5D" fill-rule="nonzero"></path>
                                    <path d="M83.8440617,100.096416 C82.7304295,101.847276 81.0038445,103.29166 78.3214171,103.537448 C73.8668884,103.947095 71.3028034,100.645646 69.9524865,97.881289 C76.9923411,96.9436532 81.3528028,98.509414 83.8440617,100.096416 Z" id="Shape" fill="#BD2232" fill-rule="nonzero"></path>
                                    <path d="M82.5847773,92.7925665 C82.481607,93.7969596 81.5257647,94.6526661 80.2937902,94.7649396 L74.622459,95.280791 C73.3904844,95.3930646 72.2950588,94.7285266 72.0098233,93.763581 L82.5847773,92.7925665 Z" id="Shape" fill="#FFFFFF" fill-rule="nonzero"></path>
                                    <path d="M42.7367726,136.033053 C42.7367726,136.033053 44.1113649,129.499946 43.4923432,124.247365 C43.4923432,124.247365 47.1184752,123.176215 48.3716907,121.425355 C48.3716907,121.425355 46.2475967,136.536767 50.8963283,140.05366 C50.8963283,140.05366 45.4647163,138.518243 42.7367726,136.033053 Z" id="Shape" fill="#0097CA" fill-rule="nonzero"></path>
                                    <path d="M51.7732757,113.52069 C51.7732757,113.52069 56.1367718,125.464168 50.8963283,133.608551 L49.803937,133.608551 C49.803937,133.608551 55.3569258,126.556559 50.6566091,113.52069 L51.7732757,113.52069 Z" id="Shape" fill="#515254" fill-rule="nonzero"></path>
                                    <path d="M42.6487744,121.501215 C43.1494538,122.056514 41.489626,128.398452 43.6744084,133.608551 L44.5270805,132.859049 C44.5270805,132.859049 43.367932,129.879249 43.519653,122.372094 L42.6487744,121.501215 Z" id="Shape" fill="#515254" fill-rule="nonzero"></path>
                                    <path d="M53.1417991,133.608551 C53.1417991,133.608551 45.7742271,130.522546 40.5064739,133.053252 C40.5064739,133.053252 38.4764468,137.929565 38.7798888,142.156513 L49.803937,144.684185 C49.803937,144.684185 53.7577864,142.766431 53.1417991,133.608551 Z" id="Shape" fill="#515254" fill-rule="nonzero"></path>
                                    <path d="M53.1417991,133.608551 L49.803937,139.270779 L40.0543453,138.066114 C40.0543453,138.066114 39.8115917,135.377618 40.5186115,133.062356 C40.5064739,133.053252 44.9670714,130.722818 53.1417991,133.608551 Z" id="Shape" fill="#7E8083" fill-rule="nonzero"></path>
                                    <path d="M43.3922074,114.883145 C47.9438375,114.039576 48.893611,111.848725 50.0315185,110.732058 C50.0315185,110.732058 50.0315185,110.844332 50.0163464,111.0355 L50.1346888,110.641026 C50.5504044,110.883779 50.9327413,111.129567 51.2938373,111.381424 C54.2038462,109.38781 57.0895797,106.71752 58.6856847,103.328073 L58.6856847,103.309867 C58.7433386,103.185455 58.804027,103.061044 58.8677499,102.942702 C58.8889908,102.90022 58.9132662,102.860772 58.9345071,102.821325 C58.955748,102.781877 59.0225053,102.657466 59.0680216,102.581606 L59.1499509,102.445057 L59.2743622,102.238716 L59.3684292,102.102167 L59.4928404,101.920102 L59.5899418,101.789622 C59.6324237,101.735003 59.6718712,101.677349 59.7143531,101.625763 L59.8175234,101.501352 L59.944969,101.349631 C59.981382,101.310184 60.0147607,101.270736 60.0511737,101.234323 C60.0875867,101.19791 60.1361375,101.137222 60.1816538,101.09474 L60.2908929,100.988535 C60.3333748,100.943019 60.3788911,100.900537 60.4244074,100.858055 L60.5336465,100.760954 L60.6701954,100.645646 L60.7824689,100.557648 C60.8279852,100.521235 60.8735015,100.484821 60.9220523,100.451443 L61.0343258,100.369514 L61.1769436,100.275446 L61.2922515,100.205655 L61.4348693,100.120691 L61.5532116,100.056968 L61.6958294,99.9841422 L61.8141718,99.9295226 L61.9598239,99.8657998 L62.0781663,99.8202835 L62.2238185,99.7686983 L62.3451953,99.7292509 L62.4908475,99.686769 L62.6122243,99.6564248 L62.7578764,99.6230462 L62.8792532,99.5987708 L63.0249054,99.5775299 L63.1462822,99.5593233 L63.2888999,99.5593233 L63.4133112,99.5593233 L63.8138546,99.5593233 L63.9443347,99.5593233 L64.0687459,99.5593233 L64.2052948,99.5593233 L64.3175684,99.5775299 L64.4632205,99.6018052 L64.5542531,99.6230462 L64.7181118,99.6624936 L64.7636281,99.6624936 C65.2415971,99.7907193 65.6955834,99.9956793 66.1078762,100.269378 L66.3051135,100.411995 L66.3202856,100.411995 C66.3840084,100.460546 66.4477313,100.509097 66.5084197,100.560682 L66.5266262,100.575854 L66.705657,100.736678 L66.7208291,100.736678 C66.7815175,100.791298 66.836137,100.848952 66.893791,100.90964 L66.9089631,100.924812 C66.9666171,100.982466 67.0212367,101.046189 67.0728218,101.106878 L67.0728218,101.12205 C67.1274414,101.185773 67.1790265,101.25253 67.2306116,101.319287 C67.2821968,101.389079 67.3337819,101.455836 67.3823326,101.528662 C67.4339178,101.601488 67.4794341,101.674314 67.5249504,101.74714 C67.5704667,101.826035 67.615983,101.901896 67.6584649,101.980791 C68.7083742,103.94406 68.6476858,106.835863 66.2929758,109.979522 C66.0502222,110.30117 65.7862277,110.625853 65.4949233,110.953571 C62.7691807,113.945167 59.5195096,116.413271 55.9061558,118.236179 C55.95648,118.603168 55.9666548,118.974549 55.9365,119.343742 C55.9365,119.343742 49.7644896,122.894014 46.3780767,122.866704 C45.2406404,122.84935 44.1537294,122.393934 43.3436566,121.595282 C42.890215,121.153765 42.4834775,120.666697 42.1298886,120.141795 C40.9464648,118.36059 41.2832854,115.271551 43.3922074,114.883145 Z" id="Shape" fill="#FAC8CA" fill-rule="nonzero" opacity="0.39" style="mix-blend-mode: multiply;"></path>
                                    <path d="M55.4570617,121.246324 C55.4570617,121.246324 56.8134475,116.37608 50.9782576,111.66666 L47.9438375,118.136043 L55.4570617,121.246324 Z" id="Shape" fill="#1F77B9" fill-rule="nonzero"></path>
                                    <path d="M42.3938832,115.723679 C42.3938832,115.723679 55.2203769,113.617792 60.5002679,105.710093 C65.7801588,97.8023941 75.2323774,106.811587 66.1503581,114.367293 C57.0683387,121.922999 45.3524428,122.174856 45.3524428,122.174856" id="Shape" fill="#FAC8CA" fill-rule="nonzero"></path>
                                    <path d="M43.6683396,114.867973 C48.3049335,114.707148 49.558149,112.674087 50.8477775,111.745554 C50.8477775,111.745554 49.2122251,118.3879 55.4570617,121.246324 C55.4570617,121.246324 48.7813375,123.737583 45.4434754,123.203525 C44.3278074,123.016193 43.3270534,122.406613 42.6487744,121.501215 C42.260418,120.99796 41.9267726,120.454769 41.6534847,119.880835 C40.7401242,117.944875 41.5290734,114.940799 43.6683396,114.867973 Z" id="Shape" fill="#00AFEC" fill-rule="nonzero"></path>
                                    <path d="M67.0819251,113.52069 C74.5314264,106.174359 65.585956,98.0815608 60.5002679,105.704024 C60.4456483,105.785953 60.3879943,105.870917 60.3273059,105.952846 C60.8674327,108.632239 62.4787098,112.094513 67.0819251,113.52069 Z" id="Shape" fill="#5F2B70" fill-rule="nonzero"></path>
                                    <path d="M26.4540744,31.4760397 C26.3261444,31.2181591 26.2116938,30.9538085 26.1111849,30.684056 C25.4161116,29.7463921 24.9016153,28.6875586 24.5939749,27.5616377 C24.2905329,26.2113208 24.7578336,24.4604604 26.4146269,24.4513571 C28.1472808,24.4513571 29.0363659,26.7393099 29.4915289,28.0926612 L29.8708314,29.2214655 C30.3684763,27.1216468 32.0495451,23.4560673 34.7896264,23.9628155 C35.3885647,24.033681 35.9291395,24.3558194 36.2764922,24.8488662 C37.0995757,25.2720476 37.5610644,26.1730492 37.423503,27.0882682 C37.293023,28.3475525 36.1854596,29.5613206 35.5118184,30.5414383 C35.0050702,31.2818368 34.5013565,32.0222353 33.9946083,32.7565649 C34.8638731,31.9564401 35.8607595,31.3072332 36.9440647,30.835777 C39.0833308,29.9102789 42.4060208,29.4308405 44.4117725,30.9419817 C45.8895351,32.0616827 45.9107761,33.9946083 44.1356403,34.8412115 C42.8065643,35.4754053 41.1467365,35.1143093 39.7418,35.3085122 C38.4072286,35.468259 37.1293529,35.9413538 36.0124977,36.6891734 C40.3942003,35.639264 45.9775333,37.5994994 46.4084209,42.3301603 C46.6602778,45.0611384 44.0385389,46.3568358 41.7323796,45.1552054 C40.2606858,44.3874972 39.4869087,42.8824248 38.2427965,41.8567908 C36.5526245,40.4670264 34.3830141,40.6430228 32.3924345,40.1180681 L32.2710577,40.1575155 C35.9123618,40.7643996 42.6730498,46.0958757 40.0937927,50.2135837 C37.6389469,54.1340545 34.8017641,49.0483664 33.09642,45.2158938 C33.703304,49.2698791 33.4241374,53.8548879 30.2804781,53.0295256 C27.9530779,52.4226416 27.5070182,49.673457 27.7467374,47.6525332 C27.8650797,46.6511746 28.0137663,45.6437471 28.2231413,44.6545261 C27.7922537,45.3372707 27.361366,45.9957398 26.9699258,46.6056583 C26.0595998,48.0075603 24.3087394,49.4398066 22.5973265,48.3261744 C19.3808412,46.2263557 22.6367739,42.5607763 25.6651252,39.9572438 C25.0040684,40.1829012 24.3302666,40.3693366 23.6472358,40.5155771 C22.1907142,40.8190191 18.6495459,41.6716912 17.8211492,39.8510391 C16.6802073,37.3537114 20.2486853,36.3644904 23.6836488,35.906293 C21.2227342,35.4207858 19.0804336,34.179708 19.1047089,31.7339654 C19.1168466,28.4992735 23.3650347,29.9193821 26.4540744,31.4760397 Z" id="Shape" fill="#99D8E2" fill-rule="nonzero"></path>
                                    <path d="M31.8826519,31.7400342 C32.0538816,31.7608035 32.1948591,31.8844402 32.2377969,32.0514951 C32.2807347,32.2185499 32.2168475,32.3948426 32.0768548,32.4956048 C32.0768548,32.4956048 32.1011302,32.4956048 32.1132679,32.4956048 C32.2734127,32.6008294 32.3822285,32.7682575 32.4133568,32.9573332 C32.4444851,33.1464088 32.3950864,33.3398845 32.2771266,33.4908946 C31.9736846,33.8641283 31.4365922,33.7943366 31.0997716,33.5273076 C30.7487944,33.2393116 30.632166,32.7530402 30.8143277,32.337175 C30.9964894,31.9213098 31.4329916,31.6773265 31.8826519,31.7400342 Z" id="Shape" fill="#FCBA6B" fill-rule="nonzero"></path>
                                    <path d="M28.0228696,33.075179 C28.1636169,33.1260454 28.2657956,33.2491243 28.2898986,33.3968276 C28.2894863,33.4508341 28.2792024,33.5043101 28.2595544,33.5546174 C28.6319473,33.7048419 28.8554137,34.0881055 28.8027156,34.4861844 C28.7521255,34.7406361 28.5953728,34.9614146 28.3718279,35.0930684 C28.5315085,35.0683981 28.6936949,35.1182005 28.8120117,35.2282352 C28.9303286,35.3382699 28.9917495,35.4964223 28.9787119,35.6574705 C29.05092,35.6578212 29.1222502,35.6733278 29.1880869,35.7029868 C29.0482429,35.4950584 28.9560273,35.2588209 28.9180235,35.0111391 C28.9019016,34.8369426 29.0266909,34.6812914 29.2002246,34.6591463 C29.1547083,34.5347351 29.1061576,34.4072895 29.0727789,34.2768094 C29.0394003,34.1463293 29.1516739,34.0644 29.2700162,34.0704688 C29.4854601,33.4635848 30.1166195,33.3573801 30.6688839,33.6638565 C30.7979149,33.7419087 30.876752,33.881737 30.876752,34.0325386 C30.876752,34.1833402 30.7979149,34.3231685 30.6688839,34.4012206 C30.7665228,34.5039399 30.8301013,34.6342759 30.8509491,34.7744543 C30.9103469,35.0901364 30.713468,35.3974272 30.4018549,35.4754053 C30.5414383,35.7302966 30.6779872,35.9882223 30.8145361,36.2491825 C30.951085,36.5101426 31.1179781,36.8044813 31.254527,37.0866824 C31.4235794,36.744466 31.5460445,36.3811529 31.6186574,36.0064289 C31.6621528,35.704878 31.6854685,35.4007598 31.6884491,35.0961028 C31.6476035,34.7824697 31.6619811,34.4641072 31.7309309,34.1554326 C31.7618323,34.0792984 31.8300085,34.0246379 31.9110401,34.0110295 C31.9920718,33.9974212 32.0743635,34.0268122 32.12844,34.0886754 C32.5320178,34.4892188 32.4925704,35.2720992 32.3802968,35.8607767 C32.4822178,36.3217658 32.5088605,36.7962115 32.4591918,37.2657132 C32.4591918,37.3537114 32.4379508,37.4386751 32.4258131,37.5266733 C32.6811157,37.2035726 32.9133188,36.8628728 33.1206953,36.5071082 C33.3359699,36.0837928 33.5234882,35.646926 33.6820631,35.1992731 C33.2966917,34.8958311 33.1085577,34.2677061 33.4635848,33.8823348 C33.5530255,33.7677303 33.7041456,33.7205808 33.8428873,33.7639924 C34.0826065,33.8368185 34.0340558,34.0674344 34.027987,34.2616373 C34.0239152,34.3377276 34.0342093,34.4139041 34.0583312,34.4861844 C34.0765377,34.461909 34.0856409,34.4345992 34.1038475,34.4133583 C34.1675193,34.3270849 34.2761999,34.2866516 34.3807778,34.3103296 C34.4853557,34.3340076 34.5660203,34.4173116 34.5863203,34.5225974 C34.587829,34.5387458 34.587829,34.5549997 34.5863203,34.5711482 C34.7194985,34.4629302 34.7909711,34.2961609 34.7774887,34.1250884 C34.7760089,34.1093428 34.7848619,34.0944422 34.7993982,34.0882123 C34.8139345,34.0819825 34.8308301,34.085848 34.8412115,34.0977786 C34.9923969,34.2877517 35.0484879,34.5363949 34.9935058,34.7728769 C34.9385238,35.009359 34.7784962,35.2077546 34.5590105,35.3115467 C34.3370795,36.2070653 33.880392,37.0272172 33.2360033,37.6874976 C33.3209671,37.6874976 33.4028964,37.6571534 33.493929,37.6480501 C34.0856409,37.5812929 34.9474162,37.6480501 35.4693365,38.0000429 C35.8061571,37.5873617 36.476764,37.3931588 36.5768998,37.9605954 C36.5932881,38.0660857 36.5214556,38.1650248 36.4160756,38.1821081 C36.3523527,38.1821081 36.2643546,38.1821081 36.2067006,38.1821081 C36.0367731,38.1274885 35.9609126,38.1821081 35.9791191,38.3520356 C35.9409481,38.3991868 35.9297515,38.4626725 35.9494897,38.5200368 C35.969228,38.577401 36.0171181,38.6205559 36.0762205,38.6342367 C36.325043,38.8800247 36.9258581,38.6949251 37.1928871,38.5735483 C37.2748165,38.5341008 37.3355049,38.6312022 37.2960574,38.6979595 C37.047235,39.1470537 36.6891734,39.4535301 36.1581499,39.3867728 C35.770043,39.3397678 35.4450868,39.0705523 35.3267188,38.6979595 C34.8004089,38.8557851 34.2555871,38.9435279 33.7063384,38.9589196 L33.0053874,39.0287113 C33.6287058,39.3700725 34.1104914,39.92176 34.3648076,40.5853688 C34.4572448,40.6706944 34.5053524,40.7937604 34.4952877,40.919155 C34.5347351,41.034463 34.5681137,41.1467365 34.5954235,41.2620445 C34.9239583,41.4354787 35.0869863,41.8146136 34.9868637,42.1723705 C34.8533492,42.724635 34.2009489,42.9067002 33.7154417,42.7094628 C33.2394052,42.5090659 32.9423296,42.0293618 32.9750432,41.5139013 C32.9897812,41.4268299 33.0131607,41.3414442 33.0448348,41.25901 C32.8727504,40.8215203 32.6263732,40.4170511 32.316574,40.0634485 C32.316574,40.139309 32.316574,40.2151695 32.316574,40.29103 C32.316574,41.070876 32.013132,41.5563832 31.4760397,42.0783035 C31.4018843,42.1538271 31.2842587,42.165334 31.196873,42.1056133 C31.2151983,42.3524845 31.1778674,42.6003204 31.0876339,42.8308397 C31.0049529,43.030505 30.8022168,43.1533753 30.5869546,43.1342817 C29.506701,43.0220081 29.1638115,41.5321079 30.2440651,41.107289 C30.3637608,41.0505217 30.5029162,41.0519689 30.6214054,41.1112135 C30.7398945,41.1704581 30.8245456,41.280914 30.8509491,41.410731 C30.9153968,41.3931408 30.9843726,41.4078406 31.0360487,41.4501785 C31.0187166,41.3082355 31.0106078,41.1653178 31.0117734,41.0223253 C31.0117734,40.7401242 31.0663929,40.4579231 31.0906683,40.1726876 C31.1210125,39.799454 31.0906683,39.4231859 31.1301158,39.0529866 C31.0980004,39.0758879 31.0602142,39.0895329 31.0208766,39.0924341 C30.6628151,39.0742276 30.2683405,39.0924341 29.8708314,39.0742276 C29.8196235,39.2717227 29.6377456,39.4068681 29.4338749,39.3989105 C29.5220929,39.8358231 29.3248217,40.280816 28.9418308,40.5088356 C28.5588398,40.7368552 28.0736183,40.6981948 27.7315653,40.4124068 C27.1948581,39.9636332 27.0659755,39.1903376 27.4281232,38.5917548 C27.9409402,37.8604595 29.0363659,37.9514921 29.6705597,38.449137 C30.1499981,38.506791 30.6324709,38.600858 31.0663929,38.6463743 C31.1193579,38.6529003 31.1680159,38.6788513 31.2029418,38.7192004 C31.2029418,38.6918906 31.2029418,38.6645809 31.2211484,38.6342367 C31.2368841,38.5895789 31.2667019,38.5512418 31.3061121,38.5249975 C31.1981641,38.3936198 31.096889,38.2568983 31.0026701,38.1153508 C30.9546386,38.1165137 30.909385,38.0928925 30.8828765,38.0528215 C30.856368,38.0127505 30.852331,37.9618628 30.8721901,37.9181135 C30.8712622,37.9100483 30.8712622,37.9019033 30.8721901,37.8938382 C30.2772533,37.9267021 29.6806496,37.9124972 29.087951,37.8513563 C28.7028652,37.8276759 28.3197228,37.7790228 27.9409402,37.7057041 C27.9330682,37.8018813 27.9040563,37.8951338 27.8559765,37.9788019 C27.4159856,38.7434758 26.1415291,38.6129957 25.916982,37.7421172 C25.7440201,37.0715103 26.3660762,36.2249071 27.0761305,36.628485 C27.1758549,36.6978571 27.2366777,36.8104919 27.2399892,36.931927 C27.2543983,36.9179224 27.2695951,36.9047519 27.2855055,36.8924795 C27.446092,36.8019307 27.6239009,36.746107 27.8074258,36.7286208 C27.4737008,36.2534825 27.5726055,35.5999097 28.0319728,35.2447894 C27.839762,35.3009263 27.6355062,35.3009263 27.4432953,35.2447894 C26.8836994,35.0620049 26.5541847,34.4843696 26.6816559,33.9096446 C26.8424802,33.3209671 27.4675707,32.8324254 28.0228696,33.075179 Z" id="Shape" fill="#FCBA6B" fill-rule="nonzero"></path>
                                    <path d="M28.8269909,36.4130412 C29.7373169,36.3918002 30.6172988,37.3233672 31.0724618,38.2124523 C31.5154871,38.3793454 32.186094,38.6099613 32.3590559,39.0651243 C32.368188,39.0865993 32.3659827,39.1112175 32.3531793,39.1307276 C32.3403758,39.1502376 32.3186685,39.1620576 32.2953331,39.1622258 C32.5987751,39.5567004 32.6291193,40.102896 32.6898077,40.5823344 C32.7595994,41.1528053 32.9173892,41.8385843 32.4258131,42.2603687 C32.4258131,42.2603687 32.4015378,42.2603687 32.3924345,42.2603687 C32.8674296,42.3217807 33.232434,42.7109491 33.2633131,43.1889012 C33.278656,43.4380165 33.1889412,43.6821676 33.0159501,43.8620784 C32.8429589,44.0419892 32.6025123,44.1412059 32.3529871,44.1356403 C31.9270999,44.1236651 31.5814704,43.78727 31.557969,43.3618632 C31.6301453,43.0385176 31.8248334,42.7557304 32.1011302,42.5729139 C32.080297,42.4931245 32.0970606,42.408189 32.1466465,42.342298 C32.0799407,42.3391451 32.014715,42.3215445 31.955478,42.2907129 C31.4153513,41.9872709 31.4578331,41.2468724 31.4244545,40.7037112 C31.3660207,40.3012317 31.3660207,39.8924226 31.4244545,39.4899431 C31.2871336,39.7978373 31.1183306,40.0907003 30.9207408,40.3638561 C30.6453245,40.7239658 30.3408638,41.0609023 30.0104147,41.3712836 C30.0304112,41.4420707 30.009356,41.5181035 29.9557952,41.5685209 C29.8648716,41.6479894 29.7625979,41.7134446 29.6523532,41.7627238 C29.6996599,42.0739907 29.6158884,42.3909463 29.4209667,42.6381922 C29.2260449,42.885438 28.937396,43.040874 28.6236848,43.0675244 C28.4011033,43.0988301 28.1935073,42.9488253 28.1533496,42.7276694 C28.0873904,42.1993613 28.2998245,41.6745917 28.7147174,41.3409394 C28.9695502,41.1125725 29.3089395,41.0023811 29.6493188,41.0374974 C29.8542961,40.661798 30.0897474,40.3035466 30.3533042,39.9663471 C30.6867078,39.5704414 31.0644344,39.2140955 31.4790741,38.9043 L31.3061121,38.810233 C31.3052922,38.8243818 31.3052922,38.8385661 31.3061121,38.8527149 C31.3303875,38.9528508 31.1938386,38.9953327 31.1331502,38.9285754 L30.8115017,38.5826515 C30.3199256,38.4066552 29.8071086,38.2792095 29.2942916,38.145695 C29.3730089,38.2598561 29.4201193,38.3928122 29.4308405,38.5310664 C29.5366915,38.6140425 29.6036523,38.7369868 29.6159401,38.8709214 C29.6305142,39.2118559 29.4789614,39.5387123 29.2093278,39.7478688 C28.9302039,39.948904 28.5788873,40.0220633 28.2427173,39.949159 C27.9065473,39.8762546 27.6170986,39.6641342 27.4463298,39.3655319 C27.2929374,39.0770951 27.2716554,38.7364474 27.3879548,38.4311616 C27.5042542,38.1258757 27.7467907,37.8857304 28.0532138,37.7724614 C28.4255888,37.6648023 28.8269886,37.7414741 29.1334673,37.9788019 C29.1408083,37.9319012 29.1775992,37.8951102 29.2244999,37.8877693 C29.5287344,37.8622445 29.8350323,37.8785804 30.134826,37.93632 C30.0255868,37.8331498 29.9224166,37.7239106 29.810143,37.632878 C29.412634,37.329436 28.899817,37.1321987 28.596375,36.7377241 C28.5464105,36.6643233 28.5473745,36.5675888 28.598792,36.4951984 C28.6502095,36.422808 28.7412296,36.3900385 28.8269909,36.4130412 Z" id="Shape" fill="#FCBA6B" fill-rule="nonzero" style="mix-blend-mode: multiply;"></path>
                                    <path d="M35.4238202,36.4130412 C35.5745182,35.9504877 35.9378835,35.5882508 36.4009035,35.4389923 C36.6208114,35.3500407 36.8727092,35.4352801 36.9934139,35.6394914 C37.1141187,35.8437027 37.0673377,36.1054846 36.8833763,36.2552513 C36.9578386,36.4146338 36.9594774,36.5984847 36.887868,36.7591692 C36.8162586,36.9198538 36.6784481,37.0415588 36.5101426,37.0927513 C36.5572161,37.2100821 36.5037714,37.343694 36.3887658,37.3961933 C35.754572,37.6389469 35.0384488,37.5266733 34.3799797,37.7330139 C33.6638565,37.9545266 32.9841464,38.35507 32.2346447,38.449137 C32.1919478,38.454263 32.1500742,38.4345503 32.1268197,38.3983767 C32.1035653,38.3622032 32.1030161,38.3159247 32.1254056,38.2792095 C32.583603,37.4204686 34.2130866,36.3159397 35.4238202,36.4130412 Z" id="Shape" fill="#FCBA6B" fill-rule="nonzero" style="mix-blend-mode: multiply;"></path>
                                    <path d="M30.5050252,33.6031681 C30.5607868,33.6288982 30.6004804,33.6802244 30.6113597,33.7406647 C30.6222389,33.801105 30.6029342,33.8630509 30.5596448,33.9066102 C30.5324202,33.9394898 30.4995355,33.9672362 30.4625433,33.9885395 C30.3715107,34.0310214 30.4230959,34.0826065 30.6112299,34.1372261 C30.705297,33.8519906 31.1331502,34.0128149 31.045152,34.2950159 C31.0090426,34.401968 30.946402,34.4980169 30.8630868,34.5741826 C31.7734128,35.3236843 32.1800251,37.198956 31.3394908,38.0212838 C31.3158976,38.0400241 31.2851201,38.0471446 31.2556935,38.0406708 C31.2262668,38.0341969 31.2013195,38.0148169 31.1877697,37.9879052 C30.9996357,37.4417096 31.0694274,36.8712386 30.9419817,36.3068364 C30.8145361,35.7424343 30.532335,35.2903057 30.3624075,34.765351 C30.1827943,34.7603309 30.0171396,34.6672919 29.9193821,34.5165286 C29.6705597,34.1463293 29.9982771,33.3786211 30.5050252,33.6031681 Z" id="Shape" fill="#FCBA6B" fill-rule="nonzero" style="mix-blend-mode: multiply;"></path>
                                    <path d="M28.7632681,35.7788474 C28.843334,35.9005426 28.8544028,36.0551027 28.7924955,36.1869654 C28.7305881,36.3188281 28.6046015,36.4090429 28.4598261,36.4251788 C28.292933,36.8651697 27.6617736,37.0745447 27.4129511,36.4464198 C27.0639928,35.5937477 28.2777609,35.0384488 28.7632681,35.7788474 Z" id="Shape" fill="#FCBA6B" fill-rule="nonzero" style="mix-blend-mode: multiply;"></path>
                                </g>
                            </g>
                        </g>
                    </g>
                </g>
            </g>
        </g>
    </g>
</svg>