<?xml version="1.0" encoding="UTF-8"?>
<svg width="22px" height="22px" viewBox="0 0 22 22" version="1.1" xmlns="http://www.w3.org/2000/svg" xmlns:xlink="http://www.w3.org/1999/xlink">
    <!-- Generator: Sketch 51.1 (57501) - http://www.bohemiancoding.com/sketch -->
    <title>add</title>
    <desc>Created with Sketch.</desc>
    <defs></defs>
    <g id="MES-CLASSES" stroke="none" stroke-width="1" fill="none" fill-rule="evenodd">
        <g id="Mes-classes-(≥768px)" transform="translate(-731.000000, -80.000000)" fill="#FFFFFF" stroke="#FFFFFF" stroke-width="0.5">
            <g id="Navbar" transform="translate(0.000000, 49.000000)">
                <g id="icon_add" transform="translate(732.000000, 32.000000)">
                    <path d="M11.25,8.75 L19,8.75 C19.6903559,8.75 20.25,9.30964406 20.25,10 C20.25,10.6903559 19.6903559,11.25 19,11.25 L11.25,11.25 L11.25,19 C11.25,19.6903559 10.6903559,20.25 10,20.25 C9.30964406,20.25 8.75,19.6903559 8.75,19 L8.75,11.25 L1,11.25 C0.309644063,11.25 -0.25,10.6903559 -0.25,10 C-0.25,9.30964406 0.309644063,8.75 1,8.75 L8.75,8.75 L8.75,1 C8.75,0.309644063 9.30964406,-0.25 10,-0.25 C10.6903559,-0.25 11.25,0.309644063 11.25,1 L11.25,8.75 Z" id="add"></path>
                </g>
            </g>
        </g>
    </g>
</svg>