<?xml version="1.0" encoding="UTF-8"?>
<svg width="19px" height="17px" viewBox="0 0 19 17" version="1.1" xmlns="http://www.w3.org/2000/svg" xmlns:xlink="http://www.w3.org/1999/xlink">
    <!-- Generator: Sketch 51.1 (57501) - http://www.bohemiancoding.com/sketch -->
    <title>previous</title>
    <desc>Created with Sketch.</desc>
    <defs></defs>
    <g id="TIMELINE" stroke="none" stroke-width="1" fill="none" fill-rule="evenodd">
        <g id="Timeline-(&lt;576px)" transform="translate(-16.000000, -83.000000)" fill="#FFFFFF" fill-rule="nonzero">
            <g id="Navbar" transform="translate(0.000000, 49.000000)">
                <g id="previous_arrow" transform="translate(16.000000, 34.000000)">
                    <g id="previous" transform="translate(9.500000, 8.500000) rotate(-180.000000) translate(-9.500000, -8.500000) ">
                        <path d="M0.95,9.44444444 C0.428397736,9.44444444 0.00555555556,9.02160226 0.00555555556,8.5 C0.00555555556,7.97839774 0.428397736,7.55555556 0.95,7.55555556 L16.15,7.55555556 C16.6716023,7.55555556 17.0944444,7.97839774 17.0944444,8.5 C17.0944444,9.02160226 16.6716023,9.44444444 16.15,9.44444444 L0.95,9.44444444 Z" id="Line"></path>
                        <path d="M11.1158618,16.7253342 C10.7459533,17.0930795 10.1479667,17.0913259 9.78022138,16.7214173 C9.41247608,16.3515088 9.4142297,15.7535222 9.78413822,15.3857769 L17.3841382,7.83022138 C17.7540467,7.46247608 18.3520333,7.4642297 18.7197786,7.83413822 C19.0875239,8.20404673 19.0857703,8.80203331 18.7158618,9.16977862 L11.1158618,16.7253342 Z" id="Line-Copy-2"></path>
                        <path d="M9.78413822,1.61422306 C9.4142297,1.24647775 9.41247608,0.648491178 9.78022138,0.278582662 C10.1479667,-0.0913258538 10.7459533,-0.0930794801 11.1158618,0.274665828 L18.7158618,7.83022138 C19.0857703,8.19796669 19.0875239,8.79595327 18.7197786,9.16586178 C18.3520333,9.5357703 17.7540467,9.53752392 17.3841382,9.16977862 L9.78413822,1.61422306 Z" id="Line-Copy"></path>
                    </g>
                </g>
            </g>
        </g>
    </g>
</svg>