<?xml version="1.0" encoding="UTF-8"?>
<svg width="9px" height="5px" viewBox="0 0 9 5" version="1.1" xmlns="http://www.w3.org/2000/svg" xmlns:xlink="http://www.w3.org/1999/xlink">
    <!-- Generator: Sketch 51.1 (57501) - http://www.bohemiancoding.com/sketch -->
    <title>Combined Shape</title>
    <desc>Created with Sketch.</desc>
    <defs></defs>
    <g id="TIMELINE" stroke="none" stroke-width="1" fill="none" fill-rule="evenodd">
        <g id="Timeline-(≥992px)" transform="translate(-985.000000, -40.000000)" fill="#FFFFFF" fill-rule="nonzero">
            <g id="Nav">
                <g id="settings" transform="translate(823.000000, 26.000000)">
                    <g id="field_arrow" transform="translate(166.500000, 16.500000) rotate(-270.000000) translate(-166.500000, -16.500000) translate(164.000000, 12.000000)">
                        <g id="arrow" transform="translate(0.000000, -0.000000)">
                            <path d="M3.70580845,4.359052 L0.161030933,0.912740522 C-0.0494715845,0.708085297 -0.0542117514,0.37153345 0.150443474,0.161030933 C0.355098699,-0.0494715845 0.691650546,-0.0542117514 0.902153063,0.150443474 L4.83724501,3.97622731 C4.84139924,3.98023448 4.84550374,3.98432236 4.84955653,3.98849094 C5.05421175,4.19899345 5.04947158,4.5355453 4.83896907,4.74020053 C4.83839725,4.74076276 4.83782161,4.7413205 4.83724501,4.74187669 L0.902153063,8.56766053 C0.691650546,8.77231575 0.355098699,8.76757559 0.150443474,8.55707307 C-0.0542117514,8.34657055 -0.0494715845,8.01001871 0.161030933,7.80536348 L3.70580845,4.359052 Z" id="Combined-Shape"></path>
                        </g>
                    </g>
                </g>
            </g>
        </g>
    </g>
</svg>