<?xml version="1.0" encoding="UTF-8" standalone="no"?>
<svg
   xmlns:dc="http://purl.org/dc/elements/1.1/"
   xmlns:cc="http://creativecommons.org/ns#"
   xmlns:rdf="http://www.w3.org/1999/02/22-rdf-syntax-ns#"
   xmlns:svg="http://www.w3.org/2000/svg"
   xmlns="http://www.w3.org/2000/svg"
   xmlns:sodipodi="http://sodipodi.sourceforge.net/DTD/sodipodi-0.dtd"
   xmlns:inkscape="http://www.inkscape.org/namespaces/inkscape"
   width="19px"
   height="17px"
   viewBox="0 0 19 17"
   version="1.1"
   id="svg16"
   sodipodi:docname="arrow-back-black.svg"
   inkscape:version="0.92.3 (2405546, 2018-03-11)">
  <metadata
     id="metadata20">
    <rdf:RDF>
      <cc:Work
         rdf:about="">
        <dc:format>image/svg+xml</dc:format>
        <dc:type
           rdf:resource="http://purl.org/dc/dcmitype/StillImage" />
        <dc:title>previous</dc:title>
      </cc:Work>
    </rdf:RDF>
  </metadata>
  <sodipodi:namedview
     pagecolor="#ffffff"
     bordercolor="#666666"
     borderopacity="1"
     objecttolerance="10"
     gridtolerance="10"
     guidetolerance="10"
     inkscape:pageopacity="0"
     inkscape:pageshadow="2"
     inkscape:window-width="1920"
     inkscape:window-height="1001"
     id="namedview18"
     showgrid="false"
     inkscape:zoom="13.882353"
     inkscape:cx="9.5"
     inkscape:cy="8.5"
     inkscape:window-x="-9"
     inkscape:window-y="-9"
     inkscape:window-maximized="1"
     inkscape:current-layer="TIMELINE" />
  <!-- Generator: Sketch 51.1 (57501) - http://www.bohemiancoding.com/sketch -->
  <title
     id="title2">previous</title>
  <desc
     id="desc4">Created with Sketch.</desc>
  <defs
     id="defs6" />
  <g
     id="TIMELINE"
     stroke="none"
     stroke-width="1"
     fill="none"
     fill-rule="evenodd">
    <g
       id="Timeline-(&lt;576px)"
       transform="translate(-16.000000, -83.000000)"
       fill="#FFFFFF"
       fill-rule="nonzero">
      <g
         id="Navbar"
         transform="translate(0.000000, 49.000000)">
        <g
           id="previous_arrow"
           transform="translate(16.000000, 34.000000)">
          <g
             id="previous"
             transform="translate(9.500000, 8.500000) rotate(-180.000000) translate(-9.500000, -8.500000) ">
            <path
               d="M0.95,9.44444444 C0.428397736,9.44444444 0.00555555556,9.02160226 0.00555555556,8.5 C0.00555555556,7.97839774 0.428397736,7.55555556 0.95,7.55555556 L16.15,7.55555556 C16.6716023,7.55555556 17.0944444,7.97839774 17.0944444,8.5 C17.0944444,9.02160226 16.6716023,9.44444444 16.15,9.44444444 L0.95,9.44444444 Z"
               id="Line"
               style="fill:#000000" />
            <path
               d="M11.1158618,16.7253342 C10.7459533,17.0930795 10.1479667,17.0913259 9.78022138,16.7214173 C9.41247608,16.3515088 9.4142297,15.7535222 9.78413822,15.3857769 L17.3841382,7.83022138 C17.7540467,7.46247608 18.3520333,7.4642297 18.7197786,7.83413822 C19.0875239,8.20404673 19.0857703,8.80203331 18.7158618,9.16977862 L11.1158618,16.7253342 Z"
               id="Line-Copy-2"
               style="fill:#000000" />
            <path
               d="M9.78413822,1.61422306 C9.4142297,1.24647775 9.41247608,0.648491178 9.78022138,0.278582662 C10.1479667,-0.0913258538 10.7459533,-0.0930794801 11.1158618,0.274665828 L18.7158618,7.83022138 C19.0857703,8.19796669 19.0875239,8.79595327 18.7197786,9.16586178 C18.3520333,9.5357703 17.7540467,9.53752392 17.3841382,9.16977862 L9.78413822,1.61422306 Z"
               id="Line-Copy"
               style="fill:#000000" />
          </g>
        </g>
      </g>
    </g>
  </g>
</svg>
