<?xml version="1.0" encoding="UTF-8"?>
<svg width="10px" height="9px" viewBox="0 0 10 9" version="1.1" xmlns="http://www.w3.org/2000/svg" xmlns:xlink="http://www.w3.org/1999/xlink">
    <!-- Generator: Sketch 50.2 (55047) - http://www.bohemiancoding.com/sketch -->
    <title>Arrow</title>
    <desc>Created with Sketch.</desc>
    <defs></defs>
    <g id="👉-Extra-Small-Devices:-Phones-(&lt;576px)" stroke="none" stroke-width="1" fill="none" fill-rule="evenodd">
        <g id="Landing-page-(&lt;576px)" transform="translate(-298.000000, -460.000000)" fill="#1F9AFF" fill-rule="nonzero">
            <g id="Hero" transform="translate(-203.000000, 15.000000)">
                <g id="Headline" transform="translate(218.000000, 164.000000)">
                    <g id="Sign-in-button" transform="translate(0.000000, 260.000000)">
                        <g id="Sign-In" transform="translate(67.000000, 14.000000)">
                            <g id="Arrow" transform="translate(216.000000, 7.000000)">
                                <path d="M8.29289322,4 L5.14644661,0.853553391 C4.95118446,0.658291245 4.95118446,0.341708755 5.14644661,0.146446609 C5.34170876,-0.0488155365 5.65829124,-0.0488155365 5.85355339,0.146446609 L9.85355339,4.14644661 C10.0488155,4.34170876 10.0488155,4.65829124 9.85355339,4.85355339 L5.85355339,8.85355339 C5.65829124,9.04881554 5.34170876,9.04881554 5.14644661,8.85355339 C4.95118446,8.65829124 4.95118446,8.34170876 5.14644661,8.14644661 L8.29289322,5 L0.5,5 C0.223857625,5 0,4.77614237 0,4.5 C0,4.22385763 0.223857625,4 0.5,4 L8.29289322,4 Z" id="Combined-Shape"></path>
                            </g>
                        </g>
                    </g>
                </g>
            </g>
        </g>
    </g>
</svg>