<?xml version="1.0" encoding="UTF-8"?>
<svg width="18px" height="22px" viewBox="0 0 18 22" version="1.1" xmlns="http://www.w3.org/2000/svg" xmlns:xlink="http://www.w3.org/1999/xlink">
    <!-- Generator: Sketch 53.1 (72631) - https://sketchapp.com -->
    <title>Notifications</title>
    <desc>Created with Sketch.</desc>
    <defs>
        <path d="M19.5,19.4 L10.5,19.4 L10.5,12.8 C10.5,9.8674 12.75,8.4 14.998875,8.4 L15.001125,8.4 C17.25,8.4 19.5,9.8674 19.5,12.8 L19.5,19.4 Z M16.125,22.7 C16.125,23.3072 15.621,23.8 15,23.8 C14.379,23.8 13.875,23.3072 13.875,22.7 L13.875,21.6 L16.125,21.6 L16.125,22.7 Z M21.75,19.4 L21.75,12.8 C21.75,8.8917 19.086,6.7225 16.125,6.2869 L16.125,5.10325795 C16.125,4.49394541 15.6256521,4 15.026365,4 L14.973635,4 C14.3668756,4 13.875,4.48499267 13.875,5.10325795 L13.875,6.2869 C10.914,6.7225 8.25,8.8917 8.25,12.8 L8.25,19.4 L7.125,19.4 C6.504,19.4 6,19.8928 6,20.5 C6,21.1072 6.504,21.6 7.125,21.6 L11.625,21.6 L11.625,22.7 C11.625,24.5227 13.135875,26 15,26 C16.864125,26 18.375,24.5227 18.375,22.7 L18.375,21.6 L22.875,21.6 C23.496,21.6 24,21.1072 24,20.5 C24,19.8928 23.496,19.4 22.875,19.4 L21.75,19.4 Z" id="path-1"></path>
    </defs>
    <g id="DASHBOARD-✅-" stroke="none" stroke-width="1" fill="none" fill-rule="evenodd">
        <g id="DASHBOARD---INCOMPLETE" transform="translate(-1204.000000, -30.000000)">
            <g id="Navigation-Bar">
                <g id="Icons-/-Demands" transform="translate(1198.000000, 26.000000)">
                    <mask id="mask-2" fill="white">
                        <use xlink:href="#path-1"></use>
                    </mask>
                    <use id="Icons" fill="#FFFFFF" fill-rule="evenodd" transform="translate(15.000000, 15.000000) rotate(-360.000000) translate(-15.000000, -15.000000) " xlink:href="#path-1"></use>
                    <g id="Colors-/-Text-/-#FFFFFF" mask="url(#mask-2)" fill="#FFFFFF" fill-rule="nonzero">
                        <rect id="Color" x="0" y="0" width="30" height="30"></rect>
                    </g>
                </g>
            </g>
        </g>
    </g>
</svg>