<?xml version="1.0" encoding="UTF-8"?>
<svg width="76px" height="76px" viewBox="0 0 76 76" version="1.1" xmlns="http://www.w3.org/2000/svg" xmlns:xlink="http://www.w3.org/1999/xlink">
    <!-- Generator: Sketch 51 (57462) - http://www.bohemiancoding.com/sketch -->
    <title>avatar/empty</title>
    <desc>Created with Sketch.</desc>
    <defs></defs>
    <g id="👉-Extra-Large-Devices:-Desktops-(≥1200px)" stroke="none" stroke-width="1" fill="none" fill-rule="evenodd">
        <g id="Sign-up-3/3-(≥1200px)" transform="translate(-853.000000, -484.000000)">
            <rect fill="#FFFFFF" x="0" y="0" width="1440" height="1024"></rect>
            <g id="Sub-+-Field" transform="translate(795.000000, 301.000000)">
                <g id="push" transform="translate(0.000000, 156.000000)">
                    <g id="photo">
                        <g id="avatar/empty" transform="translate(61.000000, 30.000000)">
                            <circle id="Oval-4" stroke="#FFFFFF" stroke-width="2.69230769" fill="#F0F1F7" cx="35" cy="35" r="36.3461538"></circle>
                            <path d="M35.2692308,32.1461538 C33.0832654,32.1461538 31.3115385,33.9186723 31.3115385,36.1038462 C31.3115385,38.2898115 33.0832654,40.0615385 35.2692308,40.0615385 C37.4546685,40.0615385 39.2269231,38.2898115 39.2269231,36.1038462 C39.2269231,33.9186723 37.4546685,32.1461538 35.2692308,32.1461538 Z M45.8230769,28.1884615 L42.6569231,28.1884615 C42.2215769,28.1884615 41.7524585,27.8507385 41.6149946,27.4375554 L40.7965438,24.9814115 C40.6585523,24.5684923 40.1899615,24.2307692 39.7546154,24.2307692 L30.7838462,24.2307692 C30.3485,24.2307692 29.8793815,24.5684923 29.7419177,24.9816754 L28.9234669,27.4378192 C28.7854754,27.8507385 28.3168846,28.1884615 27.8815385,28.1884615 L24.7153846,28.1884615 C23.2642308,28.1884615 22.0769231,29.3757692 22.0769231,30.8269231 L22.0769231,42.7 C22.0769231,44.1511538 23.2642308,45.3384615 24.7153846,45.3384615 L45.8230769,45.3384615 C47.2742308,45.3384615 48.4615385,44.1511538 48.4615385,42.7 L48.4615385,30.8269231 C48.4615385,29.3757692 47.2742308,28.1884615 45.8230769,28.1884615 Z M35.2692308,42.7 C31.6263069,42.7 28.6730769,39.74677 28.6730769,36.1038462 C28.6730769,32.4611862 31.6263069,29.5076923 35.2692308,29.5076923 C38.9116269,29.5076923 41.8653846,32.4611862 41.8653846,36.1038462 C41.8653846,39.74677 38.9116269,42.7 35.2692308,42.7 Z M44.8996154,32.6719992 C44.3898646,32.6719992 43.9761538,32.2588162 43.9761538,31.7485377 C43.9761538,31.2387869 44.3898646,30.8250762 44.8996154,30.8250762 C45.4098938,30.8250762 45.8230769,31.2387869 45.8230769,31.7485377 C45.8230769,32.2588162 45.40963,32.6719992 44.8996154,32.6719992 Z" id="Shape" fill="#2E3B50" fill-rule="nonzero" opacity="0.300000012"></path>
                            <path d="M43.8104988,25.7901786 L43.8104988,24.2073584 C43.8104988,23.0362188 44.7598949,22.0868227 45.9310345,22.0868227 C47.102174,22.0868227 48.0515702,23.0362188 48.0515702,24.2073584 L48.0515702,25.7901786 L49.6343904,25.7901786 C50.8055299,25.7901786 51.7549261,26.7395747 51.7549261,27.9107143 C51.7549261,29.0818538 50.8055299,30.03125 49.6343904,30.03125 L48.0515702,30.03125 L48.0515702,31.6140702 C48.0515702,32.7852097 47.102174,33.7346059 45.9310345,33.7346059 C44.7598949,33.7346059 43.8104988,32.7852097 43.8104988,31.6140702 L43.8104988,30.03125 L42.2276786,30.03125 C41.056539,30.03125 40.1071429,29.0818538 40.1071429,27.9107143 C40.1071429,26.7395747 41.056539,25.7901786 42.2276786,25.7901786 L43.8104988,25.7901786 Z" id="Combined-Shape" stroke="#F0F1F7" stroke-width="1.78571429" fill="#B5BAC4"></path>
                        </g>
                    </g>
                </g>
            </g>
        </g>
    </g>
</svg>