<?xml version="1.0" encoding="UTF-8"?>
<svg width="16px" height="16px" viewBox="0 0 16 16" version="1.1" xmlns="http://www.w3.org/2000/svg" xmlns:xlink="http://www.w3.org/1999/xlink">
    <!-- Generator: Sketch 53.1 (72631) - https://sketchapp.com -->
    <title>Icon</title>
    <desc>Created with Sketch.</desc>
    <defs>
        <path d="M3.88157895,2.63157895 L15.8552632,2.63157895 C16.5456191,2.63157895 17.1052632,3.19122301 17.1052632,3.88157895 L17.1052632,7.96052632 C17.1052632,8.65088225 16.5456191,9.21052632 15.8552632,9.21052632 L3.88157895,9.21052632 C3.19122301,9.21052632 2.63157895,8.65088225 2.63157895,7.96052632 L2.63157895,3.88157895 C2.63157895,3.19122301 3.19122301,2.63157895 3.88157895,2.63157895 Z M11.7763158,17.1052632 C11.0859599,17.1052632 10.5263158,16.5456191 10.5263158,15.8552632 L10.5263158,11.7763158 C10.5263158,11.0859599 11.0859599,10.5263158 11.7763158,10.5263158 L15.8552632,10.5263158 C16.5456191,10.5263158 17.1052632,11.0859599 17.1052632,11.7763158 L17.1052632,15.8552632 C17.1052632,16.5456191 16.5456191,17.1052632 15.8552632,17.1052632 L11.7763158,17.1052632 Z M3.88157895,17.1052632 C3.19122301,17.1052632 2.63157895,16.5456191 2.63157895,15.8552632 L2.63157895,11.7763158 C2.63157895,11.0859599 3.19122301,10.5263158 3.88157895,10.5263158 L7.96052632,10.5263158 C8.65088225,10.5263158 9.21052632,11.0859599 9.21052632,11.7763158 L9.21052632,15.8552632 C9.21052632,16.5456191 8.65088225,17.1052632 7.96052632,17.1052632 L3.88157895,17.1052632 Z" id="path-1"></path>
    </defs>
    <g id="Symbols" stroke="none" stroke-width="1" fill="none" fill-rule="evenodd">
        <g id="Left-Menu-/-Inactive" transform="translate(-18.000000, -17.000000)">
            <g id="Icons-/-Dashboard" transform="translate(16.000000, 15.000000)">
                <mask id="mask-2" fill="white">
                    <use xlink:href="#path-1"></use>
                </mask>
                <use id="Icon" fill="#FFFFFF" fill-rule="nonzero" transform="translate(9.868421, 9.868421) rotate(-90.000000) translate(-9.868421, -9.868421) " xlink:href="#path-1"></use>
                <g id="Colors-/-Text-/-#C0C4CA" mask="url(#mask-2)" fill="#C0C4CA" fill-rule="nonzero">
                    <rect id="Color" x="0" y="0" width="19.8412698" height="19.8412698"></rect>
                </g>
            </g>
        </g>
    </g>
</svg>