<?xml version="1.0" encoding="UTF-8"?>
<svg width="20px" height="20px" viewBox="0 0 20 20" version="1.1" xmlns="http://www.w3.org/2000/svg" xmlns:xlink="http://www.w3.org/1999/xlink">
    <!-- Generator: Sketch 53.1 (72631) - https://sketchapp.com -->
    <title>Icon</title>
    <desc>Created with Sketch.</desc>
    <defs>
        <path d="M13.8666667,12.1333333 L14.7333333,12.1333333 C15.2119801,12.1333333 15.6,12.5213532 15.6,13 C15.6,13.4786468 15.2119801,13.8666667 14.7333333,13.8666667 L13.8666667,13.8666667 L13.8666667,14.7333333 C13.8666667,15.2119801 13.4786468,15.6 13,15.6 C12.5213532,15.6 12.1333333,15.2119801 12.1333333,14.7333333 L12.1333333,13.8666667 L11.2666667,13.8666667 C10.7880199,13.8666667 10.4,13.4786468 10.4,13 C10.4,12.5213532 10.7880199,12.1333333 11.2666667,12.1333333 L12.1333333,12.1333333 L12.1333333,11.2666667 C12.1333333,10.7880199 12.5213532,10.4 13,10.4 C13.4786468,10.4 13.8666667,10.7880199 13.8666667,11.2666667 L13.8666667,12.1333333 Z M13,3.46666667 C13.4786468,3.46666667 13.8666667,3.85468655 13.8666667,4.33333333 C13.8666667,4.81198012 13.4786468,5.2 13,5.2 C12.5213532,5.2 12.1333333,4.81198012 12.1333333,4.33333333 C12.1333333,3.85468655 12.5213532,3.46666667 13,3.46666667 Z M13,6.93333333 C13.4786468,6.93333333 13.8666667,7.32135322 13.8666667,7.8 C13.8666667,8.27864678 13.4786468,8.66666667 13,8.66666667 C12.5213532,8.66666667 12.1333333,8.27864678 12.1333333,7.8 C12.1333333,7.32135322 12.5213532,6.93333333 13,6.93333333 Z M13,17.3333333 C13.4786468,17.3333333 13.8666667,17.7213532 13.8666667,18.2 C13.8666667,18.6786468 13.4786468,19.0666667 13,19.0666667 C12.5213532,19.0666667 12.1333333,18.6786468 12.1333333,18.2 C12.1333333,17.7213532 12.5213532,17.3333333 13,17.3333333 Z M13,20.8 C13.4786468,20.8 13.8666667,21.1880199 13.8666667,21.6666667 C13.8666667,22.1453134 13.4786468,22.5333333 13,22.5333333 C12.5213532,22.5333333 12.1333333,22.1453134 12.1333333,21.6666667 C12.1333333,21.1880199 12.5213532,20.8 13,20.8 Z M21.6666667,12.1333333 C22.1453134,12.1333333 22.5333333,12.5213532 22.5333333,13 C22.5333333,13.4786468 22.1453134,13.8666667 21.6666667,13.8666667 C21.1880199,13.8666667 20.8,13.4786468 20.8,13 C20.8,12.5213532 21.1880199,12.1333333 21.6666667,12.1333333 Z M4.33333333,12.1333333 C4.81198012,12.1333333 5.2,12.5213532 5.2,13 C5.2,13.4786468 4.81198012,13.8666667 4.33333333,13.8666667 C3.85468655,13.8666667 3.46666667,13.4786468 3.46666667,13 C3.46666667,12.5213532 3.85468655,12.1333333 4.33333333,12.1333333 Z M7.8,12.1333333 C8.27864678,12.1333333 8.66666667,12.5213532 8.66666667,13 C8.66666667,13.4786468 8.27864678,13.8666667 7.8,13.8666667 C7.32135322,13.8666667 6.93333333,13.4786468 6.93333333,13 C6.93333333,12.5213532 7.32135322,12.1333333 7.8,12.1333333 Z M18.2,12.1333333 C18.6786468,12.1333333 19.0666667,12.5213532 19.0666667,13 C19.0666667,13.4786468 18.6786468,13.8666667 18.2,13.8666667 C17.7213532,13.8666667 17.3333333,13.4786468 17.3333333,13 C17.3333333,12.5213532 17.7213532,12.1333333 18.2,12.1333333 Z" id="path-1"></path>
    </defs>
    <g id="DASHBOARD-✅-" stroke="none" stroke-width="1" fill="none" fill-rule="evenodd">
        <g id="DASHBOARD---INCOMPLETE" transform="translate(-529.000000, -30.000000)">
            <g id="Navigation-Bar">
                <g id="Absences-&amp;-retards" transform="translate(526.000000, 27.000000)">
                    <g id="Icons-/-Empty">
                        <mask id="mask-2" fill="white">
                            <use xlink:href="#path-1"></use>
                        </mask>
                        <use id="Icons" fill="#FFFFFF" fill-rule="nonzero" xlink:href="#path-1"></use>
                        <g id="Colors-/-Text-/-#FFFFFF" mask="url(#mask-2)" fill="#FFFFFF" fill-rule="nonzero">
                            <rect id="Color" x="0" y="0" width="26.2015504" height="26.2015504"></rect>
                        </g>
                    </g>
                </g>
            </g>
        </g>
    </g>
</svg>