<?xml version="1.0" encoding="UTF-8"?>
<svg width="22px" height="26px" viewBox="0 0 22 26" version="1.1" xmlns="http://www.w3.org/2000/svg" xmlns:xlink="http://www.w3.org/1999/xlink">
    <!-- Generator: Sketch 51.1 (57501) - http://www.bohemiancoding.com/sketch -->
    <title>icon</title>
    <desc>Created with Sketch.</desc>
    <defs></defs>
    <g id="TIMELINE" stroke="none" stroke-width="1" fill="none" fill-rule="evenodd">
        <g id="Timeline-(≥1200px)" transform="translate(-145.000000, -572.000000)">
            <g id="Side-Menu" transform="translate(120.000000, 125.000000)">
                <g id="Sidemenu" transform="translate(0.000000, 49.000000)">
                    <g id="2" transform="translate(22.000000, 398.000000)">
                        <g id="Devoirs" transform="translate(3.000000, 0.000000)">
                            <g id="icon">
                                <path d="M2,2 L2,19 L14,19 L14,7.00410382 L9.00463867,2 L2,2 Z M1,0 L9.58031742,1.99840144e-15 C9.84815779,1.94919997e-15 10.1048033,0.107445803 10.2927561,0.298265649 L15.7124387,5.80062078 C15.8967103,5.98770332 16,6.23976055 16,6.50235513 L16,20 C16,20.5522847 15.5522847,21 15,21 L1,21 C0.44771525,21 0,20.5522847 0,20 L0,1 C0,0.44771525 0.44771525,0 1,0 Z" id="Rectangle-16" fill="#FFB53A" fill-rule="nonzero"></path>
                                <path d="M9,7 L15,7 L15,9 L9,9 L8,9 C7.44771525,9 7,8.55228475 7,8 L7,1 L9,1 L9,7 Z" id="Combined-Shape" fill="#FFB53A"></path>
                                <circle id="Oval-11" stroke="#FFB53A" stroke-width="2" fill="#F9FAFC" cx="14.5" cy="18.5" r="6.5"></circle>
                                <g id="Group-30" transform="translate(14.545528, 17.965527) rotate(-315.000000) translate(-14.545528, -17.965527) translate(12.545528, 14.965527)" fill="#FFB53A">
                                    <rect id="Rectangle-18" x="8.52651283e-14" y="4" width="4" height="2" rx="1"></rect>
                                    <rect id="Rectangle-18" transform="translate(3.000000, 3.000000) rotate(-90.000000) translate(-3.000000, -3.000000) " x="1.13686838e-13" y="2" width="6" height="2" rx="1"></rect>
                                </g>
                            </g>
                        </g>
                    </g>
                </g>
            </g>
        </g>
    </g>
</svg>