<?xml version="1.0" encoding="UTF-8"?>
<svg width="22px" height="22px" viewBox="0 0 22 22" version="1.1" xmlns="http://www.w3.org/2000/svg" xmlns:xlink="http://www.w3.org/1999/xlink">
    <!-- Generator: Sketch 51.1 (57501) - http://www.bohemiancoding.com/sketch -->
    <title>icon</title>
    <desc>Created with Sketch.</desc>
    <defs></defs>
    <g id="TIMELINE" stroke="none" stroke-width="1" fill="none" fill-rule="evenodd">
        <g id="Timeline-(≥992px)" transform="translate(-305.000000, -30.000000)">
            <g id="Nav">
                <g id="conversations" transform="translate(306.000000, 31.000000)">
                    <g id="icon">
                        <g id="SVGCleanerId_0" fill="#000000" fill-rule="nonzero">
                            <path d="M10.1559375,0.00125 C7.426875,-0.0409765625 4.8621875,0.997929687 2.93304688,2.92496094 C1.00378906,4.85199219 -0.0375,7.41589844 0.00109375,10.1444141 C0.0780078125,15.5900781 4.55835938,20.0000391 10.0002344,20 C10.0182031,20 10.0363672,19.9999609 10.0543359,19.9998828 C11.5595313,19.9918359 13.0047656,19.6563672 14.3529688,19.0024609 L16.6827344,19.0024609 C17.8100391,19.0024609 18.7272656,18.0853125 18.7272656,16.9579297 L18.7272656,14.8802734 C19.5442188,13.4216797 19.9835938,11.7716016 19.9994922,10.0964844 C20.0515625,4.61355469 15.6358203,0.0848828125 10.1559375,0.00125 Z M17.5280469,14.3848828 C17.4705469,14.4833203 17.4402734,14.5953125 17.4402734,14.7093359 L17.4402734,16.9579297 C17.4402734,17.3756641 17.1004297,17.7154687 16.6827344,17.7154687 L14.2026563,17.7154687 C14.1021094,17.7154687 14.0029688,17.7390234 13.913125,17.7842969 C12.7044922,18.3932031 11.4039453,18.7056641 10.0474609,18.7128906 C10.0314453,18.7129688 10.0162891,18.7130078 10.0002734,18.7130078 C5.25910156,18.7130078 1.35496094,14.8705078 1.28792969,10.12625 C1.25433594,7.74867188 2.16160156,5.51457031 3.84253906,3.83550781 C5.49101563,2.18890625 7.67242188,1.28703125 9.99871094,1.28703125 C10.0444531,1.28703125 10.0904297,1.28738281 10.1363281,1.28804687 C14.910625,1.3609375 18.7579688,5.30691406 18.7125781,10.0842578 C18.6982031,11.5949609 18.2885938,13.0821094 17.5280469,14.3848828 Z" id="Shape"></path>
                        </g>
                        <g id="More-icon" transform="translate(5.000000, 9.000000)" fill="#FFFFFF" stroke="#FFFFFF" stroke-width="0.5">
                            <path d="M8.75,2.5 C8.05964406,2.5 7.5,1.94035594 7.5,1.25 C7.5,0.559644063 8.05964406,0 8.75,0 C9.44035594,0 10,0.559644063 10,1.25 C10,1.94035594 9.44035594,2.5 8.75,2.5 Z M5,2.5 C4.30964406,2.5 3.75,1.94035594 3.75,1.25 C3.75,0.559644063 4.30964406,0 5,0 C5.69035594,0 6.25,0.559644063 6.25,1.25 C6.25,1.94035594 5.69035594,2.5 5,2.5 Z M1.25,2.5 C0.559644063,2.5 0,1.94035594 0,1.25 C0,0.559644063 0.559644063,0 1.25,0 C1.94035594,0 2.5,0.559644063 2.5,1.25 C2.5,1.94035594 1.94035594,2.5 1.25,2.5 Z" id="Oval-3-Copy-2"></path>
                        </g>
                        <path d="M10.1559375,0.00125 C7.426875,-0.0409765625 4.8621875,0.997929688 2.93304688,2.92496094 C1.00378906,4.85199219 -0.0375,7.41589844 0.00109375,10.1444141 C0.0780078125,15.5900781 4.55835938,20.0000391 10.0002344,20 C11.5595313,19.9918359 13.0047656,19.6563672 14.3529688,19.0024609 L16.6827344,19.0024609 C17.8100391,19.0024609 18.7272656,18.0853125 18.7272656,16.9579297 L18.7272656,14.8802734 C19.5442188,13.4216797 19.9835938,11.7716016 19.9994922,10.0964844 C20.0515625,4.61355469 15.6358203,0.0848828125 10.1559375,0.00125 Z M17.5280469,14.3848828 C17.4705469,14.4833203 17.4402734,14.5953125 17.4402734,14.7093359 L17.4402734,16.9579297 C17.4402734,17.3756641 17.1004297,17.7154687 16.6827344,17.7154687 L14.2026563,17.7154687 C14.1021094,17.7154687 14.0029688,17.7390234 13.913125,17.7842969 C12.7044922,18.3932031 11.4039453,18.7056641 10.0474609,18.7128906 C5.25910156,18.7130078 1.35496094,14.8705078 1.28792969,10.12625 C1.25433594,7.74867187 2.16160156,5.51457031 3.84253906,3.83550781 C5.49101562,2.18890625 7.67242187,1.28703125 9.99871094,1.28703125 C10.0444531,1.28703125 10.0904297,1.28738281 10.1363281,1.28804687 C14.910625,1.3609375 18.7579688,5.30691406 18.7125781,10.0842578 C18.6982031,11.5949609 18.2885938,13.0821094 17.5280469,14.3848828 Z" id="Shape" stroke="#FFFFFF" stroke-width="0.5" fill="#FFFFFF" fill-rule="nonzero"></path>
                    </g>
                </g>
            </g>
        </g>
    </g>
</svg>