<?xml version="1.0" encoding="UTF-8"?>
<svg width="20px" height="25px" viewBox="0 0 20 25" version="1.1" xmlns="http://www.w3.org/2000/svg" xmlns:xlink="http://www.w3.org/1999/xlink">
    <!-- Generator: Sketch 51.1 (57501) - http://www.bohemiancoding.com/sketch -->
    <title>icon</title>
    <desc>Created with Sketch.</desc>
    <defs></defs>
    <g id="TIMELINE" stroke="none" stroke-width="1" fill="none" fill-rule="evenodd">
        <g id="Timeline-(≥1200px)" transform="translate(-145.000000, -626.000000)">
            <g id="Side-Menu" transform="translate(120.000000, 125.000000)">
                <g id="Sidemenu" transform="translate(0.000000, 49.000000)">
                    <g id="2" transform="translate(22.000000, 398.000000)">
                        <g id="Documents" transform="translate(3.000000, 54.000000)">
                            <g id="icon">
                                <g id="Group-50" transform="translate(4.000000, 0.000000)" fill="#00B7CE">
                                    <path d="M2,2 L2,19 L14,19 L14,7.00410382 L9.00463867,2 L2,2 Z M1,0 L9.58031742,1.99840144e-15 C9.84815779,1.94919997e-15 10.1048033,0.107445803 10.2927561,0.298265649 L15.7124387,5.80062078 C15.8967103,5.98770332 16,6.23976055 16,6.50235513 L16,20 C16,20.5522847 15.5522847,21 15,21 L1,21 C0.44771525,21 0,20.5522847 0,20 L0,1 C0,0.44771525 0.44771525,0 1,0 Z" id="Rectangle-16" fill-rule="nonzero"></path>
                                    <path d="M9,7 L15,7 L15,9 L9,9 L8,9 C7.44771525,9 7,8.55228475 7,8 L7,1 L9,1 L9,7 Z" id="Combined-Shape"></path>
                                </g>
                                <g id="Group-50" transform="translate(0.000000, 4.000000)">
                                    <polygon id="Path-2" fill="#F9FAFC" points="1.19852266 1.1746631 9.30897211 1.1746631 14.8701584 6.63650787 14.8701584 19.8028163 1.19852266 19.8028163"></polygon>
                                    <path d="M2,2 L2,19 L14,19 L14,7.00410382 L9.00463867,2 L2,2 Z M1,0 L9.58031742,1.99840144e-15 C9.84815779,1.94919997e-15 10.1048033,0.107445803 10.2927561,0.298265649 L15.7124387,5.80062078 C15.8967103,5.98770332 16,6.23976055 16,6.50235513 L16,20 C16,20.5522847 15.5522847,21 15,21 L1,21 C0.44771525,21 0,20.5522847 0,20 L0,1 C0,0.44771525 0.44771525,0 1,0 Z" id="Rectangle-16" fill="#00B7CE" fill-rule="nonzero"></path>
                                    <path d="M9,7 L15,7 L15,9 L9,9 L8,9 C7.44771525,9 7,8.55228475 7,8 L7,1 L9,1 L9,7 Z" id="Combined-Shape" fill="#00B7CE"></path>
                                </g>
                                <rect id="Rectangle-18" fill="#00B7CE" x="4" y="15" width="8" height="2" rx="1"></rect>
                                <rect id="Rectangle-18" fill="#00B7CE" x="4" y="19" width="6" height="2" rx="1"></rect>
                            </g>
                        </g>
                    </g>
                </g>
            </g>
        </g>
    </g>
</svg>