<?xml version="1.0" encoding="UTF-8"?>
<svg width="20px" height="20px" viewBox="0 0 20 20" version="1.1" xmlns="http://www.w3.org/2000/svg" xmlns:xlink="http://www.w3.org/1999/xlink">
    <!-- Generator: Sketch 51.1 (57501) - http://www.bohemiancoding.com/sketch -->
    <title>icon</title>
    <desc>Created with Sketch.</desc>
    <defs></defs>
    <g id="TIMELINE" stroke="none" stroke-width="1" fill="none" fill-rule="evenodd">
        <g id="Timeline-(≥1200px)" transform="translate(-143.000000, -747.000000)">
            <g id="Side-Menu" transform="translate(120.000000, 125.000000)">
                <g id="Sidemenu" transform="translate(0.000000, 49.000000)">
                    <g id="2" transform="translate(22.000000, 398.000000)">
                        <g id="Events" transform="translate(1.000000, 175.000000)">
                            <g id="icon">
                                <path d="M12,14 L8,14 L8,19 L6,19 L6,14 L1,14 L1,12 L6,12 L6,8 L8,8 L8,12 L12,12 L12,8 L14,8 L14,12 L18.5,12 L18.5,14 L14,14 L14,18 L12,18 L12,14 Z" id="Combined-Shape" fill="#F15B5B" opacity="0.300000012"></path>
                                <path d="M18,18 L19,18 C18.4477153,18 18,18.4477153 18,19 L18,18 Z M18,18 L18,2 L20,2 L20,19 C20,19.5522847 19.5522847,20 19,20 L1,20 C0.44771525,20 0,19.5522847 0,19 L0,2 L2,2 L2,18 L18,18 Z M2,18 L2,19 C2,18.4477153 1.55228475,18 1,18 L2,18 Z M2,18 L2,19 C2,18.4477153 1.55228475,18 1,18 L2,18 Z M2,18 L18,18 L18,2 L20,2 L20,19 C20,19.5522847 19.5522847,20 19,20 L1,20 C0.44771525,20 0,19.5522847 0,19 L0,2 L2,2 L2,18 Z M18,18 L19,18 C18.4477153,18 18,18.4477153 18,19 L18,18 Z M1,0 L3,0 C3.55228475,-1.01453063e-16 4,0.44771525 4,1 C4,1.55228475 3.55228475,2 3,2 L0,2 L0,1 C-6.76353751e-17,0.44771525 0.44771525,1.01453063e-16 1,0 Z M19,0 C19.5522847,1.01453063e-16 20,0.44771525 20,1 L20,2 L17,2 C16.4477153,2 16,1.55228475 16,1 C16,0.44771525 16.4477153,-1.01453063e-16 17,0 L19,0 Z" id="Combined-Shape" fill="#F15B5B" fill-rule="nonzero"></path>
                                <rect id="Rectangle-28" stroke="#F15B5B" fill="#D8D8D8" x="0.5" y="6.5" width="18" height="1"></rect>
                                <g id="Group-47" transform="translate(10.000000, 2.000000) rotate(-270.000000) translate(-10.000000, -2.000000) translate(8.000000, -3.000000)" fill="#F15B5B">
                                    <rect id="Rectangle-20" x="0" y="0" width="4" height="2" rx="1"></rect>
                                    <rect id="Rectangle-20" x="0" y="4" width="4" height="2" rx="1"></rect>
                                    <rect id="Rectangle-20" x="0" y="8" width="4" height="2" rx="1"></rect>
                                </g>
                            </g>
                        </g>
                    </g>
                </g>
            </g>
        </g>
    </g>
</svg>