<?xml version="1.0" encoding="UTF-8"?>
<svg width="21px" height="20px" viewBox="0 0 21 20" version="1.1" xmlns="http://www.w3.org/2000/svg" xmlns:xlink="http://www.w3.org/1999/xlink">
    <!-- Generator: Sketch 51.1 (57501) - http://www.bohemiancoding.com/sketch -->
    <title>favoris</title>
    <desc>Created with Sketch.</desc>
    <defs></defs>
    <g id="TIMELINE" stroke="none" stroke-width="1" fill="none" fill-rule="evenodd" opacity="0.300000012">
        <g id="Timeline-(≥1200px)" transform="translate(-142.000000, -495.000000)" fill="#2E3B50" fill-rule="nonzero">
            <g id="Side-Menu" transform="translate(120.000000, 125.000000)">
                <g id="Sidemenu" transform="translate(0.000000, 49.000000)">
                    <g id="1" transform="translate(0.000000, 186.000000)">
                        <g id="favoris" transform="translate(22.000000, 135.000000)">
                            <path d="M9.45370823,14.6913255 C9.81752084,14.5000579 10.2521545,14.5000579 10.6159671,14.6913255 L14.1550339,16.551923 C14.3016873,16.6290233 14.4830754,16.5726393 14.5601757,16.4259859 C14.5908774,16.3675878 14.6014718,16.3006974 14.5903187,16.2356701 L13.9144171,12.2948613 C13.8449351,11.88975 13.9792443,11.4763888 14.2735749,11.1894874 L17.13674,8.39859115 C17.2553851,8.28294078 17.2578128,8.0930068 17.1421624,7.97436173 C17.0961098,7.92711664 17.0357671,7.89637049 16.970476,7.88688313 L13.0136791,7.31192688 C12.6069242,7.25282194 12.2552982,6.99735068 12.0733919,6.62876824 L10.3038585,3.04330199 C10.2305318,2.89472589 10.0506441,2.83372419 9.90206796,2.90705088 C9.84290418,2.93624995 9.79501593,2.98413821 9.76581685,3.04330199 L7.99628347,6.62876824 C7.81437717,6.99735068 7.46275113,7.25282194 7.05599627,7.31192688 L3.09919934,7.88688313 C2.93523588,7.91070842 2.82163144,8.06294127 2.84545673,8.22690473 C2.85494408,8.29219584 2.88569024,8.35253857 2.93293533,8.39859115 L5.79610048,11.1894874 C6.09043107,11.4763888 6.22474026,11.88975 6.15525824,12.2948613 L5.47935663,16.2356701 C5.45134832,16.398971 5.56102467,16.5540578 5.72432561,16.5820661 C5.7893529,16.5932191 5.85624332,16.5826247 5.91464146,16.551923 L9.45370823,14.6913255 Z M6.53885872,19.045536 C5.31789642,19.6874339 3.80774988,19.2180094 3.16585202,17.9970471 C2.91024492,17.5108536 2.82204125,16.9539575 2.91489597,16.412573 L3.58256853,12.5197432 L0.754262143,9.76282584 C-0.233517103,8.79997904 -0.253728846,7.2186842 0.709117952,6.23090495 C1.0925286,5.83756607 1.59491178,5.58158906 2.13849274,5.50260212 L6.04711604,4.93464591 L7.79510552,1.39283237 C8.40558667,0.155862454 9.90324166,-0.352007036 11.1402116,0.258474112 C11.6327795,0.501570907 12.031473,0.900264459 12.2745698,1.39283237 L14.0225593,4.93464591 L17.9311826,5.50260212 C19.29626,5.70095947 20.2420734,6.9683737 20.043716,8.33345105 C19.9647291,8.87703201 19.7087521,9.37941519 19.3154132,9.76282584 L16.4871068,12.5197432 L17.1547794,16.412573 C17.3879624,17.7721345 16.4748523,19.063309 15.1152908,19.2964921 C14.5739063,19.3893468 14.0170102,19.3011431 13.5308166,19.045536 L10.0348377,17.2075911 L6.53885872,19.045536 Z"></path>
                        </g>
                    </g>
                </g>
            </g>
        </g>
    </g>
</svg>