<?xml version="1.0" encoding="UTF-8"?>
<svg width="19px" height="23px" viewBox="0 0 19 23" version="1.1" xmlns="http://www.w3.org/2000/svg" xmlns:xlink="http://www.w3.org/1999/xlink">
    <!-- Generator: Sketch 51.1 (57501) - http://www.bohemiancoding.com/sketch -->
    <title>member-list</title>
    <desc>Created with Sketch.</desc>
    <defs></defs>
    <g id="TIMELINE" stroke="none" stroke-width="1" fill="none" fill-rule="evenodd" opacity="0.300000012">
        <g id="Timeline-(≥1200px)" transform="translate(-142.000000, -826.000000)">
            <g id="Side-Menu" transform="translate(120.000000, 125.000000)">
                <g id="Sidemenu" transform="translate(0.000000, 49.000000)">
                    <g id="3" transform="translate(22.000000, 652.000000)">
                        <g id="List-member">
                            <g id="member-list">
                                <path d="M3,21 L17,21 L17,2 L3,2 L3,4 C3,4.55228475 2.55228475,5 2,5 C1.44771525,5 1,4.55228475 1,4 L1,2 C1,0.8954305 1.8954305,0 3,0 L17,0 C18.1045695,0 19,0.8954305 19,2 L19,21 C19,22.1045695 18.1045695,23 17,23 L3,23 C1.8954305,23 1,22.1045695 1,21 L1,19 C1,18.4477153 1.44771525,18 2,18 C2.55228475,18 3,18.4477153 3,19 L3,21 Z" id="Combined-Shape" fill="#2E3B50" fill-rule="nonzero"></path>
                                <g id="Group-41" transform="translate(0.000000, 7.000000)" fill="#2E3B50">
                                    <rect id="Rectangle-20" x="0" y="0" width="4" height="2" rx="1"></rect>
                                    <rect id="Rectangle-20" x="0" y="4" width="4" height="2" rx="1"></rect>
                                    <rect id="Rectangle-20" x="0" y="8" width="4" height="2" rx="1"></rect>
                                </g>
                                <g id="Group-42" transform="translate(6.000000, 7.000000)" stroke="#2E3B50" stroke-width="2.25">
                                    <g id="Group-43">
                                        <ellipse id="Oval-8" cx="4.5" cy="2.18181818" rx="2.25" ry="2.18181818"></ellipse>
                                        <path d="M1.33454099,7.60227273 L7.66545901,7.60227273 C7.18989267,6.37145764 5.95641496,5.48863636 4.5,5.48863636 C3.04358504,5.48863636 1.81010733,6.37145764 1.33454099,7.60227273 Z" id="Rectangle-22"></path>
                                    </g>
                                </g>
                            </g>
                        </g>
                    </g>
                </g>
            </g>
        </g>
    </g>
</svg>