<?xml version="1.0" encoding="UTF-8"?>
<svg width="20px" height="20px" viewBox="0 0 20 20" version="1.1" xmlns="http://www.w3.org/2000/svg" xmlns:xlink="http://www.w3.org/1999/xlink">
    <!-- Generator: Sketch 53.1 (72631) - https://sketchapp.com -->
    <title>Icon</title>
    <desc>Created with Sketch.</desc>
    <defs>
        <path d="M4.33333333,3.46666667 L21.6666667,3.46666667 C22.1453134,3.46666667 22.5333333,3.85468655 22.5333333,4.33333333 L22.5333333,11.2666667 C22.5333333,11.7453134 22.1453134,12.1333333 21.6666667,12.1333333 L4.33333333,12.1333333 C3.85468655,12.1333333 3.46666667,11.7453134 3.46666667,11.2666667 L3.46666667,4.33333333 C3.46666667,3.85468655 3.85468655,3.46666667 4.33333333,3.46666667 Z M14.7333333,22.5333333 C14.2546866,22.5333333 13.8666667,22.1453134 13.8666667,21.6666667 L13.8666667,14.7333333 C13.8666667,14.2546866 14.2546866,13.8666667 14.7333333,13.8666667 L21.6666667,13.8666667 C22.1453134,13.8666667 22.5333333,14.2546866 22.5333333,14.7333333 L22.5333333,21.6666667 C22.5333333,22.1453134 22.1453134,22.5333333 21.6666667,22.5333333 L14.7333333,22.5333333 Z M4.33333333,22.5333333 C3.85468655,22.5333333 3.46666667,22.1453134 3.46666667,21.6666667 L3.46666667,14.7333333 C3.46666667,14.2546866 3.85468655,13.8666667 4.33333333,13.8666667 L11.2666667,13.8666667 C11.7453134,13.8666667 12.1333333,14.2546866 12.1333333,14.7333333 L12.1333333,21.6666667 C12.1333333,22.1453134 11.7453134,22.5333333 11.2666667,22.5333333 L4.33333333,22.5333333 Z" id="path-1"></path>
    </defs>
    <g id="DASHBOARD-✅-" stroke="none" stroke-width="1" fill="none" fill-rule="evenodd">
        <g id="DASHBOARD---INCOMPLETE" transform="translate(-174.000000, -30.000000)">
            <g id="Navigation-Bar">
                <g id="Mon-école" transform="translate(151.000000, 19.000000)">
                    <g id="Icons-/-Dashboard" transform="translate(20.000000, 8.000000)">
                        <mask id="mask-2" fill="white">
                            <use xlink:href="#path-1"></use>
                        </mask>
                        <use id="Icon" fill="#FFFFFF" fill-rule="nonzero" transform="translate(13.000000, 13.000000) rotate(-90.000000) translate(-13.000000, -13.000000) " xlink:href="#path-1"></use>
                        <g id="Colors-/-Text-/-#FFFFFF" mask="url(#mask-2)" fill="#FFFFFF" fill-rule="nonzero">
                            <rect id="Color" x="0" y="0" width="26.2015504" height="26.2015504"></rect>
                        </g>
                    </g>
                </g>
            </g>
        </g>
    </g>
</svg>