<?xml version="1.0" encoding="UTF-8"?>
<svg width="22px" height="23px" viewBox="0 0 22 23" version="1.1" xmlns="http://www.w3.org/2000/svg" xmlns:xlink="http://www.w3.org/1999/xlink">
    <!-- Generator: Sketch 51.1 (57501) - http://www.bohemiancoding.com/sketch -->
    <title>new-message</title>
    <desc>Created with Sketch.</desc>
    <defs></defs>
    <g id="CONVERSATIONS" stroke="none" stroke-width="1" fill="none" fill-rule="evenodd">
        <g id="Conversation-empty-(&lt;576px)" transform="translate(-336.000000, -79.000000)" fill="#FFFFFF" fill-rule="nonzero">
            <g id="Navbar" transform="translate(0.000000, 49.000000)">
                <g id="new-message" transform="translate(336.000000, 29.000000)">
                    <path d="M10.5265759,3 L10.5265759,5 L2,5 L2,22 L19,22 L19,13.6231082 L21,13.6231082 L21,22 C21,23.1045695 20.1045695,24 19,24 L2,24 C0.8954305,24 0,23.1045695 0,22 L0,5 C0,3.8954305 0.8954305,3 2,3 L10.5265759,3 Z M10.5265759,5 L2,5 L2,22 L19,22 L19,13.6231082 L21,13.6231082 L21,22 C21,23.1045695 20.1045695,24 19,24 L2,24 C0.8954305,24 0,23.1045695 0,22 L0,5 C0,3.8954305 0.8954305,3 2,3 L10.5265759,3 L10.5265759,5 Z" id="Rectangle-10"></path>
                    <path d="M11.0320457,16.0712803 L12.6790388,17.7514107 L14.1691234,16.2551698 L14.1689202,2.59698141 L11.1512849,2.59697299 L11.0320457,16.0712803 Z M10.1600951,0.596970227 L15.1689053,0.596984202 C15.7211846,0.596984202 16.1688976,1.04469093 16.1689053,1.59697023 L16.1691357,17.0811705 L13.3819832,19.8798381 C12.9922648,20.2711666 12.3591011,20.2724719 11.9677726,19.8827534 C11.9658798,19.8808684 10.9848905,18.8801761 9.02480477,16.8806765 L9.16013426,1.5881212 C9.16499089,1.03931059 9.611263,0.596970227 10.1600951,0.596970227 Z" id="Rectangle-11" transform="translate(12.596970, 10.385580) rotate(-315.000000) translate(-12.596970, -10.385580) "></path>
                </g>
            </g>
        </g>
    </g>
</svg>