<?xml version="1.0" encoding="UTF-8"?>
<svg width="20px" height="26px" viewBox="0 0 20 26" version="1.1" xmlns="http://www.w3.org/2000/svg" xmlns:xlink="http://www.w3.org/1999/xlink">
    <!-- Generator: Sketch 51.1 (57501) - http://www.bohemiancoding.com/sketch -->
    <title>icon</title>
    <desc>Created with Sketch.</desc>
    <defs></defs>
    <g id="TIMELINE" stroke="none" stroke-width="1" fill="none" fill-rule="evenodd">
        <g id="Timeline-(≥992px)" transform="translate(-750.000000, -28.000000)" fill="#2e3b50" fill-rule="nonzero">
            <g id="Nav">
                <g id="notifications" transform="translate(750.000000, 26.000000)">
                    <g id="icon" transform="translate(0.000000, 2.000000)">
                        <path d="M9.88576355,3.51330049 C5.31817734,3.51330049 1.60231527,7.22916256 1.60231527,11.7967488 L1.60231527,20.594335 L3.31610837,20.594335 L3.31610837,11.7967488 C3.31610837,8.17433498 6.26300493,5.2270936 9.88576355,5.2270936 C13.5085222,5.2270936 16.4554187,8.17428571 16.4554187,11.7967488 L16.4554187,20.594335 L18.1692611,20.594335 L18.1692611,11.7967488 C18.1692118,7.22916256 14.4533498,3.51330049 9.88576355,3.51330049 Z" id="Shape"></path>
                        <path d="M19.1403448,19.7374384 L0.859655172,19.7374384 C0.38635468,19.7374384 0.00275862069,20.1210345 0.00275862069,20.594335 C0.00275862069,21.0676355 0.38635468,21.4512315 0.859655172,21.4512315 L19.1403941,21.4512315 C19.6136946,21.4512315 19.9972906,21.0676355 19.9972906,20.594335 C19.9972906,20.1210345 19.6136453,19.7374384 19.1403448,19.7374384 Z" id="Shape"></path>
                        <path d="M9.88576355,0 C8.43674877,0 7.25793103,1.17881773 7.25793103,2.62783251 C7.25793103,4.07684729 8.43674877,5.25566502 9.88576355,5.25566502 C11.3347783,5.25566502 12.5135961,4.07684729 12.5135961,2.62783251 C12.5135961,1.17881773 11.3347783,0 9.88576355,0 Z M9.88576355,3.54187192 C9.39019704,3.54187192 8.97172414,3.12315271 8.97172414,2.62783251 C8.97172414,2.13226601 9.39019704,1.7137931 9.88576355,1.7137931 C10.38133,1.7137931 10.799803,2.13226601 10.799803,2.62783251 C10.799803,3.12339901 10.38133,3.54187192 9.88576355,3.54187192 Z" id="Shape"></path>
                        <path d="M11.3710345,20.5943842 L11.3710345,22.0797044 C11.3710345,22.8671921 10.7303448,23.5078818 9.94285714,23.5078818 C9.15536946,23.5078818 8.5146798,22.8671921 8.5146798,22.0797044 L8.5146798,20.5943842 L6.80083744,20.5943842 L6.80083744,22.0797044 C6.80083744,23.812069 8.21044335,25.2217241 9.94285714,25.2217241 C11.6752217,25.2217241 13.0848768,23.8121182 13.0848768,22.0797044 L13.0848768,20.5943842 L11.3710345,20.5943842 Z" id="Shape"></path>
                    </g>
                </g>
            </g>
        </g>
    </g>
</svg>