<?xml version="1.0" encoding="UTF-8"?>
<svg width="18px" height="17px" viewBox="0 0 18 17" version="1.1" xmlns="http://www.w3.org/2000/svg" xmlns:xlink="http://www.w3.org/1999/xlink">
    <!-- Generator: Sketch 53.1 (72631) - https://sketchapp.com -->
    <title>Add</title>
    <desc>Created with Sketch.</desc>
    <defs>
        <path d="M17.4533333,17.4619187 L17.4533333,11.779267 C17.4533333,11.3700706 17.7806759,11.042927 18.1844735,11.042927 L18.3355265,11.042927 C18.7401846,11.042927 19.0666667,11.3744476 19.0666667,11.7833991 L19.0666667,18.3261946 C19.0666667,18.7421888 18.7375339,19.0666667 18.3315281,19.0666667 L3.66847189,19.0666667 C3.27030093,19.0666667 2.93333333,18.7392854 2.93333333,18.3354402 L2.93333333,3.75041385 C2.93333333,3.35436176 3.26020583,3.01918735 3.6634235,3.01918735 L10.2699098,3.01918735 C10.6737862,3.01918735 11,3.34478797 11,3.7464367 L11,3.89668593 C11,4.29919059 10.6685656,4.62393528 10.2597206,4.62393528 L4.54666667,4.62393528 L4.54666667,17.4619187 L17.4533333,17.4619187 Z M18.4278211,7.0716634 L12.3349021,13.6176993 C12.05631,13.9170097 11.5070794,14.1533333 11.10091,14.1533333 L8.66181326,14.1533333 C8.25974005,14.1533333 7.92637853,13.8293642 7.92637853,13.429728 L7.92637853,10.9317669 C7.92637853,10.5445247 8.16630639,9.98605819 8.4622724,9.71207977 L15.0114839,3.64941516 C15.3109395,3.37220638 15.7771441,3.38335095 16.0605752,3.66709205 L18.413181,6.02227066 C18.6941261,6.30352298 18.7031668,6.7758409 18.4278211,7.0716634 Z M9.6490419,12.7275394 L10.931597,12.7275394 C11.1006839,12.7275394 11.3148037,12.6294687 11.4279422,12.5084924 L15.0333333,8.65333333 L13.4385435,7.04503781 L9.57696392,10.6074341 C9.45843109,10.7167834 9.3575521,10.9439998 9.3575521,11.1094861 L9.3575521,12.4278999 C9.3575521,12.6017142 9.48805653,12.7275394 9.6490419,12.7275394 Z M15.4143502,5.108125 L14.3,6.16 L15.9866667,7.7 L17.0274717,6.65919498 C17.1355095,6.55115718 17.138945,6.36319567 17.0225112,6.25200523 L15.8315335,5.11466144 C15.7167588,5.00505546 15.5283203,5.00054453 15.4143502,5.108125 Z" id="path-1"></path>
    </defs>
    <g id="DASHBOARD-✅-" stroke="none" stroke-width="1" fill="none" fill-rule="evenodd">
        <g id="DASHBOARD---INCOMPLETE" transform="translate(-93.000000, -407.000000)">
            <g id="Left-Menu" transform="translate(30.000000, 142.000000)">
                <g id="Broadcast-Message" transform="translate(0.000000, 248.000000)">
                    <g id="Content" transform="translate(61.000000, 14.000000)">
                        <g id="Icons-/-Write-message">
                            <mask id="mask-2" fill="white">
                                <use xlink:href="#path-1"></use>
                            </mask>
                            <use id="Icons" fill="#FFFFFF" fill-rule="evenodd" xlink:href="#path-1"></use>
                            <g id="Colors-/-Text-/-#FFFFFF" mask="url(#mask-2)" fill="#FFFFFF" fill-rule="nonzero">
                                <rect id="Color" x="0" y="0" width="21.8018018" height="21.8018018"></rect>
                            </g>
                        </g>
                    </g>
                </g>
            </g>
        </g>
    </g>
</svg>