<svg xmlns="http://www.w3.org/2000/svg" width="141" height="96" viewBox="0 0 141 96">
    <g fill="none" fill-rule="evenodd">
        <g fill-rule="nonzero" transform="matrix(-1 0 0 1 127.118 0)">
            <path fill="#8EC54A" d="M0 7.295h17.007v98.947H0z"/>
            <path fill="#F17265" d="M53.62 7.778l8.478-.671 7.78 98.64-8.476.67z"/>
            <path fill="#FAAF4C" d="M16.455 0h17.007v106.242H16.455z"/>
            <path fill="#2DABDF" d="M33.461 11.649h20.671v94.579H33.461z"/>
            <path fill="#FFDE88" d="M16.667 13.26h16.809V28.29H16.667z"/>
            <path fill="#C39A6F" d="M70.601 15.41h36.702v90.832H70.6z"/>
            <path fill="#FFDE88" d="M70.601 89.602h36.702v1.768H70.6zM70.601 94.027h36.702v1.768H70.6zM70.601 31.286h36.702v1.767H70.6zM70.601 35.71h36.702v1.768H70.6z"/>
            <rect width="17.36" height="95.342" x="109.312" y="10.631" fill="#215265" rx="5.738"/>
            <path fill="#387283" d="M111.901 19.467h12.168v3.096h-12.168zM111.901 25.348h12.168v3.096h-12.168zM111.901 86.224h12.168v3.096h-12.168zM111.901 92.105h12.168V95.2h-12.168z"/>
        </g>
        <path fill="#63873B" d="M128.55 39.553c3.459 1.366-3.118 1.988-4.75.003-2.5-3.043 1.828-4.743.585-2.636-.748 1.27-2.731.118-1.979-1.156 1.32-2.237 2.899-4.607 5.626-5.178 2.212-.465 4.254.71 5.352 2.604 2.158 3.726-.293 10.606-5.444 8.573-1.357-.535-.767-2.752.61-2.21M109.465 50.663c-.615-.85 3.153 2.061 2.39 2.472-1.16.623 1.385.102 1.407 1.421.045 2.817-5.373 4.108-2.963 2.49 1.229-.825 2.378 1.16 1.158 1.978-4.181 2.808-9.728-1.276-9.144-6.042.479-3.907 6.377-7.279 9.131-3.474.867 1.196-1.122 2.34-1.98 1.155"/>
        <path fill="#6DA041" d="M123.547 70.152c-3.543-.078-8.3-.214-8.3-.214.44 1.412-1.773 2.015-2.212.609-2.427-7.759-9.635-40.079 8.597-34.916 14.62 4.14 10.434 27.344 3.536 36.142-.91 1.158-2.522-.473-1.62-1.621"/>
        <path fill="#35332D" d="M134.939 33.34l-1.864 1.336c-.503.36-1.277.088-1.569-.41-.338-.577-.093-1.207.411-1.568l1.865-1.336c.504-.361 1.276-.088 1.57.41.335.577.091 1.205-.413 1.567M117.12 34.99c-.095.37-.08.699.025 1.065.41 1.42-1.802 2.026-2.21.61a4.293 4.293 0 0 1-.027-2.283c.366-1.427 2.579-.822 2.212.609M133.944 52.844a4.493 4.493 0 0 1-2.343.67c-1.476.014-1.478-2.277 0-2.292a2.2 2.2 0 0 0 1.187-.356c1.257-.778 2.41 1.202 1.156 1.978M120.7 48.274l.262 1.398c.115.608-.169 1.236-.8 1.409-.559.154-1.295-.188-1.41-.8l-.264-1.399c-.113-.607.169-1.234.8-1.408.56-.153 1.297.188 1.412.8M124.788 57.906c-.324.9-.847 1.577-1.626 2.132-.505.36-1.275.09-1.569-.41-.335-.575-.093-1.208.413-1.567.256-.184.466-.47.57-.763.212-.582.781-.974 1.412-.8.562.154 1.011.824.8 1.408M104.182 48.887l.74 1.16c.794 1.248-1.188 2.399-1.98 1.157l-.74-1.162c-.794-1.246 1.188-2.397 1.98-1.155M105.137 58.276a2.645 2.645 0 0 0-.57.802c-.27.557-1.063.705-1.568.41-.57-.332-.683-1.007-.412-1.566.23-.473.551-.9.928-1.267 1.061-1.027 2.685.591 1.622 1.62M107.506 55.209l-.785-.742c-1.074-1.017.55-2.635 1.62-1.62l.787.742c1.072 1.017-.551 2.635-1.622 1.62M110.151 43.928l-1.27-.769c-1.26-.763-.11-2.744 1.157-1.977l1.27.769c1.261.763.11 2.744-1.157 1.977M126.758 49.212c-.3.34-.558.695-.797 1.08-.778 1.25-2.763.1-1.98-1.155.34-.548.73-1.062 1.155-1.546.41-.463 1.204-.416 1.622 0 .462.463.411 1.155 0 1.62M119.96 39.997c.199.646.313 1.293.403 1.96.08.615-.586 1.146-1.147 1.146-.687 0-1.065-.53-1.147-1.145a8.225 8.225 0 0 0-.32-1.352c-.434-1.413 1.78-2.017 2.211-.609M116.434 58.63a8.583 8.583 0 0 0-1.236-.874c-1.27-.749-.118-2.73 1.157-1.978.605.357 1.169.773 1.7 1.23.47.405.415 1.208 0 1.621-.466.466-1.15.405-1.62 0M120.898 65.615c-.62.07-1.23.013-1.84-.12-.606-.13-.958-.836-.8-1.408.17-.625.803-.931 1.41-.8.411.09.812.084 1.23.037.617-.069 1.148.577 1.148 1.146 0 .676-.529 1.075-1.148 1.145M131.6 62.827h-1.784c-1.475 0-1.477-2.292 0-2.292h1.784c1.476 0 1.478 2.292 0 2.292M112.135 64.117c-.701.374-1.4.566-2.185.66-.616.075-1.147-.58-1.147-1.146 0-.679.528-1.071 1.147-1.145.36-.042.71-.178 1.028-.347 1.303-.692 2.462 1.284 1.157 1.978M127.767 29.68c.139.738.2 1.469.129 2.218-.058.615-.485 1.145-1.146 1.145-.576 0-1.205-.525-1.147-1.145.05-.538.053-1.076-.046-1.61-.115-.607.168-1.234.8-1.408.558-.153 1.295.188 1.41.8M133.544 41.257c-.193-.264-.513-.29-.794-.272-.617.035-1.146-.552-1.146-1.145 0-.65.526-1.112 1.146-1.147 1.145-.065 2.114.51 2.773 1.407.368.498.085 1.277-.411 1.567-.58.34-1.2.09-1.568-.41M129.435 36.608c-1.477 0-1.478-2.29 0-2.29 1.474 0 1.477 2.29 0 2.29"/>
        <path fill="#9F7958" d="M104.524 73.81c.128-1.159 32.926-5.946 32.794-4.774-1.329 11.878-2.66 23.755-3.988 35.632a.927.927 0 0 1-.325.613.822.822 0 0 1-.702.354H106.47c-.636 0-.915-.134-1.084-.58a5.18 5.18 0 0 1-.249-1.156 768.74 768.74 0 0 1-2.448-30.089c-.072-1.177 1.762-1.173 1.835 0"/>
        <path fill="#B08F76" d="M98.963 67.698c.714-.764 2.188-.899 5.022-.899h30.868c2.882 0 4.22.077 4.92.809.618.642.578 1.59.513 3.158-.024.594-.052 1.292-.052 2.112l.004 1.13c.016 2.19.024 3.394-.711 4.134-.772.776-2.205.814-4.674.814h-30.868c-2.78 0-4.15-.032-4.867-.772-.628-.647-.6-1.6-.547-3.327.015-.566.037-1.22.037-1.98 0-.873-.051-1.6-.097-2.243-.095-1.374-.157-2.283.452-2.936"/>
    </g>
</svg>
