<svg xmlns="http://www.w3.org/2000/svg" xmlns:xlink="http://www.w3.org/1999/xlink" width="94" height="108" viewBox="0 0 94 108">
    <defs>
        <path id="a" d="M.133.95h7.66v7.662H.132z"/>
    </defs>
    <g fill="none" fill-rule="evenodd">
        <path fill="#392F1D" d="M45.367 103.057h9.954V92.331h-9.954z"/>
        <path fill="#27241F" d="M84.258 70.56a42.726 42.726 0 0 1-3.314 3.725c-16.898 16.908-44.301 16.908-61.202-.003-16.905-16.904-16.905-44.317 0-61.22a43.063 43.063 0 0 1 3.726-3.319L19.106 5.38a49.179 49.179 0 0 0-3.7 3.348c-19.294 19.297-19.294 50.59.002 69.89 19.294 19.301 50.572 19.301 69.87 0a50.476 50.476 0 0 0 3.347-3.695l-4.367-4.364z"/>
        <path fill="#392F1D" d="M25.309 17.2l2.978-2.975L16.78 2.708l-2.977 2.984z"/>
        <g transform="translate(11 -.716)">
            <mask id="b" fill="#fff">
                <use xlink:href="#a"/>
            </mask>
            <path fill="#392F1D" d="M.133 4.78A3.835 3.835 0 0 1 3.966.95a3.83 3.83 0 0 1 3.826 3.83 3.829 3.829 0 1 1-7.66 0" mask="url(#b)"/>
        </g>
        <path fill="#2E3B50" d="M74.87 109.857c-.151-3.78-3.252-6.8-7.068-6.8H33.365a7.074 7.074 0 0 0-7.068 6.8H74.87z"/>
        <path fill="#392F1D" d="M79.64 65.783l-2.98 2.976 11.508 11.518 2.98-2.982z"/>
        <path fill="#392F1D" d="M93.817 78.92a3.829 3.829 0 1 1-7.66 0 3.83 3.83 0 1 1 7.66 0"/>
        <path fill="#009BDE" d="M24.333 17.375C9.86 31.856 9.86 55.418 24.33 69.897c14.477 14.48 38.025 14.47 52.501-.005 14.473-14.477 14.478-38.033 0-52.516C62.358 2.9 38.807 2.9 24.333 17.376"/>
        <path fill="#A4CE4C" d="M83.706 27.244c.033.076.037.186 0 .243-.034.06.124.263.166.306.04.048.612 1.27 1.186 2.707.568 1.43 1.58 5.435 1.538 5.582-.045.148-.166.78-.343 1.087-.175.292-.61 1.099-.745 1.11-.136.01-.715-.06-1.004-.497l-.516-.42-.26-.213c-.284-.02-.756-.283-1.054-.58-.292-.293-1.006-1.052-.909-1.235.098-.185-.025-1.123-.323-1.665l-.045-.476-.026-.384c.26.074.358.015.206-.14-.149-.148-.11-.681-.04-.88.07-.208.493-.526.389-.76-.104-.23-.319-1.027-.234-1.245.084-.218.319-.89.2-1.023-.113-.127.143-.727.468-1.067.321-.338 1.308-.526 1.346-.45M14.89 53.256c-.744-3.38-1.29-6.167-1.21-6.194.082-.029.27-.294.227-.522-.042-.23.555-.696.686-.59.128.104.296-.143.107-.5-.19-.353-.82-.574-.862-.678-.035-.106-.208-.423-.035-.457.169-.03.836-.375 1.14-.293.301.08 1.088.224 1.102.41.015.188.48.197.46-.013-.02-.209-.318-.715-.418-.646-.098.073-.733-.148-1.186-.592-.448-.442-.542-1.617-.374-1.661.168-.042.716.032.806-.342.085-.38.815-.156.907-.338.09-.182.713-.671.85-.703.133-.032.647.186.793.04.146-.143.684-.473.882-.404.194.064.702.343.691.47-.011.12.33.398.533.334.204-.066.816-.284.926-.187.107.094.409-.033.45.091.041.126.414.577.375.694-.045.115.053.455-.153.452-.21-.006-.607.324-.45.356.158.032.662.489.748.727.092.243.503.825.043.882-.466.055-1.83.533-2.023.746-.192.21-.475-.403-.16-1.239l-.662-.84-.392-.49c-.37.07-.864.177-1.1.239-.231.061-.425.627-.615.68-.185.06-.54.442-.405.395.136-.048.615.126.76.326.145.2.577.974.45 1.245-.122.278-.607 1.255-.514 1.29.088.032.297.495.258.79-.04.288.134 1.294.168 1.555.04.262.034 1.019.134 1.111.105.093.087.266.256.216.17-.057.922.482 1.226.4.314-.082 1.147-.202 1.17-.33.019-.127.387-.12.345-.254-.037-.132.555-.044.85.167.295.21.843.242.604-.072-.237-.316-.393-1.017-.44-.92-.049.096-.379-.11-.265-.207.11-.093.076-.699-.235-1.129-.307-.426-1.69-1.752-1.667-1.855.02-.1.43-.31.587-.263.162.054.437-.37.683-.308.237.064.81-.44.992-.25.195.19.793.592.925.486.128-.109.404-.41.313-.524-.088-.107.005-.292.325-.174.32.121 1.216.174 1.295.268.086.092.368.334.607.327.246-.006.936.387.962.259.022-.131.56-.059.761.124.198.184 1.146 1.087 1.36 1.192.213.097.848.017.967.157.124.144.321.517.108.595-.214.078-.3.437-.385.392-.094-.047-.377-.116-.435.039-.052.15-.564.194-.652-.209-.082-.403-.53-1.166-.571-.77-.043.398-.756.845-.643.89.105.03.328.484.23.653-.096.167.229.622.433.61.208-.016.712.154.667.452-.045.286-.243.962-.21.863.031-.099-.427-.13-.593.205-.16.332-.197 1.25-.06 1.272.14.02.47.592.384.83-.09.234-.27 1.076-.222 1.34.046.259.842.907.811 1.003-.028.106-.195.415-.09.475.11.063.319.846.196 1.269-.118.423.435 1.644.57 1.699.148.049.612.282.718.447.112.168.607.797.336.887-.268.092-1.25-.391-1.5-.3-.252.1-.889.63-.867.702a.347.347 0 0 1-.279.373c-.259.06-.928.816-.967 1.034-.044.219.185 1.497.773 2.351.593.852 2.092.132 1.98-.085-.114-.213-.146-.858-.007-.967.137-.108.778-.444.971-.154.196.291.929.872 1.183.645.26-.231 1.204.081 1.46.453.258.366 1.188.804 1.21.617.025-.19.285-.72.438-.772.154-.055.601.018.621-.271.021-.297-.204-1.205-.14-1.338.065-.133.141-.475.3-.449.16.032.492-.184.4-.311-.09-.126.424-.436.677-.453.26-.013.957.158.953.071-.003-.084.344-.376.68-.463.342-.084 1.448-.347 1.718-.21.27.126 1.442.05 2.035-.074.59-.122 1.417.49 1.552.462.14-.025.676-.373.908-.489.233-.115.966-.152 1.076-.267.114-.11.615-.496.867-.603.254-.105.94-.112.936-.268 0-.16.668-.092 1.066.11l.38.385.243.238c.153.26.354.546.44.656.087.102.21.842.223 1.033.018.188.338.773.338.845.005.07-.076.348.024.475.106.13.414.773.724 1.163.319.394 1.148 1.53 1.094 1.678-.06.145-.34.99-.295 1.182.04.19.202.809.332.942.13.129.455.7.423.97-.026.275.542 1.185.531 1.34-.007.15.148.613.1.663-.05.052-.096.293-.225.423-.124.126-.293.54-.077.625.22.086.798.907.783 1.165-.014.257-.351 1.128-.14 1.405.213.27-.064 1.112.31 1.354.376.243.883.978 1.038.963.151-.016.66.506.732.648.074.146-.037.672.01.882.049.213.68.759.814.713.138-.044.67.35.843.363.173.018.508.031.376.245-.14.22-.631.79-.78.806-.146.017-.528.18-.528.18a.86.86 0 0 1-.202-.059c-.089-.036-.565-.368-.854-.509-.283-.144-1.256-.434-1.54-.666a97.54 97.54 0 0 0-1.625-1.29c-.18-.133-.487-.61-.59-.549-.098.056-.33-.506-.25-.71.078-.199-.456-.675-.493-.544-.035.133-.89-.308-1.405-.8-.509-.49-1.104-1.913-1.497-2.169-.383-.26-1.016-1.232-1.127-1.307-.11-.084-.445-.2-.525-.323-.083-.128-.476-.62-.82-.807-.343-.199-1.528-.647-1.875-.642-.344.005-1.296-.05-1.333-.16-.04-.106-.653-.332-1.026-.234-.377.092-1.37-.808-1.286-.919.084-.12-.074-.384-.258-.315-.186.07-.885-.047-1.128-.195-.246-.15-1.018-1.358-1.045-1.604-.036-.244-.624-1.014-.635-1.12-.009-.108-.395-.464-.61-.554-.216-.088-.775-.401-.748-.274.029.123-.169.418-.5.392-.337-.033-1.214.334-1.271.28-.054-.054-.34-.18-.515-.156-.171.025-.764-.08-.918-.025-.145.053-.687.458-.874.403-.194-.057-1.078-.041-1.512.233-.441.275-2.006.916-2.344.809-.337-.112-1.501-1.03-1.782-1.07-.282-.043-1.093-.122-1.185-.225-.096-.102-.156.126.026.205.18.081.663.61.543.632-.123.026-.661.25-.97.08-.303-.17-1.146-.164-1.228-.24-.086-.079-.365-.428-.723-.637-.363-.207-1.367-.532-1.445-.532-.083.005-4.589-8.096-5.337-11.48M13.76 40.417c-.14.082-.092-1.055.112-2.533.198-1.474 1.23-5.339 1.312-5.4.079-.061.22.277.118.554-.096.273-.266 1.095-.165 1.135.102.039.246.589.154.771-.09.182-.075.914-.13 1.188-.059.268-.51 1.185-.47 1.465.04.285.527 1.154.414 1.266-.111.113-.326.3-.235.165.092-.135.427.198.49.324.056.125-.348.717-.595 1.07-.248.357-1.055 1.384-1.12 1.353-.062-.037-.22-.119-.21-.233.007-.112.185-.49.376-.58.19-.092.088-.635-.052-.545M57.726 7.38c2.082.477 3.774.989 3.776 1.138-.002.153.31.52.48.458.169-.058.628-.373.876-.283.25.087 1.18.54 1.517.798.336.253 1.178 1.415 1.273 1.788.102.373.385 1.521.31 1.724-.084.2.347 1.117.942 1.565.602.457.83 1.859.606 1.928-.219.064-1.04-.504-1.264-.495-.227.012-.704-.114-.553-.003.149.111.189.664.23.75.044.091-.102.391-.065.496.046.11.484.448.643.498.16.048.709.17.875.292.167.125.782.39 1.027.7.25.313.725 1.186.725 1.256.006.07-.04.585.102 1.014.15.427.273 1.742.019 1.982-.258.24-.02.884.055.818.084-.069.409.024.537.211.12.18.484 1.135 1.042 1.746.553.615.209 2.033.115 1.948-.095-.082-.538-.156-.799-.134-.258.025-.844.109-.72.309.125.201.723.764.966.811.246.039 1.158.093 1.491.177.337.083.893.867.421.896-.468.024-1.847-.044-2.03-.14-.177-.1-.7-.573-.756-.697-.042-.125-.411-.522-.604-.606-.193-.082-.788-.113-.906-.213-.118-.102-.486-.34-.688-.12-.21.223-.847.08-.882-.025-.036-.108-.568-.474-.83-.56-.27-.087-1.047-.061-1.146.155-.096.216-.226.983-.26 1.207-.026.219.496.954.56 1.078.07.132-.291.476-.216.555.075.07.223.323.163.387-.07.068 0 .58.288 1 .293.423.962 1.654.834 1.802-.13.148-.576.148-.686.037-.118-.111-.584-.47-.804-.54-.212-.072-1.044-.31-1.392-.514-.345-.2-1.34-.504-1.489-.577-.138-.07-.664-.421-.81-.335-.15.09-.61-.002-.67-.075-.056-.075-.437-.285-1.069-.34l-.504.718-.14.21c-.183-.082-.35.037-.374.254-.029.225-.624.741-.748.693-.124-.047-.848-.311-1.316-.377-.474-.065-1.72.108-1.736.208-.02.1.022.43.187.508.161.076.753-.09 1.007.01.25.097.94.355.969.182.03-.168.671-.526.957-.45.282.07 1.049.513 1.064.702.005.195.514.946.497 1.206-.015.258-.265 1.006-.186 1.119.081.108-.04.772-.19 1.243-.152.477-.974 1.578-1.364 1.416a26.18 26.18 0 0 0-2.14-.726c-.44-.113-1.794-.403-2.038-.575-.24-.164-.696-.17-.528-.053.162.12.693.607.898.612.21 0 1.006.134 1.3.195.303.07 1.455.845 1.832.818.38-.036 1.553.474 1.695.332.146-.147.514-.683.505-.867-.011-.196.609-.53.857-.371.248.164.91 1.255 1.087 1.87.172.624.596 2.422.583 2.627-.022.205.076 1.017.266 1.34.19.329 1.031 1.614 1.631 2.132.597.53 1.817 2.417 1.852 3.026.03.608 1.18 2.403 1.11 2.536-.069.135-.108.64.004.821.106.182.638.98.643 1.345.011.363.339 1.786.225 2.312-.116.528-1.417 1.627-1.942 1.318-.528-.31-2.017-.84-2.183-1.01-.168-.171-.984-.802-1.435-1.023-.45-.219-1.865-.76-2.177-1.147-.314-.387-1.097-1.607-1.428-1.874-.329-.264-1.489-.785-1.87-1.015-.38-.235-1.653-.996-1.867-1.355-.216-.365-1.332-1.254-1.404-1.119-.068.135-.356.54-.56.584-.202.054-.895.403-1.117.199l-.179.142-.39.315c.205.397.184.92-.055 1.164-.243.243-1.001.957-1.374 1.032-.373.076-1.681.124-2.075-.052-.399-.179-1.822-.817-2.31-1.308-.49-.487-1.846-2.036-1.929-2.351-.085-.326-.686-1.735-.625-2.402l-.14-.405-.223-.625c-.532-.692-.897-1.436-.822-1.657.073-.22-.024-.902.124-1.001.148-.099.67-.358.808-.745.135-.387 1.114-1.623 1.24-1.92.128-.297.883-1.015 1.02-.938.14.07.192.369.33.373.133 0 .92.286 1.394.108.471-.176 1.66-.394 1.564-.592-.094-.2.4-1.033.89-1.445.49-.415 1.672-1.321 1.522-1.58-.157-.249-.298-.99-.41-1.103-.111-.11-.295-.26-.16-.074.145.182-.239.517-.317.394-.076-.124-.797.372-1.106.966l-.58.056-.262.025c-.225-.095-.508-.263-.623-.374-.118-.11-.564-.66-.61-.615-.044.048.037.363.292.586.265.225.792.798.941.672.144-.132.47.31.325.442-.138.13-.55-.043-.527-.075.023-.034-.168-.014-.291.133-.127.15-.578.15-.69.042-.115-.116-.585-.49-.795-.588l-.2-.062c-.138-.034-.45-.2-.588-.227l-.73-.152c-.795.041-1.058.092-.593.11.473.019 1.496.34 1.33.329-.157-.014-.065.426.02.385.083-.037.278.372.216.573-.063.205.258.85.09.932-.162.08-.55-.312-.43-.427.12-.109-.203-.49-.464-.562-.27-.06-1.026.232-1.16.148-.123-.084-.133.177.244.394.375.21-.134.798-.515.55-.377-.245-.87-.89-.912-.652-.04.24-.635.786-.556 1.09.083.298.062 1.34.276 1.685.213.347.476 1.286.324 1.333-.155.05-.571.63-.76.652-.192.023-.814.433-1.014.296-.206-.142-.888-.696-1.082-.936-.195-.237-.457-1.122-.277-1.437.183-.314.967-.846.942-.963-.027-.128-.269-.441-.478-.43-.202.006-.897-.363-1.025-.217-.126.15-.51.108-.546-.055-.03-.153.057-.723.02-.936-.04-.21.366-.771.371-.824.004-.051-.337.028-.596.3-.257.279-.81.895-.791.76.018-.137-.067-.552-.268-.613-.196-.061-.638-.749-.52-.89.116-.151-.251-.554-.335-.503-.074.042-.632-.058-.803-.315-.171-.258-.902-1.098-.863-1.266.036-.171.466-.496.515-.369.05.122.155.438.274.431.119-.007.66.025.935.096.271.068 1.092.831 1.22.825.117-.009.5.166.586.404.085.233.393.767.237.546-.158-.219.306-.847.213-.994-.092-.144-.204-.676-.122-.862.074-.183.362-.74.264-.842-.091-.103-.364-.077-.434-.235-.067-.157-.388-.646-.563-.488-.176.16-.885-.098-1.127-.343-.246-.244-1.052-.804-1.291-1.17-.235-.362.03-1.317-.045-1.387-.074-.074-.222-.335-.155-.405a.67.67 0 0 0 .133-.573c-.066-.298-.464-1.416-.435-1.797.024-.379-.01-1.473.013-1.574.018-.104.23-.27.245-.512.01-.242.184-.998.327-1.141.144-.145.682-.514.876-.498.19.014.866.06 1.066-.054.203-.11 1.126-.292 1.579-.542.458-.246 1.268.207 1.292-.073.027-.274-.454-1.092-.337-1.145.116-.05.508-.234.619-.122.115.112.44.143.473-.185.035-.321.462-1.41.694-1.694.234-.29.757-.71.597-.604-.168.104-.487-.526-.26-.611.229-.088.918-1.076.902-1.439-.02-.365-.083-1.38.09-1.424.169-.045.58-.163.52-.323-.059-.16.43-.429.565-.287.13.144.422.157.375.01-.043-.144-.16-.589.075-.657.237-.07.7-.292.517-.237-.179.056-.666-.385-.613-.52.053-.132.168-.602.101-.744-.07-.146-.085-.643-.033-.79.055-.153.281-.776.47-1.036.189-.262.398-.965.519-.941.12.026.364-.235.283-.415-.081-.178.329-.743.178-.932-.15-.188-.04-.641.134-.634.175.005.807-.291 1.031-.496.229-.209.724-.78.947-.775.225.003.858.314.896.471.031.153.663.37 1.109.092l.258-.166c.138-.093.212-.283.352-.35l.277-.134c.325-.157 6.14.067 8.218.535M67.668 10.79c.238.127.447.253.464.287.008.034-.058.076-.168.018-.108-.052-.33.225-.274.441.056.21-.535.167-.667-.052-.135-.218-.704-.874-.601-.94.102-.066 1.006.12 1.246.246M74.313 23.231c-.055.08-.158-.017-.225-.213-.07-.197.201-.595.03-.749-.166-.153-.192-.574-.04-.626.148-.056.735.174.92.07.177-.102.591.537.442.751-.153.21-.192.772-.298.729-.105-.043-.778-.048-.83.038M78.228 27.2c.247.062.344.162.218.225-.122.056-.575.221-.541.366.035.14-.05.271-.566-.047-.518-.319-.728-1.569-.5-1.72.231-.137.854.279.801.405-.055.128.339.708.588.771M76.101 26.949c.168.206.444.586.618.844.172.256.217.888.266.882.053-.011.134.023.074.123-.06.1-.059.394-.32.397-.255.008-1.104.673-1.367.602-.264-.07-.857-.928-.705-1.507.15-.576-.542-2.273-.323-2.37.22-.099.874-.08.959.06.089.145.634.763.798.969M78.06 30.34c.155-.016-.118.182-.598.442-.483.265-1.796 1.189-1.889 1.045-.09-.145.062-.664.458-.828.404-.168 1.874-.638 2.03-.658M70.37 20.779c.046.23-.05.34-.216.248-.165-.099-.615-.398-.646-.646-.038-.252.818.17.863.398M71.694 21.395c.297-.191.624-.151.723.078.097.234.222.856.017.86-.208.008-1.04-.754-.74-.938M79.252 23.87c.403.442-.138 1.191-.657 1.265-.5-.455.165-1.186.657-1.265"/>
        <path fill="#A4CE4C" d="M70.102 14.558c-.12.354-.265.651-.337.661-.07.007-.27.326-.302.548-.034.218.117.86-.055.892-.174.026-.579-.4-.481-.494.096-.096.264-.226.152-.07-.109.159-.413-.272-.377-.546.041-.276.197-1.197.205-1.451.003-.257.125-.99.08-1.046-.045-.06-.2-.362-.402-.575-.199-.212-.895-.812-.832-.876.064-.064.565.031.969.352.409.317 1.499 2.245 1.38 2.605M64.9 9.485c.477.197.947.406 1.416.627-.445.113-.92-.19-1.417-.627M71.145 30.465c-.6.08-.91.12-.69.094.217-.029.027-.456.133-.409.109.05.672-.112 1.053.03l.368.108.343.093c.596-.042 1.379.048 1.74.204.365.15.624.886.355.914-.273.022-2.705-1.106-3.302-1.034M66.046 32.89c-.11-.296-.029-.527.18-.522.21.008.822.382.873.526.053.144-.945.287-1.053-.004M67.308 46.614c.2.284.34.574.324.645-.017.07.142.333.235.426.094.093.453.528.595.755.137.23.46 1.186.376 1.337-.076.15-.64.376-.871.186-.233-.192-1.123-.753-1.18-.912-.063-.16-.364-.638-.506-.696-.14-.054-.588-.753-.645-1.037-.059-.28.052-1.195-.093-1.45-.147-.254-.244-.758-.037-.568.2.19 1.608 1.028 1.802 1.314M57.236 76.215c-.353-.318.001-.81.352-.35-.12.122-.23.234-.352.35M27.001 38.879c.098.337.185.74.197.895.013.16.006.53-.147.472-.165-.056-.65.224-.767.338-.113.11-.826-.012-1.328-.527-.516-.516-2.034-.984-2.026-1.203.011-.223-.342-.456-.322-.66.019-.208-.154-.65-.418-.53-.274.13-.876-.27-.703-.413.18-.144-.092-.454-.082-.296.013.157-.623.311-.74.17-.115-.148-.574-.582-.771-.647-.192-.061-.952-.485-1.191-.295-.246.187-.894.504-.857.632.03.12-.477.502-.714.61-.233.108-.73-.297-.538-.523.195-.229.553-.77.396-.709-.151.062-.59.429-.78.475-.2.046-.184.325-.306.287-.127-.036-.432.107-.438-.117-.012-.228.42-.726.546-.992.117-.265.123-.899-.004-.789-.131.106-.4-.723-.258-1.305.146-.575 1.207-2.282 1.46-2.545.257-.26 1.084-1.085.923-1.191-.161-.112-.414-.624-.285-.855.127-.232.911-1.094 1.267-1.411.352-.319.814-1.277.932-1.36.112-.085.523-.218.63-.39.11-.175.794-.668 1.032-.906.241-.237.776-.085.608.199-.17.277.224.892.31.659.091-.24.713-.735.851-.727.14.013.597-.28.722-.442.123-.16.434.296.335.459-.098.165-.279.737-.238.894.043.16-.19.577-.067.62.127.04.47.573.475.713-.003.135-.13.354.098.218.233-.146.769.302.62.46-.154.16.032.87.573 1.21.54.335.42 1.378.557 1.382.143.008.453.448.35.468-.107.017-.175.084.058.058.23-.026.161.574-.093.672-.253.102-.911.465-.902.568.012.106.084.326.367.279.288-.05.457-.29.451-.031-.014.26.28 1.13.244 1.437-.038.309-.38 1.231-.39 1.387-.003.16-.043.694-.09.85-.042.159-.56.534-.48.677.074.147.836 1.44.933 1.775M28.762 22.071c.116-.085.362-.154.546-.148.185.006.396-.325.734-.42.341-.094 1.092.804.829.941-.266.133-.87.41-.718.67.155.259.487 1.032.355 1.166-.125.139-.63-.018-.775.09-.15.107-.562.008-.577-.233-.013-.245-.468-.736-.48-.508-.015.22-.421.733-.495.667-.077-.068-.516-.35-.68-.303-.178.05-.558-.47-.46-.841.102-.376.725-.437.555-.516-.167-.072-.017-.65.226-.762.242-.113.82.277.94.197M28.132 21.235c-.09-.084.174-.47.595-.864.417-.39 1.722-1.221 1.722-1.044.009.173-.072.888-.485 1.188-.41.3-1.74.8-1.832.72M34.85 37.104c.136.116.144.348.03.515-.114.162-.426.499-.59.378-.168-.127-.5-.553-.363-.609.138-.053-.13-.616-.051-.694.078-.08.842.29.974.41M30.778 33.73c-.139.198-.41.277-.613.172-.199-.099-.694.253-.736.098-.04-.154-.276-.502-.28-.4.004.1-.279.2-.213.017.065-.188-.342-.721-.167-.7.176.014.74-.251.884-.373.145-.129.686-.7.893-.631.216.063.726.833.624.968-.104.128-.257.65-.392.848M37.52 17.924c-.012-.245.088-.79.218-1.212.128-.42.798-1.552.783-1.605-.015-.052-.023-.262.056-.336.079-.083.396-.05.523.253.127.301-.378 1.375-.358 1.768.021.403-.26 1.535.063 1.682.326.152 1.142.685 1.105.77-.045.083-.206.363-.478.41-.276.057-1.034.027-1.075-.144-.046-.183-.825-1.342-.837-1.586M35.25 15.226c-.556-.494.028-1.526.685-.886-.373.287-.076.91-.684.886M41.123 9.586c-.109-.126.068-.544.398-.92.328-.38 1.033-.262.839.03-.199.29-1.122 1.018-1.237.89M19.042 45.318c.106.037-.085.124-.426.188-.337.064.076 1.016-.103 1.166-.18.15-.695-.216-.693-.39-.001-.176.022-.655.142-.68.124-.018.974-.323 1.08-.284M34.985 58.514c.097-.098.224-.028.288.148.064.18-.288.55-.365.478-.077-.075-.02-.53.077-.626M32.658 60.102c-.138.212-.468.357-.731.325-.26-.027-.968.383-1.017.574-.052.19-.532.545-.579.424-.052-.127-.053-.658.189-.897.24-.245 1.016-.881 1.187-.894.172-.006.704-.12.806-.151.102-.031.614.039.872-.257.262-.297 1.127.132.935.274-.185.142-.187.568-.343.581-.158.007-.661.335-.806.268-.155-.068-.379-.455-.513-.247M32.88 60.942c.172-.007.242.055.145.142-.086.082-.406.491-.477.418-.076-.071.159-.544.333-.56M31.04 59.597c-.062.063-.175.05-.256-.021-.074-.08-.159-.316-.022-.37.137-.054.343.326.278.39M31.435 58.96c-.167-.15-.264-.312-.219-.36.046-.046.267-.14.373-.096.108.044.011.61-.154.455M32.565 59.021c-.04.09-.158.077-.256-.018-.088-.094-.227-.382-.09-.436.135-.057.585.072.662-.028.076-.098.25.107.181.337-.072.222-.445.066-.497.145M82.306 24.666c.247.428.358.687.253.58-.112-.111-.733-.357-1.144-.31-.41.05-1.548.263-1.601.44-.055.181-.304.016-.266-.104.039-.114-.124-.431 0-.403.129.035.448-.381.478-.502.036-.119.08-.534.193-.644.11-.114.517-.447.651-.484.134-.04 1.192 1.006 1.436 1.427"/>
        <path fill="#D0EAF9" d="M14.733 39.91c-.051 0-.076.187.016.187.054.018.08-.171-.016-.186M26.309 45.674c-.055-.015-.082.182.01.194.059 0 .086-.194-.01-.194"/>
    </g>
</svg>
