<svg xmlns="http://www.w3.org/2000/svg" viewBox="0 0 419.6 372.62"><defs><style>.cls-1{isolation:isolate;}.cls-14,.cls-2{fill:#b77eb4;}.cls-21,.cls-3{fill:#fff;}.cls-4{fill:#1f77b9;}.cls-5{fill:#fac8ca;}.cls-6{fill:#00afec;}.cls-7{fill:#a975a8;}.cls-8{fill:#ac77aa;}.cls-9{fill:#a572a4;}.cls-10{fill:#f9c2c7;}.cls-11{fill:#f7b2ba;}.cls-11,.cls-14,.cls-17,.cls-19{mix-blend-mode:multiply;}.cls-12{fill:#5f2b70;}.cls-13{fill:#793683;}.cls-14{opacity:0.58;}.cls-15{fill:#fbb35a;}.cls-16{fill:none;}.cls-17{fill:#d1d3d4;}.cls-18{fill:#df2927;}.cls-19{fill:#e6e7e8;}.cls-20{fill:#00205f;}.cls-21{opacity:0.35;}</style></defs><title>Fichier 1</title><g class="cls-1"><g id="Calque_2" data-name="Calque 2"><g id="Layer_1" data-name="Layer 1"><path class="cls-2" d="M43.45,310.12a112.67,112.67,0,0,0-16.12.58H49.82c1-.86,2-1.69,2.94-2.5a75.38,75.38,0,0,0-7.64-6.9A38,38,0,0,1,55,306.38h0a37.86,37.86,0,0,0-11-5.42C25.74,295.3,9.48,299.49,0,310.7H12.66C26.79,303.41,43.45,310.12,43.45,310.12Z"/><path class="cls-3" d="M43.45,310.12s-16.66-6.71-30.79.58H27.33A112.67,112.67,0,0,1,43.45,310.12Z"/><path class="cls-4" d="M69.25,295.93l-6.58-1.55a24.92,24.92,0,0,0,.48,6c2.32-1.57,4.56-3,6.69-4.26Z"/><path class="cls-5" d="M75.1,309.76l-.55.94h8.28l-.13-.36a28.4,28.4,0,0,0-3.63-6.84,21.46,21.46,0,0,0-9.23-7.34c-2.13,1.27-4.37,2.69-6.69,4.26A30.65,30.65,0,0,0,67.1,310.7h7.45c.18-.32.37-.63.55-.94l.43-.73.78-1.27c-.26.42-.52.83-.78,1.27ZM77,306.65l0,0,0,0Z"/><path class="cls-6" d="M117,310.7c-3.65-10.91-3.24-23.65-.85-35.33a71.41,71.41,0,0,0-18.76,8.72h0a20.86,20.86,0,0,0-1.79,1.25c-.61.45-1.35,1-2.21,1.77.86-.73,1.6-1.32,2.21-1.77a27.45,27.45,0,0,0-3.33-1.72c-12.76-1-29.63,10.75-29.63,10.75a25.3,25.3,0,0,1,6.58,1.55l.7.16-.11.07a21.46,21.46,0,0,1,9.23,7.34,28.4,28.4,0,0,1,3.63,6.84l.72.36h18l0,0v0ZM88.5,291.77c.64-.66,1.25-1.27,1.84-1.84l.31-.3-.31.3C89.75,290.5,89.14,291.11,88.5,291.77Z"/><path class="cls-7" d="M317.44,73.06s-18.23-37-58.71-45.87S206.07,33,206.07,33Z"/><path class="cls-7" d="M266.91,48.4S223.76,2.74,159.1,33.87,90.2,105.93,26.56,90.8c0,0,22.38,86,104.9,57.4C184.57,129.78,266.91,48.4,266.91,48.4Z"/><path class="cls-8" d="M234.22,62S193,28.59,135.14,71.05s-52.56,90.22-117.89,87c0,0,26.27,70.11,102.14,26.83C168.21,157.06,234.22,62,234.22,62Z"/><path class="cls-9" d="M232.63,50.34C64.3,37.8,103.91,210.61,25,233.46c0,0,47.95,65.13,95.23-28.52C153.22,139.67,278,86.42,232.63,50.34Z"/><path class="cls-2" d="M224.09,63.12c-168.37,12-93.22,175.94-167.95,210,0,0,46,58.78,79.17-40.73C158.46,163,274.23,92.25,224.09,63.12Z"/><path class="cls-5" d="M333.42,164.53S377.22,119.26,388,79a19,19,0,0,0-19.34-24c-20.3,1.08-68,19.94-99.52,52.45"/><path class="cls-3" d="M324.49,153.51c-10.32-22-28.49-25.65-28.49-25.65s50.23-44.67,67.72-48.25C394,73.42,338,147.6,324.49,153.51Z"/><path class="cls-10" d="M70,219.22c-11.15-83.54,34.89-139,100.77-150.15,57-9.65,141.53,3.43,170.81,77.25,16.06,40.5,19.15,95.75,4.2,135-21.76,57.13-69.17,61-115.25,74.7a1.48,1.48,0,0,0-.9.77c-38.14,6.49-88.63-10.56-117.42-43.69A181.84,181.84,0,0,1,70,219.22Z"/><path class="cls-11" d="M70,219.22C61.93,158.61,84,112.8,121.82,88c-47.6,35.68-50.54,139.2,47.64,127.78C196.6,247,203.71,334.45,239.67,328.34a1.39,1.39,0,0,1,.84-.73c43.45-12.95,88.14-16.56,108.65-70.42a129.79,129.79,0,0,0,5.8-20.54c-1.1,15.93-4,31.23-9.16,44.65-21.76,57.13-69.17,61-115.25,74.7a1.48,1.48,0,0,0-.9.77c-38.14,6.49-88.63-10.56-117.42-43.69A181.84,181.84,0,0,1,70,219.22Z"/><path class="cls-11" d="M326.46,241.83s40.72,18.37,22.51,67-83.65,67.65-155.77,46-79.11-62.72-82-87.63c-4-34.46,17.41-60.82,51-66.31,21.78-3.57,58.63,1.17,98.29,13.41C299.8,226.45,326.46,241.83,326.46,241.83Z"/><circle class="cls-3" cx="187.37" cy="183.27" r="43.17"/><circle class="cls-3" cx="326.67" cy="215.97" r="40.26"/><circle class="cls-12" cx="326.67" cy="223.04" r="30.46"/><circle class="cls-13" cx="326.67" cy="223.04" r="17.03"/><circle class="cls-3" cx="337.75" cy="212.41" r="10.45"/><circle class="cls-3" cx="317.09" cy="234.31" r="4.52"/><path class="cls-10" d="M194.66,92.27S166.83,30.69,131,4.05a20.42,20.42,0,0,0-31.54,9.81c-6.94,20.67-7,75.66,13,120"/><path class="cls-3" d="M180.15,96.82c-26.07,1.58-36.84,18.27-36.84,18.27S118.6,47.34,122,28.48C127.73-4.11,179.58,81.05,180.15,96.82Z"/><path class="cls-2" d="M275.73,71.35c3.46-9.43,12.95-14.88,23.32-14.07,11.61.91,28.62,7,44.31,30.66,27.24,41.08,5.83,83.42,5.83,83.42s-6.08-52.8-50.53-70.23C274.58,91.69,272.54,80,275.73,71.35Z"/><path class="cls-2" d="M276.67,69.19c4-8.09,12.83-12.66,22.38-11.91,11.61.91,28.62,7,44.31,30.66,27.24,41.08,5.83,83.42,5.83,83.42C356.05,93.92,302.55,74.19,276.67,69.19Z"/><path class="cls-2" d="M276.67,69.19c25.88,5,79.38,24.73,72.52,102.17,0,0-6.08-52.8-50.53-70.23C274.58,91.69,272.54,80,275.73,71.35A21,21,0,0,1,276.67,69.19Z"/><path class="cls-14" d="M276.67,69.19c25.88,5,79.38,24.73,72.52,102.17,0,0-6.08-52.8-50.53-70.23C274.58,91.69,272.54,80,275.73,71.35A21,21,0,0,1,276.67,69.19Z"/><path class="cls-2" d="M251.11,64.1c4-9.38,14-13.87,24.73-11.72,12,2.39,29.28,10.85,44.45,37.4A91.21,91.21,0,0,1,329,161.29a4.78,4.78,0,0,1-9.24-.15c-4.66-18.31-16.56-47.67-46.24-63.21C249,85.11,247.43,72.75,251.11,64.1Z"/><path class="cls-2" d="M217.78,53.63c-2.88-8.54-11.43-13.18-21-12-10.71,1.3-26.55,7.58-41.73,30A80.65,80.65,0,0,0,142.54,134a4.22,4.22,0,0,0,8.15.49c5.36-15.82,17.84-40.89,45.06-52.57C218.19,72.29,220.44,61.5,217.78,53.63Z"/><path class="cls-14" d="M218.37,55.83,194.2,81.25,192.94,81l-1,2.64s-27.68,11.89-41.28,50.82c0,0-.85,2.59-1.39-.93C165.69,55.57,218.37,55.83,218.37,55.83Z"/><path class="cls-2" d="M242.17,53.12c-3.71-8.22-12.67-12-22.08-9.9-10.53,2.35-25.68,10.15-38.58,33.91a80.65,80.65,0,0,0-6.33,63.37,4.23,4.23,0,0,0,8.16-.31c3.78-16.28,13.74-42.45,39.68-56.75C244.41,71.65,245.58,60.69,242.17,53.12Z"/><path class="cls-14" d="M243,55.25,221.42,82.92l-1.28-.08-.71,2.72s-26.37,14.55-36.09,54.63c0,0-.59,2.66-1.47-.79C190.52,60.16,243,55.25,243,55.25Z"/><path class="cls-2" d="M258.89,54.33c-5.56-5.37-13.91-5.52-20.73-.86-7.64,5.22-17.23,16.25-19.95,39.28a69.21,69.21,0,0,0,15.12,52.5,3.63,3.63,0,0,0,6.41-2.85c-2.17-14.17-2.57-38.18,13.55-57.82C266.58,68.38,264,59.27,258.89,54.33Z"/><path class="cls-14" d="M260.21,55.77l-8.36,28.9-1,.34.3,2.39s-16.38,20-11.36,55c0,0,.38,2.31-1.43-.15C220,76.37,260.21,55.77,260.21,55.77Z"/><path class="cls-15" d="M301.39,126.49S338.11,11,320.1,1.07c-15.62-8.61-62.91,79.36-75.18,102.84a16,16,0,0,0-.08,14.73c2.67,5.2,7.85,11.5,17.84,15.72C282.39,142.68,296.62,142.31,301.39,126.49Z"/><path class="cls-16" d="M303.71,121.18s-40.88,0-46.36-40.34"/><path class="cls-16" d="M276.79,47.55s-1.91,36,34.17,46"/><path class="cls-16" d="M318.09,64.88s-25.72-3.43-26.84-39.25"/><path class="cls-16" d="M323.76,34.43S300,39,302.69,11.09"/><path class="cls-17" d="M318.29,2s-15,22.39.95,30c0,0-16.53,3.7-16.71-18.61C302.53,13.36,313.89-4.36,318.29,2Z"/><path class="cls-17" d="M300.47,17.63s-10.78,29.92,16.16,47c0,0-24.41-7.78-25.58-36.44Z"/><path class="cls-17" d="M288.82,32.28s-9.86,45.92,18.91,59c0,0-25.58-3.58-31.33-38.9Z"/><path class="cls-17" d="M274.37,55.63s-17.1,53,24.25,65.13c0,0-37.63-4.36-41.47-37.43Z"/><path class="cls-17" d="M243.42,108.16s-4.85,24.75,41.75,31.77c0,0-37.52-12.35-29.31-52.8Z"/><path class="cls-3" d="M318.06,4.89s6.26,2.86,1.32,25.26c0,0-3.11,1.1-.63-7.65S319.54,8.39,317.9,7,318.06,4.89,318.06,4.89Z"/><path class="cls-3" d="M318.7,38.74s-2.77,18-4.95,20S317,38.61,317,38.61,319,36.71,318.7,38.74Z"/><path class="cls-3" d="M312.48,68.33s-3.4,17.9-6.54,19.91S310,68.13,310,68.13,312.89,66.3,312.48,68.33Z"/><path class="cls-3" d="M303.67,96.33s-5.12,20.28-9,18.38c-2.75-1.33,3.23-13.87,5.32-18.33A2.51,2.51,0,0,1,302.8,95C303.44,95.14,303.92,95.51,303.67,96.33Z"/><path class="cls-3" d="M291.61,123.8a2.11,2.11,0,0,1,1.57,2.93c-1.29,3.5-4.08,10.16-7.24,8.93s2-8.17,3.88-11a2,2,0,0,1,1.73-.88Z"/><circle class="cls-12" cx="187.37" cy="190.64" r="30.46"/><circle class="cls-13" cx="187.37" cy="190.64" r="17.03"/><circle class="cls-3" cx="198.45" cy="180.01" r="10.45"/><circle class="cls-3" cx="177.8" cy="201.92" r="4.52"/><path class="cls-5" d="M329,247.85s41.37,16.83,25,66.14S272.9,384.72,200,365.79s-81.4-59.72-85.21-84.51C109.56,247,130,219.86,163.3,213.11c21.63-4.38,58.64-1,98.73,9.72C301.75,233.48,329,247.85,329,247.85Z"/><path d="M206.73,253.48s4.77-11.63,12.26-12.33,3,7.29-.26,7.44S210.44,249.47,206.73,253.48Z"/><path d="M304.54,282.37s1.48-12.48-4.73-16.72-6.17,4.91-3.38,6.62S303.24,277.07,304.54,282.37Z"/><circle class="cls-12" cx="251.2" cy="316.03" r="15.3"/><path class="cls-18" d="M247.5,308.74a15.24,15.24,0,0,0-11.43,5.15,15.07,15.07,0,0,0-.17,2.14,15.28,15.28,0,0,0,26.72,10.15,15.17,15.17,0,0,0-15.12-17.44Z"/><path class="cls-19" d="M255.2,329.66a15.28,15.28,0,0,1-7.82-28.42A15.28,15.28,0,1,0,259,329.16,15.1,15.1,0,0,1,255.2,329.66Z"/><path class="cls-20" d="M281,164.53c-30.48,24.26-35.3,68.91-10.77,99.74s69.13,36.14,99.61,11.88,35.31-68.91,10.77-99.73S311.46,140.27,281,164.53Zm81.17,102c-25.22,20.07-62.11,15.66-82.41-9.84s-16.3-62.44,8.91-82.51,62.12-15.67,82.41,9.83S387.36,246.45,362.14,266.52Z"/><ellipse class="cls-21" cx="325.39" cy="220.34" rx="60.5" ry="61.18" transform="translate(-66.42 250.55) rotate(-38.51)"/><path class="cls-21" d="M294.68,253.36c-18.75-23.55-15.06-57.66,8.23-76.19a53.14,53.14,0,0,1,28.92-11.44,53.41,53.41,0,0,0-37.62,11.44c-23.29,18.54-27,52.65-8.23,76.2a54.61,54.61,0,0,0,47.18,20.52A54.62,54.62,0,0,1,294.68,253.36Z"/><rect class="cls-20" x="368.76" y="269.43" width="13.1" height="39.28" transform="translate(-98.36 296.59) rotate(-38.51)"/><rect class="cls-18" x="376.18" y="276.54" width="25.38" height="59.7" rx="11.65" ry="11.65" transform="translate(-106.19 308.8) rotate(-38.51)"/><path class="cls-21" d="M367.77,291.11a5.53,5.53,0,0,0,.49,6l25.3,31.78c1.28,1.62,3.63,1.56,5.3,1.26Z"/><path class="cls-5" d="M411.43,274.44l.7.49a17.76,17.76,0,0,1,7.13,17.93A113.39,113.39,0,0,1,415.51,307c-14.52,43.26-60.27,21.81-39.1-8.27a64.17,64.17,0,0,0,7.87-15.51A17.84,17.84,0,0,1,411.43,274.44Z"/><path class="cls-12" d="M413.77,311.55c-16.09,37.1-57.74,16.14-37.36-12.82l.66-1C387.43,296,402.21,296.94,413.77,311.55Z"/><path class="cls-5" d="M42.63,290.07l-.69.5a17.77,17.77,0,0,0-7.14,17.92,115.77,115.77,0,0,0,3.75,14.15c14.53,43.25,60.28,21.8,39.11-8.28a64.17,64.17,0,0,1-7.87-15.51A17.85,17.85,0,0,0,42.63,290.07Z"/><path class="cls-12" d="M40.3,327.18c16.09,37.1,57.74,16.14,37.36-12.82-.23-.32-.44-.64-.66-1C66.64,311.62,51.86,312.57,40.3,327.18Z"/></g></g></g></svg>