<svg xmlns="http://www.w3.org/2000/svg" width="72" height="72" viewBox="0 0 72 72">
    <g fill="none" fill-rule="evenodd" transform="translate(6 6)">
        <circle cx="30" cy="30" r="32.885" fill="#F0F1F7" stroke="#FFF" stroke-width="5.769"/>
        <path fill="#2E3B50" fill-rule="nonzero" d="M30.23 27.554a3.393 3.393 0 1 0 .001 6.785 3.393 3.393 0 0 0 0-6.785zm9.047-3.392h-2.714c-.373 0-.775-.29-.893-.644l-.702-2.105c-.118-.354-.52-.644-.893-.644h-7.689c-.373 0-.775.29-.893.644l-.701 2.105c-.119.354-.52.644-.894.644h-2.713a2.268 2.268 0 0 0-2.262 2.261V36.6a2.268 2.268 0 0 0 2.262 2.262h18.092a2.268 2.268 0 0 0 2.261-2.262V26.423a2.268 2.268 0 0 0-2.261-2.261zM30.23 36.6a5.654 5.654 0 1 1 0-11.308 5.654 5.654 0 0 1 0 11.308zm8.254-8.595a.792.792 0 1 1 0-1.584.792.792 0 0 1 0 1.584z" opacity=".3"/>
        <path fill="#B5BAC4" stroke="#F0F1F7" stroke-width="1.531" d="M37.552 22.106v-1.357a1.818 1.818 0 1 1 3.635 0v1.357h1.357a1.818 1.818 0 0 1 0 3.635h-1.357v1.357a1.818 1.818 0 0 1-3.635 0V25.74h-1.357a1.818 1.818 0 1 1 0-3.635h1.357z"/>
    </g>
</svg>
