<?xml version="1.0" encoding="UTF-8"?>
<svg width="198px" height="233px" viewBox="0 0 198 233" version="1.1" xmlns="http://www.w3.org/2000/svg" xmlns:xlink="http://www.w3.org/1999/xlink">
    <!-- Generator: Sketch 55 (78076) - https://sketchapp.com -->
    <title>Group 2</title>
    <desc>Created with Sketch.</desc>
    <defs>
        <polygon id="path-1" points="0 0 45.8007835 0 45.8007835 73.2693626 0 73.2693626"></polygon>
        <rect id="path-3" x="0" y="0" width="40.412456" height="28.041361" rx="1.56419153"></rect>
        <filter x="-21.0%" y="-23.2%" width="142.1%" height="160.6%" filterUnits="objectBoundingBox" id="filter-4">
            <feOffset dx="0" dy="2" in="SourceAlpha" result="shadowOffsetOuter1"></feOffset>
            <feGaussianBlur stdDeviation="2.5" in="shadowOffsetOuter1" result="shadowBlurOuter1"></feGaussianBlur>
            <feColorMatrix values="0 0 0 0 0   0 0 0 0 0   0 0 0 0 0  0 0 0 0.13 0" type="matrix" in="shadowBlurOuter1"></feColorMatrix>
        </filter>
        <rect id="path-5" x="0" y="30.7550411" width="40.412456" height="32.5641611" rx="1.56419153"></rect>
        <filter x="-21.0%" y="-20.0%" width="142.1%" height="152.2%" filterUnits="objectBoundingBox" id="filter-6">
            <feOffset dx="0" dy="2" in="SourceAlpha" result="shadowOffsetOuter1"></feOffset>
            <feGaussianBlur stdDeviation="2.5" in="shadowOffsetOuter1" result="shadowBlurOuter1"></feGaussianBlur>
            <feColorMatrix values="0 0 0 0 0   0 0 0 0 0   0 0 0 0 0  0 0 0 0.13 0" type="matrix" in="shadowBlurOuter1"></feColorMatrix>
        </filter>
    </defs>
    <g id="ABSENCES-&amp;-DELAYS-✅-" stroke="none" stroke-width="1" fill="none" fill-rule="evenodd">
        <g id="ABSENCES-&amp;-DELAY---DASHBOARD" transform="translate(-325.000000, -458.000000)">
            <g id="Content" transform="translate(325.000000, 329.000000)">
                <g id="attendance-level" transform="translate(0.000000, 68.000000)">
                    <g id="Illustrations" transform="translate(-209.000000, -48.000000)">
                        <g id="Group-2" transform="translate(0.481328, 0.803682)">
                            <g id="book" transform="translate(336.518672, 300.196318) scale(-1, 1) translate(-336.518672, -300.196318) translate(265.518672, 246.196318)">
                                <g id="books" transform="translate(14.882040, 0.000000)" fill-rule="nonzero">
                                    <rect id="Rectangle-path" fill="#8EC54A" x="0" y="7.29485891" width="17.0066117" height="98.947127"></rect>
                                    <polygon id="Rectangle-path" fill="#F17265" transform="translate(61.749787, 56.762171) rotate(-4.520000) translate(-61.749787, -56.762171) " points="57.5064314 7.28998779 66.009851 7.28854877 65.9931421 106.234355 57.4897225 106.235794"></polygon>
                                    <rect id="Rectangle-path" fill="#FAAF4C" x="16.4548165" y="0" width="17.0066117" height="106.241986"></rect>
                                    <rect id="Rectangle-path" fill="#2DABDF" x="33.4614283" y="11.6491545" width="20.671098" height="94.578694"></rect>
                                    <polygon id="Rectangle-path" fill="#FFDE88" points="16.6670454 13.2608094 33.4755769 13.2608094 33.4755769 28.2887843 16.6670454 28.2887843"></polygon>
                                    <polygon id="Rectangle-path" fill="#C39A6F" points="70.6014913 15.4096826 107.302948 15.4096826 107.302948 106.241986 70.6014913 106.241986"></polygon>
                                    <polygon id="Rectangle-path" fill="#FFDE88" points="70.6014913 89.6023561 107.302948 89.6023561 107.302948 91.3695216 70.6014913 91.3695216"></polygon>
                                    <polygon id="Rectangle-path" fill="#FFDE88" points="70.6014913 94.0273384 107.302948 94.0273384 107.302948 95.7945038 70.6014913 95.7945038"></polygon>
                                    <polygon id="Rectangle-path" fill="#FFDE88" points="70.6014913 31.2858968 107.302948 31.2858968 107.302948 33.0530623 70.6014913 33.0530623"></polygon>
                                    <polygon id="Rectangle-path" fill="#FFDE88" points="70.6014913 35.7108791 107.302948 35.7108791 107.302948 37.4780445 70.6014913 37.4780445"></polygon>
                                    <rect id="Rectangle-path" fill="#215265" x="109.312049" y="10.6312672" width="17.3603266" height="95.3421095" rx="5.73774765"></rect>
                                    <polygon id="Rectangle-path" fill="#387283" points="111.901241 19.4670944 124.069034 19.4670944 124.069034 22.5631683 111.901241 22.5631683"></polygon>
                                    <polygon id="Rectangle-path" fill="#387283" points="111.901241 25.348221 124.069034 25.348221 124.069034 28.4442948 111.901241 28.4442948"></polygon>
                                    <polygon id="Rectangle-path" fill="#387283" points="111.901241 86.2235358 124.069034 86.2235358 124.069034 89.3196097 111.901241 89.3196097"></polygon>
                                    <polygon id="Rectangle-path" fill="#387283" points="111.901241 92.1046624 124.069034 92.1046624 124.069034 95.2007362 111.901241 95.2007362"></polygon>
                                </g>
                                <g id="cactus" transform="translate(0.806164, 28.129325)">
                                    <path d="M12.6447071,11.4240539 C9.18505774,12.7901071 15.7615083,13.4115551 17.3935787,11.4268851 C19.8941033,8.383347 15.5659998,6.68321244 16.8084701,8.79103955 C17.5565024,10.060832 19.5399213,8.90853427 18.7876389,7.63449506 C17.4686653,5.39784844 15.8890138,3.02813549 13.1618127,2.45623345 C10.9503006,1.99191693 8.90737909,3.16686421 7.80941503,5.06093584 C5.65173857,8.78679275 8.10267769,15.6666045 13.2539,13.6338042 C14.6111253,13.0987077 14.0203498,10.8818795 12.6447071,11.4240539" id="Fill-267" fill="#63873B"></path>
                                    <path d="M31.7290225,22.533959 C32.3438823,21.6845995 28.5753863,24.5950713 29.3390026,25.0055951 C30.4993027,25.6284587 27.9534428,25.1075182 27.9321919,26.4268566 C27.8868566,29.2438989 33.3044238,30.5349253 30.8945698,28.9168955 C29.6662668,28.0916012 28.5173005,30.0762712 29.7371031,30.8944875 C33.9178669,33.7030361 39.4643563,29.6190326 38.8806645,24.8527104 C38.4018105,20.9456568 32.5039726,17.5736997 29.7498537,21.3788301 C28.8828163,22.5750114 30.8719021,23.7188155 31.7290225,22.533959" id="Fill-268" fill="#63873B"></path>
                                    <path d="M17.646748,42.0226538 C21.1899842,41.9447958 25.9473562,41.8088983 25.9473562,41.8088983 C25.5067539,43.2202506 27.7196827,43.8232959 28.1588684,42.4176059 C30.5857231,34.6587071 37.7940342,2.3391634 19.562164,7.50185342 C4.94153291,11.6410653 9.12796361,34.8455662 16.0260113,43.6435148 C16.9355506,44.8014749 18.5477869,43.1707047 17.646748,42.0226538" id="Fill-269" fill="#6DA041"></path>
                                    <path d="M6.2548396,5.21013999 C6.87536638,5.65463812 7.49730989,6.10055184 8.1192534,6.54646557 C8.62219178,6.90744335 9.39572516,6.63423271 9.68757109,6.13594182 C10.026169,5.55979298 9.78107513,4.92985136 9.27672003,4.56887359 C8.65477652,4.12295986 8.03283301,3.67704614 7.41230622,3.23254801 C6.90795112,2.87157023 6.13583446,3.14478086 5.8425718,3.64307176 C5.50680731,4.2192206 5.75048449,4.84774661 6.2548396,5.21013999" id="Fill-270" fill="#35332D"></path>
                                    <path d="M24.0738754,6.86143637 C24.1687961,7.23090775 24.1546289,7.55932675 24.0483743,7.92596692 C23.6389399,9.34581285 25.8504521,9.95168927 26.2584697,8.53609014 C26.4766457,7.78016021 26.4794792,7.01148988 26.2853875,6.25272875 C25.9198717,4.82580483 23.7069429,5.43026566 24.0738754,6.86143637" id="Fill-271" fill="#35332D"></path>
                                    <path d="M7.24966587,24.7146895 C7.96086323,25.1563564 8.75848099,25.3743587 9.59293368,25.3842679 C11.0691641,25.3984238 11.0705808,23.1079845 9.59293368,23.0924129 C9.14949787,23.0881661 8.78256537,22.9692557 8.40571577,22.7370975 C7.14907819,21.958518 5.99586175,23.9389411 7.24966587,24.7146895" id="Fill-272" fill="#35332D"></path>
                                    <path d="M20.4940875,20.1444277 C20.4062504,20.6101598 20.3184133,21.0773075 20.2319929,21.5430396 C20.1172379,22.1503316 20.4005835,22.7788577 21.0324441,22.9515607 C21.5906349,23.1058611 22.3273333,22.7632861 22.4420883,22.1517472 C22.5299254,21.6860151 22.6177625,21.220283 22.7055996,20.7531353 C22.8189379,20.1458433 22.537009,19.5187329 21.9051484,19.3446142 C21.3455409,19.1917295 20.6088425,19.5328889 20.4940875,20.1444277" id="Fill-273" fill="#35332D"></path>
                                    <path d="M16.4056944,29.7771551 C16.7301251,30.6774761 17.2528976,31.3541325 18.0320979,31.9090474 C18.536453,32.2686095 19.307153,31.9982301 19.6004156,31.4985236 C19.9361801,30.9237904 19.6939197,30.2910176 19.1881478,29.9314554 C18.9317201,29.7474275 18.7220444,29.4614765 18.6172065,29.1684474 C18.4061141,28.5866362 17.8365895,28.1945152 17.2061456,28.3686339 C16.6437047,28.5229342 16.194602,29.1925126 16.4056944,29.7771551" id="Fill-274" fill="#35332D"></path>
                                    <path d="M37.0120005,20.7575237 C36.7654898,21.1439822 36.5189792,21.5304408 36.2724686,21.9183149 C35.4776843,23.1654578 37.4596865,24.3163399 38.2516373,23.0748594 C38.498148,22.6869853 38.7446586,22.3005267 38.9911692,21.9126525 C39.7859535,20.6669253 37.8039513,19.5160432 37.0120005,20.7575237" id="Fill-275" fill="#35332D"></path>
                                    <path d="M36.0567009,30.1462018 C36.3088785,30.3896848 36.4718022,30.6303367 36.6262255,30.9488465 C36.8968205,31.5051769 37.6901881,31.6538148 38.1945432,31.3593702 C38.7640678,31.0267044 38.877406,30.3514636 38.606811,29.792302 C38.3773011,29.3194919 38.0557039,28.8919809 37.6788543,28.5253408 C36.6177251,27.4990314 34.994155,29.1170612 36.0567009,30.1462018" id="Fill-276" fill="#35332D"></path>
                                    <path d="M33.6880737,27.0793062 C33.9501683,26.8315764 34.2108462,26.5852622 34.4729409,26.3375323 C35.5468206,25.3211321 33.9232505,23.7031023 32.8522043,24.7180869 C32.5901096,24.9644012 32.3294317,25.212131 32.0659203,25.4598608 C30.9934574,26.476261 32.6170274,28.0942908 33.6880737,27.0793062" id="Fill-277" fill="#35332D"></path>
                                    <path d="M31.0427595,15.7988215 C31.4663611,15.542598 31.8899627,15.2863746 32.3121476,15.0301511 C33.5730354,14.2671432 32.4226524,12.2853044 31.1560977,13.0525592 C30.7324961,13.307367 30.3088945,13.565006 29.8852929,13.8212295 C28.6244051,14.5842374 29.7762048,16.5660762 31.0427595,15.7988215" id="Fill-278" fill="#35332D"></path>
                                    <path d="M14.4355927,21.0824037 C14.735939,21.4221475 14.9937835,21.7774628 15.2332105,22.1625058 C16.010994,23.4124798 17.9958297,22.2630133 17.2123792,21.0073769 C16.8723645,20.45954 16.4827644,19.9456776 16.057746,19.4615427 C15.646895,18.9986417 14.8535274,19.0453565 14.4355927,19.4615427 C13.9737394,19.9244436 14.0247416,20.6166715 14.4355927,21.0824037" id="Fill-279" fill="#35332D"></path>
                                    <path d="M21.2336194,11.8678443 C21.0352776,12.5133575 20.9205226,13.1602863 20.8312687,13.828449 C20.7505153,14.4428191 21.4163773,14.9736687 21.9774015,14.9736687 C22.6645145,14.9736687 23.0427809,14.4442347 23.1249511,13.828449 C23.1844536,13.3712105 23.3091257,12.9168032 23.4451316,12.4765519 C23.8786503,11.0637839 21.6657214,10.4593231 21.2336194,11.8678443" id="Fill-280" fill="#35332D"></path>
                                    <path d="M24.75943,30.5001015 C25.1447799,30.1688513 25.5584644,29.8857315 25.9962333,29.6266769 C27.2656215,28.8778249 26.1138218,26.8974018 24.8387667,27.6490849 C24.2338239,28.0058159 23.6699663,28.422002 23.1386933,28.8792405 C22.6683397,29.2841019 22.7235921,30.0867466 23.1386933,30.5001015 C23.6047968,30.9658337 24.2890763,30.9049629 24.75943,30.5001015" id="Fill-281" fill="#35332D"></path>
                                    <path d="M20.295604,37.485517 C20.9161307,37.5548814 21.5267404,37.4982574 22.1359334,37.3666067 C22.7422929,37.2363716 23.0936414,36.5299876 22.9363846,35.9580855 C22.7649605,35.3323907 22.1330999,35.0266213 21.5267404,35.158272 C21.1144726,35.2474548 20.7135387,35.2417924 20.295604,35.1950776 C19.6793274,35.1257133 19.1480544,35.7712265 19.1480544,36.3402973 C19.1480544,37.0169537 19.6764939,37.4161526 20.295604,37.485517" id="Fill-282" fill="#35332D"></path>
                                    <path d="M9.59392539,34.6977776 L11.3775857,34.6977776 C12.8523994,34.6977776 12.8552328,32.4059226 11.3775857,32.4059226 L9.59392539,32.4059226 C8.117695,32.4059226 8.11627827,34.6977776 9.59392539,34.6977776" id="Fill-283" fill="#35332D"></path>
                                    <path d="M29.0587739,35.9876716 C29.7600541,36.3613897 30.4585009,36.5539112 31.2433682,36.6473408 C31.8596448,36.7223675 32.3909177,36.0683607 32.3909177,35.5021211 C32.3909177,34.8226335 31.8624782,34.4305125 31.2433682,34.3569014 C30.8835193,34.3144334 30.5335875,34.1785359 30.2162405,34.0100796 C28.9128509,33.3178516 27.7539675,35.294028 29.0587739,35.9876716" id="Fill-284" fill="#35332D"></path>
                                    <path d="M13.4270242,1.55010844 C13.2881848,2.28905119 13.2272655,3.01950034 13.2981019,3.76835228 C13.3561878,4.3841379 13.7826228,4.91357197 14.4442347,4.91357197 C15.0194262,4.91357197 15.6484534,4.3883847 15.5903675,3.76835228 C15.5407821,3.23042461 15.5379486,2.69249694 15.6371196,2.15881607 C15.7518745,1.55152404 15.4685289,0.92441363 14.8366683,0.750294937 C14.2784776,0.597410231 13.5417791,0.938569621 13.4270242,1.55010844" id="Fill-285" fill="#35332D"></path>
                                    <path d="M7.65017482,13.1273028 C7.8428498,12.8640014 8.16303029,12.8385206 8.4435424,12.8555078 C9.06123573,12.8908977 9.5896752,12.3034241 9.5896752,11.7102881 C9.5896752,11.0605281 9.06406918,10.5990428 8.4435424,10.5636528 C7.29882632,10.4985352 6.3297845,11.0732685 5.67100606,11.9707583 C5.30265683,12.4690492 5.58600239,13.2476287 6.08185713,13.5378265 C6.66271553,13.8775703 7.28182559,13.6270093 7.65017482,13.1273028" id="Fill-286" fill="#35332D"></path>
                                    <path d="M11.7592522,8.47889994 C13.2354826,8.47889994 13.2368993,6.18846055 11.7592522,6.18846055 C10.2844385,6.18846055 10.2816051,8.47889994 11.7592522,8.47889994" id="Fill-287" fill="#35332D"></path>
                                    <path d="M36.6702857,45.6811282 C36.5413635,44.5217525 3.74411456,39.7341962 3.87587025,40.9063123 C5.20476094,52.7846046 6.53506836,64.6614813 7.86395905,76.538358 C7.89371033,76.8059062 8.02121584,77.0069213 8.18838972,77.1513124 C8.33431268,77.3565743 8.56098913,77.5052122 8.89108672,77.5052122 L34.7237017,77.5052122 C35.3598125,77.5052122 35.6389079,77.3721458 35.8074985,76.9248165 C35.9406709,76.5482672 36.0228411,76.1136782 36.0568426,75.7696876 C37.069803,65.7557394 37.8858382,55.7276352 38.5049482,45.6811282 C38.5772014,44.5033497 36.7425388,44.5075965 36.6702857,45.6811282" id="Fill-288" fill="#9F7958"></path>
                                    <path d="M42.2306591,39.5688542 C41.5166282,38.8044307 40.0432313,38.6699488 37.208359,38.6699488 L6.3406933,38.6699488 C3.45906892,38.6699488 2.12167787,38.7463911 1.4203976,39.4782559 C0.80270427,40.1209379 0.842372649,41.0679737 0.907542129,42.6364576 C0.931626501,43.2310092 0.959961058,43.9288996 0.959961058,44.7485315 L0.955710874,45.8795952 C0.940126868,48.0681114 0.931626501,49.2727863 1.66690824,50.0131446 C2.4390249,50.7888929 3.87133672,50.8271141 6.3406933,50.8271141 L37.208359,50.8271141 C39.9879789,50.8271141 41.3579547,50.7945553 42.0762357,50.054197 C42.7038461,49.4072682 42.6755116,48.45457 42.6230927,46.727539 C42.6075087,46.1612994 42.5862577,45.5072926 42.5862577,44.7485315 C42.5862577,43.8751068 42.6372599,43.1474888 42.6825952,42.5048068 C42.777516,41.1302601 42.839852,40.2214454 42.2306591,39.5688542" id="Fill-289" fill="#B08F76"></path>
                                </g>
                            </g>
                            <g id="unicorn-2" transform="translate(237.500000, 244.000000) rotate(-28.000000) translate(-237.500000, -244.000000) translate(68.000000, 58.000000)">
                                <g id="parents-mom" transform="translate(169.701430, 185.884249) rotate(8.000000) translate(-169.701430, -185.884249) translate(22.201430, 19.384249)">
                                    <g transform="translate(147.536602, 166.325030) rotate(27.000000) translate(-147.536602, -166.325030) translate(53.036602, 28.325030)">
                                        <path d="M82.8635903,239.899826 C82.8635903,239.899826 75.979033,211.955835 57.6925898,211.044675 C44.6278184,210.398388 35.9426847,218.678285 37.2189757,230.311461 C38.4687876,241.679766 34.3857156,243.528572 26.4737705,243.555059 C26.4737705,243.555059 32.5692516,253.742034 45.3268658,251.601869 C58.3863413,249.403432 56.2733118,239.174077 65.260307,239.470734 C71.0857016,239.661441 75.2217317,244.174859 77.4406775,247.342728 C78.1354833,248.337728 79.3361033,248.850067 80.5349588,248.663145 C81.7338144,248.476224 82.7216011,247.622677 83.0807186,246.463353 C83.5467502,244.911203 83.6261874,242.792228 82.8635903,239.899826 Z" id="Shape" fill="#B77EB4" fill-rule="nonzero"></path>
                                        <path d="M52.6880462,243.0571 C54.5468767,230.87299 66.1076371,235.412895 69.825298,233.145591 C72.8915739,231.270298 75.1211113,218.66769 58.2115795,211.081757 C76.1061325,212.490876 82.8635903,239.899826 82.8635903,239.899826 C83.6261874,242.792228 83.5467502,244.911203 83.0754228,246.447461 C82.7163053,247.606785 81.7285186,248.460332 80.529663,248.647253 C79.3308075,248.834174 78.1301875,248.321836 77.4353817,247.326836 C75.2217317,244.148372 71.0804057,239.645549 65.2550111,239.454841 C56.8611471,239.179374 58.1480297,248.084369 47.704686,251.050935 C50.4163941,249.206568 52.2255515,246.304489 52.6880462,243.0571 L52.6880462,243.0571 Z" id="Shape" fill="#D1D3D4" fill-rule="nonzero" style="mix-blend-mode: multiply;"></path>
                                        <path d="M122.756952,224.124053 C122.756952,224.124053 133.666327,224.15054 137.193339,211.53204 L124.758769,211.140029 L122.756952,224.124053 Z" id="Shape" fill="#1F77B9" fill-rule="nonzero"></path>
                                        <path d="M125.558437,200.725264 C125.558437,200.725264 137.738807,219.870209 154.071096,222.910939 C170.403384,225.951669 162.390818,247.321538 144.051417,237.923881 C125.712015,228.526224 117.24401,209.905726 117.24401,209.905726" id="Shape" fill="#FAC8CA" fill-rule="nonzero"></path>
                                        <path d="M127.809158,202.187357 C134.428924,212.713369 135.191521,210.398388 137.569341,211.828696 C137.569341,211.828696 123.42952,212.432604 123.132954,224.420709 C123.132954,224.420709 119.764817,221.740205 115.64997,210.763911 C114.956219,208.909807 115.491096,206.822616 116.465525,205.106246 C117.004924,204.138592 117.6458,203.231146 118.377314,202.399255 C120.861051,199.602207 125.817932,199.024786 127.809158,202.187357 Z" id="Shape" fill="#00AFEC" fill-rule="nonzero"></path>
                                        <path d="M146.047938,238.840338 C162.946879,245.753496 169.794365,225.835125 154.071096,222.910939 L153.541514,222.80499 C149.649091,225.501387 145.168833,230.470385 146.047938,238.840338 Z" id="Shape" fill="#5F2B70" fill-rule="nonzero"></path>
                                        <path d="M117.932466,195.475502 C117.932466,195.475502 125.876186,202.362173 129.186069,219.875506 C132.294711,236.440598 129.000716,258.515027 120.961671,271.536132 C120.05198,272.996496 118.597671,274.0337 116.920965,274.417939 C113.909769,275.140623 110.806839,275.404935 107.716842,275.20196 C104.268279,274.928941 101.647804,271.985258 101.774939,268.527187 C101.917926,265.057364 101.663727,260.676382 99.8048969,258.557407 C99.8048969,258.557407 96.9186787,263.743599 88.3712361,269.014551 C86.455311,270.200445 84.1359142,270.545301 81.9580062,269.96809 C79.2465498,269.237044 75.5288889,267.721976 72.7803618,264.628272 C70.7411018,262.346259 70.1297899,259.123656 71.1916178,256.253021 C74.0831319,248.45519 80.120359,227.821665 73.4423385,204.995 C73.4423385,204.995 71.3240132,194.039896 88.1276287,188.175631 C104.931244,182.311366 117.932466,195.475502 117.932466,195.475502 Z" id="Shape" fill="#FAC8CA" fill-rule="nonzero"></path>
                                        <path d="M73.4635217,205.010892 C73.4635217,205.010892 71.7370866,196.005246 83.9704152,189.934381 C89.9917549,212.930564 106.620609,221.824964 117.620013,215.891832 C122.386245,213.317277 122.179708,205.911457 120.20437,198.007678 C122.815206,201.387444 136.621391,221.342897 133.512748,244.243726 C108.701863,253.360619 84.4788133,244.678116 74.5862341,237.457707 C76.1643865,227.78988 77.3188738,218.217408 73.4635217,205.010892 Z" id="Shape" fill="#00AFEC" fill-rule="nonzero"></path>
                                        <path d="M95.0015943,40.7584963 C95.0015943,40.7584963 66.2559199,25.8409078 38.2516593,51.3162923 C10.2473987,76.7916769 -0.699047352,103.178221 9.6542676,124.309705 C20.0075825,145.44119 12.2333287,153.615138 8.59510494,155.850658 C0.0900288256,161.068635 2.24012901,189.658914 27.9407108,190.935597 C53.6412926,192.212279 38.2728425,202.060219 38.2728425,202.060219 C38.2728425,202.060219 57.9150139,201.530475 50.453213,188.864298 C50.453213,188.864298 52.3014519,183.529777 54.6369055,188.535857 C56.9723592,193.541937 56.2997909,197.477934 54.6369055,198.675155 C54.6369055,198.675155 67.7493392,199.877674 69.6981985,188.202118 L69.6981985,204.385794 C69.6981985,204.385794 88.6042519,197.652749 88.6307309,192.927434 C88.65721,188.202118 132.374149,207.919186 145.031142,202.060219 C145.031142,202.060219 139.565863,202.261521 143.627752,183.890003 C147.689641,165.518484 145.031142,183.000033 145.031142,183.000033 C145.031142,183.000033 144.077896,199.57572 154.717185,197.891134 C154.717185,197.891134 148.685253,190.962084 168.692836,175.901465 C188.700419,160.840845 194.997141,130.581873 181.646395,115.696069 C168.29565,100.810266 174.369948,77.4538568 161.638813,70.2652319 C148.907678,63.0766071 133.740468,22.7366085 95.0015943,40.7584963 Z" id="Shape" fill="#A975A8" fill-rule="nonzero"></path>
                                        <path d="M123.715494,38.04091 C123.715494,38.04091 107.54208,23.4941423 86.0093034,27.1016983 C64.4765266,30.7092543 61.3837716,40.260537 61.3837716,40.260537 L123.715494,38.04091 Z" id="Shape" fill="#A975A8" fill-rule="nonzero"></path>
                                        <path d="M153.271428,84.6689688 C153.271428,84.6689688 174.396427,59.0558508 178.378878,37.474084 C178.952304,34.3196538 177.989056,31.0806629 175.785208,28.7526766 C173.58136,26.4246903 170.400602,25.2862519 167.2206,25.6872821 C156.602494,27.1016983 132.352965,38.9997465 117.127502,57.4030498" id="Shape" fill="#FAC8CA" fill-rule="nonzero"></path>
                                        <path d="M148.123897,79.254986 C141.768921,68.0985793 132.088175,66.9649274 132.088175,66.9649274 C132.088175,66.9649274 156.60779,41.394189 165.647743,38.7825515 C181.270393,34.2691334 154.950201,75.5891582 148.123897,79.254986 Z" id="Shape" fill="#FFFFFF" fill-rule="nonzero"></path>
                                        <path d="M17.3173094,104.529068 C19.965216,85.8979746 32.415673,72.7444334 45.8723346,63.2620175 C72.9392362,44.1912368 117.365814,35.2544571 149.299568,63.8500332 C166.913443,79.6258068 177.976397,107.077136 180.470725,129.342273 C183.722354,158.388131 165.642448,174.900249 146.3498,187.614102 C144.644548,188.742457 142.928704,189.844324 141.212861,190.962084 C141.477223,191.472057 141.356676,192.096903 140.921591,192.471854 C124.239779,205.058569 96.0077988,206.684883 74.3108518,198.43677 C56.665202,191.767295 41.1961314,176.860301 30.4509263,159.934983 C19.7057212,143.009665 14.7276567,122.794638 17.3173094,104.529068 Z" id="Shape" fill="#FAC8CA" fill-rule="nonzero"></path>
                                        <path d="M29.296439,75.9546815 C12.5457816,131.47714 59.1913049,146.802632 69.0150386,137.463247 C77.2870989,129.617739 94.4349423,120.940534 114.908556,114.684259 C135.223296,108.45447 151.078961,107.267844 151.078961,107.267844 C151.078961,107.267844 166.759864,104.534365 175.704493,118.551389 C175.640943,115.65369 176.980784,117.883912 177.558027,121.92056 C178.673349,124.315616 179.541073,126.818413 180.14768,129.389949 C185.973075,153.360861 167.490686,178.189958 135.662849,191.126304 C134.799631,191.740807 133.931118,192.360608 133.073196,192.991003 C132.891351,193.121274 132.775325,193.324382 132.755447,193.547234 C114.479596,203.739507 85.6703713,204.142112 65.0166995,192.487746 C48.5947235,183.058398 35.2426885,169.087892 26.5637994,152.253697 C11.5236897,122.794638 14.4840493,95.4598522 29.296439,75.9546815 Z" id="Shape" fill="#FAC8CA" fill-rule="nonzero" opacity="0.77" style="mix-blend-mode: multiply;"></path>
                                        <ellipse id="Oval" fill="#FFFFFF" fill-rule="nonzero" cx="156.231787" cy="104.301278" rx="21.2203238" ry="21.2268384"></ellipse>
                                        <ellipse id="Oval" fill="#5F2B70" fill-rule="nonzero" cx="156.496578" cy="105.154166" rx="16.3428798" ry="16.347897"></ellipse>
                                        <ellipse id="Oval" fill="#793683" fill-rule="nonzero" cx="156.496578" cy="105.154166" rx="9.14057371" ry="9.14337985"></ellipse>
                                        <ellipse id="Oval" fill="#FFFFFF" fill-rule="nonzero" cx="161.029794" cy="98.2674949" rx="5.60826626" ry="5.60998798"></ellipse>
                                        <ellipse id="Oval" fill="#FFFFFF" fill-rule="nonzero" cx="152.826579" cy="112.194462" rx="2.42548248" ry="2.4262271"></ellipse>
                                        <ellipse id="Oval" fill="#FFFFFF" fill-rule="nonzero" cx="85.0295779" cy="115.4259" rx="21.2203238" ry="21.2268384"></ellipse>
                                        <ellipse id="Oval" fill="#5F2B70" fill-rule="nonzero" cx="86.0569657" cy="115.865588" rx="16.3428798" ry="16.347897"></ellipse>
                                        <ellipse id="Oval" fill="#793683" fill-rule="nonzero" cx="86.0569657" cy="115.865588" rx="9.14057371" ry="9.14337985"></ellipse>
                                        <ellipse id="Oval" fill="#FFFFFF" fill-rule="nonzero" cx="90.584886" cy="108.978917" rx="5.60826626" ry="5.60998798"></ellipse>
                                        <ellipse id="Oval" fill="#FFFFFF" fill-rule="nonzero" cx="82.3869671" cy="122.905884" rx="2.42548248" ry="2.4262271"></ellipse>
                                        <path d="M118.869825,201.021921 C158.434846,195.512584 186.359669,172.749488 185.168111,146.458298 C183.976553,120.167108 160.373113,120.442575 160.373113,120.442575 C160.373113,120.442575 144.226179,119.08643 122.598077,121.936453 C104.438734,124.325598 88.3023905,128.68539 77.710764,133.717957 C87.8681338,127.8378 105.614404,122.762853 125.955623,120.331329 C147.477808,117.756773 163.608855,119.446656 163.608855,119.446656 C163.608855,119.446656 187.143449,119.579092 188.795743,146.919175 C190.448037,174.259258 162.999837,197.414365 123.65724,202.436337 C111.720477,203.956702 102.299225,203.326307 94.7632827,201.408634 C101.388345,202.362173 109.316178,202.362173 118.869825,201.021921 Z" id="Shape" fill="#FAC8CA" fill-rule="nonzero"></path>
                                        <path d="M62.082819,69.6454316 C62.082819,69.6454316 36.4034204,44.9699603 13.6473108,38.957367 C10.3186715,38.0747393 6.76879155,38.838111 4.09683691,41.0111158 C1.42488227,43.1841206 -0.0467192625,46.5045394 0.137691145,49.9442556 C0.794371991,61.4185087 11.5501687,88.3347966 29.9954864,106.09711" id="Shape" fill="#FAC8CA" fill-rule="nonzero"></path>
                                        <path d="M55.8761258,74.693891 C43.4256688,80.6005356 41.434443,90.8775674 41.434443,90.8775674 C41.434443,90.8775674 16.0727933,62.5733504 14.0180177,52.6883291 C10.4539354,35.604088 52.5079886,67.1132557 55.8761258,74.693891 Z" id="Shape" fill="#FFFFFF" fill-rule="nonzero"></path>
                                        <path d="M163.608855,119.451954 C163.608855,119.451954 187.143449,119.579092 188.795743,146.919175 C190.448037,174.259258 162.999837,197.414365 123.65724,202.436337 C84.3146431,207.458309 72.1342726,189.166252 65.4032939,177.782055 C56.1091416,162.038067 60.7694573,144.763118 75.7566089,134.920476 C85.479722,128.537062 104.242788,122.927074 125.955623,120.331329 C147.477808,117.756773 163.608855,119.451954 163.608855,119.451954 Z" id="Shape" fill="#FAC8CA" fill-rule="nonzero"></path>
                                        <path d="M169.333629,140.752956 C169.333629,140.752956 167.797844,134.31127 163.953083,133.336542 C160.108323,132.361813 161.797687,136.885826 163.487052,137.230159 C165.176416,137.574493 167.728998,138.363811 169.333629,140.752956 Z" id="Shape" fill="#000000" fill-rule="nonzero"></path>
                                        <path d="M104.915357,146.161642 C104.915357,146.161642 104.963019,139.539843 108.495327,137.733416 C112.027634,135.926989 111.392136,140.710577 109.81928,141.441623 C108.246423,142.17267 105.942745,143.47584 104.915357,146.161642 Z" id="Shape" fill="#000000" fill-rule="nonzero"></path>
                                        <path d="M102.865877,42.6337897 C103.194217,37.6594944 106.689454,33.4692201 111.704589,31.8164191 C117.794775,29.8086897 127.735016,29.2789458 140.736238,37.9614484 C163.317586,53.0326626 161.453459,79.1066577 161.453459,79.1066577 C148.457533,38.2951871 117.07984,39.6619264 102.865877,42.6337897 Z" id="Shape" fill="#B77EB4" fill-rule="nonzero"></path>
                                        <path d="M102.865877,42.6337897 C117.07984,39.6619264 148.457533,38.2951871 161.453459,79.1066577 C161.453459,79.1066577 147.128284,53.567704 120.834571,54.1822069 C106.59413,54.5106481 103.083005,49.0277987 102.828806,43.9263648 C102.834102,43.4919748 102.839398,43.0575848 102.865877,42.6337897 Z" id="Shape" fill="#B77EB4" fill-rule="nonzero"></path>
                                        <path d="M102.865877,42.6337897 C117.07984,39.6619264 148.457533,38.2951871 161.453459,79.1066577 C161.453459,79.1066577 147.128284,53.567704 120.834571,54.1822069 C106.59413,54.5106481 103.083005,49.0277987 102.828806,43.9263648 C102.834102,43.4919748 102.839398,43.0575848 102.865877,42.6337897 Z" id="Shape" fill="#A86CA5" fill-rule="nonzero"></path>
                                        <path d="M90.6590274,45.4838119 C90.6960981,39.8685265 94.8427199,35.4504623 100.721073,34.263836 C107.309064,32.9341787 117.905987,33.5433842 131.267324,43.7992263 C142.275604,52.1126176 149.385241,64.585596 150.930678,78.2961496 C151.04813,79.4702686 150.374978,80.5805131 149.279812,81.0189593 C148.184647,81.4574056 146.93161,81.1183052 146.206813,80.1873353 C139.93657,71.870356 127.671466,59.4902408 109.263219,57.911604 C94.074827,56.608434 90.6325483,50.6647073 90.6590274,45.4838119 Z" id="Shape" fill="#B77EB4" fill-rule="nonzero"></path>
                                        <path d="M71.4934792,47.2637515 C68.210075,43.5555441 62.8824868,43.0258002 58.253946,45.6268428 C53.0905281,48.5669215 46.3807326,55.1304485 43.4256688,69.7301906 C40.9233766,81.6614148 43.4296493,94.0970333 50.3578884,104.126463 C50.9559608,104.984373 52.0520966,105.338739 53.0389818,104.993223 C54.0258669,104.647708 54.6618395,103.686918 54.594539,102.64318 C53.9484498,93.4574202 54.9546543,78.0630623 66.2929905,66.3345321 C75.6824675,56.6825981 74.5226844,50.696492 71.4934792,47.2637515 Z" id="Shape" fill="#B77EB4" fill-rule="nonzero"></path>
                                        <path d="M72.2666679,48.2543726 L65.3821107,66.3186398 L64.6936549,66.477563 L64.7625005,68.0297126 C64.7625005,68.0297126 53.2546983,79.9913301 54.6316097,102.64318 C54.6316097,102.64318 54.7534134,104.137057 53.7260256,102.468364 C45.4539653,59.3313177 72.2666679,48.2543726 72.2666679,48.2543726 Z" id="Shape" fill="#A86CA5" fill-rule="nonzero"></path>
                                        <path d="M83.779766,41.8126866 C80.1468381,38.4276231 74.7768834,38.4170282 70.4554998,41.4842454 C65.6098306,44.9169859 59.5726035,52.0791236 58.0738883,66.911953 C56.7504532,79.0297436 60.4654399,91.1588763 68.3477661,100.455337 C69.0239144,101.263118 70.1576893,101.516777 71.113431,101.074099 C72.0691727,100.631422 72.6092392,99.6024771 72.4308381,98.5641515 C70.8844607,89.4896383 70.3707668,74.0687932 80.5069534,61.2807753 C88.8637467,50.7494664 87.12672,44.9328783 83.779766,41.8126866 Z" id="Shape" fill="#B77EB4" fill-rule="nonzero"></path>
                                        <path d="M84.6429835,42.7238462 L79.580186,61.3708317 L78.9129136,61.603919 L79.1353377,63.1348789 C79.1353377,63.1348789 68.8455725,76.1453893 72.4308381,98.5800438 C72.4308381,98.5800438 72.6956288,100.058029 71.5093666,98.4952848 C59.0430222,56.3859415 84.6429835,42.7238462 84.6429835,42.7238462 Z" id="Shape" fill="#A86CA5" fill-rule="nonzero"></path>
                                        <path d="M92.5337453,38.8620131 C88.5618854,37.3257557 84.2934599,39.0209362 81.8150192,42.8456873 C79.0453089,47.1207206 76.519206,54.7702226 80.0462176,67.0496864 C82.8503902,77.1232897 89.6661517,85.6034744 98.8993129,90.5067466 C99.6950761,90.9376156 100.681031,90.7792702 101.301965,90.120878 C101.922899,89.4624859 102.023542,88.4686842 101.54722,87.6991039 C97.4429642,80.9607614 92.1471509,68.866708 96.1243067,55.4271051 C99.4288942,44.3660523 96.1931523,40.260537 92.5337453,38.8620131 Z" id="Shape" fill="#B77EB4" fill-rule="nonzero"></path>
                                        <path d="M93.508175,39.3175928 L95.4093719,55.7820335 L94.953932,56.1793414 L95.6159086,57.3288857 C95.6159086,57.3288857 91.548724,70.9750888 101.54722,87.6991039 C101.54722,87.6991039 102.230379,88.7903764 100.789918,87.9215964 C77.4671566,58.345994 93.508175,39.3175928 93.508175,39.3175928 Z" id="Shape" fill="#A86CA5" fill-rule="nonzero"></path>
                                        <path d="M126.331626,65.4710496 C126.331626,65.4710496 121.666014,1.75345233 110.910217,0.429092565 C101.58429,-0.720451715 95.6847542,51.5970566 94.2654763,65.4922393 C93.9825452,68.2200748 95.0432691,70.9151802 97.109328,72.7179462 C99.4394858,74.7309731 103.204809,76.8022718 108.918992,76.9082205 C120.214961,77.1201181 127.099519,74.1641471 126.331626,65.4710496 Z" id="Shape" fill="#FBB35A" fill-rule="nonzero"></path>
                                        <path d="M126.42695,62.4197247 C126.42695,62.4197247 106.445847,70.4559397 95.8542202,51.7665747" id="Shape"></path>
                                        <path d="M98.8304673,31.6627934 C98.8304673,31.6627934 104.947132,49.6423016 124.557528,47.4597567" id="Shape"></path>
                                        <path d="M122.433907,32.0495064 C122.433907,32.0495064 109.194374,35.4133802 101.610769,18.1066468" id="Shape"></path>
                                        <path d="M119.235236,16.0406455 C119.235236,16.0406455 108.532397,22.9273163 104.354001,8.74607192" id="Shape"></path>
                                        <path d="M110.21117,1.25549306 C110.21117,1.25549306 107.282585,15.1400809 116.566146,15.7227992 C116.566146,15.7227992 109.204965,20.7712586 104.745891,9.8956162 C104.724707,9.89031876 106.805962,-1.00651342 110.21117,1.25549306 Z" id="Shape" fill="#CD944A" fill-rule="nonzero"></path>
                                        <path d="M104.555241,12.3801151 C104.555241,12.3801151 105.143077,29.1359149 121.655422,32.1872398 C121.655422,32.1872398 108.188169,33.1672661 102.002659,19.3727347 L104.555241,12.3801151 Z" id="Shape" fill="#CD944A" fill-rule="nonzero"></path>
                                        <path d="M101.721981,21.8307464 C101.721981,21.8307464 105.900378,46.2413457 122.534527,46.9988795 C122.534527,46.9988795 109.321473,50.2568045 99.5877686,34.1049128 L101.721981,21.8307464 Z" id="Shape" fill="#CD944A" fill-rule="nonzero"></path>
                                        <path d="M99.2329491,36.0914524 C99.2329491,36.0914524 101.245358,65.3598033 123.858481,63.2090431 C123.858481,63.2090431 104.592312,68.4482103 96.2355188,53.0273652 L99.2329491,36.0914524 Z" id="Shape" fill="#CD944A" fill-rule="nonzero"></path>
                                        <path d="M94.3819841,67.865492 C94.3819841,67.865492 96.8657206,80.9236794 121.035812,75.2289323 C121.035812,75.2289323 100.255041,76.5373998 96.3520267,55.1357459 L94.3819841,67.865492 Z" id="Shape" fill="#CD944A" fill-rule="nonzero"></path>
                                        <path d="M110.682497,2.70169393 C110.682497,2.70169393 114.304834,2.87121198 116.280172,14.8010448 C116.280172,14.8010448 114.972106,15.9505891 114.4743,11.1828939 C113.976493,6.41519872 112.091184,4.1214076 111.010838,3.76647918 C109.930492,3.41155077 110.682497,2.70169393 110.682497,2.70169393 Z" id="Shape" fill="#FFFFFF" fill-rule="nonzero"></path>
                                        <path d="M117.604125,19.1396474 C117.604125,19.1396474 119.770113,28.4684376 119.113432,29.9199359 C118.456751,31.3714342 116.767387,19.3992219 116.767387,19.3992219 C116.767387,19.3992219 117.37111,18.0801596 117.604125,19.1396474 Z" id="Shape" fill="#FFFFFF" fill-rule="nonzero"></path>
                                        <path d="M120.363244,34.8359594 C120.363244,34.8359594 122.206187,44.2654009 121.062291,45.8652275 C119.918396,47.4650541 119.118728,35.2226724 119.118728,35.2226724 C119.118728,35.2226724 120.167299,33.7658767 120.363244,34.8359594 Z" id="Shape" fill="#FFFFFF" fill-rule="nonzero"></path>
                                        <path d="M121.538915,50.2673994 C121.538915,50.2673994 123.011151,61.1907188 120.723359,61.0317956 C119.134615,60.9205494 119.58476,53.6153809 119.733042,51.0196358 C119.774735,50.4010155 120.238321,49.8933318 120.850459,49.7959273 C121.194687,49.7270606 121.501844,49.7959273 121.538915,50.2673994 Z" id="Shape" fill="#FFFFFF" fill-rule="nonzero"></path>
                                        <path d="M121.025221,66.0749576 C121.358967,66.0049493 121.706374,66.0919736 121.967748,66.3110579 C122.229122,66.5301422 122.375568,66.8570663 122.365061,67.1980147 C122.423315,69.1633646 122.365061,72.9722233 120.569781,72.9881156 C118.7745,73.0040079 119.928987,68.6071335 120.320878,66.8536812 C120.391353,66.4944466 120.647546,66.199835 120.993446,66.0802551 L121.025221,66.0749576 Z" id="Shape" fill="#FFFFFF" fill-rule="nonzero"></path>
                                        <path d="M150.819466,161.095122 L118.93867,164.024606 C118.93867,164.024606 122.884051,182.374935 136.833223,181.092955 C150.782395,179.810975 150.819466,161.095122 150.819466,161.095122 Z" id="Shape" fill="#4E1E5D" fill-rule="nonzero"></path>
                                        <path d="M146.328617,174.746623 C144.385053,177.803245 141.371735,180.324826 136.690236,180.753919 C128.915982,181.469073 124.44102,175.705459 122.084383,170.879492 C134.37067,169.242584 141.980754,171.976062 146.328617,174.746623 Z" id="Shape" fill="#BD2232" fill-rule="nonzero"></path>
                                        <path d="M144.130854,161.995687 C143.950796,163.749139 142.282615,165.243017 140.132515,165.439022 L130.23464,166.339587 C128.08454,166.535592 126.172751,165.375453 125.674945,163.690868 L144.130854,161.995687 Z" id="Shape" fill="#FFFFFF" fill-rule="nonzero"></path>
                                        <path d="M74.5862341,237.484194 C74.5862341,237.484194 76.9852375,226.078808 75.9048916,216.90894 C75.9048916,216.90894 82.2333885,215.038944 84.4205594,211.982322 C84.4205594,211.982322 80.7134901,238.363569 88.826676,244.503301 C88.826676,244.503301 79.3471703,241.822796 74.5862341,237.484194 Z" id="Shape" fill="#0097CA" fill-rule="nonzero"></path>
                                        <path d="M90.3571661,198.182493 C90.3571661,198.182493 97.9725455,219.033214 88.826676,233.25154 L86.9201832,233.25154 C86.9201832,233.25154 96.6115215,220.940292 88.4083068,198.182493 L90.3571661,198.182493 Z" id="Shape" fill="#515254" fill-rule="nonzero"></path>
                                        <path d="M74.4326555,212.114758 C75.3064647,213.084189 72.4096549,224.155837 76.2226404,233.25154 L77.710764,231.943073 C77.710764,231.943073 75.6877633,226.740987 75.952554,213.635123 L74.4326555,212.114758 Z" id="Shape" fill="#515254" fill-rule="nonzero"></path>
                                        <path d="M92.7455778,233.25154 C92.7455778,233.25154 79.8873432,227.864044 70.6938114,232.282109 C70.6938114,232.282109 67.1509123,240.795093 67.6804936,248.174426 L86.9201832,252.587193 C86.9201832,252.587193 93.8206279,249.239211 92.7455778,233.25154 Z" id="Shape" fill="#515254" fill-rule="nonzero"></path>
                                        <path d="M92.7455778,233.25154 L86.9201832,243.136561 L69.9047352,241.033478 C69.9047352,241.033478 69.4810701,236.339947 70.7149946,232.298001 C70.6938114,232.282109 78.4786569,228.213675 92.7455778,233.25154 Z" id="Shape" fill="#7E8083" fill-rule="nonzero"></path>
                                        <path d="M75.7301298,200.561043 C83.6738497,199.088355 85.3314393,195.263604 87.3173692,193.314147 C87.3173692,193.314147 87.3173692,193.510152 87.2908902,193.843891 L87.4974269,193.155224 C88.2229533,193.579019 88.8902258,194.008111 89.5204276,194.447799 C94.5991125,190.967381 99.6354309,186.305635 102.421029,180.388395 L102.421029,180.356611 C102.521649,180.139416 102.627565,179.922221 102.738777,179.715621 C102.775848,179.641457 102.818215,179.57259 102.855285,179.503723 C102.892356,179.434856 103.008864,179.217661 103.088301,179.085225 L103.231288,178.846841 L103.448416,178.486615 L103.612587,178.24823 L103.829715,177.930384 L103.999181,177.702594 C104.073322,177.60724 104.142168,177.506589 104.216309,177.416532 L104.396367,177.199337 L104.618791,176.934465 C104.682341,176.865598 104.740595,176.796732 104.804145,176.733163 C104.867694,176.669593 104.952427,176.563644 105.031865,176.48948 L105.222514,176.30407 C105.296655,176.224608 105.376092,176.150444 105.45553,176.07628 L105.646179,175.906762 L105.884491,175.705459 L106.080436,175.551834 C106.159873,175.488264 106.23931,175.424695 106.324043,175.366423 L106.519988,175.223392 L106.768891,175.059172 L106.970132,174.937331 L107.219036,174.789002 L107.425572,174.677756 L107.674475,174.550618 L107.881012,174.455264 L108.135211,174.344017 L108.341748,174.264556 L108.595947,174.174499 L108.807779,174.105633 L109.061979,174.031469 L109.273811,173.978494 L109.52801,173.920222 L109.739843,173.877843 L109.994042,173.840761 L110.205874,173.808976 L110.454777,173.808976 L110.671906,173.808976 L111.370953,173.808976 L111.598673,173.808976 L111.815801,173.808976 L112.054113,173.808976 L112.250058,173.840761 L112.504257,173.88314 L112.663132,173.920222 L112.949105,173.989089 L113.028543,173.989089 C113.862717,174.212943 114.655035,174.570759 115.374588,175.048577 L115.374588,175.048577 L115.718816,175.297557 L115.745295,175.297557 C115.856507,175.382316 115.967719,175.467075 116.073635,175.557131 L116.10541,175.583618 L116.417863,175.864383 L116.444342,175.864383 C116.550259,175.959736 116.645583,176.060388 116.746204,176.166337 L116.772683,176.192824 C116.873303,176.293475 116.968628,176.404721 117.058657,176.51067 L117.058657,176.537157 C117.153981,176.648403 117.24401,176.764947 117.334039,176.881491 L117.334039,176.881491 C117.424068,177.003332 117.514097,177.119876 117.59883,177.247014 L117.59883,177.247014 C117.688858,177.374153 117.768296,177.501291 117.847733,177.62843 L117.847733,177.62843 C117.92717,177.766163 118.006607,177.898599 118.080749,178.036333 L118.080749,178.036333 C119.9131,181.463776 119.807184,186.512235 115.697633,192.000382 L115.697633,192.000382 C115.273968,192.56191 114.813232,193.128736 114.304834,193.70086 C109.547739,198.923537 103.876259,203.232312 97.5700637,206.414714 C97.6578918,207.055397 97.6756493,207.703747 97.6230219,208.348279 C97.6230219,208.348279 86.8513377,214.546283 80.9412101,214.498606 C78.9561025,214.468308 77.0591741,213.673251 75.6453968,212.278979 C74.8540289,211.508185 74.1441714,210.65787 73.5270715,209.741505 C71.4617043,206.631909 72.0495396,201.239116 75.7301298,200.561043 Z" id="Shape" fill="#FAC8CA" fill-rule="nonzero" opacity="0.39" style="mix-blend-mode: multiply;"></path>
                                        <path d="M96.7862834,211.669773 C96.7862834,211.669773 99.1535119,203.167384 88.969663,194.945758 L83.6738497,206.239898 L96.7862834,211.669773 Z" id="Shape" fill="#1F77B9" fill-rule="nonzero"></path>
                                        <path d="M73.9878072,202.028434 C73.9878072,202.028434 96.3732099,198.352011 105.587925,184.546885 C114.80264,170.741759 131.299098,186.469856 115.448729,199.660479 C99.5983602,212.851102 79.1512252,213.29079 79.1512252,213.29079" id="Shape" fill="#FAC8CA" fill-rule="nonzero"></path>
                                        <path d="M76.2120488,200.534556 C84.3040515,200.253792 86.4912224,196.704508 88.741943,195.083491 C88.741943,195.083491 85.8874997,206.679586 96.7862834,211.669773 C96.7862834,211.669773 85.1354942,216.018971 79.3100996,215.086621 C77.3629832,214.759581 75.6164199,213.695387 74.4326555,212.114758 C73.7548776,211.236184 73.1725838,210.28789 72.6956288,209.285926 C71.101589,205.90616 72.4785004,200.661695 76.2120488,200.534556 Z" id="Shape" fill="#00AFEC" fill-rule="nonzero"></path>
                                        <path d="M117.074544,198.182493 C130.075766,185.357393 114.463708,171.229123 105.587925,184.53629 C105.4926,184.679321 105.39198,184.827649 105.286064,184.97068 C106.228718,189.648319 109.040795,195.692697 117.074544,198.182493 Z" id="Shape" fill="#5F2B70" fill-rule="nonzero"></path>
                                        <path d="M46.1689001,54.9503356 C45.9456307,54.5001321 45.7458861,54.0386333 45.5704732,53.567704 C44.3573985,51.9307463 43.4594751,50.0822527 42.9225666,48.1166391 C42.3929852,45.7592788 43.2085405,42.7026564 46.1000545,42.6867641 C49.1239639,42.6867641 50.6756372,46.6810332 51.4700092,49.043691 L52.1319859,51.0143383 C53.0004992,47.3485105 55.9343798,40.9492041 60.7164992,41.8338764 C61.7617946,41.9575921 62.7052313,42.519976 63.3114477,43.3807286 C64.7479318,44.1195115 65.5533436,45.6924649 65.3132651,47.2902386 C65.0855451,49.4886759 63.1525733,51.6076515 61.9769027,53.3187243 C61.0925019,54.6112995 60.2133969,55.9038746 59.3289961,57.1858548 C60.8460781,55.7890105 62.5858913,54.6556362 64.4765266,53.8325759 C68.210075,52.216857 74.0089905,51.3798616 77.5095231,54.0179863 C80.0885841,55.9727413 80.1256548,59.34721 77.027604,60.8251955 C74.7080378,61.9323603 71.811228,61.301965 69.3592664,61.6410011 C67.0301094,61.9198843 64.7999004,62.7458051 62.8507119,64.0513359 C70.4978663,62.218422 80.2421627,65.6405676 80.9941682,73.8992751 C81.4337207,78.6669703 76.858138,80.9289768 72.8333199,78.8311909 C70.2648505,77.4909388 68.9144181,74.863409 66.7431347,73.0728746 C63.7933667,70.6466475 60.0068602,70.953899 56.5328067,70.037442 L56.5328067,70.037442 L56.3209742,70.1063088 C62.6759501,71.1657966 74.4750221,80.473397 69.9735808,87.6620219 C65.6892678,94.5063131 60.7376824,85.6278053 57.7614354,78.9371397 C58.820598,86.0145183 58.3333832,94.0189488 52.8469206,92.5780453 C48.7850319,91.5185575 48.0065473,86.7190777 48.4249166,83.1909833 C48.6314533,81.4428284 48.8909481,79.6840786 49.2563592,77.9571135 C48.5043538,79.1490373 47.7523483,80.2985815 47.0691884,81.3633668 C45.4804444,83.8107836 42.4247601,86.3111749 39.4379214,84.3670148 C33.8243594,80.7011869 39.506767,74.3018805 44.7919887,69.7566778 C43.6382812,70.1506267 42.4623304,70.4761024 41.2702728,70.7314066 C38.7282825,71.2611505 32.5480684,72.7497309 31.1023113,69.5712674 C29.1110856,65.211475 35.338962,63.4845099 41.3338226,62.6845966 C37.038918,61.8370064 33.3000739,59.6703538 33.3424404,55.4006179 C33.3636236,49.7535478 40.7777622,52.2327493 46.1689001,54.9503356 Z" id="Shape" fill="#99D8E2" fill-rule="nonzero"></path>
                                        <path d="M55.6431101,55.4112128 C55.9419482,55.4474714 56.1879888,55.6633143 56.2629258,55.9549558 C56.3378629,56.2465973 56.226364,56.5543662 55.9820421,56.7302751 C55.9820421,56.7302751 56.0244086,56.7302751 56.0455919,56.7302751 C56.3250842,56.9139743 56.5149946,57.2062676 56.5693212,57.5363526 C56.6236478,57.8664377 56.5374349,58.2042043 56.3315658,58.4678351 C55.8019845,59.1194201 54.8646255,58.997579 54.2767902,58.5314044 C53.6642483,58.0286257 53.460703,57.1797014 53.7786201,56.453691 C54.0965372,55.7276807 54.8583415,55.3017388 55.6431101,55.4112128 Z" id="Shape" fill="#FCBA6B" fill-rule="nonzero"></path>
                                        <path d="M48.9068356,57.7420859 C49.1524745,57.8308876 49.3308015,58.0457567 49.3728671,58.3036145 C49.3721476,58.3978982 49.3541997,58.4912556 49.319909,58.5790813 C49.9698267,58.8413406 50.3598309,59.5104358 50.2678596,60.2053951 C50.1795674,60.6496126 49.9059951,61.0350439 49.5158541,61.2648829 C49.7945363,61.221814 50.0775915,61.3087582 50.2840837,61.5008549 C50.490576,61.6929516 50.5977706,61.9690513 50.5750168,62.2502066 C50.7010378,62.2508189 50.8255265,62.2778899 50.9404279,62.3296682 C50.6963655,61.9666703 50.5354266,61.5542508 50.4691005,61.1218521 C50.4409637,60.8177428 50.658752,60.5460095 50.9616111,60.5073491 C50.8821739,60.2901541 50.7974409,60.0676617 50.739187,59.8398718 C50.680933,59.6120819 50.8768781,59.4690511 51.0834148,59.479646 C51.4594176,58.4201582 52.5609467,58.2347478 53.5247847,58.7697891 C53.7499756,58.9060512 53.887566,59.1501611 53.887566,59.413428 C53.887566,59.6766948 53.7499756,59.9208047 53.5247847,60.0570668 C53.6951887,60.2363924 53.806149,60.4639308 53.8425335,60.7086518 C53.9461974,61.2597642 53.6025949,61.7962274 53.0587532,61.9323603 C53.3023606,62.3773451 53.5406722,62.8276275 53.7789838,63.2832072 C54.0172954,63.738787 54.3085651,64.2526386 54.5468767,64.7453004 C54.841915,64.1478649 55.0556468,63.513599 55.1823743,62.8594121 C55.2582845,62.3329697 55.2989762,61.8020454 55.304178,61.2701804 C55.2328923,60.722645 55.2579849,60.1668532 55.3783194,59.6279743 C55.4322499,59.4950604 55.5512342,59.3996351 55.6926545,59.3758778 C55.8340747,59.3521206 55.9776941,59.403431 56.0720709,59.5114306 C56.7764141,60.2106926 56.7075685,61.5774318 56.5116234,62.605135 C56.6895006,63.4099219 56.7359988,64.2382013 56.6493146,65.0578493 C56.6493146,65.211475 56.6122439,65.3598033 56.5910606,65.5134291 C57.0366267,64.9493653 57.4418786,64.3545773 57.8038019,63.7334895 C58.1795093,62.9944727 58.506775,62.231798 58.7835273,61.4502933 C58.110959,60.9205494 57.7826186,59.8239795 58.4022288,59.1512047 C58.5583249,58.9511301 58.8220668,58.8688174 59.0642054,58.9446046 C59.4825747,59.0717432 59.3978417,59.4743485 59.38725,59.8133846 C59.3801437,59.9462217 59.3981095,60.0792094 59.4402082,60.2053951 C59.4719831,60.1630156 59.4878705,60.1153387 59.5196454,60.0782566 C59.6307684,59.927642 59.820443,59.8570541 60.0029573,59.8983908 C60.1854716,59.9397275 60.3262513,60.0851582 60.3616797,60.2689644 C60.3643128,60.297156 60.3643128,60.3255318 60.3616797,60.3537234 C60.5941087,60.1647984 60.718846,59.8736553 60.6953159,59.5749999 C60.6927333,59.5475114 60.708184,59.5214982 60.7335534,59.5106223 C60.7589228,59.4997463 60.7884098,59.5064946 60.806528,59.5273229 C61.0703838,59.8589747 61.1682765,60.2930518 61.0723192,60.7058981 C60.9763619,61.1187444 60.6970743,61.4651002 60.3140174,61.6462985 C59.9266929,63.2096798 59.1296604,64.6414871 58.0050428,65.7941933 C58.1533255,65.7941933 58.2963125,65.741219 58.4551869,65.7253266 C59.4878705,65.608783 60.9918815,65.7253266 61.9027613,66.3398296 C62.4905966,65.6193779 63.6609713,65.2803418 63.8357332,66.2709629 C63.8643347,66.4551261 63.7389692,66.6278523 63.5550551,66.6576759 C63.443843,66.6576759 63.2902644,66.6576759 63.189644,66.6576759 C62.8930784,66.562322 62.7606831,66.6576759 62.792458,66.9543325 C62.7258402,67.0366482 62.7062994,67.1474806 62.7407475,67.2476261 C62.7751956,67.3477717 62.8587757,67.4231107 62.961924,67.4469943 C63.3961807,67.8760869 64.4447517,67.5529431 64.9107833,67.3410456 C65.0537702,67.2721788 65.1596865,67.4416969 65.0908409,67.5582406 C64.6565842,68.3422615 64.0316783,68.8773029 63.104911,68.7607592 C62.4275685,68.6786986 61.8604397,68.2087068 61.6538581,67.5582406 C60.7353173,67.8337698 59.7844685,67.9869498 58.8258938,68.0138203 L57.602561,68.1356614 C58.6904057,68.731604 59.5312407,69.6947307 59.9750853,70.8532477 C60.1364111,71.0022077 60.2203708,71.2170543 60.2028053,71.435966 C60.2716509,71.6372686 60.3299048,71.8332739 60.3775671,72.0345766 C60.9509416,72.3373551 61.2354657,72.9992424 61.060727,73.6238083 C60.8277112,74.5879422 59.6891114,74.9057886 58.8417813,74.561455 C58.01098,74.2116054 57.4925096,73.3741461 57.5496028,72.474264 C57.5753244,72.3222562 57.6161272,72.1731912 57.6714065,72.0292791 C57.3710766,71.265517 56.9410875,70.5594016 56.4004114,69.9420881 C56.4004114,70.0745241 56.4004114,70.2069601 56.4004114,70.3393961 C56.4004114,71.7008379 55.87083,72.5484282 54.9334711,73.4595877 C54.8040517,73.5914356 54.598766,73.6115241 54.4462563,73.5072646 C54.4782385,73.9382482 54.4130867,74.370916 54.255607,74.7733526 C54.1113081,75.121925 53.7574836,75.3364299 53.3817978,75.3030965 C51.4964883,75.1070912 50.8980614,72.5060487 52.7833709,71.7644072 C52.9922695,71.6653037 53.2351301,71.6678303 53.441923,71.7712585 C53.6487158,71.8746866 53.7964528,72.0675188 53.8425335,72.2941511 C53.9550107,72.2634424 54.0753905,72.289105 54.1655782,72.3630178 C54.1353292,72.1152161 54.1211773,71.8657129 54.1232116,71.6160789 C54.1232116,71.1234171 54.2185363,70.6307552 54.2609028,70.132796 C54.3138609,69.4812109 54.2609028,68.8243285 54.3297484,68.1780409 C54.2736991,68.2180215 54.2077529,68.2418427 54.1390991,68.2469076 C53.5141931,68.215123 52.8257374,68.2469076 52.1319859,68.215123 C52.0426154,68.5599067 51.7251935,68.7958411 51.3693887,68.781949 C51.5233508,69.5447036 51.179064,70.3215646 50.51065,70.7196373 C49.8422361,71.11771 48.9954046,71.0502174 48.3984375,70.5512936 C47.4617508,69.7678322 47.2368188,68.4178259 47.8688562,67.3728302 C48.7638486,66.0961474 50.6756372,66.2550705 51.7824622,67.1238506 C52.6192007,67.2245019 53.461235,67.3887225 54.2185363,67.4681841 C54.3109732,67.479577 54.3958935,67.5248818 54.4568479,67.5953226 C54.4568479,67.5476457 54.4568479,67.4999687 54.4886228,67.4469943 C54.5160855,67.3690316 54.5681249,67.3021033 54.6369055,67.2562865 C54.4485096,67.0269295 54.2717594,66.7882435 54.1073242,66.5411323 C54.0234973,66.5431624 53.9445185,66.5019248 53.8982547,66.4319696 C53.8519908,66.3620144 53.8449453,66.2731755 53.8796042,66.1967987 L53.8796042,66.1967987 C53.877985,66.1827186 53.877985,66.1684993 53.8796042,66.1544192 C52.8412924,66.2117925 51.8000716,66.1869939 50.765666,66.0802551 C50.0935961,66.0389142 49.4249177,65.9539766 48.7638486,65.825978 C48.75011,65.9938825 48.6994771,66.1566812 48.6155658,66.3027475 C47.8476729,67.6377021 45.6234313,67.4099123 45.2315412,65.8895472 C44.9296798,64.7188132 46.0153215,63.2408277 47.2545418,63.9453871 C47.4285855,64.0664958 47.5347363,64.2631318 47.5405157,64.475131 C47.5656632,64.4506821 47.5921854,64.4276892 47.6199529,64.4062643 C47.9002161,64.2481857 48.2105366,64.1507296 48.5308328,64.1202026 C47.9484002,63.2907141 48.1210134,62.1497178 48.922723,61.5297549 C48.5872675,61.6277577 48.2307907,61.6277577 47.8953352,61.5297549 C46.918702,61.2106528 46.3436174,60.2022269 46.5660861,59.1988817 C46.8467642,58.1711785 47.9377017,57.3182908 48.9068356,57.7420859 Z" id="Shape" fill="#FCBA6B" fill-rule="nonzero"></path>
                                        <path d="M50.3102261,63.5692689 C51.8989701,63.5321869 53.4347559,65.1585007 54.2291279,66.7106503 C55.0023166,67.0020095 56.1726914,67.4046148 56.4745527,68.1992307 C56.4904905,68.2367214 56.4866418,68.2796994 56.4642966,68.3137597 C56.4419514,68.34782 56.4040668,68.3684551 56.3633407,68.3687487 C56.892922,69.0574158 56.9458801,70.0109549 57.0517964,70.8479502 C57.1736001,71.8438688 57.4489824,73.04109 56.5910606,73.777434 C56.5910606,73.777434 56.5486941,73.777434 56.5328067,73.777434 C57.3617906,73.884646 57.9988134,74.5640496 58.0527051,75.3984504 C58.0794823,75.8333516 57.9229077,76.2595865 57.6209954,76.5736717 C57.3190831,76.8877569 56.8994443,77.0609678 56.4639611,77.0512514 C55.7206828,77.0303453 55.1174738,76.4430724 55.076458,75.7004044 C55.2024236,75.1359132 55.5422025,74.6422282 56.0244086,74.3230703 C55.9880496,74.1837751 56.0173062,74.0354963 56.1038458,73.9204649 C55.9874276,73.9149605 55.8735928,73.8842338 55.7702096,73.8304084 C54.8275548,73.3006645 54.9016962,72.0080894 54.8434423,71.0598478 C54.7414608,70.3572059 54.7414608,69.643514 54.8434423,68.9408722 C54.6037832,69.4783885 54.3091803,69.9896638 53.9643372,70.4665346 C53.4836678,71.095208 52.9523086,71.6834261 52.3755933,72.2252844 C52.410492,72.3488632 52.3737454,72.4816001 52.2802686,72.5696179 C52.1215845,72.7083528 51.9430917,72.8226232 51.7506873,72.908654 C51.8332492,73.4520585 51.6870473,74.0053942 51.3468606,74.4370319 C51.006674,74.8686695 50.5029103,75.140027 49.9554066,75.1865528 C49.5669469,75.2412058 49.2046405,74.9793298 49.1345555,74.5932397 C49.0194403,73.6709285 49.3901903,72.7547946 50.114281,72.17231 C50.5590273,71.7736309 51.1513455,71.5812607 51.7453915,71.6425661 C52.1031276,70.9866766 52.5140484,70.3612473 52.9740202,69.7725701 C53.5558919,69.0814046 54.2151181,68.4593021 54.9387669,67.9184664 L54.6369055,67.7542458 C54.6354746,67.7789465 54.6354746,67.8037093 54.6369055,67.82841 C54.679272,68.0032254 54.4409604,68.0773896 54.3350442,67.9608459 L53.773688,67.3569379 C52.9157662,67.0496864 52.0207738,66.827194 51.1257813,66.5941066 C51.2631624,66.7934071 51.3453818,67.0255197 51.3640929,67.2668814 C51.5488291,67.4117396 51.6656922,67.6263738 51.6871375,67.8601946 C51.7125729,68.4553922 51.4480758,69.0260125 50.9774986,69.3911545 C50.4903583,69.7421182 49.8772239,69.8698385 49.2905242,69.7425634 C48.7038245,69.6152883 48.1986649,69.2449719 47.9006311,68.7236772 C47.6329235,68.2201291 47.5957811,67.6254322 47.7987523,67.0924693 C48.0017234,66.5595065 48.4250096,66.1402648 48.9597937,65.9425216 C49.6096803,65.7545723 50.3102221,65.8884247 50.8451032,66.3027475 C50.857915,66.220869 50.9221243,66.15664 51.0039776,66.1438243 C51.5349419,66.0992635 52.0695076,66.1277824 52.5927216,66.2285834 C52.4020723,66.0484704 52.2220147,65.8577626 52.0260696,65.6988394 C51.3323181,65.1690955 50.4373256,64.824762 49.9077443,64.1360949 C49.8205439,64.0079531 49.8222264,63.8390756 49.9119626,63.7126977 C50.0016988,63.5863198 50.1605514,63.5291114 50.3102261,63.5692689 L50.3102261,63.5692689 Z" id="Shape" fill="#FCBA6B" fill-rule="nonzero" style="mix-blend-mode: multiply;"></path>
                                        <path d="M61.8233241,63.5692689 C62.0863293,62.761751 62.7204917,62.1293639 63.528576,61.868791 C63.9123697,61.7135008 64.3519936,61.8623104 64.5626533,62.2188189 C64.773313,62.5753275 64.6916685,63.0323419 64.3706103,63.2938021 C64.5005656,63.5720493 64.5034257,63.8930132 64.3784496,64.1735335 C64.2534735,64.4540538 64.0129601,64.6665244 63.7192253,64.7558953 C63.8013803,64.9607295 63.7081059,65.1939869 63.5073928,65.2856392 C62.4005678,65.7094343 61.1507559,65.5134291 60.0015644,65.8736549 C58.7517524,66.260368 57.5654903,66.9596299 56.2574244,67.1238506 C56.1829079,67.1327993 56.109828,67.0983853 56.0692432,67.0352341 C56.0286585,66.9720829 56.0277,66.8912908 56.0667751,66.827194 C56.8664429,65.3280187 59.7102946,63.3997509 61.8233241,63.5692689 Z" id="Shape" fill="#FCBA6B" fill-rule="nonzero" style="mix-blend-mode: multiply;"></path>
                                        <path d="M53.2388108,58.6638403 C53.3361285,58.7087595 53.4054038,58.7983639 53.4243907,58.9038795 C53.4433777,59.0093951 53.4096863,59.1175392 53.3341355,59.1935843 C53.2866218,59.2509849 53.2292299,59.2994242 53.1646694,59.3366151 C53.005795,59.4107793 53.0958239,59.5008357 53.4241643,59.5961896 C53.5883345,59.0982304 54.3350442,59.3789946 54.1814656,59.8716565 C54.1184457,60.0583715 54.0091224,60.2260521 53.8637168,60.3590209 C55.4524608,61.6674883 56.1620998,64.9413057 54.6951595,66.3769116 C54.6539835,66.4096281 54.6002692,66.422059 54.5489125,66.4107571 C54.4975558,66.3994551 54.4540165,66.3656219 54.4303688,66.3186398 C54.1020284,65.3651008 54.2238321,64.3691822 54.0014079,63.3838586 C53.7789838,62.3985349 53.2864731,61.6092165 52.9899076,60.6927595 C52.6764382,60.6839954 52.3873298,60.5215696 52.2167189,60.2583695 C51.7824622,59.6120819 52.35441,58.2718299 53.2388108,58.6638403 Z" id="Shape" fill="#FCBA6B" fill-rule="nonzero" style="mix-blend-mode: multiply;"></path>
                                    </g>
                                </g>
                                <g id="Group-10" transform="translate(196.730087, 301.226172) rotate(-316.000000) translate(-196.730087, -301.226172) translate(171.730087, 254.226172)">
                                    <path d="M3.91047883,0 L45.482523,4.4408921e-16 C47.6422208,-3.78903485e-15 49.3930018,1.75078101 49.3930018,3.91047883 L49.3930018,89.2592044 C49.3930018,91.4189022 47.6422208,93.1696833 45.482523,93.1696833 L3.91047883,93.1696833 C1.75078101,93.1696833 1.59675433e-15,91.4189022 1.33226763e-15,89.2592044 L4.4408921e-16,3.91047883 C1.79602507e-16,1.75078101 1.75078101,1.72899768e-15 3.91047883,1.33226763e-15 Z" id="Rectangle-2" fill="#2E3B50"></path>
                                    <g id="Group-3" transform="translate(1.796109, 9.950160)">
                                        <mask id="mask-2" fill="white">
                                            <use xlink:href="#path-1"></use>
                                        </mask>
                                        <use id="Rectangle-6" fill="#FFFFFF" xlink:href="#path-1"></use>
                                        <path d="M23.0915339,10.3336938 C15.2049681,10.3336938 7.48697432,9.57037443 0,8.10978049 L0,0 L45.8007835,0 L45.8007835,8.18371358 C38.4334622,9.59612328 30.8439408,10.3336938 23.0915339,10.3336938 Z" id="bg" fill="#1F9AFF" mask="url(#mask-2)"></path>
                                        <g id="Group-13" mask="url(#mask-2)">
                                            <g transform="translate(2.694164, 14.472961)">
                                                <g id="Rectangle-7" fill="none">
                                                    <use fill="black" fill-opacity="1" filter="url(#filter-4)" xlink:href="#path-3"></use>
                                                    <use fill="#FFFFFF" fill-rule="evenodd" xlink:href="#path-3"></use>
                                                </g>
                                                <g id="Rectangle-7-Copy" fill="none">
                                                    <use fill="black" fill-opacity="1" filter="url(#filter-6)" xlink:href="#path-5"></use>
                                                    <use fill="#FFFFFF" fill-rule="evenodd" xlink:href="#path-5"></use>
                                                </g>
                                                <ellipse id="Oval-6" fill="#D8D8D8" fill-rule="evenodd" cx="4.49027289" cy="36.1824013" rx="2.69416373" ry="2.71368009"></ellipse>
                                                <ellipse id="Oval-6-Copy" fill="#D8D8D8" fill-rule="evenodd" cx="4.49027289" cy="5.42736019" rx="2.69416373" ry="2.71368009"></ellipse>
                                                <rect id="Rectangle-13" fill="#2E3B50" fill-rule="evenodd" opacity="0.200000018" x="2.69416373" y="20.8048807" width="34.126074" height="1.80912006"></rect>
                                                <rect id="Rectangle-13-Copy" fill="#2E3B50" fill-rule="evenodd" opacity="0.200000018" x="2.69416373" y="16.2820806" width="34.126074" height="1.80912006"></rect>
                                                <rect id="Rectangle-13-Copy-2" fill="#2E3B50" fill-rule="evenodd" opacity="0.200000018" x="2.69416373" y="11.7592804" width="34.126074" height="1.80912006"></rect>
                                                <rect id="Rectangle-15" fill="#2E3B50" fill-rule="evenodd" opacity="0.200000018" x="8.98054578" y="4.52280016" width="17.063037" height="1.80912006"></rect>
                                            </g>
                                        </g>
                                    </g>
                                </g>
                            </g>
                        </g>
                    </g>
                </g>
            </g>
        </g>
    </g>
</svg>