<?xml version="1.0" encoding="UTF-8"?>
<svg width="192px" height="234px" viewBox="0 0 192 234" version="1.1" xmlns="http://www.w3.org/2000/svg" xmlns:xlink="http://www.w3.org/1999/xlink">
    <!-- Generator: Sketch 55 (78076) - https://sketchapp.com -->
    <title>Group 4</title>
    <desc>Created with Sketch.</desc>
    <defs>
        <polygon id="path-1" points="0.132942567 0.950769231 7.79226131 0.950769231 7.79226131 8.61211708 0.132942567 8.61211708"></polygon>
        <polygon id="path-3" points="0 0 56.7548428 0 56.7548428 90.7429389 0 90.7429389"></polygon>
        <rect id="path-5" x="0" y="0" width="50.0778025" height="34.7287791" rx="1.98013751"></rect>
        <filter x="-20.0%" y="-23.0%" width="139.9%" height="157.6%" filterUnits="objectBoundingBox" id="filter-6">
            <feOffset dx="0" dy="2" in="SourceAlpha" result="shadowOffsetOuter1"></feOffset>
            <feGaussianBlur stdDeviation="3" in="shadowOffsetOuter1" result="shadowBlurOuter1"></feGaussianBlur>
            <feColorMatrix values="0 0 0 0 0   0 0 0 0 0   0 0 0 0 0  0 0 0 0.13 0" type="matrix" in="shadowBlurOuter1"></feColorMatrix>
        </filter>
        <rect id="path-7" x="0" y="38.0896287" width="50.0778025" height="40.3301951" rx="1.98013751"></rect>
        <filter x="-20.0%" y="-19.8%" width="139.9%" height="149.6%" filterUnits="objectBoundingBox" id="filter-8">
            <feOffset dx="0" dy="2" in="SourceAlpha" result="shadowOffsetOuter1"></feOffset>
            <feGaussianBlur stdDeviation="3" in="shadowOffsetOuter1" result="shadowBlurOuter1"></feGaussianBlur>
            <feColorMatrix values="0 0 0 0 0   0 0 0 0 0   0 0 0 0 0  0 0 0 0.13 0" type="matrix" in="shadowBlurOuter1"></feColorMatrix>
        </filter>
    </defs>
    <g id="ABSENCES-&amp;-DELAYS-✅-" stroke="none" stroke-width="1" fill="none" fill-rule="evenodd">
        <g id="ABSENCES-&amp;-DELAY---DASHBOARD" transform="translate(-923.000000, -457.000000)">
            <g id="Content" transform="translate(325.000000, 329.000000)">
                <g id="attendance-level" transform="translate(0.000000, 68.000000)">
                    <g id="Illustrations" transform="translate(-209.000000, -48.000000)">
                        <g id="Group-4" transform="translate(774.000000, 28.527117)">
                            <g id="Illustration" transform="translate(33.000000, 205.472883)">
                                <polygon id="Fill-1" fill="#392F1D" points="45.3667056 104.057371 55.320734 104.057371 55.320734 93.330965 45.3667056 93.330965"></polygon>
                                <g id="Group-295" transform="translate(0.000000, 0.283996)">
                                    <path d="M84.2575291,71.2753415 C83.2391668,72.5619668 82.1368668,73.8103145 80.9444572,75.0006282 C64.0458152,91.9095033 36.6426119,91.9095033 19.7415012,74.9981586 C2.83668726,58.0942226 2.83668726,30.6811996 19.7415012,13.7784983 C20.9289733,12.580776 22.1818675,11.486774 23.4680899,10.4594494 L19.1057962,6.09578901 C17.833152,7.13793087 16.5938359,8.25045435 15.4051294,9.44447233 C-3.88820694,28.7413834 -3.88820694,60.0340388 15.4075982,79.3346541 C34.7021689,98.6352695 65.9800863,98.6352695 85.2783602,79.3346541 C86.4670667,78.14681 87.5804761,76.9120448 88.6247603,75.6390018 L84.2575291,71.2753415 Z" id="Fill-2" fill="#27241F"></path>
                                    <polygon id="Fill-4" fill="#392F1D" points="25.3087952 17.9169375 28.2873506 14.9411532 16.7792396 3.4244979 13.8019186 6.40769071"></polygon>
                                    <g id="Group-8" transform="translate(10.999139, 0.000000)">
                                        <mask id="mask-2" fill="white">
                                            <use xlink:href="#path-1"></use>
                                        </mask>
                                        <g id="Clip-7"></g>
                                        <path d="M0.132942567,4.78064056 C0.132942567,2.66795724 1.85119747,0.950398801 3.96568789,0.950398801 C6.07894392,0.950398801 7.79226131,2.66795724 7.79226131,4.78064056 C7.79226131,6.89702817 6.07894392,8.61211708 3.96568789,8.61211708 C1.85119747,8.61211708 0.132942567,6.89702817 0.132942567,4.78064056" id="Fill-6" fill="#392F1D" mask="url(#mask-2)"></path>
                                    </g>
                                    <path d="M74.8695867,110.572609 C74.7189925,106.792993 71.6182337,103.772757 67.8015353,103.772757 L33.3648432,103.772757 C29.5469104,103.772757 26.4436828,106.792993 26.2967917,110.572609 L74.8695867,110.572609 Z" id="Fill-9" fill="#2E3B50"></path>
                                    <polygon id="Fill-11" fill="#392F1D" points="79.6407066 66.4990226 76.6596824 69.4748068 88.1677934 80.9926969 91.1475832 78.0107389"></polygon>
                                    <path d="M93.8168033,79.6365542 C93.8168033,81.7492376 92.0997828,83.466796 89.9852924,83.466796 C87.8683332,83.466796 86.1574846,81.7492376 86.1574846,79.6365542 C86.1574846,77.5189319 87.8683332,75.8013734 89.9852924,75.8013734 C92.0997828,75.8013734 93.8168033,77.5189319 93.8168033,79.6365542" id="Fill-13" fill="#392F1D"></path>
                                    <path d="M24.3328955,18.0911628 C9.86104169,32.5724895 9.86104169,56.1342797 24.3304268,70.6131369 C38.8072181,85.0932288 62.3554572,85.0833506 76.8310142,70.6081978 C91.3041024,56.1305754 91.3090399,32.574959 76.8310142,18.0923976 C62.357926,3.61600999 38.8072181,3.61600999 24.3328955,18.0911628" id="Fill-15" fill="#009BDE"></path>
                                    <path d="M83.7055151,27.9596535 C83.7388433,28.036209 83.7425464,28.1461031 83.7067494,28.2029023 C83.6721868,28.2634058 83.8301873,28.4659073 83.8721562,28.5091241 C83.9116563,28.5572799 84.4844079,29.7784627 85.0583939,31.2157295 C85.626208,32.6455876 86.637164,36.651166 86.5964296,36.7981031 C86.5507575,36.9462749 86.4297885,37.5784747 86.2532723,37.8846965 C86.0779906,38.1773359 85.6434893,38.9836376 85.5077077,38.9947504 C85.3719261,39.0058633 84.7930025,38.9354817 84.504158,38.4983748 L83.9881877,38.0773199 L83.7277339,37.8649403 C83.4438268,37.845184 82.9722942,37.582179 82.6735746,37.2846006 C82.3822613,36.9919612 81.6675561,36.2325806 81.765072,36.0498354 C81.8625879,35.8646206 81.7403844,34.9274338 81.4416648,34.3853718 L81.3972272,33.9087524 L81.3713053,33.5247405 C81.6317591,33.5988264 81.729275,33.5395576 81.5774465,33.385212 C81.4280867,33.2370402 81.4675868,32.7036216 81.5379464,32.5048244 C81.6070716,32.2973838 82.0304634,31.9788144 81.9255412,31.7454438 C81.8218534,31.5157774 81.6070716,30.7181191 81.6922437,30.4995656 C81.7761814,30.282247 82.0107133,29.6092999 81.892213,29.47718 C81.7786502,29.3499992 82.0354009,28.7499033 82.3600425,28.4103429 C82.6809809,28.0720172 83.6684837,27.8843329 83.7055151,27.9596535" id="Fill-17" fill="#A4CE4C"></path>
                                    <path d="M14.8900232,53.9723293 C14.145693,50.5927768 13.6000977,47.8046769 13.6803323,47.7775121 C13.7618013,47.7491125 13.9494268,47.483638 13.9074579,47.2564412 C13.8654891,47.0267748 14.4616939,46.5600336 14.592538,46.6662234 C14.7209134,46.7699437 14.8887889,46.5229906 14.6999289,46.1661435 C14.5098347,45.8130006 13.8790672,45.5919776 13.8383327,45.4882573 C13.8025358,45.3820675 13.6297228,45.0647329 13.8025358,45.0313942 C13.9716456,45.0017598 14.6394444,44.6560256 14.9431015,44.7375201 C15.2442899,44.8177798 16.030589,44.9622474 16.0454015,45.1474621 C16.0602141,45.3363812 16.5243404,45.3450246 16.5058247,45.1351145 C16.4848403,44.9264392 16.1873551,44.4201854 16.0873704,44.4893323 C15.9886201,44.5621834 15.3541496,44.3411604 14.9011326,43.896645 C14.4530532,43.454599 14.3592405,42.2803373 14.527116,42.2358857 C14.6949914,42.1939037 15.2430555,42.2679896 15.3331651,41.8938557 C15.4183372,41.5135481 16.147855,41.7382753 16.2404333,41.5555301 C16.330543,41.3740196 16.9526698,40.8850525 17.0896858,40.8529487 C17.2229987,40.8208448 17.7365001,41.0393982 17.8833912,40.8936959 C18.0290478,40.7504631 18.5672369,40.4195461 18.7647374,40.4886929 C18.9585349,40.5529007 19.4670988,40.8319576 19.4559894,40.9591385 C19.44488,41.0789107 19.7855685,41.3567329 19.9892409,41.2925251 C20.1929134,41.2270825 20.8051651,41.0085291 20.9150248,41.1060755 C21.0224157,41.1999177 21.3236041,41.0727369 21.3643386,41.1974482 C21.4063075,41.3233942 21.7790898,41.7740835 21.7395897,41.8913862 C21.695152,42.0062194 21.7926679,42.3457798 21.5865267,42.3433103 C21.3766824,42.3371365 20.9804469,42.6668188 21.137213,42.6989227 C21.2952134,42.7310266 21.7988398,43.1878897 21.8852463,43.4261994 C21.9765903,43.6694482 22.3876384,44.2510226 21.9284496,44.3078218 C21.4618545,44.3633862 20.0978662,44.8412404 19.9053032,45.05362 C19.7127401,45.2635301 19.4300675,44.6510865 19.744834,43.8151504 L19.0832071,42.9742753 L18.6906747,42.4840735 C18.3203612,42.5556899 17.8266097,42.6618797 17.5908435,42.723618 C17.3600147,42.7853562 17.1662172,43.3508787 16.9761229,43.4039736 C16.7909662,43.4632424 16.4354652,43.8460196 16.5712468,43.7990985 C16.7070284,43.7509427 17.1859673,43.9250446 17.331624,44.1250765 C17.4760462,44.3251085 17.9080787,45.0993063 17.7809377,45.3697199 C17.6587343,45.6475421 17.1736235,46.6254761 17.2674363,46.6600496 C17.3550772,46.6921534 17.5636871,47.1551904 17.5254214,47.4490645 C17.4859213,47.7379996 17.6587343,48.7443333 17.6932969,49.0048687 C17.732797,49.266639 17.7266251,50.02355 17.8266097,50.1161574 C17.9315319,50.2087648 17.9142506,50.381632 18.0833605,50.3322414 C18.2537047,50.2754422 19.0054412,50.8137998 19.3090984,50.7310705 C19.6226305,50.649576 20.455836,50.5298038 20.4780548,50.402623 C20.4978049,50.2754422 20.8656497,50.2828507 20.8236808,50.1482613 C20.7866495,50.0161415 21.3791511,50.1038098 21.6741676,50.3149546 C21.9691841,50.5248647 22.5172481,50.5569686 22.2777787,50.2433383 C22.040778,49.9272384 21.8852463,49.2258917 21.8371056,49.3234382 C21.7889648,49.4185151 21.4593857,49.2135441 21.5729486,49.1159976 C21.6828083,49.0233902 21.64948,48.4171205 21.3384167,47.9874222 C21.0310564,47.5614282 19.6473181,46.2352903 19.6707713,46.13157 C19.6917557,46.031554 20.100335,45.821644 20.2583354,45.868565 C20.420039,45.9228947 20.6953054,45.4981355 20.9409468,45.5611085 C21.1779474,45.6253163 21.7506991,45.1215321 21.9333871,45.3116859 C22.1284189,45.500605 22.7258581,45.9031385 22.8579366,45.7969487 C22.986312,45.6882893 23.2615784,45.3870066 23.1714688,45.2734082 C23.0825935,45.1659836 23.1764063,44.9807688 23.4961103,45.0993063 C23.8158144,45.2203133 24.7119732,45.2734082 24.7909734,45.3672503 C24.8773799,45.458623 25.1588182,45.700637 25.3982876,45.6944631 C25.6439289,45.6882893 26.3339465,46.0809447 26.3598685,45.9525291 C26.3820873,45.821644 26.9202763,45.8944951 27.12148,46.0772404 C27.3189806,46.2612204 28.2669833,47.1638338 28.4805308,47.2687888 C28.6940783,47.3663353 29.3285488,47.2860755 29.4482836,47.425604 C29.5717214,47.5700715 29.769222,47.9429706 29.5556745,48.0207608 C29.342127,48.098551 29.2557205,48.4578677 29.1705484,48.4134162 C29.0767356,48.3664951 28.7940629,48.2973483 28.7360472,48.4516939 C28.6842033,48.6023353 28.1719362,48.645552 28.0842953,48.2430186 C28.0015919,47.8404851 27.5535125,47.0774002 27.512778,47.4725251 C27.4695748,47.8713542 26.7573384,48.3183393 26.8696668,48.3627908 C26.974589,48.3936599 27.1980115,48.8468188 27.0992612,49.0159816 C27.0042141,49.1826749 27.3288556,49.6383033 27.5325281,49.6259556 C27.7411381,49.6099037 28.2447645,49.7803013 28.2003269,50.0778797 C28.1546549,50.3643453 27.9571543,51.0397618 27.9892481,50.9409806 C28.021342,50.8421994 27.5633876,50.8100955 27.3967465,51.1459516 C27.2375116,51.4781035 27.2004803,52.3967688 27.3374963,52.4177598 C27.4769811,52.4375161 27.8065601,53.0104472 27.721388,53.2487568 C27.6312784,53.4821275 27.4510591,54.3242374 27.4991999,54.5872424 C27.5448719,54.8465431 28.341046,55.4947948 28.3101866,55.5911065 C28.2817959,55.6972963 28.1151548,56.0059876 28.2200769,56.0664911 C28.3299366,56.1294641 28.5385466,56.9123053 28.4163431,57.334595 C28.2978428,57.7581195 28.8508444,58.9793023 28.9853916,59.033632 C29.133517,59.0830226 29.5976434,59.3163932 29.7037999,59.480617 C29.8161284,59.6485451 30.3111141,60.2782753 30.0395509,60.3684132 C29.7716907,60.4597858 28.7891254,59.9769926 28.539781,60.0683652 C28.2879677,60.1671465 27.6510284,60.6980955 27.6732472,60.7697119 C27.6892942,60.8400935 27.6510284,61.0858118 27.3942777,61.142611 C27.1350582,61.2031145 26.466025,61.9587908 26.4265249,62.1773443 C26.3833217,62.3958977 26.6116817,63.6738797 27.2004803,64.5283373 C27.792982,65.3803253 29.2915175,64.6604571 29.179189,64.4431385 C29.0656262,64.2295241 29.0335324,63.5849766 29.1730171,63.4763173 C29.3100332,63.3676579 29.9506756,63.0318018 30.144473,63.3219716 C30.3395049,63.6133762 31.0727257,64.1937159 31.3270077,63.9665191 C31.5874615,63.735618 32.5305267,64.0480136 32.7872775,64.4196779 C33.0452626,64.7864032 33.9747496,65.2235101 33.9969684,65.0370605 C34.021656,64.8469067 34.2821099,64.3171924 34.4351728,64.2653323 C34.5894701,64.2097678 35.0363151,64.282619 35.0560652,63.9936839 C35.0770496,63.6973403 34.8523927,62.788553 34.915346,62.6564332 C34.9807681,62.5230785 35.0572996,62.1810486 35.2153,62.2069786 C35.3757692,62.2390825 35.7078171,62.0229986 35.616473,61.8958178 C35.5263634,61.7698717 36.0398649,61.4599457 36.2929125,61.4426589 C36.5533663,61.4303113 37.2495558,61.6007089 37.2458527,61.5142753 C37.2433839,61.4303113 37.5902443,61.1376719 37.9259953,61.0512384 C38.2679181,60.9672743 39.3739213,60.7042693 39.6442502,60.8400935 C39.9133447,60.9672743 41.0860043,60.8907189 41.678506,60.7672424 C42.2685389,60.6450006 43.0955725,61.2562094 43.2313542,61.2290446 C43.3708389,61.2043493 43.9065592,60.8561455 44.1386224,60.7400775 C44.3719199,60.6252444 45.1051408,60.5882014 45.2150005,60.4733682 C45.3285633,60.3622394 45.829721,59.9769926 46.0815342,59.869568 C46.3358162,59.764613 47.0221306,59.7584392 47.0184275,59.601624 C47.0171931,59.4423393 47.6862263,59.5102513 48.0836961,59.7115181 L48.4638847,60.0967648 L48.7070573,60.3350745 C48.8601202,60.59561 49.0613239,60.8808408 49.1464961,60.9907349 C49.2341369,61.0932204 49.3575748,61.8328448 49.3699186,62.0242334 C49.3884342,62.2119177 49.7081383,62.7971964 49.7081383,62.8688128 C49.7130758,62.9391944 49.6316068,63.2170166 49.7315915,63.3441974 C49.837748,63.4738478 50.1463427,64.1171604 50.4561717,64.5073463 C50.7746413,64.9012364 51.6041437,66.0372204 51.549831,66.1853922 C51.4893465,66.3298597 51.2091426,67.1744392 51.2548146,67.3670625 C51.2943147,67.5572164 51.4572527,68.1758338 51.5868624,68.3091884 C51.7177065,68.437604 52.0423481,69.0093003 52.0102542,69.2797139 C51.9843323,69.5538318 52.5521464,70.4638537 52.541037,70.6181994 C52.5336307,70.7688408 52.6891624,71.2318777 52.6410217,71.2825031 C52.5904121,71.3343632 52.5447401,71.5751425 52.4163648,71.7047928 C52.2916925,71.8307389 52.1225827,72.24562 52.3385989,72.329584 C52.5595527,72.4160176 53.1372418,73.2371365 53.1224293,73.4952024 C53.1076167,73.7520336 52.7706314,74.6225431 52.9817101,74.9003652 C53.1952576,75.1695441 52.9175224,76.0116539 53.2915391,76.2536679 C53.6680246,76.4969167 54.1753542,77.231602 54.3296515,77.2167848 C54.48148,77.2007329 54.990044,77.7230386 55.0616379,77.8650366 C55.1357007,78.0107389 55.0246066,78.5367489 55.0727474,78.7466589 C55.1208881,78.9602733 55.7516555,79.5060396 55.8862028,79.4603532 C56.0244532,79.4159017 56.555236,79.8097918 56.7292833,79.8233742 C56.9020963,79.8406609 57.2366129,79.8542434 57.1045344,80.0678577 C56.9650496,80.2888807 56.473767,80.8581075 56.3256416,80.8741594 C56.1787505,80.8914462 55.7973275,81.0532004 55.7973275,81.0532004 C55.7812806,81.0556699 55.6825303,81.0297399 55.5948895,80.9951664 C55.5060142,80.9593582 55.0295441,80.6272064 54.7406995,80.4864432 C54.4580268,80.3419756 53.4853366,80.0518058 53.2001951,79.8196699 C52.9175224,79.582595 51.7559723,78.667634 51.575753,78.530575 C51.3967681,78.3972204 51.0894079,77.9193662 50.9857201,77.9811045 C50.8882042,78.0366689 50.656141,77.4748507 50.7363756,77.2711145 C50.8141414,77.0723173 50.2796555,76.5956979 50.2426242,76.726583 C50.2080616,76.8599377 49.3538716,76.4191265 48.8379014,75.9276899 C48.3293375,75.4362533 47.734367,74.0138038 47.3406003,73.7582074 C46.9579429,73.4989067 46.3247067,72.5259117 46.2136127,72.450591 C46.103753,72.366627 45.7692364,72.250559 45.6890018,72.1283173 C45.6062984,71.9999017 45.2125317,71.5084651 44.8681401,71.3207808 C44.5262172,71.1219836 43.3412139,70.6737638 42.9943535,70.6787029 C42.6499619,70.683642 41.698256,70.6280775 41.6612247,70.5194182 C41.6217246,70.4132284 41.0082384,70.1872663 40.6354561,70.2848128 C40.2577363,70.3774202 39.265296,69.4772763 39.3492337,69.3661475 C39.4331714,69.2463752 39.275171,68.9821355 39.0912486,69.0512823 C38.9048574,69.1204292 38.2061992,69.0043612 37.9630266,68.8561894 C37.7173853,68.7055481 36.9446643,67.4979477 36.917508,67.2522294 C36.881711,67.0077459 36.2941469,66.2384871 36.2830375,66.1322973 C36.2743968,66.023638 35.8880363,65.6680256 35.6732545,65.5778877 C35.4572382,65.4902194 34.8980647,65.176589 34.9252211,65.3037698 C34.9536118,65.4272464 34.7561112,65.7223552 34.4252978,65.6964252 C34.0883124,65.6630865 33.2106693,66.0298118 33.1538879,65.9767169 C33.0995752,65.9223872 32.8131994,65.7952064 32.639152,65.8199017 C32.4675734,65.844597 31.8750717,65.7408767 31.7207744,65.7952064 C31.5763521,65.8483013 31.03446,66.2533043 30.8468344,66.1977399 C30.653037,66.1409407 29.769222,66.1569926 29.3347207,66.4311105 C28.8940476,66.7064631 27.3288556,67.3473063 26.9906359,67.2398817 C26.6536506,67.1275181 25.4896316,66.2100875 25.2094277,66.1693403 C24.926755,66.1273582 24.1157683,66.0483333 24.0244243,65.944613 C23.9281428,65.8433622 23.8676582,66.070559 24.0503463,66.149584 C24.2305655,66.2310785 24.7132075,66.7607928 24.5934728,66.7817838 C24.470035,66.8077139 23.9318459,67.0312064 23.6232513,66.8620436 C23.3195942,66.6928807 22.4765137,66.6978198 22.3950447,66.6212643 C22.3086382,66.5434741 22.0296686,66.1940356 21.6716989,65.9853602 C21.3087916,65.7779197 20.3052418,65.4531764 20.227476,65.4531764 C20.1435382,65.4581155 15.6380566,57.3568208 14.8900232,53.9723293" id="Fill-19" fill="#A4CE4C"></path>
                                    <path d="M13.7593325,41.1327465 C13.6198477,41.2154757 13.6679885,40.0782569 13.871661,38.600243 C14.0703959,37.1259333 15.1023363,33.2611181 15.1838053,33.2006146 C15.2628056,33.1388763 15.4047591,33.477202 15.3023057,33.7537894 C15.2060241,34.0266725 15.0356799,34.8490262 15.1368989,34.8885387 C15.2393524,34.9280511 15.3825403,35.4775217 15.2911963,35.6602669 C15.2010866,35.8417774 15.2158992,36.5739932 15.1603521,36.8481111 C15.1023363,37.1160551 14.6505538,38.0334857 14.6900539,38.3125427 C14.7307884,38.5977734 15.2183679,39.4670482 15.1048051,39.5794118 C14.993711,39.6917754 14.7789292,39.8794597 14.8702732,39.7436356 C14.9616172,39.6090462 15.2973682,39.9424328 15.3603215,40.0683788 C15.4158685,40.1930901 15.0122267,40.7845427 14.765351,41.1376855 C14.5172409,41.4945327 13.7099574,42.5218573 13.6445353,42.4909882 C13.5828164,42.4539453 13.4248159,42.3724507 13.434691,42.2576176 C13.4420972,42.1464887 13.6198477,41.7686505 13.8111764,41.6785127 C14.0012707,41.5859053 13.8988173,41.0426086 13.7593325,41.1327465" id="Fill-21" fill="#A4CE4C"></path>
                                    <path d="M57.7256737,8.09672607 C59.8080702,8.57334545 61.5004032,9.08453826 61.5016376,9.23394486 C61.5004032,9.38705574 61.8114666,9.75378102 61.9818108,9.69204276 C62.1509207,9.63400879 62.6101095,9.31914366 62.8582196,9.40928152 C63.1087984,9.49571508 64.0370511,9.94887393 64.3752708,10.2069399 C64.7110218,10.4600667 65.5528679,11.6219808 65.6479151,11.9948799 C65.7503685,12.367779 66.0330412,13.5161107 65.9577441,13.7186122 C65.8738063,13.9186442 66.3046044,14.8360747 66.8995749,15.2842945 C67.5019516,15.7411576 67.7290772,17.1426162 67.5056547,17.211763 C67.2871697,17.2759708 66.466308,16.7079788 66.2416511,16.7166222 C66.0145255,16.7289698 65.5380554,16.6030238 65.6886495,16.7141526 C65.8380093,16.8252815 65.8775095,17.3784563 65.9194783,17.4648899 C65.9626816,17.5550278 65.8170249,17.8550757 65.8540563,17.9600308 C65.8997283,18.0699249 66.3379326,18.4082505 66.4971675,18.4576412 C66.6576367,18.505797 67.2057007,18.6280388 67.3723418,18.7502805 C67.538983,18.8749918 68.1537035,19.1392316 68.3993448,19.4491576 C68.6486892,19.762788 69.123925,20.635767 69.123925,20.7061487 C69.1300969,20.7752955 69.0831905,21.2914274 69.2263784,21.7198909 C69.3757382,22.1471197 69.499176,23.4621447 69.2448941,23.7016891 C68.986909,23.9424683 69.225144,24.585781 69.3004411,24.5203385 C69.3843788,24.4511916 69.7090204,24.543799 69.8373958,24.7314833 C69.9571305,24.911759 70.3212721,25.8662326 70.8792112,26.4774414 C71.4322128,27.0923544 71.0878212,28.5098649 70.9940084,28.4246661 C70.8989613,28.3431716 70.4558194,28.2690857 70.1953655,28.2913115 C69.9373804,28.3160068 69.3510506,28.3999708 69.4744885,28.6000028 C69.6003951,28.8012695 70.1978343,29.3643225 70.4410069,29.4112436 C70.6866482,29.4495213 71.5988539,29.5038509 71.9321361,29.587815 C72.2691215,29.6705443 72.8245918,30.4546202 72.3530592,30.4842545 C71.8852297,30.5077151 70.5064289,30.439803 70.3237409,30.3434913 C70.1459904,30.2434753 69.6226139,29.7705602 69.5670669,29.6470837 C69.525098,29.5223724 69.1560188,29.124778 68.9634558,29.040814 C68.7696583,28.9593195 68.1746879,28.9284503 68.0574219,28.8284344 C67.9389216,28.7259489 67.5710768,28.4888739 67.3686387,28.7086621 C67.1587944,28.9309199 66.521855,28.7876871 66.4872924,28.6827321 C66.4514955,28.5753075 65.9194783,28.2085822 65.6577901,28.1233834 C65.3862268,28.0357151 64.6098027,28.0616452 64.5110524,28.2777291 C64.4147709,28.493813 64.2851612,29.2606022 64.2505986,29.4853295 C64.2246766,29.7038829 64.7468187,30.4385682 64.8110064,30.5632795 C64.8801316,30.6953994 64.5196931,31.0386641 64.5949902,31.1176891 C64.6702873,31.1880707 64.8184127,31.4411976 64.7579281,31.5054054 C64.6875686,31.5733175 64.7579281,32.0857451 65.0455383,32.5043305 C65.3393204,32.9278549 66.0083536,34.1589159 65.8799782,34.3070877 C65.7503685,34.4552595 65.3035234,34.4552595 65.1936638,34.3441307 C65.0763978,34.2330018 64.6098027,33.8749199 64.3900833,33.8033035 C64.1777702,33.7316871 63.3457991,33.4946122 62.9977044,33.2896412 C62.6533127,33.0896092 61.6571693,32.7858569 61.5090439,32.7130058 C61.3707935,32.6426242 60.8449482,32.2919508 60.6992915,32.3783844 C60.5499317,32.4685223 60.0895086,32.3759149 60.029024,32.3030637 C59.973477,32.2277431 59.592054,32.017833 58.9600522,31.9622685 L58.4564258,32.6809019 L58.316941,32.890812 C58.1330186,32.8093175 57.9651431,32.9278549 57.9416899,33.1451736 C57.9132992,33.3699009 57.3183288,33.8860328 57.1936565,33.8378769 C57.0702187,33.7909558 56.3456385,33.5267161 55.877809,33.4612735 C55.4038077,33.395831 54.1583197,33.5686981 54.1422728,33.6687141 C54.1225228,33.7687301 54.1644916,34.0984124 54.328664,34.1774374 C54.4903676,34.252758 55.0816349,34.0860647 55.3359169,34.1860807 C55.5852613,34.2836272 56.2752789,34.5416931 56.304904,34.368826 C56.3357635,34.2008979 56.9764059,33.842816 57.2615474,33.9181367 C57.54422,33.989753 58.3107691,34.431799 58.3255816,34.6207181 C58.3305192,34.815811 58.8403175,35.5665483 58.8230362,35.8270837 C58.8082236,36.0851497 58.5576448,36.8334174 58.636645,36.945781 C58.718114,37.0544404 58.5971449,37.7175093 58.4477851,38.1891896 C58.2947222,38.665809 57.4726261,39.7672196 57.0825625,39.6054653 C56.6949676,39.4400068 55.3840576,38.9942565 54.9433845,38.8794234 C54.5027114,38.765825 53.1485981,38.4756551 52.9054255,38.3040228 C52.6647217,38.139799 52.2092361,38.1348599 52.3771115,38.2509279 C52.5388151,38.3707001 53.0695979,38.8584324 53.2745047,38.8633714 C53.4855834,38.8633714 54.2805232,38.9967261 54.5755397,39.0584643 C54.8779624,39.128846 56.0296376,39.9030438 56.4073574,39.8758789 C56.787546,39.8400707 57.9602056,40.3500288 58.1021591,40.2080308 C58.2478158,40.0610937 58.6156606,39.5252056 58.6070199,39.3412256 C58.5959105,39.1448979 59.2155686,38.8115113 59.4636786,38.9695612 C59.7117887,39.133785 60.37465,40.2253175 60.5511661,40.8402306 C60.7227447,41.463787 61.1473709,43.2616052 61.1337928,43.4665762 C61.111574,43.6715473 61.2103243,44.4840228 61.4004185,44.8075313 C61.5892785,45.1359788 62.4311246,46.4213694 63.0310326,46.9387361 C63.6284718,47.4684503 64.8480378,49.3564064 64.8826004,49.9651457 C64.9134598,50.5726501 66.0639006,52.3679988 65.9923067,52.5013534 C65.9244158,52.6359429 65.8849157,53.1409618 65.9972442,53.3224723 C66.1034007,53.5039828 66.6354179,54.3016412 66.6403554,54.6671317 C66.6514648,55.0301526 66.9785751,56.4526022 66.8650123,56.9786122 C66.7489807,57.5070917 65.4479457,58.6060328 64.9233349,58.2973415 C64.3950208,57.9874154 62.9063603,57.4564663 62.7397192,57.2860687 C62.5718438,57.1156711 61.7559196,56.4847061 61.3053714,56.2636831 C60.8548232,56.0451297 59.4402254,55.5043025 59.1279277,55.1165862 C58.8143955,54.7301047 58.0305652,53.5101566 57.6997517,53.2434474 C57.371407,52.9792076 56.2110912,52.4581367 55.8296683,52.2284703 C55.4494797,51.9926302 54.1768354,51.2320148 53.9632879,50.8726981 C53.7472717,50.5084424 52.6313935,49.6194114 52.5585652,49.7540008 C52.4906744,49.8885902 52.2030642,50.2935932 51.9993917,50.3380448 C51.7969536,50.3923744 51.1044673,50.7405782 50.8822791,50.536842 L50.7032943,50.67884 L50.3132306,50.9937051 C50.5181375,51.3912995 50.497153,51.91484 50.2576836,52.1580887 C50.014511,52.4013375 49.2566026,53.1150318 48.8838203,53.1903524 C48.511038,53.2656731 47.2025968,53.313829 46.80883,53.1384923 C46.4101257,52.9594513 44.9868873,52.3210777 44.4980734,51.8296412 C44.0092595,51.3431437 42.6526775,49.7935133 42.5699742,49.4786482 C42.484802,49.1526701 41.8836597,47.743803 41.9453786,47.0770298 L41.8058938,46.6720268 L41.5824713,46.0472356 C41.0504542,45.3545323 40.6850781,44.6112036 40.7603752,44.3901806 C40.8332036,44.1703924 40.7356877,43.4875672 40.8838131,43.388786 C41.0319385,43.2900048 41.5540806,43.0307041 41.692331,42.6442226 C41.8268783,42.2565063 42.8057405,41.0205063 42.9316471,40.7241626 C43.0600224,40.4265842 43.8154621,39.7091856 43.9524781,39.7857411 C44.0919629,39.8561227 44.1438068,40.1549359 44.2820572,40.1586402 C44.41537,40.1586402 45.2029035,40.4451057 45.6756705,40.2672995 C46.1472031,40.0907281 47.3359096,39.8734094 47.2396281,39.6746122 C47.1458153,39.475815 47.6408011,38.6423485 48.129615,38.2299369 C48.6196633,37.8150557 49.8021979,36.9087381 49.6516037,36.6506721 C49.4948377,36.4012496 49.3541185,35.6591556 49.2417901,35.546792 C49.130696,35.4368979 48.9467736,35.2874913 49.0825552,35.4727061 C49.2269775,35.6554513 48.8430858,35.9900727 48.76532,35.8665962 C48.6887885,35.7431197 47.9679114,36.2394953 47.6593168,36.8334174 L47.0791589,36.8889818 L46.8174707,36.9136771 C46.5915794,36.8186002 46.3089067,36.6506721 46.1941095,36.5395433 C46.0756092,36.4296492 45.6299985,35.8801786 45.5843265,35.9246302 C45.5398889,35.972786 45.6213579,36.2876511 45.8756398,36.5111437 C46.1410312,36.7358709 46.6681109,37.308802 46.8174707,37.1828559 C46.9606586,37.0507361 47.2877689,37.492782 47.1421122,37.6249019 C47.0038618,37.755787 46.5915794,37.5816851 46.6150326,37.5495812 C46.6384858,37.5162426 46.4471571,37.5359988 46.3237192,37.6829359 C46.1965783,37.8335772 45.7460301,37.8335772 45.6337017,37.7249179 C45.5189044,37.60885 45.0486062,37.2347161 44.8387619,37.1371696 L44.6387926,37.0754314 C44.5005422,37.0408579 44.1882444,36.8741646 44.0512284,36.8482346 L43.3217107,36.6963584 C42.5255365,36.7371057 42.2626139,36.7877311 42.7279746,36.8062525 C43.2007416,36.824774 44.2240414,37.145813 44.0574003,37.1347001 C43.9006342,37.1211177 43.9932126,37.5606941 44.0783847,37.5199469 C44.1610881,37.4829039 44.3561199,37.8916112 44.294401,38.0928779 C44.2314476,38.297849 44.5523861,38.9436312 44.3832762,39.0251257 C44.2215726,39.1041506 43.8339778,38.7127301 43.9549469,38.5978969 C44.0746816,38.4892376 43.7512744,38.1076951 43.4895862,38.0360787 C43.2192573,37.9755752 42.4638176,38.2682146 42.3305047,38.1842505 C42.2070669,38.1002865 42.1971918,38.360822 42.5736773,38.5781407 C42.9489284,38.7880507 42.4403644,39.375799 42.0589414,39.128846 C41.682456,38.8831277 41.1887046,38.2373455 41.1467357,38.4756551 C41.1072356,38.7151996 40.5122652,39.2622006 40.5912654,39.5659528 C40.6739687,39.8635313 40.6529843,40.9056731 40.8665318,41.2514074 C41.0800793,41.5983764 41.3430019,42.536798 41.1911733,42.5837191 C41.0356416,42.6343445 40.6196561,43.2146841 40.4307962,43.2356751 C40.2394675,43.2591357 39.6173407,43.6690777 39.4173714,43.5320188 C39.2112302,43.3900208 38.5286189,42.8356112 38.3348214,42.5960667 C38.1397896,42.3589918 37.8781014,41.4736651 38.0583206,41.1588 C38.2410087,40.8451696 39.024839,40.3129858 39.0001515,40.1956831 C38.9729951,40.0685023 38.7310569,39.7548719 38.522447,39.7659848 C38.3200089,39.7721586 37.6250538,39.4029638 37.4966784,39.5486661 C37.3707718,39.6980727 36.9868801,39.6573255 36.9510831,39.4943365 C36.921458,39.3412256 37.0078645,38.770764 36.9708332,38.5583844 C36.9300987,38.3472396 37.3374436,37.7866561 37.3423811,37.7335612 C37.3460842,37.6829359 37.0053958,37.7619608 36.7461763,38.0336092 C36.4894255,38.3126661 35.9351896,38.928814 35.9549396,38.7942246 C35.9734553,38.6571656 35.8882832,38.2422845 35.6870795,38.1805463 C35.4908133,38.1200428 35.0489058,37.4322785 35.1661718,37.2902805 C35.2834377,37.1396392 34.9155929,36.7371057 34.8316552,36.7877311 C34.7575925,36.8297131 34.1996534,36.7296971 34.0293091,36.4728659 C33.8577305,36.2148 33.1269784,35.3751596 33.1664786,35.2072316 C33.2022755,35.0355992 33.6318393,34.7108559 33.6812144,34.8380368 C33.7305895,34.9602785 33.8355117,35.2763784 33.9552464,35.2689698 C34.0737468,35.2615612 34.6156389,35.2936651 34.889671,35.3652815 C35.1612342,35.4331936 35.982096,36.1962785 36.1104713,36.1901047 C36.2265029,36.1814613 36.6103946,36.3555632 36.6955668,36.5938729 C36.7807389,36.8272436 37.0893335,37.3606621 36.9325674,37.1396392 C36.774567,36.9210857 37.2386933,36.2925902 37.1461149,36.1456531 C37.0535365,36.0024204 36.9424425,35.4702366 37.0239114,35.283787 C37.0979742,35.1010418 37.3855843,34.5441626 37.2880684,34.4416771 C37.1967244,34.3391916 36.9239268,34.3651217 36.8535672,34.2070717 C36.7869108,34.0502565 36.4659723,33.5612895 36.2906906,33.7193395 C36.1154088,33.8786242 35.4056412,33.6205582 35.163703,33.3760747 C34.9180617,33.1315912 34.1120125,32.5722426 33.8725431,32.2055173 C33.6380111,31.8437311 33.9021682,30.8892575 33.8281054,30.8188759 C33.7540427,30.74479 33.6059173,30.4842545 33.6725737,30.4138729 C33.7342927,30.3434913 33.8663712,30.139755 33.8058866,29.8409419 C33.7404646,29.5433634 33.3417603,28.4246661 33.3713854,28.0443584 C33.3948386,27.6652855 33.3615104,26.5712835 33.3837292,26.4700328 C33.4022448,26.3663125 33.6133236,26.2008539 33.6293705,25.9576052 C33.6392455,25.7155912 33.8132929,24.9599149 33.9564808,24.8166821 C34.0996687,24.6722146 34.6378578,24.3030198 34.8316552,24.3190717 C35.0217495,24.3326541 35.6981889,24.3795752 35.8981582,24.2647421 C36.1005963,24.154848 37.0239114,23.9733375 37.4769284,23.7226801 C37.9348828,23.4769618 38.7446351,23.9301207 38.7693227,23.649829 C38.796479,23.3757111 38.3150714,22.5582965 38.4323373,22.5052016 C38.5483689,22.4545762 38.9396669,22.2705962 39.050761,22.3829598 C39.1655582,22.4953235 39.4914341,22.5261926 39.523528,22.1977451 C39.5593249,21.8767061 39.9864199,20.7876432 40.2184831,20.5036472 C40.4517806,20.2134773 40.9751571,19.7948919 40.8146879,19.899847 C40.6468124,20.0035672 40.3283428,19.373837 40.5554684,19.2886382 C40.7838284,19.2009698 41.4726116,18.2131576 41.4565647,17.8501367 C41.4368147,17.4846462 41.3738614,16.4709039 41.5466744,16.4264523 C41.7157842,16.380766 42.1268323,16.2634633 42.0675821,16.1029439 C42.0083319,15.9424244 42.4971458,15.6744803 42.6316931,15.8164783 C42.7625372,15.9597111 43.0538505,15.9732935 43.0069442,15.8263564 C42.9637409,15.6818889 42.8477093,15.2373734 43.0822412,15.1694613 C43.3192419,15.0990797 43.7821339,14.876822 43.5994458,14.9323864 C43.420461,14.9879508 42.9328814,14.5471397 42.9859597,14.4113155 C43.039038,14.2804304 43.1538352,13.8099848 43.0871788,13.6679868 C43.0168192,13.5222845 43.0020066,13.0246741 43.0538505,12.8777371 C43.1093976,12.7246262 43.3352888,12.1023045 43.5241488,11.841769 C43.7130087,11.5799988 43.9216186,10.8774174 44.0425877,10.9008779 C44.1635568,10.926808 44.4067294,10.6662725 44.3264948,10.4859968 C44.2450258,10.3081906 44.6548395,9.74266813 44.5042453,9.55374905 C44.3536511,9.36606474 44.4647452,8.91290589 44.6375582,8.92031449 C44.8128399,8.92525355 45.4448417,8.62890989 45.6694986,8.42393886 C45.8978587,8.21526354 46.3928444,7.644802 46.616267,7.64850629 C46.8409238,7.65221059 47.47416,7.96337143 47.5124258,8.12018661 C47.5432852,8.2732975 48.175287,8.48938142 48.6208977,8.21155924 L48.8788828,8.0461007 C49.0171332,7.95349331 49.0911959,7.76333946 49.2306807,7.69666214 L49.5084158,7.56207273 C49.8330574,7.40525754 55.6482146,7.62875005 57.7256737,8.09672607" id="Fill-23" fill="#A4CE4C"></path>
                                    <path d="M67.6682224,11.5061598 C67.9064574,11.6333407 68.1150674,11.7592867 68.1323487,11.7926254 C68.139755,11.8271988 68.0743329,11.8691808 67.9644732,11.8111469 C67.8558479,11.7592867 67.6336598,12.0358741 67.6904412,12.251958 C67.7459882,12.4618681 67.1547209,12.4186513 67.0226424,12.2000979 C66.8880952,11.9815445 66.3190467,11.3258841 66.4215001,11.2604416 C66.5239535,11.1937642 67.4275186,11.3802138 67.6682224,11.5061598" id="Fill-25" fill="#A4CE4C"></path>
                                    <path d="M74.3126351,23.9472839 C74.2583224,24.0275437 74.1546347,23.9299972 74.0879782,23.7336695 C74.018853,23.5373419 74.2891819,23.1385127 74.1176033,22.9854018 C73.9521966,22.8322909 73.9262746,22.411236 74.0781032,22.3593758 C74.2262286,22.3025766 74.8125584,22.5334777 74.9989496,22.4297574 C75.1754657,22.3272719 75.5889825,22.9656456 75.4396227,23.1804947 C75.2865598,23.3904048 75.248294,23.952223 75.1421375,23.9090062 C75.0372153,23.8657894 74.364479,23.8608503 74.3126351,23.9472839" id="Fill-27" fill="#A4CE4C"></path>
                                    <path d="M78.2279603,27.9163133 C78.4748361,27.9780515 78.572352,28.0780675 78.4464453,28.1410406 C78.3242419,28.196605 77.871225,28.3620635 77.9045532,28.5065311 C77.9403502,28.6460595 77.855178,28.7781794 77.3392078,28.45961 C76.8207688,28.1410406 76.6109245,26.8914581 76.8392845,26.7408168 C77.0701133,26.6025231 77.6934744,27.018639 77.6403962,27.144585 C77.5848491,27.2730006 77.9786159,27.8533403 78.2279603,27.9163133" id="Fill-29" fill="#A4CE4C"></path>
                                    <path d="M76.1014965,27.6647916 C76.2693719,27.8709974 76.5446384,28.2513051 76.7186857,28.509371 C76.8914987,28.7649674 76.9359363,29.3971672 76.9853115,29.3909934 C77.0383898,29.3798805 77.1186244,29.4144539 77.0593742,29.5144699 C76.9988896,29.6132511 77.000124,29.90836 76.7396702,29.9108296 C76.4841538,29.9194729 75.6349014,30.5837766 75.3719788,30.513395 C75.1078218,30.4430134 74.5153201,29.5848515 74.6671486,29.0057467 C74.8165084,28.4303461 74.1252564,26.7325439 74.3437414,26.6362322 C74.5646952,26.5374509 75.2176814,26.5559724 75.3028536,26.6967357 C75.3917288,26.8412032 75.9373241,27.4585858 76.1014965,27.6647916" id="Fill-31" fill="#A4CE4C"></path>
                                    <path d="M78.0603317,31.0568152 C78.2146291,31.0395285 77.9418314,31.2383257 77.4616582,31.4976264 C76.9790162,31.7631009 75.6656374,32.6867053 75.573059,32.5434725 C75.4829494,32.3977702 75.6347779,31.8791688 76.0310134,31.7149451 C76.4346552,31.547017 77.9048,31.0765714 78.0603317,31.0568152" id="Fill-33" fill="#A4CE4C"></path>
                                    <path d="M70.3707707,21.4946697 C70.4164427,21.7255708 70.3201612,21.8342302 70.1535201,21.7428575 C69.9893478,21.6440763 69.5387996,21.3452631 69.5079401,21.0970753 C69.4696744,20.8451832 70.3263331,21.2674729 70.3707707,21.4946697" id="Fill-35" fill="#A4CE4C"></path>
                                    <path d="M71.6943948,22.111435 C71.9906457,21.9200464 72.317756,21.9595588 72.4165063,22.1892252 C72.5140222,22.4225958 72.6386944,23.0449175 72.4337876,23.0498565 C72.226412,23.0572651 71.3944408,22.295415 71.6943948,22.111435" id="Fill-37" fill="#A4CE4C"></path>
                                    <path d="M79.2524945,24.585781 C79.6549019,25.027827 79.1142441,25.7773295 78.5945708,25.8514154 C78.0958818,25.395787 78.7599775,24.664806 79.2524945,24.585781" id="Fill-39" fill="#A4CE4C"></path>
                                    <path d="M70.1020465,15.2744164 C69.9823118,15.6275592 69.8366551,15.9251377 69.7650612,15.9350158 C69.6947016,15.9424244 69.4947323,16.2609938 69.4626384,16.4832515 C69.4293102,16.7005702 69.5799044,17.3426482 69.4083258,17.374752 C69.2342784,17.4006821 68.8294023,16.9746881 68.9269182,16.880846 C69.0231997,16.7845343 69.1910752,16.6548839 69.0787467,16.8116991 C68.9701214,16.9697491 68.6664643,16.538816 68.7022613,16.2646981 C68.7429958,15.9893455 68.8985275,15.0682106 68.9071681,14.813849 C68.9096369,14.5570178 69.0318403,13.8235672 68.9874027,13.7680028 C68.9417307,13.7087341 68.786199,13.4062166 68.5849953,13.1926022 C68.3862604,12.9814573 67.6900709,12.3813614 67.7530242,12.3171536 C67.8172119,12.2529459 68.3183696,12.3480228 68.7220113,12.6690617 C69.1305906,12.9863964 70.2205469,14.9138649 70.1020465,15.2744164" id="Fill-41" fill="#A4CE4C"></path>
                                    <path d="M64.8992645,10.2008895 C65.376969,10.3984519 65.8472672,10.6071273 66.316331,10.8281502 C65.8707204,10.9405139 65.3954846,10.6379964 64.8992645,10.2008895" id="Fill-43" fill="#A4CE4C"></path>
                                    <path d="M71.1447261,31.1810326 C70.5448181,31.2600575 70.2349891,31.3008048 70.4559428,31.2748747 C70.6719591,31.2464751 70.4818648,30.8192464 70.5880213,30.8661674 C70.6966467,30.915558 71.2595233,30.7538038 71.6409462,30.8958018 L72.008791,31.0044611 L72.3519483,31.0970685 C72.9481531,31.0550865 73.7307491,31.1452244 74.0911876,31.3008048 C74.4565636,31.4514462 74.7157831,32.1873662 74.4466886,32.2145311 C74.173891,32.2367568 71.7421653,31.1094162 71.1447261,31.1810326" id="Fill-45" fill="#A4CE4C"></path>
                                    <path d="M66.0456318,33.605988 C65.9357721,33.3096444 66.0172411,33.0787433 66.2258511,33.0836823 C66.4356954,33.0923257 67.0479472,33.4664595 67.0985567,33.6096923 C67.151635,33.7541598 66.1542571,33.8973926 66.0456318,33.605988" id="Fill-47" fill="#A4CE4C"></path>
                                    <path d="M67.3077839,47.3300332 C67.5077532,47.6140292 67.6472379,47.904199 67.6324254,47.9745806 C67.6151441,48.0449622 67.7743789,48.3079672 67.8669573,48.4005746 C67.9607701,48.4944168 68.3199742,48.9290541 68.4619278,49.1562509 C68.5989438,49.3859173 68.9211166,50.3416256 68.8384132,50.4935017 C68.7618818,50.6429083 68.1977708,50.8688703 67.966942,50.6787165 C67.7336444,50.4873279 66.8436575,49.9255097 66.7868761,49.7674597 C66.7239228,49.6069403 66.4227345,49.1290861 66.2807809,49.0710521 C66.1400618,49.0167225 65.6932167,48.3178454 65.6364353,48.0338494 C65.5771852,47.7535576 65.6882792,46.8385966 65.5426226,46.584235 C65.3957315,46.3298733 65.29945,45.8260891 65.5055912,46.016243 C65.7067949,46.2063968 67.1139864,47.0435676 67.3077839,47.3300332" id="Fill-49" fill="#A4CE4C"></path>
                                    <path d="M57.2362426,76.9313071 C56.8832103,76.6127377 57.237477,76.1200663 57.5880405,76.5818685 C57.4683058,76.7028755 57.3572117,76.8152392 57.2362426,76.9313071" id="Fill-51" fill="#A4CE4C"></path>
                                    <path d="M27.0012516,39.5947229 C27.0987675,39.9318138 27.1864084,40.335582 27.1975178,40.4899277 C27.2110959,40.6492124 27.2036896,41.0208767 27.0506267,40.961608 C26.8864544,40.9060436 26.4001092,41.1863353 26.2840776,41.2999337 C26.1705148,41.4098278 25.4582784,41.287586 24.9558864,40.7726889 C24.4399161,40.256557 22.9216305,39.788581 22.9302712,39.5700276 C22.9413806,39.3465351 22.5883483,39.1143992 22.6080984,38.9094282 C22.6266141,38.7019876 22.4538011,38.2599417 22.1896441,38.3809487 C21.9156121,38.5093642 21.3144697,38.1093003 21.4872827,37.9673023 C21.667502,37.8228348 21.3947043,37.5129087 21.4045793,37.6709586 C21.4181575,37.8277738 20.7824526,37.9821195 20.6651866,37.8413562 C20.5503894,37.6931844 20.0912006,37.2585471 19.8937,37.1943393 C19.7023714,37.132601 18.9419942,36.7090765 18.7025248,36.8992304 C18.4568834,37.0856799 17.8088347,37.4030146 17.8458661,37.5314302 C17.8754911,37.6512024 17.3693959,38.0327449 17.1323953,38.1401694 C16.8990977,38.2488288 16.4016432,37.8438258 16.5942062,37.6178637 C16.789238,37.3894322 17.1472078,36.8473702 16.9904417,36.9091085 C16.8386132,36.9708468 16.3991744,37.337572 16.2090801,37.3844931 C16.0103452,37.4301794 16.0263921,37.7092364 15.9041886,37.6709586 C15.7770476,37.6351504 15.4721562,37.7783832 15.4659843,37.5536559 C15.4536405,37.3264591 15.8869073,36.827614 16.0115796,36.5621395 C16.1288455,36.2966649 16.1350174,35.6632304 16.0078764,35.7731245 C15.8770323,35.8793143 15.6079378,35.049552 15.7498913,34.4679776 C15.895548,33.892577 16.9571135,32.1861315 17.2101611,31.9231265 C17.4669118,31.662591 18.2939455,30.8377678 18.1334763,30.731578 C17.9717727,30.6204492 17.7187251,30.1080216 17.8483348,29.8771205 C17.9754758,29.6449846 18.7593062,28.7831185 19.1148072,28.4657838 C19.4666051,28.1472144 19.929497,27.1890366 20.046763,27.1050725 C20.1590914,27.0211085 20.5701395,26.8877538 20.6775304,26.7161215 C20.7861557,26.5407848 21.4712358,26.0481135 21.7094708,25.8098038 C21.9501746,25.5727289 22.4846606,25.724605 22.3167851,26.008601 C22.1464408,26.2864232 22.541442,26.9013363 22.6266141,26.6679656 C22.7179581,26.4284212 23.3400849,25.9332803 23.4783353,25.9406889 C23.61782,25.9542713 24.0745401,25.661632 24.2004467,25.498643 C24.3226502,25.3381235 24.6337136,25.7949866 24.5349633,25.9579756 C24.4374474,26.1234342 24.2559937,26.6951305 24.2967282,26.8519457 C24.3399315,27.0124651 24.1066339,27.428581 24.2300718,27.4717978 C24.3572128,27.5125451 24.70037,28.0447289 24.7053075,28.1854921 C24.7016044,28.3200815 24.5744634,28.538635 24.8028234,28.4028108 C25.036121,28.2571085 25.5718412,28.7053283 25.4224814,28.8633782 C25.2694185,29.0226629 25.4545753,29.7338877 25.9964675,30.0722134 C26.5358909,30.4080695 26.4161562,31.4514462 26.5531722,31.4551504 C26.6963601,31.462559 27.0061891,31.9033702 26.9037357,31.9231265 C26.7963447,31.9404132 26.7284539,32.0070905 26.9605171,31.9811604 C27.1913459,31.9552304 27.1222207,32.5553263 26.8679387,32.6528727 C26.6148911,32.7553582 25.9569673,33.1183792 25.965608,33.2208647 C25.9779518,33.3270545 26.0495457,33.5468428 26.3334528,33.4999217 C26.621063,33.4505311 26.7901728,33.2097518 26.784001,33.4690525 C26.7704228,33.7283532 27.0642049,34.5988627 27.0284079,34.9063193 C26.9901422,35.2150106 26.6482193,36.1373802 26.6383443,36.2929606 C26.6346412,36.4534801 26.595141,36.9868987 26.5482347,37.1424791 C26.5062658,37.3017638 25.9878268,37.6771325 26.0680614,37.8203652 C26.1421241,37.9673023 26.9037357,39.2601015 27.0012516,39.5947229" id="Fill-53" fill="#A4CE4C"></path>
                                    <path d="M28.7623394,22.787222 C28.878371,22.7020232 29.1240123,22.6328763 29.3079347,22.6390501 C29.4930915,22.645224 29.7041702,22.3143069 30.0423899,22.21923 C30.3830784,22.1253878 31.1335806,23.0230621 30.8706579,23.1601211 C30.6052666,23.2934757 30.0016555,23.5700631 30.153484,23.8293638 C30.3077813,24.0886645 30.6398291,24.8616276 30.5077506,24.996217 C30.3830784,25.1345107 29.8782176,24.9776955 29.7325609,25.0863548 C29.5832011,25.1925447 29.1709187,25.0937634 29.1561062,24.8529842 C29.142528,24.6085007 28.6882767,24.1170641 28.6759329,24.3454957 C28.6611204,24.5652839 28.2550098,25.0777115 28.1809471,25.0122689 C28.1044157,24.9443568 27.6649769,24.6628304 27.5008046,24.7085167 C27.3230541,24.7591421 26.9428655,24.2380711 27.0416157,23.8676416 C27.1428348,23.4922729 27.7661959,23.4305347 27.5958517,23.3515097 C27.4292106,23.2798933 27.5785704,22.7020232 27.821743,22.5896595 C28.0636812,22.4772959 28.6426047,22.8674817 28.7623394,22.787222" id="Fill-55" fill="#A4CE4C"></path>
                                    <path d="M28.1319423,21.951039 C28.0418327,21.8670749 28.3059897,21.4818282 28.7269127,21.0867033 C29.1441327,20.6965175 30.4488708,19.8655205 30.4488708,20.0433267 C30.4575114,20.2161938 30.3772768,20.9311229 29.96376,21.2311708 C29.5539464,21.5312188 28.2232863,22.0300639 28.1319423,21.951039" id="Fill-57" fill="#A4CE4C"></path>
                                    <path d="M34.849924,37.8202418 C34.9857056,37.9363097 34.9943463,38.1684456 34.8807834,38.3351389 C34.7659862,38.4968931 34.4536885,38.833984 34.2895161,38.712977 C34.1216407,38.5857962 33.7908272,38.1598022 33.9266088,38.1042378 C34.0648592,38.0511429 33.7969991,37.4880899 33.8759993,37.4102997 C33.9537652,37.33004 34.7178455,37.6992348 34.849924,37.8202418" id="Fill-59" fill="#A4CE4C"></path>
                                    <path d="M30.7784499,34.4451345 C30.6389651,34.6439317 30.3674018,34.7229566 30.1649637,34.6180016 C29.9662288,34.5192204 29.471243,34.8711285 29.4292741,34.7155481 C29.3885396,34.5624372 29.1527733,34.2142334 29.1490702,34.3154841 C29.1527733,34.4155001 28.8701007,34.5167508 28.9355227,34.3327708 C29.0009448,34.1450865 28.5935999,33.6116679 28.7688816,33.6326589 C28.9453977,33.6474761 29.5082744,33.3820016 29.6526966,33.2597598 C29.7983533,33.1313443 30.3390111,32.559648 30.5463867,32.6287948 C30.7624029,32.6917678 31.2722013,33.4622613 31.1697478,33.5968507 C31.0660601,33.7252663 30.9129971,34.2463373 30.7784499,34.4451345" id="Fill-61" fill="#A4CE4C"></path>
                                    <path d="M37.5200082,18.6403864 C37.5076644,18.3946681 37.607649,17.8501367 37.7384932,17.427847 C37.8656342,17.0080268 38.5359017,15.8757471 38.5210892,15.8226521 C38.5062766,15.770792 38.497636,15.5608819 38.5766362,15.486796 C38.6556364,15.4040667 38.9728717,15.4374054 39.1000127,15.7399229 C39.2271537,16.0412056 38.7222929,17.1154513 38.7420429,17.5081067 C38.7630273,17.9106402 38.481589,19.0429199 38.8049962,19.1898569 C39.1308721,19.3417331 39.9467963,19.8751516 39.909765,19.9591157 C39.8653274,20.0430797 39.7036238,20.3233714 39.4320605,20.3702925 C39.1555597,20.4270917 38.3976513,20.3974573 38.3569168,20.225825 C38.3112448,20.0430797 37.532352,18.8836352 37.5200082,18.6403864" id="Fill-63" fill="#A4CE4C"></path>
                                    <path d="M35.2507267,15.941807 C34.694022,15.4479009 35.277883,14.4156372 35.9345724,15.0564803 C35.5617901,15.3429459 35.8592753,15.9665023 35.2507267,15.941807" id="Fill-65" fill="#A4CE4C"></path>
                                    <path d="M41.1230356,10.3015229 C41.0144103,10.1755768 41.1909265,9.75822617 41.5205055,9.38162278 C41.8488502,9.00254985 42.5536804,9.11985255 42.3598829,9.41249191 C42.161148,9.70266174 41.2378328,10.4299385 41.1230356,10.3015229" id="Fill-67" fill="#A4CE4C"></path>
                                    <path d="M19.0422257,46.034394 C19.1483823,46.071437 18.9570536,46.1578705 18.6163651,46.2220783 C18.2793798,46.2862861 18.6916622,47.2382901 18.5126773,47.3876967 C18.3324581,47.5383381 17.8177222,47.1716128 17.820191,46.9987457 C17.8189566,46.8221742 17.8424098,46.3430853 17.9621445,46.3171552 C18.0855824,46.2998685 18.9360692,45.9948815 19.0422257,46.034394" id="Fill-69" fill="#A4CE4C"></path>
                                    <path d="M34.9854587,59.2303301 C35.0817403,59.1315489 35.2088813,59.2019305 35.2730689,59.3785019 C35.3372566,59.5575429 34.9854587,59.9279724 34.9076929,59.856356 C34.8311614,59.7810354 34.8879428,59.325407 34.9854587,59.2303301" id="Fill-71" fill="#A4CE4C"></path>
                                    <path d="M32.6577912,60.8183616 C32.5195408,61.0295065 32.1899617,61.1752088 31.9270391,61.1431049 C31.6665852,61.1159401 30.9592863,61.5258821 30.9099112,61.7172707 C30.8580673,61.9061898 30.377894,62.2618022 30.3309876,62.1407952 C30.2791437,62.0136144 30.2779094,61.4826653 30.5198476,61.2443556 C30.7605514,60.9986374 31.5357411,60.3627333 31.7073197,60.3503856 C31.8788983,60.3442118 32.4109155,60.2306134 32.5133689,60.1985095 C32.6145879,60.1676404 33.126855,60.238022 33.3848401,59.9416783 C33.6465284,59.6453347 34.5118277,60.0737982 34.320499,60.2157962 C34.1353423,60.3577942 34.1328735,60.7837882 33.9773418,60.7973706 C33.8193414,60.8035445 33.3157149,61.131992 33.1712926,61.0653147 C33.0157609,60.9974026 32.7923384,60.6096863 32.6577912,60.8183616" id="Fill-73" fill="#A4CE4C"></path>
                                    <path d="M32.8808434,61.6576316 C33.052422,61.6514577 33.1215472,61.713196 33.0252656,61.7996296 C32.9388592,61.8823588 32.6191551,62.2910661 32.5475612,62.218215 C32.4722641,62.1465986 32.706796,61.6736835 32.8808434,61.6576316" id="Fill-75" fill="#A4CE4C"></path>
                                    <path d="M31.0400147,60.3126018 C30.9782957,60.3755748 30.8647329,60.3632272 30.7844983,60.2916108 C30.7104356,60.211351 30.6252635,59.9755109 30.7622795,59.9211812 C30.8992955,59.8680863 31.1054367,60.248394 31.0400147,60.3126018" id="Fill-77" fill="#A4CE4C"></path>
                                    <path d="M31.4348924,59.6753395 C31.2682513,59.5259329 31.1707354,59.3641786 31.2164074,59.3160228 C31.2620794,59.2703365 31.4830331,59.1764943 31.5891897,59.2197111 C31.6965806,59.2641626 31.6002991,59.8309199 31.4348924,59.6753395" id="Fill-79" fill="#A4CE4C"></path>
                                    <path d="M32.5649659,59.7373247 C32.5254658,59.8262278 32.4069654,59.8138801 32.3094495,59.7188032 C32.2205743,59.624961 32.0823239,59.3372607 32.2193399,59.2829311 C32.3538872,59.2261319 32.8044353,59.3545475 32.8809668,59.2545315 C32.9574983,59.156985 33.1315456,59.361956 33.0624204,59.5916224 C32.9895921,59.8138801 32.6168098,59.6582997 32.5649659,59.7373247" id="Fill-81" fill="#A4CE4C"></path>
                                    <path d="M82.3059767,25.3815872 C82.5528524,25.8100507 82.6639465,26.0693514 82.5590243,25.9619269 C82.4466958,25.850798 81.8258034,25.6050797 81.4147554,25.6520008 C81.0049417,25.7026262 79.8668447,25.9150058 79.8137664,26.092812 C79.7594538,26.2730877 79.5101093,26.1076292 79.5483751,25.9878569 C79.5866408,25.8742585 79.4237028,25.5569239 79.5483751,25.5853235 C79.6767504,25.6198969 79.9964545,25.203781 80.0260795,25.082774 C80.0618765,24.9642366 80.1050798,24.5493554 80.2186426,24.4394613 C80.3297367,24.3246282 80.7358472,23.9924763 80.8703945,23.9554334 C81.0037073,23.9159209 82.0615697,24.9605323 82.3059767,25.3815872" id="Fill-83" fill="#A4CE4C"></path>
                                    <path d="M14.7333806,40.6268631 C14.6815367,40.6268631 14.6568491,40.8133127 14.7494275,40.8133127 C14.8025058,40.8305994 14.8296621,40.6416803 14.7333806,40.6268631" id="Fill-85" fill="#D0EAF9"></path>
                                    <path d="M26.3086418,46.3901299 C26.2543291,46.3753127 26.2271728,46.5716404 26.3197512,46.583988 C26.377767,46.583988 26.4049233,46.3901299 26.3086418,46.3901299" id="Fill-87" fill="#D0EAF9"></path>
                                </g>
                            </g>
                            <g id="unicorn-1" transform="translate(204.187765, 215.500000) rotate(19.000000) translate(-204.187765, -215.500000) translate(49.187765, 41.000000)">
                                <g id="parents-dad" transform="translate(154.625839, 170.095044) rotate(-28.000000) translate(-154.625839, -170.095044) translate(52.625839, 32.595044)">
                                    <path d="M63.5318273,220.29273 C63.5318273,220.29273 52.7441019,218.79981 51.0210257,205.864688 L63.3679765,207.209898 L63.5318273,220.29273 Z" id="Shape" fill="#1F77B9" fill-rule="nonzero"></path>
                                    <path d="M64.0233797,196.833314 C64.0233797,196.833314 49.3138061,214.009806 32.7701605,214.732527 C16.226515,215.455248 21.142039,237.643308 40.5768584,230.933082 C60.0116778,224.222855 70.9791106,207.046363 70.9791106,207.046363" id="Shape" fill="#FAC8CA" fill-rule="nonzero"></path>
                                    <path d="M61.5973307,197.962235 C53.5844979,207.415637 53.1405151,205.02591 50.6087559,206.107353 C50.6087559,206.107353 64.4937901,208.676442 63.1195575,220.535396 C63.1195575,220.535396 66.8194144,218.356682 72.4167692,208.106705 C73.3575899,206.381671 73.1250275,204.250435 72.4167692,202.419894 C72.0123175,201.391609 71.5040511,200.407081 70.8998279,199.481532 C68.8279081,196.37436 64.0075232,195.11883 61.5973307,197.962235 Z" id="Shape" fill="#00AFEC" fill-rule="nonzero"></path>
                                    <path d="M38.457369,231.587223 C20.7931954,236.044882 16.786779,215.449972 32.754304,214.758903 L33.282855,214.727251 C36.7607204,217.903003 40.4922903,223.431555 38.457369,231.587223 Z" id="Shape" fill="#5F2B70" fill-rule="nonzero"></path>
                                    <path d="M105.974471,238.893563 C105.974471,238.893563 112.845633,211.066169 131.096499,210.164086 C144.135851,209.51522 152.798802,217.760569 151.524994,229.345206 C150.282899,240.671351 154.352741,242.507167 162.249293,242.533544 C162.249293,242.533544 156.170957,252.683289 143.438164,250.546779 C130.398811,248.36279 132.513015,238.176117 123.53822,238.471536 C117.724159,238.661448 113.601461,243.150758 111.381547,246.310684 C110.688874,247.304688 109.488742,247.817207 108.290071,247.630906 C107.0914,247.444605 106.104238,246.592132 105.747194,245.434979 C105.29264,243.88403 105.213357,241.779171 105.974471,238.893563 Z" id="Shape" fill="#B77EB4" fill-rule="nonzero"></path>
                                    <path d="M136.08602,242.037663 C134.230806,229.904391 122.692538,234.430629 118.98211,232.16751 C115.927086,230.305317 113.6966,217.750019 130.578519,210.201014 C112.713496,211.598977 105.974471,238.893563 105.974471,238.893563 C105.213357,241.779171 105.29264,243.88403 105.757765,245.419153 C106.114809,246.576306 107.101971,247.428779 108.300642,247.61508 C109.499313,247.801381 110.699445,247.288862 111.392118,246.294858 C113.601461,243.129657 117.73473,238.645622 123.548791,238.45571 C131.931609,238.176117 130.641945,247.049231 141.06497,249.998144 C138.358954,248.160199 136.552034,245.271247 136.08602,242.037663 L136.08602,242.037663 Z" id="Shape" fill="#D1D3D4" fill-rule="nonzero" style="mix-blend-mode: multiply;"></path>
                                    <path d="M70.9685395,194.659876 C70.9685395,194.659876 63.0402749,201.517812 59.7421168,218.95807 C56.6395226,235.454044 59.9218241,257.468019 67.945228,270.403141 C68.8537819,271.860135 70.307319,272.89502 71.9833574,273.278199 C74.9869477,273.997576 78.0820547,274.260785 81.1642879,274.058948 C84.6056451,273.784516 87.2211532,270.855579 87.0999153,267.412026 C86.9572066,263.951406 87.2056255,259.588703 89.0608394,257.483845 C89.0608394,257.483845 91.9414423,262.648398 100.477541,267.892081 C102.387666,269.073351 104.701086,269.416833 106.873007,268.841642 C109.584474,268.113645 113.289616,266.610175 116.038081,263.529379 C118.071018,261.253624 118.68077,258.044387 117.623734,255.183798 C114.737846,247.42378 108.712365,226.871073 115.382678,204.139653 C115.382678,204.139653 117.470454,193.235535 100.720674,187.390463 C83.9708935,181.545392 70.9685395,194.659876 70.9685395,194.659876 Z" id="Shape" fill="#FAC8CA" fill-rule="nonzero"></path>
                                    <path d="M58.5845902,244.311332 C58.5845902,244.311332 59.4619848,256.47098 64.2189436,265.75557 C64.2189436,265.75557 77.6917079,272.312812 88.3525811,266.689305 L88.3525811,258.560013 L95.0651785,265.734469 C95.0651785,265.734469 110.393157,267.390924 117.951436,254.466353 L113.020055,235.912998 L58.5845902,244.311332 Z" id="Shape" fill="#DAE2D7" fill-rule="nonzero"></path>
                                    <path d="M115.35625,204.155479 C115.35625,204.155479 117.074041,195.187409 104.864514,189.141875 C98.854889,212.047381 82.2583884,220.904669 71.2856701,214.991018 C66.5022838,212.42193 66.7348462,205.052286 68.7063414,197.181486 C66.100585,200.541875 52.3212611,220.419338 55.4238553,243.219338 C80.1864686,252.303465 104.36239,243.657191 114.230437,236.461633 C112.660641,226.839421 111.524256,217.301615 115.35625,204.155479 Z" id="Shape" fill="#00AFEC" fill-rule="nonzero"></path>
                                    <path d="M93.1676805,74.3189248 C173.04759,112.987133 106.867722,172.846364 137.137836,203.089861 C137.137836,203.089861 104.15097,220.799162 105.911045,168.921514 C107.137283,132.764366 63.4895432,77.6951395 93.1676805,74.3189248 Z" id="Shape" fill="#A975A8" fill-rule="nonzero"></path>
                                    <path d="M65.2020484,37.876908 C65.2020484,37.876908 81.3387097,23.3908371 102.834878,26.9886158 C124.331046,30.5863945 127.412498,40.0925489 127.412498,40.0925489 L65.2020484,37.876908 Z" id="Shape" fill="#A975A8" fill-rule="nonzero"></path>
                                    <path d="M94.6951928,35.7245712 C94.6951928,35.7245712 124.685175,21.8979172 150.193045,49.688384 C175.700915,77.4788507 169.749431,98.2531215 203.772258,103.301617 C203.772258,103.301617 176.023331,140.846179 141.329245,110.792594 C118.976825,91.4532142 94.6951928,35.7245712 94.6951928,35.7245712 Z" id="Shape" fill="#A975A8" fill-rule="nonzero"></path>
                                    <path d="M108.004106,46.8555289 C108.004106,46.8555289 134.658932,38.6523823 154.595875,70.6367407 C174.532818,102.621099 162.613993,124.856638 195.135735,136.050899 C195.135735,136.050899 168.59719,165.065244 140.018439,129.192963 C121.630151,106.086995 108.004106,46.8555289 108.004106,46.8555289 Z" id="Shape" fill="#A975A8" fill-rule="nonzero"></path>
                                    <path d="M111.04856,41.5116141 C195.685428,68.2575645 142.550198,144.734102 176.588881,171.284864 C176.588881,171.284864 140.446565,193.662837 135.679036,138.799349 C132.349164,100.537342 81.8302621,50.2370188 111.04856,41.5116141 Z" id="Shape" fill="#A975A8" fill-rule="nonzero"></path>
                                    <path d="M112.718781,49.4035158 C192.582834,88.1033762 123.818352,153.327623 153.649769,184.504855 C153.649769,184.504855 119.722082,204.181856 122.993812,149.207586 C125.224297,110.88755 82.5385204,53.8084209 112.718781,49.4035158 Z" id="Shape" fill="#A975A8" fill-rule="nonzero"></path>
                                    <path d="M35.6983329,84.3156854 C35.6983329,84.3156854 14.61972,58.8094388 10.6397311,37.3124471 C10.0689378,34.170965 11.0318097,30.9460065 13.2323999,28.6287905 C15.43299,26.3115744 18.6080084,25.1793444 21.7815857,25.5801013 C32.3526052,26.9886158 56.581382,38.8370191 71.771937,57.1582589" id="Shape" fill="#FAC8CA" fill-rule="nonzero"></path>
                                    <path d="M40.8411339,78.9190173 C47.1837456,67.840813 56.8456575,66.6855145 56.8456575,66.6855145 C56.8456575,66.6855145 32.3684618,41.2161953 23.3460966,38.6207303 C7.75384282,34.1261446 34.0228263,75.2684852 40.8411339,78.9190173 Z" id="Shape" fill="#FFFFFF" fill-rule="nonzero"></path>
                                    <path d="M171.387939,104.087642 C168.745185,85.5395632 156.318951,72.4356301 142.893756,62.9980551 C115.87423,44.0068477 71.5393746,35.1020816 39.6677507,63.578342 C22.0828598,79.2935661 11.0414299,106.625079 8.55195479,128.802589 C5.3066518,157.721977 23.3513821,174.170473 42.6064942,186.831278 C44.3084283,187.949649 46.026219,189.052194 47.7334386,190.160014 C47.4687796,190.668747 47.5915826,191.292523 48.0294272,191.663485 C64.6787829,204.197682 92.8558354,205.81721 114.510569,197.603513 C132.137744,190.967141 147.560861,176.122347 158.279875,159.262375 C168.998889,142.402403 173.972554,122.282274 171.387939,104.087642 Z" id="Shape" fill="#FAC8CA" fill-rule="nonzero"></path>
                                    <path d="M159.432116,75.6377587 C176.150184,130.928549 129.595414,146.184819 119.790793,136.889678 C111.534827,129.071631 94.4203463,120.435907 73.9865656,114.179359 C53.7113502,107.98084 37.886534,106.793889 37.886534,106.793889 C37.886534,106.793889 22.2414251,104.071816 13.3089136,118.035629 C13.3723397,115.150021 12.0403912,117.370937 11.4589852,121.390742 C10.3481402,123.774911 9.48218002,126.265277 8.87437089,128.82369 C3.06031015,152.694583 21.5067392,177.425355 53.2726529,190.307724 C54.1394765,190.919663 55.0027764,191.536877 55.8625526,192.159367 C56.0404722,192.292278 56.1552823,192.492809 56.1796832,192.713277 C74.4146919,202.863022 103.167865,203.263948 123.781353,191.65821 C140.174934,182.272737 153.502131,168.359334 162.159439,151.592038 C177.170287,122.276999 174.215687,95.0615436 159.432116,75.6377587 Z" id="Shape" fill="#F6BABC" fill-rule="nonzero"></path>
                                    <ellipse id="Oval" fill="#FFFFFF" fill-rule="nonzero" cx="32.743733" cy="103.866078" rx="21.1790376" ry="21.1382689"></ellipse>
                                    <ellipse id="Oval" fill="#5F2B70" fill-rule="nonzero" cx="32.4794575" cy="104.710132" rx="16.3110831" ry="16.279685"></ellipse>
                                    <ellipse id="Oval" fill="#793683" fill-rule="nonzero" cx="32.4794575" cy="104.710132" rx="9.12278984" ry="9.10522887"></ellipse>
                                    <ellipse id="Oval" fill="#FFFFFF" fill-rule="nonzero" cx="27.9550611" cy="97.852196" rx="5.59735483" ry="5.58658017"></ellipse>
                                    <ellipse id="Oval" fill="#FFFFFF" fill-rule="nonzero" cx="36.1423157" cy="111.721053" rx="2.42076347" ry="2.4161036"></ellipse>
                                    <ellipse id="Oval" fill="#FFFFFF" fill-rule="nonzero" cx="103.807412" cy="114.944283" rx="21.1790376" ry="21.1382689"></ellipse>
                                    <ellipse id="Oval" fill="#5F2B70" fill-rule="nonzero" cx="102.787308" cy="115.382135" rx="16.3110831" ry="16.279685"></ellipse>
                                    <ellipse id="Oval" fill="#793683" fill-rule="nonzero" cx="102.787308" cy="115.382135" rx="9.12278984" ry="9.10522887"></ellipse>
                                    <ellipse id="Oval" fill="#FFFFFF" fill-rule="nonzero" cx="98.2629119" cy="108.524199" rx="5.59735483" ry="5.58658017"></ellipse>
                                    <ellipse id="Oval" fill="#FFFFFF" fill-rule="nonzero" cx="106.450167" cy="122.393056" rx="2.42076347" ry="2.4161036"></ellipse>
                                    <path d="M70.0330043,200.177876 C30.5502464,194.696803 2.67975345,172.023411 3.86370763,145.841922 C5.04766182,119.660432 28.6104643,119.940025 28.6104643,119.940025 C28.6104643,119.940025 44.7312691,118.589539 66.3172909,121.422394 C84.4360184,123.801571 100.540967,128.148447 111.111986,133.160016 C100.974378,127.304393 83.2626352,122.250622 62.9609922,119.823968 C41.4859661,117.260155 25.3704468,118.948262 25.3704468,118.948262 C25.3704468,118.948262 1.87635596,119.07487 0.232562429,146.300876 C-1.41123111,173.526882 25.9782805,196.590648 65.2443325,201.586391 C77.1578715,203.105687 86.5607933,202.477923 94.0873592,200.562976 C87.4857575,201.48616 79.5733494,201.517812 70.0330043,200.177876 Z" id="Shape" fill="#FAC8CA" fill-rule="nonzero"></path>
                                    <path d="M126.709525,69.3495589 C126.709525,69.3495589 152.338962,44.7770467 175.056083,38.7948164 C178.377759,37.9154326 181.920485,38.6756251 184.586548,40.8398482 C187.25261,43.0040714 188.720032,46.3109554 188.534133,49.735862 C187.87873,61.1622384 177.14386,87.9609421 158.734429,105.654417" id="Shape" fill="#FAC8CA" fill-rule="nonzero"></path>
                                    <path d="M132.904143,74.3822289 C145.325091,80.2378511 147.317728,90.4772771 147.317728,90.4772771 C147.317728,90.4772771 172.630034,62.2858848 174.686098,52.442109 C178.23796,35.4502538 136.271013,66.8332239 132.904143,74.3822289 Z" id="Shape" fill="#FFFFFF" fill-rule="nonzero"></path>
                                    <path d="M25.3704468,118.948262 C25.3704468,118.948262 1.87635596,119.07487 0.232562429,146.300876 C-1.41123111,173.526882 25.972995,196.590648 65.2443325,201.586391 C104.51567,206.582134 116.667057,188.398052 123.38494,177.040255 C132.661009,161.356683 128.009761,144.153815 113.046483,134.357517 C103.342287,128.000738 84.6210112,122.414158 62.9451357,119.823968 C41.4859661,117.260155 25.3704468,118.948262 25.3704468,118.948262 Z" id="Shape" fill="#FAC8CA" fill-rule="nonzero"></path>
                                    <path d="M19.6673818,140.160386 C19.6673818,140.160386 21.2054652,133.745578 25.0427452,132.774916 C28.8800253,131.804254 27.1886622,136.314666 25.5025846,136.652288 C23.816507,136.989909 21.2688913,137.786485 19.6673818,140.160386 Z" id="Shape" fill="#000000" fill-rule="nonzero"></path>
                                    <path d="M83.965608,145.551778 C83.965608,145.551778 83.9127529,138.957609 80.3873179,137.153445 C76.8618829,135.34928 77.4961441,140.118183 79.0659405,140.846179 C80.6357369,141.574176 82.9402191,142.877183 83.965608,145.551778 Z" id="Shape" fill="#000000" fill-rule="nonzero"></path>
                                    <path d="M141.17068,51.2076805 C141.17068,51.2076805 126.323683,22.6839421 80.0754728,22.3146687 C33.8272625,21.9453952 34.7257991,70.2463659 13.0657801,69.8243391 C13.0657801,69.8243391 35.6031937,95.6418305 58.8911497,77.4841261 C82.1791057,59.3264217 117.253748,85.5290125 141.17068,51.2076805 Z" id="Shape" fill="#B77EB4" fill-rule="nonzero"></path>
                                    <g id="Group" opacity="0.28" style="mix-blend-mode: multiply;" transform="translate(12.685223, 31.652012)" fill="#B77EB4" fill-rule="nonzero">
                                        <path d="M88.6538552,26.9358625 C58.6215887,19.4237849 57.9978986,40.1505776 34.953076,35.4397031 C19.0278351,32.1795458 29.3662922,12.2915314 37.2628438,0.321795458 C19.762521,14.2961589 15.729677,38.4677456 0.380556703,38.1723268 C0.380556703,38.1723268 22.9179703,63.9898182 46.2059263,45.8321138 C69.4938823,27.6744094 104.568525,53.8770002 128.485457,19.5556683 C127.280487,17.4415647 125.863766,15.4549041 124.257049,13.6261913 C119.452521,21.2173989 108.881501,31.9949091 88.6538552,26.9358625 Z" id="Shape"></path>
                                    </g>
                                    <path d="M62.5857211,65.1925946 C62.5857211,65.1925946 67.2475407,1.74613601 77.9771255,0.427302166 C87.2901937,-0.717445612 93.172966,51.3817666 94.5683406,65.213696 C94.851631,67.9302736 93.7928114,70.6145378 91.7300219,72.4092534 C89.4096831,74.4191562 85.6464001,76.476537 79.9433351,76.5873191 C68.7116269,76.7930571 61.8404642,73.8546953 62.5857211,65.1925946 Z" id="Shape" fill="#FBB35A" fill-rule="nonzero"></path>
                                    <path d="M62.4905819,62.1592768 C62.4905819,62.1592768 82.4539522,70.1619606 93.0249718,51.5505773" id="Shape"></path>
                                    <path d="M90.0333732,31.5306796 C90.0333732,31.5306796 83.933895,49.4351679 64.3616523,47.2564543" id="Shape"></path>
                                    <path d="M66.4811417,31.9157791 C66.4811417,31.9157791 79.6949161,35.2603417 87.2637661,18.025821" id="Shape"></path>
                                    <path d="M69.6683041,15.9684402 C69.6683041,15.9684402 80.3503194,22.8263762 84.5205866,8.70957871" id="Shape"></path>
                                    <path d="M78.6748128,1.24497915 C78.6748128,1.24497915 81.5976997,15.0716332 72.332201,15.6519201 C72.332201,15.6519201 79.6790596,20.68459 84.1347443,9.84905116 C84.1558864,9.84905116 82.0733955,-1.00231372 78.6748128,1.24497915 Z" id="Shape" fill="#CD944A" fill-rule="nonzero"></path>
                                    <path d="M84.3250227,12.3284588 C84.3250227,12.3284588 83.7330456,29.0143446 67.2528262,32.0529378 C67.2528262,32.0529378 80.6938775,33.0235995 86.8726384,19.2919015 L84.3250227,12.3284588 Z" id="Shape" fill="#CD944A" fill-rule="nonzero"></path>
                                    <path d="M87.1474849,21.7396571 C87.1474849,21.7396571 82.9825032,46.0431272 66.3754316,46.8027755 C66.3754316,46.8027755 79.5627784,50.0471068 89.2775453,33.9626092 L87.1474849,21.7396571 Z" id="Shape" fill="#CD944A" fill-rule="nonzero"></path>
                                    <path d="M89.63696,35.9408599 C89.63696,35.9408599 87.6284663,65.0818126 65.0540541,62.9453018 C65.0540541,62.9453018 84.2827386,68.1626085 92.623273,52.8008318 L89.63696,35.9408599 Z" id="Shape" fill="#CD944A" fill-rule="nonzero"></path>
                                    <path d="M94.4732014,67.5823216 C94.4732014,67.5823216 91.9995829,80.5860233 67.8712308,74.9097624 C67.8712308,74.9097624 88.6115711,76.2180456 92.5069918,54.9004153 L94.4732014,67.5823216 Z" id="Shape" fill="#CD944A" fill-rule="nonzero"></path>
                                    <path d="M78.2255444,2.68514571 C78.2255444,2.68514571 74.6102558,2.85923178 72.6387606,14.7392871 C72.6387606,14.7392871 73.949567,15.8787595 74.446405,11.1309577 C74.9432429,6.38315581 76.8195988,4.10421093 77.9031283,3.74548812 C78.9866578,3.38676531 78.2255444,2.68514571 78.2255444,2.68514571 Z" id="Shape" fill="#FFFFFF" fill-rule="nonzero"></path>
                                    <path d="M71.2962411,19.0597867 C71.2962411,19.0597867 69.1397532,28.3496523 69.7951564,29.7898189 C70.4505596,31.2299855 72.1366372,19.3182782 72.1366372,19.3182782 C72.1366372,19.3182782 71.5340891,18.0047197 71.2962411,19.0597867 Z" id="Shape" fill="#FFFFFF" fill-rule="nonzero"></path>
                                    <path d="M68.5477761,34.6906055 C68.5477761,34.6906055 66.7031332,44.0807024 67.8448033,45.6685784 C68.9864734,47.2564543 69.7687288,35.0757049 69.7687288,35.0757049 C69.7687288,35.0757049 68.7433399,33.6249877 68.5477761,34.6906055 Z" id="Shape" fill="#FFFFFF" fill-rule="nonzero"></path>
                                    <path d="M67.3691074,50.0576574 C67.3691074,50.0576574 65.9050212,60.935399 68.1830759,60.7718636 C69.7687288,60.6610815 69.3194605,53.3863941 69.1714662,50.8014797 C69.1294047,50.1866487 68.6663402,49.682858 68.0562237,49.5881526 C67.7126655,49.5195732 67.4113915,49.5881526 67.3691074,50.0576574 Z" id="Shape" fill="#FFFFFF" fill-rule="nonzero"></path>
                                    <path d="M67.8870873,65.7939829 C67.5532092,65.7223965 67.2049002,65.8081894 66.9427256,66.0265911 C66.680551,66.2449928 66.5336984,66.5716888 66.5445679,66.912354 C66.4917128,68.8747787 66.5445679,72.6624695 68.3363557,72.6782955 C70.1281435,72.6941215 68.9759024,68.3155932 68.5847746,66.5694572 C68.5157881,66.2122302 68.2592189,65.9198607 67.9135149,65.8045335 L67.8870873,65.7939829 Z" id="Shape" fill="#FFFFFF" fill-rule="nonzero"></path>
                                    <path d="M36.6391536,162.775749 L68.4579224,165.693009 C68.4579224,165.693009 64.5202176,183.966771 50.5981849,182.69014 C36.6761522,181.413508 36.6391536,162.775749 36.6391536,162.775749 Z" id="Shape" fill="#4E1E5D" fill-rule="nonzero"></path>
                                    <path d="M41.1212659,176.370288 C43.061048,179.419432 46.0685031,181.925216 50.7408937,182.357793 C58.500022,183.069964 62.9662778,177.325123 65.3183296,172.524568 C53.055947,170.889214 45.4553839,173.611287 41.1212659,176.370288 Z" id="Shape" fill="#BD2232" fill-rule="nonzero"></path>
                                    <path d="M43.34118,163.677831 C43.5208874,165.423967 45.1858229,166.906336 47.3317399,167.101524 L57.2103576,168.008881 C59.3562746,168.209344 61.2643436,167.04877 61.7611815,165.371214 L43.34118,163.677831 Z" id="Shape" fill="#FFFFFF" fill-rule="nonzero"></path>
                                    <path d="M53.2197978,141.152149 C53.2197978,141.152149 70.66198,130.548725 76.2646203,151.175286 C79.7424857,163.957424 93.9552215,158.787595 93.9552215,158.787595 C93.9552215,158.787595 82.0892521,176.586577 61.5127626,167.755665 C40.9362731,158.924754 47.1837456,143.789816 53.2197978,141.152149 Z" id="Shape" fill="#9B6B9A" fill-rule="nonzero"></path>
                                    <path d="M47.7492952,138.261265 C47.7492952,138.261265 30.5502464,129.673019 26.9085302,149.455527 C24.646332,161.736507 10.9040066,157.964643 10.9040066,157.964643 C10.9040066,157.964643 23.4359503,173.748446 42.0515156,163.841366 C60.667081,153.934286 53.6214965,140.260617 47.7492952,138.261265 Z" id="Shape" fill="#9B6B9A" fill-rule="nonzero"></path>
                                    <path d="M49.7736454,153.232667 C49.7736454,153.232667 48.764113,157.637572 49.7736454,158.972232 C50.7831778,160.306892 53.2726529,164.542986 62.2685905,168.029983 C62.2685905,168.029983 50.8307474,162.374823 49.7736454,153.232667 Z" id="Shape" fill="#9B6B9A" fill-rule="nonzero" style="mix-blend-mode: multiply;"></path>
                                    <path d="M94.6899073,84.6902342 C101.270367,82.7858381 121.841571,78.4231358 131.857612,94.6711687 C132.53541,95.7719105 132.616742,97.1380421 132.074318,98.3111502 L131.868183,98.764829 C131.351471,99.8721616 130.337776,100.668112 129.137853,100.908676 C127.937929,101.14924 126.694909,100.805723 125.789847,99.9834315 C120.636475,95.3147597 110.27159,88.3038389 95.8051499,90.0341489 C95.0456358,90.1290575 94.2808726,89.9035455 93.6949861,89.4119076 C93.1090996,88.9202697 92.7551708,88.2070481 92.7184122,87.4439593 L92.7184122,87.4439593 C92.6584207,86.1814481 93.4737519,85.042618 94.6899073,84.6902342 Z" id="Shape" fill="#9B6B9A" fill-rule="nonzero"></path>
                                    <path d="M114.230437,236.48801 C114.230437,236.48801 111.836101,225.135488 112.914345,215.998607 C112.914345,215.998607 106.603446,214.136414 104.420531,211.092545 C104.420531,211.092545 108.120388,237.368991 100.017701,243.483105 C100.017701,243.483105 109.478764,240.813785 114.230437,236.48801 Z" id="Shape" fill="#0097CA" fill-rule="nonzero"></path>
                                    <path d="M63.5318273,201.354276 C63.5318273,201.354276 51.1425924,227.261448 54.9693015,249.069685 L58.5898757,252.440624 C58.5898757,252.440624 57.8129057,211.140023 67.6386684,201.354276 L63.5318273,201.354276 Z" id="Shape" fill="#0082B0" fill-rule="nonzero"></path>
                                    <path d="M105.847618,200.130398 C105.847618,200.130398 103.865552,199.075331 100.033558,199.539561 C100.033558,199.539561 88.4952899,223.500134 94.7057639,249.998144 C94.7057639,249.998144 110.139452,248.5316 114.26215,236.48801 C114.26215,236.48801 113.205048,226.58093 112.787493,221.648491 C112.75578,221.648491 100.223836,218.71013 105.847618,200.130398 Z" id="Shape" fill="#0082B0" fill-rule="nonzero"></path>
                                    <path d="M121.704148,219.680791 C121.704148,219.680791 114.536996,224.787316 103.358143,218.019061 L112.147946,209.262004 L121.704148,219.680791 Z" id="Shape" fill="#1F77B9" fill-rule="nonzero"></path>
                                    <path d="M104.890941,201.607492 C104.890941,201.607492 109.077065,223.816654 99.2565878,237.147427 C89.4361106,250.478199 109.827607,260.548814 116.799195,241.235812 C123.770782,221.922809 117.211464,202.615081 117.211464,202.615081" id="Shape" fill="#FAC8CA" fill-rule="nonzero"></path>
                                    <path d="M104.251394,204.202957 C106.746155,211.873295 104.161541,215.128177 103.405713,217.786946 C103.405713,217.786946 113.310758,211.171675 121.704148,219.680791 C121.704148,219.680791 121.815143,207.299579 118.955683,202.150852 C117.985041,200.43897 116.39137,199.165732 114.505283,198.595276 C113.451539,198.262275 112.365514,198.041244 111.265266,197.935859 C107.544267,197.587687 103.099153,200.657932 104.251394,204.202957 Z" id="Shape" fill="#00AFEC" fill-rule="nonzero"></path>
                                    <path d="M115.96937,243.26154 C108.368807,259.794441 89.8008108,249.977042 99.2565878,237.147427 C99.362298,237.004993 99.4627226,236.857283 99.5631473,236.714849 C104.246109,236.01323 110.89528,236.582966 115.96937,243.26154 Z" id="Shape" fill="#5F2B70" fill-rule="nonzero"></path>
                                </g>
                                <g id="Group-10" transform="translate(98.178394, 283.711912) rotate(-38.000000) translate(-98.178394, -283.711912) translate(67.178394, 225.711912)">
                                    <path d="M4.95034377,0 L56.2558592,0 C58.9898586,-5.02227537e-16 61.206203,2.2163444 61.206203,4.95034377 L61.206203,110.438825 C61.206203,113.172825 58.9898586,115.389169 56.2558592,115.389169 L4.95034377,115.389169 C2.2163444,115.389169 2.1111752e-15,113.172825 1.77635684e-15,110.438825 L0,4.95034377 C-3.34818358e-16,2.2163444 2.2163444,5.02227537e-16 4.95034377,0 Z" id="Rectangle-2" fill="#2E3B50"></path>
                                    <g id="Group-3" transform="translate(2.225680, 12.323115)">
                                        <mask id="mask-4" fill="white">
                                            <use xlink:href="#path-3"></use>
                                        </mask>
                                        <use id="Rectangle-6" fill="#FFFFFF" xlink:href="#path-3"></use>
                                        <path d="M28.6142785,12.7981152 C18.8415024,12.7981152 9.27761532,11.8527564 0,10.043834 L0,0 L56.7548428,0 L56.7548428,10.135399 C47.6254976,11.8846459 38.2208093,12.7981152 28.6142785,12.7981152 Z" id="bg" fill="#1F9AFF" mask="url(#mask-4)"></path>
                                        <g id="Group-13" mask="url(#mask-4)">
                                            <g transform="translate(3.338520, 17.924531)">
                                                <g id="Rectangle-7" fill="none">
                                                    <use fill="black" fill-opacity="1" filter="url(#filter-6)" xlink:href="#path-5"></use>
                                                    <use fill="#FFFFFF" fill-rule="evenodd" xlink:href="#path-5"></use>
                                                </g>
                                                <g id="Rectangle-7-Copy" fill="none">
                                                    <use fill="black" fill-opacity="1" filter="url(#filter-8)" xlink:href="#path-7"></use>
                                                    <use fill="#FFFFFF" fill-rule="evenodd" xlink:href="#path-7"></use>
                                                </g>
                                                <ellipse id="Oval-6-Copy" fill="#D8D8D8" fill-rule="evenodd" cx="5.56420027" cy="6.72169918" rx="3.33852016" ry="3.36084959"></ellipse>
                                                <rect id="Rectangle-13" fill="#2E3B50" fill-rule="evenodd" opacity="0.200000018" x="3.33852016" y="25.7665135" width="42.2879221" height="2.24056639"></rect>
                                                <rect id="Rectangle-13-Copy" fill="#2E3B50" fill-rule="evenodd" opacity="0.200000018" x="3.33852016" y="20.1650975" width="42.2879221" height="2.24056639"></rect>
                                                <rect id="Rectangle-13-Copy-2" fill="#2E3B50" fill-rule="evenodd" opacity="0.200000018" x="3.33852016" y="14.5636816" width="42.2879221" height="2.24056639"></rect>
                                                <rect id="Rectangle-15" fill="#2E3B50" fill-rule="evenodd" opacity="0.200000018" x="11.1284005" y="5.60141598" width="21.143961" height="2.24056639"></rect>
                                                <rect id="Rectangle-15-Copy" fill="#2E3B50" fill-rule="evenodd" opacity="0.200000018" x="11.1284005" y="43.6910447" width="21.143961" height="2.24056639"></rect>
                                            </g>
                                        </g>
                                    </g>
                                </g>
                            </g>
                        </g>
                    </g>
                </g>
            </g>
        </g>
    </g>
</svg>