<svg xmlns="http://www.w3.org/2000/svg" xmlns:xlink="http://www.w3.org/1999/xlink" width="162" height="235" viewBox="0 0 162 235">
    <defs>
        <path id="a" d="M0 0h56.755v90.743H0z"/>
        <rect id="d" width="50.078" height="34.729" rx="1.98"/>
        <filter id="c" width="139.9%" height="157.6%" x="-20%" y="-23%" filterUnits="objectBoundingBox">
            <feOffset dy="2" in="SourceAlpha" result="shadowOffsetOuter1"/>
            <feGaussianBlur in="shadowOffsetOuter1" result="shadowBlurOuter1" stdDeviation="3"/>
            <feColorMatrix in="shadowBlurOuter1" values="0 0 0 0 0 0 0 0 0 0 0 0 0 0 0 0 0 0 0.13 0"/>
        </filter>
        <rect id="f" width="50.078" height="40.33" y="38.09" rx="1.98"/>
        <filter id="e" width="139.9%" height="149.6%" x="-20%" y="-19.8%" filterUnits="objectBoundingBox">
            <feOffset dy="2" in="SourceAlpha" result="shadowOffsetOuter1"/>
            <feGaussianBlur in="shadowOffsetOuter1" result="shadowBlurOuter1" stdDeviation="3"/>
            <feColorMatrix in="shadowBlurOuter1" values="0 0 0 0 0 0 0 0 0 0 0 0 0 0 0 0 0 0 0.13 0"/>
        </filter>
    </defs>
    <g fill="none" fill-rule="evenodd">
        <g transform="rotate(-9 83.042 -89.442)">
            <path fill="#1F77B9" fill-rule="nonzero" d="M63.532 220.293S52.744 218.8 51.02 205.865l12.347 1.345.164 13.083z"/>
            <path fill="#FAC8CA" fill-rule="nonzero" d="M64.023 196.833s-14.71 17.177-31.253 17.9c-16.543.722-11.628 22.91 7.807 16.2 19.435-6.71 30.402-23.887 30.402-23.887"/>
            <path fill="#00AFEC" fill-rule="nonzero" d="M61.597 197.962c-8.013 9.454-8.456 7.064-10.988 8.145 0 0 13.885 2.57 12.51 14.428 0 0 3.7-2.178 9.298-12.428.94-1.725.708-3.857 0-5.687a16.268 16.268 0 0 0-1.517-2.938c-2.072-3.108-6.892-4.363-9.303-1.52z"/>
            <path fill="#5F2B70" fill-rule="nonzero" d="M38.457 231.587c-17.664 4.458-21.67-16.137-5.703-16.828l.529-.032c3.478 3.176 7.21 8.705 5.174 16.86z"/>
            <path fill="#B77EB4" fill-rule="nonzero" d="M105.974 238.894s6.872-27.828 25.122-28.73c13.04-.649 21.703 7.597 20.429 19.181-1.242 11.326 2.828 13.162 10.724 13.189 0 0-6.078 10.15-18.81 8.013-13.04-2.184-10.926-12.37-19.9-12.075-5.815.19-9.938 4.679-12.157 7.839a3.174 3.174 0 0 1-5.635-.876c-.454-1.551-.534-3.656.227-6.541z"/>
            <path fill="#D1D3D4" fill-rule="nonzero" d="M136.086 242.038c-1.855-12.134-13.393-7.607-17.104-9.87-3.055-1.863-5.285-14.418 11.597-21.967-17.866 1.398-24.605 28.693-24.605 28.693-.76 2.885-.681 4.99-.216 6.525a3.174 3.174 0 0 0 5.634.876c2.21-3.165 6.343-7.65 12.157-7.84 8.383-.279 7.093 8.594 17.516 11.543a11.63 11.63 0 0 1-4.979-7.96z" style="mix-blend-mode:multiply"/>
            <path fill="#FAC8CA" fill-rule="nonzero" d="M70.969 194.66s-7.929 6.858-11.227 24.298c-3.102 16.496.18 38.51 8.203 51.445a6.453 6.453 0 0 0 4.038 2.875c3.004.72 6.1.983 9.181.78a6.446 6.446 0 0 0 5.936-6.646c-.143-3.46.106-7.823 1.96-9.928 0 0 2.881 5.164 11.418 10.408a8.18 8.18 0 0 0 6.395.95c2.711-.728 6.417-2.232 9.165-5.313a8.239 8.239 0 0 0 1.586-8.345c-2.886-7.76-8.912-28.313-2.241-51.044 0 0 2.087-10.904-14.662-16.75-16.75-5.845-29.752 7.27-29.752 7.27z"/>
            <path fill="#DAE2D7" fill-rule="nonzero" d="M58.585 244.311s.877 12.16 5.634 21.445c0 0 13.473 6.557 24.134.933v-8.129l6.712 7.174s15.328 1.657 22.886-11.268l-4.93-18.553-54.436 8.398z"/>
            <path fill="#00AFEC" fill-rule="nonzero" d="M115.356 204.155s1.718-8.968-10.491-15.013c-6.01 22.905-22.607 31.763-33.58 25.849-4.783-2.57-4.55-9.939-2.579-17.81-2.605 3.36-16.385 23.238-13.282 46.038 24.762 9.084 48.938.438 58.806-6.757-1.57-9.623-2.706-19.16 1.126-32.307z"/>
            <path fill="#A975A8" fill-rule="nonzero" d="M93.168 74.319c79.88 38.668 13.7 98.527 43.97 128.77 0 0-32.987 17.71-31.227-34.167 1.226-36.158-42.421-91.227-12.743-94.603zM65.202 37.877s16.137-14.486 37.633-10.888c21.496 3.597 24.577 13.104 24.577 13.104l-62.21-2.216z"/>
            <path fill="#A975A8" fill-rule="nonzero" d="M94.695 35.725s29.99-13.827 55.498 13.963 19.556 48.565 53.58 53.614c0 0-27.75 37.544-62.444 7.49-22.352-19.339-46.634-75.067-46.634-75.067z"/>
            <path fill="#A975A8" fill-rule="nonzero" d="M108.004 46.856s26.655-8.204 46.592 23.78c19.937 31.985 8.018 54.22 40.54 65.415 0 0-26.539 29.014-55.118-6.858-18.388-23.106-32.014-82.337-32.014-82.337z"/>
            <path fill="#A975A8" fill-rule="nonzero" d="M111.049 41.512c84.636 26.746 31.501 103.222 65.54 129.773 0 0-36.142 22.378-40.91-32.486-3.33-38.262-53.849-88.562-24.63-97.287z"/>
            <path fill="#A975A8" fill-rule="nonzero" d="M112.719 49.404c79.864 38.7 11.1 103.924 40.93 135.1 0 0-33.927 19.678-30.655-35.296 2.23-38.32-40.455-95.4-10.275-99.804z"/>
            <path fill="#FAC8CA" fill-rule="nonzero" d="M35.698 84.316S14.62 58.809 10.64 37.312a10.01 10.01 0 0 1 2.592-8.683 10.054 10.054 0 0 1 8.55-3.049c10.57 1.409 34.8 13.257 49.99 31.578"/>
            <path fill="#FFF" fill-rule="nonzero" d="M40.841 78.919c6.343-11.078 16.005-12.233 16.005-12.233s-24.478-25.47-33.5-28.065C7.754 34.126 34.023 75.268 40.841 78.919z"/>
            <path fill="#FAC8CA" fill-rule="nonzero" d="M171.388 104.088c-2.643-18.548-15.069-31.652-28.494-41.09-27.02-18.991-71.355-27.896-103.226.58-17.585 15.716-28.627 43.047-31.116 65.225-3.245 28.919 14.8 45.367 34.054 58.028 1.702 1.119 3.42 2.221 5.127 3.329a1.228 1.228 0 0 0 .296 1.503c16.65 12.535 44.827 14.154 66.482 5.94 17.627-6.636 33.05-21.48 43.769-38.34 10.719-16.86 15.693-36.98 13.108-55.175z"/>
            <path fill="#F6BABC" fill-rule="nonzero" d="M159.432 75.638c16.718 55.29-29.837 70.547-39.641 61.252-8.256-7.818-25.37-16.454-45.804-22.71-20.276-6.2-36.1-7.386-36.1-7.386s-15.646-2.722-24.578 11.242c.063-2.886-1.269-.665-1.85 3.355a38.876 38.876 0 0 0-2.585 7.433c-5.814 23.87 12.633 48.601 44.399 61.484.866.612 1.73 1.229 2.59 1.851a.802.802 0 0 1 .317.554c18.235 10.15 46.988 10.55 67.601-1.055a97.96 97.96 0 0 0 38.378-40.066c15.011-29.315 12.057-56.53-2.727-75.954z"/>
            <ellipse cx="32.744" cy="103.866" fill="#FFF" fill-rule="nonzero" rx="21.179" ry="21.138"/>
            <ellipse cx="32.479" cy="104.71" fill="#5F2B70" fill-rule="nonzero" rx="16.311" ry="16.28"/>
            <ellipse cx="32.479" cy="104.71" fill="#793683" fill-rule="nonzero" rx="9.123" ry="9.105"/>
            <ellipse cx="27.955" cy="97.852" fill="#FFF" fill-rule="nonzero" rx="5.597" ry="5.587"/>
            <ellipse cx="36.142" cy="111.721" fill="#FFF" fill-rule="nonzero" rx="2.421" ry="2.416"/>
            <ellipse cx="103.807" cy="114.944" fill="#FFF" fill-rule="nonzero" rx="21.179" ry="21.138"/>
            <ellipse cx="102.787" cy="115.382" fill="#5F2B70" fill-rule="nonzero" rx="16.311" ry="16.28"/>
            <ellipse cx="102.787" cy="115.382" fill="#793683" fill-rule="nonzero" rx="9.123" ry="9.105"/>
            <ellipse cx="98.263" cy="108.524" fill="#FFF" fill-rule="nonzero" rx="5.597" ry="5.587"/>
            <ellipse cx="106.45" cy="122.393" fill="#FFF" fill-rule="nonzero" rx="2.421" ry="2.416"/>
            <path fill="#FAC8CA" fill-rule="nonzero" d="M70.033 200.178c-39.483-5.481-67.353-28.155-66.17-54.336C5.049 119.66 28.61 119.94 28.61 119.94s16.121-1.35 37.707 1.482c18.119 2.38 34.224 6.726 44.795 11.738-10.138-5.856-27.85-10.91-48.151-13.336-21.475-2.564-37.59-.876-37.59-.876s-23.495.127-25.138 27.353c-1.644 27.226 25.745 50.29 65.011 55.285 11.914 1.52 21.317.892 28.843-1.023-6.601.923-14.514.955-24.054-.385zM126.71 69.35s25.629-24.573 48.346-30.555c3.322-.88 6.864-.12 9.53 2.045a10.71 10.71 0 0 1 3.948 8.896c-.655 11.426-11.39 38.225-29.8 55.918"/>
            <path fill="#FFF" fill-rule="nonzero" d="M132.904 74.382c12.421 5.856 14.414 16.095 14.414 16.095s25.312-28.191 27.368-38.035c3.552-16.992-38.415 14.391-41.782 21.94z"/>
            <path fill="#FAC8CA" fill-rule="nonzero" d="M25.37 118.948s-23.494.127-25.137 27.353c-1.644 27.226 25.74 50.29 65.011 55.285 39.272 4.996 51.423-13.188 58.14-24.546 9.277-15.683 4.626-32.886-10.338-42.682-9.704-6.357-28.425-11.944-50.1-14.534-21.46-2.564-37.576-.876-37.576-.876z"/>
            <path fill="#000" fill-rule="nonzero" d="M19.667 140.16s1.538-6.414 5.376-7.385c3.837-.97 2.146 3.54.46 3.877-1.686.338-4.234 1.134-5.836 3.508zM83.966 145.552s-.053-6.594-3.579-8.399c-3.525-1.804-2.89 2.965-1.321 3.693 1.57.728 3.874 2.031 4.9 4.706z"/>
            <path fill="#B77EB4" fill-rule="nonzero" d="M141.17 51.208s-14.846-28.524-61.095-28.893c-46.248-.37-45.35 47.931-67.01 47.51 0 0 22.538 25.817 45.826 7.66 23.288-18.159 58.363 8.044 82.28-26.277z"/>
            <path fill="#B77EB4" fill-rule="nonzero" d="M101.34 58.588c-30.033-7.512-30.657 13.215-53.702 8.504-15.925-3.26-5.586-23.148 2.31-35.118-17.5 13.974-21.533 38.146-36.882 37.85 0 0 22.537 25.818 45.825 7.66 23.288-18.158 58.363 8.045 82.28-26.276a35.968 35.968 0 0 0-4.229-5.93c-4.804 7.591-15.375 18.369-35.603 13.31z" opacity=".28" style="mix-blend-mode:multiply"/>
            <path fill="#FBB35A" fill-rule="nonzero" d="M62.586 65.193S67.248 1.746 77.977.427C87.29-.717 93.173 51.382 94.568 65.214a8.385 8.385 0 0 1-2.838 7.195c-2.32 2.01-6.084 4.068-11.787 4.178-11.231.206-18.103-2.732-17.357-11.394z"/>
            <path d="M62.49 62.16s19.964 8.002 30.535-10.61M90.033 31.53s-6.1 17.905-25.671 15.726M66.481 31.916s13.214 3.344 20.783-13.89M69.668 15.968S80.35 22.826 84.521 8.71"/>
            <path fill="#CD944A" fill-rule="nonzero" d="M78.675 1.245s2.923 13.827-6.343 14.407c0 0 7.347 5.033 11.803-5.803.02 0-2.062-10.851-5.46-8.604z"/>
            <path fill="#CD944A" fill-rule="nonzero" d="M84.325 12.328s-.592 16.686-17.072 19.725c0 0 13.44.97 19.62-12.761l-2.548-6.964z"/>
            <path fill="#CD944A" fill-rule="nonzero" d="M87.147 21.74s-4.164 24.303-20.772 25.063c0 0 13.188 3.244 22.903-12.84l-2.13-12.223z"/>
            <path fill="#CD944A" fill-rule="nonzero" d="M89.637 35.94s-2.009 29.142-24.583 27.005c0 0 19.229 5.218 27.57-10.144l-2.987-16.86z"/>
            <path fill="#CD944A" fill-rule="nonzero" d="M94.473 67.582S92 80.586 67.871 74.91c0 0 20.74 1.308 24.636-20.01l1.966 12.682z"/>
            <path fill="#FFF" fill-rule="nonzero" d="M78.226 2.685s-3.616.174-5.587 12.054c0 0 1.31 1.14 1.807-3.608.497-4.748 2.374-7.027 3.457-7.386 1.084-.358.323-1.06.323-1.06zM71.296 19.06s-2.156 9.29-1.5 10.73c.655 1.44 2.34-10.472 2.34-10.472s-.602-1.313-.84-.258zM68.548 34.69s-1.845 9.39-.703 10.979c1.141 1.587 1.924-10.593 1.924-10.593s-1.026-1.451-1.221-.385zM67.37 50.058s-1.465 10.877.813 10.714c1.586-.11 1.136-7.386.988-9.97a1.32 1.32 0 0 0-1.115-1.214c-.343-.068-.645 0-.687.47zM67.887 65.794a1.112 1.112 0 0 0-1.342 1.118c-.053 1.963 0 5.75 1.791 5.766 1.792.016.64-4.362.249-6.109a1.008 1.008 0 0 0-.671-.764l-.027-.011z"/>
            <path fill="#4E1E5D" fill-rule="nonzero" d="M36.64 162.776l31.818 2.917s-3.938 18.274-17.86 16.997c-13.922-1.276-13.959-19.914-13.959-19.914z"/>
            <path fill="#BD2232" fill-rule="nonzero" d="M41.121 176.37c1.94 3.05 4.948 5.555 9.62 5.988 7.759.712 12.225-5.033 14.577-9.833-12.262-1.636-19.863 1.086-24.197 3.845z"/>
            <path fill="#FFF" fill-rule="nonzero" d="M43.341 163.678c.18 1.746 1.845 3.228 3.99 3.424l9.88.907c2.145.2 4.053-.96 4.55-2.638l-18.42-1.693z"/>
            <path fill="#9B6B9A" fill-rule="nonzero" d="M53.22 141.152s17.442-10.603 23.045 10.023c3.477 12.782 17.69 7.613 17.69 7.613s-11.866 17.799-32.442 8.968c-20.577-8.831-14.33-23.966-8.293-26.604z"/>
            <path fill="#9B6B9A" fill-rule="nonzero" d="M47.75 138.261s-17.2-8.588-20.841 11.195c-2.263 12.28-16.005 8.509-16.005 8.509s12.532 15.783 31.148 5.876c18.615-9.907 11.57-23.58 5.697-25.58z"/>
            <path fill="#9B6B9A" fill-rule="nonzero" d="M49.774 153.233s-1.01 4.405 0 5.74c1.01 1.334 3.499 5.57 12.495 9.057 0 0-11.438-5.655-12.495-14.797z" style="mix-blend-mode:multiply"/>
            <path fill="#9B6B9A" fill-rule="nonzero" d="M94.69 84.69c6.58-1.904 27.152-6.267 37.168 9.981.677 1.1.759 2.467.216 3.64l-.206.454a3.853 3.853 0 0 1-6.078 1.219c-5.154-4.67-15.518-11.68-29.985-9.95a2.752 2.752 0 0 1-2.11-.622 2.733 2.733 0 0 1 .995-4.722z"/>
            <path fill="#0097CA" fill-rule="nonzero" d="M114.23 236.488s-2.394-11.353-1.316-20.49c0 0-6.31-1.862-8.493-4.905 0 0 3.7 26.276-4.403 32.39 0 0 9.46-2.67 14.212-6.995z"/>
            <path fill="#0082B0" fill-rule="nonzero" d="M63.532 201.354s-12.39 25.907-8.563 47.716l3.62 3.37s-.776-41.3 9.05-51.086h-4.107zM105.848 200.13s-1.982-1.055-5.814-.59c0 0-11.539 23.96-5.328 50.458 0 0 15.433-1.466 19.556-13.51 0 0-1.057-9.907-1.475-14.84-.031 0-12.563-2.938-6.94-21.518z"/>
            <path fill="#1F77B9" fill-rule="nonzero" d="M121.704 219.68s-7.167 5.107-18.346-1.66l8.79-8.758 9.556 10.419z"/>
            <path fill="#FAC8CA" fill-rule="nonzero" d="M104.89 201.607s4.187 22.21-5.633 35.54c-9.82 13.331 10.57 23.402 17.542 4.089 6.972-19.313.412-38.62.412-38.62"/>
            <path fill="#00AFEC" fill-rule="nonzero" d="M104.251 204.203c2.495 7.67-.09 10.925-.845 13.584 0 0 9.905-6.615 18.298 1.894 0 0 .111-12.381-2.748-17.53a7.667 7.667 0 0 0-4.45-3.556 15.73 15.73 0 0 0-3.24-.66c-3.722-.347-8.167 2.723-7.015 6.268z"/>
            <path fill="#5F2B70" fill-rule="nonzero" d="M115.97 243.262c-7.601 16.532-26.17 6.715-16.713-6.115.105-.142.206-.29.306-.432 4.683-.702 11.332-.132 16.406 6.547z"/>
        </g>
        <path fill="#2E3B50" d="M3.393 174.43l48.51-16.703a4.95 4.95 0 0 1 6.292 3.07l34.344 99.74a4.95 4.95 0 0 1-3.07 6.293l-48.51 16.703a4.95 4.95 0 0 1-6.292-3.069L.324 180.723a4.95 4.95 0 0 1 3.069-6.292z"/>
        <g transform="rotate(-19 561.057 79.058)">
            <mask id="b" fill="#fff">
                <use xlink:href="#a"/>
            </mask>
            <use fill="#FFF" xlink:href="#a"/>
            <path fill="#1F9AFF" d="M28.614 12.798c-9.772 0-19.336-.945-28.614-2.754V0h56.755v10.135a149.41 149.41 0 0 1-28.14 2.663z" mask="url(#b)"/>
            <g mask="url(#b)">
                <g transform="translate(3.339 17.925)">
                    <use fill="#000" filter="url(#c)" xlink:href="#d"/>
                    <use fill="#FFF" xlink:href="#d"/>
                    <use fill="#000" filter="url(#e)" xlink:href="#f"/>
                    <use fill="#FFF" xlink:href="#f"/>
                    <ellipse cx="5.564" cy="6.722" fill="#D8D8D8" rx="3.339" ry="3.361"/>
                    <path fill="#2E3B50" d="M3.339 25.767h42.288v2.241H3.339zM3.339 20.165h42.288v2.241H3.339zM3.339 14.564h42.288v2.241H3.339zM11.128 5.601h21.144v2.241H11.128zM11.128 43.691h21.144v2.241H11.128z" opacity=".2"/>
                </g>
            </g>
        </g>
    </g>
</svg>
