<?xml version="1.0" encoding="UTF-8"?>
<svg width="173px" height="209px" viewBox="0 0 173 209" version="1.1" xmlns="http://www.w3.org/2000/svg" xmlns:xlink="http://www.w3.org/1999/xlink">
    <!-- Generator: Sketch 58 (84663) - https://sketch.com -->
    <title>Group 5</title>
    <desc>Created with Sketch.</desc>
    <defs>
        <polygon id="path-1" points="0 0 41.2207051 0 41.2207051 65.9424263 0 65.9424263"></polygon>
        <rect id="path-3" x="0" y="0" width="36.3712104" height="25.2372249" rx="1.40777238"></rect>
        <filter x="-23.4%" y="-25.8%" width="146.7%" height="167.4%" filterUnits="objectBoundingBox" id="filter-4">
            <feOffset dx="0" dy="2" in="SourceAlpha" result="shadowOffsetOuter1"></feOffset>
            <feGaussianBlur stdDeviation="2.5" in="shadowOffsetOuter1" result="shadowBlurOuter1"></feGaussianBlur>
            <feColorMatrix values="0 0 0 0 0   0 0 0 0 0   0 0 0 0 0  0 0 0 0.13 0" type="matrix" in="shadowBlurOuter1"></feColorMatrix>
        </filter>
        <rect id="path-5" x="0" y="27.679537" width="36.3712104" height="29.307745" rx="1.40777238"></rect>
        <filter x="-23.4%" y="-22.2%" width="146.7%" height="158.0%" filterUnits="objectBoundingBox" id="filter-6">
            <feOffset dx="0" dy="2" in="SourceAlpha" result="shadowOffsetOuter1"></feOffset>
            <feGaussianBlur stdDeviation="2.5" in="shadowOffsetOuter1" result="shadowBlurOuter1"></feGaussianBlur>
            <feColorMatrix values="0 0 0 0 0   0 0 0 0 0   0 0 0 0 0  0 0 0 0.13 0" type="matrix" in="shadowBlurOuter1"></feColorMatrix>
        </filter>
    </defs>
    <g id="RESPONSIVE-TEST-V2" stroke="none" stroke-width="1" fill="none" fill-rule="evenodd">
        <g id="CREATE-CLASS-UPDATES-1-(≤768px)" transform="translate(-309.000000, -795.000000)">
            <g id="Right-Panel" transform="translate(309.000000, 84.000000)">
                <g id="Illustrations" transform="translate(-80.000000, 642.000000)">
                    <g id="Group-4" transform="translate(0.829190, 56.491626)">
                        <g id="Group-5" transform="translate(0.517007, 0.390751)">
                            <g id="book" transform="translate(188.453803, 184.517623) scale(-1, 1) translate(-188.453803, -184.517623) translate(123.953803, 136.517623)">
                                <g id="books" transform="translate(13.393836, 0.000000)" fill-rule="nonzero">
                                    <rect id="Rectangle-path" fill="#8EC54A" x="0" y="6.56537302" width="15.3059506" height="89.0524143"></rect>
                                    <polygon id="Rectangle-path" fill="#F17265" transform="translate(55.574808, 51.085954) rotate(-4.520000) translate(-55.574808, -51.085954) " points="51.7557882 6.56098901 59.4088659 6.55969389 59.3938279 95.6109194 51.7407502 95.6122145"></polygon>
                                    <rect id="Rectangle-path" fill="#FAAF4C" x="14.8093349" y="0" width="15.3059506" height="95.6177873"></rect>
                                    <rect id="Rectangle-path" fill="#2DABDF" x="30.1152854" y="10.4842391" width="18.6039882" height="85.1208246"></rect>
                                    <polygon id="Rectangle-path" fill="#FFDE88" points="15.0003409 11.9347285 30.1280192 11.9347285 30.1280192 25.4599058 15.0003409 25.4599058"></polygon>
                                    <polygon id="Rectangle-path" fill="#C39A6F" points="63.5413422 13.8687143 96.5726532 13.8687143 96.5726532 95.6177873 63.5413422 95.6177873"></polygon>
                                    <polygon id="Rectangle-path" fill="#FFDE88" points="63.5413422 80.6421205 96.5726532 80.6421205 96.5726532 82.2325694 63.5413422 82.2325694"></polygon>
                                    <polygon id="Rectangle-path" fill="#FFDE88" points="63.5413422 28.1573072 96.5726532 28.1573072 96.5726532 29.747756 63.5413422 29.747756"></polygon>
                                    <polygon id="Rectangle-path" fill="#FFDE88" points="63.5413422 32.1397912 96.5726532 32.1397912 96.5726532 33.7302401 63.5413422 33.7302401"></polygon>
                                    <rect id="Rectangle-path" fill="#215265" x="98.3808437" y="9.56814052" width="15.624294" height="85.8078985" rx="5.16397289"></rect>
                                    <polygon id="Rectangle-path" fill="#387283" points="100.711117 17.520385 111.66213 17.520385 111.66213 20.3068514 100.711117 20.3068514"></polygon>
                                    <polygon id="Rectangle-path" fill="#387283" points="100.711117 22.8133989 111.66213 22.8133989 111.66213 25.5998653 100.711117 25.5998653"></polygon>
                                    <polygon id="Rectangle-path" fill="#387283" points="100.711117 77.6011823 111.66213 77.6011823 111.66213 80.3876487 100.711117 80.3876487"></polygon>
                                    <polygon id="Rectangle-path" fill="#387283" points="100.711117 82.8941962 111.66213 82.8941962 111.66213 85.6806626 100.711117 85.6806626"></polygon>
                                </g>
                                <g id="cactus" transform="translate(0.725547, 25.316392)">
                                    <path d="M11.3802364,10.2816485 C8.26655196,11.5110964 14.1853574,12.0703996 15.6542208,10.2841966 C17.904693,7.5450123 14.0093998,6.0148912 15.1276231,7.91193559 C15.8008522,9.05474877 17.5859292,8.01768085 16.908875,6.87104555 C15.7217987,4.85806359 14.3001124,2.72532195 11.8456314,2.2106101 C9.85527054,1.79272524 8.01664118,2.85017779 7.02847353,4.55484226 C5.08656471,7.90811347 7.29240992,14.0999441 11.92851,12.2704237 C13.1500127,11.7888369 12.6183148,9.79369151 11.3802364,10.2816485" id="Fill-267" fill="#63873B"></path>
                                    <path d="M28.5561202,20.2805631 C29.1094941,19.5161396 25.7178477,22.1355642 26.4051024,22.5050356 C27.4493724,23.0656128 25.1580985,22.5967664 25.1389727,23.7841709 C25.098171,26.319509 29.9739814,27.4814328 27.8051128,26.0252059 C26.6996401,25.2824411 25.6655704,27.068644 26.7633928,27.8050387 C30.5260802,30.3327325 35.5179207,26.6571294 34.992598,22.3674393 C34.5616294,18.8510911 29.2535753,15.8163297 26.7748683,19.2409471 C25.9945346,20.3175102 27.7847119,21.3469339 28.5561202,20.2805631" id="Fill-268" fill="#63873B"></path>
                                    <path d="M15.8820732,37.8203884 C19.0709858,37.7503162 23.3526206,37.6280085 23.3526206,37.6280085 C22.9560785,38.8982256 24.9477145,39.4409663 25.3429815,38.1758453 C27.5271508,31.1928364 34.0146308,2.10524706 17.6059476,6.75167638 C4.44737962,10.4769587 8.21516725,31.3610096 14.4234102,39.2791633 C15.2419955,40.3213274 16.6930082,38.8536342 15.8820732,37.8203884" id="Fill-269" fill="#6DA041"></path>
                                    <path d="M5.62935564,4.68912599 C6.18782974,5.08917431 6.7475789,5.49049666 7.30732806,5.89181901 C7.7599726,6.21669901 8.45615265,5.97080944 8.71881398,5.52234764 C9.02355214,5.00381368 8.80296762,4.43686623 8.34904802,4.11198623 C7.78929886,3.71066387 7.2295497,3.30934152 6.6710756,2.90929321 C6.21715601,2.58441321 5.52225101,2.83030278 5.25831462,3.27876458 C4.95612658,3.79729854 5.17543604,4.36297195 5.62935564,4.68912599" id="Fill-270" fill="#35332D"></path>
                                    <path d="M21.6664878,6.17529274 C21.7519165,6.50781697 21.739166,6.80339407 21.6435368,7.13337023 C21.2750459,8.41123156 23.2654068,8.95652035 23.6326227,7.68248113 C23.8289812,7.00214419 23.8315313,6.31034089 23.6568487,5.62745587 C23.3278845,4.34322435 21.3362486,4.88723909 21.6664878,6.17529274" id="Fill-271" fill="#35332D"></path>
                                    <path d="M6.52469928,22.2432205 C7.16477691,22.6407208 7.88263289,22.8369228 8.63364031,22.8458411 C9.96224765,22.8585815 9.96352271,20.797186 8.63364031,20.7831716 C8.23454808,20.7793495 7.90430883,20.6723302 7.56514419,20.4633877 C6.43417037,19.7626662 5.39627558,21.545047 6.52469928,22.2432205" id="Fill-272" fill="#35332D"></path>
                                    <path d="M18.4446788,18.1299849 C18.3656254,18.5491438 18.2865719,18.9695768 18.2087936,19.3887357 C18.1055141,19.9352985 18.3605251,20.5009719 18.9291997,20.6564047 C19.4315714,20.7952749 20.0946,20.4869575 20.1978794,19.9365725 C20.2769329,19.5174136 20.3559863,19.0982547 20.4350397,18.6778218 C20.5370441,18.1312589 20.2833081,17.5668596 19.7146336,17.4101528 C19.2109868,17.2725565 18.5479582,17.5796 18.4446788,18.1299849" id="Fill-273" fill="#35332D"></path>
                                    <path d="M14.765125,26.7994396 C15.0571126,27.6097285 15.5276079,28.2187192 16.2288881,28.7181426 C16.6828077,29.0417486 17.3764377,28.7984071 17.6403741,28.3486712 C17.9425621,27.8314113 17.7245277,27.2619158 17.269333,26.9383098 C17.0385481,26.7726847 16.8498399,26.5153288 16.7554859,26.2516027 C16.5655027,25.7279726 16.0529305,25.3750637 15.4855311,25.5317705 C14.9793342,25.6706408 14.5751418,26.2732614 14.765125,26.7994396" id="Fill-274" fill="#35332D"></path>
                                    <path d="M33.3108004,18.6817713 C33.0889409,19.029584 32.8670813,19.3773967 32.6452217,19.7264835 C31.9299158,20.848912 33.7137178,21.8847059 34.4264736,20.7673735 C34.6483332,20.4182867 34.8701927,20.070474 35.0920523,19.7213873 C35.8073582,18.6002328 34.0235562,17.5644389 33.3108004,18.6817713" id="Fill-275" fill="#35332D"></path>
                                    <path d="M32.4510308,27.1315816 C32.6779906,27.3507163 32.8246219,27.567303 32.9636029,27.8539618 C33.2071385,28.3546592 33.9211693,28.4884333 34.3750889,28.2234332 C34.887661,27.924034 34.9896654,27.3163173 34.7461299,26.8130718 C34.539571,26.3875427 34.2501335,26.0027828 33.9109688,25.6728067 C32.9559526,24.7491283 31.4947395,26.2053551 32.4510308,27.1315816" id="Fill-276" fill="#35332D"></path>
                                    <path d="M30.3192663,24.3713756 C30.5551515,24.1484188 30.7897616,23.9267359 31.0256468,23.7037791 C31.9921385,22.7890189 30.5309254,21.3327921 29.5669838,22.2462782 C29.3310987,22.467961 29.0964885,22.6909179 28.8593283,22.9138748 C27.8941116,23.8286349 29.3553247,25.2848617 30.3192663,24.3713756" id="Fill-277" fill="#35332D"></path>
                                    <path d="M27.9384835,14.2189393 C28.319725,13.9883382 28.7009665,13.7577371 29.0809329,13.527136 C30.2157318,12.8404289 29.1803872,11.056774 28.040488,11.7473032 C27.6592465,11.9766303 27.278005,12.2085054 26.8967636,12.4391065 C25.7619646,13.1258137 26.7985843,14.9094686 27.9384835,14.2189393" id="Fill-278" fill="#35332D"></path>
                                    <path d="M12.9920334,18.9741633 C13.2623451,19.2799327 13.4944051,19.5997165 13.7098894,19.9462552 C14.4098946,21.0712318 16.1962467,20.036712 15.4911413,18.9066392 C15.1851281,18.413586 14.834488,17.9511098 14.4519714,17.5153884 C14.0822055,17.0987776 13.3681747,17.1408209 12.9920334,17.5153884 C12.5763655,17.9319992 12.6222675,18.5550044 12.9920334,18.9741633" id="Fill-279" fill="#35332D"></path>
                                    <path d="M19.1102575,10.6810598 C18.9317498,11.2620217 18.8284703,11.8442576 18.7481419,12.4456041 C18.6754637,12.9985372 19.2747396,13.4763019 19.7796614,13.4763019 C20.3980631,13.4763019 20.7385028,12.9998112 20.812456,12.4456041 C20.8660083,12.0340895 20.9782131,11.6251229 21.1006184,11.2288967 C21.4907853,9.95740555 19.4991493,9.41339081 19.1102575,10.6810598" id="Fill-280" fill="#35332D"></path>
                                    <path d="M22.283487,27.4500914 C22.6303019,27.1519662 23.002618,26.8971584 23.39661,26.6640092 C24.5390593,25.9900424 23.5024396,24.2076616 22.35489,24.8841764 C21.8104415,25.2052343 21.3029696,25.5798018 20.824824,25.9913165 C20.4015057,26.3556917 20.4512329,27.0780719 20.824824,27.4500914 C21.2443171,27.8692503 21.8601687,27.8144666 22.283487,27.4500914" id="Fill-281" fill="#35332D"></path>
                                    <path d="M18.2660436,33.7369653 C18.8245177,33.7993932 19.3740664,33.7484317 19.9223401,33.629946 C20.4680636,33.5127344 20.7842773,32.8769888 20.6427461,32.362277 C20.4884645,31.7991517 19.9197899,31.5239592 19.3740664,31.6424448 C19.0030254,31.7227093 18.6421848,31.7176131 18.2660436,31.6755699 C17.7113946,31.6131419 17.233249,32.1941038 17.233249,32.7062676 C17.233249,33.3152583 17.7088445,33.6745374 18.2660436,33.7369653" id="Fill-282" fill="#35332D"></path>
                                    <path d="M8.63453285,31.2279999 L10.2398271,31.2279999 C11.5671594,31.2279999 11.5697095,29.1653304 10.2398271,29.1653304 L8.63453285,29.1653304 C7.3059255,29.1653304 7.30465045,31.2279999 8.63453285,31.2279999" id="Fill-283" fill="#35332D"></path>
                                    <path d="M26.1528965,32.3889044 C26.7840487,32.7252508 27.4126509,32.8985201 28.1190313,32.9826067 C28.6736803,33.0501308 29.1518259,32.4615246 29.1518259,31.951909 C29.1518259,31.3403701 28.6762304,30.9874613 28.1190313,30.9212112 C27.7951674,30.8829901 27.4802288,30.7606823 27.1946164,30.6090716 C26.0215658,29.9860664 24.9785708,31.7646252 26.1528965,32.3889044" id="Fill-284" fill="#35332D"></path>
                                    <path d="M12.0843217,1.3950976 C11.9593664,2.06014607 11.904539,2.71755031 11.9682917,3.39151705 C12.020569,3.94572411 12.4043606,4.42221478 12.9998113,4.42221478 C13.5174836,4.42221478 14.083608,3.94954623 14.0313308,3.39151705 C13.9867039,2.90738215 13.9841537,2.42324725 14.0734076,1.94293446 C14.1766871,1.39637164 13.9216761,0.831972267 13.3530015,0.675265443 C12.8506298,0.537669208 12.1876012,0.844712659 12.0843217,1.3950976" id="Fill-285" fill="#35332D"></path>
                                    <path d="M6.88515734,11.8145725 C7.05856482,11.5776012 7.34672726,11.5546685 7.59918816,11.569957 C8.15511215,11.601808 8.63070768,11.0730817 8.63070768,10.5392593 C8.63070768,9.95447526 8.15766226,9.53913848 7.59918816,9.5072875 C6.56894369,9.44868169 5.69680605,9.96594162 5.10390546,10.7736825 C4.77239115,11.2221443 5.02740216,11.9228659 5.47367142,12.1840439 C5.99644398,12.4898133 6.55364303,12.2643084 6.88515734,11.8145725" id="Fill-286" fill="#35332D"></path>
                                    <path d="M10.583327,7.63100995 C11.9119343,7.63100995 11.9132094,5.56961449 10.583327,5.56961449 C9.25599467,5.56961449 9.25344456,7.63100995 10.583327,7.63100995" id="Fill-287" fill="#35332D"></path>
                                    <path d="M33.0032572,41.1130153 C32.8872271,40.0695772 3.36970311,35.7607766 3.48828322,36.8156811 C4.68428485,47.5061441 5.88156152,58.1953331 7.07756314,68.8845222 C7.1043393,69.1253156 7.21909425,69.3062291 7.36955075,69.4361811 C7.50088142,69.6209168 7.70489022,69.7546909 8.00197804,69.7546909 L31.2513315,69.7546909 C31.8238312,69.7546909 32.0750171,69.6349313 32.2267486,69.2323349 C32.3466038,68.8934404 32.420557,68.5023104 32.4511583,68.1927189 C33.3628227,59.1801655 34.0972544,50.1548717 34.6544534,41.1130153 C34.7194812,40.0530147 33.068285,40.0568368 33.0032572,41.1130153" id="Fill-288" fill="#9F7958"></path>
                                    <path d="M38.0075932,35.6119688 C37.3649654,34.9239876 36.0389082,34.8029539 33.4875231,34.8029539 L5.70662397,34.8029539 C3.11316203,34.8029539 1.90951008,34.871752 1.27835784,35.5304303 C0.722433843,36.1088441 0.758135384,36.9611763 0.816787916,38.3728118 C0.838463851,38.9079083 0.863964952,39.5360096 0.863964952,40.2736783 L0.860139787,41.2916356 C0.846114181,43.2613003 0.838463851,44.3455076 1.50021741,45.0118301 C2.19512241,45.7100036 3.48420305,45.7444027 5.70662397,45.7444027 L33.4875231,45.7444027 C35.989181,45.7444027 37.2221593,45.7150998 37.8686122,45.0487773 C38.4334615,44.4665414 38.4079604,43.609113 38.3607834,42.0547851 C38.3467578,41.5451694 38.327632,40.9565633 38.327632,40.2736783 C38.327632,39.4875961 38.3735339,38.83274 38.4143357,38.2543261 C38.4997644,37.0172341 38.5558668,36.1993009 38.0075932,35.6119688" id="Fill-289" fill="#B08F76"></path>
                                </g>
                            </g>
                            <g id="parents-mom" transform="translate(100.000000, 134.000000) rotate(7.000000) translate(-100.000000, -134.000000) translate(15.000000, 10.000000)">
                                <path d="M74.5772312,215.909843 C74.5772312,215.909843 68.3811297,190.760251 51.9233308,189.940208 C40.1650366,189.358549 32.3484162,196.810457 33.4970781,207.280315 C34.6219089,217.511789 30.947144,219.175715 23.8263935,219.199553 C23.8263935,219.199553 29.3123265,228.367831 40.7941792,226.441682 C52.5477072,224.463089 50.6459807,215.256669 58.7342763,215.52366 C63.9771314,215.695297 67.6995586,219.757373 69.6966097,222.608455 C70.321935,223.503955 71.4024929,223.96506 72.481463,223.796831 C73.560433,223.628602 74.449441,222.860409 74.7726468,221.817018 C75.1920752,220.420083 75.2635686,218.513005 74.5772312,215.909843 Z" id="Shape" fill="#B77EB4" fill-rule="nonzero"></path>
                                <path d="M47.4192416,218.75139 C49.092189,207.785691 59.4968734,211.871606 62.8427682,209.831032 C65.6024165,208.143268 67.6090001,196.800921 52.3904215,189.973582 C68.4955193,191.241789 74.5772312,215.909843 74.5772312,215.909843 C75.2635686,218.513005 75.1920752,220.420083 74.7678805,221.802715 C74.4446748,222.846106 73.5556667,223.614299 72.4766967,223.782528 C71.3977267,223.950757 70.3171687,223.489652 69.6918435,222.594152 C67.6995586,219.733535 63.9723652,215.680994 58.72951,215.509357 C51.1750324,215.261437 52.3332268,223.275933 42.9342174,225.945842 C45.3747547,224.285911 47.0029963,221.67404 47.4192416,218.75139 L47.4192416,218.75139 Z" id="Shape" fill="#D1D3D4" fill-rule="nonzero" style="mix-blend-mode: multiply;"></path>
                                <path d="M110.481256,201.711648 C110.481256,201.711648 120.299694,201.735486 123.474005,190.378836 L112.282892,190.026026 L110.481256,201.711648 Z" id="Shape" fill="#1F77B9" fill-rule="nonzero"></path>
                                <path d="M113.002593,180.652738 C113.002593,180.652738 123.964927,197.883188 138.663986,200.619845 C153.363045,203.356502 146.151736,222.589384 129.646275,214.131493 C113.140814,205.673602 105.519609,188.915153 105.519609,188.915153" id="Shape" fill="#FAC8CA" fill-rule="nonzero"></path>
                                <path d="M115.028242,181.968622 C120.986032,191.442032 121.672369,189.358549 123.812407,190.645827 C123.812407,190.645827 111.086568,191.189344 110.819659,201.978638 C110.819659,201.978638 107.788335,199.566184 104.084973,189.68752 C103.460597,188.018827 103.941986,186.140355 104.818973,184.595622 C105.304432,183.724733 105.88122,182.908031 106.539583,182.159329 C108.774945,179.641986 113.236139,179.122308 115.028242,181.968622 Z" id="Shape" fill="#00AFEC" fill-rule="nonzero"></path>
                                <path d="M131.443145,214.956304 C146.652191,221.178147 152.814929,203.251613 138.663986,200.619845 L138.187363,200.524491 C134.684182,202.951248 130.65195,207.423346 131.443145,214.956304 Z" id="Shape" fill="#5F2B70" fill-rule="nonzero"></path>
                                <path d="M106.139219,175.927952 C106.139219,175.927952 113.288567,182.125955 116.267462,197.887956 C119.06524,212.796539 116.100644,232.663524 108.865504,244.382519 C108.046782,245.696846 106.737904,246.63033 105.228869,246.976145 C102.518792,247.626561 99.7261552,247.864442 96.9451578,247.681764 C93.8414511,247.436047 91.4830232,244.786732 91.5974455,241.674468 C91.7261338,238.551628 91.4973547,234.608744 89.8244072,232.701666 C89.8244072,232.701666 87.2268108,237.369239 79.5341125,242.113096 C77.8097799,243.180401 75.7223228,243.49077 73.7622056,242.971281 C71.3218948,242.313339 67.976,240.949779 65.5023256,238.165445 C63.6669916,236.111633 63.1168109,233.21129 64.072456,230.627718 C66.6748187,223.609671 72.1083231,205.039498 66.0981046,184.4955 C66.0981046,184.4955 64.1916118,174.635906 79.3148658,169.358068 C94.4381198,164.080229 106.139219,175.927952 106.139219,175.927952 Z" id="Shape" fill="#FAC8CA" fill-rule="nonzero"></path>
                                <path d="M66.1171695,184.509803 C66.1171695,184.509803 64.5633779,176.404721 75.5733737,170.940943 C80.9925794,191.637507 95.9585478,199.642468 105.858012,194.302649 C110.14762,191.985549 109.961737,185.320311 108.183933,178.20691 C110.533685,181.2487 122.959252,199.208607 120.161474,219.819354 C97.8316769,228.024557 76.030932,220.210305 67.1276107,213.711936 C68.5479478,205.010892 69.5869864,196.395667 66.1171695,184.509803 Z" id="Shape" fill="#00AFEC" fill-rule="nonzero"></path>
                                <path d="M85.5014349,36.6826466 C85.5014349,36.6826466 59.6303279,23.256817 34.4264933,46.1846631 C9.22265881,69.1125092 -0.629142617,92.8603988 8.68884084,111.878735 C18.0068243,130.897071 11.0099958,138.253625 7.73559445,140.265592 C0.0810259431,144.961772 2.01611611,170.693022 25.1466397,171.842037 C48.2771634,172.991052 34.4455583,181.854197 34.4455583,181.854197 C34.4455583,181.854197 52.1235126,181.377427 45.4078917,169.977868 C45.4078917,169.977868 47.0713067,165.176799 49.173215,169.682271 C51.2751233,174.187743 50.6698118,177.730141 49.173215,178.80764 C49.173215,178.80764 60.9744053,179.889906 62.7283786,169.381906 L62.7283786,183.947215 C62.7283786,183.947215 79.7438267,177.887474 79.7676578,173.63469 C79.791489,169.381906 119.136734,187.127268 130.528028,181.854197 C130.528028,181.854197 125.609277,182.035369 129.264977,165.501002 C132.920676,148.966636 130.528028,164.70003 130.528028,164.70003 C130.528028,164.70003 129.670106,179.618148 139.245466,178.102021 C139.245466,178.102021 133.816728,171.865875 151.823552,158.311318 C169.830377,144.756761 175.497426,117.523686 163.481756,104.126463 C151.466085,90.7292391 156.932953,69.7084711 145.474931,63.2387087 C134.01691,56.7689464 120.366422,20.4629477 85.5014349,36.6826466 Z" id="Shape" fill="#A975A8" fill-rule="nonzero"></path>
                                <path d="M111.343944,34.236819 C111.343944,34.236819 96.7878721,21.1447281 77.408373,24.3915285 C58.0288739,27.6383289 55.2453945,36.2344833 55.2453945,36.2344833 L111.343944,34.236819 Z" id="Shape" fill="#A975A8" fill-rule="nonzero"></path>
                                <path d="M137.944285,76.2020719 C137.944285,76.2020719 156.956784,53.1502658 160.540991,33.7266756 C161.057073,30.8876884 160.190151,27.9725966 158.206687,25.877409 C156.223224,23.7822213 153.360542,22.7576268 150.49854,23.1185539 C140.942245,24.3915285 119.117669,35.0997718 105.414752,51.6627449" id="Shape" fill="#FAC8CA" fill-rule="nonzero"></path>
                                <path d="M133.311508,71.3294874 C127.592029,61.2887214 118.879357,60.2684346 118.879357,60.2684346 C118.879357,60.2684346 140.947011,37.2547701 149.082969,34.9042963 C163.143353,30.8422201 139.45518,68.0302424 133.311508,71.3294874 Z" id="Shape" fill="#FFFFFF" fill-rule="nonzero"></path>
                                <path d="M15.5855785,94.0761611 C17.9686944,77.3081772 29.1741057,65.4699901 41.2851011,56.9358157 C65.6453126,39.7721131 105.629232,31.7290114 134.369611,57.4650299 C150.222098,71.6632261 160.178757,96.3694225 162.423652,116.408045 C165.350119,142.549318 149.078203,157.410224 131.71482,168.852692 C130.180093,169.868211 128.635834,170.859892 127.091575,171.865875 C127.329501,172.324851 127.221008,172.887213 126.829432,173.224669 C111.815801,184.552712 86.4070189,186.016395 66.8797667,178.593093 C50.9986818,172.590565 37.0765183,159.174271 27.4058337,143.941485 C17.7351491,128.708699 13.254891,110.515174 15.5855785,94.0761611 Z" id="Shape" fill="#FAC8CA" fill-rule="nonzero"></path>
                                <path d="M26.3667951,68.3592133 C11.2912035,118.329426 53.2721745,132.122369 62.1135347,123.716922 C69.558389,116.655965 84.991448,108.846481 103.417701,103.215833 C121.700966,97.6090232 135.971065,96.5410595 135.971065,96.5410595 C135.971065,96.5410595 150.083878,94.0809288 158.134043,106.69625 C158.076849,104.088321 159.282705,106.095521 159.802225,109.728504 C160.806014,111.884055 161.586966,114.136572 162.132912,116.450955 C167.375767,138.024775 150.741618,160.370962 122.096564,172.013674 C121.319668,172.566727 120.538006,173.124547 119.765876,173.691903 C119.602216,173.809147 119.497793,173.991943 119.479902,174.192511 C103.031636,183.365556 77.1033342,183.727901 58.5150296,173.238972 C43.7352512,164.752558 31.7184197,152.179103 23.9074194,137.028327 C10.3713207,110.515174 13.0356444,85.913867 26.3667951,68.3592133 Z" id="Shape" fill="#FAC8CA" fill-rule="nonzero" opacity="0.77" style="mix-blend-mode: multiply;"></path>
                                <ellipse id="Oval" fill="#FFFFFF" fill-rule="nonzero" cx="140.608609" cy="93.8711502" rx="19.0982914" ry="19.1041545"></ellipse>
                                <ellipse id="Oval" fill="#5F2B70" fill-rule="nonzero" cx="140.84692" cy="94.6387491" rx="14.7085918" ry="14.7131073"></ellipse>
                                <ellipse id="Oval" fill="#793683" fill-rule="nonzero" cx="140.84692" cy="94.6387491" rx="8.22651634" ry="8.22904186"></ellipse>
                                <ellipse id="Oval" fill="#FFFFFF" fill-rule="nonzero" cx="144.926815" cy="88.4407454" rx="5.04743963" ry="5.04898919"></ellipse>
                                <ellipse id="Oval" fill="#FFFFFF" fill-rule="nonzero" cx="137.543921" cy="100.975016" rx="2.18293423" ry="2.18360439"></ellipse>
                                <ellipse id="Oval" fill="#FFFFFF" fill-rule="nonzero" cx="76.5266201" cy="103.88331" rx="19.0982914" ry="19.1041545"></ellipse>
                                <ellipse id="Oval" fill="#5F2B70" fill-rule="nonzero" cx="77.4512691" cy="104.279029" rx="14.7085918" ry="14.7131073"></ellipse>
                                <ellipse id="Oval" fill="#793683" fill-rule="nonzero" cx="77.4512691" cy="104.279029" rx="8.22651634" ry="8.22904186"></ellipse>
                                <ellipse id="Oval" fill="#FFFFFF" fill-rule="nonzero" cx="81.5263974" cy="98.081025" rx="5.04743963" ry="5.04898919"></ellipse>
                                <ellipse id="Oval" fill="#FFFFFF" fill-rule="nonzero" cx="74.1482704" cy="110.615296" rx="2.18293423" ry="2.18360439"></ellipse>
                                <path d="M106.982842,180.919729 C142.591361,175.961326 167.723702,155.474539 166.6513,131.812468 C165.578898,108.150397 144.335802,108.398317 144.335802,108.398317 C144.335802,108.398317 129.803561,107.177787 110.33827,109.742807 C93.9948602,111.893038 79.4721515,115.816851 69.9396876,120.346161 C79.0813204,115.05402 95.0529637,110.486568 113.360061,108.298196 C132.730027,105.981096 147.24797,107.501991 147.24797,107.501991 C147.24797,107.501991 168.429104,107.621183 169.916169,132.227258 C171.403233,156.833333 146.699853,177.672928 111.291516,182.192703 C100.548429,183.561032 92.0693025,182.993676 85.2869544,181.26777 C91.2495106,182.125955 98.3845598,182.125955 106.982842,180.919729 Z" id="Shape" fill="#FAC8CA" fill-rule="nonzero"></path>
                                <path d="M55.8745371,62.6808884 C55.8745371,62.6808884 32.7630784,40.4729643 12.2825797,35.0616303 C9.28680431,34.2672654 6.09191239,34.9542999 3.68715321,36.9100042 C1.28239404,38.8657085 -0.0420473363,41.8540855 0.123922031,44.9498301 C0.714934792,55.2766578 10.3951519,79.501317 26.9959377,95.4873989" id="Shape" fill="#FAC8CA" fill-rule="nonzero"></path>
                                <path d="M147.24797,107.506758 C147.24797,107.506758 168.429104,107.621183 169.916169,132.227258 C171.403233,156.833333 146.699853,177.672928 111.291516,182.192703 C75.8831788,186.712478 64.9208453,170.249627 58.8629645,160.00385 C50.4982275,145.83426 54.6925116,130.286806 68.180948,121.428428 C76.9317498,115.683356 93.8185096,110.634366 113.360061,108.298196 C132.730027,105.981096 147.24797,107.506758 147.24797,107.506758 Z" id="Shape" fill="#FAC8CA" fill-rule="nonzero"></path>
                                <path d="M152.400266,126.677661 C152.400266,126.677661 151.018059,120.880143 147.557775,120.002887 C144.09749,119.125632 145.617918,123.197243 147.138346,123.507143 C148.658774,123.817044 150.956098,124.52743 152.400266,126.677661 Z" id="Shape" fill="#000000" fill-rule="nonzero"></path>
                                <path d="M94.4238211,131.545477 C94.4238211,131.545477 94.4667172,125.585858 97.6457939,123.960074 C100.824871,122.33429 100.252923,126.639519 98.8373518,127.297461 C97.421781,127.955403 95.3484701,129.128256 94.4238211,131.545477 Z" id="Shape" fill="#000000" fill-rule="nonzero"></path>
                                <path d="M92.5792893,38.3704107 C92.8747957,33.893545 96.0205088,30.1222981 100.53413,28.6347772 C106.015297,26.8278207 114.961515,26.3510512 126.662614,34.1653036 C146.985827,47.7293963 145.308113,71.195992 145.308113,71.195992 C133.61178,34.4656684 105.371856,35.6957337 92.5792893,38.3704107 Z" id="Shape" fill="#B77EB4" fill-rule="nonzero"></path>
                                <path d="M92.5792893,38.3704107 C105.371856,35.6957337 133.61178,34.4656684 145.308113,71.195992 C145.308113,71.195992 132.415456,48.2109336 108.751114,48.7639862 C95.9347166,49.0595833 92.7747048,44.1250188 92.5459257,39.5337283 C92.5506919,39.1427773 92.5554581,38.7518263 92.5792893,38.3704107 Z" id="Shape" fill="#B77EB4" fill-rule="nonzero"></path>
                                <path d="M92.5792893,38.3704107 C105.371856,35.6957337 133.61178,34.4656684 145.308113,71.195992 C145.308113,71.195992 132.415456,48.2109336 108.751114,48.7639862 C95.9347166,49.0595833 92.7747048,44.1250188 92.5459257,39.5337283 C92.5506919,39.1427773 92.5554581,38.7518263 92.5792893,38.3704107 Z" id="Shape" fill="#A86CA5" fill-rule="nonzero"></path>
                                <path d="M81.5929886,40.9354307 C81.6264883,35.8816738 85.3584479,31.9054161 90.6489654,30.8374524 C96.5781579,29.6407609 106.115388,30.1890458 118.140591,39.4193037 C128.048043,46.9013558 134.446717,58.1270364 135.83761,70.4665346 C135.943317,71.5232417 135.33748,72.5224618 134.351831,72.9170634 C133.366182,73.311665 132.238449,73.0064747 131.586132,72.1686018 C125.942913,64.6833204 114.90432,53.5412168 98.3368975,52.1204436 C84.6673443,50.9475906 81.5692935,45.5982366 81.5929886,40.9354307 Z" id="Shape" fill="#B77EB4" fill-rule="nonzero"></path>
                                <path d="M64.3441313,42.5373763 C61.3890675,39.1999897 56.5942381,38.7232202 52.4285514,41.0641585 C47.7814753,43.7102293 41.7426594,49.6174036 39.083102,62.7571715 C36.831039,73.4952733 39.0866844,84.68733 45.3220996,93.7138163 C45.8603648,94.4859361 46.846887,94.8048653 47.7350836,94.4939011 C48.6232802,94.1829368 49.1956556,93.318226 49.1350851,92.3788616 C48.5536048,84.1116782 49.4591889,70.256756 59.6636915,59.7010789 C68.1142207,51.0143383 67.0704159,45.6268428 64.3441313,42.5373763 Z" id="Shape" fill="#B77EB4" fill-rule="nonzero"></path>
                                <path d="M65.0400011,43.4289353 L58.8438996,59.6867758 L58.2242894,59.8298067 L58.2862505,61.2267414 C58.2862505,61.2267414 47.9292284,71.9921971 49.1684487,92.3788616 C49.1684487,92.3788616 49.2780721,93.7233517 48.3534231,92.2215277 C40.9085688,53.3981859 65.0400011,43.4289353 65.0400011,43.4289353 Z" id="Shape" fill="#A86CA5" fill-rule="nonzero"></path>
                                <path d="M75.4017894,37.631418 C72.1321543,34.5848608 67.2991951,34.5753254 63.4099498,37.3358209 C59.0488476,40.4252873 53.6153432,46.8712112 52.2664995,60.2207577 C51.0754079,71.1267693 54.4188959,82.0429887 61.5129895,90.4098035 C62.121523,91.136806 63.1419204,91.3650995 64.0020879,90.9666895 C64.8622554,90.5682796 65.3483153,89.6422294 65.1877543,88.7077363 C63.7960146,80.5406745 63.3336901,66.6619139 72.456258,55.1526977 C79.977372,45.6745197 78.414048,40.4395904 75.4017894,37.631418 Z" id="Shape" fill="#B77EB4" fill-rule="nonzero"></path>
                                <path d="M76.1786852,38.4514615 L71.6221674,55.2337485 L71.0216222,55.4435271 L71.221804,56.821391 C71.221804,56.821391 61.9610153,68.5308504 65.1877543,88.7220394 C65.1877543,88.7220394 65.4260659,90.0522264 64.35843,88.6457563 C53.13872,50.7473474 76.1786852,38.4514615 76.1786852,38.4514615 Z" id="Shape" fill="#A86CA5" fill-rule="nonzero"></path>
                                <path d="M83.2803708,34.9758118 C79.7056968,33.5931802 75.8641139,35.1188426 73.6335173,38.5611185 C71.140778,42.4086485 68.8672854,49.2932004 72.0415959,60.3447178 C74.5653511,69.4109607 80.6995366,77.0431269 89.0093816,81.456072 C89.7255685,81.8438541 90.6129278,81.7013432 91.1717685,81.1087902 C91.7306091,80.5162373 91.8211877,79.6218158 91.3924976,78.9291935 C87.6986678,72.8646853 82.9324358,61.9800372 86.511876,49.8843946 C89.4860048,39.929447 86.5738371,36.2344833 83.2803708,34.9758118 Z" id="Shape" fill="#B77EB4" fill-rule="nonzero"></path>
                                <path d="M84.1573575,35.3858336 L85.8684347,50.2038301 L85.4585388,50.5614073 L86.0543178,51.5959971 C86.0543178,51.5959971 82.3938516,63.8775799 91.3924976,78.9291935 C91.3924976,78.9291935 92.0073415,79.9113387 90.7109264,79.1294367 C69.7204409,52.5113946 84.1573575,35.3858336 84.1573575,35.3858336 Z" id="Shape" fill="#A86CA5" fill-rule="nonzero"></path>
                                <path d="M113.698463,58.9239446 C113.698463,58.9239446 109.499413,1.5781071 99.8191956,0.386183309 C91.4258612,-0.648406543 86.1162788,46.437351 84.8389286,58.9430154 C84.5842907,61.3980674 85.5389422,63.8236622 87.3983952,65.4461516 C89.4955372,67.2578758 92.8843281,69.1220446 98.0270924,69.2173985 C108.193465,69.4081063 114.389567,66.7477324 113.698463,58.9239446 Z" id="Shape" fill="#FBB35A" fill-rule="nonzero"></path>
                                <path d="M113.784255,56.1777522 C113.784255,56.1777522 95.8012621,63.4103458 86.2687982,46.5899172" id="Shape"></path>
                                <path d="M88.9474206,28.496514 C88.9474206,28.496514 94.4524185,44.6780714 112.101775,42.713781" id="Shape"></path>
                                <path d="M110.190516,28.8445558 C110.190516,28.8445558 98.2749365,31.8720422 91.4496923,16.2959821" id="Shape"></path>
                                <path d="M107.311712,14.436581 C107.311712,14.436581 97.6791575,20.6345847 93.9186005,7.87146473" id="Shape"></path>
                                <path d="M99.190053,1.12994376 C99.190053,1.12994376 96.5543267,13.6260728 104.909531,14.1505193 C104.909531,14.1505193 98.2844689,18.6941328 94.2713016,8.90605458 C94.2522367,8.90128688 96.1253659,-0.905862082 99.190053,1.12994376 Z" id="Shape" fill="#CD944A" fill-rule="nonzero"></path>
                                <path d="M94.0997173,11.1421036 C94.0997173,11.1421036 94.628769,26.2223234 109.48988,28.9685159 C109.48988,28.9685159 97.3693524,29.8505395 91.8023935,17.4354612 L94.0997173,11.1421036 Z" id="Shape" fill="#CD944A" fill-rule="nonzero"></path>
                                <path d="M91.5497832,19.6476718 C91.5497832,19.6476718 95.3103402,41.6172111 110.281075,42.2989915 C110.281075,42.2989915 98.389326,45.2311241 89.6289917,30.6944215 L91.5497832,19.6476718 Z" id="Shape" fill="#CD944A" fill-rule="nonzero"></path>
                                <path d="M89.3096542,32.4823072 C89.3096542,32.4823072 91.1208223,58.823823 111.472633,56.8881388 C111.472633,56.8881388 94.1330809,61.6033893 86.6119669,47.7246287 L89.3096542,32.4823072 Z" id="Shape" fill="#CD944A" fill-rule="nonzero"></path>
                                <path d="M84.9437857,61.0789428 C84.9437857,61.0789428 87.1791485,72.8313114 108.932231,67.7060391 C108.932231,67.7060391 90.229537,68.8836598 86.716824,49.6221713 L84.9437857,61.0789428 Z" id="Shape" fill="#CD944A" fill-rule="nonzero"></path>
                                <path d="M99.6142477,2.43152454 C99.6142477,2.43152454 102.87435,2.58409078 104.652155,13.3209403 C104.652155,13.3209403 103.474896,14.3555302 103.02687,10.0646045 C102.578844,5.77367885 100.882065,3.70926684 99.909754,3.38983127 C98.9374427,3.07039569 99.6142477,2.43152454 99.6142477,2.43152454 Z" id="Shape" fill="#FFFFFF" fill-rule="nonzero"></path>
                                <path d="M105.843713,17.2256826 C105.843713,17.2256826 107.793102,25.6215938 107.202089,26.9279423 C106.611076,28.2342908 105.090648,17.4592997 105.090648,17.4592997 C105.090648,17.4592997 105.633999,16.2721436 105.843713,17.2256826 Z" id="Shape" fill="#FFFFFF" fill-rule="nonzero"></path>
                                <path d="M108.32692,31.3523634 C108.32692,31.3523634 109.985568,39.8388608 108.956062,41.2787048 C107.926556,42.7185487 107.206855,31.7004052 107.206855,31.7004052 C107.206855,31.7004052 108.150569,30.389289 108.32692,31.3523634 Z" id="Shape" fill="#FFFFFF" fill-rule="nonzero"></path>
                                <path d="M109.385023,45.2406595 C109.385023,45.2406595 110.710036,55.0716469 108.651023,54.9286161 C107.221154,54.8284945 107.626284,48.2538428 107.759738,45.9176722 C107.797262,45.360914 108.214489,44.9039986 108.765413,44.8163346 C109.075218,44.7543546 109.35166,44.8163346 109.385023,45.2406595 Z" id="Shape" fill="#FFFFFF" fill-rule="nonzero"></path>
                                <path d="M108.922699,59.4674619 C109.22307,59.4044543 109.535737,59.4827763 109.770973,59.6799521 C110.00621,59.877128 110.138012,60.1713596 110.128555,60.4782132 C110.180984,62.2470281 110.128555,65.675001 108.512803,65.6893427 C106.89705,65.7036071 107.936089,61.7464201 108.28879,60.168313 C108.352218,59.845002 108.582792,59.5798515 108.894101,59.4722296 L108.922699,59.4674619 Z" id="Shape" fill="#FFFFFF" fill-rule="nonzero"></path>
                                <path d="M135.73752,144.98561 L107.044803,147.622146 C107.044803,147.622146 110.595646,164.137442 123.149901,162.983659 C135.704156,161.829877 135.73752,144.98561 135.73752,144.98561 Z" id="Shape" fill="#4E1E5D" fill-rule="nonzero"></path>
                                <path d="M131.695755,157.271961 C129.946548,160.022921 127.234562,162.292344 123.021213,162.678527 C116.024384,163.322166 111.996918,158.134913 109.875945,153.791543 C120.933603,152.318325 127.782678,154.778456 131.695755,157.271961 Z" id="Shape" fill="#BD2232" fill-rule="nonzero"></path>
                                <path d="M129.717769,145.796118 C129.555717,147.374225 128.054354,148.718715 126.119264,148.89512 L117.211176,149.705628 C115.276086,149.882033 113.555476,148.837908 113.10745,147.321781 L129.717769,145.796118 Z" id="Shape" fill="#FFFFFF" fill-rule="nonzero"></path>
                                <path d="M67.1276107,213.735774 C67.1276107,213.735774 69.2867138,203.470927 68.3144025,195.218046 C68.3144025,195.218046 74.0100496,193.53505 75.9785034,190.78409 C75.9785034,190.78409 72.6421411,214.527212 79.9440084,220.052971 C79.9440084,220.052971 71.4124532,217.640517 67.1276107,213.735774 Z" id="Shape" fill="#0097CA" fill-rule="nonzero"></path>
                                <path d="M81.3214495,178.364244 C81.3214495,178.364244 88.175291,197.129892 79.9440084,209.926386 L78.2281649,209.926386 C78.2281649,209.926386 86.9503694,198.846262 79.5674761,178.364244 L81.3214495,178.364244 Z" id="Shape" fill="#515254" fill-rule="nonzero"></path>
                                <path d="M83.4710201,209.926386 C83.4710201,209.926386 71.8986089,205.07764 63.6244302,209.053898 C63.6244302,209.053898 60.4358211,216.715584 60.9124443,223.356983 L78.2281649,227.328473 C78.2281649,227.328473 84.4385651,224.31529 83.4710201,209.926386 Z" id="Shape" fill="#515254" fill-rule="nonzero"></path>
                                <path d="M83.4710201,209.926386 L78.2281649,218.822905 L62.9142617,216.93013 C62.9142617,216.93013 62.5329631,212.705952 63.6434952,209.068201 C63.6244302,209.053898 70.6307912,205.392308 83.4710201,209.926386 Z" id="Shape" fill="#7E8083" fill-rule="nonzero"></path>
                                <path d="M68.1571168,180.504939 C75.3064647,179.17952 76.7982953,175.737244 78.5856323,173.982732 C78.5856323,173.982732 78.5856323,174.159137 78.5618012,174.459502 L78.7476842,173.839701 C79.400658,174.221117 80.0012032,174.6073 80.5683848,175.003019 C85.1392012,171.870643 89.6718878,167.675071 92.1789258,162.349556 L92.1789258,162.32095 C92.2694842,162.125474 92.3648089,161.929999 92.4648997,161.744059 C92.4982634,161.677311 92.5363932,161.615331 92.5697568,161.553351 C92.6031205,161.491371 92.7079776,161.295895 92.779471,161.176703 L92.9081593,160.962157 L93.1035748,160.637953 L93.251328,160.423407 L93.4467435,160.137345 L93.5992629,159.932334 C93.6659902,159.846516 93.7279512,159.75593 93.7946785,159.674879 L93.9567303,159.479403 L94.1569121,159.241019 C94.2141069,159.179039 94.2665354,159.117059 94.3237302,159.059846 C94.380925,159.002634 94.4571847,158.90728 94.5286782,158.840532 L94.7002625,158.673663 C94.7669898,158.602148 94.8384832,158.5354 94.9099767,158.468652 L95.0815611,158.316086 L95.2960415,158.134913 L95.4723921,157.99665 C95.5438856,157.939438 95.6153791,157.882226 95.6916388,157.829781 L95.8679893,157.701053 L96.0920022,157.553255 L96.2731191,157.443598 L96.497132,157.310102 L96.683015,157.209981 L96.9070279,157.095556 L97.092911,157.009737 L97.3216901,156.909616 L97.5075731,156.8381 L97.7363523,156.757049 L97.9270015,156.695069 L98.1557807,156.628322 L98.34643,156.580645 L98.5752091,156.5282 L98.7658584,156.490059 L98.9946375,156.456685 L99.1852868,156.428079 L99.4092997,156.428079 L99.6047152,156.428079 L100.233858,156.428079 L100.438806,156.428079 L100.634221,156.428079 L100.848702,156.428079 L101.025052,156.456685 L101.253831,156.494826 L101.396818,156.5282 L101.654195,156.59018 L101.725688,156.59018 C102.476445,156.791649 103.189532,157.113683 103.837129,157.543719 L103.837129,157.543719 L104.146934,157.767801 L104.170765,157.767801 C104.270856,157.844084 104.370947,157.920367 104.466272,158.001418 L104.494869,158.025256 L104.776077,158.277944 L104.799908,158.277944 C104.895233,158.363763 104.981025,158.454349 105.071583,158.549703 L105.095414,158.573541 C105.185973,158.664128 105.271765,158.764249 105.352791,158.859603 L105.352791,158.883442 C105.438583,158.983563 105.519609,159.088452 105.600635,159.193342 L105.600635,159.193342 C105.681661,159.302999 105.762687,159.407888 105.838947,159.522313 L105.838947,159.522313 C105.919973,159.636737 105.991466,159.751162 106.062959,159.865587 L106.062959,159.865587 C106.134453,159.989547 106.205946,160.108739 106.272674,160.232699 L106.272674,160.232699 C107.92179,163.317398 107.826465,167.861012 104.127869,172.800344 L104.127869,172.800344 C103.746571,173.305719 103.331909,173.815863 102.87435,174.330774 C98.592965,179.031183 93.4886334,182.909081 87.8130574,185.773242 C87.8921026,186.349857 87.9080844,186.933372 87.8607197,187.513451 C87.8607197,187.513451 78.1662039,193.091654 72.8470891,193.048991 C71.0604922,193.021478 69.3532567,192.305926 68.0808571,191.051081 C67.368626,190.357367 66.7297543,189.592083 66.1743643,188.767355 C64.3155339,185.968718 64.8445856,181.115204 68.1571168,180.504939 Z" id="Shape" fill="#FAC8CA" fill-rule="nonzero" opacity="0.39" style="mix-blend-mode: multiply;"></path>
                                <path d="M87.107655,190.502796 C87.107655,190.502796 89.2381607,182.850645 80.0726967,175.451182 L75.3064647,185.615908 L87.107655,190.502796 Z" id="Shape" fill="#1F77B9" fill-rule="nonzero"></path>
                                <path d="M66.5890265,181.825591 C66.5890265,181.825591 86.7358889,178.51681 95.0291325,166.092197 C103.322376,153.667583 118.169189,167.82287 103.903856,179.694431 C89.6385242,191.565992 71.2361027,191.961711 71.2361027,191.961711" id="Shape" fill="#FAC8CA" fill-rule="nonzero"></path>
                                <path d="M68.5908439,180.481101 C75.8736463,180.228413 77.8421001,177.034057 79.8677487,175.575142 C79.8677487,175.575142 77.2987497,186.011627 87.107655,190.502796 C87.107655,190.502796 76.6219448,194.417074 71.3790896,193.577959 C69.6266849,193.283623 68.0547779,192.325848 66.98939,190.903282 C66.3793898,190.112565 65.8553254,189.259101 65.4260659,188.357333 C63.9914301,185.315544 65.2306504,180.595525 68.5908439,180.481101 Z" id="Shape" fill="#00AFEC" fill-rule="nonzero"></path>
                                <path d="M105.36709,178.364244 C117.068189,166.821654 103.017337,154.106211 95.0291325,166.082661 C94.9433403,166.211389 94.8527819,166.344884 94.7574573,166.473612 C95.6058466,170.683487 98.1367158,176.123427 105.36709,178.364244 Z" id="Shape" fill="#5F2B70" fill-rule="nonzero"></path>
                                <path d="M41.5520101,49.455302 C41.3510676,49.0501189 41.1712974,48.63477 41.0134259,48.2109336 C39.9216586,46.7376716 39.1135276,45.0740274 38.6303099,43.3049752 C38.1536867,41.1833509 38.8876864,38.4323908 41.4900491,38.4180877 C44.2115675,38.4180877 45.6080735,42.0129298 46.3230083,44.1393219 L46.9187873,45.9129045 C47.7004493,42.6136594 50.3409418,36.8542837 54.6448493,37.6504888 C55.5856151,37.7618329 56.4347081,38.2679784 56.9803029,39.0426557 C58.2731387,39.7075604 58.9980093,41.1232184 58.7819386,42.5612148 C58.5769906,44.5398083 56.8373159,46.4468863 55.7792125,47.9868519 C54.9832517,49.1501695 54.1920572,50.3134871 53.3960965,51.4672694 C54.7614703,50.2101095 56.3273021,49.1900725 58.0288739,48.4493183 C61.3890675,46.9951713 66.6080914,46.2418755 69.7585708,48.6161876 C72.0797257,50.3754672 72.1130893,53.412489 69.3248436,54.7426759 C67.2372341,55.7391242 64.6301052,55.1717685 62.4233398,55.476901 C60.3270985,55.7278959 58.3199104,56.4712246 56.5656407,57.6462023 C63.4480797,55.9965798 72.2179464,59.0765109 72.8947514,66.5093476 C73.2903486,70.8002733 69.1723242,72.8360791 65.5499879,70.9480718 C63.2383654,69.7418449 62.0229763,67.3770681 60.0688212,65.7655872 C57.41403,63.5819828 54.0061742,63.8585091 50.879526,63.0336978 L50.879526,63.0336978 L50.6888767,63.0956779 C56.4083551,64.0492169 67.0275198,72.4260573 62.9762227,78.8958197 C59.120341,85.0556818 54.6639142,77.0650247 51.9852918,71.0434257 C52.9385382,77.4130665 52.5000449,84.6170539 47.5622286,83.3202408 C43.9065287,82.3667018 43.2058926,78.0471699 43.5824249,74.871885 C43.768308,73.2985455 44.0018533,71.7156707 44.3307233,70.1614021 C43.6539184,71.2341335 42.9771135,72.2687234 42.3622695,73.2270301 C40.9323999,75.4297053 38.1822841,77.6800574 35.4941293,75.9303133 C30.4419234,72.6310682 35.5560903,66.8716925 40.3127898,62.78101 C39.2744531,63.135564 38.2160973,63.4284922 37.1432455,63.6582659 C34.8554542,64.1350354 29.2932615,65.4747578 27.9920802,62.6141407 C26.199977,58.6903275 31.8050658,57.1360589 37.2004403,56.4161369 C33.3350262,55.6533057 29.9700665,53.7033184 30.0081963,49.8605561 C30.0272613,44.778193 36.699986,47.0094744 41.5520101,49.455302 Z" id="Shape" fill="#99D8E2" fill-rule="nonzero"></path>
                                <path d="M44.016152,51.9678774 C44.237227,52.0477989 44.3977214,52.241181 44.4355804,52.473253 C44.4349328,52.5581083 44.4187798,52.6421301 44.3879181,52.7211732 C44.9728441,52.9572066 45.3238478,53.5593922 45.2410736,54.1848556 C45.1616106,54.5846514 44.9153956,54.9315395 44.5642687,55.1383946 C44.8150826,55.0996326 45.0698324,55.1778824 45.2556754,55.3507694 C45.4415184,55.5236565 45.5379936,55.7721462 45.5175151,56.0251859 C45.630934,56.025737 45.7429738,56.0501009 45.8463851,56.0967014 C45.6267289,55.7700032 45.4818839,55.3988257 45.4221904,55.0096669 C45.3968673,54.7359685 45.5928768,54.4914086 45.86545,54.4566142 C45.7939565,54.2611387 45.7176968,54.0608955 45.6652683,53.8558846 C45.6128397,53.6508737 45.7891903,53.522146 45.9750733,53.5316814 C46.3134758,52.5781423 47.3048521,52.411273 48.1723063,52.8928102 C48.3749781,53.0154461 48.4988094,53.235145 48.4988094,53.4720852 C48.4988094,53.7090254 48.3749781,53.9287242 48.1723063,54.0513601 C48.3256699,54.2127532 48.4255341,54.4175377 48.4582802,54.6377866 C48.5515777,55.1337878 48.2423354,55.6166046 47.7528779,55.7391242 C47.9721245,56.1396106 48.186605,56.5448647 48.4010854,56.9548865 C48.6155658,57.3649083 48.8777086,57.8273747 49.092189,58.2707704 C49.3577235,57.7330784 49.5500822,57.1622391 49.6641369,56.5734709 C49.7324561,56.0996728 49.7690786,55.6218408 49.7737602,55.1431623 C49.7096031,54.6503805 49.7321864,54.1501678 49.8404875,53.6651768 C49.8890249,53.5455544 49.9961108,53.4596716 50.123389,53.43829 C50.2506672,53.4169085 50.3799247,53.4630879 50.4648638,53.5602875 C51.0987727,54.1896233 51.0368117,55.4196887 50.8604611,56.3446215 C51.0205506,57.0689297 51.0623989,57.8143811 50.9843831,58.5520644 C50.9843831,58.6903275 50.9510195,58.823823 50.9319546,58.9620862 C51.332964,58.4544288 51.6976907,57.9191196 52.0234217,57.3601406 C52.3615583,56.6950255 52.6560975,56.0086182 52.9051746,55.305264 C52.2998631,54.8284945 52.0043568,53.8415816 52.5620059,53.2360843 C52.7024925,53.0560171 52.9398601,52.9819357 53.1577849,53.0501442 C53.5343172,53.1645688 53.4580575,53.5269137 53.448525,53.8320462 C53.4421294,53.9515996 53.4582986,54.0712884 53.4961874,54.1848556 C53.5247847,54.146714 53.5390834,54.1038048 53.5676808,54.0704309 C53.6676916,53.9348778 53.8383987,53.8713487 54.0026616,53.9085517 C54.1669245,53.9457548 54.2936262,54.0766424 54.3255117,54.2420679 C54.3278815,54.2674404 54.3278815,54.2929786 54.3255117,54.3183511 C54.5346978,54.1483186 54.6469614,53.8862898 54.6257843,53.6174999 C54.6234599,53.5927603 54.6373656,53.5693484 54.660198,53.5595601 C54.6830305,53.5497717 54.7095688,53.5558451 54.7258752,53.5745906 C54.9633454,53.8730772 55.0514489,54.2637466 54.9650873,54.6353083 C54.8787257,55.00687 54.6273668,55.3185902 54.2826156,55.4816687 C53.9340236,56.8887118 53.2166944,58.1773384 52.2045385,59.214774 C52.337993,59.214774 52.4666813,59.1670971 52.6096682,59.152794 C53.5390834,59.0479047 54.8926933,59.152794 55.7124852,59.7058466 C56.241537,59.0574401 57.2948742,58.7523076 57.4521599,59.6438666 C57.4779012,59.8096135 57.3650723,59.965067 57.1995496,59.9919083 C57.0994587,59.9919083 56.961238,59.9919083 56.8706796,59.9919083 C56.6037706,59.9060898 56.4846148,59.9919083 56.5132122,60.2588993 C56.4532562,60.3329834 56.4356694,60.4327325 56.4666727,60.5228635 C56.497676,60.6129945 56.5728981,60.6807996 56.6657316,60.7022949 C57.0565626,61.0884782 58.0002765,60.7976488 58.419705,60.606941 C58.5483932,60.544961 58.6437179,60.6975272 58.5817568,60.8024165 C58.1909258,61.5080354 57.6285105,61.9895726 56.7944199,61.8846833 C56.1848117,61.8108288 55.6743957,61.3878361 55.4884723,60.8024165 C54.6617856,61.0503929 53.8060217,61.1882548 52.9433044,61.2124383 L51.8423049,61.3220953 C52.8213652,61.8584436 53.5781167,62.7252576 53.9775768,63.7679229 C54.12277,63.9019869 54.1983337,64.0953488 54.1825248,64.2923694 C54.2444858,64.4735418 54.2969143,64.6499465 54.3398104,64.8311189 C54.8558474,65.1036196 55.1119192,65.6993181 54.9546543,66.2614275 C54.7449401,67.129148 53.7202003,67.4152097 52.9576031,67.1053095 C52.209882,66.7904448 51.7432586,66.0367315 51.7946425,65.2268376 C51.8177919,65.0900306 51.8545145,64.9558721 51.9042659,64.8263512 C51.6339689,64.1389653 51.2469787,63.5034614 50.7603702,62.9478793 C50.7603702,63.0670717 50.7603702,63.1862641 50.7603702,63.3054565 C50.7603702,64.5307541 50.283747,65.2935854 49.440124,66.1136289 C49.3236466,66.232292 49.1388894,66.2503717 49.0016306,66.1565382 C49.0304146,66.5444234 48.9717781,66.9338244 48.8300463,67.2960173 C48.7001773,67.6097325 48.3817353,67.8027869 48.043618,67.7727868 C46.3468394,67.5963821 45.8082552,65.2554438 47.5050338,64.5879665 C47.6930426,64.4987733 47.9116171,64.5010473 48.0977307,64.5941326 C48.2838443,64.687218 48.4168076,64.8607669 48.4582802,65.064736 C48.5595097,65.0370982 48.6678515,65.0601945 48.7490203,65.126716 C48.7217963,64.9036945 48.7090596,64.6791416 48.7108905,64.454471 C48.7108905,64.0110754 48.7966827,63.5676797 48.8348125,63.1195164 C48.8824748,62.5330899 48.8348125,61.9418956 48.8967735,61.3602368 C48.8463292,61.3962193 48.7869776,61.4176584 48.7251892,61.4222169 C48.1627738,61.3936107 47.5431637,61.4222169 46.9187873,61.3936107 C46.8383538,61.703916 46.5526742,61.916257 46.2324499,61.9037541 C46.3710157,62.5902332 46.0611576,63.2894081 45.459585,63.6476736 C44.8580125,64.005939 44.0958641,63.9451957 43.5585937,63.4961643 C42.7155757,62.791049 42.5131369,61.5760433 43.0819706,60.6355472 C43.8874638,59.4865326 45.6080735,59.6295635 46.604216,60.4114655 C47.3572806,60.5020517 48.1151115,60.6498503 48.7966827,60.7213657 C48.8798759,60.7316193 48.9563042,60.7723936 49.0111631,60.8357904 C49.0111631,60.7928811 49.0111631,60.7499719 49.0397605,60.7022949 C49.064477,60.6321284 49.1113124,60.571893 49.173215,60.5306579 C49.0036586,60.3242365 48.8445835,60.1094191 48.6965918,59.887019 C48.6211475,59.8888462 48.5500667,59.8517324 48.5084292,59.7887726 C48.4667917,59.7258129 48.4604508,59.645858 48.4916438,59.5771188 L48.4916438,59.5771188 C48.4901865,59.5644468 48.4901865,59.5516493 48.4916438,59.5389773 C47.5571632,59.5906132 46.6200644,59.5682945 45.6890994,59.4722296 C45.0842365,59.4350228 44.482426,59.3585789 43.8874638,59.2433802 C43.875099,59.3944943 43.8295294,59.541013 43.7540093,59.6724727 C43.0629056,60.8739319 41.0610882,60.668921 40.708387,59.3005925 C40.4367118,58.2469319 41.4137894,56.9167449 42.5290876,57.5508484 C42.685727,57.6598462 42.7812627,57.8368186 42.7864642,58.0276179 C42.8090969,58.0056139 42.8329669,57.9849202 42.8579577,57.9656379 C43.1101945,57.8233671 43.389483,57.7356566 43.6777495,57.7081823 C43.1535602,56.9616427 43.308912,55.9347461 44.0304507,55.3767794 C43.7285408,55.4649819 43.4077117,55.4649819 43.1058017,55.3767794 C42.2268318,55.0895876 41.7092557,54.1820042 41.9094775,53.2789935 C42.1620878,52.3540607 43.1439316,51.5864617 44.016152,51.9678774 Z" id="Shape" fill="#FCBA6B" fill-rule="nonzero"></path>
                                <path d="M55.6409917,57.212342 C55.8776964,56.4855759 56.4484426,55.9164275 57.1757184,55.6819119 C57.5211327,55.5421507 57.9167942,55.6760793 58.106388,55.996937 C58.2959817,56.3177947 58.2225017,56.7291077 57.9335493,56.9644219 C58.050509,57.2148444 58.0530831,57.5037119 57.9406046,57.7561801 C57.8281261,58.0086484 57.6116641,58.199872 57.3473028,58.2803058 C57.4212423,58.4646566 57.3372954,58.6745883 57.1566535,58.7570753 C56.160511,59.1384909 55.0356803,58.9620862 54.0014079,59.2862894 C52.8765772,59.6343312 51.8089412,60.2636669 50.631682,60.4114655 C50.5646171,60.4195194 50.4988452,60.3885467 50.4623189,60.3317107 C50.4257926,60.2748746 50.42493,60.2021617 50.4600976,60.1444746 C51.1797986,58.7952168 53.7392652,57.0597758 55.6409917,57.212342 Z" id="Shape" fill="#FCBA6B" fill-rule="nonzero" style="mix-blend-mode: multiply;"></path>
                            </g>
                            <g id="Group-10" transform="translate(170.344025, 214.311986) rotate(-344.000000) translate(-170.344025, -214.311986) translate(147.844025, 172.311986)">
                                <path d="M3.51943095,0 L40.9342707,0 C42.8779987,-8.01146259e-16 44.4537016,1.57570291 44.4537016,3.51943095 L44.4537016,80.333284 C44.4537016,82.277012 42.8779987,83.8527149 40.9342707,83.8527149 L3.51943095,83.8527149 C1.57570291,83.8527149 1.57030566e-15,82.277012 0,80.333284 L0,3.51943095 C-6.82127242e-16,1.57570291 1.57570291,1.68932468e-15 3.51943095,0 Z" id="Rectangle-2" fill="#2E3B50"></path>
                                <g id="Group-3" transform="translate(1.616498, 8.955144)">
                                    <mask id="mask-2" fill="white">
                                        <use xlink:href="#path-1"></use>
                                    </mask>
                                    <use id="Rectangle-6" fill="#FFFFFF" xlink:href="#path-1"></use>
                                    <path d="M20.7823805,9.30032442 C13.6844713,9.30032442 6.73827689,8.61333699 0,7.29880244 L0,0 L41.2207051,0 L41.2207051,7.36534222 C34.590116,8.63651096 27.7595468,9.30032442 20.7823805,9.30032442 Z" id="bg" fill="#1F9AFF" mask="url(#mask-2)"></path>
                                    <g id="Group-13" mask="url(#mask-2)">
                                        <g transform="translate(2.424747, 13.025664)">
                                            <g id="Rectangle-7" fill="none">
                                                <use fill="black" fill-opacity="1" filter="url(#filter-4)" xlink:href="#path-3"></use>
                                                <use fill="#FFFFFF" fill-rule="evenodd" xlink:href="#path-3"></use>
                                            </g>
                                            <g id="Rectangle-7-Copy" fill="none">
                                                <use fill="black" fill-opacity="1" filter="url(#filter-6)" xlink:href="#path-5"></use>
                                                <use fill="#FFFFFF" fill-rule="evenodd" xlink:href="#path-5"></use>
                                            </g>
                                            <ellipse id="Oval-6" fill="#D8D8D8" fill-rule="evenodd" cx="4.0412456" cy="32.5641611" rx="2.42474736" ry="2.44231209"></ellipse>
                                            <ellipse id="Oval-6-Copy" fill="#D8D8D8" fill-rule="evenodd" cx="4.0412456" cy="4.88462417" rx="2.42474736" ry="2.44231209"></ellipse>
                                            <rect id="Rectangle-13" fill="#2E3B50" fill-rule="evenodd" opacity="0.200000018" x="2.42474736" y="18.7243927" width="30.7134666" height="1.62820806"></rect>
                                            <rect id="Rectangle-13-Copy" fill="#2E3B50" fill-rule="evenodd" opacity="0.200000018" x="2.42474736" y="14.6538725" width="30.7134666" height="1.62820806"></rect>
                                            <rect id="Rectangle-13-Copy-2" fill="#2E3B50" fill-rule="evenodd" opacity="0.200000018" x="2.42474736" y="10.5833524" width="30.7134666" height="1.62820806"></rect>
                                            <rect id="Rectangle-15" fill="#2E3B50" fill-rule="evenodd" opacity="0.200000018" x="8.0824912" y="4.07052014" width="15.3567333" height="1.62820806"></rect>
                                        </g>
                                    </g>
                                </g>
                            </g>
                        </g>
                    </g>
                </g>
            </g>
        </g>
    </g>
</svg>