<?xml version="1.0" encoding="UTF-8"?>
<svg width="174px" height="207px" viewBox="0 0 174 207" version="1.1" xmlns="http://www.w3.org/2000/svg" xmlns:xlink="http://www.w3.org/1999/xlink">
    <!-- Generator: Sketch 58 (84663) - https://sketch.com -->
    <title>Group 2</title>
    <desc>Created with Sketch.</desc>
    <defs>
        <polygon id="path-1" points="0.11964831 0.855692308 7.01303518 0.855692308 7.01303518 7.75090537 0.11964831 7.75090537"></polygon>
        <polygon id="path-3" points="0 0 51.0793585 0 51.0793585 81.668645 0 81.668645"></polygon>
        <rect id="path-5" x="0" y="0" width="45.0700222" height="31.2559012" rx="1.78212376"></rect>
        <filter x="-18.9%" y="-20.8%" width="137.7%" height="154.4%" filterUnits="objectBoundingBox" id="filter-6">
            <feOffset dx="0" dy="2" in="SourceAlpha" result="shadowOffsetOuter1"></feOffset>
            <feGaussianBlur stdDeviation="2.5" in="shadowOffsetOuter1" result="shadowBlurOuter1"></feGaussianBlur>
            <feColorMatrix values="0 0 0 0 0   0 0 0 0 0   0 0 0 0 0  0 0 0 0.13 0" type="matrix" in="shadowBlurOuter1"></feColorMatrix>
        </filter>
        <rect id="path-7" x="0" y="34.2806658" width="45.0700222" height="36.2971756" rx="1.78212376"></rect>
        <filter x="-18.9%" y="-17.9%" width="137.7%" height="146.8%" filterUnits="objectBoundingBox" id="filter-8">
            <feOffset dx="0" dy="2" in="SourceAlpha" result="shadowOffsetOuter1"></feOffset>
            <feGaussianBlur stdDeviation="2.5" in="shadowOffsetOuter1" result="shadowBlurOuter1"></feGaussianBlur>
            <feColorMatrix values="0 0 0 0 0   0 0 0 0 0   0 0 0 0 0  0 0 0 0.13 0" type="matrix" in="shadowBlurOuter1"></feColorMatrix>
        </filter>
    </defs>
    <g id="RESPONSIVE-TEST-V2" stroke="none" stroke-width="1" fill="none" fill-rule="evenodd">
        <g id="CREATE-CLASS-UPDATES-1-(≤768px)" transform="translate(-584.000000, -797.000000)">
            <g id="Right-Panel" transform="translate(309.000000, 84.000000)">
                <g id="Illustrations" transform="translate(-80.000000, 642.000000)">
                    <g id="Group-2" transform="translate(324.900000, 0.200000)">
                        <g id="Illustration" transform="translate(29.700000, 184.925594)">
                            <polygon id="Fill-1" fill="#392F1D" points="40.830035 93.6516336 49.7886606 93.6516336 49.7886606 83.9978685 40.830035 83.9978685"></polygon>
                            <g id="Group-295" transform="translate(0.000000, 0.255596)">
                                <path d="M75.8317762,64.1478073 C74.9152502,65.3057701 73.9231801,66.429283 72.8500114,67.5005654 C57.6412336,82.718553 32.9783507,82.718553 17.767351,67.4983428 C2.55301853,52.2848003 2.55301853,27.6130796 17.767351,12.4006485 C18.836076,11.3226984 19.9636807,10.3380966 21.1212809,9.41350442 L17.1952166,5.48621011 C16.0498368,6.42413778 14.9344523,7.42540891 13.8646165,8.50002509 C-3.49938625,25.8672451 -3.49938625,54.0306349 13.8668383,71.4011887 C31.231952,88.7717426 59.3820777,88.7717426 76.7505241,71.4011887 C77.82036,70.332129 78.8224285,69.2208403 79.7622843,68.0751016 L75.8317762,64.1478073 Z" id="Fill-2" fill="#27241F"></path>
                                <polygon id="Fill-4" fill="#392F1D" points="22.7779157 16.1252437 25.4586155 13.4470379 15.1013156 3.08204811 12.4217267 5.76692164"></polygon>
                                <g id="Group-8" transform="translate(9.899225, 0.000000)">
                                    <mask id="mask-2" fill="white">
                                        <use xlink:href="#path-1"></use>
                                    </mask>
                                    <g id="Clip-7"></g>
                                    <path d="M0.11964831,4.3025765 C0.11964831,2.40116152 1.66607773,0.855358921 3.5691191,0.855358921 C5.47104953,0.855358921 7.01303518,2.40116152 7.01303518,4.3025765 C7.01303518,6.20732535 5.47104953,7.75090537 3.5691191,7.75090537 C1.66607773,7.75090537 0.11964831,6.20732535 0.11964831,4.3025765" id="Fill-6" fill="#392F1D" mask="url(#mask-2)"></path>
                                </g>
                                <polygon id="Fill-11" fill="#392F1D" points="71.6766359 59.8491203 68.9937142 62.5273261 79.3510141 72.8934272 82.0328249 70.209665"></polygon>
                                <path d="M84.435123,71.6728988 C84.435123,73.5743138 82.8898045,75.1201164 80.9867631,75.1201164 C79.0814999,75.1201164 77.5417361,73.5743138 77.5417361,71.6728988 C77.5417361,69.7670387 79.0814999,68.2212361 80.9867631,68.2212361 C82.8898045,68.2212361 84.435123,69.7670387 84.435123,71.6728988" id="Fill-13" fill="#392F1D"></path>
                                <path d="M21.899606,16.2820466 C8.87493752,29.3152406 8.87493752,50.5208517 21.8973841,63.5518232 C34.9264963,76.5839059 56.1199115,76.5750156 69.1479128,63.547378 C82.1736921,50.5175179 82.1781359,29.3174631 69.1479128,16.2831578 C56.1221334,3.25440899 34.9264963,3.25440899 21.899606,16.2820466" id="Fill-15" fill="#009BDE"></path>
                                <path d="M75.3349635,25.1636882 C75.3649589,25.2325881 75.3682918,25.3314928 75.3360745,25.3826121 C75.3049681,25.4370652 75.4471686,25.6193166 75.4849405,25.6582117 C75.5204906,25.7015519 76.0359671,26.8006165 76.5525545,28.0941565 C77.0635872,29.3810289 77.9734476,32.9860494 77.9367866,33.1182928 C77.8956818,33.2516474 77.7868096,33.8206273 77.6279451,34.0962269 C77.4701915,34.3596023 77.0791404,35.0852738 76.9569369,35.0952754 C76.8347335,35.105277 76.3137023,35.0419335 76.0537422,34.6485373 L75.589369,34.2695879 L75.3549605,34.0784462 C75.0994441,34.0606656 74.6750648,33.8239611 74.4062171,33.5561405 C74.1440351,33.2927651 73.5008005,32.6093226 73.5885648,32.4448518 C73.6763291,32.2781585 73.566346,31.4346904 73.2974984,30.9468346 L73.2575045,30.5178772 L73.2341747,30.1722664 C73.4685832,30.2389437 73.5563475,30.1856019 73.4197018,30.0466908 C73.285278,29.9133361 73.3208281,29.4332594 73.3841517,29.2543419 C73.4463644,29.0676454 73.8274171,28.7809329 73.7329871,28.5708994 C73.6396681,28.3641997 73.4463644,27.6463072 73.5230193,27.4496091 C73.5985633,27.2540223 73.809642,26.6483699 73.7029917,26.529462 C73.6007852,26.4149993 73.8318608,25.874913 74.1240382,25.5693086 C74.4128828,25.2648155 75.3016353,25.0958996 75.3349635,25.1636882" id="Fill-17" fill="#A4CE4C"></path>
                                <path d="M13.4010209,48.5750963 C12.7311237,45.5334991 12.2400879,43.0242092 12.3122991,42.9997609 C12.3856211,42.9742012 12.5544841,42.7352742 12.5167121,42.530797 C12.4789402,42.3240973 13.0155245,41.9040302 13.1332842,41.999601 C13.248822,42.0929493 13.39991,41.8706915 13.2299361,41.5495291 C13.0588512,41.2317005 12.4911605,41.0327799 12.4544995,40.9394316 C12.4222822,40.8438608 12.2667505,40.5582596 12.4222822,40.5282548 C12.5744811,40.5015839 13.1755,40.190423 13.4487914,40.2637681 C13.7198609,40.3360018 14.4275301,40.4660226 14.4408614,40.6327159 C14.4541927,40.8027431 14.8719064,40.8105221 14.8552423,40.621603 C14.8363563,40.4337952 14.5686196,39.9781669 14.4786334,40.040399 C14.3897581,40.1059651 13.8187346,39.9070444 13.4110194,39.5069805 C13.0077479,39.1091391 12.9233164,38.0523035 13.0744044,38.0122971 C13.2254923,37.9745133 13.7187499,38.0411906 13.7998486,37.7044702 C13.8765035,37.3621932 14.5330695,37.5644478 14.61639,37.3999771 C14.6974887,37.2366176 15.2574028,36.7965473 15.3807172,36.7676538 C15.5006988,36.7387603 15.9628501,36.9354584 16.095052,36.8043263 C16.226143,36.6754168 16.7105132,36.3775914 16.8882637,36.4398236 C17.0626814,36.4976106 17.5203889,36.7487619 17.5103905,36.8632246 C17.500392,36.9710196 17.8070116,37.2210596 17.9903168,37.1632726 C18.173622,37.1043743 18.7246486,36.9076762 18.8235223,36.995468 C18.9201742,37.0799259 19.1912437,36.9654632 19.2279047,37.0777033 C19.2656767,37.1910548 19.6011808,37.5966752 19.5656307,37.7022476 C19.5256368,37.8055974 19.6134012,38.1112018 19.4278741,38.1089793 C19.2390141,38.1034228 18.8824022,38.4001369 19.0234917,38.4290304 C19.1656921,38.4579239 19.6189559,38.8691007 19.6967217,39.0835795 C19.7789313,39.3025033 20.1488746,39.8259203 19.7356046,39.8770396 C19.3156691,39.9270476 18.0880796,40.3571163 17.9147729,40.548258 C17.7414661,40.7371771 17.4870607,40.1859779 17.7703506,39.4336354 L17.1748864,38.6768478 L16.8216072,38.2356662 C16.488325,38.3001209 16.0439488,38.3956917 15.8317591,38.4512562 C15.6240132,38.5068206 15.4495955,39.0157908 15.2785107,39.0635763 C15.1118696,39.1169181 14.7919186,39.4614176 14.9141221,39.4191887 C15.0363256,39.3758484 15.4673706,39.5325401 15.5984616,39.7125689 C15.7284416,39.8925976 16.1172709,40.5893757 16.002844,40.8327479 C15.8928608,41.0827879 15.4562612,41.9629285 15.5406926,41.9940446 C15.6195694,42.0229381 15.8073184,42.4396714 15.7728793,42.7041581 C15.7373291,42.9641996 15.8928608,43.8698999 15.9239672,44.1043819 C15.9595173,44.3399751 15.9539626,45.021195 16.0439488,45.1045417 C16.1383787,45.1878884 16.1228256,45.3434688 16.2750244,45.2990172 C16.4283342,45.2478979 17.1048971,45.7324198 17.3781885,45.6579635 C17.6603675,45.5846184 18.4102524,45.4768234 18.4302493,45.3623607 C18.4480244,45.2478979 18.7790847,45.2545657 18.7413127,45.1334352 C18.7079845,45.0145273 19.241236,45.0934288 19.5067508,45.2834592 C19.7722657,45.4723783 20.2655233,45.5012718 20.0500008,45.2190044 C19.8367002,44.9345145 19.6967217,44.3033025 19.653395,44.3910943 C19.6100683,44.4766636 19.3134472,44.2921897 19.4156537,44.2043978 C19.5145274,44.1210512 19.484532,43.5754084 19.204575,43.18868 C18.9279508,42.8052854 17.6825863,41.6117613 17.7036941,41.518413 C17.7225801,41.4283986 18.0903015,41.2394796 18.2325019,41.2817085 C18.3780351,41.3306052 18.6257749,40.9483219 18.8468521,41.0049976 C19.0601527,41.0627847 19.5756292,40.6093789 19.7400484,40.7805173 C19.915577,40.9505445 20.4532723,41.3128246 20.572143,41.2172538 C20.6876808,41.1194604 20.9354206,40.8483059 20.8543219,40.7460674 C20.7743342,40.6493853 20.8587656,40.4826919 21.1464993,40.5893757 C21.4342329,40.698282 22.2407758,40.7460674 22.311876,40.8305253 C22.3896419,40.9127607 22.6429364,41.1305733 22.8584589,41.1250168 C23.0795361,41.1194604 23.7005519,41.4728502 23.7238816,41.3572762 C23.7438786,41.2394796 24.2282487,41.3050456 24.409332,41.4695163 C24.5870825,41.6350983 25.440285,42.4474504 25.6324777,42.5419099 C25.8246705,42.6297017 26.395694,42.557468 26.5034552,42.6830436 C26.6145493,42.8130644 26.7922998,43.1486736 26.600107,43.2186848 C26.4079143,43.2886959 26.3301485,43.612081 26.2534936,43.5720746 C26.1690621,43.5298456 25.9146566,43.4676134 25.8624424,43.6065245 C25.8157829,43.7421017 25.3547425,43.7809968 25.2758658,43.4187167 C25.2014327,43.0564366 24.7981613,42.3696602 24.7615002,42.7252726 C24.7226173,43.0842188 24.0816045,43.4865053 24.1827001,43.5265117 C24.2771301,43.5542939 24.4782104,43.9621369 24.3893351,44.1143835 C24.3037927,44.2644074 24.5959701,44.674473 24.7792753,44.6633601 C24.9670243,44.6489133 25.420288,44.8022712 25.3802942,45.0700917 C25.3391894,45.3279107 25.1614389,45.9357857 25.1903233,45.8468826 C25.2192078,45.7579795 24.8070488,45.729086 24.6570718,46.0313565 C24.5137605,46.3302931 24.4804322,47.1570919 24.6037467,47.1759839 C24.7292829,47.1937645 25.0259041,47.7094024 24.9492492,47.9238812 C24.8681505,48.1339147 24.7059532,48.8918136 24.7492799,49.1285181 C24.7903847,49.3618888 25.5069414,49.9453153 25.4791679,50.0319958 C25.4536163,50.1275667 25.3036393,50.4053889 25.3980692,50.459842 C25.496943,50.5165177 25.6846919,51.2210748 25.5747088,51.6011355 C25.4680585,51.9823075 25.9657599,53.0813721 26.0868525,53.1302688 C26.2201653,53.1747203 26.637879,53.3847539 26.7334199,53.5325553 C26.8345155,53.6836905 27.2800027,54.2504478 27.0355958,54.3315719 C26.7945217,54.4138072 25.9102129,53.9792933 25.6858029,54.0615287 C25.459171,54.1504318 24.8859256,54.628286 24.9059225,54.6927407 C24.9203647,54.7560842 24.8859256,54.9772306 24.6548499,55.0283499 C24.4215524,55.082803 23.8194225,55.7629117 23.7838724,55.9596098 C23.7449895,56.1563079 23.9505135,57.3064917 24.4804322,58.0755035 C25.0136838,58.8422927 26.3623657,58.1944114 26.2612701,57.9988246 C26.1590636,57.8065717 26.1301791,57.226479 26.2557154,57.1286856 C26.3790298,57.0308921 26.9556081,56.7286216 27.1300257,56.9897745 C27.3055544,57.2520386 27.9654531,57.7743443 28.1943069,57.5698672 C28.4287154,57.3620562 29.2774741,57.6432122 29.5085497,57.9777101 C29.7407363,58.3077629 30.5772746,58.7011591 30.5972716,58.5333545 C30.6194904,58.362216 30.8538989,57.8854732 30.9916555,57.838799 C31.1305231,57.788791 31.5326836,57.8543571 31.5504587,57.5943155 C31.5693447,57.3276062 31.3671535,56.5096977 31.4238114,56.3907899 C31.4826913,56.2707707 31.5515696,55.9629437 31.69377,55.9862808 C31.8381923,56.0151743 32.1370354,55.8206987 32.0548257,55.706236 C31.9737271,55.5928846 32.4358784,55.3139511 32.6636212,55.298393 C32.8980297,55.2872802 33.5246003,55.440638 33.5212674,55.3628478 C33.5190455,55.2872802 33.8312199,55.0239047 34.1333957,54.9461145 C34.4411263,54.8705469 35.4365291,54.6338424 35.6798252,54.7560842 C35.9220102,54.8705469 36.9774039,54.801647 37.5106554,54.6905181 C38.041685,54.5805005 38.7860153,55.1305885 38.9082187,55.1061401 C39.033755,55.0839143 39.5159033,54.7705309 39.7247601,54.6660698 C39.9347279,54.5627199 40.5946267,54.5293813 40.6935004,54.4260314 C40.795707,54.3260154 41.2467489,53.9792933 41.4733808,53.8826112 C41.7022345,53.7881517 42.3199176,53.7825952 42.3165847,53.6414616 C42.3154738,53.4981053 42.9176036,53.5592262 43.2753265,53.7403663 L43.6174963,54.0870884 L43.8363516,54.3015671 C43.9741082,54.536049 44.1551915,54.7927567 44.2318465,54.8916614 C44.3107232,54.9838983 44.4218173,55.6495603 44.4329267,55.82181 C44.4495908,55.9907259 44.7373245,56.5174768 44.7373245,56.5819315 C44.7417682,56.645275 44.6684461,56.8953149 44.7584323,57.0097777 C44.8539732,57.126463 45.1317084,57.7054444 45.4105545,58.0566116 C45.6971772,58.4111127 46.4437293,59.4334983 46.3948479,59.566853 C46.3404118,59.6968738 46.0882283,60.4569952 46.1293331,60.6303563 C46.1648832,60.8014947 46.3115274,61.3582504 46.4281762,61.4782696 C46.5459359,61.5938436 46.8381133,62.1083703 46.8092288,62.3517425 C46.7858991,62.5984486 47.2969318,63.4174684 47.2869333,63.5563795 C47.2802677,63.6919567 47.4202462,64.10869 47.3769195,64.1542528 C47.3313709,64.2009269 47.2902661,64.4176282 47.1747283,64.5343135 C47.0625233,64.647665 46.9103244,65.021058 47.104739,65.0966256 C47.3035974,65.1744158 47.8235176,65.9134228 47.8101864,66.1456822 C47.7968551,66.3768302 47.4935683,67.1602888 47.6835391,67.4103287 C47.8757319,67.6525897 47.6257702,68.4104886 47.9623852,68.6283011 C48.3012221,68.847225 48.7578187,69.5084418 48.8966863,69.4951063 C49.033332,69.4806596 49.4910396,69.9507347 49.5554742,70.0785329 C49.6221306,70.209665 49.5221459,70.683074 49.5654726,70.871993 C49.6087993,71.064246 50.17649,71.5554356 50.2975825,71.5143179 C50.4220079,71.4743115 50.8997124,71.8288126 51.056355,71.8410368 C51.2118867,71.8565948 51.5129516,71.868819 51.394081,72.061072 C51.2685447,72.2599926 50.8263903,72.7722967 50.6930774,72.7867435 C50.5608755,72.8023015 50.2175948,72.9480268 50.2175948,72.9480268 C50.2031526,72.9501029 50.1142773,72.9267659 50.0354005,72.8956498 C49.9554128,72.8634224 49.5265897,72.5644858 49.2666296,72.4377988 C49.0122242,72.3077781 48.1368029,72.0466252 47.8801756,71.8377029 C47.6257702,71.6243355 46.580375,70.8008706 46.4181777,70.6775175 C46.2570913,70.5574983 45.9804671,70.1274296 45.8871481,70.182994 C45.7993837,70.233002 45.5905269,69.7273657 45.662738,69.544003 C45.7327273,69.3650856 45.25169,68.9361281 45.2183618,69.0539247 C45.1872554,69.1739439 44.4184845,68.7772138 43.9541113,68.3349209 C43.4964037,67.892628 42.9609303,66.6124234 42.6065402,66.3823867 C42.2621486,66.149016 41.6922361,65.2733205 41.5922514,65.2055319 C41.4933777,65.1299643 41.1923128,65.0255031 41.1201016,64.9154856 C41.0456686,64.7999115 40.6912785,64.3576186 40.3813261,64.1887027 C40.0735955,64.0097853 39.0070925,63.6063875 38.6949181,63.6108326 C38.3849657,63.6152778 37.5284304,63.5652698 37.4951022,63.4674764 C37.4595521,63.3719055 36.9074146,63.1685397 36.5719105,63.2563315 C36.2319627,63.3396782 35.3387664,62.5295487 35.4143103,62.4295327 C35.4898543,62.3217377 35.3476539,62.0839219 35.1821237,62.1461541 C35.0143717,62.2083863 34.3855793,62.1039251 34.166724,61.9705705 C33.9456468,61.8349932 33.2501979,60.7481529 33.2257572,60.5270064 C33.1935399,60.3069713 32.6647322,59.6146384 32.6547337,59.5190676 C32.6469571,59.4212742 32.2992327,59.101223 32.105929,59.0200989 C31.9115144,58.9411974 31.4082583,58.6589301 31.432699,58.7733928 C31.4582506,58.8845217 31.2805001,59.1501197 30.982768,59.1267827 C30.6794812,59.0967779 29.8896024,59.4268306 29.8384991,59.3790452 C29.7896177,59.3301485 29.5318795,59.2156858 29.3752368,59.2379115 C29.2208161,59.2601373 28.6875646,59.1667891 28.548697,59.2156858 C28.4187169,59.2634712 27.931014,59.6279739 27.762151,59.5779659 C27.5877333,59.5268466 26.7922998,59.5412933 26.4012487,59.7879994 C26.0046428,60.0358168 24.5959701,60.6125757 24.2915723,60.5158935 C23.9882855,60.4147663 22.9406685,59.5890788 22.6884849,59.5524062 C22.4340795,59.5146224 21.7041915,59.4434999 21.6219819,59.3501517 C21.5353285,59.259026 21.4808924,59.4635031 21.6453116,59.5346256 C21.807509,59.6079707 22.2418868,60.0847135 22.1341255,60.1036054 C22.0230315,60.1269425 21.5386613,60.3280858 21.2609262,60.1758392 C20.9876348,60.0235926 20.2288623,60.0280378 20.1555402,59.9591379 C20.0777744,59.8891267 19.8267018,59.574632 19.504529,59.3868242 C19.1779124,59.2001277 18.2747176,58.9078588 18.2047284,58.9078588 C18.1291844,58.9123039 14.074251,51.6211387 13.4010209,48.5750963" id="Fill-19" fill="#A4CE4C"></path>
                                <path d="M12.3833993,37.0194718 C12.257863,37.0939282 12.3011896,36.0704312 12.4844949,34.7402187 C12.6633563,33.4133399 13.5921027,29.9350063 13.6654248,29.8805531 C13.736525,29.8249887 13.8642832,30.1294818 13.7720751,30.3784105 C13.6854217,30.6240053 13.5321119,31.3641236 13.623209,31.3996848 C13.7154171,31.435246 13.8442862,31.9297695 13.7620766,32.0942402 C13.680978,32.2575997 13.6943093,32.9165939 13.6443169,33.1633 C13.5921027,33.4044496 13.1854984,34.2301371 13.2210485,34.4812884 C13.2577096,34.7379961 13.6965311,35.5203433 13.5943246,35.6214706 C13.4943399,35.7225979 13.3010363,35.8915138 13.3832459,35.769272 C13.4654555,35.6481415 13.7676313,35.9481895 13.8242893,36.0615409 C13.8742816,36.1737811 13.511004,36.7060884 13.2888159,37.023917 C13.0655168,37.3450794 12.3389616,38.2696716 12.2800818,38.2418894 C12.2245347,38.2085507 12.0823343,38.1352057 12.0912219,38.0318558 C12.0978875,37.9318398 12.257863,37.5917855 12.4300588,37.5106614 C12.6011436,37.4273148 12.5089356,36.9383477 12.3833993,37.0194718" id="Fill-21" fill="#A4CE4C"></path>
                                <path d="M51.9531063,7.28705347 C53.8272632,7.71601091 55.3503629,8.17608444 55.3514738,8.31055037 C55.3503629,8.44835017 55.6303199,8.77840292 55.7836297,8.72283848 C55.9358286,8.67060791 56.3490986,8.38722929 56.5723976,8.46835337 C56.7979186,8.54614358 57.633346,8.95398653 57.9377437,9.18624587 C58.2399196,9.41406006 58.9975811,10.4597827 59.0831235,10.7953919 C59.1753316,11.1310011 59.429737,12.1644996 59.3619697,12.346751 C59.2864257,12.5267797 59.674144,13.3524673 60.2096174,13.7558651 C60.7517564,14.1670419 60.9561695,15.4283546 60.7550893,15.4905867 C60.5584528,15.5483737 59.8196772,15.0371809 59.617486,15.04496 C59.4130729,15.0560728 58.9842498,14.9427214 59.1197846,15.0427374 C59.2542084,15.1427534 59.2897585,15.6406107 59.3275305,15.7184009 C59.3664134,15.799525 59.2353224,16.0695682 59.2686506,16.1640277 C59.3097554,16.2629324 59.7041394,16.5674255 59.8474507,16.611877 C59.991873,16.6552173 60.4851307,16.7652349 60.6351077,16.8752525 C60.7850847,16.9874926 61.3383331,17.2253084 61.5594103,17.5042419 C61.7838203,17.7865092 62.2115325,18.5721903 62.2115325,18.6355338 C62.2170872,18.697766 62.1748714,19.1622846 62.3037406,19.5479018 C62.4381644,19.9324077 62.5492584,21.1159302 62.3204047,21.3315202 C62.0882181,21.5482215 62.3026296,22.1272029 62.370397,22.0683046 C62.445941,22.0060724 62.7381184,22.0894191 62.8536562,22.258335 C62.9614174,22.4205831 63.2891449,23.2796093 63.7912901,23.8296972 C64.2889915,24.383119 63.9790391,25.6588784 63.8946076,25.5821995 C63.8090652,25.5088545 63.4102375,25.4421771 63.175829,25.4621803 C62.9436424,25.4844061 62.4159456,25.5599737 62.5270396,25.7400025 C62.6403556,25.9211426 63.1780509,26.4278902 63.3969062,26.4701192 C63.6179834,26.5045692 64.4389685,26.5534659 64.7389225,26.6290335 C65.0422093,26.7034898 65.5421326,27.4091582 65.1177533,27.4358291 C64.6967068,27.4569436 63.455786,27.3958227 63.2913668,27.3091422 C63.1313914,27.2191278 62.6603525,26.7935042 62.6103602,26.6823753 C62.5725882,26.5701352 62.2404169,26.2123002 62.0671102,26.1367326 C61.8926925,26.0633875 61.3572191,26.0356053 61.2516797,25.9455909 C61.1450294,25.853354 60.8139691,25.6399865 60.6317748,25.8377959 C60.4429149,26.0378279 59.8696695,25.9089184 59.8385632,25.8144589 C59.8063459,25.7177767 59.3275305,25.387724 59.0920111,25.3110451 C58.8476041,25.2321436 58.1488224,25.2554806 58.0599472,25.4499562 C57.9732938,25.6444317 57.856645,26.334542 57.8255387,26.5367965 C57.802209,26.7334946 58.2721369,27.3947114 58.3299058,27.5069516 C58.3921184,27.6258595 58.0677238,27.9347977 58.1354912,28.0059202 C58.2032585,28.0692637 58.3365714,28.2970778 58.2821353,28.3548649 C58.2188117,28.4159857 58.2821353,28.8771705 58.5409845,29.2538974 C58.8053884,29.6350695 59.4075182,30.7430243 59.2919804,30.8763789 C59.1753316,31.0097336 58.7731711,31.0097336 58.6742974,30.9097176 C58.568758,30.8097016 58.1488224,30.4874279 57.951075,30.4229731 C57.7599932,30.3585184 57.0112192,30.145151 56.6979339,29.960677 C56.3879815,29.7806483 55.4914524,29.5072712 55.3581395,29.4417052 C55.2337141,29.3783618 54.7604534,29.0627558 54.6293624,29.140546 C54.4949386,29.22167 54.0805577,29.1383234 54.0261216,29.0727574 C53.9761293,29.0049688 53.6328486,28.8160497 53.064047,28.7660417 L52.6107832,29.4128117 L52.4852469,29.6017308 C52.3197167,29.5283857 52.1686288,29.6350695 52.1475209,29.8306563 C52.1219693,30.0329108 51.5864959,30.4974295 51.4742909,30.4540892 C51.3631968,30.4118603 50.7110746,30.1740445 50.2900281,30.1151462 C49.8634269,30.0562479 48.7424878,30.2118283 48.7280455,30.3018427 C48.7102705,30.3918571 48.7480425,30.6885711 48.8957976,30.7596936 C49.0413308,30.8274822 49.5734714,30.6774583 49.8023252,30.7674726 C50.0267352,30.8552645 50.647751,31.0875238 50.6744136,30.9319434 C50.7021871,30.7808081 51.2787653,30.4585344 51.5353926,30.526323 C51.789798,30.5907777 52.4796922,30.9886191 52.4930235,31.1586463 C52.4974672,31.3342299 52.9562857,32.0098934 52.9407326,32.2443753 C52.9274013,32.4766347 52.7018803,33.1500756 52.7729805,33.2512029 C52.8463026,33.3489963 52.7374304,33.9457584 52.6030066,34.3702706 C52.46525,34.7992281 51.7253635,35.7904976 51.3743062,35.6449188 C51.0254708,35.4960061 49.8456519,35.0948309 49.449046,34.991481 C49.0524402,34.8892425 47.8337383,34.6280896 47.614883,34.4736205 C47.3982496,34.3258191 46.9883124,34.3213739 47.1394004,34.4258351 C47.2849336,34.5336301 47.7626381,34.9725891 47.9470542,34.9770343 C48.1370251,34.9770343 48.8524709,35.0970535 49.1179857,35.1526179 C49.3901662,35.2159614 50.4266738,35.9127394 50.7666217,35.888291 C51.1087914,35.8560637 52.164185,36.3150259 52.2919432,36.1872277 C52.4230342,36.0549843 52.7540945,35.572685 52.746318,35.407103 C52.7363195,35.2304081 53.2940117,34.9303602 53.5173108,35.0726051 C53.7406099,35.2204065 54.337185,36.2027857 54.4960495,36.7562075 C54.6504703,37.3174083 55.0326339,38.9354447 55.0204135,39.1199186 C55.0004166,39.3043925 55.0892918,40.0356205 55.2603767,40.3267781 C55.4303506,40.6223809 56.1880122,41.7792325 56.7279293,42.2448625 C57.2656246,42.7216053 58.363234,44.4207658 58.3943403,44.9686311 C58.4221138,45.5153851 59.4575106,47.1311989 59.393076,47.2512181 C59.3319743,47.3723486 59.2964242,47.8268657 59.3975198,47.9902251 C59.4930607,48.1535845 59.9718761,48.871477 59.9763198,49.2004185 C59.9863183,49.5271374 60.2807176,50.807342 60.178511,51.280751 C60.0740826,51.7563825 58.9031512,52.7454295 58.4310014,52.4676073 C57.9555188,52.1886738 56.6157243,51.7108197 56.4657473,51.5574619 C56.3146594,51.404104 55.5803276,50.8362355 55.1748343,50.6373148 C54.7693409,50.4406167 53.4962029,49.9538722 53.2151349,49.6049276 C52.932956,49.2570942 52.2275087,48.159141 51.9297766,47.9191026 C51.6342663,47.6812868 50.5899821,47.212323 50.2467014,47.0056233 C49.9045317,46.7933672 48.7591519,46.1088133 48.5669591,45.7854283 C48.3725445,45.4575981 47.3682542,44.6574702 47.3027087,44.7786007 C47.2416069,44.8997312 46.9827577,45.2642339 46.7994525,45.3042403 C46.6172583,45.353137 45.9940205,45.6665204 45.7940512,45.4831578 L45.6329648,45.610956 L45.2819076,45.8943346 C45.4663237,46.2521696 45.4474377,46.723356 45.2319152,46.9422798 C45.0130599,47.1612037 44.3309424,47.8035286 43.9954383,47.8713172 C43.6599342,47.9391058 42.4823371,47.9824461 42.127947,47.8246431 C41.7691132,47.6635062 40.4881986,47.08897 40.0482661,46.646677 C39.6083336,46.2088293 38.3874098,44.814162 38.3129767,44.5307833 C38.2363218,44.2374031 37.6952937,42.9694227 37.7508408,42.3693268 L37.6253045,42.0048241 L37.4242242,41.442512 C36.9454088,40.819079 36.6165703,40.1500832 36.6843377,39.9511626 C36.7498832,39.7533532 36.6621189,39.1388105 36.7954318,39.0499074 C36.9287447,38.9610043 37.3986726,38.7276337 37.5230979,38.3798003 C37.6441905,38.0308557 38.5251664,36.9184557 38.6384824,36.6517464 C38.7540202,36.3839258 39.4339159,35.7382671 39.5572303,35.807167 C39.6827666,35.8705104 39.7294261,36.1394423 39.8538514,36.1427761 C39.973833,36.1427761 40.6826132,36.4005951 41.1081035,36.2405696 C41.5324828,36.0816553 42.6023187,35.8860685 42.5156653,35.707151 C42.4312338,35.5282335 42.876721,34.7781136 43.3166535,34.4069432 C43.757697,34.0335502 44.8219781,33.2178643 44.6864434,32.9856049 C44.5453539,32.7611246 44.4187067,32.0932401 44.3176111,31.9921128 C44.2176264,31.8932081 44.0520963,31.7587422 44.1742997,31.9254355 C44.3042798,32.0899062 43.9587772,32.3910655 43.888788,32.2799366 C43.8199096,32.1688077 43.1711203,32.6155458 42.8933851,33.1500756 L42.371243,33.2000836 L42.1357236,33.2223094 C41.9324214,33.1367402 41.678016,32.9856049 41.5746986,32.8855889 C41.4680482,32.7866842 41.0669987,32.2921608 41.0258939,32.3321672 C40.9859,32.3755074 41.0592221,32.658886 41.2880759,32.8600293 C41.5269281,33.0622838 42.0012998,33.5779218 42.1357236,33.4645703 C42.2645927,33.3456625 42.558992,33.7435038 42.427901,33.8624117 C42.3034756,33.9802083 41.9324214,33.8235166 41.9535293,33.7946231 C41.9746372,33.7646183 41.8024414,33.7823989 41.6913473,33.9146423 C41.5769204,34.0502195 41.1714271,34.0502195 41.0703315,33.9524261 C40.967014,33.847965 40.5437456,33.5112445 40.3548857,33.4234527 L40.1749133,33.3678882 C40.0504879,33.3367721 39.76942,33.1867482 39.6461055,33.1634111 L38.9895396,33.0267226 C38.2729829,33.0633951 38.0363525,33.108958 38.4551771,33.1256273 C38.8806674,33.1422966 39.8016372,33.4312317 39.6516602,33.4212301 C39.5105708,33.4090059 39.5938913,33.8046247 39.6705462,33.7679522 C39.7449793,33.7346135 39.9205079,34.1024501 39.8649609,34.2835901 C39.8083029,34.4680641 40.0971475,35.0492681 39.9449486,35.1226131 C39.7994154,35.1937356 39.45058,34.8414571 39.5594522,34.7381072 C39.6672134,34.6403138 39.376147,34.2969256 39.1406275,34.2324708 C38.8973315,34.1780177 38.2174358,34.4413931 38.0974542,34.3658255 C37.9863602,34.2902579 37.9774727,34.5247398 38.3163096,34.7203266 C38.6540355,34.9092457 38.196328,35.4382191 37.8530473,35.2159614 C37.5142104,34.9948149 37.0698341,34.4136109 37.0320621,34.6280896 C36.996512,34.8436796 36.4610386,35.3359805 36.5321388,35.6093576 C36.6065719,35.8771781 36.5876859,36.8151058 36.7798786,37.1262667 C36.9720713,37.4385388 37.2087017,38.2831182 37.072056,38.3253472 C36.9320775,38.37091 36.5576905,38.8932157 36.3877166,38.9121076 C36.2155207,38.9332221 35.6556066,39.30217 35.4756343,39.1788169 C35.2901072,39.0510187 34.675757,38.5520501 34.5013393,38.3364601 C34.3258107,38.1230926 34.0902912,37.3262986 34.2524886,37.04292 C34.4169078,36.7606527 35.1223551,36.2816872 35.1001363,36.1761148 C35.0756956,36.0616521 34.8579512,35.7793847 34.6702023,35.7893863 C34.488008,35.7949428 33.8625484,35.4626675 33.7470106,35.5937995 C33.6336946,35.7282655 33.2881921,35.6915929 33.2559748,35.5449028 C33.2293122,35.407103 33.3070781,34.8936876 33.2737498,34.702546 C33.2370888,34.5125156 33.6036992,34.0079905 33.608143,33.9602051 C33.6114758,33.9146423 33.3048562,33.9857648 33.0715586,34.2302483 C32.840483,34.4813995 32.3416706,35.0359326 32.3594457,34.9148021 C32.3761098,34.7914491 32.2994549,34.4180561 32.1183715,34.3624916 C31.941732,34.3080385 31.5440152,33.6890507 31.6495546,33.5612525 C31.7550939,33.4256752 31.4240336,33.0633951 31.3484897,33.108958 C31.2818332,33.1467418 30.779688,33.0567274 30.6263782,32.8255793 C30.4719575,32.59332 29.8142806,31.8376437 29.8498307,31.6865084 C29.882048,31.5320393 30.2686553,31.2397703 30.313093,31.3542331 C30.3575306,31.4642507 30.4519605,31.7487406 30.5597218,31.7420728 C30.6663721,31.7354051 31.154075,31.7642986 31.4007039,31.8287534 C31.6451108,31.8898742 32.3838864,32.5766507 32.4994242,32.5710942 C32.6038526,32.5633152 32.9493552,32.7200069 33.0260101,32.9344856 C33.102665,33.1445192 33.3804002,33.6245959 33.2393107,33.4256752 C33.0971103,33.2289771 33.514824,32.6633312 33.4315034,32.5310878 C33.3481829,32.4021783 33.2481982,31.9232129 33.3215203,31.7554083 C33.3881767,31.5909376 33.6470259,31.0897464 33.5592616,30.9975094 C33.477052,30.9052724 33.2315341,30.9286095 33.1682105,30.7863646 C33.1082197,30.6452309 32.8193751,30.2051606 32.6616215,30.3474055 C32.503868,30.4907618 31.8650771,30.2585024 31.6473327,30.0384673 C31.4262555,29.8184321 30.7008113,29.3150183 30.4852888,28.9849656 C30.27421,28.659358 30.5119513,27.8003318 30.4452949,27.7369883 C30.3786385,27.670311 30.2453256,27.4358291 30.3053164,27.3724856 C30.3608634,27.3091422 30.4797341,27.1257795 30.425298,26.8568477 C30.3664181,26.5890271 30.0075843,25.5821995 30.0342468,25.2399226 C30.0553547,24.898757 30.0253593,23.9141552 30.0453563,23.8230295 C30.0620204,23.7296812 30.2519912,23.5807686 30.2664334,23.3618447 C30.275321,23.1440321 30.4319636,22.4639234 30.5608327,22.3350139 C30.6897018,22.2049931 31.174072,21.8727178 31.3484897,21.8871646 C31.5195745,21.8993887 32.12837,21.9416177 32.3083424,21.8382679 C32.4905367,21.7393632 33.3215203,21.5760037 33.7292355,21.3504121 C34.1413945,21.1292657 34.8701716,21.5371086 34.8923904,21.2848461 C34.9168311,21.03814 34.4835642,20.3024669 34.5891036,20.2546814 C34.693532,20.2091186 35.0457002,20.0435366 35.1456849,20.1446639 C35.2490024,20.2457911 35.5422907,20.2735733 35.5711752,19.9779705 C35.6033924,19.6890355 35.9877779,18.7088788 36.1966348,18.4532824 C36.4066025,18.1921296 36.8776414,17.8154027 36.7332191,17.9098623 C36.5821312,18.0032105 36.2955085,17.4364533 36.4999216,17.3597743 C36.7054456,17.2808728 37.3253505,16.3918419 37.3109083,16.065123 C37.2931332,15.7361815 37.2364752,14.8238135 37.3920069,14.7838071 C37.5442058,14.7426894 37.914149,14.637117 37.8608239,14.4926495 C37.8074987,14.3481819 38.2474312,14.1070323 38.3685238,14.2348305 C38.4862835,14.36374 38.7484655,14.3759642 38.7062497,14.2437208 C38.6673668,14.1137 38.5629384,13.7136361 38.7740171,13.6525152 C38.9873177,13.5891717 39.4039205,13.3891398 39.2395013,13.4391478 C39.0784149,13.4891558 38.6395933,13.0924257 38.6873637,12.9701839 C38.7351342,12.8523873 38.8384517,12.4289863 38.7784609,12.3011881 C38.7151373,12.1700561 38.701806,11.7222067 38.7484655,11.5899634 C38.7984578,11.4521636 39.00176,10.892074 39.1717339,10.6575921 C39.3417078,10.4219989 39.5294568,9.78967564 39.638329,9.81079013 C39.7472011,9.83412719 39.9660565,9.59964527 39.8938453,9.43739712 C39.8205232,9.27737155 40.1893555,8.76840132 40.0538208,8.59837415 C39.918286,8.42945826 40.0182707,8.0216153 40.1738024,8.02828304 C40.3315559,8.03272819 40.9003576,7.7660189 41.1025488,7.58154498 C41.3080728,7.39373718 41.75356,6.8803218 41.9546403,6.88365566 C42.1568315,6.88698953 42.726744,7.16703429 42.7611832,7.30816795 C42.7889567,7.44596775 43.3577583,7.64044328 43.7588079,7.39040332 L43.9909945,7.24149063 C44.1154199,7.15814398 44.1820763,6.98700551 44.3076126,6.92699592 L44.5575743,6.80586545 C44.8497517,6.66473179 50.0833932,6.86587504 51.9531063,7.28705347" id="Fill-23" fill="#A4CE4C"></path>
                                <path d="M60.9014001,10.3555439 C61.1158117,10.4700066 61.3035607,10.583358 61.3191138,10.6133628 C61.3257795,10.6444789 61.2668996,10.6822627 61.1680259,10.6300322 C61.0702631,10.583358 60.8702938,10.8322867 60.9213971,11.0267622 C60.9713894,11.2156813 60.4392488,11.1767862 60.3203782,10.9800881 C60.1992856,10.78339 59.687142,10.1932957 59.7793501,10.1343974 C59.8715581,10.0743878 60.6847667,10.2421924 60.9014001,10.3555439" id="Fill-25" fill="#A4CE4C"></path>
                                <path d="M66.8813716,21.5525555 C66.8324902,21.6247893 66.7391712,21.5369975 66.6791804,21.3603026 C66.6169677,21.1836077 66.8602637,20.8246614 66.705843,20.6868616 C66.5569769,20.5490618 66.5336472,20.1701124 66.6702929,20.1234382 C66.8036057,20.072319 67.3313026,20.28013 67.4990546,20.1867817 C67.6579191,20.0945447 68.0300842,20.669081 67.8956604,20.8624452 C67.7579038,21.0513643 67.7234646,21.5570007 67.6279237,21.5181056 C67.5334938,21.4792105 66.9280311,21.4747653 66.8813716,21.5525555" id="Fill-27" fill="#A4CE4C"></path>
                                <path d="M70.4051643,25.124682 C70.6273524,25.1802464 70.7151168,25.2702608 70.6018008,25.3269365 C70.4918177,25.3769445 70.0841025,25.5258572 70.1140979,25.655878 C70.1463151,25.7814536 70.0696602,25.9003615 69.605287,25.613649 C69.1386919,25.3269365 68.949832,24.2023123 69.1553561,24.0667351 C69.363102,23.9422708 69.924127,24.3167751 69.8763566,24.4301265 C69.8263642,24.5457005 70.1807543,25.0680062 70.4051643,25.124682" id="Fill-29" fill="#A4CE4C"></path>
                                <path d="M68.4913468,24.8983124 C68.6424347,25.0838977 68.8901745,25.4261746 69.0468172,25.6584339 C69.2023488,25.8884707 69.2423427,26.4574505 69.2867803,26.4518941 C69.3345508,26.4418925 69.4067619,26.4730086 69.3534368,26.5630229 C69.2990007,26.651926 69.3001116,26.917524 69.0657031,26.9197466 C68.8357384,26.9275256 68.0714112,27.525399 67.8347809,27.4620555 C67.5970396,27.398712 67.0637881,26.6263664 67.2004338,26.105172 C67.3348576,25.5873114 66.7127308,24.0592895 66.9093673,23.972609 C67.1082257,23.8837059 67.6959133,23.9003752 67.7725682,24.0270621 C67.8525559,24.1570829 68.3435917,24.7127272 68.4913468,24.8983124" id="Fill-31" fill="#A4CE4C"></path>
                                <path d="M70.2542986,27.9511337 C70.3931662,27.9355756 70.1476483,28.1144931 69.7154923,28.3478637 C69.2811145,28.5867908 68.0990737,29.4180348 68.0157531,29.2891253 C67.9346544,29.1579932 68.0713001,28.6912519 68.4279121,28.5434505 C68.7911897,28.3923153 70.11432,27.9689143 70.2542986,27.9511337" id="Fill-33" fill="#A4CE4C"></path>
                                <path d="M63.3336937,19.3452028 C63.3747985,19.5530137 63.2881451,19.6508072 63.1381681,19.5685718 C62.990413,19.4796687 62.5849196,19.2107368 62.5571461,18.9873678 C62.522707,18.7606649 63.2936998,19.1407256 63.3336937,19.3452028" id="Fill-35" fill="#A4CE4C"></path>
                                <path d="M64.5249553,19.9002915 C64.7915811,19.7280417 65.0859804,19.763603 65.1748556,19.9703027 C65.2626199,20.1803362 65.3748249,20.7404257 65.1904088,20.7448709 C65.0037708,20.7515386 64.2549968,20.0658735 64.5249553,19.9002915" id="Fill-37" fill="#A4CE4C"></path>
                                <path d="M71.3272451,22.1272029 C71.6894117,22.5250443 71.2028197,23.1995965 70.7351137,23.2662738 C70.2862937,22.8562083 70.8839797,22.1983254 71.3272451,22.1272029" id="Fill-39" fill="#A4CE4C"></path>
                                <path d="M63.0918419,13.7469747 C62.9840806,14.0648033 62.8529896,14.3326239 62.7885551,14.3415142 C62.7252314,14.3481819 62.5452591,14.6348944 62.5163746,14.8349264 C62.4863792,15.0305132 62.621914,15.6083833 62.4674932,15.6372768 C62.3108506,15.6606139 61.946462,15.2772193 62.0342263,15.1927614 C62.1208797,15.1060808 62.2719677,14.9893955 62.170872,15.1305292 C62.0731093,15.2727741 61.7998179,14.8849344 61.8320351,14.6382283 C61.8686962,14.3904109 62.0086747,13.5613895 62.0164513,13.3324641 C62.0186732,13.101316 62.1286563,12.4412105 62.0886624,12.3912025 C62.0475576,12.3378607 61.9075791,12.0655949 61.7264958,11.873342 C61.5476343,11.6833116 60.9210638,11.1432253 60.9777218,11.0854383 C61.0354907,11.0276513 61.4865326,11.1132205 61.8498102,11.4021556 C62.2175316,11.6877568 63.1984922,13.4224784 63.0918419,13.7469747" id="Fill-41" fill="#A4CE4C"></path>
                                <path d="M58.409338,9.18080056 C58.8392721,9.35860675 59.2625405,9.54641455 59.6846979,9.74533522 C59.2836483,9.8464625 58.8559362,9.57419676 58.409338,9.18080056" id="Fill-43" fill="#A4CE4C"></path>
                                <path d="M64.0302535,28.0629293 C63.4903363,28.1340518 63.2114902,28.1707243 63.4103486,28.1473873 C63.6047632,28.1218276 63.4336783,27.7373217 63.5292192,27.7795507 C63.626982,27.8240022 64.1335709,27.6784234 64.4768516,27.8062216 L64.8079119,27.904015 L65.1167534,27.9873617 C65.6533378,27.9495779 66.3576742,28.0307019 66.6820688,28.1707243 C67.0109073,28.3063015 67.2442048,28.9686296 67.0020198,28.993078 C66.7565019,29.0130812 64.5679487,27.9984746 64.0302535,28.0629293" id="Fill-45" fill="#A4CE4C"></path>
                                <path d="M59.4410686,30.2453892 C59.3421949,29.9786799 59.415517,29.7708689 59.603266,29.7753141 C59.7921259,29.7830931 60.3431525,30.1198136 60.388701,30.2487231 C60.4364715,30.3787439 59.5388314,30.5076533 59.4410686,30.2453892" id="Fill-47" fill="#A4CE4C"></path>
                                <path d="M60.5770055,42.5970299 C60.7569779,42.8526263 60.8825142,43.1137791 60.8691829,43.1771226 C60.8536297,43.240466 60.996941,43.4771705 61.0802616,43.5605172 C61.1646931,43.6449751 61.4879768,44.0361487 61.615735,44.2406259 C61.7390494,44.4473256 62.0290049,45.307463 61.9545719,45.4441515 C61.8856936,45.5786175 61.3779937,45.7819833 61.1702478,45.6108448 C60.96028,45.4385951 60.1592918,44.9329587 60.1081885,44.7907138 C60.0515305,44.6462462 59.780461,44.2161775 59.6527028,44.1639469 C59.5260556,44.1150502 59.1238951,43.4860608 59.0727918,43.2304644 C59.0194666,42.9782019 59.1194513,42.1547369 58.9883603,41.9258115 C58.8561584,41.696886 58.769505,41.2434802 58.9550321,41.4146187 C59.1361154,41.5857571 60.4025878,42.3392109 60.5770055,42.5970299" id="Fill-49" fill="#A4CE4C"></path>
                                <path d="M51.5126183,69.2381764 C51.1948893,68.9514639 51.5137293,68.5080597 51.8292364,68.9236817 C51.7214752,69.032588 51.6214905,69.1337152 51.5126183,69.2381764" id="Fill-51" fill="#A4CE4C"></path>
                                <path d="M24.3011264,35.6352506 C24.3888907,35.9386324 24.4677675,36.3020238 24.477766,36.4409349 C24.4899863,36.5842911 24.4833207,36.9187891 24.345564,36.8654472 C24.1978089,36.8154392 23.7600983,37.0677017 23.6556699,37.1699403 C23.5534633,37.268845 22.9124506,37.1588274 22.4602977,36.69542 C21.9959245,36.2309013 20.6294675,35.8097229 20.6372441,35.6130248 C20.6472425,35.4118816 20.3295135,35.2029593 20.3472886,35.0184854 C20.3639527,34.8317889 20.208421,34.4339475 19.9706797,34.5428538 C19.7240508,34.6584278 19.1830227,34.2983703 19.3385544,34.1705721 C19.5007518,34.0405513 19.2552339,33.7616178 19.2641214,33.9038628 C19.2763418,34.0449964 18.7042073,34.1839075 18.5986679,34.0572206 C18.4953505,33.923866 18.0820805,33.5326923 17.90433,33.4749053 C17.7321342,33.4193409 17.0477948,33.0381689 16.8322723,33.2093073 C16.6111951,33.3771119 16.0279512,33.6627131 16.0612794,33.7782872 C16.087942,33.8860822 15.6324563,34.2294704 15.4191532,34.3261525 C15.209188,34.4239459 14.7614789,34.0594432 14.9347856,33.8560774 C15.1103142,33.650489 15.432487,33.1626332 15.2913976,33.2181976 C15.1547519,33.2737621 14.759257,33.6038148 14.5881721,33.6460438 C14.4093107,33.6871615 14.4237529,33.9383127 14.3137698,33.9038628 C14.1993429,33.8716354 13.9249405,34.0005449 13.9193858,33.7982903 C13.9082764,33.5938132 14.2982166,33.1448526 14.4104216,32.9059255 C14.515961,32.6669984 14.5215157,32.0969073 14.4070888,32.195812 C14.2893291,32.2913829 14.047144,31.5445968 14.1749022,31.0211799 C14.3059932,30.5033193 15.2614022,28.9675183 15.489145,28.7308138 C15.7202207,28.4963319 16.4645509,27.753991 16.3201286,27.6584202 C16.1745954,27.5584042 15.9468526,27.0972194 16.0635013,26.8894084 C16.1779282,26.6804862 16.8833755,25.9048066 17.2033265,25.6192054 C17.5199446,25.3324929 17.9365473,24.4701329 18.0420867,24.3945653 C18.1431823,24.3189976 18.5131255,24.1989785 18.6097774,24.0445093 C18.7075401,23.8867063 19.3241122,23.4433021 19.5385238,23.2288234 C19.7551572,23.015456 20.2361945,23.1521445 20.0851066,23.4077409 C19.9317968,23.6577809 20.2872978,24.2112026 20.3639527,24.0011691 C20.4461623,23.7855791 21.0060764,23.3399523 21.1305017,23.34662 C21.256038,23.3588442 21.6670861,23.0954688 21.780402,22.9487787 C21.8903852,22.8043111 22.1703422,23.215488 22.081467,23.3621781 C21.9937026,23.5110907 21.8303944,24.0256174 21.8670554,24.1667511 C21.9059383,24.3112186 21.6959705,24.6857229 21.8070646,24.724618 C21.9214915,24.7612905 22.230333,25.240256 22.2347768,25.3669429 C22.2314439,25.4880734 22.1170171,25.6847715 22.3225411,25.5625297 C22.5325089,25.4313976 23.0146571,25.8347954 22.8802333,25.9770404 C22.7424767,26.1203966 22.9091178,26.7604989 23.3968207,27.064992 C23.8823018,27.3672626 23.7745405,28.3063015 23.897855,28.3096354 C24.0267241,28.3163031 24.3055702,28.7130332 24.2133621,28.7308138 C24.1167103,28.7463719 24.0556085,28.8063815 24.2644654,28.7830444 C24.4722113,28.7597073 24.4099986,29.2997936 24.1811448,29.3875855 C23.953402,29.4798224 23.3612706,29.8065413 23.3690472,29.8987783 C23.3801566,29.9943491 23.4445912,30.1921585 23.7001075,30.1499295 C23.9589567,30.105478 24.1111556,29.8887767 24.1056009,30.1221473 C24.0933805,30.3555179 24.3577844,31.1389765 24.3255671,31.4156874 C24.2911279,31.6935095 23.9833974,32.5236422 23.9745099,32.6636646 C23.971177,32.8081321 23.9356269,33.2882088 23.8934112,33.4282312 C23.8556392,33.5715875 23.3890441,33.9094192 23.4612553,34.0383287 C23.5279117,34.1705721 24.2133621,35.3340913 24.3011264,35.6352506" id="Fill-53" fill="#A4CE4C"></path>
                                <path d="M25.8861055,20.5084998 C25.9905339,20.4318209 26.2116111,20.3695887 26.3771412,20.3751451 C26.5437823,20.3807016 26.7337532,20.0828762 27.0381509,19.997307 C27.3447706,19.912849 28.0202225,20.7207559 27.7835921,20.844109 C27.5447399,20.9641282 27.0014899,21.2130568 27.1381356,21.4464275 C27.2770032,21.6797981 27.5758462,22.3754648 27.4569756,22.4965953 C27.3447706,22.6210596 26.8903958,22.479926 26.7593048,22.5777194 C26.624881,22.6732902 26.2538268,22.5843871 26.2404955,22.3676858 C26.2282752,22.1476506 25.819449,21.7053577 25.8083396,21.9109461 C25.7950083,22.1087555 25.4295089,22.5699403 25.3628524,22.511042 C25.2939741,22.4499212 24.8984792,22.1965473 24.7507241,22.237665 C24.5907486,22.2832279 24.2485789,21.814264 24.3374542,21.4808774 C24.4285513,21.1430456 24.9895763,21.0874812 24.8362665,21.0163587 C24.6862895,20.951904 24.8207134,20.4318209 25.0395687,20.3306936 C25.2573131,20.2295663 25.7783442,20.5807335 25.8861055,20.5084998" id="Fill-55" fill="#A4CE4C"></path>
                                <path d="M25.3187481,19.7559351 C25.2376494,19.6803674 25.4753907,19.3336454 25.8542215,18.978033 C26.2297194,18.6268657 27.4039837,17.8789684 27.4039837,18.038994 C27.4117603,18.1945744 27.3395492,18.8380106 26.967384,19.1080537 C26.5985517,19.3780969 25.4009577,19.8270575 25.3187481,19.7559351" id="Fill-57" fill="#A4CE4C"></path>
                                <path d="M31.3649316,34.0382176 C31.4871351,34.1426787 31.4949116,34.351601 31.3927051,34.501625 C31.2893876,34.6472038 31.0083196,34.9505856 30.8605645,34.8416793 C30.7094766,34.7272166 30.4117445,34.343822 30.533948,34.293814 C30.6583733,34.2460286 30.4172992,33.7392809 30.4883994,33.6692697 C30.5583887,33.597036 31.2460609,33.9293113 31.3649316,34.0382176" id="Fill-59" fill="#A4CE4C"></path>
                                <path d="M27.7006049,31.000621 C27.5750686,31.1795385 27.3306616,31.250661 27.1484674,31.1562014 C26.9696059,31.0672983 26.5241187,31.3840156 26.4863467,31.2439932 C26.4496857,31.1061934 26.237496,30.79281 26.2341632,30.8839357 C26.237496,30.9739501 25.9830906,31.0650758 26.0419704,30.8994937 C26.1008503,30.7305779 25.7342399,30.2505011 25.8919935,30.269393 C26.050858,30.2827285 26.5574469,30.0438014 26.687427,29.9337839 C26.818518,29.8182098 27.30511,29.3036832 27.491748,29.3659153 C27.6861626,29.422591 28.1449811,30.1160352 28.0527731,30.2371657 C27.959454,30.3527397 27.8216974,30.8217035 27.7006049,31.000621" id="Fill-61" fill="#A4CE4C"></path>
                                <path d="M33.7680074,16.7763478 C33.7568979,16.5552013 33.8468841,16.065123 33.9646439,15.6850623 C34.0790707,15.3072241 34.6823115,14.2881723 34.6689802,14.2403869 C34.655649,14.1937128 34.6478724,14.0047937 34.7189726,13.9381164 C34.7900728,13.8636601 35.0755845,13.8936649 35.1900114,14.1659306 C35.3044383,14.437085 34.8500636,15.4039062 34.8678386,15.757296 C34.8867246,16.1195761 34.6334301,17.1386279 34.9244966,17.2708712 C35.2177849,17.4075598 35.9521167,17.8876365 35.9187885,17.9632041 C35.8787946,18.0387717 35.7332614,18.2910343 35.4888545,18.3332633 C35.2400037,18.3843825 34.5578862,18.3577116 34.5212251,18.2032425 C34.4801203,18.0387717 33.7791168,16.9952716 33.7680074,16.7763478" id="Fill-63" fill="#A4CE4C"></path>
                                <path d="M31.725654,14.3476263 C31.2246198,13.9031108 31.7500947,12.9740734 32.3411152,13.5508323 C32.0056111,13.8086513 32.2733478,14.3698521 31.725654,14.3476263" id="Fill-65" fill="#A4CE4C"></path>
                                <path d="M37.0107321,9.27137059 C36.9129693,9.15801914 37.0718338,8.78240356 37.368455,8.4434605 C37.6639652,8.10229487 38.2983123,8.20786729 38.1238946,8.47124272 C37.9450332,8.73239556 37.1140496,9.38694462 37.0107321,9.27137059" id="Fill-67" fill="#A4CE4C"></path>
                                <path d="M17.1380031,41.4309546 C17.233544,41.4642933 17.0613482,41.5420835 16.7547286,41.5998705 C16.4514418,41.6576575 16.822496,42.5144611 16.6614096,42.648927 C16.4992123,42.7845043 16.03595,42.4544515 16.0381719,42.2988711 C16.0370609,42.1399568 16.0581688,41.7087768 16.1659301,41.6854397 C16.2770241,41.6698817 17.0424623,41.3953934 17.1380031,41.4309546" id="Fill-69" fill="#A4CE4C"></path>
                                <path d="M31.4869129,53.3072971 C31.5735662,53.218394 31.6879931,53.2817374 31.745762,53.4406517 C31.803531,53.6017886 31.4869129,53.9351752 31.4169236,53.8707204 C31.3480453,53.8029318 31.3991486,53.3928663 31.4869129,53.3072971" id="Fill-71" fill="#A4CE4C"></path>
                                <path d="M29.392012,54.7365255 C29.2675867,54.9265558 28.9709655,55.0576879 28.7343352,55.0287944 C28.4999267,55.0043461 27.8633577,55.3732939 27.8189201,55.5455437 C27.7722605,55.7155708 27.3401046,56.035622 27.2978889,55.9267157 C27.2512294,55.8122529 27.2501184,55.3343988 27.4678628,55.1199201 C27.6844962,54.8987736 28.382167,54.3264599 28.5365877,54.3153471 C28.6910085,54.3097906 29.1698239,54.207552 29.262032,54.1786585 C29.3531291,54.1508763 29.8141695,54.2142198 30.0463561,53.9475105 C30.2818755,53.6808012 31.0606449,54.0664184 30.8884491,54.1942166 C30.721808,54.3220148 30.7195861,54.7054094 30.5796076,54.7176336 C30.4374072,54.72319 29.9841434,55.0187928 29.8541634,54.9587832 C29.7141848,54.8976623 29.5131046,54.5487177 29.392012,54.7365255" id="Fill-73" fill="#A4CE4C"></path>
                                <path d="M29.592759,55.4918684 C29.7471798,55.486312 29.8093925,55.5418764 29.7227391,55.6196666 C29.6449732,55.694123 29.3572396,56.0619595 29.292805,55.9963935 C29.2250377,55.9319387 29.4361164,55.5063152 29.592759,55.4918684" id="Fill-75" fill="#A4CE4C"></path>
                                <path d="M27.9360132,54.2813416 C27.8804662,54.3380173 27.7782596,54.3269045 27.7060485,54.2624497 C27.639392,54.1902159 27.5627371,53.9779598 27.6860515,53.9290631 C27.809366,53.8812777 27.9948931,54.2235546 27.9360132,54.2813416" id="Fill-77" fill="#A4CE4C"></path>
                                <path d="M28.2914031,53.7078055 C28.1414261,53.5733396 28.0536618,53.4277608 28.0947666,53.3844205 C28.1358714,53.3433028 28.3347298,53.2588449 28.4302707,53.29774 C28.5269225,53.3377464 28.4402692,53.8478279 28.2914031,53.7078055" id="Fill-79" fill="#A4CE4C"></path>
                                <path d="M29.3084693,53.7635922 C29.2729192,53.843605 29.1662689,53.8324921 29.0785046,53.7469229 C28.9985169,53.6624649 28.8740915,53.4035347 28.9974059,53.354638 C29.1184985,53.3035187 29.5239918,53.4190927 29.5928701,53.3290783 C29.6617484,53.2412865 29.8183911,53.4257604 29.7561784,53.6324601 C29.6906329,53.8324921 29.3551288,53.6924697 29.3084693,53.7635922" id="Fill-81" fill="#A4CE4C"></path>
                                <path d="M74.075379,22.8434285 C74.2975671,23.2290457 74.3975518,23.4624163 74.3031218,23.3657342 C74.2020262,23.2657182 73.6432231,23.0445717 73.2732798,23.0868007 C72.9044475,23.1323636 71.8801602,23.3235052 71.8323898,23.4835308 C71.7835084,23.6457789 71.5590984,23.4968663 71.5935375,23.3890712 C71.6279767,23.2868327 71.4813325,23.0012315 71.5935375,23.0267911 C71.7090754,23.0579072 71.996809,22.6834029 72.0234716,22.5744966 C72.0556889,22.4678129 72.0945718,22.0944199 72.1967783,21.9955152 C72.296763,21.8921654 72.6622625,21.5932287 72.783355,21.55989 C72.9033366,21.5243288 73.8554128,22.464479 74.075379,22.8434285" id="Fill-83" fill="#A4CE4C"></path>
                                <path d="M13.2600425,36.5641768 C13.213383,36.5641768 13.1911642,36.7319814 13.2744848,36.7319814 C13.3222552,36.7475395 13.3466959,36.5775123 13.2600425,36.5641768" id="Fill-85" fill="#D0EAF9"></path>
                                <path d="M23.6777776,41.7511169 C23.6288962,41.7377814 23.6044555,41.9144763 23.6877761,41.9255892 C23.7399903,41.9255892 23.764431,41.7511169 23.6777776,41.7511169" id="Fill-87" fill="#D0EAF9"></path>
                            </g>
                        </g>
                        <g id="unicorn-1" transform="translate(183.785267, 193.902724) rotate(19.000000) translate(-183.785267, -193.902724) translate(44.285267, 36.902724)">
                            <g id="parents-dad" transform="translate(139.222476, 152.770908) rotate(-28.000000) translate(-139.222476, -152.770908) translate(47.222476, 29.270908)">
                                <path d="M57.1786446,198.263457 C57.1786446,198.263457 47.4696917,196.919829 45.9189231,185.278219 L57.0311788,186.488909 L57.1786446,198.263457 Z" id="Shape" fill="#1F77B9" fill-rule="nonzero"></path>
                                <path d="M57.6210417,177.149982 C57.6210417,177.149982 44.3824254,192.608825 29.4931445,193.259274 C14.6038635,193.909723 19.0278351,213.878977 36.5191726,207.839773 C54.01051,201.80057 63.8811995,186.341727 63.8811995,186.341727" id="Shape" fill="#FAC8CA" fill-rule="nonzero"></path>
                                <path d="M55.4375977,178.166012 C48.2260481,186.674073 47.8264636,184.523319 45.5478803,185.496618 C45.5478803,185.496618 58.0444111,187.808797 56.8076018,198.481856 C56.8076018,198.481856 60.1374729,196.521014 65.1750923,187.296035 C66.0218309,185.743504 65.8125248,183.825392 65.1750923,182.177905 C64.8110857,181.252448 64.353646,180.366373 63.8098451,179.533379 C61.9451173,176.736924 57.6067709,175.606947 55.4375977,178.166012 Z" id="Shape" fill="#00AFEC" fill-rule="nonzero"></path>
                                <path d="M34.6116321,208.428501 C18.7138759,212.440393 15.1081011,193.904975 29.4788736,193.283013 L29.9545695,193.254526 C33.0846483,196.112703 36.4430612,201.088399 34.6116321,208.428501 Z" id="Shape" fill="#5F2B70" fill-rule="nonzero"></path>
                                <path d="M95.3770236,215.004206 C95.3770236,215.004206 101.56107,189.959552 117.986849,189.147678 C129.722266,188.563698 137.518921,195.984512 136.372494,206.410685 C135.254609,216.604216 138.917467,218.256451 146.024364,218.28019 C146.024364,218.28019 140.553861,227.41496 129.094347,225.492101 C117.35893,223.526511 119.261714,214.358505 111.184398,214.624382 C105.951743,214.795303 102.241315,218.835683 100.243392,221.679616 C99.6199863,222.574219 98.5398679,223.035486 97.4610639,222.867815 C96.3822598,222.700145 95.4938142,221.932919 95.1724744,220.891481 C94.7633759,219.495627 94.6920215,217.601254 95.3770236,215.004206 Z" id="Shape" fill="#B77EB4" fill-rule="nonzero"></path>
                                <path d="M122.477418,217.833896 C120.807725,206.913952 110.423284,210.987566 107.083899,208.950759 C104.334377,207.274785 102.32694,195.975017 117.520667,189.180912 C101.442146,190.43908 95.3770236,215.004206 95.3770236,215.004206 C94.6920215,217.601254 94.7633759,219.495627 95.1819883,220.877237 C95.5033282,221.918675 96.3917737,222.685902 97.4705778,222.853572 C98.5493818,223.021243 99.6295002,222.559976 100.252906,221.665372 C102.241315,218.816691 105.961257,214.78106 111.193912,214.610139 C118.738448,214.358505 117.57775,222.344308 126.958473,224.998329 C124.523058,223.344179 122.89683,220.744122 122.477418,217.833896 L122.477418,217.833896 Z" id="Shape" fill="#D1D3D4" fill-rule="nonzero" style="mix-blend-mode: multiply;"></path>
                                <path d="M63.8716856,175.193888 C63.8716856,175.193888 56.7362474,181.36603 53.7679051,197.062263 C50.9755703,211.90864 53.9296417,231.721217 61.1507052,243.362827 C61.9684037,244.674121 63.2765871,245.605518 64.7850217,245.950379 C67.4882529,246.597819 70.2738492,246.834707 73.0478591,246.653054 C76.1450806,246.406065 78.4990379,243.770021 78.3899238,240.670823 C78.2614859,237.556265 78.485063,233.629833 80.1547555,231.73546 C80.1547555,231.73546 82.747298,236.383558 90.4297865,241.102873 C92.1488996,242.166016 94.2309773,242.47515 96.1857066,241.957478 C98.6260264,241.302281 101.960655,239.949157 104.434273,237.176441 C106.263916,235.128261 106.812693,232.239949 105.861361,229.665419 C103.264061,222.681402 97.8411282,204.183966 103.84441,183.725688 C103.84441,183.725688 105.723409,173.911981 90.6486066,168.651417 C75.5738042,163.390853 63.8716856,175.193888 63.8716856,175.193888 Z" id="Shape" fill="#FAC8CA" fill-rule="nonzero"></path>
                                <path d="M52.7261312,219.880199 C52.7261312,219.880199 53.5157863,230.823882 57.7970492,239.180013 C57.7970492,239.180013 69.9225372,245.081531 79.517323,240.020374 L79.517323,232.704012 L85.5586607,239.161022 C85.5586607,239.161022 99.3538411,240.651832 106.156292,229.019717 L101.71805,212.321698 L52.7261312,219.880199 Z" id="Shape" fill="#DAE2D7" fill-rule="nonzero"></path>
                                <path d="M103.820625,183.739931 C103.820625,183.739931 105.366637,175.668668 94.3780623,170.227687 C88.9694001,190.842643 74.0325495,198.814202 64.1571031,193.491916 C59.8520554,191.179737 60.0613616,184.547058 61.8357072,177.463337 C59.4905265,180.487687 47.089135,198.377404 49.8814698,218.897404 C72.1678217,227.073119 93.9261512,219.291472 102.807393,212.81547 C101.394576,204.155479 100.37183,195.571454 103.820625,183.739931 Z" id="Shape" fill="#00AFEC" fill-rule="nonzero"></path>
                                <path d="M83.8509125,66.8870324 C155.742831,101.68842 96.1809496,155.561727 123.424053,182.780875 C123.424053,182.780875 93.7358728,198.719246 95.3199401,152.029363 C96.4235545,119.487929 57.1405889,69.9256255 83.8509125,66.8870324 Z" id="Shape" fill="#A975A8" fill-rule="nonzero"></path>
                                <path d="M58.6818435,34.0892172 C58.6818435,34.0892172 73.2048387,21.0517534 92.5513901,24.2897542 C111.897941,27.5277551 114.671248,36.083294 114.671248,36.083294 L58.6818435,34.0892172 Z" id="Shape" fill="#A975A8" fill-rule="nonzero"></path>
                                <path d="M85.2256736,32.1521141 C85.2256736,32.1521141 112.216658,19.7081254 135.173741,44.7195456 C158.130824,69.7309657 152.774488,88.4278093 183.395032,92.9714557 C183.395032,92.9714557 158.420998,126.761561 127.196321,99.7133343 C107.079142,82.3078927 85.2256736,32.1521141 85.2256736,32.1521141 Z" id="Shape" fill="#A975A8" fill-rule="nonzero"></path>
                                <path d="M97.2036958,42.169976 C97.2036958,42.169976 121.193039,34.7871441 139.136287,63.5730667 C157.079536,92.3589892 146.352594,112.370974 175.622161,122.44581 C175.622161,122.44581 151.737471,148.55872 126.016595,116.273667 C109.467136,95.4782951 97.2036958,42.169976 97.2036958,42.169976 Z" id="Shape" fill="#A975A8" fill-rule="nonzero"></path>
                                <path d="M99.943704,37.3604527 C176.116885,61.431808 128.295178,130.260691 158.929993,154.156378 C158.929993,154.156378 126.401909,174.296553 122.111132,124.919414 C119.114248,90.4836075 73.6472359,45.2133169 99.943704,37.3604527 Z" id="Shape" fill="#A975A8" fill-rule="nonzero"></path>
                                <path d="M101.446903,44.4631643 C173.32455,79.2930386 111.436516,137.994861 138.284792,166.054369 C138.284792,166.054369 107.749873,183.76367 110.694431,134.286827 C112.701867,99.7987947 74.2846684,48.4275788 101.446903,44.4631643 Z" id="Shape" fill="#A975A8" fill-rule="nonzero"></path>
                                <path d="M32.1284996,75.8841169 C32.1284996,75.8841169 13.157748,52.9284949 9.57575803,33.5812024 C9.06204404,30.7538685 9.92862874,27.8514059 11.9091599,25.7659114 C13.889691,23.6804169 16.7472075,22.66141 19.6034271,23.0220911 C29.1173447,24.2897542 50.9232438,34.9533172 64.5947433,51.442433" id="Shape" fill="#FAC8CA" fill-rule="nonzero"></path>
                                <path d="M36.7570205,71.0271156 C42.4653711,61.0567317 51.1610917,60.0169631 51.1610917,60.0169631 C51.1610917,60.0169631 29.1316156,37.0945758 21.0114869,34.7586573 C6.97845853,30.7135301 30.6205437,67.7416367 36.7570205,71.0271156 Z" id="Shape" fill="#FFFFFF" fill-rule="nonzero"></path>
                                <path d="M154.249145,93.6788782 C151.870666,76.9856069 140.687056,65.1920671 128.604381,56.6982496 C104.286807,39.606163 64.3854371,31.5918735 35.7009757,57.2205078 C19.8745738,71.3642095 9.9372869,95.9625708 7.69675931,115.92233 C4.77598662,141.949779 21.0162439,156.753426 38.3458447,168.14815 C39.8775855,169.154684 41.4235971,170.146975 42.9600948,171.144013 C42.7219017,171.601872 42.8324244,172.163271 43.2264845,172.497137 C58.2109046,183.777914 83.5702519,185.235489 103.059512,177.843161 C118.92397,171.870427 132.804775,158.510112 142.451888,143.336138 C152.099,128.162163 156.575298,110.054047 154.249145,93.6788782 Z" id="Shape" fill="#FAC8CA" fill-rule="nonzero"></path>
                                <path d="M143.488905,68.0739828 C158.535165,117.835694 116.635872,131.566337 107.811714,123.20071 C100.381344,116.164468 84.9783117,108.392316 66.587909,102.761423 C48.3402152,97.1827559 34.0978806,96.1145005 34.0978806,96.1145005 C34.0978806,96.1145005 20.0172826,93.6646348 11.9780222,106.232066 C12.0351057,103.635019 10.8363521,105.633843 10.3130866,109.251668 C9.3133262,111.39742 8.53396202,113.638749 7.9869338,115.941321 C2.75427914,137.425124 19.3560653,159.682819 47.9453876,171.276951 C48.7255288,171.827696 49.5024987,172.383189 50.2762974,172.94343 C50.436425,173.06305 50.5397541,173.243528 50.5617149,173.441949 C66.9732227,182.57672 92.8510785,182.937553 111.403218,172.492389 C126.157441,164.045463 138.151918,151.523401 145.943495,136.432834 C159.453258,110.049299 156.794118,85.5553892 143.488905,68.0739828 Z" id="Shape" fill="#F6BABC" fill-rule="nonzero"></path>
                                <ellipse id="Oval" fill="#FFFFFF" fill-rule="nonzero" cx="29.4693597" cy="93.4794705" rx="19.0611338" ry="19.024442"></ellipse>
                                <ellipse id="Oval" fill="#5F2B70" fill-rule="nonzero" cx="29.2315117" cy="94.2391188" rx="14.6799748" ry="14.6517165"></ellipse>
                                <ellipse id="Oval" fill="#793683" fill-rule="nonzero" cx="29.2315117" cy="94.2391188" rx="8.21051086" ry="8.19470598"></ellipse>
                                <ellipse id="Oval" fill="#FFFFFF" fill-rule="nonzero" cx="25.159555" cy="88.0669764" rx="5.03761935" ry="5.02792215"></ellipse>
                                <ellipse id="Oval" fill="#FFFFFF" fill-rule="nonzero" cx="32.5280842" cy="100.548947" rx="2.17868712" ry="2.17449324"></ellipse>
                                <ellipse id="Oval" fill="#FFFFFF" fill-rule="nonzero" cx="93.4266705" cy="103.449854" rx="19.0611338" ry="19.024442"></ellipse>
                                <ellipse id="Oval" fill="#5F2B70" fill-rule="nonzero" cx="92.5085775" cy="103.843922" rx="14.6799748" ry="14.6517165"></ellipse>
                                <ellipse id="Oval" fill="#793683" fill-rule="nonzero" cx="92.5085775" cy="103.843922" rx="8.21051086" ry="8.19470598"></ellipse>
                                <ellipse id="Oval" fill="#FFFFFF" fill-rule="nonzero" cx="88.4366207" cy="97.6717795" rx="5.03761935" ry="5.02792215"></ellipse>
                                <ellipse id="Oval" fill="#FFFFFF" fill-rule="nonzero" cx="95.8051499" cy="110.153751" rx="2.17868712" ry="2.17449324"></ellipse>
                                <path d="M63.0297039,180.160089 C27.4952218,175.227123 2.4117781,154.82107 3.47733687,131.25773 C4.54289564,107.694389 25.7494179,107.946023 25.7494179,107.946023 C25.7494179,107.946023 40.2581422,106.730585 59.6855618,109.280155 C75.9924166,111.421414 90.48687,115.333602 100.000788,119.844014 C90.8769406,114.573954 74.9363717,110.02556 56.664893,107.841571 C37.3373695,105.534139 22.8334022,107.053436 22.8334022,107.053436 C22.8334022,107.053436 1.68872037,107.167383 0.209306186,131.670789 C-1.270108,156.174194 23.3804524,176.931583 58.7198992,181.427752 C69.4420843,182.795119 77.904714,182.23013 84.6786233,180.506678 C78.7371818,181.337544 71.6160145,181.36603 63.0297039,180.160089 Z" id="Shape" fill="#FAC8CA" fill-rule="nonzero"></path>
                                <path d="M114.038573,62.414603 C114.038573,62.414603 137.105066,40.299342 157.550475,34.9153348 C160.539983,34.1238893 163.728437,34.8080626 166.127893,36.7558634 C168.527349,38.7036642 169.848029,41.6798598 169.68072,44.7622758 C169.090857,55.0460146 159.429474,79.1648479 142.860986,95.0889753" id="Shape" fill="#FAC8CA" fill-rule="nonzero"></path>
                                <path d="M119.613729,66.944006 C130.792582,72.214066 132.585955,81.4295494 132.585955,81.4295494 C132.585955,81.4295494 155.367031,56.0572964 157.217488,47.1978981 C160.414164,31.9052284 122.643911,60.1499015 119.613729,66.944006 Z" id="Shape" fill="#FFFFFF" fill-rule="nonzero"></path>
                                <path d="M22.8334022,107.053436 C22.8334022,107.053436 1.68872037,107.167383 0.209306186,131.670789 C-1.270108,156.174194 23.3756955,176.931583 58.7198992,181.427752 C94.064103,185.92392 105.000351,169.558247 111.046446,159.33623 C119.394908,145.221015 115.208785,129.738433 101.741834,120.921765 C93.0080581,115.200664 76.1589101,110.172742 56.6506221,107.841571 C37.3373695,105.534139 22.8334022,107.053436 22.8334022,107.053436 Z" id="Shape" fill="#FAC8CA" fill-rule="nonzero"></path>
                                <path d="M17.7006436,126.144347 C17.7006436,126.144347 19.0849186,120.37102 22.5384707,119.497425 C25.9920228,118.623829 24.469796,122.6832 22.9523261,122.987059 C21.4348563,123.290918 19.1420021,124.007836 17.7006436,126.144347 Z" id="Shape" fill="#000000" fill-rule="nonzero"></path>
                                <path d="M75.5690472,130.996601 C75.5690472,130.996601 75.5214776,125.061848 72.3485861,123.4381 C69.1756946,121.814352 69.7465297,126.106365 71.1593464,126.761561 C72.5721632,127.416758 74.6461972,128.589465 75.5690472,130.996601 Z" id="Shape" fill="#000000" fill-rule="nonzero"></path>
                                <path d="M127.053612,46.0869125 C127.053612,46.0869125 113.691315,20.4155479 72.0679256,20.0832018 C30.4445362,19.7508557 31.2532192,63.2217293 11.7592021,62.8419052 C11.7592021,62.8419052 32.0428744,86.0776474 53.0020348,69.7357135 C73.9611952,53.3937795 105.528374,76.9761113 127.053612,46.0869125 Z" id="Shape" fill="#B77EB4" fill-rule="nonzero"></path>
                                <g id="Group" opacity="0.28" style="mix-blend-mode: multiply;" transform="translate(11.416701, 28.486811)" fill="#B77EB4" fill-rule="nonzero">
                                    <path d="M79.7884697,24.2422762 C52.7594299,17.4814064 52.1981087,36.1355198 31.4577684,31.8957328 C17.1250516,28.9615912 26.429663,11.0623783 33.5365594,0.289615912 C17.7862689,12.866543 14.1567093,34.620971 0.342501032,34.3550941 C0.342501032,34.3550941 20.6261733,57.5908364 41.5853337,41.2489024 C62.5444941,24.9069685 94.1116726,48.4893002 115.636911,17.6001014 C114.552438,15.6974083 113.27739,13.9094137 111.831344,12.2635722 C107.507268,19.095659 97.9933509,28.7954182 79.7884697,24.2422762 Z" id="Shape"></path>
                                </g>
                                <path d="M56.3271489,58.6733352 C56.3271489,58.6733352 60.5227866,1.57152241 70.1794129,0.384571949 C78.5611743,-0.645701051 83.8556694,46.2435899 85.1115065,58.6923264 C85.3664679,61.1372462 84.4135302,63.5530841 82.5570197,65.1683281 C80.4687148,66.9772406 77.0817601,68.8288833 71.9490016,68.9285872 C61.8404642,69.1137514 55.6564178,66.4692258 56.3271489,58.6733352 Z" id="Shape" fill="#FBB35A" fill-rule="nonzero"></path>
                                <path d="M56.2415237,55.9433491 C56.2415237,55.9433491 74.208557,63.1457645 83.7224746,46.3955196" id="Shape"></path>
                                <path d="M81.0300359,28.3776116 C81.0300359,28.3776116 75.5405055,44.4916511 57.9254871,42.5308089" id="Shape"></path>
                                <path d="M59.8330276,28.7242011 C59.8330276,28.7242011 71.7254245,31.7343075 78.5373895,16.2232389" id="Shape"></path>
                                <path d="M62.7014737,14.3715962 C62.7014737,14.3715962 72.3152874,20.5437386 76.0685279,7.83862084" id="Shape"></path>
                                <path d="M70.8073315,1.12048123 C70.8073315,1.12048123 73.4379297,13.5644699 65.0989809,14.0867281 C65.0989809,14.0867281 71.7111537,18.616131 75.7212699,8.86414604 C75.7402977,8.86414604 73.866056,-0.90208235 70.8073315,1.12048123 Z" id="Shape" fill="#CD944A" fill-rule="nonzero"></path>
                                <path d="M75.8925204,11.0956129 C75.8925204,11.0956129 75.359741,26.1129101 60.5275436,28.847644 C60.5275436,28.847644 72.6244897,29.7212395 78.1853746,17.3627113 L75.8925204,11.0956129 Z" id="Shape" fill="#CD944A" fill-rule="nonzero"></path>
                                <path d="M78.4327364,19.5656914 C78.4327364,19.5656914 74.6842529,41.4388145 59.7378884,42.1224979 C59.7378884,42.1224979 71.6065006,45.0423961 80.3497908,30.5663483 L78.4327364,19.5656914 Z" id="Shape" fill="#CD944A" fill-rule="nonzero"></path>
                                <path d="M80.673264,32.346774 C80.673264,32.346774 78.8656197,58.5736313 58.5486487,56.6507716 C58.5486487,56.6507716 75.8544648,61.3463476 83.3609457,47.5207486 L80.673264,32.346774 Z" id="Shape" fill="#CD944A" fill-rule="nonzero"></path>
                                <path d="M85.0258813,60.8240894 C85.0258813,60.8240894 82.7996246,72.5274209 61.0841077,67.4187862 C61.0841077,67.4187862 79.750414,68.596241 83.2562926,49.4103738 L85.0258813,60.8240894 Z" id="Shape" fill="#CD944A" fill-rule="nonzero"></path>
                                <path d="M70.40299,2.41663114 C70.40299,2.41663114 67.1492302,2.5733086 65.3748846,13.2653583 C65.3748846,13.2653583 66.5546103,14.2908835 67.0017645,10.0178619 C67.4489186,5.74484023 69.137639,3.69378983 70.1128155,3.37093931 C71.0879921,3.04808878 70.40299,2.41663114 70.40299,2.41663114 Z" id="Shape" fill="#FFFFFF" fill-rule="nonzero"></path>
                                <path d="M64.166617,17.1538081 C64.166617,17.1538081 62.2257778,25.5146871 62.8156407,26.810837 C63.4055036,28.1069869 64.9229735,17.3864503 64.9229735,17.3864503 C64.9229735,17.3864503 64.3806802,16.2042477 64.166617,17.1538081 Z" id="Shape" fill="#FFFFFF" fill-rule="nonzero"></path>
                                <path d="M61.6929985,31.2215449 C61.6929985,31.2215449 60.0328198,39.6726322 61.0603229,41.1017206 C62.087826,42.5308089 62.7918559,31.5681345 62.7918559,31.5681345 C62.7918559,31.5681345 61.8690059,30.2624889 61.6929985,31.2215449 Z" id="Shape" fill="#FFFFFF" fill-rule="nonzero"></path>
                                <path d="M60.6321966,45.0518917 C60.6321966,45.0518917 59.3145191,54.8418591 61.3647683,54.6946772 C62.7918559,54.5949734 62.3875144,48.0477546 62.2543196,45.7213317 C62.2164643,45.1679838 61.7997061,44.7145722 61.2506013,44.6293373 C60.941399,44.5676159 60.6702523,44.6293373 60.6321966,45.0518917 Z" id="Shape" fill="#FFFFFF" fill-rule="nonzero"></path>
                                <path d="M61.0983786,59.2145846 C60.7978883,59.1501569 60.4844102,59.2273705 60.248453,59.423932 C60.0124959,59.6204935 59.8803286,59.9145199 59.8901111,60.2211186 C59.8425415,61.9873009 59.8901111,65.3962226 61.5027201,65.4105045 C63.1153291,65.4247094 62.0783121,61.4840339 61.7262972,59.9125115 C61.6642093,59.5910072 61.433297,59.3278746 61.1221634,59.2240802 L61.0983786,59.2145846 Z" id="Shape" fill="#FFFFFF" fill-rule="nonzero"></path>
                                <path d="M32.9752383,146.498174 L61.6121302,149.123708 C61.6121302,149.123708 58.0681959,165.570094 45.5383664,164.421126 C33.008537,163.272158 32.9752383,146.498174 32.9752383,146.498174 Z" id="Shape" fill="#4E1E5D" fill-rule="nonzero"></path>
                                <path d="M37.0091393,158.733259 C38.7549432,161.477488 41.4616528,163.732694 45.6668043,164.122014 C52.6500198,164.762967 56.66965,159.592611 58.7864966,155.272111 C47.7503523,153.800293 40.9098455,156.250159 37.0091393,158.733259 Z" id="Shape" fill="#BD2232" fill-rule="nonzero"></path>
                                <path d="M39.007062,147.310048 C39.1687986,148.88157 40.6672406,150.215703 42.5985659,150.391371 L51.4893219,151.207993 C53.4206471,151.38841 55.1379093,150.343893 55.5850634,148.834092 L39.007062,147.310048 Z" id="Shape" fill="#FFFFFF" fill-rule="nonzero"></path>
                                <path d="M47.897818,127.036934 C47.897818,127.036934 63.595782,117.493852 68.6381583,136.057757 C71.7682372,147.561681 84.5596993,142.908835 84.5596993,142.908835 C84.5596993,142.908835 73.8803269,158.927919 55.3614863,150.980099 C36.8426458,143.032278 42.4653711,129.410835 47.897818,127.036934 Z" id="Shape" fill="#9B6B9A" fill-rule="nonzero"></path>
                                <path d="M42.9743656,124.435138 C42.9743656,124.435138 27.4952218,116.705717 24.2176772,134.509974 C22.1816988,145.562857 9.81360597,142.168178 9.81360597,142.168178 C9.81360597,142.168178 21.0923552,156.373601 37.8463641,147.45723 C54.6003729,138.540858 48.2593469,126.234555 42.9743656,124.435138 Z" id="Shape" fill="#9B6B9A" fill-rule="nonzero"></path>
                                <path d="M44.7962809,137.9094 C44.7962809,137.9094 43.8877017,141.873815 44.7962809,143.075009 C45.70486,144.276202 47.9453876,148.088687 56.0417314,151.226984 C56.0417314,151.226984 45.7476726,146.137341 44.7962809,137.9094 Z" id="Shape" fill="#9B6B9A" fill-rule="nonzero" style="mix-blend-mode: multiply;"></path>
                                <path d="M85.2209166,76.2212108 C91.1433303,74.5072543 109.657414,70.5808222 118.671851,85.2040519 C119.281869,86.1947194 119.355068,87.4242379 118.866886,88.4800351 L118.681365,88.8883461 C118.216324,89.8849454 117.303999,90.6013005 116.224068,90.8178082 C115.144136,91.0343159 114.025418,90.7251504 113.210862,89.9850883 C108.572827,85.7832837 99.2444311,79.473455 86.2246349,81.030734 C85.5410722,81.1161517 84.8527854,80.9131909 84.3254875,80.4707168 C83.7981897,80.0282427 83.4796537,79.3863433 83.446571,78.6995633 L83.446571,78.6995633 C83.3925787,77.5633033 84.1263767,76.5383562 85.2209166,76.2212108 Z" id="Shape" fill="#9B6B9A" fill-rule="nonzero"></path>
                                <path d="M102.807393,212.839209 C102.807393,212.839209 100.652491,202.621939 101.62291,194.398746 C101.62291,194.398746 95.9431017,192.722772 93.9784777,189.983291 C93.9784777,189.983291 97.3083489,213.632092 90.0159311,219.134794 C90.0159311,219.134794 98.5308873,216.732406 102.807393,212.839209 Z" id="Shape" fill="#0097CA" fill-rule="nonzero"></path>
                                <path d="M57.1786446,181.218849 C57.1786446,181.218849 46.0283332,204.535303 49.4723713,224.162716 L52.7308881,227.196562 C52.7308881,227.196562 52.0316152,190.026021 60.8748015,181.218849 L57.1786446,181.218849 Z" id="Shape" fill="#0082B0" fill-rule="nonzero"></path>
                                <path d="M95.2628566,180.117359 C95.2628566,180.117359 93.478997,179.167798 90.0302019,179.585605 C90.0302019,179.585605 79.6457609,201.150121 85.2351875,224.998329 C85.2351875,224.998329 99.1255071,223.67844 102.835935,212.839209 C102.835935,212.839209 101.884543,203.922837 101.508743,199.483642 C101.480202,199.483642 90.2014524,196.839117 95.2628566,180.117359 Z" id="Shape" fill="#0082B0" fill-rule="nonzero"></path>
                                <path d="M109.533733,197.712712 C109.533733,197.712712 103.083297,202.308584 93.022329,196.217155 L100.933151,188.335803 L109.533733,197.712712 Z" id="Shape" fill="#1F77B9" fill-rule="nonzero"></path>
                                <path d="M94.401847,181.446743 C94.401847,181.446743 98.1693584,201.434989 89.330929,213.432684 C80.4924996,225.430379 98.8448466,234.493933 105.119275,217.11223 C111.393704,199.730528 105.490318,182.353573 105.490318,182.353573" id="Shape" fill="#FAC8CA" fill-rule="nonzero"></path>
                                <path d="M93.826255,183.782662 C96.0715396,190.685965 93.7453867,193.615359 93.0651416,196.008251 C93.0651416,196.008251 101.979682,190.054508 109.533733,197.712712 C109.533733,197.712712 109.633629,186.569621 107.060114,181.935767 C106.186537,180.395073 104.752233,179.249159 103.054755,178.735748 C102.106385,178.436047 101.128963,178.23712 100.138739,178.142273 C96.7898404,177.828918 92.789238,180.592139 93.826255,183.782662 Z" id="Shape" fill="#00AFEC" fill-rule="nonzero"></path>
                                <path d="M104.372433,218.935386 C97.5319259,233.814997 80.8207297,224.979338 89.330929,213.432684 C89.4260682,213.304493 89.5164504,213.171555 89.6068326,213.043364 C93.8214981,212.411907 99.8057522,212.924669 104.372433,218.935386 Z" id="Shape" fill="#5F2B70" fill-rule="nonzero"></path>
                            </g>
                            <g id="Group-10" transform="translate(88.316223, 255.121552) rotate(-38.000000) translate(-88.316223, -255.121552) translate(60.316223, 203.121552)">
                                <path d="M4.4553094,0 L50.6302733,0 C53.0908727,-4.82290742e-15 55.0855827,1.99470996 55.0855827,4.4553094 L55.0855827,99.3949429 C55.0855827,101.855542 53.0908727,103.850252 50.6302733,103.850252 L4.4553094,103.850252 C1.99470996,103.850252 2.96587178e-15,101.855542 0,99.3949429 L0,4.4553094 C-3.01336522e-16,1.99470996 1.99470996,4.52004783e-16 4.4553094,0 Z" id="Rectangle-2" fill="#2E3B50"></path>
                                <g id="Group-3" transform="translate(2.003112, 11.090804)">
                                    <mask id="mask-4" fill="white">
                                        <use xlink:href="#path-3"></use>
                                    </mask>
                                    <use id="Rectangle-6" fill="#FFFFFF" xlink:href="#path-3"></use>
                                    <path d="M25.7528507,11.5183037 C16.9573522,11.5183037 8.34985379,10.6674807 0,9.03945061 L0,0 L51.0793585,0 L51.0793585,9.12185906 C42.8629479,10.6961813 34.3987284,11.5183037 25.7528507,11.5183037 Z" id="bg" fill="#1F9AFF" mask="url(#mask-4)"></path>
                                    <g id="Group-13" mask="url(#mask-4)">
                                        <g transform="translate(3.004668, 16.132078)">
                                            <g id="Rectangle-7" fill="none">
                                                <use fill="black" fill-opacity="1" filter="url(#filter-6)" xlink:href="#path-5"></use>
                                                <use fill="#FFFFFF" fill-rule="evenodd" xlink:href="#path-5"></use>
                                            </g>
                                            <g id="Rectangle-7-Copy" fill="none">
                                                <use fill="black" fill-opacity="1" filter="url(#filter-8)" xlink:href="#path-7"></use>
                                                <use fill="#FFFFFF" fill-rule="evenodd" xlink:href="#path-7"></use>
                                            </g>
                                            <ellipse id="Oval-6-Copy" fill="#D8D8D8" fill-rule="evenodd" cx="5.00778025" cy="6.04952926" rx="3.00466815" ry="3.02476463"></ellipse>
                                            <rect id="Rectangle-13" fill="#2E3B50" fill-rule="evenodd" opacity="0.200000018" x="3.00466815" y="23.1898622" width="38.0591299" height="2.01650975"></rect>
                                            <rect id="Rectangle-13-Copy" fill="#2E3B50" fill-rule="evenodd" opacity="0.200000018" x="3.00466815" y="18.1485878" width="38.0591299" height="2.01650975"></rect>
                                            <rect id="Rectangle-13-Copy-2" fill="#2E3B50" fill-rule="evenodd" opacity="0.200000018" x="3.00466815" y="13.1073134" width="38.0591299" height="2.01650975"></rect>
                                            <rect id="Rectangle-15" fill="#2E3B50" fill-rule="evenodd" opacity="0.200000018" x="10.0155605" y="5.04127438" width="19.0295649" height="2.01650975"></rect>
                                        </g>
                                    </g>
                                </g>
                            </g>
                        </g>
                    </g>
                </g>
            </g>
        </g>
    </g>
</svg>