<?xml version="1.0" encoding="UTF-8"?>
<svg width="26px" height="26px" viewBox="0 0 26 26" version="1.1" xmlns="http://www.w3.org/2000/svg" xmlns:xlink="http://www.w3.org/1999/xlink">
    <!-- Generator: Sketch 53.2 (72643) - https://sketchapp.com -->
    <title>Icon</title>
    <desc>Created with Sketch.</desc>
    <defs>
        <path d="M8.77924413,4.02859536 C10.1784649,2.6293571 12.4471971,2.6293571 13.8464178,4.02859536 C15.2456385,5.42783362 15.2456385,7.69659424 13.8464178,9.0958325 L12.7340588,10.2082054 C12.5034968,10.4387703 12.1267829,10.4374203 11.8936001,10.2042346 C11.6587917,9.96942324 11.6586396,9.59475808 11.8896294,9.36376542 L13.0019884,8.25139251 C13.9330106,7.3197614 13.9330106,5.80466646 13.0019884,4.87303535 C12.0679802,3.93961265 10.5570846,3.93961265 9.62367354,4.87303535 L8.51131457,5.98540826 C8.28075256,6.21597316 7.90403863,6.21462315 7.67085588,5.98143749 C7.43604743,5.74662609 7.43589539,5.37196094 7.66688516,5.14096827 L8.77924413,4.02859536 Z M8.25132646,13.0015168 L9.36368543,11.8891438 C9.59424744,11.6585789 9.97109506,11.6600626 10.2044427,11.8934132 C10.4394172,12.1283907 10.4397018,12.5031884 10.208712,12.734181 L9.09635306,13.8465539 C8.3964441,14.5458745 7.47975446,14.8958333 6.56246763,14.8958333 C5.64518081,14.8958333 4.72849117,14.5458745 4.02858221,13.8465539 C2.62936148,12.4467185 2.62936148,10.1779579 4.02858221,8.7787196 L5.14094118,7.66634669 C5.3715032,7.43578179 5.74835082,7.43726549 5.98169847,7.67061607 C6.21667298,7.90559352 6.21695756,8.28039122 5.98596779,8.51138388 L4.87360881,9.62375679 C3.94198938,10.5547907 3.94198938,12.0704828 4.87360881,13.0015168 C5.32448873,13.4529995 5.92466664,13.7014345 6.56246763,13.7014345 C7.20026863,13.7014345 7.80044654,13.4529995 8.25132646,13.0015168 Z M9.86475086,7.16587218 C10.0973779,6.93324221 10.4733657,6.93206696 10.7081741,7.16687835 C10.9413569,7.40006401 10.9395089,7.77998061 10.7091803,8.01031217 L8.00129126,10.7182351 C7.7686642,10.9508651 7.39267645,10.9520403 7.157868,10.7172289 C6.92468526,10.4840433 6.92653318,10.1041267 7.15686185,9.87379512 L9.86475086,7.16587218 Z" id="path-1"></path>
    </defs>
    <g id="LINK-TO-A-KLASSROOM-CLASS-✅-" stroke="none" stroke-width="1" fill="none" fill-rule="evenodd">
        <g id="3.A.LINK-CLASS---STEP-3" transform="translate(-885.000000, -590.000000)">
            <g id="Right-Panel" transform="translate(503.000000, 142.000000)">
                <g id="Content" transform="translate(150.000000, 150.000000)">
                    <g id="Link" transform="translate(232.000000, 278.000000)">
                        <g id="Icon" transform="translate(0.000000, 20.000000)">
                            <circle id="Oval" fill="#1F9AFF" fill-rule="nonzero" cx="13" cy="13" r="13"></circle>
                            <g id="Icons-/-Link" transform="translate(4.062500, 4.062500)">
                                <mask id="mask-2" fill="white">
                                    <use xlink:href="#path-1"></use>
                                </mask>
                                <use id="Shape" fill="#FFFFFF" fill-rule="evenodd" xlink:href="#path-1"></use>
                                <g id="Colors-/-Text-/-#FFFFFF" mask="url(#mask-2)" fill="#FFFFFF" fill-rule="nonzero">
                                    <rect id="Color" x="0" y="0" width="17.875" height="17.875"></rect>
                                </g>
                            </g>
                        </g>
                    </g>
                </g>
            </g>
        </g>
    </g>
</svg>