<?xml version="1.0" encoding="UTF-8"?>
<svg width="60px" height="60px" viewBox="0 0 60 60" version="1.1" xmlns="http://www.w3.org/2000/svg" xmlns:xlink="http://www.w3.org/1999/xlink">
    <!-- Generator: Sketch 53.2 (72643) - https://sketchapp.com -->
    <title>Icon</title>
    <desc>Created with Sketch.</desc>
    <g id="LINK-TO-A-KLASSROOM-CLASS-✅-" stroke="none" stroke-width="1" fill="none" fill-rule="evenodd">
        <g id="1.LINK-CLASS---CLASS-KEY-CHOICE" transform="translate(-683.000000, -442.000000)" fill="#1F9AFF" fill-rule="nonzero">
            <g id="Right-Panel" transform="translate(503.000000, 142.000000)">
                <g id="Content" transform="translate(150.000000, 177.000000)">
                    <g id="With-Class-Key" transform="translate(0.000000, 83.000000)">
                        <g id="Icon" transform="translate(30.000000, 40.000000)">
                            <circle id="Oval" opacity="0.1" cx="30" cy="30" r="30"></circle>
                            <path d="M21.5357867,30.7128725 L39.1840117,30.907163 C40.0068854,30.9162221 40.6691917,31.5858599 40.6691917,32.4087836 C40.6691917,33.2200946 40.0114942,33.8777922 39.2001831,33.8777922 C39.1947925,33.8777922 39.1894019,33.8777625 39.1840117,33.8777032 L20.1543718,33.6682045 C19.331498,33.6591454 18.6691917,32.9895076 18.6691917,32.166584 C18.6691917,32.1193258 18.6714233,32.0725889 18.6757867,32.0264727 L18.6757867,22.3092448 C18.6757867,21.5194776 19.3160195,20.8792448 20.1057867,20.8792448 C20.8955539,20.8792448 21.5357867,21.5194776 21.5357867,22.3092448 L21.5357867,30.7128725 Z" id="Combined-Shape" transform="translate(29.669192, 27.378518) rotate(-45.000000) translate(-29.669192, -27.378518) "></path>
                        </g>
                    </g>
                </g>
            </g>
        </g>
    </g>
</svg>