<?xml version="1.0" encoding="UTF-8"?>
<svg width="162px" height="235px" viewBox="0 0 162 235" version="1.1" xmlns="http://www.w3.org/2000/svg" xmlns:xlink="http://www.w3.org/1999/xlink">
    <!-- Generator: Sketch 53.2 (72643) - https://sketchapp.com -->
    <title>unicorn 1</title>
    <desc>Created with Sketch.</desc>
    <defs>
        <polygon id="path-1" points="0 0 56.7548428 0 56.7548428 90.7429389 0 90.7429389"></polygon>
        <rect id="path-3" x="0" y="0" width="50.0778025" height="34.7287791" rx="1.98013751"></rect>
        <filter x="-20.0%" y="-23.0%" width="139.9%" height="157.6%" filterUnits="objectBoundingBox" id="filter-4">
            <feOffset dx="0" dy="2" in="SourceAlpha" result="shadowOffsetOuter1"></feOffset>
            <feGaussianBlur stdDeviation="3" in="shadowOffsetOuter1" result="shadowBlurOuter1"></feGaussianBlur>
            <feColorMatrix values="0 0 0 0 0   0 0 0 0 0   0 0 0 0 0  0 0 0 0.13 0" type="matrix" in="shadowBlurOuter1"></feColorMatrix>
        </filter>
        <rect id="path-5" x="0" y="38.0896287" width="50.0778025" height="40.3301951" rx="1.98013751"></rect>
        <filter x="-20.0%" y="-19.8%" width="139.9%" height="149.6%" filterUnits="objectBoundingBox" id="filter-6">
            <feOffset dx="0" dy="2" in="SourceAlpha" result="shadowOffsetOuter1"></feOffset>
            <feGaussianBlur stdDeviation="3" in="shadowOffsetOuter1" result="shadowBlurOuter1"></feGaussianBlur>
            <feColorMatrix values="0 0 0 0 0   0 0 0 0 0   0 0 0 0 0  0 0 0 0.13 0" type="matrix" in="shadowBlurOuter1"></feColorMatrix>
        </filter>
    </defs>
    <g id="LINK-TO-A-KLASSROOM-CLASS-✅-" stroke="none" stroke-width="1" fill="none" fill-rule="evenodd">
        <g id="1.LINK-CLASS---CLASS-KEY-CHOICE" transform="translate(-1131.000000, -739.000000)">
            <g id="Right-Panel" transform="translate(503.000000, 142.000000)">
                <g id="Illustrations" transform="translate(-213.000000, 490.000000)">
                    <g id="unicorn-1" transform="translate(977.187765, 243.027117) rotate(19.000000) translate(-977.187765, -243.027117) translate(822.187765, 68.527117)">
                        <g id="parents-dad" transform="translate(154.625839, 170.095044) rotate(-28.000000) translate(-154.625839, -170.095044) translate(52.625839, 32.595044)">
                            <path d="M63.5318273,220.29273 C63.5318273,220.29273 52.7441019,218.79981 51.0210257,205.864688 L63.3679765,207.209898 L63.5318273,220.29273 Z" id="Shape" fill="#1F77B9" fill-rule="nonzero"></path>
                            <path d="M64.0233797,196.833314 C64.0233797,196.833314 49.3138061,214.009806 32.7701605,214.732527 C16.226515,215.455248 21.142039,237.643308 40.5768584,230.933082 C60.0116778,224.222855 70.9791106,207.046363 70.9791106,207.046363" id="Shape" fill="#FAC8CA" fill-rule="nonzero"></path>
                            <path d="M61.5973307,197.962235 C53.5844979,207.415637 53.1405151,205.02591 50.6087559,206.107353 C50.6087559,206.107353 64.4937901,208.676442 63.1195575,220.535396 C63.1195575,220.535396 66.8194144,218.356682 72.4167692,208.106705 C73.3575899,206.381671 73.1250275,204.250435 72.4167692,202.419894 C72.0123175,201.391609 71.5040511,200.407081 70.8998279,199.481532 C68.8279081,196.37436 64.0075232,195.11883 61.5973307,197.962235 Z" id="Shape" fill="#00AFEC" fill-rule="nonzero"></path>
                            <path d="M38.457369,231.587223 C20.7931954,236.044882 16.786779,215.449972 32.754304,214.758903 L33.282855,214.727251 C36.7607204,217.903003 40.4922903,223.431555 38.457369,231.587223 Z" id="Shape" fill="#5F2B70" fill-rule="nonzero"></path>
                            <path d="M105.974471,238.893563 C105.974471,238.893563 112.845633,211.066169 131.096499,210.164086 C144.135851,209.51522 152.798802,217.760569 151.524994,229.345206 C150.282899,240.671351 154.352741,242.507167 162.249293,242.533544 C162.249293,242.533544 156.170957,252.683289 143.438164,250.546779 C130.398811,248.36279 132.513015,238.176117 123.53822,238.471536 C117.724159,238.661448 113.601461,243.150758 111.381547,246.310684 C110.688874,247.304688 109.488742,247.817207 108.290071,247.630906 C107.0914,247.444605 106.104238,246.592132 105.747194,245.434979 C105.29264,243.88403 105.213357,241.779171 105.974471,238.893563 Z" id="Shape" fill="#B77EB4" fill-rule="nonzero"></path>
                            <path d="M136.08602,242.037663 C134.230806,229.904391 122.692538,234.430629 118.98211,232.16751 C115.927086,230.305317 113.6966,217.750019 130.578519,210.201014 C112.713496,211.598977 105.974471,238.893563 105.974471,238.893563 C105.213357,241.779171 105.29264,243.88403 105.757765,245.419153 C106.114809,246.576306 107.101971,247.428779 108.300642,247.61508 C109.499313,247.801381 110.699445,247.288862 111.392118,246.294858 C113.601461,243.129657 117.73473,238.645622 123.548791,238.45571 C131.931609,238.176117 130.641945,247.049231 141.06497,249.998144 C138.358954,248.160199 136.552034,245.271247 136.08602,242.037663 L136.08602,242.037663 Z" id="Shape" fill="#D1D3D4" fill-rule="nonzero" style="mix-blend-mode: multiply;"></path>
                            <path d="M70.9685395,194.659876 C70.9685395,194.659876 63.0402749,201.517812 59.7421168,218.95807 C56.6395226,235.454044 59.9218241,257.468019 67.945228,270.403141 C68.8537819,271.860135 70.307319,272.89502 71.9833574,273.278199 C74.9869477,273.997576 78.0820547,274.260785 81.1642879,274.058948 C84.6056451,273.784516 87.2211532,270.855579 87.0999153,267.412026 C86.9572066,263.951406 87.2056255,259.588703 89.0608394,257.483845 C89.0608394,257.483845 91.9414423,262.648398 100.477541,267.892081 C102.387666,269.073351 104.701086,269.416833 106.873007,268.841642 C109.584474,268.113645 113.289616,266.610175 116.038081,263.529379 C118.071018,261.253624 118.68077,258.044387 117.623734,255.183798 C114.737846,247.42378 108.712365,226.871073 115.382678,204.139653 C115.382678,204.139653 117.470454,193.235535 100.720674,187.390463 C83.9708935,181.545392 70.9685395,194.659876 70.9685395,194.659876 Z" id="Shape" fill="#FAC8CA" fill-rule="nonzero"></path>
                            <path d="M58.5845902,244.311332 C58.5845902,244.311332 59.4619848,256.47098 64.2189436,265.75557 C64.2189436,265.75557 77.6917079,272.312812 88.3525811,266.689305 L88.3525811,258.560013 L95.0651785,265.734469 C95.0651785,265.734469 110.393157,267.390924 117.951436,254.466353 L113.020055,235.912998 L58.5845902,244.311332 Z" id="Shape" fill="#DAE2D7" fill-rule="nonzero"></path>
                            <path d="M115.35625,204.155479 C115.35625,204.155479 117.074041,195.187409 104.864514,189.141875 C98.854889,212.047381 82.2583884,220.904669 71.2856701,214.991018 C66.5022838,212.42193 66.7348462,205.052286 68.7063414,197.181486 C66.100585,200.541875 52.3212611,220.419338 55.4238553,243.219338 C80.1864686,252.303465 104.36239,243.657191 114.230437,236.461633 C112.660641,226.839421 111.524256,217.301615 115.35625,204.155479 Z" id="Shape" fill="#00AFEC" fill-rule="nonzero"></path>
                            <path d="M93.1676805,74.3189248 C173.04759,112.987133 106.867722,172.846364 137.137836,203.089861 C137.137836,203.089861 104.15097,220.799162 105.911045,168.921514 C107.137283,132.764366 63.4895432,77.6951395 93.1676805,74.3189248 Z" id="Shape" fill="#A975A8" fill-rule="nonzero"></path>
                            <path d="M65.2020484,37.876908 C65.2020484,37.876908 81.3387097,23.3908371 102.834878,26.9886158 C124.331046,30.5863945 127.412498,40.0925489 127.412498,40.0925489 L65.2020484,37.876908 Z" id="Shape" fill="#A975A8" fill-rule="nonzero"></path>
                            <path d="M94.6951928,35.7245712 C94.6951928,35.7245712 124.685175,21.8979172 150.193045,49.688384 C175.700915,77.4788507 169.749431,98.2531215 203.772258,103.301617 C203.772258,103.301617 176.023331,140.846179 141.329245,110.792594 C118.976825,91.4532142 94.6951928,35.7245712 94.6951928,35.7245712 Z" id="Shape" fill="#A975A8" fill-rule="nonzero"></path>
                            <path d="M108.004106,46.8555289 C108.004106,46.8555289 134.658932,38.6523823 154.595875,70.6367407 C174.532818,102.621099 162.613993,124.856638 195.135735,136.050899 C195.135735,136.050899 168.59719,165.065244 140.018439,129.192963 C121.630151,106.086995 108.004106,46.8555289 108.004106,46.8555289 Z" id="Shape" fill="#A975A8" fill-rule="nonzero"></path>
                            <path d="M111.04856,41.5116141 C195.685428,68.2575645 142.550198,144.734102 176.588881,171.284864 C176.588881,171.284864 140.446565,193.662837 135.679036,138.799349 C132.349164,100.537342 81.8302621,50.2370188 111.04856,41.5116141 Z" id="Shape" fill="#A975A8" fill-rule="nonzero"></path>
                            <path d="M112.718781,49.4035158 C192.582834,88.1033762 123.818352,153.327623 153.649769,184.504855 C153.649769,184.504855 119.722082,204.181856 122.993812,149.207586 C125.224297,110.88755 82.5385204,53.8084209 112.718781,49.4035158 Z" id="Shape" fill="#A975A8" fill-rule="nonzero"></path>
                            <path d="M35.6983329,84.3156854 C35.6983329,84.3156854 14.61972,58.8094388 10.6397311,37.3124471 C10.0689378,34.170965 11.0318097,30.9460065 13.2323999,28.6287905 C15.43299,26.3115744 18.6080084,25.1793444 21.7815857,25.5801013 C32.3526052,26.9886158 56.581382,38.8370191 71.771937,57.1582589" id="Shape" fill="#FAC8CA" fill-rule="nonzero"></path>
                            <path d="M40.8411339,78.9190173 C47.1837456,67.840813 56.8456575,66.6855145 56.8456575,66.6855145 C56.8456575,66.6855145 32.3684618,41.2161953 23.3460966,38.6207303 C7.75384282,34.1261446 34.0228263,75.2684852 40.8411339,78.9190173 Z" id="Shape" fill="#FFFFFF" fill-rule="nonzero"></path>
                            <path d="M171.387939,104.087642 C168.745185,85.5395632 156.318951,72.4356301 142.893756,62.9980551 C115.87423,44.0068477 71.5393746,35.1020816 39.6677507,63.578342 C22.0828598,79.2935661 11.0414299,106.625079 8.55195479,128.802589 C5.3066518,157.721977 23.3513821,174.170473 42.6064942,186.831278 C44.3084283,187.949649 46.026219,189.052194 47.7334386,190.160014 C47.4687796,190.668747 47.5915826,191.292523 48.0294272,191.663485 C64.6787829,204.197682 92.8558354,205.81721 114.510569,197.603513 C132.137744,190.967141 147.560861,176.122347 158.279875,159.262375 C168.998889,142.402403 173.972554,122.282274 171.387939,104.087642 Z" id="Shape" fill="#FAC8CA" fill-rule="nonzero"></path>
                            <path d="M159.432116,75.6377587 C176.150184,130.928549 129.595414,146.184819 119.790793,136.889678 C111.534827,129.071631 94.4203463,120.435907 73.9865656,114.179359 C53.7113502,107.98084 37.886534,106.793889 37.886534,106.793889 C37.886534,106.793889 22.2414251,104.071816 13.3089136,118.035629 C13.3723397,115.150021 12.0403912,117.370937 11.4589852,121.390742 C10.3481402,123.774911 9.48218002,126.265277 8.87437089,128.82369 C3.06031015,152.694583 21.5067392,177.425355 53.2726529,190.307724 C54.1394765,190.919663 55.0027764,191.536877 55.8625526,192.159367 C56.0404722,192.292278 56.1552823,192.492809 56.1796832,192.713277 C74.4146919,202.863022 103.167865,203.263948 123.781353,191.65821 C140.174934,182.272737 153.502131,168.359334 162.159439,151.592038 C177.170287,122.276999 174.215687,95.0615436 159.432116,75.6377587 Z" id="Shape" fill="#F6BABC" fill-rule="nonzero"></path>
                            <ellipse id="Oval" fill="#FFFFFF" fill-rule="nonzero" cx="32.743733" cy="103.866078" rx="21.1790376" ry="21.1382689"></ellipse>
                            <ellipse id="Oval" fill="#5F2B70" fill-rule="nonzero" cx="32.4794575" cy="104.710132" rx="16.3110831" ry="16.279685"></ellipse>
                            <ellipse id="Oval" fill="#793683" fill-rule="nonzero" cx="32.4794575" cy="104.710132" rx="9.12278984" ry="9.10522887"></ellipse>
                            <ellipse id="Oval" fill="#FFFFFF" fill-rule="nonzero" cx="27.9550611" cy="97.852196" rx="5.59735483" ry="5.58658017"></ellipse>
                            <ellipse id="Oval" fill="#FFFFFF" fill-rule="nonzero" cx="36.1423157" cy="111.721053" rx="2.42076347" ry="2.4161036"></ellipse>
                            <ellipse id="Oval" fill="#FFFFFF" fill-rule="nonzero" cx="103.807412" cy="114.944283" rx="21.1790376" ry="21.1382689"></ellipse>
                            <ellipse id="Oval" fill="#5F2B70" fill-rule="nonzero" cx="102.787308" cy="115.382135" rx="16.3110831" ry="16.279685"></ellipse>
                            <ellipse id="Oval" fill="#793683" fill-rule="nonzero" cx="102.787308" cy="115.382135" rx="9.12278984" ry="9.10522887"></ellipse>
                            <ellipse id="Oval" fill="#FFFFFF" fill-rule="nonzero" cx="98.2629119" cy="108.524199" rx="5.59735483" ry="5.58658017"></ellipse>
                            <ellipse id="Oval" fill="#FFFFFF" fill-rule="nonzero" cx="106.450167" cy="122.393056" rx="2.42076347" ry="2.4161036"></ellipse>
                            <path d="M70.0330043,200.177876 C30.5502464,194.696803 2.67975345,172.023411 3.86370763,145.841922 C5.04766182,119.660432 28.6104643,119.940025 28.6104643,119.940025 C28.6104643,119.940025 44.7312691,118.589539 66.3172909,121.422394 C84.4360184,123.801571 100.540967,128.148447 111.111986,133.160016 C100.974378,127.304393 83.2626352,122.250622 62.9609922,119.823968 C41.4859661,117.260155 25.3704468,118.948262 25.3704468,118.948262 C25.3704468,118.948262 1.87635596,119.07487 0.232562429,146.300876 C-1.41123111,173.526882 25.9782805,196.590648 65.2443325,201.586391 C77.1578715,203.105687 86.5607933,202.477923 94.0873592,200.562976 C87.4857575,201.48616 79.5733494,201.517812 70.0330043,200.177876 Z" id="Shape" fill="#FAC8CA" fill-rule="nonzero"></path>
                            <path d="M126.709525,69.3495589 C126.709525,69.3495589 152.338962,44.7770467 175.056083,38.7948164 C178.377759,37.9154326 181.920485,38.6756251 184.586548,40.8398482 C187.25261,43.0040714 188.720032,46.3109554 188.534133,49.735862 C187.87873,61.1622384 177.14386,87.9609421 158.734429,105.654417" id="Shape" fill="#FAC8CA" fill-rule="nonzero"></path>
                            <path d="M132.904143,74.3822289 C145.325091,80.2378511 147.317728,90.4772771 147.317728,90.4772771 C147.317728,90.4772771 172.630034,62.2858848 174.686098,52.442109 C178.23796,35.4502538 136.271013,66.8332239 132.904143,74.3822289 Z" id="Shape" fill="#FFFFFF" fill-rule="nonzero"></path>
                            <path d="M25.3704468,118.948262 C25.3704468,118.948262 1.87635596,119.07487 0.232562429,146.300876 C-1.41123111,173.526882 25.972995,196.590648 65.2443325,201.586391 C104.51567,206.582134 116.667057,188.398052 123.38494,177.040255 C132.661009,161.356683 128.009761,144.153815 113.046483,134.357517 C103.342287,128.000738 84.6210112,122.414158 62.9451357,119.823968 C41.4859661,117.260155 25.3704468,118.948262 25.3704468,118.948262 Z" id="Shape" fill="#FAC8CA" fill-rule="nonzero"></path>
                            <path d="M19.6673818,140.160386 C19.6673818,140.160386 21.2054652,133.745578 25.0427452,132.774916 C28.8800253,131.804254 27.1886622,136.314666 25.5025846,136.652288 C23.816507,136.989909 21.2688913,137.786485 19.6673818,140.160386 Z" id="Shape" fill="#000000" fill-rule="nonzero"></path>
                            <path d="M83.965608,145.551778 C83.965608,145.551778 83.9127529,138.957609 80.3873179,137.153445 C76.8618829,135.34928 77.4961441,140.118183 79.0659405,140.846179 C80.6357369,141.574176 82.9402191,142.877183 83.965608,145.551778 Z" id="Shape" fill="#000000" fill-rule="nonzero"></path>
                            <path d="M141.17068,51.2076805 C141.17068,51.2076805 126.323683,22.6839421 80.0754728,22.3146687 C33.8272625,21.9453952 34.7257991,70.2463659 13.0657801,69.8243391 C13.0657801,69.8243391 35.6031937,95.6418305 58.8911497,77.4841261 C82.1791057,59.3264217 117.253748,85.5290125 141.17068,51.2076805 Z" id="Shape" fill="#B77EB4" fill-rule="nonzero"></path>
                            <g id="Group" opacity="0.28" style="mix-blend-mode: multiply;" transform="translate(12.685223, 31.652012)" fill="#B77EB4" fill-rule="nonzero">
                                <path d="M88.6538552,26.9358625 C58.6215887,19.4237849 57.9978986,40.1505776 34.953076,35.4397031 C19.0278351,32.1795458 29.3662922,12.2915314 37.2628438,0.321795458 C19.762521,14.2961589 15.729677,38.4677456 0.380556703,38.1723268 C0.380556703,38.1723268 22.9179703,63.9898182 46.2059263,45.8321138 C69.4938823,27.6744094 104.568525,53.8770002 128.485457,19.5556683 C127.280487,17.4415647 125.863766,15.4549041 124.257049,13.6261913 C119.452521,21.2173989 108.881501,31.9949091 88.6538552,26.9358625 Z" id="Shape"></path>
                            </g>
                            <path d="M62.5857211,65.1925946 C62.5857211,65.1925946 67.2475407,1.74613601 77.9771255,0.427302166 C87.2901937,-0.717445612 93.172966,51.3817666 94.5683406,65.213696 C94.851631,67.9302736 93.7928114,70.6145378 91.7300219,72.4092534 C89.4096831,74.4191562 85.6464001,76.476537 79.9433351,76.5873191 C68.7116269,76.7930571 61.8404642,73.8546953 62.5857211,65.1925946 Z" id="Shape" fill="#FBB35A" fill-rule="nonzero"></path>
                            <path d="M62.4905819,62.1592768 C62.4905819,62.1592768 82.4539522,70.1619606 93.0249718,51.5505773" id="Shape"></path>
                            <path d="M90.0333732,31.5306796 C90.0333732,31.5306796 83.933895,49.4351679 64.3616523,47.2564543" id="Shape"></path>
                            <path d="M66.4811417,31.9157791 C66.4811417,31.9157791 79.6949161,35.2603417 87.2637661,18.025821" id="Shape"></path>
                            <path d="M69.6683041,15.9684402 C69.6683041,15.9684402 80.3503194,22.8263762 84.5205866,8.70957871" id="Shape"></path>
                            <path d="M78.6748128,1.24497915 C78.6748128,1.24497915 81.5976997,15.0716332 72.332201,15.6519201 C72.332201,15.6519201 79.6790596,20.68459 84.1347443,9.84905116 C84.1558864,9.84905116 82.0733955,-1.00231372 78.6748128,1.24497915 Z" id="Shape" fill="#CD944A" fill-rule="nonzero"></path>
                            <path d="M84.3250227,12.3284588 C84.3250227,12.3284588 83.7330456,29.0143446 67.2528262,32.0529378 C67.2528262,32.0529378 80.6938775,33.0235995 86.8726384,19.2919015 L84.3250227,12.3284588 Z" id="Shape" fill="#CD944A" fill-rule="nonzero"></path>
                            <path d="M87.1474849,21.7396571 C87.1474849,21.7396571 82.9825032,46.0431272 66.3754316,46.8027755 C66.3754316,46.8027755 79.5627784,50.0471068 89.2775453,33.9626092 L87.1474849,21.7396571 Z" id="Shape" fill="#CD944A" fill-rule="nonzero"></path>
                            <path d="M89.63696,35.9408599 C89.63696,35.9408599 87.6284663,65.0818126 65.0540541,62.9453018 C65.0540541,62.9453018 84.2827386,68.1626085 92.623273,52.8008318 L89.63696,35.9408599 Z" id="Shape" fill="#CD944A" fill-rule="nonzero"></path>
                            <path d="M94.4732014,67.5823216 C94.4732014,67.5823216 91.9995829,80.5860233 67.8712308,74.9097624 C67.8712308,74.9097624 88.6115711,76.2180456 92.5069918,54.9004153 L94.4732014,67.5823216 Z" id="Shape" fill="#CD944A" fill-rule="nonzero"></path>
                            <path d="M78.2255444,2.68514571 C78.2255444,2.68514571 74.6102558,2.85923178 72.6387606,14.7392871 C72.6387606,14.7392871 73.949567,15.8787595 74.446405,11.1309577 C74.9432429,6.38315581 76.8195988,4.10421093 77.9031283,3.74548812 C78.9866578,3.38676531 78.2255444,2.68514571 78.2255444,2.68514571 Z" id="Shape" fill="#FFFFFF" fill-rule="nonzero"></path>
                            <path d="M71.2962411,19.0597867 C71.2962411,19.0597867 69.1397532,28.3496523 69.7951564,29.7898189 C70.4505596,31.2299855 72.1366372,19.3182782 72.1366372,19.3182782 C72.1366372,19.3182782 71.5340891,18.0047197 71.2962411,19.0597867 Z" id="Shape" fill="#FFFFFF" fill-rule="nonzero"></path>
                            <path d="M68.5477761,34.6906055 C68.5477761,34.6906055 66.7031332,44.0807024 67.8448033,45.6685784 C68.9864734,47.2564543 69.7687288,35.0757049 69.7687288,35.0757049 C69.7687288,35.0757049 68.7433399,33.6249877 68.5477761,34.6906055 Z" id="Shape" fill="#FFFFFF" fill-rule="nonzero"></path>
                            <path d="M67.3691074,50.0576574 C67.3691074,50.0576574 65.9050212,60.935399 68.1830759,60.7718636 C69.7687288,60.6610815 69.3194605,53.3863941 69.1714662,50.8014797 C69.1294047,50.1866487 68.6663402,49.682858 68.0562237,49.5881526 C67.7126655,49.5195732 67.4113915,49.5881526 67.3691074,50.0576574 Z" id="Shape" fill="#FFFFFF" fill-rule="nonzero"></path>
                            <path d="M67.8870873,65.7939829 C67.5532092,65.7223965 67.2049002,65.8081894 66.9427256,66.0265911 C66.680551,66.2449928 66.5336984,66.5716888 66.5445679,66.912354 C66.4917128,68.8747787 66.5445679,72.6624695 68.3363557,72.6782955 C70.1281435,72.6941215 68.9759024,68.3155932 68.5847746,66.5694572 C68.5157881,66.2122302 68.2592189,65.9198607 67.9135149,65.8045335 L67.8870873,65.7939829 Z" id="Shape" fill="#FFFFFF" fill-rule="nonzero"></path>
                            <path d="M36.6391536,162.775749 L68.4579224,165.693009 C68.4579224,165.693009 64.5202176,183.966771 50.5981849,182.69014 C36.6761522,181.413508 36.6391536,162.775749 36.6391536,162.775749 Z" id="Shape" fill="#4E1E5D" fill-rule="nonzero"></path>
                            <path d="M41.1212659,176.370288 C43.061048,179.419432 46.0685031,181.925216 50.7408937,182.357793 C58.500022,183.069964 62.9662778,177.325123 65.3183296,172.524568 C53.055947,170.889214 45.4553839,173.611287 41.1212659,176.370288 Z" id="Shape" fill="#BD2232" fill-rule="nonzero"></path>
                            <path d="M43.34118,163.677831 C43.5208874,165.423967 45.1858229,166.906336 47.3317399,167.101524 L57.2103576,168.008881 C59.3562746,168.209344 61.2643436,167.04877 61.7611815,165.371214 L43.34118,163.677831 Z" id="Shape" fill="#FFFFFF" fill-rule="nonzero"></path>
                            <path d="M53.2197978,141.152149 C53.2197978,141.152149 70.66198,130.548725 76.2646203,151.175286 C79.7424857,163.957424 93.9552215,158.787595 93.9552215,158.787595 C93.9552215,158.787595 82.0892521,176.586577 61.5127626,167.755665 C40.9362731,158.924754 47.1837456,143.789816 53.2197978,141.152149 Z" id="Shape" fill="#9B6B9A" fill-rule="nonzero"></path>
                            <path d="M47.7492952,138.261265 C47.7492952,138.261265 30.5502464,129.673019 26.9085302,149.455527 C24.646332,161.736507 10.9040066,157.964643 10.9040066,157.964643 C10.9040066,157.964643 23.4359503,173.748446 42.0515156,163.841366 C60.667081,153.934286 53.6214965,140.260617 47.7492952,138.261265 Z" id="Shape" fill="#9B6B9A" fill-rule="nonzero"></path>
                            <path d="M49.7736454,153.232667 C49.7736454,153.232667 48.764113,157.637572 49.7736454,158.972232 C50.7831778,160.306892 53.2726529,164.542986 62.2685905,168.029983 C62.2685905,168.029983 50.8307474,162.374823 49.7736454,153.232667 Z" id="Shape" fill="#9B6B9A" fill-rule="nonzero" style="mix-blend-mode: multiply;"></path>
                            <path d="M94.6899073,84.6902342 C101.270367,82.7858381 121.841571,78.4231358 131.857612,94.6711687 C132.53541,95.7719105 132.616742,97.1380421 132.074318,98.3111502 L131.868183,98.764829 C131.351471,99.8721616 130.337776,100.668112 129.137853,100.908676 C127.937929,101.14924 126.694909,100.805723 125.789847,99.9834315 C120.636475,95.3147597 110.27159,88.3038389 95.8051499,90.0341489 C95.0456358,90.1290575 94.2808726,89.9035455 93.6949861,89.4119076 C93.1090996,88.9202697 92.7551708,88.2070481 92.7184122,87.4439593 L92.7184122,87.4439593 C92.6584207,86.1814481 93.4737519,85.042618 94.6899073,84.6902342 Z" id="Shape" fill="#9B6B9A" fill-rule="nonzero"></path>
                            <path d="M114.230437,236.48801 C114.230437,236.48801 111.836101,225.135488 112.914345,215.998607 C112.914345,215.998607 106.603446,214.136414 104.420531,211.092545 C104.420531,211.092545 108.120388,237.368991 100.017701,243.483105 C100.017701,243.483105 109.478764,240.813785 114.230437,236.48801 Z" id="Shape" fill="#0097CA" fill-rule="nonzero"></path>
                            <path d="M63.5318273,201.354276 C63.5318273,201.354276 51.1425924,227.261448 54.9693015,249.069685 L58.5898757,252.440624 C58.5898757,252.440624 57.8129057,211.140023 67.6386684,201.354276 L63.5318273,201.354276 Z" id="Shape" fill="#0082B0" fill-rule="nonzero"></path>
                            <path d="M105.847618,200.130398 C105.847618,200.130398 103.865552,199.075331 100.033558,199.539561 C100.033558,199.539561 88.4952899,223.500134 94.7057639,249.998144 C94.7057639,249.998144 110.139452,248.5316 114.26215,236.48801 C114.26215,236.48801 113.205048,226.58093 112.787493,221.648491 C112.75578,221.648491 100.223836,218.71013 105.847618,200.130398 Z" id="Shape" fill="#0082B0" fill-rule="nonzero"></path>
                            <path d="M121.704148,219.680791 C121.704148,219.680791 114.536996,224.787316 103.358143,218.019061 L112.147946,209.262004 L121.704148,219.680791 Z" id="Shape" fill="#1F77B9" fill-rule="nonzero"></path>
                            <path d="M104.890941,201.607492 C104.890941,201.607492 109.077065,223.816654 99.2565878,237.147427 C89.4361106,250.478199 109.827607,260.548814 116.799195,241.235812 C123.770782,221.922809 117.211464,202.615081 117.211464,202.615081" id="Shape" fill="#FAC8CA" fill-rule="nonzero"></path>
                            <path d="M104.251394,204.202957 C106.746155,211.873295 104.161541,215.128177 103.405713,217.786946 C103.405713,217.786946 113.310758,211.171675 121.704148,219.680791 C121.704148,219.680791 121.815143,207.299579 118.955683,202.150852 C117.985041,200.43897 116.39137,199.165732 114.505283,198.595276 C113.451539,198.262275 112.365514,198.041244 111.265266,197.935859 C107.544267,197.587687 103.099153,200.657932 104.251394,204.202957 Z" id="Shape" fill="#00AFEC" fill-rule="nonzero"></path>
                            <path d="M115.96937,243.26154 C108.368807,259.794441 89.8008108,249.977042 99.2565878,237.147427 C99.362298,237.004993 99.4627226,236.857283 99.5631473,236.714849 C104.246109,236.01323 110.89528,236.582966 115.96937,243.26154 Z" id="Shape" fill="#5F2B70" fill-rule="nonzero"></path>
                        </g>
                        <g id="Group-10" transform="translate(98.178394, 283.711912) rotate(-38.000000) translate(-98.178394, -283.711912) translate(67.178394, 225.711912)">
                            <path d="M4.95034377,0 L56.2558592,0 C58.9898586,-5.02227537e-16 61.206203,2.2163444 61.206203,4.95034377 L61.206203,110.438825 C61.206203,113.172825 58.9898586,115.389169 56.2558592,115.389169 L4.95034377,115.389169 C2.2163444,115.389169 2.1111752e-15,113.172825 1.77635684e-15,110.438825 L0,4.95034377 C-3.34818358e-16,2.2163444 2.2163444,5.02227537e-16 4.95034377,0 Z" id="Rectangle-2" fill="#2E3B50"></path>
                            <g id="Group-3" transform="translate(2.225680, 12.323115)">
                                <mask id="mask-2" fill="white">
                                    <use xlink:href="#path-1"></use>
                                </mask>
                                <use id="Rectangle-6" fill="#FFFFFF" xlink:href="#path-1"></use>
                                <path d="M28.6142785,12.7981152 C18.8415024,12.7981152 9.27761532,11.8527564 0,10.043834 L0,0 L56.7548428,0 L56.7548428,10.135399 C47.6254976,11.8846459 38.2208093,12.7981152 28.6142785,12.7981152 Z" id="bg" fill="#1F9AFF" mask="url(#mask-2)"></path>
                                <g id="Group-13" mask="url(#mask-2)">
                                    <g transform="translate(3.338520, 17.924531)">
                                        <g id="Rectangle-7" fill="none">
                                            <use fill="black" fill-opacity="1" filter="url(#filter-4)" xlink:href="#path-3"></use>
                                            <use fill="#FFFFFF" fill-rule="evenodd" xlink:href="#path-3"></use>
                                        </g>
                                        <g id="Rectangle-7-Copy" fill="none">
                                            <use fill="black" fill-opacity="1" filter="url(#filter-6)" xlink:href="#path-5"></use>
                                            <use fill="#FFFFFF" fill-rule="evenodd" xlink:href="#path-5"></use>
                                        </g>
                                        <ellipse id="Oval-6-Copy" fill="#D8D8D8" fill-rule="evenodd" cx="5.56420027" cy="6.72169918" rx="3.33852016" ry="3.36084959"></ellipse>
                                        <rect id="Rectangle-13" fill="#2E3B50" fill-rule="evenodd" opacity="0.200000018" x="3.33852016" y="25.7665135" width="42.2879221" height="2.24056639"></rect>
                                        <rect id="Rectangle-13-Copy" fill="#2E3B50" fill-rule="evenodd" opacity="0.200000018" x="3.33852016" y="20.1650975" width="42.2879221" height="2.24056639"></rect>
                                        <rect id="Rectangle-13-Copy-2" fill="#2E3B50" fill-rule="evenodd" opacity="0.200000018" x="3.33852016" y="14.5636816" width="42.2879221" height="2.24056639"></rect>
                                        <rect id="Rectangle-15" fill="#2E3B50" fill-rule="evenodd" opacity="0.200000018" x="11.1284005" y="5.60141598" width="21.143961" height="2.24056639"></rect>
                                        <rect id="Rectangle-15-Copy" fill="#2E3B50" fill-rule="evenodd" opacity="0.200000018" x="11.1284005" y="43.6910447" width="21.143961" height="2.24056639"></rect>
                                    </g>
                                </g>
                            </g>
                        </g>
                    </g>
                </g>
            </g>
        </g>
    </g>
</svg>