<?xml version="1.0" encoding="UTF-8"?>
<svg width="60px" height="60px" viewBox="0 0 60 60" version="1.1" xmlns="http://www.w3.org/2000/svg" xmlns:xlink="http://www.w3.org/1999/xlink">
    <!-- Generator: Sketch 53.2 (72643) - https://sketchapp.com -->
    <title>Icon</title>
    <desc>Created with Sketch.</desc>
    <defs>
        <path d="M15.2317288,15.3689516 L15.2317288,5.75921704 C15.2317288,5.07816084 15.7846594,4.52835181 16.4667339,4.52835181 C17.1535636,4.52835181 17.7017389,5.07942895 17.7017389,5.75921704 L17.7017389,15.3689516 L27.3114735,15.3689516 C27.9925297,15.3689516 28.5423387,15.9218822 28.5423387,16.6039567 C28.5423387,17.2907864 27.9912616,17.8389617 27.3114735,17.8389617 L17.7017389,17.8389617 L17.7017389,27.4486963 C17.7017389,28.1297525 17.1488083,28.6795615 16.4667339,28.6795615 C15.7799041,28.6795615 15.2317288,28.1284844 15.2317288,27.4486963 L15.2317288,17.8389617 L5.62199426,17.8389617 C4.94093805,17.8389617 4.39112903,17.2860311 4.39112903,16.6039567 C4.39112903,15.9171269 4.94220617,15.3689516 5.62199426,15.3689516 L15.2317288,15.3689516 Z" id="path-1"></path>
    </defs>
    <g id="CREATE-A-NEW-CLASS✅-" stroke="none" stroke-width="1" fill="none" fill-rule="evenodd">
        <g id="4.ADD-CLASSE---DONE" transform="translate(-683.000000, -631.000000)">
            <g id="Right-Panel" transform="translate(500.000000, 142.000000)">
                <g id="Content" transform="translate(153.000000, 149.000000)">
                    <g id="Add-New-Class" transform="translate(0.000000, 305.000000)">
                        <g id="Icon" transform="translate(30.000000, 35.000000)">
                            <circle id="Oval" fill="#1F9AFF" fill-rule="nonzero" opacity="0.1" cx="30" cy="30" r="30"></circle>
                            <g id="Icons-/-Add" transform="translate(13.500000, 13.500000)">
                                <mask id="mask-2" fill="white">
                                    <use xlink:href="#path-1"></use>
                                </mask>
                                <use id="Icons" fill="#FFFFFF" fill-rule="evenodd" xlink:href="#path-1"></use>
                                <g id="Colors-/-Primary-/-#1F9AFF" mask="url(#mask-2)" fill="#1F9AFF" fill-rule="nonzero">
                                    <rect id="Color" x="0" y="0" width="33.0400485" height="33.0400485"></rect>
                                </g>
                            </g>
                        </g>
                    </g>
                </g>
            </g>
        </g>
    </g>
</svg>