<?xml version="1.0" encoding="UTF-8"?>
<svg width="60px" height="60px" viewBox="0 0 60 60" version="1.1" xmlns="http://www.w3.org/2000/svg" xmlns:xlink="http://www.w3.org/1999/xlink">
    <!-- Generator: Sketch 53.2 (72643) - https://sketchapp.com -->
    <title>Icon</title>
    <desc>Created with Sketch.</desc>
    <defs>
        <path d="M26.3467742,6.58669355 L6.58669355,6.58669355 L6.58669355,16.4667339 C6.58669355,17.0730223 6.09519969,17.5645161 5.48891129,17.5645161 C4.88262289,17.5645161 4.39112903,17.0730223 4.39112903,16.4667339 L4.39112903,5.48891129 C4.39112903,4.88262289 4.88262289,4.39112903 5.48891129,4.39112903 L27.4445565,4.39112903 C28.0508449,4.39112903 28.5423387,4.88262289 28.5423387,5.48891129 L28.5423387,16.4667339 C28.5423387,17.0730223 28.0508449,17.5645161 27.4445565,17.5645161 C26.8382681,17.5645161 26.3467742,17.0730223 26.3467742,16.4667339 L26.3467742,6.58669355 Z M10.9778226,13.1733871 C9.76524578,13.1733871 8.78225806,12.1903994 8.78225806,10.9778226 C8.78225806,9.76524578 9.76524578,8.78225806 10.9778226,8.78225806 C12.1903994,8.78225806 13.1733871,9.76524578 13.1733871,10.9778226 C13.1733871,12.1903994 12.1903994,13.1733871 10.9778226,13.1733871 Z M16.4667339,8.78225806 L23.0534274,8.78225806 C23.6597158,8.78225806 24.1512097,9.27375192 24.1512097,9.88004032 C24.1512097,10.4863287 23.6597158,10.9778226 23.0534274,10.9778226 L16.4667339,10.9778226 C15.8604455,10.9778226 15.3689516,10.4863287 15.3689516,9.88004032 C15.3689516,9.27375192 15.8604455,8.78225806 16.4667339,8.78225806 Z M16.4667339,12.0756048 L20.8578629,12.0756048 C21.4641513,12.0756048 21.9556452,12.5670987 21.9556452,13.1733871 C21.9556452,13.7796755 21.4641513,14.2711694 20.8578629,14.2711694 L16.4667339,14.2711694 C15.8604455,14.2711694 15.3689516,13.7796755 15.3689516,13.1733871 C15.3689516,12.5670987 15.8604455,12.0756048 16.4667339,12.0756048 Z M16.4667339,15.3689516 C18.2039102,15.3689516 19.7054783,16.3777105 20.4176179,17.8414082 C20.8962745,17.6623929 21.4145297,17.5645161 21.9556452,17.5645161 C24.3807988,17.5645161 26.3467742,19.5304916 26.3467742,21.9556452 C26.3467742,23.1245665 25.8900331,24.1868102 25.145281,24.973646 C26.1034026,25.4543461 26.8335666,25.9563741 27.3357732,26.4797298 L27.335774,26.479729 C27.7154773,26.8754225 27.7025146,27.5040058 27.306821,27.8837091 C27.2645754,27.9242475 27.2188271,27.9609701 27.1701109,27.9934476 L27.1701109,27.9934476 C26.7219134,28.2922459 26.1237865,28.2255708 25.7523895,27.8354098 C24.8147434,26.8504199 23.7974549,26.3751756 22.7005097,26.4096905 C22.7863489,26.6606637 22.8611406,26.9955726 22.9248848,27.4144171 L22.9248968,27.4144153 C23.0063649,27.9497182 22.6384592,28.4497099 22.1031563,28.5311781 C22.0543372,28.5386079 22.0050264,28.5423387 21.9556452,28.5423387 L21.9556452,28.5423387 C21.3529457,28.5423387 20.830724,28.1246491 20.6983036,27.5366768 C20.1899786,25.2797001 18.7794615,24.1512097 16.4667339,24.1512097 C14.1540063,24.1512097 12.7434891,25.2797001 12.2351823,27.5366809 L12.2351641,27.5366768 C12.1027437,28.1246491 11.580522,28.5423387 10.9778226,28.5423387 L10.9778226,28.5423387 C10.4916991,28.5423387 10.0976182,28.1482578 10.0976182,27.6621343 C10.0976182,27.5930427 10.1057531,27.5241913 10.1218549,27.4570022 C10.2351321,26.9841618 10.3375032,26.6140887 10.4289315,26.3467742 C9.53733656,26.3808404 8.65422098,26.8699947 7.77958471,27.8142373 L7.77957403,27.8142274 C7.40495729,28.2186573 6.79344262,28.2943427 6.33152986,27.9934476 L6.33152986,27.9934476 C5.85599261,27.6836773 5.72161191,27.0470598 6.03138218,26.5715225 C6.04207641,26.5551055 6.05323798,26.5389977 6.06485319,26.5232189 C6.55735638,25.854152 7.131804,25.33763 7.78818675,24.973646 C7.04343469,24.1868102 6.58669355,23.1245665 6.58669355,21.9556452 C6.58669355,19.5304916 8.55266898,17.5645161 10.9778226,17.5645161 C11.5189381,17.5645161 12.0371932,17.6623929 12.5158499,17.8414082 C13.2279895,16.3777105 14.7295575,15.3689516 16.4667339,15.3689516 Z M10.9778226,19.7600806 C9.76524578,19.7600806 8.78225806,20.7430684 8.78225806,21.9556452 C8.78225806,23.168222 9.76524578,24.1512097 10.9778226,24.1512097 C11.2138986,24.1512097 11.4412724,24.1139505 11.654384,24.0449918 C12.1239673,23.542729 12.6712613,23.1140362 13.277098,22.7780815 C12.5964971,22.0590218 12.1564269,21.1099567 12.0856636,20.0596625 C11.7604625,19.8692338 11.3818896,19.7600806 10.9778226,19.7600806 Z M19.6563697,22.7780815 C20.2622065,23.1140362 20.8095005,23.542729 21.2790837,24.0449918 C21.4921954,24.1139505 21.7195691,24.1512097 21.9556452,24.1512097 C23.168222,24.1512097 24.1512097,23.168222 24.1512097,21.9556452 C24.1512097,20.7430684 23.168222,19.7600806 21.9556452,19.7600806 C21.5515781,19.7600806 21.1730052,19.8692338 20.8478041,20.0596625 C20.7770408,21.1099567 20.3369706,22.0590218 19.6563697,22.7780815 Z M16.4667339,21.9556452 C17.6793107,21.9556452 18.6622984,20.9726574 18.6622984,19.7600806 C18.6622984,18.5475038 17.6793107,17.5645161 16.4667339,17.5645161 C15.2541571,17.5645161 14.2711694,18.5475038 14.2711694,19.7600806 C14.2711694,20.9726574 15.2541571,21.9556452 16.4667339,21.9556452 Z" id="path-1"></path>
    </defs>
    <g id="CREATE-A-NEW-CLASS✅-" stroke="none" stroke-width="1" fill="none" fill-rule="evenodd">
        <g id="4.ADD-CLASSE---DONE" transform="translate(-683.000000, -480.000000)">
            <g id="Right-Panel" transform="translate(500.000000, 142.000000)">
                <g id="Content" transform="translate(153.000000, 149.000000)">
                    <g id="Class-Bloc" transform="translate(0.000000, 155.000000)">
                        <g id="Icon" transform="translate(30.000000, 34.000000)">
                            <circle id="Oval" fill="#1F9AFF" fill-rule="nonzero" opacity="0.1" cx="30" cy="30" r="30"></circle>
                            <g id="Icons-/-My-classes" transform="translate(13.500000, 13.500000)">
                                <mask id="mask-2" fill="white">
                                    <use xlink:href="#path-1"></use>
                                </mask>
                                <use id="Icons" fill="#FFFFFF" fill-rule="nonzero" xlink:href="#path-1"></use>
                                <g id="Colors-/-Primary-/-#1F9AFF" mask="url(#mask-2)" fill="#1F9AFF" fill-rule="nonzero">
                                    <rect id="Color" x="0" y="0" width="33.0400485" height="33.0400485"></rect>
                                </g>
                            </g>
                        </g>
                    </g>
                </g>
            </g>
        </g>
    </g>
</svg>